<?xml version="1.0" encoding="UTF-8" standalone="no"?>
<svg
   xmlns:dc="http://purl.org/dc/elements/1.1/"
   xmlns:cc="http://creativecommons.org/ns#"
   xmlns:rdf="http://www.w3.org/1999/02/22-rdf-syntax-ns#"
   xmlns:svg="http://www.w3.org/2000/svg"
   xmlns="http://www.w3.org/2000/svg"
   xmlns:sodipodi="http://sodipodi.sourceforge.net/DTD/sodipodi-0.dtd"
   xmlns:inkscape="http://www.inkscape.org/namespaces/inkscape"
   id="svg2"
   height="100%"
   width="100%"
   version="1.1"
   viewBox="0 0 16 16"
   inkscape:version="0.91 r13725"
   sodipodi:docname="drive-removable-media-usb-symbolic.svg">
  <defs
     id="defs7" />
  <sodipodi:namedview
     pagecolor="#ffffff"
     bordercolor="#666666"
     borderopacity="1"
     objecttolerance="10"
     gridtolerance="10"
     guidetolerance="10"
     inkscape:pageopacity="0"
     inkscape:pageshadow="2"
     inkscape:window-width="640"
     inkscape:window-height="480"
     id="namedview5" />
  <metadata
     id="metadata10">
    <rdf:RDF>
      <cc:Work
         rdf:about="">
        <dc:format>image/svg+xml</dc:format>
        <dc:type
           rdf:resource="http://purl.org/dc/dcmitype/StillImage" />
      </cc:Work>
    </rdf:RDF>
  </metadata>
  <path
     id="path4"
     style="fill:#bebebe"
     d="m4 1 0.03125 2.0312h-0.09375c-0.50273 0-0.90587 0.40352-0.90625 0.90625v8.0625s-0.0312 4 4.9688 4 5.0312-4 5.0312-4l-0.031-8.0625c0-0.5027-0.404-0.9062-0.906-0.9063h-0.094v-2.0312s0-1-1-1h-6c-1 0-1 1-1 1zm2.0312 1h1v1.0312h-1zm3 0h1v1.0312h-1zm-3.125 3.0312h4.2188c0.50273 0 0.90855 0.40353 0.90625 0.90625l-0.031 5.0626c-0.014 3-3 2.966-3 2.966s-3.0063 0.034-3-2.966v-5.0625c0.001-0.5027 0.4035-0.9063 0.9062-0.9063z" />
</svg>
