<?xml version="1.0" encoding="UTF-8" standalone="no"?>
<svg
   xmlns:dc="http://purl.org/dc/elements/1.1/"
   xmlns:cc="http://creativecommons.org/ns#"
   xmlns:rdf="http://www.w3.org/1999/02/22-rdf-syntax-ns#"
   xmlns:svg="http://www.w3.org/2000/svg"
   xmlns="http://www.w3.org/2000/svg"
   xmlns:sodipodi="http://sodipodi.sourceforge.net/DTD/sodipodi-0.dtd"
   xmlns:inkscape="http://www.inkscape.org/namespaces/inkscape"
   id="svg3202"
   height="16"
   width="16"
   version="1.1"
   inkscape:version="0.91 r13725"
   sodipodi:docname="start-here-gentoo-symbolic.svg">
  <defs
     id="defs7" />
  <sodipodi:namedview
     pagecolor="#ffffff"
     bordercolor="#666666"
     borderopacity="1"
     objecttolerance="10"
     gridtolerance="10"
     guidetolerance="10"
     inkscape:pageopacity="0"
     inkscape:pageshadow="2"
     inkscape:window-width="640"
     inkscape:window-height="480"
     id="namedview5" />
  <metadata
     id="metadata3210">
    <rdf:RDF>
      <cc:Work
         rdf:about="">
        <dc:format>image/svg+xml</dc:format>
        <dc:type
           rdf:resource="http://purl.org/dc/dcmitype/StillImage" />
      </cc:Work>
    </rdf:RDF>
  </metadata>
  <path
     id="path3204"
     style="fill:#ccc"
     d="m6.4502 6.5053c-3.2205 0.15201-5.7417 3.0731-5.6132 4.6618 0.12499 1.5456 4.0419 2.9032 3.9958 2.9493-0.80139 0.67664-1.3299 1.1337-1.9979 1.7442-1.6087 1.4703-2.72 2.5611-2.1565 4.091 0.65008 1.7648 2.0711 1.6917 3.7421 1.3637 4.3074-0.849 11.398-6.298 11.036-8.309-0.291-1.626-4.253-4.8424-6.5956-5.9933-0.7317-0.3596-1.5644-0.5472-2.4102-0.5074zm0.66597 2.7908c0.40291-0.03774 0.8722 0.0642 1.3954 0.31713 1.1426 0.55241 2.3261 2.019 0 2.8542-0.63253 0.2271-2.6619-0.54634-2.6005-1.6174 0.055968-0.98882 0.53358-1.491 1.2051-1.5539z"
     fill-rule="evenodd"
     transform="translate(0 -6)"
     fill="#bebebe" />
</svg>
