<?xml version="1.0" encoding="UTF-8" standalone="no"?>
<svg
   xmlns:dc="http://purl.org/dc/elements/1.1/"
   xmlns:cc="http://creativecommons.org/ns#"
   xmlns:rdf="http://www.w3.org/1999/02/22-rdf-syntax-ns#"
   xmlns:svg="http://www.w3.org/2000/svg"
   xmlns="http://www.w3.org/2000/svg"
   xmlns:sodipodi="http://sodipodi.sourceforge.net/DTD/sodipodi-0.dtd"
   xmlns:inkscape="http://www.inkscape.org/namespaces/inkscape"
   id="svg3212"
   height="16"
   width="16"
   version="1.1"
   inkscape:version="0.91 r13725"
   sodipodi:docname="start-here-gnome-symbolic.svg">
  <defs
     id="defs7" />
  <sodipodi:namedview
     pagecolor="#ffffff"
     bordercolor="#666666"
     borderopacity="1"
     objecttolerance="10"
     gridtolerance="10"
     guidetolerance="10"
     inkscape:pageopacity="0"
     inkscape:pageshadow="2"
     inkscape:window-width="640"
     inkscape:window-height="480"
     id="namedview5" />
  <metadata
     id="metadata3224">
    <rdf:RDF>
      <cc:Work
         rdf:about="">
        <dc:format>image/svg+xml</dc:format>
        <dc:type
           rdf:resource="http://purl.org/dc/dcmitype/StillImage" />
      </cc:Work>
    </rdf:RDF>
  </metadata>
  <path
     id="path3218"
     d="m12.992 0.0144c-0.614 0.041-1.319 0.3111-1.887 0.7771-0.696 0.571-1.2617 2.0225-1.1102 2.831 0.07813 0.41684 0.39269 0.92405 0.69386 1.0824 0.56085 0.29494 1.5831-0.1943 2.5257-1.1934 1.0182-1.0793 1.4859-2.2686 1.1379-2.942-0.214-0.4139-0.745-0.5961-1.36-0.5551zm-5.0232 0.6383c-0.85525 0.0007691-1.3077 0.60212-1.3045 1.7485 0.00225 0.78505 0.27818 1.4913 0.63835 1.6653 0.26779 0.12934 0.27448 0.11727 0.6106 0 0.5568-0.1937 1.08-1.4903 0.9716-2.3586-0.0888-0.7106-0.3942-1.0551-0.916-1.0547zm-3.3861 1.1657c-0.16 0.0232-0.3205 0.1262-0.4718 0.2776-0.305 0.3052-0.309 0.4715-0.3053 1.0546 0.00439 0.68769 0.17221 1.0626 0.63835 1.5543 0.34869 0.36773 0.60013 0.38972 0.9159 0.05551 0.3421-0.362 0.4483-0.9301 0.3331-1.5538-0.1757-0.9513-0.6301-1.4572-1.1102-1.3878zm-2.3869 2.0816c-0.166 0.027-0.3157 0.121-0.4718 0.278-0.4097 0.41-0.1232 1.537 0.5273 2.109 0.7764 0.682 1.4034 0.057 1.138-1.138-0.1889-0.851-0.6954-1.33-1.1935-1.249zm7.1329 1.4987c-0.5498-0.0095-1.166 0.0364-1.804 0.1665-1.6437 0.3353-2.959 0.9552-3.8024 1.804-0.4857 0.4889-0.7636 0.9415-0.9992 1.6375-0.57012 1.6848 0.48572 4.0816 2.4979 5.7174 0.74967 0.60945 1.2071 0.8822 1.9706 1.1379 0.39588 0.13261 0.70977 0.16341 1.4432 0.13877 0.84082-0.02825 1.0118-0.06579 1.5543-0.33305 0.79492-0.39166 1.696-1.2976 2.0816-2.0816 0.23526-0.47827 0.27295-0.68265 0.24979-1.0824-0.03954-0.68261-0.30433-0.86839-1.1657-0.86039-1.2297 0.01141-1.7459 0.29658-1.9983 1.1657-0.19068 0.65644-0.40148 0.88814-0.83264 0.88814-0.68331 0-1.3877-0.54336-1.3877-1.1102 0-0.39433 0.6353-0.98208 2.2204-2.0538 2.2329-1.5098 3.0006-2.4283 2.8865-3.4416-0.11788-1.0467-1.2648-1.6646-2.9142-1.693z"
     style="fill:#ccc" />
</svg>
