<?xml version="1.0" encoding="UTF-8" standalone="no"?>
<svg
   xmlns:dc="http://purl.org/dc/elements/1.1/"
   xmlns:cc="http://creativecommons.org/ns#"
   xmlns:rdf="http://www.w3.org/1999/02/22-rdf-syntax-ns#"
   xmlns:svg="http://www.w3.org/2000/svg"
   xmlns="http://www.w3.org/2000/svg"
   xmlns:sodipodi="http://sodipodi.sourceforge.net/DTD/sodipodi-0.dtd"
   xmlns:inkscape="http://www.inkscape.org/namespaces/inkscape"
   id="svg3226"
   height="16"
   width="16"
   version="1.1"
   inkscape:version="0.91 r13725"
   sodipodi:docname="start-here-linux-mint-symbolic.svg">
  <defs
     id="defs7" />
  <sodipodi:namedview
     pagecolor="#ffffff"
     bordercolor="#666666"
     borderopacity="1"
     objecttolerance="10"
     gridtolerance="10"
     guidetolerance="10"
     inkscape:pageopacity="0"
     inkscape:pageshadow="2"
     inkscape:window-width="640"
     inkscape:window-height="480"
     id="namedview5" />
  <metadata
     id="metadata3234">
    <rdf:RDF>
      <cc:Work
         rdf:about="">
        <dc:format>image/svg+xml</dc:format>
        <dc:type
           rdf:resource="http://purl.org/dc/dcmitype/StillImage" />
      </cc:Work>
    </rdf:RDF>
  </metadata>
  <path
     id="path3228"
     style="fill:#ccc"
     d="m0.03125 7.0938v4.0625h1.0312c0.54118-0.000387 1.0316 0.49007 1.0312 1.0312v4.6875c0 2.2789 1.7836 4.0938 4.0625 4.0938h9.8126v-9.8126c0-2.2789-1.8149-4.0625-4.0938-4.0625h-11.843zm3.9688 1.9062h0.96875v8.125c0 0.53694 0.45068 0.96875 1 0.96875h6.0625c0.55 0 0.969-0.432 0.969-0.969v-4.125c0-0.55228-0.44772-1-1-1s-1 0.44772-1 1v3h-1v-3c0-0.552-0.4477-1-1-1s-1 0.448-1 1v3h-1v-3c0-1.1046 0.89543-2 2-2 0.60085 0 1.1334 0.26805 1.5 0.6875 0.367-0.42 0.899-0.688 1.5-0.688 1.1046 0 2 0.89543 2 2v4.125c0 1.0739-0.8701 1.9375-1.9688 1.9375h-6.0625c-1.0984 0-1.9685-0.863-1.9685-1.937v-8.125z"
     color="#000000"
     transform="translate(0 -6)"
     fill="#bebebe" />
</svg>
