<?xml version="1.0" encoding="UTF-8" standalone="no"?>
<svg
   xmlns:dc="http://purl.org/dc/elements/1.1/"
   xmlns:cc="http://creativecommons.org/ns#"
   xmlns:rdf="http://www.w3.org/1999/02/22-rdf-syntax-ns#"
   xmlns:svg="http://www.w3.org/2000/svg"
   xmlns="http://www.w3.org/2000/svg"
   xmlns:sodipodi="http://sodipodi.sourceforge.net/DTD/sodipodi-0.dtd"
   xmlns:inkscape="http://www.inkscape.org/namespaces/inkscape"
   id="svg3127"
   height="16"
   width="16"
   version="1.1"
   inkscape:version="0.91 r13725"
   sodipodi:docname="start-here-archlinux-symbolic.svg">
  <defs
     id="defs7" />
  <sodipodi:namedview
     pagecolor="#ffffff"
     bordercolor="#666666"
     borderopacity="1"
     objecttolerance="10"
     gridtolerance="10"
     guidetolerance="10"
     inkscape:pageopacity="0"
     inkscape:pageshadow="2"
     inkscape:window-width="640"
     inkscape:window-height="480"
     id="namedview5" />
  <metadata
     id="metadata3139">
    <rdf:RDF>
      <cc:Work
         rdf:about="">
        <dc:format>image/svg+xml</dc:format>
        <dc:type
           rdf:resource="http://purl.org/dc/dcmitype/StillImage" />
      </cc:Work>
    </rdf:RDF>
  </metadata>
  <path
     id="path3133"
     d="m7.9985 0c-0.7123 1.746-1.1419 2.8881-1.9349 4.582 0.4862 0.515 1.083 1.116 2.0523 1.793-1.0421-0.428-1.8239-0.752-2.355-1.199-1.015 2.117-2.5341 5.027-5.7609 10.824 2.5362-1.464 4.5022-2.366 6.3344-2.711-0.0787-0.338-0.1234-0.704-0.1204-1.086l0.003-0.08123c0.04024-1.6246 0.88549-2.8738 1.8868-2.789 1.0013 0.08482 1.7796 1.4713 1.7393 3.0959-0.0076 0.30569-0.04206 0.59976-0.10231 0.87251 1.8123 0.35446 3.7573 1.2547 6.2592 2.6988-0.49332-0.90806-0.93365-1.7266-1.3541-2.5062-0.66235-0.51327-1.3532-1.1813-2.7625-1.9045 0.96862 0.25164 1.5912 0.45324 2.1317 0.77776-4.2752-7.958-4.5504-8.9271-6.0165-12.367z"
     style="fill:#ccc;fill-rule:evenodd" />
</svg>
