<?xml version="1.0" encoding="UTF-8" standalone="no"?>
<svg
   xmlns:dc="http://purl.org/dc/elements/1.1/"
   xmlns:cc="http://creativecommons.org/ns#"
   xmlns:rdf="http://www.w3.org/1999/02/22-rdf-syntax-ns#"
   xmlns:svg="http://www.w3.org/2000/svg"
   xmlns="http://www.w3.org/2000/svg"
   xmlns:sodipodi="http://sodipodi.sourceforge.net/DTD/sodipodi-0.dtd"
   xmlns:inkscape="http://www.inkscape.org/namespaces/inkscape"
   id="svg3236"
   height="16"
   width="16"
   version="1.1"
   inkscape:version="0.91 r13725"
   sodipodi:docname="start-here-mandriva-symbolic.svg">
  <defs
     id="defs7" />
  <sodipodi:namedview
     pagecolor="#ffffff"
     bordercolor="#666666"
     borderopacity="1"
     objecttolerance="10"
     gridtolerance="10"
     guidetolerance="10"
     inkscape:pageopacity="0"
     inkscape:pageshadow="2"
     inkscape:window-width="640"
     inkscape:window-height="480"
     id="namedview5" />
  <metadata
     id="metadata3244">
    <rdf:RDF>
      <cc:Work
         rdf:about="">
        <dc:format>image/svg+xml</dc:format>
        <dc:type
           rdf:resource="http://purl.org/dc/dcmitype/StillImage" />
      </cc:Work>
    </rdf:RDF>
  </metadata>
  <path
     id="path3238"
     style="fill:#ccc"
     transform="translate(0 -6)"
     d="m10.751 7.7083c-0.07263-0.015188-0.18503 0.04846-0.27091 0.1806l-2.0164 3.1301c-0.17138 0.26314-0.56095 0.44144-0.87292 0.39131l-3.7326-0.601c-0.3127-0.051-0.4106 0.117-0.2107 0.361l2.378 2.8897c0.19918 0.24406 0.26466 0.68294 0.1204 0.96322l-1.7157 3.3412c-0.14384 0.28034-0.023002 0.41434 0.27091 0.30101l3.4917-1.3545c0.2805-0.107 0.6729-0.048 0.903 0.151-1.9648 1.317-4.9822 2.864-6.8931 1.053-1.1128-1.054-1.2875-3.028-1.2341-4.454 0.0604-1.616 0.735-3.105 1.806-4.3049-0.29 0.3249-0.6421 0.5769-0.9331 0.9029-1.0432 1.1688-1.6645 2.5672-1.806 4.1238-0.13833 1.5214 0.10232 3.4808 1.204 4.6355 2.0285 2.1262 5.8073-0.22002 7.5854-1.505 0.13226-0.09556 0.2481-0.23987 0.36121-0.36121l2.6188 2.6188c0.22292 0.22362 0.37883 0.13345 0.36121-0.1806l-0.211-3.732c-0.01735-0.31312 0.19906-0.70089 0.48161-0.84282l3.3713-1.6856c0.28201-0.14249 0.24576-0.31023-0.0602-0.39131l-3.6422-0.96322c-0.30565-0.0804-0.5836-0.41223-0.63212-0.72242l-0.572-3.7029c-0.025-0.1552-0.078-0.2256-0.151-0.2408z"
     fill="#bebebe" />
</svg>
