<?xml version="1.0" encoding="UTF-8" standalone="no"?>
<svg
   xmlns:dc="http://purl.org/dc/elements/1.1/"
   xmlns:cc="http://creativecommons.org/ns#"
   xmlns:rdf="http://www.w3.org/1999/02/22-rdf-syntax-ns#"
   xmlns:svg="http://www.w3.org/2000/svg"
   xmlns="http://www.w3.org/2000/svg"
   xmlns:sodipodi="http://sodipodi.sourceforge.net/DTD/sodipodi-0.dtd"
   xmlns:inkscape="http://www.inkscape.org/namespaces/inkscape"
   id="svg3246"
   height="16"
   width="16"
   version="1.1"
   inkscape:version="0.91 r13725"
   sodipodi:docname="start-here-opensuse-symbolic.svg">
  <defs
     id="defs7" />
  <sodipodi:namedview
     pagecolor="#ffffff"
     bordercolor="#666666"
     borderopacity="1"
     objecttolerance="10"
     gridtolerance="10"
     guidetolerance="10"
     inkscape:pageopacity="0"
     inkscape:pageshadow="2"
     inkscape:window-width="640"
     inkscape:window-height="480"
     id="namedview5" />
  <metadata
     id="metadata3254">
    <rdf:RDF>
      <cc:Work
         rdf:about="">
        <dc:format>image/svg+xml</dc:format>
        <dc:type
           rdf:resource="http://purl.org/dc/dcmitype/StillImage" />
      </cc:Work>
    </rdf:RDF>
  </metadata>
  <path
     id="path3248"
     style="fill:#ccc"
     d="m8 6c-4.4183 0-8 3.5817-8 8s3.5817 8 8 8 8-3.5817 8-8-3.582-8-8-8zm0 1.7778c3.4364 0 6.2222 2.7858 6.2222 6.2222s-2.7858 6.2222-6.2222 6.2222c-1.6352 0-3.1117-0.63521-4.2222-1.6667 0.35808-0.05034 0.92689-0.05594 1.6667 0.02778 1.082 0.12245 1.6754 0.16504 2.3889 0.11111 1.6248-0.12284 2.698-0.39002 3.8889-0.97222 0.62236-0.30428 0.75428-0.44173 0.88889-0.80556 0.12834-0.34689 0.17655-0.66667 0.11111-0.66667-0.02316 0-0.22801 0.07903-0.47222 0.19444-0.91637 0.43303-1.7182 0.64843-2.4167 0.61111-0.72613-0.03884-1.8942-0.46021-3.3056-1.1389l-0.66667-0.30556-0.5-1.25 0.47222 0.30556c0.80589 0.53514 2.1223 1.1655 2.9167 1.4167 1.2135 0.38377 2.1617 0.33109 3.1389-0.16667 0.34442-0.17544 1-0.60536 1-0.66667 0-0.11556-0.33544-1.2402-0.52778-1.75-0.481-1.274-0.818-1.704-1.611-2.082-0.88-0.42-1.8557-0.705-3.6389-1.111-0.8525-0.181-1.6903-0.3648-2.5555-0.4727l-0.0278 1.0557c-0.5659-0.176-1.1034-0.311-1.6389-0.445 1.1249-1.608 2.9994-2.6662 5.1111-2.6662zm1.4722 4.5c0.5826-0.01235 1.1376 0.37092 1.3056 1.0278 0.08462 0.33091 0.05789 0.56559-0.11111 0.91667-0.24707 0.51321-0.79384 0.79174-1.3889 0.69444-0.41962-0.0686-0.78233-0.3392-0.97222-0.75-0.23129-0.50035-0.12301-1.165 0.27778-1.5278 0.2625-0.23759 0.58371-0.35473 0.88889-0.36111zm0.30556 0.69444c-0.46493 0-0.757 0.34146-0.5 0.58333 0.20846 0.19618 0.5564 0.22487 0.83333 0.08333 0.17935-0.09167 0.24075-0.23187 0.19444-0.41667-0.03408-0.13599-0.30155-0.25-0.52778-0.25z"
     color="#000000"
     transform="translate(0 -6)"
     fill="#bebebe" />
</svg>
