<?xml version="1.0" encoding="UTF-8" standalone="no"?>
<svg
   xmlns:dc="http://purl.org/dc/elements/1.1/"
   xmlns:cc="http://creativecommons.org/ns#"
   xmlns:rdf="http://www.w3.org/1999/02/22-rdf-syntax-ns#"
   xmlns:svg="http://www.w3.org/2000/svg"
   xmlns="http://www.w3.org/2000/svg"
   xmlns:sodipodi="http://sodipodi.sourceforge.net/DTD/sodipodi-0.dtd"
   xmlns:inkscape="http://www.inkscape.org/namespaces/inkscape"
   height="16"
   width="16"
   version="1.1"
   viewBox="0 0 16 16"
   id="svg2"
   inkscape:version="0.91 r13725"
   sodipodi:docname="num-lock-on-symbolic.svg">
  <metadata
     id="metadata14">
    <rdf:RDF>
      <cc:Work
         rdf:about="">
        <dc:format>image/svg+xml</dc:format>
        <dc:type
           rdf:resource="http://purl.org/dc/dcmitype/StillImage" />
      </cc:Work>
    </rdf:RDF>
  </metadata>
  <defs
     id="defs12" />
  <sodipodi:namedview
     pagecolor="#ffffff"
     bordercolor="#666666"
     borderopacity="1"
     objecttolerance="10"
     gridtolerance="10"
     guidetolerance="10"
     inkscape:pageopacity="0"
     inkscape:pageshadow="2"
     inkscape:window-width="640"
     inkscape:window-height="480"
     id="namedview10" />
  <g
     transform="translate(0 -1036.4)"
     fill="#bebebe"
     id="g4">
    <path
       style="color-rendering:auto;text-decoration-color:#000000;color:#000000;isolation:auto;mix-blend-mode:normal;shape-rendering:auto;solid-color:#000000;block-progression:tb;text-decoration-line:none;text-decoration-style:solid;image-rendering:auto;white-space:normal;text-indent:0;text-transform:none"
       d="m3.0005 1036.4a2.0002 2.0002 0 0 0 -1.9883 1.7793l-1 9a2.0002 2.0002 0 0 0 1.9883 2.2207h12a2.0002 2.0002 0 0 0 1.9883 -2.2207l-1-9a2.0002 2.0002 0 0 0 -1.9883 -1.7793h-10zm6 2v2 5h2v2h-6v-2h2v-4.5l-2 0.5v-2l4-1z"
       fill-rule="evenodd"
       id="path6" />
    <path
       style="color-rendering:auto;text-decoration-color:#000000;color:#000000;isolation:auto;mix-blend-mode:normal;shape-rendering:auto;solid-color:#000000;block-progression:tb;text-decoration-line:none;text-decoration-style:solid;image-rendering:auto;white-space:normal;text-indent:0;text-transform:none"
       d="m0.00047253 1049.6v0.5469c0 1.2119 1.0381 2.25 2.25 2.25h11.5c1.2119 0 2.25-1.0381 2.25-2.25v-0.5469c-0.53161 0.4851-1.2252 0.797-2 0.7969h-12c-0.77456 0.0001-1.4684-0.3119-2-0.7969z"
       id="path8" />
  </g>
</svg>
