<?xml version="1.0" encoding="UTF-8" standalone="no"?>
<svg
   xmlns:dc="http://purl.org/dc/elements/1.1/"
   xmlns:cc="http://creativecommons.org/ns#"
   xmlns:rdf="http://www.w3.org/1999/02/22-rdf-syntax-ns#"
   xmlns:svg="http://www.w3.org/2000/svg"
   xmlns="http://www.w3.org/2000/svg"
   xmlns:sodipodi="http://sodipodi.sourceforge.net/DTD/sodipodi-0.dtd"
   xmlns:inkscape="http://www.inkscape.org/namespaces/inkscape"
   id="svg2"
   height="76pt"
   width="76pt"
   version="1.1"
   viewBox="0 0 76 76"
   inkscape:version="0.91 r13725"
   sodipodi:docname="input-tablet.svg">
  <sodipodi:namedview
     pagecolor="#ffffff"
     bordercolor="#666666"
     borderopacity="1"
     objecttolerance="10"
     gridtolerance="10"
     guidetolerance="10"
     inkscape:pageopacity="0"
     inkscape:pageshadow="2"
     inkscape:window-width="1366"
     inkscape:window-height="747"
     id="namedview43"
     showgrid="false"
     inkscape:zoom="2.4842105"
     inkscape:cx="-69.488266"
     inkscape:cy="86.800014"
     inkscape:window-x="0"
     inkscape:window-y="21"
     inkscape:window-maximized="1"
     inkscape:current-layer="svg2" />
  <metadata
     id="metadata100">
    <rdf:RDF>
      <cc:Work
         rdf:about="">
        <dc:format>image/svg+xml</dc:format>
        <dc:type
           rdf:resource="http://purl.org/dc/dcmitype/StillImage" />
      </cc:Work>
    </rdf:RDF>
  </metadata>
  <defs
     id="defs4" />
  <g
     id="g4210">
    <path
       id="rect4169"
       d="m 12.981813,9.8545448 0,56.2909102 54.727273,0 c 2.598762,0 4.690914,-2.092145 4.690914,-4.690908 l 0,-46.909094 c 0,-2.598763 -2.092152,-4.6909082 -4.690914,-4.6909082 l -54.727273,0 z"
       style="opacity:1;fill:#373737;fill-opacity:1;stroke:#000000;stroke-width:0.80000001;stroke-linecap:round;stroke-linejoin:round;stroke-miterlimit:4;stroke-dasharray:none;stroke-opacity:0.04705882"
       inkscape:connector-curvature="0" />
    <path
       id="rect4171"
       d="m 8.2908984,9.8545448 c -2.5987633,0 -4.6908987,2.0921452 -4.6908987,4.6909082 l 0,46.909094 c 0,2.598763 2.0921354,4.690908 4.6908987,4.690908 l 4.6909146,0 0,-1.563636 0,-9.381819 0,-45.3454552 -4.6909146,0 z"
       style="opacity:1;fill:#1a1a1a;fill-opacity:1;stroke:#000000;stroke-width:0.80000001;stroke-linecap:round;stroke-linejoin:round;stroke-miterlimit:4;stroke-dasharray:none;stroke-opacity:0.04705882"
       inkscape:connector-curvature="0" />
    <path
       inkscape:connector-curvature="0"
       id="path4"
       d="m 55.121324,27.414807 c -0.481378,-0.481444 -1.239687,-0.47941 -1.721016,0 l -2.377466,2.3908 -1.634625,1.634781 -4.28202,4.282175 -8.669842,8.67052 0,4.552372 4.551944,0 8.669827,-8.67052 4.28202,-4.282487 1.634641,-1.634626 2.390417,-2.377665 c 0.481329,-0.481445 0.483456,-1.239809 0.0016,-1.721095 l -2.846038,-2.846289 z"
       style="fill:#1a1a1a;fill-opacity:1;stroke:#000000;stroke-width:0.80000001;stroke-miterlimit:4;stroke-dasharray:none;stroke-opacity:0.04705882" />
    <circle
       cy="58.327225"
       cx="8.2909136"
       id="path4242"
       style="opacity:1;fill:#cccccc;fill-opacity:1;stroke:#000000;stroke-width:0.80000001;stroke-linecap:round;stroke-linejoin:round;stroke-miterlimit:4;stroke-dasharray:none;stroke-opacity:0.04705882"
       r="2.3454547" />
    <path
       id="path62"
       style="fill:#000000;fill-opacity:0.43136998"
       d="m 26.904437,12.846764 0,7.6406 30.562,0 0,-7.6406 z m 10.328,1.7305 0.41797,0 2.207,4 -1.0742,0 -0.41797,-0.77734 -1.8516,0 -0.35547,0.77734 -1.0742,0 z m 5.4297,0 c 0.625,0 1.1211,0.05078 1.4922,0.23828 l -0.41797,0.59766 c -0.21485,-0.15625 -0.53516,-0.23828 -1.0117,-0.23828 -0.45313,0 -0.84766,0.13672 -1.1367,0.41797 -0.28906,0.27344 -0.41797,0.64844 -0.41797,1.0742 0,0.42188 0.15234,0.76562 0.41797,1.0156 0.26953,0.24609 0.62891,0.35547 1.0742,0.35547 0.51172,0 0.90625,-0.14844 1.1953,-0.41797 l 0.41797,0.59766 c -0.39453,0.30469 -0.97266,0.41797 -1.7305,0.41797 -0.76172,0 -1.3125,-0.17188 -1.7305,-0.53906 -0.42187,-0.36328 -0.66015,-0.85938 -0.66015,-1.4922 0,-0.58594 0.2539,-1.0352 0.71875,-1.4297 0.46875,-0.39844 1.0625,-0.59766 1.7891,-0.59766 z m 4.4766,0 c 0.78516,0 1.3789,0.18359 1.793,0.53516 0.41406,0.35547 0.65625,0.85547 0.65625,1.4922 0,0.64062 -0.22266,1.1172 -0.65625,1.4922 -0.43359,0.37891 -1.0547,0.53906 -1.8516,0.53906 -0.73047,0 -1.2812,-0.16406 -1.6719,-0.53906 -0.38672,-0.37109 -0.59765,-0.84375 -0.59765,-1.4922 0,-0.5625 0.23437,-1.0391 0.65625,-1.4297 0.42578,-0.39453 0.96093,-0.59766 1.6719,-0.59766 z m -18.383,0.05859 1.0156,0 1.0117,2.3867 1.0742,-2.3867 0.41797,0 1.1367,2.3867 1.0156,-2.3867 1.0117,0 -1.7891,4 -0.35938,0 -1.1914,-2.5078 -1.1367,2.5078 -0.41797,0 z m 22.266,0 0.53516,0 1.1328,2.6875 1.1953,-2.6875 0.47657,0 1.1367,3.9414 -0.95704,0 -0.53515,-2.0898 -1.1367,2.1484 -0.29688,0 -1.1328,-2.1484 -0.59765,2.0898 -0.89454,0 z m -3.8828,0.53906 c -0.42969,0 -0.72266,0.10547 -0.95312,0.35547 -0.23047,0.25391 -0.35938,0.64844 -0.35938,1.0742 0,0.46484 0.082,0.82031 0.30078,1.0781 0.21485,0.25391 0.54297,0.35547 0.95313,0.35547 0.48437,0 0.82031,-0.10938 1.0742,-0.35547 0.2539,-0.25 0.41796,-0.60156 0.41796,-1.0781 0,-0.92969 -0.49218,-1.4297 -1.4336,-1.4297 z m -9.668,0.59766 -0.65625,1.4922 1.3125,0 z"
       inkscape:connector-curvature="0" />
  </g>
</svg>
