<?xml version="1.0" encoding="UTF-8" standalone="no"?>
<svg
   xmlns:dc="http://purl.org/dc/elements/1.1/"
   xmlns:cc="http://creativecommons.org/ns#"
   xmlns:rdf="http://www.w3.org/1999/02/22-rdf-syntax-ns#"
   xmlns:svg="http://www.w3.org/2000/svg"
   xmlns="http://www.w3.org/2000/svg"
   xmlns:sodipodi="http://sodipodi.sourceforge.net/DTD/sodipodi-0.dtd"
   xmlns:inkscape="http://www.inkscape.org/namespaces/inkscape"
   id="svg2"
   height="76pt"
   width="76pt"
   version="1.1"
   viewBox="0 0 76 76"
   inkscape:version="0.91 r13725"
   sodipodi:docname="printer.svg">
  <sodipodi:namedview
     pagecolor="#ffffff"
     bordercolor="#666666"
     borderopacity="1"
     objecttolerance="10"
     gridtolerance="10"
     guidetolerance="10"
     inkscape:pageopacity="0"
     inkscape:pageshadow="2"
     inkscape:window-width="1366"
     inkscape:window-height="716"
     id="namedview70"
     showgrid="false"
     inkscape:zoom="4.9684211"
     inkscape:cx="52.095547"
     inkscape:cy="52.154374"
     inkscape:window-x="0"
     inkscape:window-y="24"
     inkscape:window-maximized="1"
     inkscape:current-layer="svg2" />
  <metadata
     id="metadata128">
    <rdf:RDF>
      <cc:Work
         rdf:about="">
        <dc:format>image/svg+xml</dc:format>
        <dc:type
           rdf:resource="http://purl.org/dc/dcmitype/StillImage" />
      </cc:Work>
    </rdf:RDF>
  </metadata>
  <defs
     id="defs4" />
  <rect
     style="opacity:1;fill:#000000;fill-opacity:1;stroke:#000000;stroke-width:0.80000001;stroke-miterlimit:4;stroke-dasharray:none;stroke-dashoffset:0;stroke-opacity:0.04705882"
     id="rect4211"
     width="43.474575"
     height="11.915255"
     x="16.262712"
     y="12.559322"
     rx="1.6"
     ry="1.6" />
  <rect
     style="opacity:1;fill:#ececec;fill-opacity:1;stroke:#000000;stroke-width:0.80000001;stroke-miterlimit:4;stroke-dasharray:none;stroke-dashoffset:0;stroke-opacity:0.04705882"
     id="rect4215"
     width="35.423729"
     height="19.966101"
     x="20.288136"
     y="3.5423734" />
  <rect
     style="opacity:1;fill:#1a1a1a;fill-opacity:1;stroke:#000000;stroke-width:0.80000001;stroke-miterlimit:4;stroke-dasharray:none;stroke-dashoffset:0;stroke-opacity:0.04705882"
     id="rect4209"
     width="68.593216"
     height="36.389832"
     x="3.703392"
     y="19.966101"
     rx="1.6"
     ry="1.6" />
  <rect
     style="opacity:1;fill:#000000;fill-opacity:1;stroke:#000000;stroke-width:0.80000001;stroke-miterlimit:4;stroke-dasharray:none;stroke-dashoffset:0;stroke-opacity:0.04705882"
     id="rect4213"
     width="38.644066"
     height="6.4406776"
     x="18.677967"
     y="43.796612"
     rx="1.6"
     ry="1.6" />
  <rect
     y="47.177963"
     x="20.288136"
     height="19.966101"
     width="35.423729"
     id="rect4217"
     style="opacity:1;fill:#ececec;fill-opacity:1;stroke:#000000;stroke-width:0.80000001;stroke-miterlimit:4;stroke-dasharray:none;stroke-dashoffset:0;stroke-opacity:0.04705882" />
  <circle
     style="opacity:1;fill:#00d455;fill-opacity:1;stroke:#000000;stroke-width:0.80000001;stroke-miterlimit:4;stroke-dasharray:none;stroke-dashoffset:0;stroke-opacity:0.04705882"
     id="path4219"
     cx="68.110168"
     cy="25.923729"
     r="2.0932202" />
  <circle
     r="2.0932202"
     cy="25.923729"
     cx="62.313557"
     id="circle4221"
     style="opacity:1;fill:#ff5555;fill-opacity:1;stroke:#000000;stroke-width:0.80000001;stroke-miterlimit:4;stroke-dasharray:none;stroke-dashoffset:0;stroke-opacity:0.04705882" />
  <g
     inkscape:export-ydpi="281.25"
     inkscape:export-xdpi="281.25"
     inkscape:export-filename="/tmp/blankon.png"
     id="g5967"
     transform="matrix(-0.02047236,0,0,-0.02047236,58.085236,72.729601)">
    <path
       style="fill:none;stroke:#000000;stroke-width:22.08471298;stroke-miterlimit:4;stroke-dasharray:none"
       d="m 345.99422,464.69047 c 0,23.75054 -19.2536,43.00415 -43.0042,43.00415 -23.7505,0 -43.0041,-19.25361 -43.0041,-43.00415 0,-23.75053 19.2536,-43.00415 43.0041,-43.00415 23.7506,0 43.0042,19.25362 43.0042,43.00415 z"
       id="path5969"
       inkscape:connector-curvature="0"
       inkscape:export-filename="/home/mdamt/rect4269.png"
       inkscape:export-xdpi="285.01001"
       inkscape:export-ydpi="285.01001" />
    <path
       style="fill:#aa0000;fill-opacity:1;stroke:#ff0000;stroke-width:17.96163559;stroke-linecap:round;stroke-linejoin:round;stroke-miterlimit:4;stroke-opacity:1"
       d="m 365.26232,421.0156 1.0094,0 0,92.299 -1.0094,0 z"
       id="path5971"
       inkscape:connector-curvature="0"
       inkscape:export-xdpi="285.01001"
       inkscape:export-ydpi="285.01001" />
    <path
       d="m 473.73075,421.28848 -18.01135,0 0,33.90368 c 0.2354,7e-5 1.35376,7e-5 3.3551,0 2.00134,-0.1177 3.88475,-0.17655 5.65069,-0.17655 1.88341,-0.11769 4.41439,-0.29424 7.59295,-0.52973 3.29625,-0.3531 5.82723,-0.70626 7.59294,-1.0595 1.88364,-0.47081 4.00244,-1.17714 6.35711,-2.11899 2.4719,-0.9417 4.29669,-2.06005 5.47391,-3.35505 3.06062,-3.06067 4.59117,-6.82775 4.59117,-11.30124 0,-7.53405 -4.23808,-12.30174 -12.71399,-14.3031 -2.82523,-0.70624 -6.12148,-1.05941 -9.88853,-1.0595 m 1.23607,47.67708 -19.24742,1.05949 0,35.49292 17.30516,0 c 7.65179,2e-5 13.008,-0.35314 16.06886,-1.05947 3.17832,-0.70631 5.88608,-1.47151 8.12282,-2.29557 2.2365,-0.94175 4.00244,-2.00124 5.29736,-3.17848 3.29625,-2.82527 4.94426,-6.47462 4.94426,-10.94807 0,-5.88602 -2.94316,-10.53599 -8.82901,-13.94996 -5.76838,-3.41386 -13.65581,-5.12082 -23.66203,-5.12086 m -40.96697,-66.04159 44.14552,0 c 11.53654,1.1e-4 20.48348,1.94253 26.84036,5.82721 6.23918,3.76719 10.41817,8.00514 12.53744,12.71387 2.00111,4.59124 2.94293,8.8292 2.82523,12.7139 0,3.88488 -1.05952,7.8874 -3.17855,12.00756 -2.00134,4.00259 -4.65002,7.35764 -7.94604,10.06515 9.5352,3.88486 15.77438,10.88927 18.71754,21.01324 0.82388,3.17851 1.23606,6.29812 1.23606,9.35882 0,2.94306 -0.35309,5.88611 -1.05952,8.8291 -0.70642,2.94304 -2.29558,6.2981 -4.76771,10.06515 -2.35444,3.64937 -5.41506,6.94558 -9.18211,9.8886 -3.76728,2.82529 -9.06464,5.23858 -15.89231,7.23985 -6.71021,1.88352 -14.42109,2.82529 -23.1324,2.82529 l -41.14351,0 0,-122.54774"
       style="font-style:normal;font-weight:bold;font-size:75.31466675px;line-height:125%;font-family:Sans;-inkscape-font-specification:'Sans Bold';letter-spacing:0px;word-spacing:0px;fill:#000000;fill-opacity:1;stroke:none"
       id="path5973"
       inkscape:connector-curvature="0" />
    <path
       d="m 574.59775,444.24409 c 11.06574,-3.76698 21.24875,-5.65052 30.54879,-5.65059 9.4175,7e-5 16.77505,0.82412 22.07264,2.47213 5.41506,1.64817 9.47635,4.00261 12.18412,7.06328 5.06196,5.53296 7.59294,12.71394 7.59294,21.54297 l 0,55.79983 -15.89231,0 -2.29559,-5.65062 c -7.76972,4.94429 -16.48104,7.41645 -26.13417,7.41645 -13.42018,0 -23.5441,-3.82595 -30.37201,-11.47783 -3.64935,-4.23794 -5.47391,-8.71134 -5.47391,-13.42021 0,-4.35565 0.5885,-8.005 1.76571,-10.94807 1.17722,-3.06072 3.11971,-5.53285 5.82724,-7.41644 2.70753,-2.0012 5.59184,-3.59043 8.65246,-4.7677 3.06086,-1.29489 7.0633,-2.23666 12.00757,-2.82532 8.00512,-0.9417 18.24674,-1.41259 30.72534,-1.41263 l 0,-1.23609 c -2.4e-4,-7.76954 -3.17856,-12.71381 -9.53544,-14.83287 -2.94316,-0.9417 -7.29893,-1.41259 -13.06708,-1.41266 -5.76839,7e-5 -13.71466,1.23616 -23.83859,3.70822 l -3.3551,1.0595 -4.41439,-17.12843 3.00178,-0.88292 m 51.20882,59.15491 0,-12.36073 -2.11904,0 c -12.94939,4e-5 -21.95518,0.52978 -27.01714,1.58923 -4.94427,1.05952 -7.4164,3.64939 -7.4164,7.76961 0,2.7076 1.58916,4.82659 4.76772,6.35694 3.29625,1.53039 8.06397,2.29557 14.30315,2.29557 6.23918,0 12.06642,-1.88353 17.48171,-5.65062"
       style="font-style:normal;font-weight:bold;font-size:75.31466675px;line-height:125%;font-family:Sans;-inkscape-font-specification:'Sans Bold';letter-spacing:0px;word-spacing:0px;fill:#000000;fill-opacity:1;stroke:none"
       id="path5975"
       inkscape:connector-curvature="0" />
    <path
       d="m 655.61963,440.3593 14.83279,0 2.82523,5.82721 c 11.06575,-5.06194 21.07221,-7.59294 30.01892,-7.59301 14.59739,7e-5 24.01513,5.41524 28.2532,16.2455 2.11881,5.41524 3.23717,12.1842 3.35487,20.30691 l 0,50.3258 -21.36622,0 0,-49.97264 c -2.3e-4,-6.00371 -1.29515,-10.30054 -3.88474,-12.89046 -2.70777,-2.82526 -7.00469,-4.23789 -12.89054,-4.23796 -5.76839,7e-5 -12.41974,1.5893 -19.95384,4.76769 l 0,62.33337 -21.18967,0 0,-85.11241"
       style="font-style:normal;font-weight:bold;font-size:75.31466675px;line-height:125%;font-family:Sans;-inkscape-font-specification:'Sans Bold';letter-spacing:0px;word-spacing:0px;fill:#000000;fill-opacity:1;stroke:none"
       id="path5977"
       inkscape:connector-curvature="0" />
    <path
       d="m 765.17302,474.43958 36.72912,-35.84608 25.42775,0 -42.02648,39.02456 43.43909,47.85365 -26.13417,0 -37.43531,-42.37962 0,42.37962 -21.1899,0 0,-122.54775 21.1899,0 0,71.51562"
       style="font-style:normal;font-weight:bold;font-size:75.31466675px;line-height:125%;font-family:Sans;-inkscape-font-specification:'Sans Bold';letter-spacing:0px;word-spacing:0px;fill:#000000;fill-opacity:1;stroke:none"
       id="path5979"
       inkscape:connector-curvature="0" />
    <path
       d="m 885.31457,411.06624 c 11.30114,1.2e-4 21.48391,2.47228 30.54856,7.41645 9.0644,4.82666 16.2454,11.94878 21.543,21.36638 5.41505,9.41778 8.12258,20.24811 8.12282,32.49105 -2.4e-4,18.83542 -5.76862,34.19802 -17.30516,46.08784 -11.41908,11.77213 -25.95763,17.65816 -43.61565,17.65816 -15.65691,0 -29.37157,-5.12086 -41.14351,-15.3626 -5.65069,-4.94426 -10.18301,-11.47778 -13.59672,-19.60058 -3.41396,-8.12272 -5.12105,-17.18725 -5.12105,-27.19359 0,-18.83531 5.70954,-34.02131 17.12861,-45.55809 11.53654,-11.53656 26.01624,-17.3049 43.4391,-17.30502 m 12.8903,22.42588 c -4.47347,-1.64799 -9.06441,-2.47204 -13.77327,-2.47213 -4.59117,9e-5 -9.06464,0.82414 -13.42018,2.47213 -4.35578,1.6482 -8.35822,4.06148 -12.00757,7.23985 -3.64935,3.17858 -6.59251,7.47539 -8.82924,12.89047 -2.11881,5.41527 -3.17833,11.59562 -3.17833,18.54108 0,13.30255 3.7082,24.01518 11.1246,32.13789 7.4164,8.00507 16.65758,12.00759 27.72333,12.00756 9.53543,3e-5 17.9525,-3.29616 25.2512,-9.88857 3.64935,-3.29616 6.59227,-7.76957 8.82901,-13.42021 2.23673,-5.65057 3.3551,-12.06637 3.3551,-19.24741 0,-7.29865 -1.17721,-13.77332 -3.53165,-19.42401 -2.23673,-5.65053 -5.29759,-10.12393 -9.1821,-13.42021 -3.76729,-3.29609 -7.88743,-5.76824 -12.3609,-7.41644"
       style="font-style:normal;font-weight:bold;font-size:75.31466675px;line-height:125%;font-family:Sans;-inkscape-font-specification:'Sans Bold';letter-spacing:0px;word-spacing:0px;fill:#000000;fill-opacity:1;stroke:none"
       id="path5981"
       inkscape:connector-curvature="0" />
    <path
       d="m 951.1998,440.3593 14.83303,0 2.82522,5.82721 c 11.06575,-5.06194 21.07195,-7.59294 30.01895,-7.59301 14.5974,7e-5 24.0151,5.41524 28.2529,16.2455 2.1191,5.41524 3.2374,12.1842 3.3551,20.30691 l 0,50.3258 -21.3664,0 0,-49.97264 c 0,-6.00371 -1.2949,-10.30054 -3.8848,-12.89046 -2.7075,-2.82526 -7.0044,-4.23789 -12.8903,-4.23796 -5.76834,7e-5 -12.4197,1.5893 -19.9538,4.76769 l 0,62.33337 -21.1899,0 0,-85.11241"
       style="font-style:normal;font-weight:bold;font-size:75.31466675px;line-height:125%;font-family:Sans;-inkscape-font-specification:'Sans Bold';letter-spacing:0px;word-spacing:0px;fill:#000000;fill-opacity:1;stroke:none"
       id="path5983"
       inkscape:connector-curvature="0" />
    <rect
       style="fill:#000000;fill-opacity:1;stroke:none"
       id="rect5985"
       width="23.478613"
       height="123.23861"
       x="536.39099"
       y="402.83411"
       ry="2.8008776" />
  </g>
</svg>
