<?xml version="1.0" encoding="UTF-8" standalone="no"?>
<svg
   xmlns:dc="http://purl.org/dc/elements/1.1/"
   xmlns:cc="http://creativecommons.org/ns#"
   xmlns:rdf="http://www.w3.org/1999/02/22-rdf-syntax-ns#"
   xmlns:svg="http://www.w3.org/2000/svg"
   xmlns="http://www.w3.org/2000/svg"
   xmlns:xlink="http://www.w3.org/1999/xlink"
   xmlns:sodipodi="http://sodipodi.sourceforge.net/DTD/sodipodi-0.dtd"
   xmlns:inkscape="http://www.inkscape.org/namespaces/inkscape"
   id="svg2"
   height="96"
   width="96"
   version="1.1"
   inkscape:version="0.91 r13725"
   sodipodi:docname="scanner.svg">
  <sodipodi:namedview
     pagecolor="#ffffff"
     bordercolor="#666666"
     borderopacity="1"
     objecttolerance="10"
     gridtolerance="10"
     guidetolerance="10"
     inkscape:pageopacity="0"
     inkscape:pageshadow="2"
     inkscape:window-width="1366"
     inkscape:window-height="716"
     id="namedview189"
     showgrid="false"
     inkscape:zoom="4.9166667"
     inkscape:cx="49.071145"
     inkscape:cy="52.406855"
     inkscape:window-x="0"
     inkscape:window-y="24"
     inkscape:window-maximized="1"
     inkscape:current-layer="svg2" />
  <metadata
     id="metadata215">
    <rdf:RDF>
      <cc:Work
         rdf:about="">
        <dc:format>image/svg+xml</dc:format>
        <dc:type
           rdf:resource="http://purl.org/dc/dcmitype/StillImage" />
      </cc:Work>
    </rdf:RDF>
  </metadata>
  <defs
     id="defs4">
    <filter
       id="filter3174"
       color-interpolation-filters="sRGB">
      <feGaussianBlur
         id="feGaussianBlur3176"
         stdDeviation="1.71" />
    </filter>
    <linearGradient
       id="linearGradient3254"
       x1="45.448"
       gradientUnits="userSpaceOnUse"
       x2="45.448"
       gradientTransform="matrix(1.0059 0 0 .99417 -175.86 -30.712)"
       y1="92.54"
       y2="7.0165">
      <stop
         id="stop3750"
         offset="0" />
      <stop
         id="stop3752"
         style="stop-opacity:.58824"
         offset="1" />
    </linearGradient>
    <filter
       id="filter3174-7"
       color-interpolation-filters="sRGB">
      <feGaussianBlur
         id="feGaussianBlur3176-58"
         stdDeviation="1.71" />
    </filter>
    <linearGradient
       id="linearGradient8374"
       x1="45.448"
       gradientUnits="userSpaceOnUse"
       x2="45.448"
       gradientTransform="matrix(1.0059 0 0 .99417 108.29 -24.643)"
       y1="92.54"
       y2="7.0165">
      <stop
         id="stop3750-50"
         offset="0" />
      <stop
         id="stop3752-42"
         style="stop-opacity:.58824"
         offset="1" />
    </linearGradient>
    <filter
       id="filter3174-41"
       color-interpolation-filters="sRGB">
      <feGaussianBlur
         id="feGaussianBlur3176-9"
         stdDeviation="1.71" />
    </filter>
    <linearGradient
       id="ButtonShadow-6"
       y2="7.0165"
       gradientUnits="userSpaceOnUse"
       y1="92.54"
       gradientTransform="scale(1.0059 .99417)"
       x2="45.448"
       x1="45.448">
      <stop
         id="stop3750-9"
         offset="0" />
      <stop
         id="stop3752-33"
         style="stop-opacity:.58824"
         offset="1" />
    </linearGradient>
    <filter
       id="filter3174-57"
       color-interpolation-filters="sRGB">
      <feGaussianBlur
         id="feGaussianBlur3176-42"
         stdDeviation="1.71" />
    </filter>
    <filter
       id="filter3174-76"
       color-interpolation-filters="sRGB">
      <feGaussianBlur
         id="feGaussianBlur3176-51"
         stdDeviation="1.71" />
    </filter>
    <filter
       id="filter3174-3"
       color-interpolation-filters="sRGB">
      <feGaussianBlur
         id="feGaussianBlur3176-47"
         stdDeviation="1.71" />
    </filter>
    <filter
       id="filter3174-65"
       color-interpolation-filters="sRGB">
      <feGaussianBlur
         id="feGaussianBlur3176-0"
         stdDeviation="1.71" />
    </filter>
    <linearGradient
       id="linearGradient10968"
       x1="45.448"
       gradientUnits="userSpaceOnUse"
       x2="45.448"
       gradientTransform="matrix(1.0059 0 0 .99417 88.061 -64.071)"
       y1="92.54"
       y2="7.0165">
      <stop
         id="stop3750-53"
         offset="0" />
      <stop
         id="stop3752-85"
         style="stop-opacity:.58824"
         offset="1" />
    </linearGradient>
    <filter
       id="filter3174-34"
       color-interpolation-filters="sRGB">
      <feGaussianBlur
         id="feGaussianBlur3176-01"
         stdDeviation="1.71" />
    </filter>
    <linearGradient
       id="linearGradient4603"
       x1="45.448"
       gradientUnits="userSpaceOnUse"
       x2="45.448"
       gradientTransform="matrix(1.0059 0 0 .99417 -25.979 57.897)"
       y1="92.54"
       y2="7.0165">
      <stop
         id="stop3750-96"
         offset="0" />
      <stop
         id="stop3752-39"
         style="stop-opacity:.58824"
         offset="1" />
    </linearGradient>
    <filter
       id="filter3174-2"
       color-interpolation-filters="sRGB">
      <feGaussianBlur
         id="feGaussianBlur3176-44"
         stdDeviation="1.71" />
    </filter>
    <filter
       id="filter3174-05"
       color-interpolation-filters="sRGB">
      <feGaussianBlur
         id="feGaussianBlur3176-36"
         stdDeviation="1.71" />
    </filter>
    <filter
       id="filter3174-93"
       color-interpolation-filters="sRGB">
      <feGaussianBlur
         id="feGaussianBlur3176-84"
         stdDeviation="1.71" />
    </filter>
    <linearGradient
       id="linearGradient15094"
       y2="138.66"
       gradientUnits="userSpaceOnUse"
       y1="20.221"
       x2="48"
       x1="48">
      <stop
         id="stop3739-0-7"
         style="stop-color:#fff"
         offset="0" />
      <stop
         id="stop3741-6"
         style="stop-color:#fff;stop-opacity:0"
         offset="1" />
    </linearGradient>
    <filter
       id="filter3174-41-6"
       color-interpolation-filters="sRGB">
      <feGaussianBlur
         id="feGaussianBlur3176-6"
         stdDeviation="1.71" />
    </filter>
    <filter
       id="filter3794-6-0"
       height="1.384"
       width="1.384"
       color-interpolation-filters="sRGB"
       y="-.192"
       x="-.192">
      <feGaussianBlur
         id="feGaussianBlur3796-7-6"
         stdDeviation="5.28" />
    </filter>
    <clipPath
       id="clipPath3613-57">
      <rect
         id="rect3615-6"
         style="fill:#fff"
         rx="6"
         ry="6"
         height="84"
         width="84"
         y="6"
         x="6" />
    </clipPath>
    <clipPath
       id="clipPath2862">
      <path
         id="path2864"
         style="fill:#f0f"
         d="m0 0v96h96v-96h-96zm12 6h72c3.324 0 6 2.676 6 6v72c0 3.324-2.676 6-6 6h-72c-3.324 0-6-2.676-6-6v-72c0-3.324 2.676-6 6-6z" />
    </clipPath>
    <filter
       id="filter3174-2-1"
       color-interpolation-filters="sRGB">
      <feGaussianBlur
         id="feGaussianBlur3176-5-1"
         stdDeviation="1.71" />
    </filter>
    <filter
       id="filter3174-58"
       color-interpolation-filters="sRGB">
      <feGaussianBlur
         id="feGaussianBlur3176-2"
         stdDeviation="1.71" />
    </filter>
    <filter
       id="filter3174-9-2"
       color-interpolation-filters="sRGB">
      <feGaussianBlur
         id="feGaussianBlur3176-7-0"
         stdDeviation="1.71" />
    </filter>
    <filter
       id="filter3174-50"
       color-interpolation-filters="sRGB">
      <feGaussianBlur
         id="feGaussianBlur3176-221"
         stdDeviation="1.71" />
    </filter>
    <linearGradient
       id="linearGradient6974"
       x1="45.448"
       gradientUnits="userSpaceOnUse"
       x2="45.448"
       gradientTransform="matrix(1.0059 0 0 .99417 147.83 -84.36)"
       y1="92.54"
       y2="7.0165">
      <stop
         id="stop3750-9-1"
         offset="0" />
      <stop
         id="stop3752-46"
         style="stop-opacity:.58824"
         offset="1" />
    </linearGradient>
    <linearGradient
       id="linearGradient6977"
       x1="45.448"
       gradientUnits="userSpaceOnUse"
       x2="45.448"
       gradientTransform="matrix(1.0059 0 0 .99417 195.43 -36.377)"
       y1="92.54"
       y2="7.0165">
      <stop
         id="stop3750-25"
         offset="0" />
      <stop
         id="stop3752-40"
         style="stop-opacity:.58824"
         offset="1" />
    </linearGradient>
    <linearGradient
       id="linearGradient6983"
       x1="45.448"
       gradientUnits="userSpaceOnUse"
       x2="45.448"
       gradientTransform="matrix(1.0059 0 0 .99417 136.81 -31.941)"
       y1="92.54"
       y2="7.0165">
      <stop
         id="stop3750-22"
         offset="0" />
      <stop
         id="stop3752-05"
         style="stop-opacity:.58824"
         offset="1" />
    </linearGradient>
    <linearGradient
       id="linearGradient3230"
       y2="7.0165"
       xlink:href="#ButtonShadow-6"
       gradientUnits="userSpaceOnUse"
       y1="92.54"
       gradientTransform="scale(1.0059 .99417)"
       x2="45.448"
       x1="45.448" />
    <linearGradient
       id="linearGradient3255"
       y2="64"
       gradientUnits="userSpaceOnUse"
       y1="68"
       gradientTransform="matrix(1.186,0,0,1.4005,-9.050869,-26.55324)"
       x2="47"
       x1="47">
      <stop
         id="stop4137"
         style="stop-color:#cacaca"
         offset="0" />
      <stop
         id="stop4139"
         style="stop-color:#f5f5f5"
         offset="1" />
    </linearGradient>
    <linearGradient
       id="linearGradient3295"
       y2="48"
       gradientUnits="userSpaceOnUse"
       y1="48"
       gradientTransform="matrix(1.4887 -1.4887 1.4887 1.4887 -306.54 232.38)"
       x2="88"
       x1="8">
      <stop
         id="stop4237"
         style="stop-color:#fff;stop-opacity:0"
         offset="0" />
      <stop
         id="stop4245"
         style="stop-color:#fff;stop-opacity:0"
         offset=".25" />
      <stop
         id="stop4243"
         style="stop-color:#fff;stop-opacity:.70161"
         offset=".5" />
      <stop
         id="stop4247"
         style="stop-color:#fff;stop-opacity:0"
         offset=".75" />
      <stop
         id="stop4239"
         style="stop-color:#fff;stop-opacity:0"
         offset="1" />
    </linearGradient>
    <linearGradient
       id="linearGradient3391"
       y2="7.0165"
       xlink:href="#ButtonShadow-6"
       gradientUnits="userSpaceOnUse"
       y1="92.54"
       gradientTransform="matrix(1.0059 0 0 .99417 43.624 65.139)"
       x2="45.448"
       x1="45.448" />
    <linearGradient
       id="linearGradient3396"
       y2="7.0165"
       xlink:href="#ButtonShadow-6"
       gradientUnits="userSpaceOnUse"
       y1="92.54"
       gradientTransform="matrix(1.0059 0 0 .99417 -140.8 131.3)"
       x2="45.448"
       x1="45.448" />
    <linearGradient
       id="linearGradient3401"
       y2="7.0165"
       xlink:href="#ButtonShadow-6"
       gradientUnits="userSpaceOnUse"
       y1="92.54"
       gradientTransform="matrix(1.0059 0 0 .99417 -13.859 48.458)"
       x2="45.448"
       x1="45.448" />
    <linearGradient
       id="linearGradient3406"
       y2="7.0165"
       xlink:href="#ButtonShadow-6"
       gradientUnits="userSpaceOnUse"
       y1="92.54"
       gradientTransform="matrix(1.0059 0 0 .99417 28.835 -121.51)"
       x2="45.448"
       x1="45.448" />
    <linearGradient
       id="linearGradient3411"
       y2="7.0165"
       xlink:href="#ButtonShadow-6"
       gradientUnits="userSpaceOnUse"
       y1="92.54"
       gradientTransform="matrix(1.0059 0 0 .99417 -106.2 -48.076)"
       x2="45.448"
       x1="45.448" />
    <linearGradient
       id="linearGradient3416"
       y2="7.0165"
       xlink:href="#ButtonShadow-6"
       gradientUnits="userSpaceOnUse"
       y1="92.54"
       gradientTransform="matrix(1.0059 0 0 .99417 -218.05 -238.16)"
       x2="45.448"
       x1="45.448" />
    <linearGradient
       id="linearGradient3421"
       y2="7.0165"
       xlink:href="#ButtonShadow-6"
       gradientUnits="userSpaceOnUse"
       y1="92.54"
       gradientTransform="matrix(1.0059 0 0 .99417 -111.44 -124.36)"
       x2="45.448"
       x1="45.448" />
    <linearGradient
       inkscape:collect="always"
       id="linearGradient4152">
      <stop
         style="stop-color:#4aaee8;stop-opacity:1;"
         offset="0"
         id="stop4154" />
      <stop
         style="stop-color:#67e4ec;stop-opacity:1"
         offset="1"
         id="stop4156" />
    </linearGradient>
    <linearGradient
       gradientUnits="userSpaceOnUse"
       y2="55.310936"
       x2="47.57811"
       y1="71.70623"
       x1="46.180408"
       id="linearGradient4217"
       xlink:href="#linearGradient4152"
       inkscape:collect="always"
       gradientTransform="matrix(1.25,0,0,1.25,0.5,0.4999375)" />
  </defs>
  <rect
     id="rect3745"
     style="opacity:.9;filter:url(#filter3174);display:none;fill:url(#linearGradient3254)"
     transform="matrix(2.1053 0 0 2.1053 95.549 -17.976)"
     rx="6"
     ry="6"
     height="85"
     width="86"
     y="-23.712"
     x="-170.86" />
  <rect
     id="rect3745-1"
     style="opacity:.9;filter:url(#filter3174-7);display:none;fill:url(#linearGradient8374)"
     transform="matrix(2.1053 0 0 2.1053 95.549 -17.976)"
     rx="6"
     ry="6"
     height="85"
     width="86"
     y="-17.643"
     x="113.29" />
  <rect
     id="rect3745-9"
     style="opacity:.9;filter:url(#filter3174-41);display:none;fill:url(#linearGradient3421)"
     transform="matrix(2.1053 0 0 2.1053 95.549 -17.976)"
     rx="6"
     ry="6"
     height="85"
     width="86"
     y="-117.36"
     x="-106.44" />
  <rect
     id="rect3745-2"
     style="opacity:.9;filter:url(#filter3174-57);display:none;fill:url(#linearGradient3416)"
     transform="matrix(2.1053 0 0 2.1053 95.549 -17.976)"
     rx="6"
     ry="6"
     height="85"
     width="86"
     y="-231.16"
     x="-213.05" />
  <path
     id="rect3745-24"
     style="opacity:.9;filter:url(#filter3174-76);display:none;fill:url(#linearGradient3411)"
     transform="matrix(2.1053 0 0 2.1053 95.549 -17.976)"
     d="m-95.2-41.076c-3.324 0-6 2.676-6 6v73c0 3.324 2.676 6 6 6h74c3.324 0 6-2.676 6-6v-73c0-3.324-2.676-6-6-6h-5v2.5c1.4703 0.7406 2.5 2.2424 2.5 4 0 2.484-2.016 4.5-4.5 4.5s-4.5-2.016-4.5-4.5c0-1.7576 1.0297-3.2594 2.5-4v-2.5h-8v2.5c1.4703 0.7406 2.5 2.2424 2.5 4 0 2.484-2.016 4.5-4.5 4.5s-4.5-2.016-4.5-4.5c0-1.7576 1.0297-3.2594 2.5-4v-2.5h-8v2.5c1.4703 0.7406 2.5 2.2424 2.5 4 0 2.484-2.016 4.5-4.5 4.5s-4.5-2.016-4.5-4.5c0-1.7576 1.0297-3.2594 2.5-4v-2.5h-8v2.5c1.4703 0.7406 2.5 2.2424 2.5 4 0 2.484-2.016 4.5-4.5 4.5s-4.5-2.016-4.5-4.5c0-1.7576 1.0297-3.2594 2.5-4v-2.5h-8v2.5c1.4703 0.7406 2.5 2.2424 2.5 4 0 2.484-2.016 4.5-4.5 4.5s-4.5-2.016-4.5-4.5c0-1.7576 1.0297-3.2594 2.5-4v-2.5h-8v2.5c1.4703 0.7406 2.5 2.2424 2.5 4 0 2.484-2.016 4.5-4.5 4.5s-4.5-2.016-4.5-4.5c0-1.7576 1.0297-3.2594 2.5-4v-2.5h-5z" />
  <rect
     id="rect3745-5"
     style="opacity:.9;filter:url(#filter3174-3);display:none;fill:url(#linearGradient3406)"
     transform="matrix(2.1053 0 0 2.1053 95.549 -17.976)"
     rx="6"
     ry="6"
     height="85"
     width="86"
     y="-114.51"
     x="33.835" />
  <rect
     id="rect3745-19"
     style="opacity:.9;filter:url(#filter3174-65);display:none;fill:url(#linearGradient10968)"
     transform="matrix(2.1053 0 0 2.1053 95.549 -17.976)"
     rx="6"
     ry="6"
     height="85"
     width="86"
     y="-57.071"
     x="93.061" />
  <rect
     id="rect3745-51"
     style="opacity:.9;filter:url(#filter3174-34);display:none;fill:url(#linearGradient4603)"
     transform="matrix(2.1053 0 0 2.1053 95.549 -17.976)"
     rx="6"
     ry="6"
     height="85"
     width="86"
     y="64.897"
     x="-20.979" />
  <rect
     id="rect3745-7"
     style="opacity:.9;filter:url(#filter3174-2);display:none;fill:url(#linearGradient3401)"
     transform="matrix(2.1053 0 0 2.1053 95.549 -17.976)"
     rx="6"
     ry="6"
     height="85"
     width="86"
     y="55.458"
     x="-8.859" />
  <rect
     id="rect3745-73"
     style="opacity:.9;filter:url(#filter3174-50);display:none;fill:url(#linearGradient6983)"
     transform="matrix(2.1053 0 0 2.1053 95.549 -17.976)"
     rx="6"
     ry="6"
     height="85"
     width="86"
     y="-24.941"
     x="141.81" />
  <rect
     id="rect3745-5-3"
     style="opacity:.9;filter:url(#filter3174-9-2);display:none;fill:url(#linearGradient3396)"
     transform="matrix(2.1053 0 0 2.1053 95.549 -17.976)"
     rx="6"
     ry="6"
     height="85"
     width="86"
     y="138.3"
     x="-135.8" />
  <rect
     id="rect3745-34"
     style="opacity:.9;filter:url(#filter3174-58);display:none;fill:url(#linearGradient6977)"
     transform="matrix(2.1053 0 0 2.1053 95.549 -17.976)"
     rx="6"
     ry="6"
     height="85"
     width="86"
     y="-29.377"
     x="200.43" />
  <rect
     id="rect3745-2-1"
     style="opacity:.9;filter:url(#filter3174-2-1);display:none;fill:url(#linearGradient6974)"
     transform="matrix(2.1053 0 0 2.1053 95.549 -17.976)"
     rx="6"
     ry="6"
     height="85"
     width="86"
     y="-77.359"
     x="152.83" />
  <rect
     id="rect3745-8"
     style="opacity:.9;filter:url(#filter3174-41-6);display:none;fill:url(#linearGradient3230)"
     transform="matrix(2.1053 0 0 2.1053 -264.69 131.32)"
     clip-path="url(#clipPath2862)"
     rx="6"
     ry="6"
     height="85"
     width="86"
     y="7"
     x="5" />
  <path
     id="path4230"
     style="opacity:.6;display:none;fill:url(#linearGradient3295)"
     d="m-223.17 172.83c-32.887 32.887-32.887 86.207 0 119.09 32.887 32.887 86.207 32.887 119.09 0 32.887-32.887 32.887-86.207 0-119.09-32.887-32.887-86.207-32.887-119.09 0zm2.9773 2.9773c31.242-31.242 81.896-31.242 113.14 0 31.242 31.242 31.242 81.896 0 113.14-31.242 31.242-81.896 31.242-113.14 0-31.242-31.242-31.242-81.896 0-113.14z" />
  <rect
     id="rect3171"
     style="opacity:.1;filter:url(#filter3794-6-0);stroke:#fff;stroke-linecap:round;stroke-width:.5;display:none;fill:url(#linearGradient15094)"
     transform="matrix(2.1053 0 0 2.1053 -264.69 131.32)"
     clip-path="url(#clipPath3613-57)"
     rx="12"
     ry="12"
     height="66"
     width="66"
     y="15"
     x="15" />
  <path
     id="rect3745-3"
     style="opacity:.9;filter:url(#filter3174-93);display:none;fill:url(#linearGradient3391)"
     transform="matrix(2.1053 0 0 2.1053 95.549 -17.976)"
     d="m54.624 72.139c-2.8841 0-5.26 2.0143-5.8438 4.7188 2.5086 0.0336 4.5313 2.0773 4.5312 4.5938 0 2.5374-2.0563 4.5938-4.5938 4.5938-0.0314 0-0.0625 0.000628-0.09375 0v7.1562c0.03125-0.000628 0.06235 0 0.09375 0 2.5374 0 4.5938 2.0563 4.5938 4.5938 0 2.5374-2.0563 4.5937-4.5938 4.5938-0.0314 0-0.0625 0.00063-0.09375 0v7.1562c0.03125-0.00063 0.06235 0 0.09375 0 2.5374 0 4.5938 2.0563 4.5938 4.5938 0 2.5374-2.0563 4.5937-4.5938 4.5938-0.0314 0-0.0625 0.00063-0.09375 0l0.0002 7.156c0.03125-0.00063 0.06235 0 0.09375 0 2.5374 0 4.5938 2.0563 4.5938 4.5938 0 2.5374-2.0563 4.5938-4.5938 4.5938-0.0314 0-0.0625 0.00063-0.09375 0v7.1562c0.03125-0.00063 0.06235 0 0.09375 0 2.5374 0 4.5938 2.0563 4.5938 4.5938 0 2.5374-2.0563 4.5938-4.5938 4.5938-0.0314 0-0.0625 0.00063-0.09375 0 0.1444 3.193 2.7693 5.718 6 5.718h0.21875c-0.000628-0.0312 0-0.0623 0-0.0937 0-2.5374 2.0563-4.5937 4.5938-4.5938 2.5374 0 4.5938 2.0563 4.5938 4.5938 0 0.0314 0.000628 0.0625 0 0.0937h7.1562c-0.000628-0.0312 0-0.0623 0-0.0937 0-2.5374 2.0563-4.5937 4.5938-4.5938 2.5374 0 4.5938 2.0563 4.5938 4.5938 0 0.0314 0.000628 0.0625 0 0.0937h7.1562c-0.000628-0.0312 0-0.0623 0-0.0937 0-2.5374 2.0563-4.5937 4.5938-4.5938 2.5374 0 4.5937 2.0563 4.5938 4.5938 0 0.0314 0.000628 0.0625 0 0.0937h7.155c-0.00063-0.0312 0-0.0623 0-0.0937 0-2.5374 2.0563-4.5937 4.5938-4.5938 2.5374 0 4.5937 2.0563 4.5938 4.5938 0 0.0314 0.00063 0.0625 0 0.0937h7.1562c-0.00063-0.0312 0-0.0623 0-0.0937-0.00001-2.5374 2.0563-4.5937 4.5938-4.5938 2.5374 0 4.5937 2.0563 4.5938 4.5938 0 0.0105 0.00007 0.0208 0 0.0312 2.8652-0.36646 5.0861-2.7222 5.2188-5.6562-0.0312 0.00063-0.0624 0-0.0937 0-2.5374 0-4.5937-2.0563-4.5938-4.5938 0-2.5374 2.0563-4.5938 4.5938-4.5938 0.0314 0 0.0625-0.00063 0.0937 0v-7.1562c-0.0312 0.00063-0.0624 0-0.0937 0-2.5374 0-4.5937-2.0563-4.5938-4.5938 0-2.5374 2.0563-4.5937 4.5938-4.5938 0.0314 0 0.0625-0.00063 0.0937 0v-7.1562c-0.0312 0.00063-0.0624 0-0.0937 0-2.5374 0-4.5937-2.0563-4.5938-4.5938 0-2.5374 2.0563-4.5937 4.5938-4.5938 0.0314 0 0.0625-0.00063 0.0937 0v-7.155c-0.0312 0.00063-0.0624 0-0.0937 0-2.5374 0-4.5937-2.0563-4.5938-4.5938 0-2.5374 2.0563-4.5937 4.5938-4.5938 0.0314 0 0.0625-0.000628 0.0937 0v-7.1562c-0.0312 0.000628-0.0624 0-0.0937 0-2.5374 0.000001-4.5937-2.0563-4.5938-4.5938 0-2.5165 2.0227-4.5602 4.5312-4.5938-0.53737-2.4896-2.5803-4.4006-5.1562-4.6875-0.42886 2.094-2.2798 3.6562-4.5 3.6562-2.2307 0-4.0826-1.5787-4.5-3.6875h-7.3438c-0.41736 2.1088-2.2693 3.6875-4.5 3.6875s-4.0826-1.5787-4.5-3.6875h-7.343c-0.417 2.1088-2.269 3.688-4.5 3.688s-4.083-1.5792-4.5-3.688h-7.3438c-0.41736 2.1088-2.2693 3.6875-4.5 3.6875s-4.0826-1.5787-4.5-3.6875h-7.344c-0.41736 2.1088-2.2693 3.6875-4.5 3.6875s-4.0826-1.5787-4.5-3.6875h-0.312z" />
  <rect
     id="rect3745-1-7"
     style="opacity:.9;filter:url(#filter3174-05);display:none;fill:url(#linearGradient3230)"
     transform="matrix(.79066 0 0 .99574 109.65 -20.217)"
     rx="6"
     ry="6"
     height="85"
     width="86"
     y="7"
     x="5" />
  <path
     id="path3875"
     style="color:black;opacity:.05;display:none;fill:#2ad4ff"
     d="m43.011-18.257c-1.1805 0.08215-2.0668 1.042-2.5206 2.147-0.43328 1.0566-0.54002 2.2382-0.41984 3.3606h-0.02472c0.01895 22.972-0.0427 45.945 0.02451 68.924a0.83099 1.0465 0 0 0 0 0.09335c0.28386 4.7269 4.0068 7.6865 7.5113 7.1569v0.03112c14.551-0.0239 29.103 0.05377 43.66-0.03086a0.83099 1.0465 0 0 0 0.07413 0c3.7533-0.35747 6.1031-5.0464 5.6825-9.4595h0.02471c-0.01659-22.882 0.03322-45.762-0.0245-68.644a0.83099 1.0465 0 0 0 -0.02451 -0.12397c-0.14232-1.3387-0.81438-2.3775-1.6311-2.925-0.77169-0.51758-1.6707-0.65022-2.5198-0.49787v-0.03112h-49.763a0.83099 1.0465 0 0 0 -0.04941 0z" />
  <path
     id="path3869"
     style="color:black;opacity:.1;display:none;fill:#2ad4ff"
     d="m43.06-17.199c-1.775 0.1237-2.4169 2.5265-2.1743 4.4367 0.01916 22.975-0.03825 45.952 0.02872 68.925 0.24683 4.1103 3.564 6.7768 6.6569 6.2348 14.553-0.02404 29.108 0.04813 43.66-0.03617 3.2638-0.31085 5.3811-4.4884 4.9507-8.3835-0.01648-22.884 0.03298-45.779-0.0247-68.657-0.21044-1.9789-1.9124-2.8386-3.3303-2.5204h-49.767z" />
  <path
     id="path3864"
     style="color:black;opacity:.15;display:none;fill:#2ad4ff"
     d="m43.085-16.234a1.585 1.9961 0 0 0 -1.4327 1.9915v69.702c0 3.2777 2.1414 5.9744 4.744 5.9744h44.277c2.6026 0 4.744-2.6968 4.744-5.9744v-69.702a1.585 1.9961 0 0 0 -1.5813 -1.9915h-50.602a1.585 1.9961 0 0 0 -0.14826 0z" />
  <path
     id="path3862"
     style="color:black;opacity:.3;display:none;fill:#2ad4ff"
     d="m43.159-15.27a0.8098 1.0198 0 0 0 -0.74085 1.0268v69.702c0 2.7538 1.7913 5.0098 3.978 5.0098h44.277c2.1867 0 3.978-2.2559 3.978-5.0098v-69.702a0.8098 1.0198 0 0 0 -0.81517 -1.0268h-50.602a0.8098 1.0198 0 0 0 -0.07413 0z" />
  <path
     id="path3157-7-7"
     style="fill:url(#linearGradient4217);fill-opacity:1;stroke:#000000;stroke-width:1;stroke-opacity:0.04705882;stroke-miterlimit:4;stroke-dasharray:none"
     d="m 17.59175,5.4433125 c -6.642,0 -11.969,5.3947505 -11.969,12.0629995 l 2e-4,61.031251 c 0,6.667999 5.32675,12.030999 11.969,12.030999 l 60.8125,0 c 6.642,0 11.969,-5.363 11.969,-12.030999 l 0,-61.031251 c 0,-6.667999 -5.327,-12.0629995 -11.969,-12.0629995 l -60.8125,2e-4 z"
     inkscape:connector-curvature="0" />
  <path
     id="path3161-5"
     style="fill:#808080;fill-opacity:1;stroke:#000000;stroke-width:1;stroke-opacity:0.04705882;stroke-miterlimit:4;stroke-dasharray:none"
     d="m 5.610625,73.465812 0,5.06625 c 0,6.668 5.343375,12.032 11.985,12.032 l 60.80875,0 c 6.64175,0 11.985,-5.3645 11.985,-12.032 l 0,-5.06625 c 0,6.668126 -5.343375,12.032 -11.985,12.032 l -60.80875,0 c -6.64175,0 -11.985,-5.36425 -11.985,-12.032 z"
     inkscape:connector-curvature="0" />
  <path
     id="path4427-3"
     style="fill:#ececec;fill-opacity:1;stroke:#000000;stroke-width:1;stroke-opacity:0.04705882;stroke-miterlimit:4;stroke-dasharray:none"
     d="m 17.594688,5.4315625 c -6.642,0 -11.9707505,4.9339995 -11.9707505,11.0332495 l 0.002,51.302501 c 0.06195,6.049125 5.3755005,10.899375 11.9785005,10.899375 l 60.808749,0 c 6.49425,0 11.733,-4.694251 11.962875,-10.6045 l 0,-51.5975 c 0,-6.099125 -5.328749,-11.0332505 -11.970749,-11.0332505 l -60.810001,0 z"
     inkscape:connector-curvature="0" />
  <path
     style="color:#000000;opacity:0.40520031;stroke:#000000;stroke-width:1;stroke-miterlimit:4;stroke-dasharray:none;stroke-opacity:0.04705882"
     d="M 17.210938 5.4492188 C 16.241434 5.4772845 15.304672 5.6113847 14.408203 5.8378906 L 14.408203 62.068359 C 14.408203 69.33914 20.653866 75.193359 28.408203 75.193359 L 67.59375 75.193359 C 75.348088 75.193359 81.59375 69.33914 81.59375 62.068359 L 81.59375 5.8378906 C 80.697331 5.6112506 79.760487 5.4774273 78.791016 5.4492188 L 78.791016 60.228516 C 78.791016 67.06435 73.066551 72.566406 65.958984 72.566406 L 30.042969 72.566406 C 22.935589 72.566406 17.210937 67.064525 17.210938 60.228516 L 17.210938 5.4492188 z "
     id="path3174" />
  <path
     id="path4053"
     style="fill:#808080;stroke:#000000;stroke-width:1;stroke-opacity:0.04705882;stroke-miterlimit:4;stroke-dasharray:none"
     d="m 24.23523,51.57576 c -10e-6,0.21368 -0.0356,0.41056 -0.10674,0.59061 -0.0691,0.18005 -0.17689,0.33613 -0.32329,0.46819 -0.1464,0.12967 -0.33142,0.2317 -0.55506,0.30613 -0.22162,0.07203 -0.48491,0.10806 -0.78989,0.10806 -0.53473,0 -0.95152,-0.11044 -1.2504,-0.33134 -0.29887,-0.22089 -0.48897,-0.54019 -0.57031,-0.95796 l 0.56419,-0.13326 c 0.0285,0.13206 0.0722,0.25209 0.13112,0.36014 0.059,0.10806 0.13826,0.20167 0.2379,0.28092 0.10166,0.07683 0.22668,0.13686 0.37513,0.18005 0.14842,0.04323 0.32632,0.06483 0.53371,0.06483 0.17281,0 0.3314,-0.01677 0.47576,-0.05042 0.14436,-0.03602 0.26837,-0.09003 0.37207,-0.16206 0.1037,-0.07203 0.18398,-0.16445 0.24093,-0.2773 0.059,-0.11524 0.0884,-0.25209 0.0884,-0.41056 0,-0.16566 -0.0325,-0.30011 -0.0976,-0.40334 -0.063,-0.10324 -0.15251,-0.18848 -0.26837,-0.25568 -0.11589,-0.06722 -0.25414,-0.12365 -0.41475,-0.16927 -0.16062,-0.04563 -0.33852,-0.09481 -0.53369,-0.14766 -0.11998,-0.03119 -0.24094,-0.06483 -0.36291,-0.10083 -0.11994,-0.03842 -0.23584,-0.08285 -0.34768,-0.13326 -0.10981,-0.05281 -0.21347,-0.11404 -0.31109,-0.18368 -0.0976,-0.06965 -0.18196,-0.15245 -0.25313,-0.2485 -0.0712,-0.09844 -0.12707,-0.21128 -0.16772,-0.33852 -0.0407,-0.12963 -0.061,-0.2785 -0.061,-0.44658 0,-0.24008 0.0407,-0.44538 0.122,-0.61582 0.0834,-0.17286 0.19823,-0.31451 0.34463,-0.42496 0.14638,-0.11045 0.3192,-0.19087 0.51845,-0.24128 0.19925,-0.05042 0.41476,-0.07562 0.64654,-0.07562 0.26634,4e-6 0.49407,0.0252 0.68315,0.07562 0.18908,0.04803 0.34869,0.12124 0.4788,0.21969 0.13011,0.09844 0.23381,0.22089 0.31109,0.36732 0.0793,0.14406 0.14232,0.31212 0.18908,0.50418 l -0.57335,0.11884 c -0.0285,-0.12245 -0.0701,-0.2317 -0.12505,-0.32772 -0.0529,-0.09605 -0.12301,-0.17646 -0.21042,-0.24128 -0.0874,-0.06483 -0.19415,-0.11404 -0.32022,-0.14766 -0.12402,-0.03361 -0.27042,-0.05042 -0.43917,-0.05042 -0.19925,4e-6 -0.36699,0.02175 -0.50322,0.06483 -0.13419,0.04081 -0.24296,0.09724 -0.32633,0.16927 -0.0813,0.07203 -0.14027,0.15727 -0.17688,0.25568 -0.0345,0.09605 -0.0519,0.20047 -0.0519,0.31331 0,0.15125 0.0315,0.2761 0.0945,0.37454 0.0651,0.09605 0.15249,0.17646 0.26228,0.24128 0.10977,0.06483 0.23686,0.11886 0.38122,0.16207 0.14436,0.04322 0.29785,0.08644 0.46052,0.12963 0.13215,0.03602 0.2633,0.07324 0.39341,0.11165 0.13215,0.03603 0.2582,0.08044 0.37818,0.13326 0.11993,0.05042 0.23178,0.11045 0.33547,0.18005 0.10573,0.06964 0.19723,0.15484 0.27448,0.25568 0.0772,0.10083 0.13724,0.2197 0.17994,0.35655 0.0447,0.13686 0.0671,0.29772 0.0671,0.48259"
     inkscape:connector-curvature="0" />
  <path
     id="path4055"
     style="fill:#808080;stroke:#000000;stroke-width:1;stroke-opacity:0.04705882;stroke-miterlimit:4;stroke-dasharray:none"
     d="m 26.87223,52.97776 0,-2.4705 c 0,-0.18966 -0.0101,-0.34814 -0.0305,-0.47538 -0.0202,-0.12724 -0.0549,-0.22927 -0.1037,-0.3061 -0.0468,-0.07922 -0.10876,-0.13445 -0.18605,-0.16566 -0.0772,-0.03361 -0.17179,-0.05042 -0.28363,-0.05042 -0.11589,4e-6 -0.2206,0.02773 -0.31413,0.08285 -0.0935,0.05281 -0.17385,0.13086 -0.24093,0.2341 -0.0651,0.10083 -0.1159,0.22688 -0.15249,0.37813 -0.0345,0.14886 -0.0519,0.32053 -0.0519,0.51498 l 0,2.258 -0.54592,0 0,-3.0648 c 0,-0.0816 -0.001,-0.16684 -0.003,-0.25568 0,-0.09121 -0.001,-0.17646 -0.003,-0.25568 -0.002,-0.0816 -0.004,-0.15125 -0.006,-0.20889 -0.002,-0.0576 -0.004,-0.09481 -0.006,-0.11165 l 0.51845,0 c 0.002,0.01204 0.004,0.04444 0.006,0.09724 0.002,0.05281 0.004,0.11404 0.006,0.18368 0.004,0.06726 0.007,0.13686 0.009,0.20889 0.002,0.06965 0.003,0.12845 0.003,0.17646 l 0.009,0 c 0.0488,-0.11283 0.10166,-0.21487 0.15859,-0.3061 0.0569,-0.09122 0.12301,-0.16805 0.19823,-0.23047 0.0772,-0.06483 0.16468,-0.11404 0.26228,-0.14766 0.0996,-0.03602 0.21449,-0.05401 0.34463,-0.05401 0.25009,3e-6 0.44729,0.05883 0.59165,0.17646 0.14641,0.11763 0.24804,0.3049 0.30498,0.56181 l 0.009,0 c 0.0488,-0.11283 0.10369,-0.21487 0.1647,-0.3061 0.061,-0.09121 0.13215,-0.16805 0.21348,-0.23047 0.0813,-0.06483 0.1728,-0.11404 0.27447,-0.14766 0.10165,-0.03603 0.21754,-0.05401 0.34768,-0.05401 0.16672,10e-7 0.31005,0.02647 0.43002,0.07922 0.12198,0.05281 0.22161,0.13445 0.29887,0.2449 0.0772,0.11045 0.13419,0.25329 0.17078,0.42855 0.0366,0.17286 0.0549,0.37933 0.0549,0.61944 l 0,2.5966 -0.54284,0 0,-2.4705 c -10e-6,-0.18966 -0.0101,-0.34814 -0.0305,-0.47538 -0.0202,-0.12724 -0.0549,-0.22928 -0.10371,-0.3061 -0.0468,-0.07922 -0.1088,-0.13445 -0.18605,-0.16566 -0.0772,-0.03361 -0.17179,-0.05042 -0.28363,-0.05042 -0.11589,2e-6 -0.2206,0.02647 -0.31413,0.07922 -0.0935,0.05042 -0.17385,0.12604 -0.24093,0.22688 -0.065,0.10083 -0.1159,0.22688 -0.15249,0.37813 -0.0345,0.15125 -0.0519,0.32652 -0.0519,0.52579 l 0,2.258 -0.54284,0"
     inkscape:connector-curvature="0" />
  <path
     id="path4057"
     style="fill:#808080;stroke:#000000;stroke-width:1;stroke-opacity:0.04705882;stroke-miterlimit:4;stroke-dasharray:none"
     d="m 31.00023,53.04976 c -0.3314,0 -0.58047,-0.10324 -0.7472,-0.30972 -0.16672,-0.20649 -0.25009,-0.48978 -0.25009,-0.84991 0,-0.25691 0.0407,-0.46696 0.12201,-0.63025 0.0834,-0.16566 0.19111,-0.29532 0.32328,-0.38894 0.13419,-0.09362 0.28667,-0.15847 0.45745,-0.19448 0.17078,-0.03602 0.34463,-0.0564 0.5215,-0.06124 l 0.74108,-0.01441 0,-0.21248 c 0,-0.16086 -0.0141,-0.29772 -0.0427,-0.41056 -0.0285,-0.11283 -0.0722,-0.20406 -0.13112,-0.2737 -0.059,-0.0696 -0.13318,-0.12002 -0.22263,-0.15125 -0.0874,-0.03361 -0.19112,-0.05042 -0.31106,-0.05042 -0.10573,4e-6 -0.20129,0.0095 -0.28667,0.02868 -0.0854,0.01678 -0.15961,0.04922 -0.22263,0.09724 -0.063,0.04565 -0.11388,0.10924 -0.15247,0.19087 -0.0386,0.07922 -0.064,0.18009 -0.0762,0.30251 l -0.57334,-0.06124 c 0.0202,-0.15366 0.059,-0.29409 0.11589,-0.42136 0.0569,-0.12963 0.13725,-0.24128 0.24094,-0.33493 0.10572,-0.09362 0.23685,-0.16566 0.39341,-0.21607 0.15859,-0.05281 0.3497,-0.07922 0.57334,-0.07922 0.41476,2e-6 0.72686,0.11283 0.93628,0.33852 0.20941,0.22329 0.31413,0.54741 0.31413,0.97236 l 0,1.6782 c 0,0.19205 0.0214,0.33733 0.064,0.43576 0.0427,0.09605 0.12403,0.14406 0.24398,0.14406 0.0305,0 0.061,-0.0023 0.0915,-0.0073 0.0305,-0.0048 0.06,-0.01066 0.0884,-0.01796 l 0,0.40334 c -0.0691,0.01915 -0.13826,0.03361 -0.20739,0.04321 -0.0671,0.0095 -0.13927,0.01441 -0.21655,0.01441 -0.10369,0 -0.19314,-0.01579 -0.26837,-0.04683 -0.0732,-0.03361 -0.13318,-0.08285 -0.17994,-0.14766 -0.0468,-0.06722 -0.0823,-0.14886 -0.10673,-0.2449 -0.0243,-0.09844 -0.0396,-0.21248 -0.0457,-0.34211 l -0.0183,0 c -0.059,0.12484 -0.12402,0.23769 -0.19518,0.33852 -0.0691,0.10083 -0.15044,0.18727 -0.24397,0.2593 -0.0935,0.06965 -0.20028,0.12365 -0.32022,0.16207 -0.11792,0.03842 -0.25414,0.05764 -0.40867,0.05764 m 0.12503,-0.48618 c 0.17487,0 0.32734,-0.03721 0.45745,-0.11165 0.13215,-0.07683 0.24094,-0.17407 0.32633,-0.2917 0.0874,-0.11763 0.15246,-0.2461 0.19516,-0.38535 0.0427,-0.13924 0.064,-0.27251 0.064,-0.39975 l 0,-0.32053 -0.6008,0.01441 c -0.13419,0.0023 -0.26228,0.01441 -0.38426,0.03602 -0.11994,0.01915 -0.2257,0.05883 -0.31717,0.11883 -0.0915,0.06003 -0.1647,0.14406 -0.21959,0.25209 -0.0529,0.10806 -0.0793,0.24969 -0.0793,0.42496 0,0.21128 0.0478,0.37454 0.14335,0.48978 0.0976,0.11524 0.23583,0.17286 0.41475,0.17286"
     inkscape:connector-curvature="0" />
  <path
     id="path4059"
     style="fill:#808080;stroke:#000000;stroke-width:1;stroke-opacity:0.04705882;stroke-miterlimit:4;stroke-dasharray:none"
     d="m 33.64723,52.97776 0,-2.9891 c 0,-0.0816 -10e-4,-0.16445 -0.003,-0.2485 0,-0.08644 -10e-4,-0.16925 -0.003,-0.2485 -0.002,-0.07922 -0.004,-0.15366 -0.006,-0.22329 -0.002,-0.06965 -0.004,-0.13204 -0.006,-0.18727 l 0.51845,0 c 0.002,0.05521 0.004,0.11886 0.006,0.19087 0.004,0.06965 0.007,0.14168 0.009,0.21607 0.004,0.07442 0.006,0.14647 0.006,0.21607 0.002,0.06724 0.003,0.12484 0.003,0.17286 l 0.0122,0 c 0.0386,-0.14886 0.0793,-0.2773 0.122,-0.38535 0.0447,-0.11044 0.0966,-0.20047 0.15554,-0.27011 0.059,-0.07203 0.1291,-0.12486 0.21045,-0.15847 0.0813,-0.03602 0.17993,-0.05401 0.29582,-0.05401 0.0447,2e-6 0.0874,0.0048 0.12809,0.01441 0.0407,0.0073 0.0722,0.01441 0.0945,0.02173 l 0,0.59424 c -0.0366,-0.01204 -0.0793,-0.02049 -0.12808,-0.02521 -0.0488,-0.0073 -0.10369,-0.01066 -0.1647,-0.01066 -0.12606,2e-6 -0.23381,0.03361 -0.32328,0.10083 -0.0874,0.06724 -0.1596,0.16086 -0.21652,0.28092 -0.0549,0.11763 -0.0956,0.2593 -0.122,0.42496 -0.0264,0.16325 -0.0396,0.34214 -0.0396,0.5366 l 0,2.0312 -0.54896,0"
     inkscape:connector-curvature="0" />
  <path
     id="path4061"
     style="fill:#808080;stroke:#000000;stroke-width:1;stroke-opacity:0.04705882;stroke-miterlimit:4;stroke-dasharray:none"
     d="m 36.99023,52.94876 c -0.0834,0.02647 -0.16876,0.04683 -0.25617,0.06124 -0.0854,0.01678 -0.18503,0.0252 -0.29886,0.0252 -0.43918,0 -0.65874,-0.29412 -0.65874,-0.88234 l 0,-2.6002 -0.38121,0 0,-0.47178 0.40256,0 0.16162,-0.87153 0.36598,0 0,0.87153 0.60996,0 0,0.47178 -0.60996,0 0,2.4597 c 0,0.18727 0.0254,0.31933 0.0762,0.39615 0.0529,0.07442 0.14333,0.11165 0.27144,0.11165 0.0529,0 0.1037,-0.0048 0.15248,-0.01441 0.0508,-0.0095 0.10573,-0.02173 0.1647,-0.03602 l 0,0.47897"
     inkscape:connector-curvature="0" />
  <path
     id="path4063"
     style="fill:#808080;stroke:#000000;stroke-width:1;stroke-opacity:0.04705882;stroke-miterlimit:4;stroke-dasharray:none"
     d="m 40.91323,51.57576 c 0,0.21368 -0.0356,0.41056 -0.10674,0.59061 -0.0691,0.18005 -0.17688,0.33613 -0.32328,0.46819 -0.1464,0.12967 -0.33142,0.2317 -0.55507,0.30613 -0.22161,0.07203 -0.48491,0.10806 -0.78988,0.10806 -0.53474,0 -0.95152,-0.11044 -1.2504,-0.33134 -0.29887,-0.22089 -0.48897,-0.54019 -0.5703,-0.95796 l 0.56419,-0.13326 c 0.0285,0.13206 0.0722,0.25209 0.13114,0.36014 0.059,0.10806 0.13825,0.20167 0.23789,0.28092 0.10167,0.07683 0.22669,0.13686 0.37513,0.18005 0.14843,0.04323 0.32633,0.06483 0.53369,0.06483 0.17281,0 0.3314,-0.01677 0.47576,-0.05042 0.14436,-0.03602 0.26837,-0.09003 0.37206,-0.16206 0.10371,-0.07203 0.18399,-0.16445 0.24094,-0.2773 0.059,-0.11524 0.0884,-0.25209 0.0884,-0.41056 0,-0.16566 -0.0325,-0.30011 -0.0976,-0.40334 -0.063,-0.10324 -0.15251,-0.18848 -0.26836,-0.25568 -0.1159,-0.06722 -0.25415,-0.12365 -0.41476,-0.16927 -0.16061,-0.04563 -0.33852,-0.09481 -0.53369,-0.14766 -0.11994,-0.03119 -0.24094,-0.06483 -0.36291,-0.10083 -0.11994,-0.03842 -0.23584,-0.08285 -0.34767,-0.13326 -0.10982,-0.05281 -0.21348,-0.11404 -0.31109,-0.18368 -0.0976,-0.06965 -0.18196,-0.15245 -0.25313,-0.2485 -0.0712,-0.09844 -0.12708,-0.21128 -0.16773,-0.33852 -0.0407,-0.12963 -0.061,-0.2785 -0.061,-0.44658 0,-0.24008 0.0407,-0.44538 0.122,-0.61582 0.0834,-0.17286 0.19823,-0.31451 0.34463,-0.42496 0.14638,-0.11045 0.3192,-0.19087 0.51846,-0.24128 0.19924,-0.05042 0.41475,-0.07562 0.64653,-0.07562 0.26634,4e-6 0.49407,0.0252 0.68316,0.07562 0.18909,0.04803 0.34868,0.12124 0.47879,0.21969 0.13011,0.09844 0.23382,0.22089 0.31109,0.36732 0.0793,0.14406 0.14232,0.31212 0.1891,0.50418 l -0.57334,0.11884 c -0.0285,-0.12245 -0.0701,-0.2317 -0.12506,-0.32772 -0.0529,-0.09605 -0.12301,-0.17646 -0.21042,-0.24128 -0.0874,-0.06483 -0.19415,-0.11404 -0.32021,-0.14766 -0.12403,-0.03361 -0.27042,-0.05042 -0.43918,-0.05042 -0.19924,4e-6 -0.36699,0.02175 -0.50321,0.06483 -0.1342,0.04081 -0.24297,0.09724 -0.32633,0.16927 -0.0813,0.07203 -0.14027,0.15727 -0.17688,0.25568 -0.0345,0.09605 -0.0519,0.20047 -0.0519,0.31331 0,0.15125 0.0315,0.2761 0.0945,0.37454 0.065,0.09605 0.15249,0.17646 0.26228,0.24128 0.10977,0.06483 0.23685,0.11886 0.38122,0.16207 0.14436,0.04322 0.29785,0.08644 0.46052,0.12963 0.13215,0.03602 0.2633,0.07324 0.39341,0.11165 0.13215,0.03603 0.2582,0.08044 0.37817,0.13326 0.11994,0.05042 0.23178,0.11045 0.33548,0.18005 0.10573,0.06964 0.19722,0.15484 0.27448,0.25568 0.0772,0.10083 0.13724,0.2197 0.17994,0.35655 0.0447,0.13686 0.0671,0.29772 0.0671,0.48259"
     inkscape:connector-curvature="0" />
  <path
     id="path4065"
     style="fill:#808080;stroke:#000000;stroke-width:1;stroke-opacity:0.04705882;stroke-miterlimit:4;stroke-dasharray:none"
     d="m 42.04423,51.01176 c 0,0.22329 0.0133,0.42855 0.0396,0.61582 0.0285,0.18727 0.0752,0.34933 0.14027,0.48618 0.0651,0.13445 0.15045,0.23888 0.25617,0.31331 0.10775,0.07442 0.23992,0.11165 0.39648,0.11165 0.19516,0 0.35784,-0.06242 0.48796,-0.18727 0.13215,-0.12486 0.21347,-0.31691 0.24397,-0.57621 l 0.55507,0.04321 c -0.0183,0.16086 -0.058,0.31571 -0.11893,0.46457 -0.061,0.14886 -0.14436,0.27972 -0.25009,0.39256 -0.1037,0.11283 -0.23076,0.20406 -0.38121,0.2737 -0.15045,0.06722 -0.3243,0.10083 -0.5215,0.10083 -0.2582,0 -0.47778,-0.05162 -0.65873,-0.15484 -0.18095,-0.10324 -0.32836,-0.2449 -0.44222,-0.42496 -0.11183,-0.18248 -0.19314,-0.39616 -0.24398,-0.64103 -0.0508,-0.2473 -0.0762,-0.51499 -0.0762,-0.80309 0,-0.2617 0.0183,-0.49217 0.0549,-0.69145 0.0366,-0.20167 0.0874,-0.37694 0.15246,-0.52579 0.0671,-0.15125 0.14537,-0.2773 0.23483,-0.37813 0.0894,-0.10324 0.18604,-0.18488 0.28974,-0.2449 0.10572,-0.06242 0.21651,-0.10681 0.33241,-0.13326 0.11589,-0.02868 0.23279,-0.04321 0.35071,-0.04321 0.18501,2e-6 0.3497,0.02993 0.49407,0.09003 0.14436,0.06003 0.26836,0.14288 0.37206,0.2485 0.10572,0.10322 0.19112,0.22568 0.25617,0.36732 0.0651,0.14167 0.1108,0.29412 0.13724,0.45738 l -0.56419,0.05042 c -0.0285,-0.21607 -0.10065,-0.38774 -0.21652,-0.51498 -0.11589,-0.12724 -0.28058,-0.19087 -0.49406,-0.19087 -0.15655,5e-6 -0.28769,0.03119 -0.39341,0.09362 -0.10369,0.06003 -0.18807,0.15245 -0.25313,0.2773 -0.0651,0.12245 -0.11183,0.2773 -0.14028,0.46456 -0.0264,0.18727 -0.0396,0.40697 -0.0396,0.65905"
     inkscape:connector-curvature="0" />
  <path
     id="path4067"
     style="fill:#808080;stroke:#000000;stroke-width:1;stroke-opacity:0.04705882;stroke-miterlimit:4;stroke-dasharray:none"
     d="m 45.59123,53.04976 c -0.33139,0 -0.58047,-0.10324 -0.74719,-0.30972 -0.16672,-0.20649 -0.25009,-0.48978 -0.25009,-0.84991 0,-0.25691 0.0407,-0.46696 0.122,-0.63025 0.0834,-0.16566 0.19112,-0.29532 0.32328,-0.38894 0.13419,-0.09362 0.28668,-0.15847 0.45746,-0.19448 0.17078,-0.03602 0.3446,-0.0564 0.52149,-0.06124 l 0.74109,-0.01441 0,-0.21248 c -1e-5,-0.16086 -0.0141,-0.29772 -0.0427,-0.41056 -0.0285,-0.11283 -0.0722,-0.20406 -0.13112,-0.2737 -0.059,-0.0696 -0.13318,-0.12002 -0.22263,-0.15125 -0.0874,-0.03361 -0.19111,-0.05042 -0.31108,-0.05042 -0.10573,4e-6 -0.20129,0.0095 -0.28668,0.02868 -0.0854,0.01678 -0.1596,0.04922 -0.22263,0.09724 -0.063,0.04565 -0.11385,0.10924 -0.15246,0.19087 -0.0386,0.07922 -0.064,0.18009 -0.0762,0.30251 l -0.57335,-0.06124 c 0.0202,-0.15366 0.059,-0.29409 0.1159,-0.42136 0.0569,-0.12963 0.13724,-0.24128 0.24093,-0.33493 0.10573,-0.09362 0.23685,-0.16566 0.39341,-0.21607 0.15859,-0.05281 0.3497,-0.07922 0.57335,-0.07922 0.41475,2e-6 0.72686,0.11283 0.93628,0.33852 0.20941,0.22329 0.31413,0.54741 0.31413,0.97236 l 0,1.6782 c -10e-6,0.19205 0.0213,0.33733 0.064,0.43576 0.0427,0.09605 0.12402,0.14406 0.24398,0.14406 0.0305,0 0.061,-0.0023 0.0915,-0.0073 0.0305,-0.0048 0.06,-0.01066 0.0884,-0.01796 l 0,0.40334 c -0.0691,0.01915 -0.13825,0.03361 -0.20739,0.04321 -0.0671,0.0095 -0.13926,0.01441 -0.21652,0.01441 -0.1037,0 -0.19314,-0.01579 -0.26839,-0.04683 -0.0732,-0.03361 -0.13318,-0.08285 -0.17994,-0.14766 -0.0468,-0.06722 -0.0824,-0.14886 -0.10674,-0.2449 -0.0243,-0.09844 -0.0396,-0.21248 -0.0457,-0.34211 l -0.0183,0 c -0.059,0.12484 -0.12402,0.23769 -0.19518,0.33852 -0.0691,0.10083 -0.15045,0.18727 -0.24398,0.2593 -0.0935,0.06965 -0.20028,0.12365 -0.32021,0.16207 -0.11792,0.03842 -0.25415,0.05764 -0.40868,0.05764 m 0.12506,-0.48618 c 0.17486,0 0.32733,-0.03721 0.45745,-0.11165 0.13215,-0.07683 0.24093,-0.17407 0.32632,-0.2917 0.0874,-0.11763 0.15247,-0.2461 0.19516,-0.38535 0.0427,-0.13924 0.064,-0.27251 0.064,-0.39975 l 0,-0.32053 -0.60081,0.01441 c -0.13419,0.0023 -0.26228,0.01441 -0.38425,0.03602 -0.11994,0.01915 -0.22568,0.05883 -0.31718,0.11883 -0.0915,0.06003 -0.16469,0.14406 -0.21958,0.25209 -0.0529,0.10806 -0.0793,0.24969 -0.0793,0.42496 0,0.21128 0.0478,0.37454 0.14335,0.48978 0.0976,0.11524 0.23584,0.17286 0.41476,0.17286"
     inkscape:connector-curvature="0" />
  <path
     id="path4069"
     style="fill:#808080;stroke:#000000;stroke-width:1;stroke-opacity:0.04705882;stroke-miterlimit:4;stroke-dasharray:none"
     d="m 50.31923,52.97776 0,-2.4705 c 0,-0.18966 -0.0122,-0.34814 -0.0366,-0.47538 -0.0224,-0.12724 -0.06,-0.22927 -0.11284,-0.3061 -0.0529,-0.07922 -0.12301,-0.13445 -0.21045,-0.16566 -0.0854,-0.03361 -0.19213,-0.05042 -0.32021,-0.05042 -0.13011,4e-6 -0.24806,0.02773 -0.35378,0.08285 -0.10369,0.05281 -0.19314,0.13086 -0.26837,0.2341 -0.0732,0.10083 -0.13011,0.22688 -0.17078,0.37813 -0.0407,0.14886 -0.061,0.32053 -0.061,0.51498 l 0,2.258 -0.54896,0 0,-3.0648 c 0,-0.0816 -0.001,-0.16684 -0.003,-0.25568 0,-0.09121 -0.001,-0.17646 -0.003,-0.25568 -0.002,-0.0816 -0.004,-0.15125 -0.006,-0.20889 -0.002,-0.0576 -0.004,-0.09481 -0.006,-0.11165 l 0.51845,0 c 0.002,0.01204 0.004,0.04444 0.006,0.09724 0.002,0.05281 0.004,0.11404 0.006,0.18368 0.004,0.06726 0.007,0.13686 0.009,0.20889 0.002,0.06965 0.003,0.12845 0.003,0.17646 l 0.009,0 c 0.0529,-0.11283 0.1108,-0.21487 0.17383,-0.3061 0.063,-0.09122 0.13623,-0.16805 0.21959,-0.23047 0.0834,-0.06483 0.1789,-0.11404 0.28667,-0.14766 0.10775,-0.03602 0.23279,-0.05401 0.37513,-0.05401 0.18297,3e-6 0.34055,0.02647 0.47272,0.07922 0.13214,0.05281 0.24093,0.13445 0.32632,0.2449 0.0854,0.11044 0.14741,0.25329 0.18604,0.42855 0.0407,0.17286 0.061,0.37933 0.061,0.61944 l 0,2.5966 -0.552,0"
     inkscape:connector-curvature="0" />
  <path
     id="path4071"
     style="fill:#808080;stroke:#000000;stroke-width:1;stroke-opacity:0.04705882;stroke-miterlimit:4;stroke-dasharray:none"
     d="m 54.10923,48.46476 0,1.8871 2.3971,0 0,0.56903 -2.3971,0 0,2.0564 -0.5825,0 0,-5.0742 3.0527,0 0,0.56181 -2.4703,0"
     inkscape:connector-curvature="0" />
  <path
     id="path4073"
     style="fill:#808080;stroke:#000000;stroke-width:1;stroke-opacity:0.04705882;stroke-miterlimit:4;stroke-dasharray:none"
     d="m 60.04823,52.97776 -0.49099,-1.4838 -1.9579,0 -0.49406,1.4838 -0.60385,0 1.7536,-5.0742 0.66181,0 1.7262,5.0742 -0.59469,0 m -1.2168,-3.695 c -0.0325,-0.09605 -0.064,-0.19325 -0.0945,-0.2917 -0.0285,-0.09844 -0.0539,-0.18727 -0.0762,-0.26649 -0.0224,-0.0816 -0.0417,-0.14886 -0.058,-0.20167 -0.0141,-0.05522 -0.0224,-0.08883 -0.0243,-0.10083 -0.004,0.01204 -0.0133,0.04562 -0.0275,0.10083 -0.0141,0.05524 -0.0335,0.12365 -0.058,0.20529 -0.0224,0.08164 -0.0488,0.17168 -0.0793,0.27011 -0.0285,0.09844 -0.058,0.19568 -0.0884,0.2917 l -0.54895,1.6674 1.6072,0 -0.55199,-1.6746"
     inkscape:connector-curvature="0" />
  <path
     id="path4075"
     style="fill:#808080;stroke:#000000;stroke-width:1;stroke-opacity:0.04705882;stroke-miterlimit:4;stroke-dasharray:none"
     d="m 64.74023,51.82776 0,1.1488 -0.51845,0 0,-1.1488 -2.025,0 0,-0.50418 1.9671,-3.4211 0.57639,0 0,3.4142 0.60384,0 0,0.51139 -0.60384,0 m -0.51846,-3.1943 c -0.004,0.01204 -0.0141,0.03602 -0.0305,0.07203 -0.0162,0.03361 -0.0345,0.07203 -0.0549,0.11524 -0.0202,0.04323 -0.0417,0.08762 -0.064,0.13326 -0.0202,0.04323 -0.0386,0.07926 -0.0549,0.10806 l -1.101,1.9159 c -0.0101,0.01915 -0.0254,0.04443 -0.0457,0.07562 -0.0183,0.03119 -0.0376,0.06362 -0.058,0.09724 -0.0202,0.03119 -0.0407,0.06242 -0.061,0.09362 -0.0202,0.03119 -0.0366,0.05521 -0.0488,0.07203 l 1.5188,0 0,-2.683"
     inkscape:connector-curvature="0" />
  <path
     id="path4077"
     style="fill:#808080;stroke:#000000;stroke-width:1;stroke-opacity:0.04705882;stroke-miterlimit:4;stroke-dasharray:none"
     d="m 65.84423,52.97776 0,-0.45738 c 0.10369,-0.28092 0.22976,-0.52819 0.37818,-0.7419 0.15044,-0.21607 0.30802,-0.41056 0.47271,-0.58343 0.16468,-0.17527 0.32734,-0.33732 0.48796,-0.48618 0.16263,-0.14886 0.30903,-0.29772 0.43917,-0.44657 0.13011,-0.14886 0.23482,-0.3049 0.31413,-0.46819 0.0813,-0.16325 0.122,-0.34813 0.122,-0.55459 0,-0.14404 -0.0183,-0.27011 -0.0549,-0.37813 -0.0366,-0.11045 -0.0895,-0.20287 -0.15859,-0.2773 -0.0691,-0.07444 -0.15249,-0.12963 -0.25009,-0.16566 -0.0956,-0.03842 -0.2023,-0.0576 -0.32021,-0.05765 -0.10982,6e-6 -0.21348,0.01796 -0.31109,0.05401 -0.0956,0.03602 -0.18095,0.09003 -0.25618,0.16206 -0.0752,0.07203 -0.13724,0.16206 -0.18604,0.27011 -0.0468,0.10565 -0.0772,0.22931 -0.0915,0.37095 l -0.56115,-0.06124 c 0.0183,-0.18244 0.061,-0.35412 0.12809,-0.51498 0.0671,-0.16086 0.1596,-0.30131 0.27752,-0.42136 0.11792,-0.12245 0.25921,-0.21847 0.42391,-0.2881 0.16672,-0.0696 0.35885,-0.10442 0.57641,-0.10442 0.21348,10e-7 0.40358,0.02993 0.5703,0.09003 0.16672,0.06003 0.30701,0.14886 0.42087,0.26649 0.1159,0.11763 0.20432,0.2629 0.26533,0.43577 0.061,0.17286 0.0915,0.37214 0.0915,0.59782 0,0.17048 -0.0264,0.33254 -0.0793,0.48618 -0.0508,0.15368 -0.11998,0.30011 -0.20739,0.43936 -0.0854,0.13925 -0.18504,0.2737 -0.29887,0.40334 -0.11386,0.12967 -0.2328,0.25691 -0.35683,0.38176 -0.12402,0.12245 -0.24907,0.2449 -0.37513,0.36736 -0.12606,0.12006 -0.24499,0.24128 -0.35682,0.36373 -0.10981,0.12245 -0.20841,0.2473 -0.29583,0.37454 -0.0874,0.12486 -0.15554,0.25568 -0.20432,0.39256 l 2.2416,0 0,0.551 -2.8454,0"
     inkscape:connector-curvature="0" />
  <path
     id="path4079"
     style="fill:#808080;stroke:#000000;stroke-width:1;stroke-opacity:0.04705882;stroke-miterlimit:4;stroke-dasharray:none"
     d="m 72.23523,50.43776 c 0,0.48738 -0.0396,0.89794 -0.11893,1.2317 -0.0773,0.33134 -0.18402,0.60022 -0.32021,0.80671 -0.13419,0.20406 -0.29279,0.35053 -0.47576,0.43936 -0.18297,0.08883 -0.37817,0.13326 -0.58554,0.13326 -0.20941,0 -0.40459,-0.04444 -0.58557,-0.13326 -0.18095,-0.08883 -0.33852,-0.23529 -0.47271,-0.43936 -0.13217,-0.20407 -0.23688,-0.47178 -0.31413,-0.80309 -0.0752,-0.33373 -0.11285,-0.74549 -0.11285,-1.2353 0,-0.51139 0.0376,-0.93395 0.11285,-1.2677 0.0772,-0.33613 0.18297,-0.60381 0.31717,-0.80309 0.13419,-0.19928 0.29278,-0.33852 0.47576,-0.41777 0.18297,-0.0816 0.38223,-0.12245 0.59776,-0.12245 0.20533,2e-6 0.39749,0.04081 0.57641,0.12245 0.18095,0.07926 0.33852,0.2185 0.47272,0.41777 0.13419,0.19928 0.23992,0.46699 0.31717,0.80309 0.0772,0.33373 0.1159,0.7563 0.1159,1.2677 m -0.55811,0 c 0,-0.40334 -0.0202,-0.73827 -0.061,-1.0048 -0.0407,-0.26891 -0.10066,-0.48259 -0.17994,-0.64103 -0.0793,-0.16086 -0.17689,-0.2737 -0.29278,-0.33852 -0.11386,-0.06722 -0.24398,-0.10083 -0.39037,-0.10083 -0.15453,7e-6 -0.29076,0.03361 -0.40868,0.10083 -0.11791,0.06726 -0.21755,0.18127 -0.29886,0.34214 -0.0793,0.15847 -0.13927,0.37214 -0.17994,0.64103 -0.0407,0.26652 -0.061,0.60022 -0.061,1.0012 0,0.38894 0.0202,0.71668 0.061,0.98318 0.0427,0.26649 0.10368,0.48139 0.18297,0.64465 0.0813,0.16086 0.17994,0.2773 0.29582,0.34933 0.1159,0.06964 0.24806,0.10442 0.39648,0.10442 0.14436,0 0.27448,-0.03482 0.39037,-0.10442 0.1159,-0.07203 0.21348,-0.18846 0.29278,-0.34933 0.0813,-0.16327 0.14333,-0.37813 0.18605,-0.64465 0.0447,-0.26649 0.0671,-0.59424 0.0671,-0.98318"
     inkscape:connector-curvature="0" />
  <path
     id="path4081"
     style="fill:#808080;stroke:#000000;stroke-width:1;stroke-opacity:0.04705882;stroke-miterlimit:4;stroke-dasharray:none"
     d="m 75.71223,50.43776 c -1e-5,0.48738 -0.0397,0.89794 -0.11893,1.2317 -0.0772,0.33134 -0.18398,0.60022 -0.32022,0.80671 -0.13419,0.20406 -0.29278,0.35053 -0.47576,0.43936 -0.18297,0.08883 -0.37817,0.13326 -0.58553,0.13326 -0.20942,0 -0.40459,-0.04444 -0.58557,-0.13326 -0.18095,-0.08883 -0.33852,-0.23529 -0.47272,-0.43936 -0.13217,-0.20407 -0.23685,-0.47178 -0.31413,-0.80309 -0.0752,-0.33373 -0.11284,-0.74549 -0.11284,-1.2353 0,-0.51139 0.0376,-0.93395 0.11284,-1.2677 0.0773,-0.33613 0.18297,-0.60381 0.31718,-0.80309 0.13419,-0.19928 0.29278,-0.33852 0.47576,-0.41777 0.18297,-0.0816 0.38222,-0.12245 0.59775,-0.12245 0.20533,2e-6 0.3975,0.04081 0.57642,0.12245 0.18095,0.07926 0.33852,0.2185 0.47272,0.41777 0.13419,0.19928 0.23992,0.46699 0.31717,0.80309 0.0772,0.33373 0.11589,0.7563 0.11589,1.2677 m -0.5581,0 c -1e-5,-0.40334 -0.0202,-0.73827 -0.061,-1.0048 -0.0407,-0.26891 -0.10066,-0.48259 -0.17994,-0.64103 -0.0793,-0.16086 -0.17689,-0.2737 -0.29278,-0.33852 -0.11386,-0.06722 -0.24398,-0.10083 -0.39037,-0.10083 -0.15453,7e-6 -0.29076,0.03361 -0.40868,0.10083 -0.11791,0.06726 -0.21756,0.18127 -0.29886,0.34214 -0.0793,0.15847 -0.13927,0.37214 -0.17994,0.64103 -0.0407,0.26652 -0.061,0.60022 -0.061,1.0012 0,0.38894 0.0202,0.71668 0.061,0.98318 0.0427,0.26649 0.1037,0.48139 0.18297,0.64465 0.0813,0.16086 0.17994,0.2773 0.29582,0.34933 0.1159,0.06964 0.24804,0.10442 0.39648,0.10442 0.14436,0 0.27448,-0.03482 0.39037,-0.10442 0.1159,-0.07203 0.21348,-0.18846 0.29278,-0.34933 0.0813,-0.16327 0.14335,-0.37813 0.18605,-0.64465 0.0447,-0.26649 0.0671,-0.59424 0.0671,-0.98318"
     inkscape:connector-curvature="0" />
  <path
     id="path4147"
     style="color:#000000;opacity:0.05;fill:#000000;stroke:#000000;stroke-width:1;stroke-miterlimit:4;stroke-dasharray:none;stroke-opacity:0.04705882"
     d="m 32.45823,61.674757 c -1.9436,0 -3.5579,1.5825 -3.5579,3.4877 0,1.9052 1.6144,3.4877 3.5579,3.4877 l 30.836,0 c 1.9436,0 3.5579,-1.5825 3.5579,-3.4877 0,-1.9052 -1.6144,-3.4877 -3.5579,-3.4877 l -30.836,0 z"
     inkscape:connector-curvature="0" />
  <rect
     id="rect4125"
     style="color:#000000;fill:url(#linearGradient3255);stroke:#000000;stroke-width:1;stroke-miterlimit:4;stroke-dasharray:none;stroke-opacity:0.04705882"
     rx="2.372"
     ry="2.1006999"
     height="4.2014999"
     width="35.578999"
     y="63.07576"
     x="30.086227" />
  <rect
     id="rect4151"
     style="color:#000000;opacity:0.15;stroke:#000000;stroke-width:1;stroke-miterlimit:4;stroke-dasharray:none;stroke-opacity:0.04705882"
     height="4.2014999"
     width="1.186"
     y="63.07576"
     x="41.947235" />
  <rect
     id="rect4153"
     style="color:#000000;opacity:0.15;stroke:#000000;stroke-width:1;stroke-miterlimit:4;stroke-dasharray:none;stroke-opacity:0.04705882"
     height="4.2014999"
     width="1.186"
     y="63.07576"
     x="53.806229" />
  <path
     id="path4194"
     style="fill:#666666;stroke:#000000;stroke-width:1;stroke-miterlimit:4;stroke-dasharray:none;stroke-opacity:0.04705882"
     d="m 34.01923,58.932757 c -0.0695,10e-6 -0.13116,0.0138 -0.18503,0.041 -0.0533,0.0274 -0.0982,0.0663 -0.13464,0.11694 -0.0359,0.0506 -0.0631,0.11145 -0.0817,0.18258 -0.0185,0.0711 -0.0278,0.1501 -0.0278,0.23694 0,0.0868 0.01,0.16651 0.0295,0.239 0.0202,0.0718 0.0489,0.13368 0.086,0.18566 0.0376,0.052 0.0834,0.0923 0.13724,0.12105 0.0545,0.0287 0.11552,0.0431 0.18329,0.0431 0.0475,0 0.0906,-0.007 0.12943,-0.0215 0.0394,-0.015 0.0747,-0.0359 0.10598,-0.0626 0.0319,-0.0267 0.0602,-0.0581 0.0851,-0.0944 0.0249,-0.0369 0.0469,-0.0776 0.066,-0.12205 l 0.13552,0.08 c -0.022,0.054 -0.0492,0.10427 -0.0817,0.15079 -0.0324,0.0465 -0.0707,0.0868 -0.11466,0.12105 -0.0434,0.0342 -0.093,0.0612 -0.14853,0.081 -0.055,0.0191 -0.11669,0.0287 -0.18503,0.0287 -0.099,0 -0.1859,-0.0186 -0.2606,-0.0554 -0.0741,-0.0376 -0.13638,-0.0896 -0.18676,-0.15591 -0.0498,-0.067 -0.0872,-0.14633 -0.11206,-0.23797 -0.0249,-0.0916 -0.0373,-0.19181 -0.0373,-0.30054 0,-0.11283 0.013,-0.21472 0.0391,-0.30566 0.0266,-0.0909 0.0652,-0.16822 0.11554,-0.23182 0.051,-0.0643 0.1135,-0.1135 0.18762,-0.14772 0.0741,-0.0349 0.15868,-0.0523 0.25365,-0.0523 0.1303,0 0.23917,0.0301 0.32661,0.0902 0.0874,0.0602 0.15173,0.14941 0.19285,0.26771 l -0.15722,0.0615 c -0.0116,-0.0342 -0.0272,-0.0667 -0.0469,-0.0974 -0.0198,-0.0314 -0.0443,-0.0591 -0.0738,-0.0831 -0.0295,-0.0239 -0.0643,-0.0431 -0.10424,-0.0574 -0.0394,-0.0144 -0.0845,-0.0215 -0.13551,-0.0215"
     inkscape:connector-curvature="0" />
  <path
     id="path4196"
     style="fill:#666666;stroke:#000000;stroke-width:1;stroke-miterlimit:4;stroke-dasharray:none;stroke-opacity:0.04705882"
     d="m 35.91623,59.509757 c 0,0.11283 -0.0139,0.2154 -0.0417,0.30772 -0.0272,0.0923 -0.0669,0.17128 -0.11899,0.23694 -0.0521,0.0656 -0.11583,0.11625 -0.1911,0.1518 -0.0753,0.0356 -0.16069,0.0533 -0.25625,0.0533 -0.10075,0 -0.18907,-0.0186 -0.26493,-0.0554 -0.0759,-0.0376 -0.13899,-0.0896 -0.18937,-0.15591 -0.0504,-0.067 -0.0883,-0.14633 -0.11379,-0.23797 -0.0255,-0.0916 -0.0382,-0.19181 -0.0382,-0.30054 0,-0.11283 0.0133,-0.21472 0.04,-0.30566 0.0266,-0.0909 0.0657,-0.16822 0.11727,-0.23182 0.0515,-0.0643 0.11494,-0.1135 0.19023,-0.14771 0.0759,-0.0349 0.16274,-0.0523 0.2606,-0.0523 0.0973,10e-6 0.18356,0.0174 0.25885,0.0523 0.0759,0.0349 0.13927,0.0844 0.19024,0.14872 0.0515,0.0643 0.0906,0.14189 0.11726,0.23284 0.0266,0.0909 0.04,0.19215 0.04,0.30362 m -0.16939,0 c 0,-0.0868 -0.01,-0.16584 -0.0287,-0.23694 -0.0185,-0.0711 -0.0463,-0.13198 -0.0834,-0.18258 -0.0365,-0.0506 -0.0819,-0.0896 -0.13638,-0.11694 -0.0544,-0.0273 -0.11726,-0.041 -0.1885,-0.041 -0.073,0 -0.13695,0.0138 -0.19196,0.041 -0.055,0.0274 -0.10106,0.0663 -0.13813,0.11694 -0.0365,0.0506 -0.064,0.11145 -0.0825,0.18258 -0.0179,0.0711 -0.0269,0.1501 -0.0269,0.23694 0,0.0868 0.009,0.16651 0.0278,0.239 0.0192,0.0718 0.0469,0.13402 0.0834,0.18668 0.0371,0.052 0.0828,0.0927 0.13725,0.12207 0.055,0.0287 0.11812,0.0431 0.18937,0.0431 0.0764,0 0.14217,-0.0146 0.19718,-0.0441 0.0556,-0.0294 0.10105,-0.0701 0.13638,-0.12207 0.0359,-0.0527 0.0623,-0.11522 0.0791,-0.18771 0.0175,-0.0725 0.0261,-0.15146 0.0261,-0.23694"
     inkscape:connector-curvature="0" />
  <path
     id="path4198"
     style="fill:#666666;stroke:#000000;stroke-width:1;stroke-miterlimit:4;stroke-dasharray:none;stroke-opacity:0.04705882"
     d="m 37.09223,59.228757 c 0,0.0629 -0.009,0.12172 -0.0269,0.17644 -0.0175,0.054 -0.0437,0.10121 -0.079,0.14154 -0.0348,0.0397 -0.0785,0.0711 -0.13116,0.0944 -0.0527,0.0232 -0.11408,0.0349 -0.18415,0.0349 l -0.35962,0 0,0.56312 -0.16589,0 0,-1.4453 0.51511,0 c 0.0724,10e-6 0.13552,0.0107 0.18937,0.0318 0.0539,0.0205 0.0987,0.0499 0.13463,0.0882 0.0359,0.0376 0.0628,0.0834 0.0808,0.13745 0.0179,0.0533 0.0269,0.11248 0.0269,0.17744 m -0.16678,0.002 c 0,-0.0916 -0.0238,-0.16104 -0.0712,-0.20822 -0.0475,-0.0479 -0.11872,-0.0718 -0.21369,-0.0718 l -0.32923,0 0,0.57031 0.33618,0 c 0.0956,0 0.16562,-0.025 0.21021,-0.0749 0.0452,-0.0499 0.0678,-0.12172 0.0678,-0.2154"
     inkscape:connector-curvature="0" />
  <path
     id="path4200"
     style="fill:#666666;stroke:#000000;stroke-width:1;stroke-miterlimit:4;stroke-dasharray:none;stroke-opacity:0.04705882"
     d="m 37.86323,59.639757 0,0.59902 -0.16504,0 0,-0.59902 -0.4708,-0.84622 0.18242,0 0.37265,0.68827 0.37091,-0.68827 0.18242,0 -0.47254,0.84622"
     inkscape:connector-curvature="0" />
  <path
     id="path4202"
     style="fill:#666666;stroke:#000000;stroke-width:1;stroke-miterlimit:4;stroke-dasharray:none;stroke-opacity:0.04705882"
     d="m 46.34523,59.228757 c 0,0.0629 -0.009,0.12172 -0.0269,0.17644 -0.0175,0.054 -0.0437,0.10121 -0.0791,0.14154 -0.0348,0.0397 -0.0785,0.0711 -0.13116,0.0944 -0.0527,0.0232 -0.11408,0.0349 -0.18415,0.0349 l -0.35961,0 0,0.56312 -0.16592,0 0,-1.4453 0.51511,0 c 0.0724,10e-6 0.13552,0.0107 0.18937,0.0318 0.0539,0.0205 0.0987,0.0499 0.13464,0.0882 0.0359,0.0376 0.0628,0.0834 0.0808,0.13745 0.0179,0.0533 0.0269,0.11248 0.0269,0.17744 m -0.16678,0.002 c 0,-0.0916 -0.0238,-0.16104 -0.0712,-0.20822 -0.0475,-0.0479 -0.11872,-0.0718 -0.21369,-0.0718 l -0.32922,0 0,0.57031 0.33617,0 c 0.0956,0 0.16562,-0.025 0.21021,-0.0749 0.0452,-0.0499 0.0677,-0.12172 0.0677,-0.2154"
     inkscape:connector-curvature="0" />
  <path
     id="path4204"
     style="fill:#666666;stroke:#000000;stroke-width:1;stroke-miterlimit:4;stroke-dasharray:none;stroke-opacity:0.04705882"
     d="m 47.41523,60.239757 0,-0.6698 -0.66192,0 0,0.6698 -0.16591,0 0,-1.4453 0.16591,0 0,0.61133 0.66192,0 0,-0.61133 0.16592,0 0,1.4453 -0.16592,0"
     inkscape:connector-curvature="0" />
  <path
     id="path4206"
     style="fill:#666666;stroke:#000000;stroke-width:1;stroke-miterlimit:4;stroke-dasharray:none;stroke-opacity:0.04705882"
     d="m 49.02623,59.509757 c 0,0.11283 -0.0139,0.2154 -0.0417,0.30772 -0.0272,0.0923 -0.0669,0.17128 -0.11901,0.23694 -0.0521,0.0656 -0.11583,0.11625 -0.1911,0.1518 -0.0753,0.0356 -0.16069,0.0533 -0.25624,0.0533 -0.10076,0 -0.18908,-0.0186 -0.26494,-0.0554 -0.0759,-0.0376 -0.13899,-0.0896 -0.18937,-0.15591 -0.0504,-0.067 -0.0883,-0.14633 -0.1138,-0.23797 -0.0255,-0.0916 -0.0382,-0.19181 -0.0382,-0.30054 0,-0.11283 0.0133,-0.21472 0.04,-0.30566 0.0266,-0.0909 0.0657,-0.16822 0.11727,-0.23182 0.0515,-0.0643 0.11494,-0.1135 0.19023,-0.14771 0.0759,-0.0349 0.16274,-0.0523 0.2606,-0.0523 0.0973,10e-6 0.18356,0.0174 0.25885,0.0523 0.0759,0.0349 0.13927,0.0844 0.19024,0.14872 0.0515,0.0643 0.0906,0.14189 0.11726,0.23284 0.0266,0.0909 0.04,0.19215 0.04,0.30362 m -0.16939,0 c 0,-0.0868 -0.01,-0.16584 -0.0287,-0.23694 -0.0185,-0.0711 -0.0463,-0.13198 -0.0834,-0.18258 -0.0365,-0.0506 -0.0819,-0.0896 -0.13639,-0.11694 -0.0544,-0.0273 -0.11726,-0.041 -0.1885,-0.041 -0.073,0 -0.13695,0.0138 -0.19196,0.041 -0.055,0.0274 -0.10106,0.0663 -0.13813,0.11694 -0.0365,0.0506 -0.064,0.11145 -0.0825,0.18258 -0.0179,0.0711 -0.0269,0.1501 -0.0269,0.23694 0,0.0868 0.009,0.16651 0.0278,0.239 0.0192,0.0718 0.0469,0.13402 0.0834,0.18668 0.0371,0.052 0.0828,0.0927 0.13724,0.12207 0.055,0.0287 0.11813,0.0431 0.18937,0.0431 0.0764,0 0.14217,-0.0146 0.19718,-0.0441 0.0556,-0.0294 0.10106,-0.0701 0.13638,-0.12207 0.0359,-0.0527 0.0623,-0.11522 0.0791,-0.18771 0.0175,-0.0725 0.0261,-0.15146 0.0261,-0.23694"
     inkscape:connector-curvature="0" />
  <path
     id="path4208"
     style="fill:#666666;stroke:#000000;stroke-width:1;stroke-miterlimit:4;stroke-dasharray:none;stroke-opacity:0.04705882"
     d="m 49.73523,58.953757 0,1.2852 -0.16505,0 0,-1.2852 -0.42042,0 0,-0.16001 1.0059,0 0,0.16001 -0.42042,0"
     inkscape:connector-curvature="0" />
  <path
     id="path4210"
     style="fill:#666666;stroke:#000000;stroke-width:1;stroke-miterlimit:4;stroke-dasharray:none;stroke-opacity:0.04705882"
     d="m 51.46423,59.509757 c 0,0.11283 -0.0139,0.2154 -0.0417,0.30772 -0.0272,0.0923 -0.0669,0.17128 -0.11901,0.23694 -0.0521,0.0656 -0.11583,0.11625 -0.1911,0.1518 -0.0753,0.0356 -0.16069,0.0533 -0.25624,0.0533 -0.10076,0 -0.18908,-0.0186 -0.26494,-0.0554 -0.0759,-0.0376 -0.13899,-0.0896 -0.18937,-0.15591 -0.0504,-0.067 -0.0883,-0.14633 -0.11379,-0.23797 -0.0255,-0.0916 -0.0382,-0.19181 -0.0382,-0.30054 -10e-6,-0.11283 0.0133,-0.21472 0.04,-0.30566 0.0266,-0.0909 0.0657,-0.16822 0.11727,-0.23182 0.0515,-0.0643 0.11495,-0.1135 0.19023,-0.14771 0.0759,-0.0349 0.16274,-0.0523 0.2606,-0.0523 0.0973,10e-6 0.18356,0.0174 0.25886,0.0523 0.0759,0.0349 0.13926,0.0844 0.19023,0.14872 0.0515,0.0643 0.0906,0.14189 0.11727,0.23284 0.0266,0.0909 0.04,0.19215 0.04,0.30362 m -0.16939,0 c 0,-0.0868 -0.01,-0.16584 -0.0287,-0.23694 -0.0185,-0.0711 -0.0463,-0.13198 -0.0834,-0.18258 -0.0365,-0.0506 -0.0819,-0.0896 -0.13638,-0.11694 -0.0545,-0.0273 -0.11727,-0.041 -0.18851,-0.041 -0.073,0 -0.13695,0.0138 -0.19196,0.041 -0.055,0.0274 -0.10105,0.0663 -0.13813,0.11694 -0.0365,0.0506 -0.064,0.11145 -0.0825,0.18258 -0.0179,0.0711 -0.0269,0.1501 -0.0269,0.23694 0,0.0868 0.009,0.16651 0.0278,0.239 0.0192,0.0718 0.0469,0.13402 0.0834,0.18668 0.037,0.052 0.0828,0.0927 0.13724,0.12207 0.055,0.0287 0.11813,0.0431 0.18937,0.0431 0.0764,0 0.14217,-0.0146 0.19718,-0.0441 0.0556,-0.0294 0.10106,-0.0701 0.13638,-0.12207 0.0359,-0.0527 0.0623,-0.11522 0.0791,-0.18771 0.0175,-0.0725 0.0261,-0.15146 0.0261,-0.23694"
     inkscape:connector-curvature="0" />
  <path
     id="path4212"
     style="fill:#666666;stroke:#000000;stroke-width:1;stroke-miterlimit:4;stroke-dasharray:none;stroke-opacity:0.04705882"
     d="m 57.12123,60.239757 0,-1.4453 0.92858,0 0,0.16001 -0.76267,0 0,0.46362 0.71055,0 0,0.15796 -0.71055,0 0,0.50363 0.79829,0 0,0.16001 -0.9642,0"
     inkscape:connector-curvature="0" />
  <path
     id="path4214"
     style="fill:#666666;stroke:#000000;stroke-width:1;stroke-miterlimit:4;stroke-dasharray:none;stroke-opacity:0.04705882"
     d="m 59.35123,60.239757 0,-0.96418 c 0,-0.0349 2.8e-4,-0.0704 8.7e-4,-0.10668 5.7e-4,-0.0362 10e-4,-0.0694 0.003,-0.0995 10e-4,-0.0349 0.003,-0.0687 0.004,-0.10154 -0.008,0.0349 -0.0164,0.0694 -0.0252,0.1036 -0.007,0.0294 -0.016,0.0609 -0.0252,0.0944 -0.009,0.0328 -0.0175,0.0626 -0.0261,0.0892 l -0.31619,0.98469 -0.1164,0 -0.32053,-0.98469 c -0.003,-0.0103 -0.007,-0.0222 -0.0114,-0.0359 -0.003,-0.0138 -0.007,-0.028 -0.0122,-0.0431 -0.004,-0.0158 -0.008,-0.0315 -0.0131,-0.0472 -0.004,-0.0164 -0.008,-0.0325 -0.0122,-0.0482 -0.01,-0.0362 -0.0194,-0.0738 -0.0287,-0.11283 5.8e-4,0.0383 10e-4,0.0762 0.003,0.11386 10e-4,0.0321 0.002,0.066 0.003,0.10154 5.8e-4,0.0349 8.7e-4,0.0656 8.7e-4,0.0923 l 0,0.96418 -0.14767,0 0,-1.4453 0.21804,0 0.32574,1.0021 c 0.004,0.0138 0.009,0.0314 0.0147,0.0533 0.006,0.0212 0.0114,0.0431 0.0164,0.0656 0.005,0.0226 0.01,0.0441 0.0139,0.0646 0.005,0.0198 0.008,0.0352 0.01,0.0461 0.002,-0.0109 0.005,-0.0267 0.01,-0.0472 0.005,-0.0205 0.01,-0.042 0.0156,-0.0646 0.006,-0.0226 0.0124,-0.0444 0.0183,-0.0656 0.006,-0.0212 0.011,-0.0386 0.0156,-0.0523 l 0.31966,-1.0021 0.21282,0 0,1.4453 -0.14942,0"
     inkscape:connector-curvature="0" />
  <path
     id="path4216"
     style="fill:#666666;stroke:#000000;stroke-width:1;stroke-miterlimit:4;stroke-dasharray:none;stroke-opacity:0.04705882"
     d="m 60.66223,60.239757 -0.13986,-0.4226 -0.55767,0 -0.14072,0.4226 -0.17198,0 0.49947,-1.4453 0.1885,0 0.49166,1.4453 -0.16939,0 m -0.3466,-1.0524 c -0.009,-0.0274 -0.0183,-0.055 -0.0269,-0.0831 -0.008,-0.028 -0.0154,-0.0533 -0.0217,-0.0759 -0.006,-0.0232 -0.0118,-0.0424 -0.0164,-0.0574 -0.004,-0.0158 -0.006,-0.0253 -0.007,-0.0287 -10e-4,0.003 -0.004,0.013 -0.008,0.0287 -0.004,0.0158 -0.01,0.0352 -0.0164,0.0585 -0.006,0.0233 -0.0139,0.0489 -0.0226,0.0769 -0.008,0.028 -0.0164,0.0557 -0.0252,0.0831 l -0.15636,0.47491 0.45778,0 -0.15722,-0.47697"
     inkscape:connector-curvature="0" />
  <path
     id="path4218"
     style="fill:#666666;stroke:#000000;stroke-width:1;stroke-miterlimit:4;stroke-dasharray:none;stroke-opacity:0.04705882"
     d="m 61.00123,60.239757 0,-1.4453 0.16592,0 0,1.4453 -0.16592,0"
     inkscape:connector-curvature="0" />
  <path
     id="path4220"
     style="fill:#666666;stroke:#000000;stroke-width:1;stroke-miterlimit:4;stroke-dasharray:none;stroke-opacity:0.04705882"
     d="m 61.47523,60.239757 0,-1.4453 0.16592,0 0,1.2852 0.61847,0 0,0.16001 -0.78439,0"
     inkscape:connector-curvature="0" />
  <rect
     id="rect3485"
     style="fill:#8dd35f;stroke:#000000;stroke-width:1;stroke-opacity:0.04705882;stroke-miterlimit:4;stroke-dasharray:none"
     rx="1.186"
     ry="1.4005001"
     height="2.8009"
     width="5.9299998"
     y="80.773575"
     x="68.360901" />
</svg>
