<?xml version="1.0" encoding="UTF-8" standalone="no"?>
<svg
   xmlns:dc="http://purl.org/dc/elements/1.1/"
   xmlns:cc="http://creativecommons.org/ns#"
   xmlns:rdf="http://www.w3.org/1999/02/22-rdf-syntax-ns#"
   xmlns:svg="http://www.w3.org/2000/svg"
   xmlns="http://www.w3.org/2000/svg"
   xmlns:xlink="http://www.w3.org/1999/xlink"
   xmlns:sodipodi="http://sodipodi.sourceforge.net/DTD/sodipodi-0.dtd"
   xmlns:inkscape="http://www.inkscape.org/namespaces/inkscape"
   version="1.1"
   width="96"
   height="96"
   id="svg4296"
   inkscape:version="0.91 r13725"
   sodipodi:docname="keyboard.svg">
  <sodipodi:namedview
     pagecolor="#ffffff"
     bordercolor="#666666"
     borderopacity="1"
     objecttolerance="10"
     gridtolerance="10"
     guidetolerance="10"
     inkscape:pageopacity="0"
     inkscape:pageshadow="2"
     inkscape:window-width="1366"
     inkscape:window-height="747"
     id="namedview71"
     showgrid="false"
     inkscape:zoom="2.8763041"
     inkscape:cx="18.121905"
     inkscape:cy="75.06605"
     inkscape:current-layer="svg4296"
     inkscape:window-x="0"
     inkscape:window-y="21"
     inkscape:window-maximized="1" />
  <defs
     id="defs4298">
    <linearGradient
       inkscape:collect="always"
       id="linearGradient4163">
      <stop
         style="stop-color:#ececec;stop-opacity:1;"
         offset="0"
         id="stop4165" />
      <stop
         style="stop-color:#f1f1f1;stop-opacity:1"
         offset="1"
         id="stop4167" />
    </linearGradient>
    <linearGradient
       inkscape:collect="always"
       xlink:href="#linearGradient4163"
       id="linearGradient4169"
       x1="58.505127"
       y1="88.268074"
       x2="60.195148"
       y2="14.910045"
       gradientUnits="userSpaceOnUse" />
  </defs>
  <metadata
     id="metadata4301">
    <rdf:RDF>
      <cc:Work
         rdf:about="">
        <dc:format>image/svg+xml</dc:format>
        <dc:type
           rdf:resource="http://purl.org/dc/dcmitype/StillImage" />
        <dc:title />
      </cc:Work>
    </rdf:RDF>
  </metadata>
  <rect
     width="84.130432"
     height="67.304344"
     rx="2.8043478"
     ry="2.8043478"
     x="5.8118634"
     y="14.286367"
     id="rect5505-21-3-8-5-2"
     style="color:#000000;display:inline;overflow:visible;visibility:visible;opacity:1;fill:url(#linearGradient4169);fill-opacity:1;fill-rule:nonzero;stroke:#000000;stroke-width:0.99999994;stroke-opacity:0.04705882;marker:none;enable-background:accumulate" />
  <rect
     style="opacity:1;fill:#1a1a1a;fill-opacity:1;stroke:#1a1a1a;stroke-width:1.13055277;stroke-linecap:butt;stroke-linejoin:miter;stroke-miterlimit:4;stroke-dasharray:none;stroke-dashoffset:0;stroke-opacity:0.04705882"
     id="rect4918"
     width="14.869447"
     height="14.869447"
     x="56.42379"
     y="56.864986"
     rx="1"
     ry="1" />
  <path
     d="m 23.935734,56.799709 29.691891,0 c 0.5967,0 1.076914,0.480212 1.076914,1.077754 l 0,12.930543 c 0,0.596704 -0.480214,1.076917 -1.077757,1.076917 l -29.691048,0 c -0.597543,0 -1.077758,-0.480213 -1.077758,-1.077755 l 0,-12.929705 c 0,-0.597542 0.480215,-1.077754 1.077758,-1.077754 z"
     style="fill:#1a1a1a;stroke:#000000;stroke-opacity:0.04705882"
     id="path226"
     inkscape:connector-curvature="0" />
  <g
     id="g4942">
    <rect
       ry="1"
       rx="1"
       y="23.842287"
       x="20.832333"
       height="14.869447"
       width="14.869447"
       id="rect4932"
       style="opacity:1;fill:#1a1a1a;fill-opacity:1;stroke:#1a1a1a;stroke-width:1.13055277;stroke-linecap:butt;stroke-linejoin:miter;stroke-miterlimit:4;stroke-dasharray:none;stroke-dashoffset:0;stroke-opacity:0.04705882" />
    <path
       inkscape:connector-curvature="0"
       id="path244"
       style="fill:#ffffff"
       d="m 30.247661,34.15992 -0.65883,-1.685941 -2.627176,0 -0.662926,1.685941 -0.810246,0 2.352963,-5.76582 0.888011,0 2.316171,5.76582 -0.797967,0 m -1.632725,-4.19855 c -0.04365,-0.109117 -0.08591,-0.219608 -0.126856,-0.331464 -0.03818,-0.111849 -0.07229,-0.212786 -0.102306,-0.302819 -0.03003,-0.09275 -0.05598,-0.169139 -0.07776,-0.229161 -0.01909,-0.06274 -0.03003,-0.100938 -0.03271,-0.114581 -0.0056,0.01364 -0.0177,0.05184 -0.03679,0.114581 -0.01909,0.06275 -0.04504,0.140501 -0.07776,0.233251 -0.03003,0.09276 -0.06552,0.195059 -0.106393,0.306908 -0.03818,0.111856 -0.07776,0.222339 -0.118664,0.331464 l -0.736586,1.894619 2.156516,0 -0.740682,-1.902832" />
  </g>
  <g
     id="g4920">
    <path
       d="m 30.540541,62.124789 c -0.327375,5e-6 -0.617916,0.05457 -0.871591,0.163683 -0.250984,0.109125 -0.462412,0.264628 -0.634283,0.466502 -0.169138,0.201882 -0.297363,0.444679 -0.384656,0.728398 -0.0873,0.283728 -0.130948,0.598816 -0.130948,0.945256 -10e-7,0.346474 0.04638,0.664294 0.139136,0.95347 0.09548,0.286451 0.230519,0.533346 0.405122,0.740675 0.177327,0.207338 0.392844,0.368297 0.646552,0.48287 0.256441,0.11458 0.54425,0.17187 0.863461,0.17187 0.223697,10e-7 0.426945,-0.02864 0.609728,-0.08593 0.185506,-0.06001 0.351921,-0.143226 0.499237,-0.249618 0.150039,-0.106393 0.283719,-0.231885 0.401032,-0.376477 0.117304,-0.147316 0.220973,-0.309633 0.310998,-0.486968 l 0.638373,0.319187 c -0.103669,0.215517 -0.231893,0.416033 -0.384656,0.601539 -0.15278,0.185515 -0.332831,0.346466 -0.54016,0.48287 -0.204614,0.136404 -0.437865,0.244162 -0.699753,0.323276 -0.259172,0.07639 -0.549713,0.114581 -0.87159,0.114581 -0.466502,0 -0.875697,-0.07366 -1.227601,-0.220974 -0.349198,-0.150047 -0.642463,-0.357377 -0.879803,-0.622005 -0.234617,-0.267352 -0.410578,-0.583806 -0.527882,-0.949363 -0.117305,-0.365565 -0.175961,-0.765222 -0.175961,-1.199023 0,-0.450126 0.06138,-0.856589 0.184149,-1.219472 0.125492,-0.362833 0.306908,-0.671108 0.544249,-0.924807 0.240073,-0.256432 0.534704,-0.452858 0.88391,-0.589262 0.349189,-0.139128 0.747489,-0.208696 1.194916,-0.208696 0.613818,6e-6 1.126698,0.120045 1.538608,0.360109 0.411936,0.240073 0.714755,0.596093 0.908465,1.068034 l -0.740675,0.245528 c -0.05457,-0.136404 -0.128224,-0.265986 -0.220973,-0.388754 -0.09276,-0.125484 -0.208704,-0.235975 -0.347832,-0.331464 -0.139136,-0.09548 -0.302819,-0.171863 -0.491057,-0.229161 -0.185515,-0.05728 -0.3983,-0.08593 -0.638373,-0.08594"
       id="path248"
       inkscape:connector-curvature="0"
       style="fill:#ffffff" />
    <path
       d="m 35.622582,67.304884 c -0.111857,0.03001 -0.226429,0.0532 -0.343742,0.06957 -0.114581,0.0191 -0.248261,0.02864 -0.401032,0.02864 -0.589271,0 -0.88391,-0.334188 -0.88391,-1.00258 l 0,-2.954523 -0.511514,0 0,-0.53607 0.540159,0 0.216884,-0.99026 0.491057,0 0,0.99026 0.818423,0 0,0.53607 -0.818423,0 0,2.794955 c -10e-7,0.212794 0.0341,0.362833 0.102303,0.450134 0.07093,0.08457 0.192328,0.126859 0.364199,0.126859 0.07092,0 0.139127,-0.0054 0.204606,-0.01637 0.0682,-0.01091 0.141859,-0.02456 0.220973,-0.04092 l 0,0.54425"
       id="path250"
       inkscape:connector-curvature="0"
       style="fill:#ffffff" />
    <path
       d="m 36.261189,67.337569 0,-3.396436 c -1e-6,-0.09275 -0.0013,-0.186873 -0.0041,-0.282354 0,-0.0982 -0.0013,-0.192328 -0.0041,-0.282353 -0.0028,-0.09003 -0.0054,-0.174594 -0.0082,-0.253708 -0.0028,-0.07911 -0.0054,-0.150039 -0.0082,-0.212794 l 0.695663,0 c 0.0028,0.06276 0.0054,0.135046 0.0082,0.216884 0.0054,0.07912 0.0095,0.160959 0.01228,0.245528 0.0054,0.08458 0.0082,0.166415 0.0082,0.245529 0.0028,0.07639 0.0041,0.141868 0.0041,0.196426 l 0.01637,0 c 0.05183,-0.169139 0.106392,-0.315088 0.163683,-0.437856 0.06001,-0.125484 0.129582,-0.227787 0.208695,-0.306909 0.07911,-0.08184 0.173229,-0.141851 0.282353,-0.180051 0.109125,-0.04091 0.241431,-0.06138 0.396934,-0.06138 0.06001,5e-6 0.117305,0.0054 0.171871,0.01637 0.05456,0.0082 0.09685,0.01638 0.126859,0.02455 l 0,0.675198 c -0.04911,-0.01364 -0.106402,-0.02318 -0.171871,-0.02865 -0.06548,-0.0082 -0.139136,-0.01227 -0.220974,-0.01228 -0.169138,4e-6 -0.31373,0.0382 -0.433767,0.11458 -0.117312,0.07639 -0.214159,0.182783 -0.290541,0.319187 -0.07366,0.13368 -0.128224,0.294639 -0.163683,0.482869 -0.03547,0.185515 -0.0532,0.388754 -0.0532,0.609728 l 0,2.307954 -0.736586,0"
       id="path252"
       inkscape:connector-curvature="0"
       style="fill:#ffffff" />
    <path
       d="m 39.043573,67.337569 0,-6.072721 0.736586,0 0,6.072721 -0.736586,0"
       id="path254"
       inkscape:connector-curvature="0"
       style="fill:#ffffff" />
  </g>
  <g
     id="g4946"
     transform="translate(-0.24584198,0)">
    <rect
       style="opacity:1;fill:#1a1a1a;fill-opacity:1;stroke:#1a1a1a;stroke-width:1.13055277;stroke-linecap:butt;stroke-linejoin:miter;stroke-miterlimit:4;stroke-dasharray:none;stroke-dashoffset:0;stroke-opacity:0.04705882"
       id="rect4936"
       width="14.869447"
       height="14.869447"
       x="37.918121"
       y="23.842287"
       rx="1"
       ry="1" />
    <path
       inkscape:connector-curvature="0"
       id="path256"
       style="fill:#ffffff"
       d="m 47.64852,34.159875 -4.59135,0 0,-0.585173 3.511081,-4.542241 -3.212309,0 0,-0.638373 4.100329,0 0,0.568805 -3.51109,4.558668 3.703339,0 0,0.638372" />
  </g>
  <g
     id="g4950">
    <rect
       ry="1"
       rx="1"
       y="23.842287"
       x="54.51223"
       height="14.869447"
       width="14.869447"
       id="rect4940"
       style="opacity:1;fill:#1a1a1a;fill-opacity:1;stroke:#1a1a1a;stroke-width:1.13055277;stroke-linecap:butt;stroke-linejoin:miter;stroke-miterlimit:4;stroke-dasharray:none;stroke-dashoffset:0;stroke-opacity:0.04705882" />
    <path
       inkscape:connector-curvature="0"
       id="path258"
       style="fill:#ffffff"
       d="m 59.675833,34.15992 0,-5.76582 4.374459,0 0,0.638373 -3.592878,0 0,1.849614 3.34733,0 0,0.630185 -3.34733,0 0,2.009267 3.76066,0 0,0.638373 -4.542241,0" />
  </g>
  <g
     id="g4962">
    <rect
       style="opacity:1;fill:#1a1a1a;fill-opacity:1;stroke:#1a1a1a;stroke-width:1.13055277;stroke-linecap:butt;stroke-linejoin:miter;stroke-miterlimit:4;stroke-dasharray:none;stroke-dashoffset:0;stroke-opacity:0.04705882"
       id="rect4930"
       width="14.869447"
       height="14.869447"
       x="26.563971"
       y="40.603638"
       rx="1"
       ry="1" />
    <path
       inkscape:connector-curvature="0"
       id="path260"
       style="fill:#ffffff"
       d="m 36.859067,47.262549 c 0,0.406487 -0.0532,0.778866 -0.15959,1.117143 -0.103668,0.335554 -0.255084,0.630185 -0.454228,0.88391 -0.196419,0.253717 -0.439232,0.461046 -0.728393,0.622006 -0.286455,0.158227 -0.612464,0.261896 -0.978028,0.310998 0.05727,0.174595 0.121397,0.323276 0.192332,0.446044 0.07368,0.122761 0.156856,0.22234 0.249616,0.298721 0.09275,0.07912 0.195047,0.136405 0.306908,0.171871 0.114577,0.03819 0.241433,0.05729 0.380569,0.05729 0.07636,-1e-6 0.158227,-0.0055 0.245528,-0.01637 0.0873,-0.01091 0.162315,-0.02319 0.225066,-0.03683 l 0,0.548348 c -0.103668,0.02455 -0.218245,0.04501 -0.343738,0.06138 -0.122769,0.0191 -0.250988,0.02865 -0.384656,0.02865 -0.23462,-2e-6 -0.439223,-0.03547 -0.613817,-0.106393 -0.174316,-0.06789 -0.328521,-0.167613 -0.462615,-0.298352 -0.130739,-0.128224 -0.243879,-0.286618 -0.33942,-0.474346 -0.09548,-0.188238 -0.180052,-0.401032 -0.253702,-0.638373 -0.43104,-0.02182 -0.810246,-0.110491 -1.13759,-0.265986 -0.324647,-0.158226 -0.596088,-0.368288 -0.814342,-0.630184 -0.215511,-0.26462 -0.377835,-0.572895 -0.486962,-0.924807 -0.109127,-0.354654 -0.163685,-0.73931 -0.163685,-1.15402 0,-0.450134 0.06274,-0.856589 0.188236,-1.219471 0.125493,-0.362833 0.309633,-0.671108 0.552437,-0.924808 0.242804,-0.256432 0.541529,-0.452858 0.896148,-0.589261 0.35738,-0.139129 0.766586,-0.208697 1.227598,-0.208697 0.458314,7e-6 0.864804,0.06956 1.219479,0.208697 0.357371,0.139135 0.656096,0.336919 0.896138,0.593359 0.242804,0.256449 0.426944,0.566082 0.552438,0.928914 0.125484,0.362841 0.188236,0.766597 0.188245,1.211259 m -0.797966,0 c -1e-5,-0.346465 -0.04504,-0.661553 -0.13504,-0.945256 -0.0873,-0.28372 -0.218254,-0.526516 -0.392848,-0.728398 -0.171869,-0.201873 -0.386026,-0.357377 -0.642463,-0.466502 -0.256437,-0.109117 -0.552438,-0.163683 -0.888011,-0.163683 -0.343739,6e-6 -0.645198,0.05457 -0.904359,0.163683 -0.259171,0.109125 -0.476054,0.264629 -0.650648,0.466502 -0.171878,0.201882 -0.301459,0.444678 -0.38876,0.728398 -0.08452,0.283728 -0.126856,0.598816 -0.126856,0.945256 0,0.346466 0.04365,0.664295 0.130952,0.95347 0.08999,0.286451 0.220969,0.534703 0.392839,0.744765 0.174593,0.207338 0.390113,0.369655 0.64655,0.486967 0.259171,0.114581 0.556534,0.171871 0.892126,0.171871 0.360105,0 0.669739,-0.05865 0.928919,-0.175961 0.261895,-0.117303 0.476044,-0.279629 0.642454,-0.486967 0.169145,-0.210062 0.293267,-0.45968 0.372394,-0.748863 0.08183,-0.289175 0.12276,-0.604264 0.12276,-0.945257" />
  </g>
  <g
     id="g4958"
     transform="translate(-0.43021393,0)">
    <rect
       ry="1"
       rx="1"
       y="40.603638"
       x="43.403919"
       height="14.869447"
       width="14.869447"
       id="rect4928"
       style="opacity:1;fill:#1a1a1a;fill-opacity:1;stroke:#1a1a1a;stroke-width:1.13055277;stroke-linecap:butt;stroke-linejoin:miter;stroke-miterlimit:4;stroke-dasharray:none;stroke-dashoffset:0;stroke-opacity:0.04705882" />
    <path
       inkscape:connector-curvature="0"
       id="path262"
       style="fill:#ffffff"
       d="m 53.25087,49.331556 c -9e-6,0.242805 -0.04773,0.466502 -0.143232,0.671107 -0.09275,0.204606 -0.237346,0.381932 -0.433765,0.531972 -0.196428,0.147315 -0.444673,0.263262 -0.74476,0.347832 -0.297363,0.08184 -0.650657,0.122759 -1.059825,0.122759 -0.717485,0 -1.276707,-0.125492 -1.677812,-0.376476 -0.400596,-0.25142 -0.656208,-0.614303 -0.765149,-1.08865 l 0.75704,-0.151405 c 0.03818,0.150047 0.09685,0.286452 0.175956,0.409212 0.07915,0.122769 0.185511,0.229161 0.319188,0.319186 0.136402,0.0873 0.304175,0.155503 0.503337,0.204605 0.199154,0.0491 0.437861,0.07366 0.716124,0.07366 0.231877,0 0.444672,-0.0191 0.638367,-0.05729 0.193695,-0.04093 0.360105,-0.102303 0.499241,-0.184149 0.139126,-0.08184 0.246882,-0.186871 0.323275,-0.315095 0.07915,-0.130949 0.118673,-0.286452 0.118673,-0.466502 -9e-6,-0.188239 -0.04365,-0.34101 -0.130952,-0.458323 -0.08461,-0.117304 -0.204612,-0.214152 -0.360106,-0.290541 -0.155502,-0.07638 -0.341013,-0.140494 -0.556533,-0.192328 -0.215511,-0.05183 -0.454228,-0.107759 -0.716114,-0.167781 -0.160961,-0.03546 -0.323276,-0.07366 -0.486971,-0.114581 -0.160961,-0.04364 -0.316463,-0.09412 -0.466498,-0.151406 -0.147319,-0.06002 -0.286455,-0.129581 -0.417407,-0.208695 -0.130943,-0.07912 -0.244157,-0.173229 -0.339642,-0.282353 -0.09548,-0.111849 -0.170498,-0.240064 -0.225066,-0.384656 -0.05459,-0.147316 -0.08183,-0.316454 -0.08183,-0.507425 0,-0.272807 0.05459,-0.506058 0.163686,-0.699753 0.111852,-0.196417 0.265983,-0.357377 0.462411,-0.48287 0.19642,-0.125483 0.428306,-0.216874 0.69567,-0.274173 0.267345,-0.05728 0.556524,-0.08593 0.867566,-0.08594 0.357371,5e-6 0.662918,0.02866 0.916676,0.08594 0.253703,0.05457 0.467861,0.13777 0.642464,0.249619 0.174594,0.111856 0.31372,0.250992 0.417398,0.417399 0.106393,0.163691 0.190961,0.354654 0.253712,0.572895 l -0.76932,0.135037 C 52.308492,46.39326 52.252552,46.269134 52.17889,46.16 c -0.0709,-0.109116 -0.165048,-0.200507 -0.282349,-0.274174 -0.11731,-0.07365 -0.260543,-0.129582 -0.429678,-0.16778 -0.16642,-0.03819 -0.362839,-0.05728 -0.589258,-0.05729 -0.267354,6e-6 -0.492429,0.02456 -0.675197,0.07366 -0.180062,0.04638 -0.326009,0.110491 -0.437861,0.192328 -0.109127,0.08184 -0.188236,0.178693 -0.237345,0.290541 -0.04634,0.109125 -0.0696,0.227804 -0.0696,0.356012 0,0.17187 0.04226,0.31373 0.126856,0.425578 0.0873,0.109125 0.204612,0.200516 0.351922,0.274175 0.147319,0.07366 0.317826,0.135046 0.511512,0.184148 0.193694,0.04911 0.399659,0.09821 0.617913,0.147315 0.177319,0.04093 0.353275,0.08321 0.527878,0.126859 0.177319,0.04093 0.346463,0.09139 0.507424,0.151405 0.160952,0.05729 0.311005,0.125492 0.450141,0.204605 0.141851,0.07912 0.26462,0.175961 0.368289,0.290541 0.103659,0.114581 0.184139,0.249619 0.241432,0.405122 0.06005,0.155504 0.08999,0.338287 0.08999,0.548348" />
  </g>
  <g
     id="g4954">
    <rect
       style="opacity:1;fill:#1a1a1a;fill-opacity:1;stroke:#1a1a1a;stroke-width:1.13055277;stroke-linecap:butt;stroke-linejoin:miter;stroke-miterlimit:4;stroke-dasharray:none;stroke-dashoffset:0;stroke-opacity:0.04705882"
       id="rect4926"
       width="14.869447"
       height="14.869447"
       x="59.383434"
       y="40.603638"
       rx="1"
       ry="1" />
    <path
       inkscape:connector-curvature="0"
       id="path264"
       style="fill:#ffffff"
       d="m 69.300053,47.979026 c -9e-6,0.480145 -0.07229,0.904359 -0.216882,1.272689 -0.144594,0.365566 -0.342385,0.672474 -0.593363,0.920701 -0.250988,0.245529 -0.548351,0.432401 -0.892126,0.560617 -0.341014,0.125492 -0.709303,0.188239 -1.104903,0.188239 l -2.156516,0 0,-5.765821 1.906937,0 c 0.444682,5e-6 0.853906,0.05593 1.227607,0.167781 0.376463,0.109133 0.699747,0.27963 0.969808,0.511515 0.270079,0.229161 0.48014,0.521068 0.630184,0.875697 0.152759,0.354653 0.229152,0.777508 0.229162,1.268582 m -0.785687,0 c -9e-6,-0.390113 -0.05588,-0.722942 -0.167782,-0.998474 -0.111861,-0.278263 -0.268716,-0.506058 -0.470594,-0.683385 -0.201878,-0.177319 -0.44332,-0.3069 -0.724307,-0.388754 -0.280996,-0.08456 -0.589267,-0.12685 -0.924804,-0.126858 l -1.108934,0 0,4.513579 1.284928,0 c 0.302812,1e-6 0.582436,-0.0491 0.838901,-0.147316 0.259162,-0.09821 0.482874,-0.244162 0.67111,-0.437856 0.188227,-0.193695 0.335546,-0.435124 0.441948,-0.724308 0.106393,-0.289175 0.159581,-0.624729 0.15959,-1.006687" />
  </g>
  <path
     d="m 63.923281,60.151978 -3.352269,3.35227 1.676134,0 0,3.35227 0,0.838068 3.35227,0 0,-0.838068 0,-3.35227 1.676135,0 -3.35227,-3.35227 z m 0,0.838068 1.676135,1.676135 -0.838067,0 0,0.838067 0,3.35227 -1.676135,0 0,-3.35227 0,-0.838067 -0.838068,0 1.676135,-1.676135 z"
     style="color:#000000;fill:#ffffff"
     id="path266"
     inkscape:connector-curvature="0" />
</svg>
