<?xml version="1.0" encoding="UTF-8" standalone="no"?>
<svg
   xmlns:dc="http://purl.org/dc/elements/1.1/"
   xmlns:cc="http://creativecommons.org/ns#"
   xmlns:rdf="http://www.w3.org/1999/02/22-rdf-syntax-ns#"
   xmlns:svg="http://www.w3.org/2000/svg"
   xmlns="http://www.w3.org/2000/svg"
   xmlns:xlink="http://www.w3.org/1999/xlink"
   xmlns:sodipodi="http://sodipodi.sourceforge.net/DTD/sodipodi-0.dtd"
   xmlns:inkscape="http://www.inkscape.org/namespaces/inkscape"
   id="svg2"
   height="76pt"
   width="76pt"
   version="1.1"
   viewBox="0 0 76 76"
   inkscape:version="0.91 r13725"
   sodipodi:docname="media-dvd.svg">
  <sodipodi:namedview
     pagecolor="#ffffff"
     bordercolor="#666666"
     borderopacity="1"
     objecttolerance="10"
     gridtolerance="10"
     guidetolerance="10"
     inkscape:pageopacity="0"
     inkscape:pageshadow="2"
     inkscape:window-width="1366"
     inkscape:window-height="747"
     id="namedview47"
     showgrid="false"
     inkscape:zoom="2.4842105"
     inkscape:cx="-3.0190678"
     inkscape:cy="47.5"
     inkscape:window-x="0"
     inkscape:window-y="21"
     inkscape:window-maximized="1"
     inkscape:current-layer="svg2" />
  <metadata
     id="metadata122">
    <rdf:RDF>
      <cc:Work
         rdf:about="">
        <dc:format>image/svg+xml</dc:format>
        <dc:type
           rdf:resource="http://purl.org/dc/dcmitype/StillImage" />
      </cc:Work>
    </rdf:RDF>
  </metadata>
  <defs
     id="defs4">
    <linearGradient
       inkscape:collect="always"
       xlink:href="#linearGradient4152"
       id="linearGradient4217"
       x1="46.180408"
       y1="71.70623"
       x2="47.57811"
       y2="55.310936"
       gradientUnits="userSpaceOnUse" />
    <linearGradient
       id="linearGradient4152"
       inkscape:collect="always">
      <stop
         id="stop4154"
         offset="0"
         style="stop-color:#4aaee8;stop-opacity:1;" />
      <stop
         id="stop4156"
         offset="1"
         style="stop-color:#67e4ec;stop-opacity:1" />
    </linearGradient>
  </defs>
  <path
     id="path3157-7-3"
     style="fill:url(#linearGradient4217);fill-opacity:1;stroke:#000000;stroke-width:1;stroke-opacity:0.04705882"
     d="m 13.6734,3.9547 c -5.3136,0 -9.5752,4.3158 -9.5752,9.6504 l 1.6e-4,48.825 c 0,5.3344 4.2614,9.6248 9.5752,9.6248 l 48.65,0 c 5.3136,0 9.5752,-4.2904 9.5752,-9.6248 l 0,-48.825 c 0,-5.3344 -4.2616,-9.6504 -9.5752,-9.6504 l -48.65,1.6e-4 z"
     inkscape:connector-curvature="0" />
  <path
     id="path3161-6"
     style="fill:#808080;fill-opacity:1;stroke:#000000;stroke-width:1;stroke-opacity:0.04705882"
     d="m 4.0885,58.3727 0,4.053 c 0,5.3344 4.2747,9.6256 9.588,9.6256 l 48.647,0 c 5.3134,0 9.588,-4.2916 9.588,-9.6256 l 0,-4.053 c 0,5.3345 -4.2747,9.6256 -9.588,9.6256 l -48.647,0 c -5.3134,0 -9.588,-4.2914 -9.588,-9.6256 z"
     inkscape:connector-curvature="0" />
  <path
     id="path4427-7"
     style="fill:#ececec;fill-opacity:1;stroke:#000000;stroke-width:1;stroke-opacity:0.04705882"
     d="m 13.6684,3.9453 c -5.3135998,0 -9.5765998,3.9472 -9.5765998,8.8266 l 0.0016,41.042 c 0.04956,4.8393 4.3004,8.7195 9.5827998,8.7195 l 48.647,0 c 5.1954,0 9.3864,-3.7554 9.5703,-8.4836 l 0,-41.278 c 0,-4.8793 -4.263,-8.8266 -9.5766,-8.8266 l -48.648,0 z"
     inkscape:connector-curvature="0" />
  <path
     inkscape:connector-curvature="0"
     d="m 37.99265,17.4053 c -10.488,0 -19,7.0938 -19,15.836 0,8.7383 8.5117,15.832 19,15.832 10.4883,0 19,-7.0938 19,-15.832 0,-8.7422 -8.5117,-15.836 -19,-15.836 z m 4.5273,1.793 c 3.1016,0.69531 5.5742,1.8633 7.8438,3.7539 l -6.2109,5.1523 c -1.0586,-0.88281 -2.3906,-1.5391 -3.8828,-1.875 z m -4.5273,8.1055 c 3.9336,0 7.125,2.6562 7.125,5.9375 0,3.2773 -3.1914,5.9375 -7.125,5.9375 -3.9336,0 -7.125,-2.6602 -7.125,-5.9375 0,-3.2812 3.1914,-5.9375 7.125,-5.9375 z m 0,1.9766 c -2.6211,0 -4.75,1.7734 -4.75,3.9609 0,2.1836 2.1289,3.957 4.75,3.957 2.6211,0 4.75,-1.7734 4.75,-3.957 0,-2.1875 -2.1289,-3.9609 -4.75,-3.9609 z m 0,1.3203 c 1.75,0 3.168,1.1836 3.168,2.6406 0,1.4531 -1.418,2.6367 -3.168,2.6367 -1.7461,0 -3.168,-1.1836 -3.168,-2.6406 0,-1.457 1.4219,-2.6367 3.168,-2.6367 z m -6.1602,7.7734 0.02734,0 c 1.0664,0.88672 2.4023,1.543 3.9062,1.875 l -2.25,7.0312 c -3.1016,-0.69531 -5.5742,-1.8633 -7.8438,-3.7539 z"
     style="fill:#808080;stroke:#000000;stroke-width:0.80000001;stroke-miterlimit:4;stroke-dasharray:none;stroke-opacity:0.04705882"
     id="path88" />
  <path
     id="path98-3"
     d="m 17.31665,63.589712 41.352,0 c 0.76172,0 1.3789,0.70703 1.3789,1.582 0,0.875 -0.61719,1.582 -1.3789,1.582 l -41.352,0 c -0.76172,0 -1.3789,-0.70703 -1.3789,-1.582 0,-0.875 0.61719,-1.582 1.3789,-1.582 z"
     style="fill:#1a1a1a;stroke:#000000;stroke-width:0.80000001;stroke-miterlimit:4;stroke-dasharray:none;stroke-opacity:0.04705882"
     inkscape:connector-curvature="0" />
  <path
     id="path104-6"
     d="m 53.71555,68.972713 6.332,0 0,1.582 -6.332,0 z"
     style="fill:#f0f0f0;stroke:#000000;stroke-width:0.80000001;stroke-miterlimit:4;stroke-dasharray:none;stroke-opacity:0.04705882"
     inkscape:connector-curvature="0" />
  <path
     inkscape:connector-curvature="0"
     d="m 33.25647,50.458645 -6.2266,0.01172 -4.683599,0 -0.47656,1.9844 3.5469,0.01563 0.82031,0 c 2.277299,0 3.6719,0.91797 3.2812,2.5312 -0.41797,1.7656 -2.4141,2.5352 -4.519501,2.5352 l -0.785159,0 1.0156,-4.3398 -3.5273,0 -1.5078,6.3398 5.0195,0 c 3.7656,0 7.3594,-1.9805 7.9805,-4.5352 0.12109,-0.46484 0.11328,-1.6328 -0.183591,-2.3281 0,-0.03125 -0.01953,-0.04297 -0.03516,-0.10547 -0.01563,-0.01563 -0.02734,-0.125 0.03516,-0.14062 0.03125,-0.01563 0.08984,0.04687 0.10547,0.0625 0.03125,0.07813 0.05078,0.13281 0.05078,0.13281 3.9023,13.234 3.6172,8.5352 11.32,-0.15234 l 4.2617,0 c 2.2773,0 3.668001,0.91797 3.2969,2.5312 -0.43359,1.7656 -2.4297,2.5352 -4.5352,2.5352 l -0.79297,0 1.0234,-4.3398 -3.5352,0 -1.5,6.3398 5.0195,0 c 3.7656,0 7.375,-1.9805 7.9766,-4.5352 0.62109,-2.543 -2.043,-4.5312 -5.8242,-4.5312 l -7.4805,0 c 0,0 -1.9844,2.3438 -2.3555,2.793 -1.9648,2.3672 -2.3281,3.0039 -2.3906,3.1758 0.01563,-0.17188 -0.05859,-0.80469 -0.89844,-3.207 -0.23047,-0.64844 -0.9375,-2.7617 -0.9375,-2.7617 l -2.5586,0 z"
     style="fill:#808080;fill-rule:evenodd;fill-opacity:1;stroke:#000000;stroke-opacity:0.04705882"
     id="path116" />
</svg>
