<?xml version="1.0" encoding="UTF-8" standalone="no"?>
<svg
   xmlns:dc="http://purl.org/dc/elements/1.1/"
   xmlns:cc="http://creativecommons.org/ns#"
   xmlns:rdf="http://www.w3.org/1999/02/22-rdf-syntax-ns#"
   xmlns:svg="http://www.w3.org/2000/svg"
   xmlns="http://www.w3.org/2000/svg"
   xmlns:xlink="http://www.w3.org/1999/xlink"
   xmlns:sodipodi="http://sodipodi.sourceforge.net/DTD/sodipodi-0.dtd"
   xmlns:inkscape="http://www.inkscape.org/namespaces/inkscape"
   id="svg2"
   height="96"
   width="96"
   version="1.1"
   inkscape:version="0.91 r13725"
   sodipodi:docname="geary.svg">
  <sodipodi:namedview
     pagecolor="#ffffff"
     bordercolor="#666666"
     borderopacity="1"
     objecttolerance="10"
     gridtolerance="10"
     guidetolerance="10"
     inkscape:pageopacity="0"
     inkscape:pageshadow="2"
     inkscape:window-width="1366"
     inkscape:window-height="716"
     id="namedview107"
     showgrid="false"
     inkscape:zoom="2.4583333"
     inkscape:cx="47.978252"
     inkscape:cy="47.7828"
     inkscape:window-x="0"
     inkscape:window-y="24"
     inkscape:window-maximized="1"
     inkscape:current-layer="svg2" />
  <metadata
     id="metadata48">
    <rdf:RDF>
      <cc:Work
         rdf:about="">
        <dc:format>image/svg+xml</dc:format>
        <dc:type
           rdf:resource="http://purl.org/dc/dcmitype/StillImage" />
      </cc:Work>
    </rdf:RDF>
  </metadata>
  <defs
     id="defs4">
    <linearGradient
       inkscape:collect="always"
       id="linearGradient4306">
      <stop
         style="stop-color:#34a6fb;stop-opacity:1;"
         offset="0"
         id="stop4308" />
      <stop
         style="stop-color:#3af5f5;stop-opacity:1"
         offset="1"
         id="stop4310" />
    </linearGradient>
    <linearGradient
       gradientTransform="translate(-136.27119,-5.6949153)"
       x1="45.865"
       y1="4.4433"
       x2="47.6"
       gradientUnits="userSpaceOnUse"
       y2="89.46"
       id="linearGradient4276">
      <stop
         offset="0"
         style="stop-color:#fcfcfc;stop-opacity:1"
         id="stop9344" />
      <stop
         offset="1"
         style="stop-color:#e7e7e7;stop-opacity:1"
         id="stop9346" />
    </linearGradient>
    <linearGradient
       gradientUnits="userSpaceOnUse"
       y2="10.999988"
       x2="72.381378"
       y1="114.28712"
       x1="68.274155"
       id="linearGradient4161"
       xlink:href="#linearGradient4276"
       inkscape:collect="always" />
    <linearGradient
       inkscape:collect="always"
       xlink:href="#linearGradient4276"
       id="linearGradient4296"
       x1="92.016319"
       y1="50.752052"
       x2="56.737289"
       y2="83.701202"
       gradientUnits="userSpaceOnUse" />
    <linearGradient
       inkscape:collect="always"
       xlink:href="#linearGradient4276"
       id="linearGradient4304"
       x1="41.703388"
       y1="73.666428"
       x2="34.241196"
       y2="92.785072"
       gradientUnits="userSpaceOnUse" />
    <linearGradient
       inkscape:collect="always"
       xlink:href="#linearGradient4306"
       id="linearGradient4312"
       x1="58.169491"
       y1="77.288139"
       x2="59.063805"
       y2="20.745766"
       gradientUnits="userSpaceOnUse" />
  </defs>
  <rect
     style="opacity:1;fill:url(#linearGradient4161);fill-opacity:1;stroke:#000000;stroke-width:1;stroke-linecap:butt;stroke-linejoin:miter;stroke-miterlimit:4;stroke-dasharray:none;stroke-dashoffset:0;stroke-opacity:0.12"
     id="rect4155"
     width="85"
     height="85"
     x="5.5"
     y="5.5"
     rx="11"
     ry="11" />
  <rect
     style="opacity:1;fill:url(#linearGradient4312);fill-opacity:1;stroke:#000000;stroke-width:1;stroke-miterlimit:4;stroke-dasharray:none;stroke-dashoffset:0;stroke-opacity:0.12"
     id="rect4284"
     width="76.962112"
     height="66.711868"
     x="9.7627115"
     y="10.98305"
     rx="11"
     ry="11" />
  <path
     style="opacity:1;fill:url(#linearGradient4296);fill-opacity:1;stroke:#000000;stroke-width:1;stroke-miterlimit:4;stroke-dasharray:none;stroke-dashoffset:0;stroke-opacity:0.12"
     d="M 90.5 37.851562 L 17.982422 86.349609 L 20.757812 90.5 L 79.5 90.5 C 85.594 90.5 90.5 85.594 90.5 79.5 L 90.5 37.851562 z "
     id="rect4276" />
  <path
     style="opacity:1;fill:url(#linearGradient4304);fill-opacity:1;stroke:#000000;stroke-width:1;stroke-miterlimit:4;stroke-dasharray:none;stroke-dashoffset:0;stroke-opacity:0.12"
     d="M 5.5 48.697266 L 5.5 79.5 C 5.5 85.594 10.406 90.5 16.5 90.5 L 68.003906 90.5 L 5.5 48.697266 z "
     id="rect4274" />
  <g
     style="font-style:normal;font-weight:normal;font-size:40px;line-height:125%;font-family:sans-serif;letter-spacing:0px;word-spacing:0px;fill:#ffffff;fill-opacity:1;stroke:#000000;stroke-width:1px;stroke-linecap:butt;stroke-linejoin:miter;stroke-opacity:0.12000002"
     id="text4286">
    <path
       d="m 44.117111,38.506672 q 0,2.094726 1.040039,3.295898 1.040039,1.186524 2.856446,1.186524 1.801757,0 2.827148,-1.201172 1.040039,-1.201172 1.040039,-3.28125 0,-2.050781 -1.054687,-3.251953 -1.054688,-1.215821 -2.841797,-1.215821 -1.772461,0 -2.827149,1.201172 -1.040039,1.201172 -1.040039,3.266602 z m 7.983399,4.379883 q -0.878907,1.127929 -2.021485,1.669922 -1.127929,0.527343 -2.636718,0.527343 -2.519532,0 -4.101563,-1.816406 -1.567383,-1.831055 -1.567383,-4.760742 0,-2.929688 1.582031,-4.760742 1.582032,-1.831055 4.086915,-1.831055 1.508789,0 2.651367,0.556641 1.142578,0.541992 2.006836,1.655273 l 0,-1.918945 2.094726,0 0,10.78125 q 2.138672,-0.322266 3.339844,-1.948242 1.21582,-1.640625 1.21582,-4.233399 0,-1.567383 -0.46875,-2.944336 -0.454101,-1.376953 -1.391601,-2.548828 -1.523438,-1.918945 -3.720703,-2.929687 -2.182618,-1.025391 -4.760743,-1.025391 -1.801757,0 -3.457031,0.483398 -1.655273,0.46875 -3.061523,1.40625 -2.299805,1.494141 -3.603516,3.925782 -1.289062,2.416992 -1.289062,5.24414 0,2.329102 0.834961,4.365235 0.849609,2.036132 2.446289,3.588867 1.538086,1.523437 3.55957,2.314453 2.021484,0.805664 4.321289,0.805664 1.889648,0 3.706055,-0.644531 1.831054,-0.629883 3.354492,-1.816406 l 1.318359,1.625976 q -1.831054,1.420899 -3.999023,2.167969 -2.153321,0.761719 -4.379883,0.761719 -2.709961,0 -5.112305,-0.966797 -2.402343,-0.952149 -4.277343,-2.783203 -1.875,-1.831055 -2.856446,-4.233399 -0.981445,-2.416992 -0.981445,-5.185547 0,-2.666015 0.996094,-5.083008 0.996093,-2.416992 2.841797,-4.248046 1.889648,-1.860352 4.365234,-2.841797 2.475586,-0.996094 5.244141,-0.996094 3.105468,0 5.756835,1.274414 2.666016,1.274414 4.467774,3.618164 1.098633,1.435547 1.669922,3.120117 0.585937,1.684571 0.585937,3.486328 0,3.852539 -2.329101,6.079102 -2.329102,2.226562 -6.430664,2.314453 l 0,-2.255859 z"
       style="font-style:normal;font-variant:normal;font-weight:500;font-stretch:normal;font-size:30px;font-family:Rejang;-inkscape-font-specification:'Rejang Medium';fill:#ffffff;stroke:#000000;stroke-opacity:0.12000002"
       id="path4315" />
  </g>
</svg>
