<?xml version="1.0" encoding="UTF-8" standalone="no"?>
<svg
   xmlns:dc="http://purl.org/dc/elements/1.1/"
   xmlns:cc="http://creativecommons.org/ns#"
   xmlns:rdf="http://www.w3.org/1999/02/22-rdf-syntax-ns#"
   xmlns:svg="http://www.w3.org/2000/svg"
   xmlns="http://www.w3.org/2000/svg"
   xmlns:sodipodi="http://sodipodi.sourceforge.net/DTD/sodipodi-0.dtd"
   xmlns:inkscape="http://www.inkscape.org/namespaces/inkscape"
   id="svg2"
   height="96"
   width="96"
   version="1.1"
   inkscape:version="0.91 r13725"
   sodipodi:docname="gnome-logout.svg">
  <sodipodi:namedview
     pagecolor="#ffffff"
     bordercolor="#666666"
     borderopacity="1"
     objecttolerance="10"
     gridtolerance="10"
     guidetolerance="10"
     inkscape:pageopacity="0"
     inkscape:pageshadow="2"
     inkscape:window-width="1366"
     inkscape:window-height="747"
     id="namedview14"
     showgrid="false"
     inkscape:zoom="6.9532167"
     inkscape:cx="42.971018"
     inkscape:cy="48"
     inkscape:window-x="0"
     inkscape:window-y="21"
     inkscape:window-maximized="1"
     inkscape:current-layer="svg2" />
  <metadata
     id="metadata59">
    <rdf:RDF>
      <cc:Work
         rdf:about="">
        <dc:format>image/svg+xml</dc:format>
        <dc:type
           rdf:resource="http://purl.org/dc/dcmitype/StillImage" />
      </cc:Work>
    </rdf:RDF>
  </metadata>
  <defs
     id="defs4" />
  <path
     inkscape:connector-curvature="0"
     d="m 79.996,48.004 c 0,-2.216 -1.784,-4 -4,-4 l -24,0 c -2.216,0 -4,1.784 -4,4 0,2.216 1.784,4 4,4 l 24,0 c 2.216,0 4,-1.784 4,-4 z m -7.1875,11.688 a 4.0004,4.0004 0 0 0 -7.5,-1.6875 c -5.546,9.607 -17.706,12.86 -27.312,7.313 -9.606,-5.547 -12.858,-17.706 -7.312,-27.312 5.546,-9.607 17.706,-12.859 27.312,-7.313 3.0406,1.7555 5.557,4.2719 7.3125,7.3125 a 4.0040263,4.0040263 0 0 0 6.9375,-4 c -2.4574,-4.2564 -5.9936,-7.7926 -10.25,-10.25 -13.351,-7.7083 -30.542,-3.1012 -38.25,10.25 -7.7083,13.351 -3.1012,30.542 10.25,38.25 13.351,7.7083 30.542,3.1012 38.25,-10.25 a 4.0004,4.0004 0 0 0 0.5625,-2.3125 z"
     style="color:#000000;fill:#4d4d4d;stroke:#000000;stroke-opacity:0.12"
     id="path47" />
</svg>
