<?xml version="1.0" encoding="UTF-8" standalone="no"?>
<svg
   xmlns:dc="http://purl.org/dc/elements/1.1/"
   xmlns:cc="http://creativecommons.org/ns#"
   xmlns:rdf="http://www.w3.org/1999/02/22-rdf-syntax-ns#"
   xmlns:svg="http://www.w3.org/2000/svg"
   xmlns="http://www.w3.org/2000/svg"
   xmlns:sodipodi="http://sodipodi.sourceforge.net/DTD/sodipodi-0.dtd"
   xmlns:inkscape="http://www.inkscape.org/namespaces/inkscape"
   id="svg2"
   height="96"
   width="96"
   version="1.1"
   inkscape:version="0.91 r13725"
   sodipodi:docname="gnome-session-reboot.svg">
  <sodipodi:namedview
     pagecolor="#ffffff"
     bordercolor="#666666"
     borderopacity="1"
     objecttolerance="10"
     gridtolerance="10"
     guidetolerance="10"
     inkscape:pageopacity="0"
     inkscape:pageshadow="2"
     inkscape:window-width="1366"
     inkscape:window-height="747"
     id="namedview14"
     showgrid="false"
     inkscape:zoom="9.8333333"
     inkscape:cx="33.559322"
     inkscape:cy="48"
     inkscape:window-x="0"
     inkscape:window-y="21"
     inkscape:window-maximized="1"
     inkscape:current-layer="svg2" />
  <metadata
     id="metadata57">
    <rdf:RDF>
      <cc:Work
         rdf:about="">
        <dc:format>image/svg+xml</dc:format>
        <dc:type
           rdf:resource="http://purl.org/dc/dcmitype/StillImage" />
      </cc:Work>
    </rdf:RDF>
  </metadata>
  <defs
     id="defs4" />
  <path
     inkscape:connector-curvature="0"
     style="color:#000000;fill:#4d4d4d;stroke:#000000;stroke-opacity:0.04705882"
     d="m 80,46 c 0,-2.216 -1.784,-4 -4,-4 l -10,0 c -2.216,0 -4,1.784 -4,4 0,2.216 1.784,4 4,4 l 10,0 c 2.216,0 4,-1.784 4,-4 z M 71.812,26.188 c 0,-1.0225 -0.40403,-2.029 -1.1875,-2.8125 -1.5669,-1.5669 -4.0893,-1.5669 -5.6562,0 l -7.0625,7.0625 c -1.5669,1.5669 -1.5669,4.0893 0,5.6562 1.5669,1.5669 4.0893,1.5669 5.6562,0 l 7.0625,-7.0625 c 0.78347,-0.78347 1.1875,-1.8213 1.1875,-2.8438 z m 0,39.625 c 0,-1.0225 -0.40403,-2.0603 -1.1875,-2.8438 l -7.062,-7.062 c -1.5669,-1.5669 -4.0893,-1.5669 -5.6562,0 -1.5669,1.5669 -1.5669,4.0893 0,5.6562 l 7.0625,7.0625 c 1.5669,1.5669 4.0893,1.5669 5.6562,0 0.78347,-0.78347 1.1875,-1.79 1.1875,-2.8125 z M 52,18 c 0,-2.216 -1.784,-4 -4,-4 -2.216,0 -4,1.784 -4,4 l 0,10 c 0,2.216 1.784,4 4,4 2.216,0 4,-1.784 4,-4 l 0,-10 z m 0,46 c 0,-2.216 -1.784,-4 -4,-4 -2.216,0 -4,1.784 -4,4 l 0,10 c 0,2.216 1.784,4 4,4 2.216,0 4,-1.784 4,-4 L 52,64 Z M 39.281,33.281 c 0,-1.0225 -0.40403,-2.0603 -1.1875,-2.8438 l -7.063,-7.062 c -1.5669,-1.5669 -4.0893,-1.5669 -5.6562,0 -1.5669,1.5669 -1.5669,4.0893 0,5.6562 l 7.0625,7.0625 c 1.5669,1.5669 4.0893,1.5669 5.6562,0 0.78347,-0.78347 1.1875,-1.79 1.1875,-2.8125 z m 0,25.438 c 0,-1.0225 -0.40403,-2.029 -1.1875,-2.8125 -1.5669,-1.5669 -4.0893,-1.5669 -5.6562,0 l -7.0625,7.0625 c -1.5669,1.5669 -1.5669,4.0893 0,5.6562 1.5669,1.5669 4.0893,1.5669 5.6562,0 l 7.0625,-7.0625 c 0.78347,-0.78347 1.1875,-1.8213 1.1875,-2.8438 z M 34,46 c 0,-2.216 -1.784,-4 -4,-4 l -10,0 c -2.216,0 -4,1.784 -4,4 0,2.216 1.784,4 4,4 l 10,0 c 2.216,0 4,-1.784 4,-4 z"
     id="path45" />
</svg>
