<?xml version="1.0" encoding="UTF-8" standalone="no"?>
<!-- Created with Inkscape (http://www.inkscape.org/) -->

<svg
   xmlns:dc="http://purl.org/dc/elements/1.1/"
   xmlns:cc="http://creativecommons.org/ns#"
   xmlns:rdf="http://www.w3.org/1999/02/22-rdf-syntax-ns#"
   xmlns:svg="http://www.w3.org/2000/svg"
   xmlns="http://www.w3.org/2000/svg"
   xmlns:xlink="http://www.w3.org/1999/xlink"
   xmlns:sodipodi="http://sodipodi.sourceforge.net/DTD/sodipodi-0.dtd"
   xmlns:inkscape="http://www.inkscape.org/namespaces/inkscape"
   version="1.1"
   width="96"
   height="96"
   id="svg4161"
   inkscape:version="0.91 r13725"
   sodipodi:docname="preferences-desktop-sound.svg">
  <sodipodi:namedview
     pagecolor="#ffffff"
     bordercolor="#666666"
     borderopacity="1"
     objecttolerance="10"
     gridtolerance="10"
     guidetolerance="10"
     inkscape:pageopacity="0"
     inkscape:pageshadow="2"
     inkscape:window-width="1366"
     inkscape:window-height="716"
     id="namedview45"
     showgrid="false"
     inkscape:zoom="4"
     inkscape:cx="17.41838"
     inkscape:cy="42.910568"
     inkscape:window-x="0"
     inkscape:window-y="24"
     inkscape:window-maximized="1"
     inkscape:current-layer="layer1">
    <inkscape:grid
       type="xygrid"
       id="grid3031" />
  </sodipodi:namedview>
  <defs
     id="defs4163">
    <linearGradient
       inkscape:collect="always"
       id="linearGradient4223">
      <stop
         style="stop-color:#313131;stop-opacity:1;"
         offset="0"
         id="stop4225" />
      <stop
         style="stop-color:#4f4f4f;stop-opacity:1"
         offset="1"
         id="stop4227" />
    </linearGradient>
    <linearGradient
       inkscape:collect="always"
       xlink:href="#linearGradient4223"
       id="linearGradient4156"
       x1="49.970161"
       y1="32.500004"
       x2="52.029839"
       y2="4.0000038"
       gradientUnits="userSpaceOnUse" />
    <linearGradient
       inkscape:collect="always"
       xlink:href="#linearGradient4223"
       id="linearGradient4158"
       gradientUnits="userSpaceOnUse"
       x1="49.970161"
       y1="32.500004"
       x2="52.029839"
       y2="4.0000038" />
    <linearGradient
       inkscape:collect="always"
       xlink:href="#linearGradient4223"
       id="linearGradient4160"
       gradientUnits="userSpaceOnUse"
       x1="49.970161"
       y1="32.500004"
       x2="52.029839"
       y2="4.0000038" />
  </defs>
  <metadata
     id="metadata4166">
    <rdf:RDF>
      <cc:Work
         rdf:about="">
        <dc:format>image/svg+xml</dc:format>
        <dc:type
           rdf:resource="http://purl.org/dc/dcmitype/StillImage" />
        <dc:title />
      </cc:Work>
    </rdf:RDF>
  </metadata>
  <g
     id="layer1"
     transform="translate(0,32)">
    <g
       id="g4146"
       style="fill:url(#linearGradient4156);fill-opacity:1"
       transform="matrix(1.6979734,0,0,1.6979734,-33.502723,-11.167581)">
      <path
         d="m 23.470161,9.312294 0,13.391448 5.356579,0 10.713156,10.713155 0,-34.8177589 -10.713156,10.7131559 -5.356579,0 z"
         inkscape:connector-curvature="0"
         id="path3801"
         style="fill:url(#linearGradient4158);fill-opacity:1;fill-rule:evenodd;stroke:#000000;stroke-width:1;stroke-miterlimit:4;stroke-dasharray:none;stroke-opacity:0.04705882" />
      <path
         inkscape:connector-curvature="0"
         id="path3803"
         d="m 64.801364,-6.1493592 -3.094178,3.3380876 c 0,0 1.425276,1.2878987 3.026812,4.36948 1.601537,3.0815814 3.242847,7.8099084 3.242847,14.4092946 0,6.562545 -1.644295,11.315329 -3.252138,14.430203 -1.607844,3.114873 -3.047718,4.446137 -3.047718,4.446137 l 3.131344,3.305566 c 0,0 2.064963,-1.986373 3.962963,-5.663367 1.898,-3.676993 3.758543,-9.189923 3.758543,-16.518539 0,-7.3603999 -1.857853,-12.85652 -3.75622,-16.50924669 C 66.87525,-4.1944704 64.801364,-6.1493592 64.801364,-6.1493592 Z m -7.949155,6.02807049 -3.129021,3.30788911 c 0,0 0.916916,0.8344211 1.983805,2.9385393 1.066886,2.104118 2.150697,5.3304043 2.069753,9.8423633 -0.08234,4.589577 -1.194598,7.855593 -2.248622,9.967804 -1.054024,2.112211 -1.916438,2.924601 -1.916438,2.924601 l 3.191742,3.24517 c 0,0 1.472228,-1.48273 2.796838,-4.137185 1.324611,-2.654453 2.634506,-6.625564 2.729473,-11.919086 0.0949,-5.289837 -1.201877,-9.3012574 -2.56222,-11.9841292 -1.360343,-2.6828719 -2.91531,-4.18596651 -2.91531,-4.18596651 z M 48.603393,5.4584513 45.741511,8.9986361 c 0,0 0.207089,0.092284 0.715471,1.1196649 0.508382,1.02738 1.110129,2.828589 1.140571,5.786483 0.02977,2.892109 -0.566143,4.7461 -1.101081,5.858494 -0.534938,1.112395 -0.838587,1.324086 -0.838587,1.324086 l 3.029135,3.400806 c 0,0 1.081894,-1.019787 1.914115,-2.75038 0.832222,-1.730591 1.585951,-4.329492 1.549411,-7.879466 -0.0367,-3.565515 -0.786714,-6.0906008 -1.61213,-7.7586719 C 49.712999,6.431581 48.603393,5.4584513 48.603393,5.4584513 Z"
         style="color:#000000;font-style:normal;font-variant:normal;font-weight:normal;font-stretch:normal;font-size:medium;line-height:normal;font-family:sans-serif;text-indent:0;text-align:start;text-decoration:none;text-decoration-line:none;text-decoration-style:solid;text-decoration-color:#000000;letter-spacing:normal;word-spacing:normal;text-transform:none;direction:ltr;block-progression:tb;writing-mode:lr-tb;baseline-shift:baseline;text-anchor:start;white-space:normal;clip-rule:nonzero;display:inline;overflow:visible;visibility:visible;opacity:1;isolation:auto;mix-blend-mode:normal;color-interpolation:sRGB;color-interpolation-filters:linearRGB;solid-color:#000000;solid-opacity:1;fill:url(#linearGradient4160);fill-opacity:1;fill-rule:nonzero;stroke:#000000;stroke-width:1;stroke-linecap:butt;stroke-linejoin:miter;stroke-miterlimit:4;stroke-dasharray:none;stroke-dashoffset:0;stroke-opacity:0.04705882;marker:none;color-rendering:auto;image-rendering:auto;shape-rendering:auto;text-rendering:auto;enable-background:accumulate" />
    </g>
  </g>
</svg>
