<?xml version="1.0" encoding="UTF-8" standalone="no"?>
<svg
   xmlns:dc="http://purl.org/dc/elements/1.1/"
   xmlns:cc="http://creativecommons.org/ns#"
   xmlns:rdf="http://www.w3.org/1999/02/22-rdf-syntax-ns#"
   xmlns:svg="http://www.w3.org/2000/svg"
   xmlns="http://www.w3.org/2000/svg"
   xmlns:xlink="http://www.w3.org/1999/xlink"
   xmlns:sodipodi="http://sodipodi.sourceforge.net/DTD/sodipodi-0.dtd"
   xmlns:inkscape="http://www.inkscape.org/namespaces/inkscape"
   id="svg130"
   height="96"
   width="96"
   version="1.1"
   inkscape:version="0.91 r13725"
   sodipodi:docname="preferences-desktop-locale.svg">
  <sodipodi:namedview
     pagecolor="#ffffff"
     bordercolor="#666666"
     borderopacity="1"
     objecttolerance="10"
     gridtolerance="10"
     guidetolerance="10"
     inkscape:pageopacity="0"
     inkscape:pageshadow="2"
     inkscape:window-width="1366"
     inkscape:window-height="716"
     id="namedview54"
     showgrid="false"
     inkscape:zoom="4.9166667"
     inkscape:cx="35.878803"
     inkscape:cy="46.156915"
     inkscape:window-x="0"
     inkscape:window-y="24"
     inkscape:window-maximized="1"
     inkscape:current-layer="svg130" />
  <metadata
     id="metadata221">
    <rdf:RDF>
      <cc:Work
         rdf:about="">
        <dc:format>image/svg+xml</dc:format>
        <dc:type
           rdf:resource="http://purl.org/dc/dcmitype/StillImage" />
      </cc:Work>
    </rdf:RDF>
  </metadata>
  <defs
     id="defs132">
    <linearGradient
       id="linearGradient217565"
       gradientUnits="userSpaceOnUse"
       y1="90"
       gradientTransform="matrix(1.151,0,0,1.0885,-118.69797,-5.0577003)"
       x2="0"
       y2="5.988">
      <stop
         id="stop135"
         stop-color="#2764bf"
         offset="0" />
      <stop
         id="stop137"
         stop-color="#71a1e8"
         offset="1"
         style="stop-color:#71e8e8;stop-opacity:1" />
    </linearGradient>
    <linearGradient
       inkscape:collect="always"
       xlink:href="#linearGradient217565"
       id="linearGradient4249"
       x1="39.531235"
       y1="84.203392"
       x2="70.095886"
       y2="14.237288"
       gradientUnits="userSpaceOnUse" />
  </defs>
  <path
     style="fill:url(#linearGradient4249);fill-opacity:1;stroke:#000000;stroke-width:1;stroke-miterlimit:4;stroke-dasharray:none;stroke-opacity:0.12"
     d="m 48.010742,13.192382 c -19.189503,0 -34.716797,12.661168 -34.716797,28.25586 0,9.602812 5.918311,18.040992 14.908203,23.154297 l -8.61914,18.205078 18.691406,-14.361328 c 3.107327,0.742372 6.340411,1.269531 9.736328,1.269531 19.173692,0 34.695313,-12.655318 34.695313,-28.267578 0,-15.594692 -15.525574,-28.25586 -34.695313,-28.25586 z"
     id="path3013"
     inkscape:connector-curvature="0" />
  <g
     id="g155"
     style="fill:#ffffff;stroke:#000000;stroke-width:1.37793632;stroke-miterlimit:4;stroke-dasharray:none;stroke-opacity:0.12"
     transform="matrix(0.72572294,0,0,0.72572294,126.07295,3.5157908)">
    <g
       id="g157"
       transform="matrix(0.20238,0,0,0.20238,-197.86,-7.214)"
       style="stroke:#000000;stroke-width:6.80865858;stroke-miterlimit:4;stroke-dasharray:none;stroke-opacity:0.12">
      <path
         id="path159"
         d="m 569.39,394.11 c -10.774,2.8853 -22.271,3.813 -32.735,7.3814 17.723,-15.196 16.711,-38.708 28.535,-56.606 3.7666,-5.0674 6.8799,-10.379 11.27,-15.188 -7.1924,14.428 -4.0732,33.146 -12.336,47.147 -3.1807,5.5615 -7.7295,10.957 -12.76,15.325 1.6436,-0.0615 3.082,-1.4844 4.5274,-2.4346 13.421,-13.393 30.954,-17.138 45.472,-28.019 5.8154,-4.6338 11.142,-10.706 13.698,-17.273 -2.7471,22.22 -24.853,43.046 -45.672,49.666 z"
         inkscape:connector-curvature="0"
         style="stroke:#000000;stroke-width:6.80865858;stroke-miterlimit:4;stroke-dasharray:none;stroke-opacity:0.12" />
      <path
         id="path161"
         d="m 617.74,304.15 c -6.5664,9.3438 -14.51,18.042 -20.576,27.538 0.67676,-7.5186 1.5674,-16.764 -1.3613,-23.886 -5.0752,-15.337 -9.5342,-30.909 -10.973,-47.741 l 0.19824,-6.4365 c 3.8193,17.189 20.705,29.006 19.64,48.287 0.38671,4.6728 -1.0586,8.6455 -1.9336,12.755 l 0.29004,0.30371 0.76074,-0.85254 c 2.5039,-9.458 3.7676,-19.403 7.6611,-28.228 5.5332,-12.698 12.442,-25.514 9.627,-40.846 8.416,18.076 5.8662,42.228 -3.333,59.105 z"
         inkscape:connector-curvature="0"
         style="stroke:#000000;stroke-width:6.80865858;stroke-miterlimit:4;stroke-dasharray:none;stroke-opacity:0.12" />
      <path
         id="path163"
         d="m 607.37,206.76 c 11.072,15.005 13.499,38.918 5.4346,56.13 -3.0059,7.2939 -5.1289,15.066 -6.3096,23.14 -0.56347,-1.3926 -0.69238,-3.2646 -1.1953,-4.8164 -4.4043,-16.848 -20.338,-28.854 -26.891,-44.739 -2.0781,-5.1943 -3.8496,-10.562 -4.832,-16.2 7.002,12.95 24.258,19.639 28.961,33.911 1.9268,3.6094 1.8184,8.1191 3.0137,12 0.25098,0 0.50196,-0.18653 0.50196,-0.44141 -2.0703,-14.701 -1.4385,-30.087 0.55664,-44.606 -0.11524,-7.8642 -0.88281,-15.493 -5.252,-21.58 2.8018,1.6323 4.0635,4.7676 6.0117,7.2026 z"
         inkscape:connector-curvature="0"
         style="stroke:#000000;stroke-width:6.80865858;stroke-miterlimit:4;stroke-dasharray:none;stroke-opacity:0.12" />
      <path
         id="path165"
         d="m 599.56,203.88 c 2.9082,13.149 -1.3398,25.955 1.332,39.23 l -0.0996,0.11426 c -7.1533,-14.066 -22.34,-20.705 -32.789,-31.963 -6.0557,-6.6807 -8.6885,-14.823 -10.203,-23.444 5.9873,14.435 22.144,17.615 31.419,29.779 3.1035,2.8042 4.1162,6.689 6.1172,9.8691 l 0.32715,-0.31592 c -5.334,-11.387 -7.1211,-24.201 -10.843,-36.345 -1.8633,-5.2622 -5.5615,-10.433 -10.523,-13.75 12.176,2.4883 22.729,15.2 25.263,26.827 z"
         inkscape:connector-curvature="0"
         style="stroke:#000000;stroke-width:6.80865858;stroke-miterlimit:4;stroke-dasharray:none;stroke-opacity:0.12" />
      <path
         id="path167"
         d="m 567.01,173.72 c 9.1699,8.207 13.317,18.834 15.995,29.844 l 1.5146,3.4966 c -13.31,-9.5723 -25.4,-22.44 -33.899,-36.03 l -10.38,-10.501 c 9.125,3.8691 18.963,6.1787 26.77,13.19 z"
         inkscape:connector-curvature="0"
         style="stroke:#000000;stroke-width:6.80865858;stroke-miterlimit:4;stroke-dasharray:none;stroke-opacity:0.12" />
      <path
         id="path169"
         d="m 356.81,162.27 c -9.2002,8.0654 -15.581,18.266 -22.406,27.777 -6.1182,7.5752 -13.944,12.57 -20.88,19.084 3.7441,-7.7617 3.8809,-17.033 9.1914,-24.163 7.5566,-13.184 21.569,-17.822 34.095,-22.699 z"
         inkscape:connector-curvature="0"
         style="stroke:#000000;stroke-width:6.80865858;stroke-miterlimit:4;stroke-dasharray:none;stroke-opacity:0.12" />
      <path
         id="path171"
         d="m 306.49,190.36 c 4.4746,-5.5625 10.147,-9.4282 16.531,-11.061 -12.396,8.5151 -11.589,23.775 -15.519,36.46 -1.2529,4.6909 -3.4287,9.0127 -4.5127,13.821 l 0.31543,0.25098 c 2.0625,-5.436 5.6875,-10.572 10.212,-15.008 8.8037,-8.127 21.827,-13.192 26.142,-25.214 -0.19726,16.706 -14.134,29.84 -27.469,39.229 -5.499,4.8242 -10.802,10.322 -13.83,16.524 -0.29687,-4.2148 0.62305,-8.4468 0.32325,-12.962 -1.4502,-14.584 -2.5039,-31.229 7.8066,-42.042 z"
         inkscape:connector-curvature="0"
         style="stroke:#000000;stroke-width:6.80865858;stroke-miterlimit:4;stroke-dasharray:none;stroke-opacity:0.12" />
      <path
         id="path173"
         d="m 281.41,240.23 c -0.37305,-14.778 5.7607,-26.842 14.404,-37.853 0.25097,-0.12549 0.42968,-0.37646 0.75293,-0.31592 -9.5146,14.458 -1.6436,32.67 -2.0772,49.11 l -1.2549,16.832 c 0.18653,0.12207 0.18653,0.62793 0.62793,0.43359 0.5625,-1.876 0.68457,-3.8809 1.0606,-5.8106 2.2412,-13.577 14.032,-23.211 24.331,-32.594 2.1992,-2.4541 4.1436,-4.9458 5.2734,-7.8257 -0.84082,6.7602 -2.96,13.579 -5.7646,19.831 -8.0156,15.632 -22.823,28.458 -25.528,46.354 -1.3125,-17.15 -12.989,-29.973 -11.825,-48.162 z"
         inkscape:connector-curvature="0"
         style="stroke:#000000;stroke-width:6.80865858;stroke-miterlimit:4;stroke-dasharray:none;stroke-opacity:0.12" />
      <path
         id="path175"
         d="m 274.21,261.24 c 1.0654,-4.6221 1.8799,-9.4053 3.8916,-13.646 -3.8115,19.537 9.3291,33.614 13.64,50.549 1.8037,6.334 2.2451,13.137 4.8242,19.08 0.24023,0.12988 0.44921,-0.1211 0.59765,-0.31153 -6.418,-17.989 2.8467,-34.706 12.156,-48.791 2.2637,-3.8164 3.5684,-8.0664 4.6943,-12.453 0.98926,8.1416 -1.0693,17.518 -2.252,25.971 -2.2637,10.756 -5.6426,20.956 -8.584,31.393 -1.9356,6.5215 -1.4268,13.879 -0.43262,20.712 l -0.92,-0.74 c -6.8252,-12.586 -20.34,-22.402 -24.354,-36.152 -3.3027,-10.962 -5.498,-23.66 -3.249,-35.604 z"
         inkscape:connector-curvature="0"
         style="stroke:#000000;stroke-width:6.80865858;stroke-miterlimit:4;stroke-dasharray:none;stroke-opacity:0.12" />
      <path
         id="path177"
         d="m 273.6,299.4 c 1.5029,20.708 23.771,31.65 34.094,48.794 2.4424,3.5078 4.5615,7.3887 7.8252,10.325 -0.50976,-2.2061 -2.5684,-4.0625 -3.3242,-6.3223 -3.6113,-7.1904 -4.9277,-15.759 -4.0596,-24.449 1,-10.577 5.4365,-20.393 3.7432,-31.518 9.0703,19.557 6.3154,43.967 11.387,65.158 1.3281,4.6348 4.0107,8.7734 5.7686,13.203 -18.636,-12.692 -44.047,-24.769 -52.314,-48.03 -3.4844,-8.0205 -3.873,-17.95 -3.1191,-27.161 z"
         inkscape:connector-curvature="0"
         style="stroke:#000000;stroke-width:6.80865858;stroke-miterlimit:4;stroke-dasharray:none;stroke-opacity:0.12" />
      <path
         id="path179"
         d="m 284.73,346.96 c 10.391,23.506 36.414,25.453 53.862,39.767 3.2109,2.8457 6.5752,5.2656 10.2,6.9541 l 0.18653,-0.18945 c -4.0059,-3.6221 -8.6396,-7.7471 -11.444,-12.441 -10.212,-14.199 -6.6201,-34.09 -14.271,-49.361 6.9521,8.3164 13.274,16.961 17.472,26.396 6.2432,15.401 8.6289,32.797 23.075,44.439 -15.634,-5.1524 -33.949,-3.7129 -47.748,-13.339 -15.066,-9.2598 -28.513,-24.966 -31.332,-42.224 z"
         inkscape:connector-curvature="0"
         style="stroke:#000000;stroke-width:6.80865858;stroke-miterlimit:4;stroke-dasharray:none;stroke-opacity:0.12" />
      <path
         id="path181"
         d="m 311.43,390.81 c 16.66,18.948 43.883,12.625 66.075,17.584 3.1348,0.42774 6.0039,1.6836 9.3262,1.1738 -2.6455,-1.6738 -6.3164,-1.4922 -9.2041,-3.0137 -17.396,-6.1113 -19.947,-24.944 -29.391,-37.643 12.064,8.0117 22.207,18.817 33.337,29.288 8,7.0078 17.63,10.242 27.776,12.305 -2.4385,0.89062 -5.6348,0.64648 -8.252,1.332 -18.229,4.4824 -38.48,11.809 -57.812,5.25 -12.567,-3.957 -25.533,-13.895 -31.856,-26.276 z"
         inkscape:connector-curvature="0"
         style="stroke:#000000;stroke-width:6.80865858;stroke-miterlimit:4;stroke-dasharray:none;stroke-opacity:0.12" />
      <path
         id="path183"
         d="m 537.56,434.97 c -18.773,7.0059 -38.366,-0.32031 -53.029,-11.439 -5.9365,-3.7734 -11.17,-9.207 -18.849,-8.7266 -2.7852,-0.0527 -5.4707,0.084 -7.8379,0.76758 14.245,6.6289 27.478,15.768 39.576,27.455 -2.0391,2.3281 -4.6797,4.5058 -7.167,6.5137 -11.659,-12.562 -24.571,-24.654 -39.028,-31.717 -2.831,0.36719 -5.5244,2.0703 -8.0772,3.4414 -11.77,7.4414 -23.407,17.014 -32.157,28.732 l -7.5186,-6.209 c 12,-12.139 25.273,-21.588 39.794,-28.338 -14.269,-4.5195 -23.582,7.4336 -34.413,13.514 -12.621,8.8125 -30.772,12.951 -46.025,6.8711 -8.2031,-3.1113 -16.15,-7.6934 -22.09,-15.141 12.004,8.2695 29.882,9.1367 43.533,3.7656 18.318,-7.9453 37.354,-18.018 59.437,-13.201 3.4463,0.0605 6.7949,3.4922 10.051,0.57031 16.413,-4.2617 34.995,-1.332 49.126,6.1699 l 14.564,5.8379 c 13.537,5.0059 31.039,3.6211 42.643,-4.627 -5.9658,7.4258 -14.115,12.746 -22.531,15.76 z"
         inkscape:connector-curvature="0"
         style="stroke:#000000;stroke-width:6.80865858;stroke-miterlimit:4;stroke-dasharray:none;stroke-opacity:0.12" />
      <path
         id="path185"
         d="m 557.67,415.57 c -21.078,7.959 -42.283,-1.8106 -62.479,-5.0742 l -3.8887,-0.49414 0,-0.12305 c 9.6572,-2.1914 19.031,-5.0664 26.718,-12.006 11.321,-10.882 21.396,-22.083 33.968,-30.659 -9.3232,11.954 -10.312,28.969 -25.713,36.655 -3.8115,2.4941 -8.6221,2.9355 -12.556,4.8242 5.6094,0.1211 10.745,-1.8887 16.3,-2.4512 20.652,-3.2422 44.278,0.084 58.767,-17.509 -5.3789,12.259 -18.85,22.525 -31.115,26.837 z"
         inkscape:connector-curvature="0"
         style="stroke:#000000;stroke-width:6.80865858;stroke-miterlimit:4;stroke-dasharray:none;stroke-opacity:0.12" />
      <path
         id="path187"
         d="m 595.97,356.27 c -8.3242,5.4482 -16.762,10.501 -24.761,16.695 l 0,-0.76075 c 12.252,-20.362 6.2627,-48.335 13.812,-70.744 l 2.8154,-7.5068 c -1.5752,13.96 4.4883,25.785 4.0625,39.793 -0.42578,8.4619 -3.1875,15.965 -7.6309,22.722 l 0.75293,0 c 6.0029,-7.8838 10.69,-16.269 17.706,-23.778 10.89,-10.501 21.961,-21.269 23.391,-35.841 3.6982,24.327 -9.9522,45.648 -30.147,59.421 z"
         inkscape:connector-curvature="0"
         style="stroke:#000000;stroke-width:6.80865858;stroke-miterlimit:4;stroke-dasharray:none;stroke-opacity:0.12" />
    </g>
    <g
       id="g189"
       transform="matrix(0.20238,0,0,0.20238,-197.86,-7.214)"
       style="stroke:#000000;stroke-width:6.80865858;stroke-miterlimit:4;stroke-dasharray:none;stroke-opacity:0.12">
      <polygon
         id="polygon191"
         style="fill-rule:evenodd;stroke:#000000;stroke-width:6.80865858;stroke-miterlimit:4;stroke-dasharray:none;stroke-opacity:0.12"
         points="451.89,303.25 451.89,398.07 448.11,398.07 448.11,303.25 448.11,303.25 " />
      <polygon
         id="polygon193"
         style="fill-rule:evenodd;stroke:#000000;stroke-width:6.80865858;stroke-miterlimit:4;stroke-dasharray:none;stroke-opacity:0.12"
         points="430.28,296.61 363.18,363.61 360.51,360.94 427.61,293.94 427.61,293.94 " />
      <polygon
         id="polygon195"
         style="fill-rule:evenodd;stroke:#000000;stroke-width:6.80865858;stroke-miterlimit:4;stroke-dasharray:none;stroke-opacity:0.12"
         points="421.19,277.96 326.37,277.85 326.37,274.07 421.2,274.19 421.2,274.19 " />
      <polygon
         id="polygon197"
         style="fill-rule:evenodd;stroke:#000000;stroke-width:6.80865858;stroke-miterlimit:4;stroke-dasharray:none;stroke-opacity:0.12"
         points="427.53,258.57 360.49,191.51 363.16,188.84 430.2,255.9 430.2,255.9 " />
      <polygon
         id="polygon199"
         style="fill-rule:evenodd;stroke:#000000;stroke-width:6.80865858;stroke-miterlimit:4;stroke-dasharray:none;stroke-opacity:0.12"
         points="448.07,248.11 448.16,153.28 451.93,153.29 451.85,248.11 451.85,248.11 " />
      <polygon
         id="polygon201"
         style="fill-rule:evenodd;stroke:#000000;stroke-width:6.80865858;stroke-miterlimit:4;stroke-dasharray:none;stroke-opacity:0.12"
         points="468.16,254.48 535.3,187.52 537.96,190.19 470.82,257.16 470.82,257.16 " />
      <polygon
         id="polygon203"
         style="fill-rule:evenodd;stroke:#000000;stroke-width:6.80865858;stroke-miterlimit:4;stroke-dasharray:none;stroke-opacity:0.12"
         points="478.14,274.48 572.96,274.36 572.97,278.14 478.15,278.26 478.15,278.26 " />
      <polygon
         id="polygon205"
         style="fill-rule:evenodd;stroke:#000000;stroke-width:6.80865858;stroke-miterlimit:4;stroke-dasharray:none;stroke-opacity:0.12"
         points="469.87,294.89 536.97,361.88 534.31,364.55 467.2,297.56 467.2,297.56 " />
      <path
         id="path207"
         d="m 485.36,181.18 c 52.227,19.522 78.769,77.75 59.246,129.97 -19.522,52.224 -77.75,78.766 -129.97,59.244 -52.226,-19.521 -78.764,-77.748 -59.246,-129.97 19.523,-52.225 77.75,-78.765 129.97,-59.245 z m -1.5283,4.0947 c 49.963,18.677 75.355,74.385 56.681,124.35 -18.676,49.965 -74.387,75.356 -124.35,56.68 -49.963,-18.675 -75.354,-74.384 -56.68,-124.35 18.677,-49.963 74.386,-75.356 124.35,-56.68 z"
         style="fill-rule:evenodd;stroke:#000000;stroke-width:6.80865858;stroke-miterlimit:4;stroke-dasharray:none;stroke-opacity:0.12"
         inkscape:connector-curvature="0" />
      <path
         id="path209"
         d="m 477.26,202.86 c 40.261,15.049 60.718,59.935 45.672,100.19 -15.05,40.258 -59.938,60.718 -100.19,45.67 -40.256,-15.048 -60.718,-59.936 -45.67,-100.19 15.048,-40.258 59.936,-60.718 100.19,-45.669 z m -1.5361,4.1182 c 37.982,14.198 57.289,56.552 43.091,94.538 -14.198,37.986 -56.555,57.291 -94.537,43.091 -37.986,-14.198 -57.293,-56.553 -43.093,-94.538 14.2,-37.986 56.553,-57.291 94.539,-43.091 z"
         style="fill-rule:evenodd;stroke:#000000;stroke-width:6.80865858;stroke-miterlimit:4;stroke-dasharray:none;stroke-opacity:0.12"
         inkscape:connector-curvature="0" />
      <path
         id="path211"
         d="m 469.4,223.89 c 28.655,10.71 43.216,42.657 32.507,71.31 -10.714,28.652 -42.66,43.215 -71.311,32.504 -28.654,-10.711 -43.215,-42.657 -32.504,-71.309 10.711,-28.652 42.657,-43.214 71.307,-32.504 z m -1.4077,3.7686 c 26.573,9.9331 40.079,39.561 30.146,66.133 -9.9346,26.572 -39.561,40.076 -66.133,30.143 -26.572,-9.9316 -40.076,-39.56 -30.145,-66.133 9.9331,-26.571 39.56,-40.076 66.132,-30.144 z"
         style="fill-rule:evenodd;stroke:#000000;stroke-width:6.80865858;stroke-miterlimit:4;stroke-dasharray:none;stroke-opacity:0.12"
         inkscape:connector-curvature="0" />
      <path
         id="path213"
         d="m 460.56,247.54 c 15.598,5.8306 23.526,23.221 17.695,38.819 -5.8311,15.596 -23.22,23.524 -38.818,17.693 -15.598,-5.8296 -23.524,-23.22 -17.695,-38.818 5.8316,-15.597 23.224,-23.524 38.818,-17.694 z m -1.5249,4.0767 c 13.351,4.9893 20.132,19.872 15.145,33.219 -4.9917,13.347 -19.871,20.13 -33.218,15.141 -13.349,-4.9892 -20.132,-19.871 -15.145,-33.219 4.9912,-13.348 19.875,-20.131 33.218,-15.141 z"
         style="fill-rule:evenodd;stroke:#000000;stroke-width:6.80865858;stroke-miterlimit:4;stroke-dasharray:none;stroke-opacity:0.12"
         inkscape:connector-curvature="0" />
      <path
         id="path215"
         d="m 508.91,166.21 c 61.085,33.616 84.27,109.99 51.749,170.48 -32.518,60.492 -108.49,82.304 -169.57,48.689 -61.084,-33.615 -84.27,-109.99 -51.749,-170.48 32.52,-60.491 108.49,-82.303 169.57,-48.688 z m -2.1377,3.98 c 58.867,32.395 81.209,106 49.868,164.29 -31.337,58.293 -104.55,79.315 -163.42,46.92 -58.869,-32.396 -81.21,-106 -49.87,-164.29 31.337,-58.294 104.55,-79.314 163.42,-46.919 z"
         style="fill-rule:evenodd;stroke:#000000;stroke-width:6.80865858;stroke-miterlimit:4;stroke-dasharray:none;stroke-opacity:0.12"
         inkscape:connector-curvature="0" />
      <path
         id="path217"
         d="m 523.74,334.4 c 0.0713,0.64893 -0.15137,2.2461 0.15137,2.6128 0.31347,0.49755 1.4834,0.3916 1.9902,0.21582 1.3848,-0.52051 2.7627,-2.3501 3.4023,-3.7217 0.4502,-0.69629 0.75293,-1.5117 0.6543,-2.4238 l -0.96875,-2.9346 c -0.24219,-1.0293 -0.56738,-2.8384 -1.665,-3.2656 0.10254,-0.27246 0.4502,-0.69824 0.40918,-1.0884 -0.25391,-1.1597 -2.1914,-0.85498 -2.8838,-0.003 -0.34863,0.42578 -0.25,1.3354 -0.32519,1.8672 -0.0195,1.0542 -0.31446,3.1826 -0.73438,4.1401 -0.41992,0.95557 -1.5967,2.2441 -1.6123,3.2978 0.083,0.7793 0.91992,1.23 1.582,1.3037 z m -64.48,-8.1416 0.34424,0.75684 c 0.0151,0.13037 0.17041,0.37841 0.30273,0.36718 0.87793,0.8418 2.1079,-1.1089 0.63965,-1.3701 -0.13233,0.0112 -0.40479,-0.0967 -0.52197,0.0454 -0.25733,0.0244 -0.51856,0.0474 -0.76465,0.20068 z m 0.97265,-1.9263 c -0.59423,0.57715 -0.81005,0.9917 0.15528,1.4302 l -0.15528,-1.4302 z m -15.66,-11.47 c -0.95361,0.87207 -0.88134,0.34229 -1.3696,0.64893 -0.36329,0.29297 -0.0605,0.66016 -0.39356,1.2163 -0.10254,0.27246 -0.48047,0.4375 -0.45019,0.69824 -0.0874,0.40137 0.3291,0.62647 0.73388,0.72119 0.53369,0.083 2.0928,-0.0552 2.5806,-0.36133 0.48096,-0.4375 0.2915,-0.94628 0.51123,-1.3608 0.11719,-0.1416 0.34814,-0.42529 0.46533,-0.56738 0.0566,-0.66211 -1.3398,-1.457 -2.0776,-0.99512 z m 37.6,-4.0303 0.13965,1.2998 -0.15137,1.0654 c 1.415,-0.25928 2.2861,-0.73047 3.542,-1.2378 0.375,-0.16455 1.124,-0.4956 1.415,-0.25879 0.417,0.22705 0.19727,0.63916 0.0947,0.91162 -0.2041,0.54297 -1.0137,1.5366 -1.3623,1.9624 -1.0557,1.1445 -2.6143,1.2847 -3.9316,2.4541 -0.70801,0.7207 -0.89649,1.394 -1.6084,2.1152 -0.70703,0.71875 -1.2148,0.89698 -1.5781,1.1919 -0.34765,0.42578 -0.0566,0.66211 -0.79394,1.1221 l 0.41992,-0.95557 c -0.40137,-0.0967 -0.92383,-0.0493 -1.2266,-0.41797 -0.16993,-0.37646 -0.21192,-0.76855 -0.125,-1.1694 0.17871,-0.8042 0.34082,-2.9214 0.80664,-3.4893 0.11718,-0.1416 1.1279,-0.4956 1.502,-0.66016 l -0.17383,0.8042 c 0.38965,-0.0342 1.0371,-0.0928 1.2822,-0.24609 0.63672,-0.18896 1.2754,-1.561 1.6084,-2.1152 l -1.7627,0.6831 c 0.30664,-0.81543 1.1768,-2.4692 1.9033,-3.0596 z m -34.856,3.9146 c -0.26465,1.2075 0.47314,0.74561 0.91943,1.2319 0.2876,0.23632 0.32959,0.62646 0.37109,1.0181 l -1.0254,0.22315 -0.45068,0.69629 -0.5791,0.70947 1.7598,0.49951 c -0.88134,0.34082 -1.415,0.25732 -1.979,1.0977 l 2.206,-0.19873 c 1.4419,0.002 2.5244,0.29882 3.8828,-0.48096 l -0.2876,-0.23633 0.39355,-1.2183 -0.97998,-0.56787 -0.34472,-0.75684 -1.6499,-1.9546 -0.54834,-0.21387 c 0.46534,-0.56738 1.4038,-1.5723 0.064,-1.8447 l -0.66211,-0.0718 0.5791,-0.70947 c -0.79492,-0.0586 -1.457,-0.13086 -2.0513,0.44824 -0.69629,0.84961 -0.71533,1.9019 0.38233,2.3291 z m -0.76807,-16.877 -0.0303,0.92139 -0.30274,-0.3667 0.0376,1.5723 c 0.23096,0.90039 1.2412,0.54688 1.4722,0.2627 0.24609,-0.15283 0.31787,-0.68652 0.2915,-0.9458 -0.0264,-0.25928 -0.18555,-0.50879 -0.3291,-0.62647 -0.27637,-0.10791 -0.40527,-0.0962 -0.66602,-0.0737 l -0.0835,-0.77929 -0.38965,0.0356 z m -107.03,8.2896 c -0.0513,1.9751 0.46875,1.9277 0.90967,3.5967 0.229,0.89893 -0.13233,1.1938 0.583,2.9688 0.34424,0.75879 0.55616,1.5269 1.3774,1.8467 -0.23633,-2.2119 -0.50733,-3.5005 -1.249,-5.5361 -0.52978,-1.2661 -0.93457,-1.3604 -1.3623,-2.9009 l -0.25879,0.0249 z m 179.44,-21.61 c -0.62011,0.31787 -0.83984,0.73194 -0.76855,1.3809 -0.0605,0.66407 0.51465,1.1372 1.1504,0.94825 0.88183,-0.34082 1.0332,-2.5884 -0.38184,-2.3291 z m -122.78,-0.28418 c -0.31983,0.68702 -0.38037,1.3491 0.32519,1.811 -0.0698,-0.64893 0.11914,-1.3247 -0.32519,-1.811 z m 38.36,0.63233 0.4331,0.35547 c 0.95362,-0.87403 1.1582,-1.419 1.8545,-2.2686 0.57861,-0.70947 0.96875,-0.74365 1.3301,-1.0386 0.23047,-0.28418 0.20215,-0.54492 0.28907,-0.94629 0.20459,-0.54492 0.58105,-0.70947 0.48437,-1.6196 0.0459,-0.79248 -0.4707,-1.9282 -1.3657,-1.7168 l -0.20068,-0.63867 c -0.38965,0.0347 -1.0254,0.22315 -1.3867,0.51758 -0.36133,0.2959 -0.17627,0.80469 -0.65284,1.2417 -0.5791,0.70801 -1.5894,1.0615 -1.8354,1.2148 -0.37647,0.16651 -0.20411,0.54492 -0.81348,0.99365 -0.85156,0.60157 -1.4136,0.25733 -1.919,0.43506 -0.63574,0.1875 -1.5776,1.1919 -2.0547,1.6289 -0.69629,0.84961 -0.89844,1.3945 -1.19,2.3408 -0.10205,0.27051 -0.31982,0.68457 -0.16259,0.93457 0.15674,0.24805 0.54687,0.21191 0.79443,0.0586 0.50537,-0.17578 1.6177,-0.80029 2.023,-0.70556 0.3877,-0.0361 0.54639,0.21338 0.8208,0.31982 0.40332,0.0942 0.6626,0.0718 0.93652,0.17774 0.27246,0.10791 0.5752,0.47461 0.8628,0.71142 0.69092,0.33106 1.3872,-0.51855 1.5913,-1.0615 0.10205,-0.27246 0.20263,-0.54492 0.16113,-0.93457 z m 0.75488,-10.053 0.0151,0.13038 -0.146,-0.11817 0.13086,-0.0122 z m 1.1504,0.94776 c 0.34424,0.75781 1.6118,1.563 2.3311,2.1562 0.2456,-0.15332 0.36132,-0.29541 0.46338,-0.5669 0.31982,-0.68603 0.17968,-1.9878 -0.5127,-2.3198 -0.41602,-0.2251 -0.92334,-0.0478 -1.2978,0.1167 -0.0151,-0.12988 -0.18555,-0.5083 -0.3291,-0.62744 -1.022,-0.95899 -2.3008,1.7832 -0.65479,1.2412 z m -5.4321,-1.7451 c 0.87598,0.84082 0.89112,0.97022 2.0606,0.86524 -0.17822,0.80419 -1.2188,2.0806 -2.0703,1.5005 -0.56006,-0.34423 -0.6167,-0.86474 -0.88916,-0.97168 -0.41797,-0.22509 -0.4502,0.69727 -0.68116,0.98047 -0.55273,0.96924 -1.4756,0.92139 -1.5664,2.5059 l 0.4917,-0.30859 c 0.49951,1.0068 1.4268,-0.12647 2.0493,-0.44531 -0.11572,0.14209 -0.34814,0.42675 -0.44873,0.69726 -0.0908,0.40283 0.34278,0.75879 0.71924,0.59229 0.37451,-0.16504 0.82471,-0.8628 1.1846,-1.1582 0.36328,-0.29394 0.4917,-0.30566 0.86817,-0.47216 0.36132,-0.29395 0.83838,-0.73096 1.2017,-1.0264 1.0859,-0.88526 1.1406,-0.36524 1.521,-1.7134 -0.0303,-0.25977 0.0869,-0.40186 0.0586,-0.66211 -0.51661,-1.1362 -2.3779,-0.18066 -2.5239,-0.29785 l -0.8081,-0.19141 c -0.27247,-0.10693 -0.7793,0.0703 -1.167,0.10547 z m 6.0015,-0.27539 -0.64893,0.0576 0.17237,0.37842 c 0.76611,-0.19971 1.2847,-0.24707 1.3169,-1.1694 -0.64941,0.0586 -0.77979,0.0698 -0.84033,0.7334 z m -40.909,2.4868 -0.60205,2.9453 0.26904,1.2886 0.54101,2.5786 c 0.33301,-0.5542 0.93067,-2.3159 0.99122,-2.978 l 0.14794,-1.0654 c 0.0454,-0.7915 0.14747,-1.063 -0.19677,-1.8208 l -0.84033,0.73193 -0.0513,-1.7026 -0.25879,0.0225 z m 42.254,-3.397 c -0.083,-0.78076 0.0605,-0.66162 0.72266,-0.59033 l -0.009,-1.313 c -0.37646,0.16504 -0.89502,0.21241 -1.2583,0.50684 -0.5791,0.7085 -0.50684,1.3604 0.54492,1.3965 z m -3.8599,-1.7549 0.44482,0.48535 c 0.89502,-0.21191 1.1826,0.0244 1.9902,0.21533 l -0.31592,-0.49755 0.33301,-0.55518 c 0.77978,-0.0688 0.84033,-0.73242 0.51123,-1.3594 -0.14404,-0.11866 -0.41846,-0.2251 -0.56201,-0.34424 -1.3984,-0.79297 -1.5308,0.40088 -1.8638,0.95605 l -0.5376,1.0996 z m 3.3623,-0.43359 c 0.25928,-0.0234 0.52051,-0.0464 0.76612,-0.19922 0.47705,-0.4375 0.20849,-1.7275 -0.21192,-1.9522 -0.40283,-0.0952 -0.62011,0.31787 -0.59179,0.57813 l -0.0889,0.40332 0.0698,0.6499 0.0566,0.52002 z m -41.749,3.2207 c 0.46338,-0.56689 0.62451,-1.5015 0.68506,-2.1641 -0.8667,0.47314 -0.7832,1.2529 -0.68506,2.1641 z m 4.6016,-8.4268 c 0.125,1.1714 -0.0225,2.2354 -0.43115,3.3228 -0.52246,1.23 -1.7827,2.9194 -2.0474,4.1245 l -0.30078,-0.36719 c -0.56592,0.83936 -0.63037,2.6851 -0.27051,3.5718 0.70752,-0.72022 0.87012,-1.6548 1.3052,-2.4819 0.85743,-1.7842 2.002,-3.3315 2.4409,-5.3423 0.0757,-0.53223 0.18164,-1.9873 -0.13623,-2.4839 -0.15722,-0.24902 -0.2876,-0.23681 -0.56006,-0.34375 z m 118.26,3.4458 c 0.68164,-0.98144 0.86328,-2.9668 1.124,-4.1743 0.61718,-2.8135 1.9189,-4.1123 1.54,-7.626 -0.083,-0.78027 -0.38184,-2.3301 -1.3164,-2.5098 -1.457,-0.13134 -0.85938,1.7852 -0.94629,2.187 0.042,0.39111 -0.0606,0.66259 -0.16309,0.93506 -0.63867,1.3706 -0.33984,2.9204 -0.31738,4.3633 l -0.27637,4.7544 0.35547,2.0703 z m -21.032,-22.417 c 0.0264,0.25977 0.16992,0.37891 0.3291,0.62696 0.14355,0.11914 0.28808,0.2373 0.43164,0.35595 0.83594,0.4502 1.2715,-0.37646 0.95312,-0.87451 -0.15429,-0.24853 -0.68847,-0.33203 -0.94921,-0.3081 -0.25782,0.0234 -0.51856,0.0464 -0.76465,0.1997 z m 19.428,-2.269 c 0.125,1.1714 0.59473,3.1006 1.0977,4.106 l 1.1465,2.1304 1.3545,4.0825 c 0.69629,-0.85059 0.32618,-1.8686 0.0986,-2.7676 -0.58594,-1.7866 -1.4307,-3.5503 -2.1338,-5.1943 -0.48828,-0.87597 -0.84375,-1.7646 -1.5635,-2.3569 z m -7.1787,-2.1143 -0.10547,1.4541 -1.7754,-0.62939 c -0.0293,0.92383 0.38281,2.3315 1.1172,3.0532 l 1.4258,1.0547 c 1.1504,0.94824 2.3164,2.0264 3.3496,3.1152 0.9082,1.1016 0.94922,1.4922 1.2637,1.9888 0.28809,0.23633 0.5752,0.47412 0.9502,0.3086 0.24609,-0.15332 0.30664,-0.81543 0.4082,-1.0879 l 0.43555,-0.82715 c 0.18945,-0.67334 -0.31055,-1.6792 -0.63965,-2.3071 l -0.85938,-1.8931 c -0.35937,-0.88769 -0.57519,-1.6567 -1.1768,-2.3906 -1.0215,-0.95947 -1.8008,-0.88965 -2.8799,-1.1875 l -1.5137,-0.65186 z m -36.132,1.7964 c -0.0762,0.53271 -0.12109,1.3257 -0.75683,1.5137 -0.12891,0.0117 -0.66211,-0.0718 -0.80664,-0.19092 l -0.49512,1.4902 c -0.21973,0.41308 -0.62842,1.501 -0.58301,1.8921 -0.0605,0.66113 0.84766,0.57959 1.3096,0.0132 0.48047,-0.43701 0.54102,-1.0996 0.87403,-1.6548 0.53711,-1.0991 1.5322,-1.5835 1.6533,-2.9072 l -1.1953,-0.15625 z m 40.253,-4.9258 c 0.38672,1.1484 0.65821,1.2554 1.291,2.2495 0.3291,0.62744 0.24219,1.0293 1.0059,0.82959 -0.45703,-0.61572 -1.7324,-2.7349 -2.2969,-3.0791 z m -54.459,6.9883 c -1.457,-0.13135 -0.49561,1.4902 -0.68506,2.1636 -0.31787,0.68604 -1.7783,1.7368 -2.4858,1.2744 -0.375,0.16552 -0.76465,0.20068 -1.1694,0.10498 -0.40137,-0.0957 -0.68897,-0.33203 -1.0786,-0.29688 l -2.0698,1.4995 c -0.36328,0.29493 -0.85156,0.60157 -1.3735,0.64795 -0.38623,0.0352 -0.9082,0.0811 -1.1392,0.36621 -0.36328,0.29395 -0.019,1.0518 0.15528,1.4302 l 0.6167,0.86475 c -1.2715,0.37646 -1.1733,1.2866 -1.0483,2.459 0.0718,0.6499 0.32177,2.9922 0.50732,3.501 0.2002,0.63965 1.0518,1.2197 1.7256,1.4209 0.41992,0.22656 1.082,0.29736 1.4717,0.26318 l 0.0908,-1.5854 0.39013,-0.0342 0.40088,1.2783 c 0.12891,-0.0127 0.38965,-0.0352 0.51856,-0.0474 l 1.6157,0.38135 c 0.14404,0.11816 0.14404,0.11816 0.2876,0.23632 0.17041,0.37842 -0.14746,1.0645 -0.10596,1.4551 0.22705,0.89844 1.1655,1.0776 1.9453,1.0073 -0.019,1.0522 0.083,0.78076 0.0225,1.4429 0.0718,0.65088 -0.31787,0.68603 0.48438,2.0586 0.15918,0.24805 0.48828,0.87598 0.87793,0.84082 0.38965,-0.0347 1.1997,-1.0273 2.0664,-1.499 0.20019,0.63818 0.21533,0.76904 0.77539,1.1133 l -0.18897,0.67334 1.4756,-0.92041 c -0.43897,2.0098 -1.2749,1.5591 -2.187,2.8232 -0.32178,0.68652 -0.1211,1.3252 -0.31055,1.999 l 0.14404,0.11817 0.4917,-0.30664 0.375,-0.16455 c 1.1538,-0.23584 0.25733,1.1587 0.28369,1.4189 0.0415,0.39112 0.31787,0.49658 0.59033,0.60449 l -0.60937,0.44776 0.35937,0.88818 -2.3384,0.20996 c -1.1543,0.23487 -2.1118,1.1089 -3.0806,1.8525 l 0.0303,0.26026 0.40137,0.0952 -2.2402,1.1211 c 0.67724,0.20069 1.5591,-0.14013 2.21,-0.19873 0.63574,-0.18896 0.51855,-0.0454 1.2866,-0.24756 l 0.41601,0.22706 -0.0757,0.53173 2.8535,0.9253 c 0.67725,0.20215 1.1694,-0.1045 1.5894,0.12109 0.56006,0.34424 0.37061,1.0176 1.3091,1.1953 1.0786,0.29737 1.9341,-0.3042 2.8272,-0.51611 l -1.0562,1.1465 0.48828,0.87598 1.2715,-0.37646 c -0.94238,1.0029 -0.89697,0.21191 -2.7134,0.37451 0.4165,0.2251 1.6538,0.77002 1.9302,0.87793 0.67725,0.20263 1.0366,-0.0947 1.9902,0.21582 0.80615,0.18896 1.7861,0.75879 2.0474,-0.44873 0.15869,0.25 0.31787,0.49804 0.46142,0.61718 0.417,0.2251 0.67774,0.20215 1.083,0.29688 0.53321,0.0835 1.7969,0.88916 1.7402,1.5518 -0.11719,0.1416 -0.23438,0.28369 -0.34766,0.42578 -0.1748,-0.38037 -0.34473,-0.75684 -0.64746,-1.124 -0.74512,-0.85352 -1.8887,-0.48829 -2.8267,-0.66797 l -1.8887,-0.48633 -1.4566,-0.13233 c -0.79101,-0.0605 -1.2378,-0.54492 -2.0171,-0.47509 -0.26123,0.023 -0.63574,0.1875 -0.60546,0.44824 0.0264,0.25928 0.31396,0.49805 0.458,0.61523 0.83594,0.4502 0.53321,0.083 1.8013,0.88916 0.70362,0.46192 0.94971,0.3086 1.627,0.51075 l 0.69238,0.333 c 0.53369,0.0835 0.63574,-0.18896 1.1694,-0.10595 0.25733,-0.0225 0.79102,0.0605 1.0669,0.16845 l -2.2549,0.98975 -1.7295,-0.23828 c 0.34424,0.75683 0.48828,0.87598 -0.0908,1.5835 l -0.31787,-0.4956 c -0.34814,0.42383 -0.31787,0.68506 -0.66601,1.1104 l -0.57911,0.70801 c -0.10205,0.27246 -0.45019,0.69824 -0.71142,0.7207 -0.38965,0.0361 -0.83252,-0.45019 -1.124,-0.68652 -0.56005,-0.34473 -0.8208,-0.32178 -1.4565,-0.13281 0.47656,0.7456 0.72266,0.59228 1.4111,0.92334 0.56397,0.34423 2.002,1.5288 2.4487,2.0151 -0.13281,0.0112 -0.26123,0.0229 -0.36328,0.29541 -0.23095,0.28369 0.0225,1.4434 0.3252,1.8086 0.2876,0.23828 0.56396,0.34423 0.94971,0.31054 l -1.5474,1.4531 c 0.67725,0.20019 0.92334,0.0474 1.4985,0.52197 l -1.2983,0.11524 -1.7139,-1.29 -1.7861,-0.76075 c 0.66601,0.0718 1.7178,0.10987 2.3384,-0.20996 1.1128,-0.62451 0.583,-1.8901 -0.27979,-2.6016 -0.56006,-0.34473 -0.95019,-0.30859 -1.6123,-0.38037 -0.53369,-0.0835 -1.3545,-0.40479 -1.877,-0.35791 l -1.415,0.25928 0.0908,-0.40284 c -0.40527,-0.0947 -0.54882,-0.21386 -0.9121,0.0815 -0.43165,-0.35596 -0.44288,-0.48438 -0.97657,-0.56787 l 0.0684,0.64892 -0.59033,-0.60351 -0.0566,0.66211 c -0.31787,-0.49756 -0.33301,-0.62598 -0.87793,-0.83985 l 0.43897,1.667 -0.21583,0.41407 c -0.72265,0.59033 -0.71533,1.9038 -0.62841,2.6851 0.1665,1.561 -0.18164,1.9868 -0.31397,3.1807 -0.0342,0.92139 0.26856,1.2886 0.019,2.626 -0.0718,0.53173 -0.56787,2.021 -0.7871,2.4355 l -0.57911,0.70752 -0.43505,0.82666 c -0.21973,0.41455 -0.57911,0.70948 -0.79834,1.124 -0.20459,0.54297 0.083,0.78125 0.24218,1.0293 0.21533,0.76807 -0.333,0.5542 0.57129,1.6572 l -0.46191,0.56592 0.51855,-0.0474 c -0.2915,0.94629 0.29883,1.5518 1.1919,1.3398 0.63574,-0.18945 1.332,-1.0391 1.5215,-1.7144 l 0.26123,-0.0229 1.748,2.8648 c 0.30273,0.36719 0.37451,1.0181 0.9082,1.1011 0.53369,0.0835 0.73438,-0.45947 0.95362,-0.87402 0.23095,-0.28369 0.47705,-0.43701 0.70751,-0.7207 0.32178,-0.68506 -0.31005,-1.6802 -0.24951,-2.3428 0.0718,-0.53125 0.43506,-0.82666 0.49561,-1.4888 -0.0981,-0.91015 -0.77588,-1.1128 -1.2222,-1.5991 -0.44678,-0.48437 -0.49951,-1.0044 -0.57129,-1.6553 -0.15527,-1.4326 0.58252,-1.8921 0.71875,-3.0859 0.0454,-0.79297 -0.40088,-1.2773 -0.45801,-1.7993 -0.0415,-0.39014 0.0454,-0.79102 0.43555,-0.82715 0.89649,-0.21192 1.0064,0.83056 1.0781,1.48 l -0.1211,1.3242 c -0.0718,0.53369 -0.29101,0.94629 -0.21924,1.5967 0.18555,0.50927 0.48828,0.87646 0.65821,1.2549 0.30273,0.3667 0.34472,0.75879 0.63232,0.99512 0.27246,0.10595 0.41602,0.22314 0.67725,0.20068 0.27246,0.10791 0.54492,0.21338 0.80615,0.19092 0.63574,-0.18945 1.29,-1.4307 1.8955,-1.877 0.36328,-0.29688 0.89697,-0.21192 1.2866,-0.24805 -0.21924,0.41455 -0.79834,1.124 -1.0293,1.4062 -0.4917,0.30615 -1.3887,0.51806 -1.4341,1.311 -0.27637,1.0767 1.1504,0.94776 1.1201,1.8691 -0.0605,0.6626 -1.0669,-0.1665 -1.3735,0.64893 -0.43506,0.82715 0.14014,1.3022 0.34033,1.9414 0.042,0.39013 -0.17382,0.80224 -0.26465,1.2056 -0.54882,0.96875 -1.0102,0.35352 -1.7485,0.81348 -0.62061,0.31982 -1.3018,1.2998 -1.9375,1.4893 -0.50293,0.17578 -0.93848,-0.18018 -1.3281,-0.146 -0.51855,0.0474 -0.95361,0.87598 -1.8164,0.16455 -0.87793,-0.8418 0.12109,-1.3242 -0.0947,-2.0942 l -0.52978,-1.2661 c -0.7378,0.45996 -1.4604,1.0522 -1.2183,2.0815 0.35938,0.88526 1.2222,1.5967 0.77198,2.293 -0.36328,0.29541 -1.1431,0.36524 -1.7485,0.81397 -0.73779,0.46142 -1.5059,1.8428 -1.752,1.998 -0.36328,0.29493 -0.75293,0.32911 -1.1123,0.62403 l -1.3057,1.2998 c -0.11377,0.14209 -0.11377,0.14209 -0.23096,0.28418 l -1.627,-0.51123 0.0981,0.91016 c -0.65087,0.0586 -0.65087,0.0586 -1.1846,-0.0244 -0.40087,-0.0967 -1.1958,-0.15527 -1.3999,0.3877 -0.21972,0.41455 0.8628,0.71142 1.1392,0.81738 1.6533,0.77197 1.979,2.5811 1.2715,3.3037 -0.47705,0.43506 -1.2983,0.11524 -1.8316,0.0322 -1.1997,-0.15527 -3.0879,-0.64356 -4.2686,-0.66797 -1.5596,0.13818 -1.0596,1.1445 -1.3623,1.9604 -0.0762,0.5332 -0.56787,0.83984 -0.65478,1.2412 -0.11768,0.1416 -0.10205,0.27246 -0.0874,0.40283 -0.0147,-0.13037 0.42773,1.5381 0.41259,1.4077 0.18555,0.50879 1.0977,0.42773 1.6314,0.51074 0.67334,0.20068 0.84766,0.58105 1.4072,0.92529 0.54883,0.21192 0.79492,0.0586 1.3018,-0.11719 1.166,-0.10595 2.2783,0.45215 4.0117,-0.49218 0.37451,-0.16455 0.73779,-0.45948 0.83984,-0.73194 0.34814,-0.42382 0.17432,-0.8042 0.65088,-1.2412 0.59424,-0.5791 1.7485,-0.81396 2.3574,-1.2622 0.47705,-0.43702 0.13281,-1.1938 1.0142,-1.5361 0.63574,-0.1875 1.3398,0.27442 2.2217,-0.0684 0.76416,-0.20068 1.5894,-1.0615 2.3574,-1.2617 0.7793,-0.0703 1.2637,0.80567 2.3462,1.103 l 4.2949,0.92676 c 0.13232,-0.0112 0.40478,0.0967 0.54882,0.21582 1.1504,0.94629 -0.50732,1.3584 -1.1431,1.5478 -0.50684,0.17578 -0.63575,0.18701 -1.1577,0.23438 0.14746,0.11767 0.15869,0.24804 0.30274,0.36718 0.54882,0.21387 1.873,0.35791 2.3535,-0.0796 0.23096,-0.28369 0.20459,-0.54492 0.16309,-0.93457 0.50293,-0.17578 0.74902,-0.3291 0.95361,-0.87402 -0.042,-0.38965 -0.21582,-0.76807 0.14746,-1.0635 0.23096,-0.28369 0.74903,-0.33105 1.1426,-0.36718 -0.60547,-0.73194 -1.0972,-0.42578 -1.8921,-0.48633 -0.40088,-0.0942 -0.56006,-0.34424 -0.96484,-0.43848 -0.38965,0.0356 -0.74903,0.33106 -1.2978,0.11719 -0.40479,-0.0967 -0.83643,-0.45215 -1.2373,-0.54688 -0.42041,-0.22509 -1.4873,-0.3916 -1.4268,-1.0542 0.10205,-0.27246 0.21924,-0.41406 0.47657,-0.43701 0.11767,-0.1416 0.24609,-0.15332 0.37841,-0.1665 l 0.18555,0.51123 c 1.3852,-0.51855 0.93457,0.17773 2.1343,0.33301 1.0786,0.29687 2.3501,-0.0796 3.4473,0.34814 0.67774,0.2002 0.45801,0.61475 1.0483,1.2183 0.71924,0.59424 1.7446,0.36914 2.6524,0.2876 -0.11328,0.14209 -0.24512,0.15527 -0.23047,0.28369 -0.21973,0.41455 0.0684,0.65088 0.34472,0.75684 0.97559,0.56982 2.4258,-0.61084 1.1846,-1.1558 l 1.9942,-0.9668 c -0.96485,-0.43896 -1.4424,-0.002 -2.71,-0.80811 0.65137,-0.0586 0.7793,-0.0698 1.2568,-0.50732 l 0.0752,-0.5332 2.1113,-1.1089 c -0.66894,1.1108 0.084,0.78125 0.33692,1.9414 0.65136,-0.0586 1.457,0.13037 2.1084,0.0737 0.50683,-0.17774 1.8916,-0.69629 2.2549,-0.9917 0.35937,-0.29492 0.45019,-0.69629 0.80957,-0.99121 l 1.5029,-0.66065 c 0.60937,-0.44824 1.0713,-1.0156 1.5361,-1.5835 0.23047,-0.28369 0.46192,-0.56739 0.86719,-0.47119 0.54492,0.21386 0.68457,1.5156 0.74121,2.0361 0.17383,0.37842 0.35938,0.88525 0.40137,1.2768 -0.0801,1.7144 -1.8809,2.0078 -2.9668,2.8931 -0.72266,0.59033 -1.2754,1.5591 -2.0283,1.8901 -0.96875,0.74365 -3.7432,1.7808 -5.0146,2.1572 l -2.6982,0.50489 c -0.62012,0.31982 -1.3428,0.91015 -1.5469,1.4531 -0.20507,0.54492 0.12403,1.1714 -0.49609,1.4893 -0.62109,0.31982 -3.2051,0.68115 -3.8677,0.61133 -1.0669,-0.16846 -0.70752,-0.46387 -2.2666,-0.32373 -1.4268,0.1289 -2.9707,0.39941 -4.4424,0.13623 0.23047,-0.28369 0.69629,-0.85157 0.7832,-1.2524 0.10205,-0.27247 -0.0415,-0.39161 -0.0718,-0.65088 -0.0117,-0.12891 -0.042,-0.38965 -0.18555,-0.50879 -0.30273,-0.36719 -1.3398,-0.27442 -1.7295,-0.23877 -0.89698,0.21191 -0.7378,0.45996 -2.1646,0.58838 l -4.7944,0.56201 c -2.335,0.20849 -4.2007,1.1655 -5.1089,1.2471 -0.65088,0.0586 -2.1079,-0.0737 -2.7852,-0.27637 -0.54834,-0.21387 -1.1235,-0.68847 -1.7446,-0.36865 -0.63574,0.18896 -0.83984,0.73193 -1.5889,1.061 -0.75341,0.33155 -2.1797,0.45997 -3.0352,1.0615 -0.85156,0.60205 -0.40674,1.0879 -1.4038,1.5708 -0.50537,0.17773 -2.2065,0.19824 -2.8569,0.25683 -1.4419,-10e-4 -2.165,0.58887 -3.4229,1.0957 l -1.3872,0.51855 c -0.50489,0.17578 -1.5308,0.39942 -1.748,0.81348 -0.21777,0.4126 0.0981,0.91016 0.14014,1.3018 0.0415,0.38965 -0.0459,0.79101 -0.13477,1.1938 -0.6792,0.98047 -2.4292,1.794 -2.1436,3.2148 0.22705,0.89892 0.76074,0.98193 1.7671,1.8106 1.3228,1.3267 2.312,3.209 3.7368,4.2632 1.8413,1.2808 4.5054,2.8814 6.7832,3.3335 l 3.9546,0.17041 c 2.1191,0.20263 3.7466,0.71533 5.9717,0.6455 l 4.8892,-0.83252 c 1.0405,-0.0928 2.5845,-0.36328 3.6665,-0.0664 1.0825,0.29687 1.2944,1.0669 3.2432,0.89111 l 2.7134,-0.37451 c 0.63574,-0.1875 1.1426,-0.36524 1.8316,-0.0322 1.6724,0.90088 -1.1616,2.5996 0.13232,3.667 0.71924,0.59229 3.0991,0.77198 4.0527,1.0801 0.6626,0.0723 2.751,1.1978 3.1982,1.6841 0.28711,0.23633 0.31347,0.49756 0.61621,0.86475 0.29882,0.36719 0.98047,0.56787 1.0215,0.95947 0.042,0.38965 -0.79785,1.1221 -1.0293,1.4058 -0.71093,0.7207 -2.0884,2.5522 -1.3125,3.665 0.30274,0.3667 1.124,0.68653 1.544,0.91163 l 3.7881,1.105 c 1.6416,0.6416 1.7822,1.9434 2.7773,2.6416 0.7041,0.46338 1.873,0.35742 2.7969,0.40674 l 3.9053,0.96289 c 1.3584,0.40527 0.79101,1.2432 1.8574,1.4097 2.252,0.19336 5.708,-1.8257 7.543,-3.0405 l 3.7275,-1.9111 c 1.4912,-0.79052 2.834,-1.7007 4.1777,-2.6089 2.5469,-1.9356 4.6318,-4.4883 5.8955,-7.3604 0.43555,-0.82666 1.669,-2.7778 1.7451,-3.3091 0.17383,-0.8042 -0.66309,-1.2549 -0.34082,-1.9394 0.41992,-0.95947 2.1152,-2.2935 2.5205,-3.3794 0.33692,-0.55616 0.23829,-1.4663 -0.32617,-1.8106 -0.54492,-0.21387 -0.9082,0.0811 -1.9902,-0.21582 0.81738,-2.1743 2.2969,-4.2783 3.5273,-6.229 0.56738,-0.8379 1.5811,-2.3745 1.6006,-3.4263 0.004,-1.1826 -1.0527,-1.2207 -1.4951,-1.7051 -0.43164,-0.35547 -0.33301,-0.62793 -0.60547,-0.73584 -0.54492,-0.21192 -1.415,0.25928 -1.9482,0.17578 -0.39063,0.0342 -0.67773,-0.20215 -0.9502,-0.30811 -0.41992,-0.22509 -0.92382,-0.0493 -1.3135,-0.0151 -0.58594,-1.7861 0.63574,-5.0483 1.2344,-6.8096 1.165,-3.7827 2.7246,-7.6025 2.1602,-11.624 l -0.59766,-3.0991 c -0.16992,-0.38037 -0.48437,-0.87598 -0.99121,-0.70019 -0.76465,0.20068 -1.4385,2.4941 -1.7559,3.1787 l -1.7559,3.1807 c -0.45019,0.69629 -0.74218,1.6426 -1.3359,2.2212 -0.47754,0.4375 -1.2305,0.7666 -1.8506,1.0845 -0.20117,-0.63769 -0.5752,-0.47314 -1.082,-0.29541 l -2.3545,1.2622 c -0.49121,0.30664 -1.46,1.0503 -2.1113,1.1089 -0.51856,0.0474 -0.82129,-0.31983 -1.585,-0.1211 -0.51856,0.0474 -1.4004,0.38965 -1.8057,0.29297 -0.5332,-0.083 -1.1084,-0.55615 -1.6426,-0.63916 -0.40039,-0.0967 -1.1689,0.10401 -1.5439,0.26856 -1.2988,0.11718 -3.3311,-0.49024 -4.6738,-0.7627 0.2461,-0.15332 0.50684,-0.17578 0.48047,-0.43701 0.18945,-0.67334 -0.84766,-1.7632 0.42383,-2.1401 0.1289,-0.0112 0.38965,-0.0356 0.51855,-0.0469 l 2.2207,-0.0684 1.2881,-0.24609 c 0.66211,0.0723 0.83594,0.45068 1.7441,0.36914 l 3.1904,-0.81153 c 1.3018,-0.11767 1.8272,1.1504 3.1748,0.24024 1.0976,-0.75489 2.1309,-3.3452 2.5244,-4.562 l 1.1348,-2.8608 0.43945,-2.0093 c 0.49512,-1.4912 0.94531,-2.1875 0.76367,-3.8789 l -0.26465,-2.4731 c -0.11328,-1.0405 -0.32519,-1.8106 -1.3965,-0.79444 -0.82813,0.8628 -1.1201,1.8086 -2.4443,1.665 -0.35156,1.6084 -0.1289,3.6895 -1.7334,4.6226 -0.60937,0.44824 -1.2861,0.24561 -1.918,0.43506 -0.37891,0.16455 -0.8711,0.47314 -1.1436,0.36523 -0.38965,0.0337 -0.67676,-0.20263 -0.71875,-0.59228 0.0723,-0.53174 0.9541,-0.87402 1.332,-1.0391 1.2568,-0.50684 1.8926,-0.69629 2.8193,-1.8296 0.56348,-0.83985 0.62402,-1.5024 1.0742,-2.1987 0.46191,-0.56739 0.86718,-0.47266 1.3291,-1.0386 0.34766,-0.42578 0.9873,-1.7974 1.3203,-2.352 l 1.5889,-4.7412 c 0.76855,-1.3833 2.0557,-1.6294 2.3926,-3.3682 l 0.20019,0.63964 c 1.374,-0.64892 1.3623,-1.9619 1.0938,-3.2505 0.7793,-0.0703 2.3652,0.0493 3.001,-0.13819 l 2.9473,-1.8408 c 0.73829,-0.46191 1.9531,-1.3589 2.127,-2.1631 0.2041,-0.54297 -0.63965,-2.3062 -0.94239,-2.6733 -0.15527,-0.24805 -0.29882,-0.36719 -0.57519,-0.47315 -0.67774,-0.20215 -1.5703,0.01 -2.0586,-0.8667 -0.60547,-0.73388 -1.2754,-3.3013 -1.7744,-4.3081 -1.0752,-2.6621 -1.1465,-2.1304 -1.6504,-3.1362 -0.3291,-0.62696 -0.26855,-1.2896 -0.34082,-1.9404 -0.18457,-0.50782 -0.4873,-0.875 -0.51367,-1.1362 -0.0576,-0.52002 0.30566,-0.81543 0.6543,-1.2402 0.54882,-0.96972 0.46484,-1.75 1.0596,-2.3291 0.47656,-0.43701 0.89648,-0.21094 1.1123,-0.625 0.79883,-1.1221 -1.1309,-2 -0.48047,-3.2412 0.33301,-0.55566 1.2754,-1.5591 1.9258,-1.6182 0.50391,-0.17579 0.92383,0.0483 1.4268,-0.12745 0.49219,-0.30761 0.52637,-1.23 0.73047,-1.7739 0.50684,-1.3594 1.3018,-1.2988 1.4951,-3.1548 0.0605,-0.66259 0.0908,-1.5859 -0.22364,-2.0825 -0.60547,-0.73486 -1.457,-0.13232 -1.6611,0.41163 -0.45019,0.69628 -0.35156,1.6084 -0.26855,2.3887 -0.0459,0.79199 -0.19336,1.856 -0.64356,2.5532 -0.54883,0.96973 -1.6728,0.28223 -1.9902,-0.21436 -0.15528,-0.24902 -0.0527,-0.5205 -0.083,-0.78173 0.0186,-1.0527 -0.28418,-1.419 -0.0195,-2.625 0.0723,-0.53272 0.56738,-2.022 0.41308,-2.2705 -0.0459,-0.39063 -1.2383,-1.7275 -1.5371,-2.0957 -0.58984,-0.60352 -1.6533,-1.9536 -2.6367,-1.3394 -0.86719,0.47119 -0.68555,2.1636 -0.84766,3.0972 -0.0879,0.40185 -0.26563,1.206 -0.65527,1.2412 -0.24219,0.15332 -0.67676,-0.20264 -0.96094,-0.43897 -0.73438,-0.72265 -1.1807,-1.208 -1.3057,-2.3794 0.40137,0.0947 1.4834,0.39258 1.5586,-0.14014 -0.0566,-0.52002 -0.67285,-1.3848 -1.1953,-1.3374 -0.53321,-0.0835 -0.60547,0.44824 -1.3135,-0.0132 -0.5752,-0.47412 -1.8506,-2.5933 -2.4561,-3.3276 -0.75976,-0.98291 -1.8955,-1.8003 -3.0078,-2.3574 -0.67383,-0.20117 -2.8652,-1.0566 -3.4736,-0.60742 -0.24609,0.15332 -0.20508,0.54296 -0.30664,0.81445 -0.14356,-0.11719 -0.28809,-0.23633 -0.54492,-0.21338 -0.93848,-0.17822 -1.2148,0.89746 -1.2754,1.5601 0.0264,0.25976 0.083,0.78125 -0.292,0.9458 -0.37793,0.16455 -0.66601,-0.0718 -0.9541,-0.30908 -0.7041,-0.46192 -0.71875,-0.59229 -1.6689,-0.90088 0.18554,0.50879 0.37109,1.0181 0.68554,1.5146 0.76368,0.98291 1.2822,0.93554 1.1611,2.2612 -1.0938,-0.42774 -2.3311,-0.97266 -3.0801,-1.8262 l 1.0107,-0.35352 -0.0273,-0.25928 c -0.41602,-0.22607 -1.8428,-1.2803 -1.8994,-1.8003 -0.042,-0.39063 0.47657,-0.43799 0.43555,-0.82813 0.0908,-0.40185 -0.3291,-0.62695 -0.125,-1.1709 0.34766,-0.42578 1.1006,-0.75586 1.044,-1.2764 -0.0303,-0.26025 -0.31739,-0.49658 -0.58985,-0.60352 -0.56055,-0.34423 -1.5557,-1.0425 -2.1494,-0.46435 -0.47657,0.43701 -0.11719,1.3242 -0.38184,2.5303 -0.40527,-0.0942 -1.0976,-0.42724 -1.499,-0.52197 -0.53321,-0.0835 -1.1543,0.23437 -1.8467,-0.0967 -0.95313,-0.30908 -1.294,-1.0669 -2.1152,-1.3877 -1.5137,-0.65185 -2.7852,-0.27441 -4.2002,-0.0161 -0.64746,0.0576 -1.6885,0.15137 -2.3086,0.46924 -0.49218,0.30762 -0.71191,0.7207 -0.92773,1.1343 -0.57812,0.70947 -1.7217,1.0737 -1.6074,2.1142 0.22656,0.89991 1.0215,0.96045 1.3086,1.1958 l 0.8291,1.6348 c -0.89355,0.21094 -1.3135,-0.0132 -2.0889,0.0562 l -3.0767,0.66944 c -1.5742,0.0107 -2.0625,-0.86524 -3.0274,-1.3042 -0.54492,-0.21387 -0.93457,-0.1792 -1.3545,-0.4043 -0.43164,-0.35449 -0.47314,-0.74512 -0.61719,-0.86475 -0.30273,-0.36572 -1.627,-0.51074 -2.0166,-0.47558 0.0264,0.26123 0.0415,0.39062 -0.18945,0.67334 -0.21924,0.41455 -1.332,1.04 -1.8506,1.0864 -0.2456,0.15332 -0.65088,0.0586 -0.92334,-0.0483 l 0.0723,-0.53271 c 0.0606,-0.66113 -0.32959,-0.62647 -0.83252,-0.4502 -0.76856,0.2002 -1.23,0.76709 -1.8394,1.2158 0.21973,-0.41357 0.42383,-0.95752 0.77198,-1.3823 0.47705,-0.43701 1.1128,-0.62646 1.7334,-0.94434 l 1.9639,-1.227 c 0.4917,-0.30664 1.2451,-0.63769 1.6045,-0.93261 1.0859,-0.88575 1.313,-3.6641 1.0293,-5.084 -2.0093,0.83594 -1.4761,0.91944 -2.8345,1.6987 -0.4917,0.30664 -0.75293,0.33057 -1.1274,0.49512 -0.35987,0.2959 -0.45069,0.69824 -0.5376,1.0991 z m 13.782,-4.7832 1.2793,0.93652 0.97559,1.751 c 0.75,-0.33008 0.85156,-0.60157 1.3594,-0.77832 0.24512,-0.15332 1.8613,0.22705 1.4863,-0.79004 -0.14355,-0.11914 -0.28711,-0.23731 -0.43066,-0.35547 l -0.0869,0.40185 c -0.43164,-0.35547 -1.0068,-0.82959 -1.5557,-1.0434 -0.54883,-0.21289 -2.3809,-0.17969 -3.0273,-0.12207 z m 4.3975,0.65673 c 1.8164,-0.16259 1.502,-0.66064 2.543,-0.75341 0.50293,-0.17774 1.3086,0.0137 1.8428,0.0967 l -0.0723,0.53173 c 1.0938,0.42774 1.0254,-0.22314 1.832,-0.0332 0.82128,0.3208 1.3242,1.3276 2.6787,1.7305 0.54492,0.21484 0.82129,0.3208 1.3135,0.0142 0.31348,0.49756 0.44629,0.48633 0.96485,0.43896 0.0605,-0.6621 0.43457,-0.82763 0.26074,-1.206 -0.16992,-0.37939 -1.54,-0.91309 -1.6572,0.41211 -0.46191,-0.6167 -0.21582,-0.77002 -0.38574,-1.1475 -0.46191,-0.6167 -1.3848,-0.66504 -2.0215,-0.47656 -0.26856,-1.2896 -0.0977,-0.91114 -1.8955,-1.8003 -0.56348,-0.34375 -1.8008,-0.88965 -2.4668,-0.96142 -0.79101,-0.0605 -0.99512,0.4834 -1.6162,0.80224 -0.34766,0.42578 -0.75293,0.33008 -1.1123,0.62549 -0.34864,0.42481 -0.26465,1.2061 -0.20801,1.7266 z m 27.443,-5.7476 1.6426,1.8242 c 0.61719,0.86377 1.2334,1.7285 1.9678,2.4502 0.57519,0.47412 1.3965,0.79492 2.1611,0.59521 0.50684,-0.17724 2.0391,-1.7598 0.78711,-2.436 -0.41699,-0.22461 -1.041,0.0937 -1.4268,0.12842 0.0303,-0.92237 -0.0264,-1.4429 -0.2539,-2.3423 -0.0264,-0.26025 -0.083,-0.78027 -0.59082,-0.60351 -0.62012,0.31884 0.11035,2.2231 -0.87012,1.6543 l -0.41602,-0.22509 -0.43164,-0.35547 c -0.46484,0.5664 0.083,0.78027 0.53028,1.2656 0.57519,0.4751 1.0176,0.96045 1.1045,1.7407 -1.4111,-0.92529 -1.4941,-1.7046 -2.4024,-2.8057 -0.58691,-0.60449 -1.0186,-0.96045 -1.8018,-0.89062 z m 5.6348,-1.293 c 0.35547,0.8872 1.748,2.8647 2.7022,3.1728 -0.64746,-1.124 -1.4795,-2.7578 -2.7022,-3.1728 z m -96.149,9.5464 c 0.38965,-0.0347 0.91015,-0.0815 1.1689,-0.10498 l 3.3872,1.0098 c 0.93848,0.17871 1.8618,0.22754 2.4785,1.0913 -1.688,0.15234 -1.3281,-0.14356 -2.668,-0.417 -1.1958,-0.15527 -1.5591,0.14014 -2.4824,0.0908 -0.5337,-0.0835 -0.80616,-0.18995 -1.2109,-0.28467 l -3.4775,0.57422 c -0.92334,-0.0483 -1.124,-0.68702 -1.6728,-0.90088 -0.56006,-0.34424 -1.0669,-0.16748 -1.5591,0.14013 -0.87793,0.3418 -1.7329,0.94336 -2.5864,1.5459 -1.5913,1.0615 -3.4263,2.2778 -4.5713,3.8257 -0.79639,1.1221 -0.59766,1.7617 -1.3945,2.8838 -0.80957,0.99219 -2.6753,1.9478 -3.9356,3.6382 -0.91357,1.2642 -0.83056,2.0444 -1.1768,2.4702 -0.23291,0.28272 -1.8374,1.2158 -2.2139,1.3804 -0.37451,0.16456 -0.76416,0.19971 -1.0103,0.35401 -0.36133,0.29492 -0.5791,0.70849 -0.79834,1.1226 l -1.2866,1.4287 c -0.33301,0.55517 -1.6841,2.647 -1.7578,3.1797 -0.0322,0.92236 1.4551,1.3149 0.66992,2.5674 -0.11572,0.14111 -0.23096,0.2832 -0.34668,0.42578 -0.85303,0.60156 -1.082,-0.29785 -1.7441,-0.36963 -0.8081,-0.19043 -2.0093,0.83691 -2.7285,0.24463 -0.44629,-0.48535 -0.25538,-1.1587 -0.31006,-1.6797 -0.20069,-0.63867 -0.48828,-0.87549 -0.67383,-1.3843 -0.33106,-0.62841 -0.0679,-1.8345 -0.98779,-3.0654 -0.47266,-0.74511 -1.0195,-0.95898 -1.4414,-4.8e-4 l -0.30664,0.81445 c -0.51465,-1.1352 -0.22363,-2.0815 -1.1621,-2.2612 -1.1953,-0.1543 -1.5606,1.3237 -2.2568,2.1738 -1.7373,2.127 -2.0264,1.8901 -3.3569,2.9282 l -1.7651,1.8667 -1.1011,0.75586 c -0.59229,0.57861 -0.98584,1.7964 -1.2905,2.6118 l -1.2734,5.2383 c -0.27832,1.0747 -0.7456,2.8267 -1.8862,3.1899 -0.375,0.16455 -1.5591,0.14013 -1.9624,0.0454 -0.41797,-0.2251 -0.71875,-0.5918 -1.1221,-0.68848 -0.38965,0.0361 -1.4302,0.12842 -2.395,-0.31055 -0.57519,-0.47265 -1.3359,-1.4565 -1.8848,-1.6684 -0.54688,-0.21582 -1.0669,-0.16846 -1.5854,-0.1211 -0.65088,0.0566 -1.5591,0.13965 -2.0928,0.0566 -1.3545,-0.4038 -2.229,-2.4277 -2.7436,-3.564 -0.18506,-0.50879 -0.52978,-1.2666 -0.94775,-1.4917 -0.5752,-0.47412 -1.2695,0.37646 -1.9468,0.1748 -0.53369,-0.084 -1.7144,-1.291 -2.4048,-1.624 -0.14404,-0.11865 -0.57714,-0.47314 -0.82128,-0.31982 -0.25928,0.0225 -0.33497,0.55615 -0.43555,0.82666 -0.0186,1.0532 0.271,1.2896 0.87256,2.0244 0.14355,0.11768 0.59033,0.60401 0.22705,0.89893 -0.60547,0.44824 -1.4795,-1.5752 -2.1606,-0.59424 -0.10254,0.27246 -0.0874,0.40234 -0.20459,0.54297 l -0.25927,0.0239 -0.62793,-2.1768 -0.0967,-0.91114 -0.87403,-2.0234 -1.0708,1.0156 -0.25586,-1.1597 -0.35742,-0.8872 c -0.20068,-0.63868 -0.71875,-0.59229 -1.2109,-0.28614 -0.96875,0.74463 -1.6387,1.8555 -2.2441,2.3037 -0.73779,0.46094 -1.2998,0.1167 -1.8047,0.29346 -0.62061,0.31885 -1.0562,1.1455 -1.2471,1.8203 l -0.99903,5.3442 c -0.86474,4.1509 -1.417,5.1196 -0.94043,9.5435 l 0.52588,2.4487 0.49414,3.3716 0.44092,1.6685 0.26074,-0.0244 c -0.18164,-1.6914 -0.12842,-4.8496 0.35205,-6.4688 0.46924,-1.7485 1.2188,-2.0796 1.2564,-4.1855 l 0.31055,1.6821 c 0.70947,-0.72315 0.65429,-1.2432 1.6499,-1.7256 0.33105,0.62598 0.47461,0.74561 0.68848,1.5156 0.20068,0.63721 0.25537,1.1577 0.58642,1.7861 0.32959,0.62597 0.60205,0.73388 0.91797,1.2314 0.30274,0.36524 0.50147,1.0049 0.68652,1.5137 0.35987,0.8877 0.64356,2.3086 1.7236,2.6055 0.42236,-0.95752 0.29736,-2.1284 0.3125,-3.1821 0.10205,-0.27246 0.14941,-1.0635 0.39355,-1.2168 0.63574,-0.18946 0.89307,0.9707 0.93457,1.3604 0.3711,1.0181 0.6416,2.3086 1.2583,3.1709 0.64502,1.126 1.1524,0.94824 1.9961,2.7114 l 0.19092,-0.67334 c 0.35791,0.88721 -0.0923,1.5854 0.88769,2.1533 -0.0566,-0.5205 -0.1626,-2.7436 0.0527,-3.1582 0.10254,-0.27246 0.49219,-0.30664 0.75342,-0.3291 l 0.60547,4.4121 c 0.0547,0.52051 0.25342,1.1602 0.55615,1.5273 0.73389,0.72266 1.5874,0.11914 1.9165,0.74707 l 0.51269,2.3179 c 0.44092,1.669 1.0562,3.7163 1.7407,5.23 0.5166,1.1367 1.2036,2.6524 2.0815,3.4927 0.30273,0.36719 0.74756,0.85352 1.2524,0.67529 0.50732,-0.17578 0.30664,-0.81543 0.39356,-1.2163 0.0757,-0.53173 0.31982,-0.68505 0.40869,-1.0879 0.0605,-0.66259 -0.15528,-1.4326 0.17773,-1.9868 -0.17383,0.8042 0.0986,0.91015 0.18359,1.6914 0.11182,1.0405 0.36719,2.2007 0.73975,3.2168 0.55664,1.5288 0.9707,2.9346 1.9038,4.2969 0.61865,0.86474 2.0435,1.9184 2.9062,2.6299 1.1807,1.207 2.3442,2.2856 3.769,3.3394 l 1.6992,1.1621 1.4111,0.9253 c 1.2529,0.67529 1.3853,-0.52051 2.1646,-0.58887 0.40479,0.0947 1.8276,1.1484 2.2593,1.5044 2.1875,2.0376 1.4683,1.4458 2.978,3.2808 l 3.4058,3.6348 c 0.87793,0.84033 1.9678,2.4522 3.1655,2.6055 l 1.1978,0.15723 c 1.3398,0.27441 2.8384,0.79638 4.2383,0.40674 0.52051,-0.0474 0.88184,-0.34083 1.1143,-0.62452 0.34668,-0.42578 0.55078,-0.96875 1.0713,-1.0161 0.5332,0.0835 1.773,0.62842 2.3193,0.84375 1.3833,0.6626 3.3418,1.8013 4.812,2.0625 1.4717,0.26318 2.5278,-0.8833 2.2856,-1.9126 -0.37109,-1.0181 -1.9263,-2.0605 -2.7568,-3.6934 -0.8042,-1.3721 -1.3604,-2.8989 -2.2803,-4.1309 l -2.1113,-2.5693 -1.2642,-1.9888 -0.6167,-0.86426 c -0.1587,-0.24805 -0.38575,-1.147 -0.42774,-1.5386 l -1.4453,-3.6802 c -0.65869,-1.2544 -1.9604,-1.1372 -2.8042,-2.9004 0.60351,0.73389 1.7559,1.6821 2.5752,2.002 -0.3706,-1.0181 -1.2017,-2.6509 -1.8203,-3.5156 l -1.3223,-1.3262 c 0.71875,0.59179 1.2939,1.0669 2.2324,1.2446 l 0.27637,-1.0767 c 0.40869,-1.0879 0.7832,-1.2524 0.77392,-2.5654 -0.10791,-2.2231 -2.1611,-5.4551 -2.4541,-8.187 -0.12695,-1.1714 0.13623,-2.3765 0.27051,-3.5703 l 0.0361,-2.106 c -0.042,-0.39013 0.18897,-0.67578 0.26465,-1.2056 l -0.0244,-1.4434 c 0.17579,-0.8042 0.27784,-1.0767 0.19483,-1.8584 l -0.62842,-2.1758 -0.0376,-1.5742 -0.22509,-2.0811 c -0.16846,-1.561 0.67138,-2.2934 0.81933,-3.3569 0.0757,-0.5332 -0.59814,-1.9185 -0.88769,-2.1548 -0.41797,-0.2251 -1.311,-0.0132 -0.99317,-0.69825 0.31983,-0.68506 1.4985,0.52198 1.8013,0.88916 0.37842,-1.3472 0.0908,-1.5854 -0.16455,-2.7446 l -0.49414,-3.3716 c -0.22705,-0.89941 -0.80225,-1.3726 -0.8457,-1.7632 0.0889,-0.40234 0.47851,-0.4375 0.94043,-1.0039 0.46533,-0.56738 0.65478,-1.2412 0.71533,-1.9033 l 0.0225,-2.2358 c 0.146,-1.064 1.0444,-2.4585 2.1875,-2.8237 1.1543,-0.23437 2.333,0.97266 2.9819,0.91504 0.65088,-0.0591 0.96875,-0.74365 1.188,-1.1582 l 1.4985,-4.3384 0.26123,-0.0239 c 0.64502,1.126 1.3228,1.3272 2.1987,2.1685 l 0.74902,0.85254 c 0.14404,0.11816 0.39014,-0.0352 0.63574,-0.18848 0.46192,-0.56689 1.0181,-2.7188 0.68897,-3.3462 -0.18555,-0.50879 -0.76074,-0.98291 -0.96143,-1.6216 -0.0415,-0.39063 0.17627,-0.8042 0.39356,-1.2173 0.30664,-0.8164 0.46777,-1.7505 1.0596,-2.3291 1.1733,-1.2876 3.5117,-1.498 4.9365,-0.44287 0.72119,0.59229 0.63037,0.99414 0.93311,1.3613 0.44629,0.48535 1.0952,0.42773 1.3091,1.1968 0.0283,0.26025 -0.0303,0.92236 -0.11914,1.3242 0.085,0.78076 0.24023,1.0293 -0.0645,1.8447 -0.43505,0.82715 -1.1577,1.4175 -1.4512,2.3633 -0.40674,1.0879 0.25733,1.1602 0.0947,2.0938 -0.2915,0.94629 -1.001,1.667 -1.2925,2.6128 -0.33496,0.55566 -0.27783,1.0757 -0.8833,1.5244 -0.49219,0.30615 -1.2866,0.24658 -1.8052,0.29297 -0.76611,0.19971 -1.3735,0.64893 -1.9941,0.96728 0.0264,0.26075 0.0547,0.52002 0.21192,0.76905 0.21533,0.76904 0.86474,0.71045 1.4985,0.52197 1.0254,-0.22217 2.3838,-1.002 3.3926,-0.17285 0.87598,0.8418 1.1426,3.314 1.8901,4.166 0.71875,0.59229 1.2392,0.5459 2.0469,0.73633 0.54688,0.21387 0.96533,0.43897 1.3965,0.79444 1.0068,0.82861 0.68897,1.5146 1.1465,2.1299 0.43164,0.35449 0.8081,0.19189 1.2529,0.67627 l 1.9087,3.1123 1.3154,-1.1689 c 0.44629,0.48584 0.9668,0.43847 1.0254,-0.22363 -0.0415,-0.38965 -0.25342,-1.1577 -0.42773,-1.5381 0.87793,0.8418 0.94824,1.4927 0.94433,2.6753 0.0283,0.25928 -0.0737,0.53174 0.085,0.78174 0.0552,0.51807 0.68701,1.5137 1.1182,1.8691 0.56201,0.34229 0.93652,0.17774 1.4287,-0.12891 0.45019,-0.69628 0.71338,-1.9033 1.4077,-2.7529 0.58106,-0.70948 1.7349,-0.94385 2.7778,-2.2212 -0.27246,-0.10595 -1.0938,-0.42578 -1.0068,-0.82861 0.2041,-0.54297 0.98389,-0.61328 1.4756,-0.92041 0.72315,-0.59033 1.2754,-1.5601 1.4365,-2.4932 l -1.5879,-0.1211 -0.93653,-0.17871 -1.2998,0.11768 -1.2788,-0.93701 -1.8467,-0.0972 c 0.31787,-0.68506 0.53711,-1.0996 1.3169,-1.1694 0.38964,-0.0351 0.93652,0.17969 1.1826,0.0264 0.50489,-0.17773 0.44825,-0.69824 0.81153,-0.99316 0.69433,-0.85059 1.7178,-1.0737 1.8677,-2.1382 1.0669,0.16651 1.2998,-0.11621 1.8316,-0.0332 1.0952,0.42676 1.436,2.3672 1.9375,3.3735 -1.355,-0.40381 -1.0996,0.75537 -1.1318,1.6777 0.49219,-0.30664 1.0713,-1.0151 1.5762,-1.1924 l 1.7031,-0.0215 c 0.38964,-0.0351 0.50488,-0.17627 0.88183,-0.34179 0.89453,-0.21094 1.4849,0.39257 1.958,1.1382 0.49219,-0.30664 0.46387,-0.56738 0.14746,-1.0644 l 0.64941,-0.0586 -0.37109,-1.0166 c -0.64892,0.0576 -0.79492,-0.0606 -0.98389,0.61279 -0.56005,-0.34326 -0.56005,-0.34326 -1.2241,-0.41552 l 0.47852,-0.43604 -0.0303,-0.26123 c -1.1084,-0.55713 0.16308,-0.93359 0.35205,-1.6079 0.0889,-0.40234 -0.0679,-0.6499 -0.22705,-0.89892 l 1.6328,-0.67237 c 0.69433,-0.84961 1.2847,-0.24609 1.5762,-1.1924 1.3398,0.27441 0.89893,-1.394 1.9111,-1.748 0.24414,-0.15332 0.64698,-0.0576 0.90821,-0.0815 0.37451,-0.16455 0.74902,-0.3291 1.1274,-0.49463 0.51855,-0.0464 0.77978,-0.0688 1.2827,-0.24707 0.49219,-0.30615 0.94238,-1.0034 1.2905,-1.4282 0.23096,-0.28516 0.70752,-0.72119 0.81006,-0.99366 0.0869,-0.40185 -0.0835,-0.77929 -0.15137,-1.4312 0.5332,0.083 0.92334,0.0483 1.2676,-0.37646 0.36328,-0.29541 0.30664,-0.81592 -0.24219,-1.0293 -0.1289,0.0122 -0.51855,0.0474 -0.64697,0.0586 l 1.7935,-1.6064 0.35205,-1.6084 -0.50733,0.17676 0.17822,-0.8042 -1.4307,0.12891 c 0.23096,-0.2837 0.92725,-1.1343 1.1582,-1.418 0.60938,-0.44873 1.2715,-0.37647 1.5781,-1.1934 -1.2832,0.24707 -2.8608,1.4394 -3.6709,2.4316 l -1.2642,1.6894 0.0762,-0.53174 c -1.2715,0.37744 -1.1885,1.1582 -1.6807,1.4648 l -0.24561,0.15283 c 0.38965,-0.0347 -2.2212,0.0684 -1.8164,0.16406 -0.66407,-0.0723 -1.3833,-0.66406 -1.9585,-1.1392 -0.43311,-0.35498 -0.73242,-0.72168 -1.2241,-0.41455 l -2.4331,-1.8833 c 0.23047,-0.28369 0.34815,-0.42578 0.0605,-0.66309 -0.2876,-0.23681 -0.96484,-0.43896 -1.5268,-0.78271 -1.0088,-0.82861 -0.96143,-1.6216 -1.0884,-2.7925 -0.10938,-1.0405 -0.24219,-1.0293 -0.59766,-1.917 -0.17236,-0.3794 -0.20068,-0.63916 -0.50342,-1.0064 -0.30078,-0.36719 -1.0064,-0.82861 -1.438,-1.1846 -0.57519,-0.47315 -1.2939,-1.0659 -1.958,-1.1382 -0.93653,-0.17773 -1.6597,0.4126 -2.4692,0.22168 -0.67725,-0.20166 -1.5537,-1.0425 -2.3745,-1.3633 -0.5337,-0.0835 -1.1826,-0.0249 -1.7031,0.0215 -0.0283,-0.26026 -0.085,-0.78028 -0.35742,-0.88721 -0.41651,-0.2251 -1.1694,0.10498 -1.688,0.15137 -0.52002,0.0464 -0.69238,-0.33203 -1.0952,-0.42774 -0.40332,-0.0947 -2.2368,-0.0615 -2.4692,0.22168 -0.2461,0.15381 -0.0723,0.53223 -0.0454,0.79248 z m 92.827,-13.584 c 1.0635,1.3496 2.9629,3.1499 4.5635,3.4009 -0.47265,-0.74658 -0.87793,-0.84082 -1.4531,-1.3149 -0.84766,-0.58106 -2.2891,-1.7656 -3.1104,-2.0859 z m -10.399,-5.2412 -0.3291,-0.62744 c 0.54883,0.21289 1.0977,0.42675 1.4121,0.92431 0.16992,0.37842 0.2002,0.63867 0.24219,1.0293 0.083,0.78076 1.4492,2.4976 2.2402,2.5571 0.27539,0.10693 0.26074,-0.0225 0.52149,-0.0464 l -0.66993,-2.5674 c -0.30273,-0.36719 -0.67675,-0.20166 -1.123,-0.68701 l -2.7022,-3.1738 c -0.15918,-0.24902 -0.76074,-0.98291 -0.67383,-1.3843 0.23047,-0.28369 0.88184,-0.34228 1.1426,-0.36474 l -2.4746,-2.2744 c -0.28809,-0.2373 -0.73438,-0.72265 -1.2412,-0.5459 -0.50391,0.17676 -0.69336,0.85059 -0.91309,1.2637 -0.21582,0.41455 -0.56347,0.83935 -0.52246,1.23 0.18555,0.50927 0.77637,1.1128 1.0762,1.4795 l 2.3047,1.895 c 0.58985,0.60449 0.88867,0.97168 1.71,1.2925 z m 33.676,-0.26319 c -0.34082,-1.9404 -1.5898,-3.7983 -3.0537,-5.2432 l -2.3047,-1.8955 c -0.88965,-0.9707 -1.8506,-2.5923 -3.1602,-3.7891 -1.4375,-1.1846 -2.5195,-1.4814 -3.7988,-2.418 l -2.1758,-1.9072 -3.8828,-3.1987 c -1.0068,-0.82861 -2.2022,-2.1675 -2.9629,-3.1494 -0.77637,-1.1133 -0.55664,-1.5269 -1.0029,-2.0122 -0.30274,-0.36718 -1.3965,-0.79492 -1.9297,-0.87793 l 0.2041,-0.54394 -0.96484,-0.43897 c 0.53711,-1.0991 -0.21582,-0.76904 -0.97657,-1.751 -0.30273,-0.36719 -0.35546,-0.88868 -0.83203,-1.6338 -0.74609,-0.85254 -1.7412,-1.5518 -2.7178,-2.1201 l -4.7373,-2.5972 c -1.5293,-0.78222 -3.6192,-1.9092 -5.333,-2.0176 -1.3135,-0.0137 -2.1533,0.71875 -3.4404,0.96485 -1.1533,0.23535 -3.6475,0.19678 -4.4463,1.3188 -0.80957,0.99218 1.2188,2.7812 1.9531,3.5039 l 2.0547,2.0483 c 0.59082,0.60449 0.76074,0.98291 1.3623,1.7168 0.5791,0.47412 1.6992,1.1621 2.1611,1.7768 0.45801,0.61573 -0.30664,0.81641 0.30957,1.6802 0.47363,0.74561 1.6279,1.6934 1.9727,2.4512 0.18554,0.50879 0.26855,1.2896 0.70019,1.6455 0.41602,0.2251 0.9082,-0.0825 1.2978,-0.11768 0.63574,-0.18798 2.502,-1.1436 3.0615,-0.79931 0.56054,0.34326 2.4746,2.2734 2.9219,2.7598 0.28711,0.23633 0.87402,0.83985 0.78711,1.2432 0.0713,0.6499 -1.9756,-0.0864 -1.4873,0.78955 0.1582,0.24902 1.4111,0.92431 1.8428,1.2803 l 1.5967,1.4331 1.8545,1.4097 c 0.43164,0.35596 0.9043,1.1011 1.3242,1.3267 0.82129,0.32031 1.2412,-0.63672 1.9492,-0.1753 1.3809,0.66406 2.3721,2.5469 3.8106,3.731 0.97656,0.56885 1.2217,0.41553 2.043,0.73633 0.69239,0.33203 1.1396,0.81738 1.8428,1.2798 1.1094,0.55713 1.2002,0.15528 2.4941,1.2217 1.7256,1.4209 3.1943,2.8662 4.6738,4.4414 0.58984,0.60351 2.043,1.9185 2.7207,2.1201 0.12891,-0.0112 0.25684,-0.0225 0.38965,-0.0347 l 1.4873,-0.79004 c 0,0 0.13281,-0.0127 0.11719,-0.14209 0.0869,-0.40186 0.0303,-0.92236 0.11719,-1.3247 0.0908,-0.40185 0.33691,-0.55517 0.40918,-1.0879 0.0869,-0.40088 0.004,-1.1826 0.37793,-1.3472 0.3789,-0.16552 1.0976,0.42676 1.3701,0.53369 z m -31.68,-33.84 c -0.0566,-0.5205 -0.2002,-0.63867 -0.38574,-1.1475 -0.77637,-1.1128 -1.6387,-1.8232 -2.8652,-2.2397 -0.40039,-0.0942 -1.6113,-0.38037 -1.831,0.0332 -0.33301,0.55518 1.0781,1.4805 1.4941,1.7056 0.43164,0.35498 0.98047,0.56884 1.4121,0.9248 0.83593,0.4502 1.2373,0.54541 2.1758,0.72363 z m -50.88,-10.93 c 1.7183,0.10791 2.3652,0.0503 4.0073,0.69043 1.4985,0.52246 2.3765,1.3633 4.0947,1.4722 l -1.9263,-2.0606 1.0976,-0.75488 c -0.57519,-0.47412 -0.83252,-0.45117 -1.3965,-0.79443 -0.2876,-0.23682 -0.31397,-0.49756 -0.60157,-0.73438 -0.26123,0.0239 -0.9121,0.0815 -1.1694,0.10498 -0.76807,0.19971 -1.4004,0.38916 -2.2817,0.73047 -0.76855,0.19971 -1.79,0.42285 -1.8242,1.3462 z m 7.875,-3.5967 c -0.18945,0.67334 -0.82519,0.86182 -1.4341,1.3101 0.14356,0.11816 0.15869,0.24902 0.30274,0.36719 0.41992,0.22509 2.5542,0.55908 3.0879,0.64306 1.313,0.0137 1.3584,-0.77832 2.9023,-1.0488 l 1.9336,-0.30469 c 1.8164,-0.16358 4.2988,-0.2544 5.9185,-1.0566 -0.6167,-0.86377 -1.0064,-0.83008 -1.9565,-1.1382 -1.4868,-0.39257 -3.0728,-0.51269 -4.5898,0.0171 -1.4004,0.38868 -1.3438,0.90918 -3.1636,1.0728 l -3.001,0.13818 z m -27.587,222.66 c -30.334,-6.4766 6.1704,1.2852 0,0 z"
         inkscape:connector-curvature="0"
         style="stroke:#000000;stroke-width:6.80865858;stroke-miterlimit:4;stroke-dasharray:none;stroke-opacity:0.12" />
    </g>
  </g>
</svg>
