<?xml version="1.0" encoding="UTF-8" standalone="no"?>
<svg
   xmlns:dc="http://purl.org/dc/elements/1.1/"
   xmlns:cc="http://creativecommons.org/ns#"
   xmlns:rdf="http://www.w3.org/1999/02/22-rdf-syntax-ns#"
   xmlns:svg="http://www.w3.org/2000/svg"
   xmlns="http://www.w3.org/2000/svg"
   xmlns:xlink="http://www.w3.org/1999/xlink"
   xmlns:sodipodi="http://sodipodi.sourceforge.net/DTD/sodipodi-0.dtd"
   xmlns:inkscape="http://www.inkscape.org/namespaces/inkscape"
   id="svg3759"
   height="96"
   width="96"
   version="1.1"
   inkscape:version="0.91 r13725"
   sodipodi:docname="preferences-system-search.svg">
  <sodipodi:namedview
     pagecolor="#ffffff"
     bordercolor="#666666"
     borderopacity="1"
     objecttolerance="10"
     gridtolerance="10"
     guidetolerance="10"
     inkscape:pageopacity="0"
     inkscape:pageshadow="2"
     inkscape:window-width="1366"
     inkscape:window-height="716"
     id="namedview23"
     showgrid="false"
     inkscape:zoom="3.4766083"
     inkscape:cx="28.758633"
     inkscape:cy="68.102025"
     inkscape:window-x="0"
     inkscape:window-y="24"
     inkscape:window-maximized="1"
     inkscape:current-layer="svg3759" />
  <metadata
     id="metadata37">
    <rdf:RDF>
      <cc:Work
         rdf:about="">
        <dc:format>image/svg+xml</dc:format>
        <dc:type
           rdf:resource="http://purl.org/dc/dcmitype/StillImage" />
        <dc:title></dc:title>
      </cc:Work>
    </rdf:RDF>
  </metadata>
  <defs
     id="defs3761">
    <linearGradient
       id="linearGradient3874"
       y2="24"
       gradientUnits="userSpaceOnUse"
       y1="24"
       gradientTransform="matrix(0,-1,-1,0,48,48)"
       x2="43.5"
       x1="4.5">
      <stop
         id="stop3415"
         style="stop-color:#ddd"
         offset="0" />
      <stop
         id="stop3417"
         style="stop-color:#f2f2f2"
         offset="1" />
    </linearGradient>
    <linearGradient
       id="linearGradient3937"
       y2="32.176609"
       gradientUnits="userSpaceOnUse"
       y1="16.842962"
       gradientTransform="matrix(2.3938285,0,0,2.3938285,-9.4547011,-10.663909)"
       x2="24.509785"
       x1="24.424822">
      <stop
         id="stop3914"
         style="stop-color:#5d5d5d"
         offset="0" />
      <stop
         id="stop3916"
         style="stop-color:#989898"
         offset="1" />
    </linearGradient>
    <linearGradient
       inkscape:collect="always"
       xlink:href="#linearGradient3874"
       id="linearGradient4162"
       x1="4.179934"
       y1="48"
       x2="91.820068"
       y2="48"
       gradientUnits="userSpaceOnUse" />
  </defs>
  <circle
     style="opacity:1;fill:url(#linearGradient4162);fill-opacity:1;stroke:#000000;stroke-width:1;stroke-miterlimit:4;stroke-dasharray:none;stroke-dashoffset:0;stroke-opacity:0.12000002"
     id="path4151"
     cx="48"
     cy="48"
     r="42.5" />
  <path
     inkscape:connector-curvature="0"
     d="m 52.784243,22.84969 c -10.576652,0 -19.150628,8.573975 -19.150628,19.150628 0,3.966334 1.226598,7.640861 3.291515,10.697541 0.01149,0.017 -0.01149,0.05776 0,0.07481 L 25.105601,64.592194 c -1.351938,1.3218 -1.397014,3.810018 -0.07481,5.161573 1.322183,1.35158 3.810496,1.322566 5.161573,0 L 42.086822,57.859312 c 3.05644,2.064917 6.731207,3.291514 10.697541,3.291514 10.576652,0 19.150628,-8.573975 19.150628,-19.150628 0,-10.576652 -8.573976,-19.150628 -19.150628,-19.150628 z m 0,7.181485 c 6.610318,0 11.969143,5.358825 11.969143,11.969143 0,6.610318 -5.358825,11.969142 -11.969143,11.969142 -6.610318,0 -11.969142,-5.358824 -11.969142,-11.969142 0,-6.610318 5.358824,-11.969143 11.969142,-11.969143 z"
     style="color:#000000;text-indent:0;text-transform:none;block-progression:tb;fill:url(#linearGradient3937);enable-background:new;stroke:#000000;stroke-opacity:0.12"
     id="path27918-2" />
</svg>
