<?xml version="1.0" encoding="UTF-8" standalone="no"?>
<svg
   xmlns:dc="http://purl.org/dc/elements/1.1/"
   xmlns:cc="http://creativecommons.org/ns#"
   xmlns:rdf="http://www.w3.org/1999/02/22-rdf-syntax-ns#"
   xmlns:svg="http://www.w3.org/2000/svg"
   xmlns="http://www.w3.org/2000/svg"
   xmlns:sodipodi="http://sodipodi.sourceforge.net/DTD/sodipodi-0.dtd"
   xmlns:inkscape="http://www.inkscape.org/namespaces/inkscape"
   id="svg2"
   height="100%"
   width="100%"
   version="1.1"
   viewBox="0 0 16 16"
   inkscape:version="0.91 r13725"
   sodipodi:docname="drive-removable-media-usb-symbolic-1.svg">
  <defs
     id="defs10" />
  <sodipodi:namedview
     pagecolor="#ffffff"
     bordercolor="#666666"
     borderopacity="1"
     objecttolerance="10"
     gridtolerance="10"
     guidetolerance="10"
     inkscape:pageopacity="0"
     inkscape:pageshadow="2"
     inkscape:window-width="640"
     inkscape:window-height="480"
     id="namedview8" />
  <metadata
     id="metadata10">
    <rdf:RDF>
      <cc:Work
         rdf:about="">
        <dc:format>image/svg+xml</dc:format>
        <dc:type
           rdf:resource="http://purl.org/dc/dcmitype/StillImage" />
        <dc:title />
      </cc:Work>
    </rdf:RDF>
  </metadata>
  <g
     id="g3854">
    <path
       id="path4707-3"
       style="color:#bebebe;fill:#bebebe"
       d="m7 3v2.6062l-2.7382 2.0696c-0.1591 0.0963-0.2633 0.162-0.2618 0.3242v1h-1v3h3v-3h-1v-0.5l2-1.75v6.25h-2l3 3 3-3h-2v-7.65l2 1.4v2.25h1v-2.5c0.002-0.1529-0.026-0.3456-0.169-0.4435l-2.831-2.0565v-1z" />
    <path
       id="path3792"
       style="fill:#bebebe"
       d="m4 3.2255a1.2972 1.2255 0 1 1 -2.5945 0 1.2972 1.2255 0 1 1 2.5945 0z"
       transform="matrix(1.5417 0 0 1.428 3.833 -2.8561)" />
    <path
       id="path3813"
       style="fill:#bebebe"
       d="m4 3.2255a1.2972 1.2255 0 1 1 -2.5945 0 1.2972 1.2255 0 1 1 2.5945 0z"
       transform="matrix(1.1563 0 0 1.224 8.3748 5.5519)" />
  </g>
</svg>
