<?xml version="1.0" encoding="UTF-8" standalone="no"?>
<svg
   xmlns:dc="http://purl.org/dc/elements/1.1/"
   xmlns:cc="http://creativecommons.org/ns#"
   xmlns:rdf="http://www.w3.org/1999/02/22-rdf-syntax-ns#"
   xmlns:svg="http://www.w3.org/2000/svg"
   xmlns="http://www.w3.org/2000/svg"
   xmlns:sodipodi="http://sodipodi.sourceforge.net/DTD/sodipodi-0.dtd"
   xmlns:inkscape="http://www.inkscape.org/namespaces/inkscape"
   id="svg3063"
   height="16"
   width="16"
   version="1.1"
   inkscape:version="0.91 r13725"
   sodipodi:docname="folder-recent-symbolic.svg">
  <defs
     id="defs9" />
  <sodipodi:namedview
     pagecolor="#ffffff"
     bordercolor="#666666"
     borderopacity="1"
     objecttolerance="10"
     gridtolerance="10"
     guidetolerance="10"
     inkscape:pageopacity="0"
     inkscape:pageshadow="2"
     inkscape:window-width="640"
     inkscape:window-height="480"
     id="namedview7" />
  <metadata
     id="metadata3075">
    <rdf:RDF>
      <cc:Work
         rdf:about="">
        <dc:format>image/svg+xml</dc:format>
        <dc:type
           rdf:resource="http://purl.org/dc/dcmitype/StillImage" />
      </cc:Work>
    </rdf:RDF>
  </metadata>
  <g
     id="g3065"
     style="fill:#ccc"
     color="#bebebe"
     transform="matrix(.32739 0 0 .38611 -16.511 -1.682)"
     stroke-width="2.813"
     fill="#bebebe">
    <path
       id="path3067"
       style="fill:#ccc"
       d="m77.57 6.9454c-11.317 0-20.631 6.3194-21.649 15.54h-5.4896l8.1077 8.6332 8.1077-8.6332h-5.2925c1.0013-6.7222 7.8903-11.035 16.215-11.035 9.013 0 16.328 6.1042 16.328 13.625-0.000003 7.5212-7.3149 13.625-16.328 13.625-4.89 0-9.2808-1.7999-12.274-4.645l-3.968 3.069c3.9818 3.7358 9.7842 6.0808 16.244 6.0808 11.997 0 21.733-8.1221 21.733-18.13s-9.7364-18.13-21.733-18.13z" />
    <path
       id="path3069"
       style="fill:#ccc"
       d="m78.94 13.852h-2.0363l-2.0363 12.086 10.182 6.9065 0.000002-1.7266-6.1089-6.9065-0.000002-10.36z" />
  </g>
</svg>
