<?xml version="1.0" encoding="UTF-8" standalone="no"?>
<svg
   xmlns:dc="http://purl.org/dc/elements/1.1/"
   xmlns:cc="http://creativecommons.org/ns#"
   xmlns:rdf="http://www.w3.org/1999/02/22-rdf-syntax-ns#"
   xmlns:svg="http://www.w3.org/2000/svg"
   xmlns="http://www.w3.org/2000/svg"
   xmlns:sodipodi="http://sodipodi.sourceforge.net/DTD/sodipodi-0.dtd"
   xmlns:inkscape="http://www.inkscape.org/namespaces/inkscape"
   id="svg3186"
   height="16"
   width="16"
   version="1.1"
   inkscape:version="0.91 r13725"
   sodipodi:docname="start-here-frugalware-symbolic.svg">
  <defs
     id="defs8" />
  <sodipodi:namedview
     pagecolor="#ffffff"
     bordercolor="#666666"
     borderopacity="1"
     objecttolerance="10"
     gridtolerance="10"
     guidetolerance="10"
     inkscape:pageopacity="0"
     inkscape:pageshadow="2"
     inkscape:window-width="640"
     inkscape:window-height="480"
     id="namedview6" />
  <metadata
     id="metadata3200">
    <rdf:RDF>
      <cc:Work
         rdf:about="">
        <dc:format>image/svg+xml</dc:format>
        <dc:type
           rdf:resource="http://purl.org/dc/dcmitype/StillImage" />
      </cc:Work>
    </rdf:RDF>
  </metadata>
  <path
     id="path3192"
     d="m3.7234 0.011c-0.3225 0.0445-0.5916 0.3008-0.6814 0.636l-3.021 11.289c-0.11975 0.44692 0.16636 0.90238 0.61328 1.0221l11.289 3.021c0.44692 0.11975 0.90238-0.16636 1.0221-0.61328l3.021-11.289c0.12-0.4471-0.166-0.9026-0.613-1.0223l-11.289-3.021c-0.1116-0.0299-0.2331-0.0375-0.3406-0.0227zm-0.1817 2.9074h8.9039c0.35234 0 0.636 0.28365 0.636 0.636v8.9039c0 0.35234-0.28365 0.636-0.636 0.636h-8.9039c-0.35234 0-0.636-0.28365-0.636-0.636v-8.9036c0-0.35234 0.28365-0.636 0.636-0.636z"
     style="color:#000000;fill:#ccc" />
  <path
     id="path3194"
     d="m3.5417 2.9184c-0.35234 0-0.636 0.28365-0.636 0.636v8.9039c0 0.35234 0.28365 0.636 0.636 0.636h8.9039c0.35234 0 0.636-0.28365 0.636-0.636v-8.9036c0-0.35234-0.28365-0.636-0.636-0.636h-8.9043zm6.6323 2.1806v1.4537h-2.9072v0.72685h2.1806v1.4537h-2.1806v2.1806h-1.4537v-5.8148h4.3611z"
     style="color:#000000;fill:#333" />
</svg>
