<?xml version="1.0" encoding="UTF-8" standalone="no"?>
<svg
   xmlns:dc="http://purl.org/dc/elements/1.1/"
   xmlns:cc="http://creativecommons.org/ns#"
   xmlns:rdf="http://www.w3.org/1999/02/22-rdf-syntax-ns#"
   xmlns:svg="http://www.w3.org/2000/svg"
   xmlns="http://www.w3.org/2000/svg"
   xmlns:sodipodi="http://sodipodi.sourceforge.net/DTD/sodipodi-0.dtd"
   xmlns:inkscape="http://www.inkscape.org/namespaces/inkscape"
   height="16"
   width="16"
   id="svg3141"
   version="1.1"
   inkscape:version="0.91 r13725"
   sodipodi:docname="start-here-debian-symbolic.svg">
  <metadata
     id="metadata3153">
    <rdf:RDF>
      <cc:Work
         rdf:about="">
        <dc:format>image/svg+xml</dc:format>
        <dc:type
           rdf:resource="http://purl.org/dc/dcmitype/StillImage" />
      </cc:Work>
    </rdf:RDF>
  </metadata>
  <defs
     id="defs3151" />
  <sodipodi:namedview
     pagecolor="#ffffff"
     bordercolor="#cccccc"
     borderopacity="1"
     objecttolerance="10"
     gridtolerance="10"
     guidetolerance="10"
     inkscape:pageopacity="0"
     inkscape:pageshadow="2"
     inkscape:window-width="640"
     inkscape:window-height="480"
     id="namedview3149"
     showgrid="false"
     inkscape:zoom="3.6875"
     inkscape:cx="23.331387"
     inkscape:cy="11.189689"
     inkscape:window-x="0"
     inkscape:window-y="24"
     inkscape:window-maximized="0"
     inkscape:current-layer="svg3141" />
  <path
     style="fill:#cccccc"
     inkscape:connector-curvature="0"
     id="path3147"
     d="M 7.6757151,0.00359099 C 6.5839449,-0.05374792 5.6541223,0.56541908 4.791801,1.0524735 3.9155879,1.6205483 3.1436103,2.4009168 2.723125,3.3833235 2.7178107,3.3956304 2.6991639,3.4000124 2.694036,3.4124125 1.7197407,4.602731 1.5160244,6.2061693 1.6159712,7.6666799 1.576386,9.6863148 2.2554633,11.738768 3.5681047,13.289809 c 1.2523191,1.55216 3.1238984,2.724297 5.1861413,2.709566 a 0.12298497,0.12298497 0 0 0 0.029136,0 0.12298497,0.12298497 0 0 0 0.029136,0 0.12298497,0.12298497 0 0 0 0.029136,-0.02914 0.12298497,0.12298497 0 0 0 0.029136,-0.02914 0.12298497,0.12298497 0 0 0 0,-0.02914 0.12298497,0.12298497 0 0 0 0,-0.02914 0.12298497,0.12298497 0 0 0 0,-0.02914 0.12298497,0.12298497 0 0 0 0,-0.02914 0.12298497,0.12298497 0 0 0 -0.029136,-0.02914 0.12298497,0.12298497 0 0 0 -0.029136,-0.02914 0.12298497,0.12298497 0 0 0 -0.029136,0 c -0.9472574,-0.161294 -1.7854311,-0.736548 -2.593024,-1.281967 -0.00509,-0.0051 -0.024035,0.0051 -0.029136,0 C 5.5732884,13.895084 4.919718,13.409335 4.5003515,12.736185 4.1266696,12.127367 3.9011366,11.419721 3.655465,10.72606 a 0.12298497,0.12298497 0 0 0 0,-0.02914 0.12298497,0.12298497 0 0 0 -0.029136,-0.02914 C 3.0213339,10.020745 2.6564161,9.1853685 2.6939894,8.3080366 2.5045379,6.7059968 2.954019,4.9921694 4.0050459,3.7628791 4.0140896,3.7523437 4.0250912,3.7442323 4.0341349,3.7337901 4.80835,3.2209099 5.5056471,2.5789938 6.3358959,2.2478266 7.1700885,1.6949024 8.2240709,1.5452618 9.2203694,1.6068429 c 0.00967,5.979e-4 0.019467,-6.341e-4 0.029136,0 1.793915,0.2390146 3.380478,1.8368962 3.554546,3.6419065 a 0.12298497,0.12298497 0 0 0 0,0.029136 0.12298497,0.12298497 0 0 0 0,0.029136 c 0.09704,0.2051428 0.06907,0.4553176 0.02914,0.7283906 -0.03731,0.2551815 -0.06402,0.5280401 0.02914,0.7866619 0.0065,0.018128 -0.008,0.040305 0,0.058271 C 12.641796,8.6747259 10.587786,10.085356 8.8416062,9.5317329 8.1182876,9.2726822 7.5538582,8.6328639 7.2682825,7.9001379 6.9826695,7.1674118 7.0024351,6.3425707 7.4430962,5.6858304 8.1090387,4.7781414 9.5282747,4.466889 10.473201,5.1031179 a 0.12298497,0.12298497 0 0 0 0.02914,0 0.12298497,0.12298497 0 0 0 0.02914,0 0.12298497,0.12298497 0 0 0 0.02914,0 0.12298497,0.12298497 0 0 0 0.02914,0 0.12298497,0.12298497 0 0 0 0.02984,-0.029182 0.12298497,0.12298497 0 0 0 0.0289,-0.029089 0.12298497,0.12298497 0 0 0 0,-0.029136 0.12298497,0.12298497 0 0 0 0,-0.029136 0.12298497,0.12298497 0 0 0 0,-0.029136 0.12298497,0.12298497 0 0 0 0,-0.029136 C 10.307245,4.4194329 9.59214,4.183178 8.9879836,4.1999601 8.0028732,4.2027851 7.113887,4.8432561 6.7154049,5.7150126 5.9722273,7.0462076 6.4643537,8.875179 7.7933764,9.6483686 c 0.011841,0.0069 0.017164,0.022423 0.029136,0.029136 0.00448,0.00839 -0.00382,0.021565 0,0.029136 -0.049927,-0.023122 -0.097206,-0.05966 -0.1456781,-0.087407 -0.033518,-0.019188 -0.063185,-0.044062 -0.087407,-0.058271 -0.012111,-0.00709 -0.019439,0.00541 -0.029136,0 -0.0097,-0.00541 -0.030767,-0.020278 -0.058271,-0.029136 a 0.12298497,0.12298497 0 0 0 -0.029136,0 c -0.00541,-0.0042 -0.02342,0.00438 -0.029136,0 -0.04286,-0.033117 -0.068853,-0.07978 -0.1165425,-0.1165425 -0.044901,-0.034618 -0.078839,-0.060947 -0.1165425,-0.087407 -0.018852,-0.01323 -0.041247,-0.01902 -0.058271,-0.029136 -0.017024,-0.010116 -0.018861,-0.020847 -0.058271,-0.029136 -0.00494,-0.00103 -0.022348,5.622e-4 -0.029136,0 -0.00681,-5.622e-4 -0.028576,-5.69e-5 -0.029136,0 -5.584e-4,5.68e-5 -0.028697,-1.716e-4 -0.029136,0 -4.401e-4,1.715e-4 -0.028819,0.028847 -0.029136,0.029136 -3.179e-4,2.899e-4 -0.02894,0.028725 -0.029136,0.029136 -1.94e-4,4.112e-4 6.62e-5,0.05774 0,0.058271 -6.62e-5,5.351e-4 -7.813e-4,0.021173 0,0.029136 0.0113,0.045023 0.014862,0.06738 0.029136,0.087407 0.028548,0.040053 0.075081,0.096842 0.1456781,0.1748137 0.5359463,0.5115188 1.227985,0.7608638 1.9521335,0.8740688 0.020745,0.0033 0.037489,0.02615 0.058271,0.02914 0.027933,0.0064 0.058961,-0.0057 0.087407,0 0.3223473,0.06424 0.6821559,0.09383 0.9323404,0.05827 l -0.0289,-0.11561 -0.02984,-0.116543 c -0.2657167,0.0662 -0.5370276,-0.01026 -0.8446998,-0.05874 1.5355638,0.158498 3.1708888,-0.5771187 3.9624448,-1.9224853 0.0089,-0.010153 0.02053,-0.018852 0.02914,-0.029136 0.439039,-0.524404 0.567441,-1.2236031 0.844933,-1.7481375 a 0.12298497,0.12298497 0 0 0 0,-0.029136 0.12298497,0.12298497 0 0 0 0,-0.029136 c 0.08059,-0.7481469 0.0062,-1.5041441 -0.262221,-2.2143075 -0.0051,-0.017342 0.0036,-0.013611 0,-0.029136 -0.02873,-0.124197 -0.01118,-0.2148764 0,-0.233085 0.01258,-0.020486 0.01368,-0.011146 0.05827,0 0.08919,0.022292 0.242473,0.1597005 0.233085,0.3787631 a 0.12298497,0.12298497 0 0 0 0,0.029136 c 0.01645,0.1123377 0.02008,0.1833167 0.02913,0.233085 0.0046,0.024886 0.02485,0.041894 0.02914,0.058271 0.0021,0.00819 -0.01005,0.00892 0,0.029136 0.0025,0.00505 -1.97e-4,0.028879 0,0.029136 9.8e-5,1.283e-4 0.02904,-8.22e-5 0.02914,0 9.3e-5,8.23e-5 0.02905,0.029099 0.02914,0.029136 8.7e-5,3.66e-5 0.05819,8.6e-6 0.05827,0 8e-5,-8.7e-6 0.0582,5.35e-5 0.05827,0 7.4e-5,-5.36e-5 0.02907,-0.029038 0.02914,-0.029136 6.9e-5,-9.8e-5 0.02907,-0.028994 0.02914,-0.029136 1.26e-4,-2.84e-4 -0.0013,-0.023566 0,-0.029136 8.86e-4,-0.00687 -1.66e-4,-0.024836 0,-0.029136 3.33e-4,-0.0086 2.37e-4,-0.021152 0,-0.029136 -4.73e-4,-0.015968 0.0017,-0.035806 0,-0.058271 -0.0037,-0.045032 -0.02238,-0.1061935 -0.02984,-0.174907 C 14.348239,4.2463906 14.307216,3.8516379 14.260599,3.676358 13.98183,2.4535008 13.012196,1.5355188 11.988487,0.93770244 11.203848,0.52775254 10.301231,0.47588647 9.5120053,0.23844744 9.1861711,0.1455957 8.8795338,0.15711849 8.5796653,0.15104056 8.2797968,0.14496171 8.0035724,0.11716492 7.7347322,0.00536244 a 0.12298497,0.12298497 0 0 0 -0.029136,0 0.12298497,0.12298497 0 0 0 -0.029136,0 z" />
</svg>
