<?xml version="1.0" encoding="UTF-8" standalone="no"?>
<svg
   xmlns:dc="http://purl.org/dc/elements/1.1/"
   xmlns:cc="http://creativecommons.org/ns#"
   xmlns:rdf="http://www.w3.org/1999/02/22-rdf-syntax-ns#"
   xmlns:svg="http://www.w3.org/2000/svg"
   xmlns="http://www.w3.org/2000/svg"
   xmlns:sodipodi="http://sodipodi.sourceforge.net/DTD/sodipodi-0.dtd"
   xmlns:inkscape="http://www.inkscape.org/namespaces/inkscape"
   id="svg3256"
   height="16"
   width="16"
   version="1.1"
   inkscape:version="0.91 r13725"
   sodipodi:docname="start-here-slackware-symbolic.svg">
  <sodipodi:namedview
     pagecolor="#ffffff"
     bordercolor="#666666"
     borderopacity="1"
     objecttolerance="10"
     gridtolerance="10"
     guidetolerance="10"
     inkscape:pageopacity="0"
     inkscape:pageshadow="2"
     inkscape:window-width="640"
     inkscape:window-height="480"
     id="namedview11" />
  <metadata
     id="metadata3273">
    <rdf:RDF>
      <cc:Work
         rdf:about="">
        <dc:format>image/svg+xml</dc:format>
        <dc:type
           rdf:resource="http://purl.org/dc/dcmitype/StillImage" />
      </cc:Work>
    </rdf:RDF>
  </metadata>
  <defs
     id="defs3258" />
  <g
     id="g3265"
     style="fill:#ccc"
     transform="translate(0 -6)">
    <path
       id="path3267"
       style="fill:#ccc"
       d="m8 0c-4.4183 8.8818e-16 -8 3.5817-8 8 0 4.418 3.5817 8 8 8 2.526 0 4.784-1.171 6.25-3h-11.25v-3h1v2h10.906c0.685-1.179 1.094-2.5387 1.094-4 0-4.4183-3.582-8-8-8zm0.1562 3.1562c0.6869 0 1.4789 0.2055 1.7188 0.4063 0.0114-0.251 0.26-0.3437 0.5-0.3437 0.283 0 0.563 0.2492 0.563 0.4374v1.4688c0 0.2133-0.175 0.375-0.438 0.375-0.252 0-0.474-0.1169-0.5312-0.3438-0.049-0.2884-0.3919-1.1562-1.8438-1.1562-1.2907 0-1.8125 0.8101-1.8125 1.375 0 0.5273 0.6024 1.0812 1.6875 1.0938 1.0511 0 3.239 0.2419 3.25 2.25 0.007 1.2424-1.246 2.2192-3.0625 2.2192-0.7266 0-1.3786-0.132-2.0313-0.5 0 0.466-0.1386 0.5-0.5624 0.5-0.3936 0-0.5511-0.355-0.5626-0.719v-1.594c0-0.2008 0.183-0.375 0.4688-0.375 0.2856 0 0.5312 0.1989 0.5312 0.375 0 0.5026 0.6324 1.469 1.9688 1.469 1.1767 0 2.188-0.4211 2.188-1.3752 0-0.9793-1.0768-1.2813-2.2192-1.2813-1.0971 0-2.7813-0.5437-2.7813-2.0625 0-1.5833 1.7694-2.2188 2.9687-2.2188z"
       color="#000000"
       transform="translate(0 6)"
       fill="#bebebe" />
    <path
       id="path3269"
       style="fill:#ccc"
       d="m3.021 16.189-0.021 0.126h0.020979v-0.12587z"
       fill="url(#linearGradient3189)" />
  </g>
</svg>
