<?xml version="1.0" encoding="UTF-8" standalone="no"?>
<svg
   xmlns:dc="http://purl.org/dc/elements/1.1/"
   xmlns:cc="http://creativecommons.org/ns#"
   xmlns:rdf="http://www.w3.org/1999/02/22-rdf-syntax-ns#"
   xmlns:svg="http://www.w3.org/2000/svg"
   xmlns="http://www.w3.org/2000/svg"
   xmlns:sodipodi="http://sodipodi.sourceforge.net/DTD/sodipodi-0.dtd"
   xmlns:inkscape="http://www.inkscape.org/namespaces/inkscape"
   id="svg3155"
   height="16"
   width="16"
   version="1.1"
   inkscape:version="0.91 r13725"
   sodipodi:docname="start-here-fedora-symbolic.svg">
  <defs
     id="defs8" />
  <sodipodi:namedview
     pagecolor="#ffffff"
     bordercolor="#666666"
     borderopacity="1"
     objecttolerance="10"
     gridtolerance="10"
     guidetolerance="10"
     inkscape:pageopacity="0"
     inkscape:pageshadow="2"
     inkscape:window-width="640"
     inkscape:window-height="480"
     id="namedview6" />
  <metadata
     id="metadata3184">
    <rdf:RDF>
      <cc:Work
         rdf:about="">
        <dc:format>image/svg+xml</dc:format>
        <dc:type
           rdf:resource="http://purl.org/dc/dcmitype/StillImage" />
      </cc:Work>
    </rdf:RDF>
  </metadata>
  <path
     id="path3172"
     d="m8 0c-4.4162 0-7.997 3.5842-8 8v6.406c0 0.887 0.70735 1.594 1.5938 1.594h6.4062c4.417-0.002 8-3.583 8-8 0-4.4186-3.582-8-8-8zm2.312 2c2.036 0 3.688 1.6522 3.688 3.6875 0 2.0351-1.652 3.6563-3.688 3.6563h-1.937v1.9682c0 2.036-1.6525 3.688-3.6875 3.688-2.0352 0-3.6875-1.652-3.6875-3.688 0-2.0347 1.6522-3.6869 3.6875-3.687h1.9375v-1.9375c0-2.0353 1.6522-3.6875 3.687-3.6875zm0 1.75c-1.0726 0-1.9351 0.8645-1.937 1.9375v1.6875c0 0.1519 0.1295 0.25 0.2812 0.25h1.6558c1.075 0 1.969-0.8633 1.969-1.9375 0-1.0743-0.894-1.9375-1.969-1.9375zm-5.6245 5.5938c-1.0741 0-1.9687 0.8942-1.9687 1.9682 0 1.075 0.8946 1.938 1.9687 1.938 1.073 0 1.936-0.865 1.9375-1.938v-1.687c0-0.1515-0.1295-0.2812-0.2812-0.2812h-1.6563z"
     style="fill:#ccc" />
  <path
     id="path3174"
     d="m10.75 2.0312c0.119 0.018 0.243 0.028 0.375 0.0626-0.122-0.0275-0.249-0.0476-0.375-0.0626zm0.375 0.0626c0.417 0.1092 0.75 0.4775 0.75 0.875 0 0.4804-0.323 0.8124-0.844 0.8124-0.108 0-0.229 0.0102-0.312 0 0.888 0.1814 1.562 0.9663 1.562 1.9063 0 1.0742-0.894 1.9375-1.969 1.9375h-0.3745c0.4755 0 0.8435 0.3978 0.8435 0.875 0 0.4774-0.368 0.8438-0.8435 0.8438h0.3745c2.036 0 3.688-1.6212 3.688-3.6563 0-1.7565-1.23-3.2242-2.875-3.5937zm-6.4375 5.5312c-2.0353 0.0001-3.6875 1.6523-3.6875 3.687 0 1.888 1.4213 3.44 3.25 3.657-0.1194-0.018-0.2425-0.059-0.375-0.094-0.4168-0.109-0.7498-0.446-0.75-0.844 0-0.48 0.3223-0.812 0.8438-0.812 0.1076 0 0.2291-0.01 0.3124 0-0.8877-0.182-1.5624-0.967-1.5624-1.907 0-1.074 0.8946-1.9682 1.9687-1.9682h0.375c-0.4761 0-0.8437-0.3663-0.8437-0.8438-0.0002-0.4802 0.3938-0.875 0.875-0.875h-0.4063zm1.7813 4.437c-0.0986 0.233-0.2303 0.45-0.4063 0.626 0.176-0.176 0.3077-0.393 0.4063-0.626z"
     style="opacity:.45;fill:#333" />
</svg>
