<?xml version="1.0" encoding="UTF-8" standalone="no"?>
<svg
   xmlns:dc="http://purl.org/dc/elements/1.1/"
   xmlns:cc="http://creativecommons.org/ns#"
   xmlns:rdf="http://www.w3.org/1999/02/22-rdf-syntax-ns#"
   xmlns:svg="http://www.w3.org/2000/svg"
   xmlns="http://www.w3.org/2000/svg"
   xmlns:xlink="http://www.w3.org/1999/xlink"
   xmlns:sodipodi="http://sodipodi.sourceforge.net/DTD/sodipodi-0.dtd"
   xmlns:inkscape="http://www.inkscape.org/namespaces/inkscape"
   id="svg2"
   height="96"
   width="96"
   version="1.1"
   inkscape:version="0.91 r13725"
   sodipodi:docname="folder-publicshare.svg">
  <sodipodi:namedview
     pagecolor="#ffffff"
     bordercolor="#666666"
     borderopacity="1"
     objecttolerance="10"
     gridtolerance="10"
     guidetolerance="10"
     inkscape:pageopacity="0"
     inkscape:pageshadow="2"
     inkscape:window-width="1366"
     inkscape:window-height="747"
     id="namedview83"
     showgrid="false"
     inkscape:zoom="2.4583333"
     inkscape:cx="-96.487932"
     inkscape:cy="47.999998"
     inkscape:window-x="0"
     inkscape:window-y="21"
     inkscape:window-maximized="1"
     inkscape:current-layer="svg2" />
  <metadata
     id="metadata91">
    <rdf:RDF>
      <cc:Work
         rdf:about="">
        <dc:format>image/svg+xml</dc:format>
        <dc:type
           rdf:resource="http://purl.org/dc/dcmitype/StillImage" />
      </cc:Work>
    </rdf:RDF>
  </metadata>
  <defs
     id="defs4">
    <linearGradient
       inkscape:collect="always"
       xlink:href="#linearGradient4152"
       id="linearGradient4158"
       x1="58.132698"
       y1="88.421516"
       x2="62.039108"
       y2="23.415632"
       gradientUnits="userSpaceOnUse" />
    <linearGradient
       inkscape:collect="always"
       id="linearGradient4152">
      <stop
         style="stop-color:#4aaee8;stop-opacity:1;"
         offset="0"
         id="stop4154" />
      <stop
         style="stop-color:#67e4ec;stop-opacity:1"
         offset="1"
         id="stop4156" />
    </linearGradient>
  </defs>
  <rect
     id="rect4302-0"
     style="color:#000000;fill:#ececec;stroke:#000000;stroke-opacity:0.12000002"
     height="21.006001"
     width="57.168716"
     y="14.873"
     x="27.038284" />
  <rect
     id="rect14348-6"
     style="color:#000000;fill:#ffffff;stroke:#000000;stroke-opacity:0.12000002"
     width="68.818001"
     y="20.675621"
     x="13.956626"
     height="21.006001" />
  <path
     style="fill:url(#linearGradient4158);fill-opacity:1"
     d="m 40.557691,24.394531 -8.765625,13.447266 -26.2968753,0 0,38.042969 c 1.0284432,5.608039 5.9089503,9.832031 11.8242193,9.832031 l 61.048828,0 c 6.6675,0 12.033203,-5.36315 12.033203,-12.03125 0.178066,-3.947447 0.09375,-38.160113 0.09375,-49.291016 z"
     id="path4304"
     inkscape:connector-curvature="0"
     sodipodi:nodetypes="ccccssccc" />
  <path
     id="path4323"
     d="m 40.5625,24.394531 -8.765625,13.447266 -26.296875,0 0,38.042969 c 1.0284432,5.608039 5.90895,9.832031 11.824219,9.832031 l 61.048828,0 c 6.6675,0 12.033203,-5.36315 12.033203,-12.03125 C 90.581554,58.281659 90.405725,34.242705 90.5,24.394531 Z"
     style="fill:none;fill-opacity:1;stroke:#000000;stroke-width:2;stroke-miterlimit:4;stroke-dasharray:none;stroke-opacity:0.12182743"
     inkscape:connector-curvature="0"
     sodipodi:nodetypes="ccccssccc" />
  <path
     inkscape:connector-curvature="0"
     style="color:#000000;fill:#ffffff;fill-rule:evenodd;stroke:#000000;stroke-opacity:0.12"
     d="m 53.704621,40.057397 c -1.182685,0.02517 -2.366141,0.436406 -3.331969,1.252542 -3.10594,2.624741 -0.693522,5.351824 -3.402082,7.640822 -2.708569,2.288826 -5.108482,-0.446897 -8.214765,2.177827 l 0,0.004 c -0.689853,0.582968 -1.187656,1.304827 -1.488684,2.084912 -0.0026,0.0051 -0.0026,0.01103 -0.0034,0.01617 -0.0606,0.158631 -0.112432,0.317888 -0.156703,0.480823 -0.01971,0.07233 -0.04123,0.145182 -0.05769,0.218194 -0.0026,0.008 -0.0026,0.01625 -0.0034,0.02425 -0.03386,0.153977 -0.05889,0.308554 -0.07834,0.464657 -1.72e-4,0.0013 1.63e-4,0.0027 0,0.004 -0.0017,0.0081 -0.0026,0.01611 -0.0034,0.02424 -0.0087,0.07271 -0.01517,0.145199 -0.02057,0.218194 -0.0043,0.05488 -0.0099,0.110717 -0.01243,0.165668 -0.0017,0.02796 -0.0026,0.05686 -0.0034,0.08486 -2.66e-4,0.0093 2.05e-4,0.01895 0,0.02828 -0.0017,0.07323 -0.0017,0.144909 0,0.218194 6.51e-4,0.03748 0.0026,0.07569 0.0034,0.113143 0.0026,0.05494 0.0077,0.110777 0.01243,0.165668 0.0069,0.08128 0.01466,0.161392 0.02477,0.242435 1.63e-4,0.0013 -1.71e-4,0.0027 0,0.004 0.01946,0.156103 0.04449,0.31068 0.07834,0.464657 0.0026,0.0081 0.0026,0.0162 0.0034,0.02424 0.01671,0.07345 0.0378,0.14532 0.05777,0.218194 0.04431,0.162943 0.09609,0.322182 0.156703,0.480822 0.0026,0.0051 0.0026,0.01098 0.0034,0.01617 0.301011,0.780059 0.798771,1.50197 1.488685,2.084912 l 0,0.004 c 3.10594,2.624741 5.505938,-0.111017 8.214764,2.177827 2.708569,2.288826 0.296074,5.015909 3.402082,7.640821 2.20757,1.865484 5.539453,1.621542 7.443251,-0.541431 1.903884,-2.162998 1.659084,-5.427595 -0.54846,-7.29325 -3.10594,-2.624741 -5.505852,0.115054 -8.214764,-2.173798 -1.368256,-1.156199 -1.42817,-2.427255 -1.554684,-3.737483 0.126463,-1.310227 0.186394,-2.581197 1.554684,-3.737482 2.708569,-2.288826 5.108481,0.450934 8.214764,-2.173798 2.20757,-1.865484 2.45237,-5.130081 0.54846,-7.293251 -1.070914,-1.216713 -2.590712,-1.826312 -4.111368,-1.793998 z"
     id="path79" />
</svg>
