<?xml version="1.0" encoding="UTF-8" standalone="no"?>
<svg
   xmlns:dc="http://purl.org/dc/elements/1.1/"
   xmlns:cc="http://creativecommons.org/ns#"
   xmlns:rdf="http://www.w3.org/1999/02/22-rdf-syntax-ns#"
   xmlns:svg="http://www.w3.org/2000/svg"
   xmlns="http://www.w3.org/2000/svg"
   xmlns:xlink="http://www.w3.org/1999/xlink"
   xmlns:sodipodi="http://sodipodi.sourceforge.net/DTD/sodipodi-0.dtd"
   xmlns:inkscape="http://www.inkscape.org/namespaces/inkscape"
   height="96"
   width="96"
   id="svg2"
   version="1.1"
   inkscape:version="0.91 r13725"
   sodipodi:docname="folder-videos.svg">
  <metadata
     id="metadata91">
    <rdf:RDF>
      <cc:Work
         rdf:about="">
        <dc:format>image/svg+xml</dc:format>
        <dc:type
           rdf:resource="http://purl.org/dc/dcmitype/StillImage" />
      </cc:Work>
    </rdf:RDF>
  </metadata>
  <sodipodi:namedview
     pagecolor="#ffffff"
     bordercolor="#666666"
     borderopacity="1"
     objecttolerance="10"
     gridtolerance="10"
     guidetolerance="10"
     inkscape:pageopacity="0"
     inkscape:pageshadow="2"
     inkscape:window-width="1366"
     inkscape:window-height="747"
     id="namedview89"
     showgrid="false"
     inkscape:zoom="2.8284271"
     inkscape:cx="56.870179"
     inkscape:cy="15.879388"
     inkscape:window-x="0"
     inkscape:window-y="21"
     inkscape:window-maximized="1"
     inkscape:current-layer="g39" />
  <defs
     id="defs4">
    <linearGradient
       gradientTransform="translate(0,956.36)"
       inkscape:collect="always"
       xlink:href="#linearGradient4152"
       id="linearGradient4158"
       x1="58.132698"
       y1="88.421516"
       x2="62.039108"
       y2="23.415632"
       gradientUnits="userSpaceOnUse" />
    <linearGradient
       inkscape:collect="always"
       id="linearGradient4152">
      <stop
         style="stop-color:#4aaee8;stop-opacity:1;"
         offset="0"
         id="stop4154" />
      <stop
         style="stop-color:#67e4ec;stop-opacity:1"
         offset="1"
         id="stop4156" />
    </linearGradient>
  </defs>
  <g
     transform="matrix(1 0 0 1 0 -956.36)"
     id="g39">
    <rect
       id="rect4302-1"
       style="color:#000000;fill:#ececec;stroke:#000000;stroke-opacity:0.12000002"
       height="21.006001"
       width="57.168716"
       y="971.23297"
       x="27.038284" />
    <rect
       id="rect14348-1"
       style="color:#000000;fill:#ffffff;stroke:#000000;stroke-opacity:0.12000002"
       width="68.818001"
       y="977.03558"
       x="13.956626"
       height="21.006001" />
    <path
       style="fill:url(#linearGradient4158);fill-opacity:1"
       d="m 40.557691,980.75453 -8.765625,13.44727 -26.2968753,0 0,38.0429 c 1.0284432,5.6081 5.9089503,9.8321 11.8242193,9.8321 l 61.048828,0 c 6.6675,0 12.033203,-5.3632 12.033203,-12.0313 0.178066,-3.9474 0.09375,-38.16007 0.09375,-49.29097 z"
       id="path4304"
       inkscape:connector-curvature="0"
       sodipodi:nodetypes="ccccssccc" />
    <path
       id="path4323"
       d="m 40.5625,980.75454 -8.765625,13.44727 -26.296875,0 0,38.04299 c 1.0284432,5.608 5.90895,9.832 11.824219,9.832 l 61.048828,0 c 6.6675,0 12.033203,-5.3632 12.033203,-12.0313 0.175304,-15.4038 -5.25e-4,-39.44278 0.09375,-49.29096 z"
       style="fill:none;fill-opacity:1;stroke:#000000;stroke-width:2;stroke-miterlimit:4;stroke-dasharray:none;stroke-opacity:0.12182743"
       inkscape:connector-curvature="0"
       sodipodi:nodetypes="ccccssccc" />
    <path
       style="color:#bebebe;display:inline;visibility:visible;fill:#ffffff;fill-opacity:1;fill-rule:nonzero;stroke:#000000;stroke-opacity:0.12"
       id="path3099"
       inkscape:connector-curvature="0"
       visibility="visible"
       display="inline"
       d="m 35.509936,996.41567 c -0.831003,0 -1.500005,0.669 -1.500005,1.5 l 0,27.00003 c 0,0.831 0.669002,1.5 1.500005,1.5 l 25.000075,0 c 0.831003,0 1.500005,-0.669 1.500005,-1.5 l 0,-27.00003 c 0,-0.831 -0.669002,-1.5 -1.500005,-1.5 l -25.000075,0 z m 0.499998,2 2.000004,0 0,2.00003 -2.000004,0 0,-2.00003 z m 5.000013,0 14.000047,0 c 0.554002,0 1.000003,0.446 1.000003,1 l 0,10.00003 c 0,0.5539 -0.446001,0.9999 -1.000003,0.9999 l -14.000047,0 c -0.553999,0 -0.999997,-0.446 -0.999997,-0.9999 l 0,-10.00003 c 0,-0.554 0.445998,-1 0.999997,-1 z m 17.000056,0 2.000007,0 0,2.00003 -2.000007,0 0,-2.00003 z m -22.000069,3.99993 2.000004,0 0,2 -2.000004,0 0,-2 z m 22.000069,0 2.000007,0 0,2 -2.000007,0 0,-2 z m -22.000069,4.0001 2.000004,0 0,1.9999 -2.000004,0 0,-1.9999 z m 22.000069,0 2.000007,0 0,1.9999 -2.000007,0 0,-1.9999 z m -22.000069,3.9999 2.000004,0 0,2.0001 -2.000004,0 0,-2.0001 z m 22.000069,0 2.000007,0 0,2.0001 -2.000007,0 0,-2.0001 z m -17.000056,2.0001 14.000047,0 c 0.554002,0 1.000003,0.446 1.000003,0.9999 l 0,10.0001 c 0,0.554 -0.446001,1 -1.000003,1 l -14.000047,0 c -0.553999,0 -0.999997,-0.446 -0.999997,-1 l 0,-10.0001 c 0,-0.5539 0.445998,-0.9999 0.999997,-0.9999 z m -5.000013,2 2.000004,0 0,1.9999 -2.000004,0 0,-1.9999 z m 22.000069,0 2.000007,0 0,1.9999 -2.000007,0 0,-1.9999 z m -22.000069,4 2.000004,0 0,2 -2.000004,0 0,-2 z m 22.000069,0 2.000007,0 0,2 -2.000007,0 0,-2 z m -22.000069,4 2.000004,0 0,2 -2.000004,0 0,-2 z m 22.000069,0 2.000007,0 0,2 -2.000007,0 0,-2 z" />
  </g>
</svg>
