<?xml version="1.0" encoding="UTF-8" standalone="no"?>
<svg
   xmlns:dc="http://purl.org/dc/elements/1.1/"
   xmlns:cc="http://creativecommons.org/ns#"
   xmlns:rdf="http://www.w3.org/1999/02/22-rdf-syntax-ns#"
   xmlns:svg="http://www.w3.org/2000/svg"
   xmlns="http://www.w3.org/2000/svg"
   xmlns:xlink="http://www.w3.org/1999/xlink"
   xmlns:sodipodi="http://sodipodi.sourceforge.net/DTD/sodipodi-0.dtd"
   xmlns:inkscape="http://www.inkscape.org/namespaces/inkscape"
   id="svg2"
   height="96"
   width="96"
   version="1.1"
   inkscape:version="0.91 r13725"
   sodipodi:docname="folder-system.svg">
  <sodipodi:namedview
     pagecolor="#ffffff"
     bordercolor="#666666"
     borderopacity="1"
     objecttolerance="10"
     gridtolerance="10"
     guidetolerance="10"
     inkscape:pageopacity="0"
     inkscape:pageshadow="2"
     inkscape:window-width="1366"
     inkscape:window-height="747"
     id="namedview41"
     showgrid="false"
     inkscape:zoom="2.4583333"
     inkscape:cx="-18.508475"
     inkscape:cy="47.999999"
     inkscape:window-x="0"
     inkscape:window-y="21"
     inkscape:window-maximized="1"
     inkscape:current-layer="svg2" />
  <metadata
     id="metadata91">
    <rdf:RDF>
      <cc:Work
         rdf:about="">
        <dc:format>image/svg+xml</dc:format>
        <dc:type
           rdf:resource="http://purl.org/dc/dcmitype/StillImage" />
      </cc:Work>
    </rdf:RDF>
  </metadata>
  <defs
     id="defs4">
    <linearGradient
       inkscape:collect="always"
       xlink:href="#linearGradient4152"
       id="linearGradient4158"
       x1="58.132698"
       y1="88.421516"
       x2="62.039108"
       y2="23.415632"
       gradientUnits="userSpaceOnUse" />
    <linearGradient
       inkscape:collect="always"
       id="linearGradient4152">
      <stop
         style="stop-color:#4aaee8;stop-opacity:1;"
         offset="0"
         id="stop4154" />
      <stop
         style="stop-color:#67e4ec;stop-opacity:1"
         offset="1"
         id="stop4156" />
    </linearGradient>
  </defs>
  <rect
     id="rect4302-1"
     style="color:#000000;fill:#ececec;stroke:#000000;stroke-opacity:0.12000002"
     height="21.006001"
     width="57.168716"
     y="14.873"
     x="27.038284" />
  <rect
     id="rect14348-3"
     style="color:#000000;fill:#ffffff;stroke:#000000;stroke-opacity:0.12000002"
     width="68.818001"
     y="20.675621"
     x="13.956626"
     height="21.006001" />
  <path
     style="fill:url(#linearGradient4158);fill-opacity:1"
     d="m 40.557691,24.394531 -8.765625,13.447266 -26.2968753,0 0,38.042969 c 1.0284432,5.608039 5.9089503,9.832031 11.8242193,9.832031 l 61.048828,0 c 6.6675,0 12.033203,-5.36315 12.033203,-12.03125 0.178066,-3.947447 0.09375,-38.160113 0.09375,-49.291016 z"
     id="path4304"
     inkscape:connector-curvature="0"
     sodipodi:nodetypes="ccccssccc" />
  <path
     id="path4323"
     d="m 40.5625,24.394531 -8.765625,13.447266 -26.296875,0 0,38.042969 c 1.0284432,5.608039 5.90895,9.832031 11.824219,9.832031 l 61.048828,0 c 6.6675,0 12.033203,-5.36315 12.033203,-12.03125 C 90.581554,58.281659 90.405725,34.242705 90.5,24.394531 Z"
     style="fill:none;fill-opacity:1;stroke:#000000;stroke-width:2;stroke-miterlimit:4;stroke-dasharray:none;stroke-opacity:0.12182743"
     inkscape:connector-curvature="0"
     sodipodi:nodetypes="ccccssccc" />
  <path
     id="path79"
     style="display:block;fill:#ffffff;stroke:#000000;stroke-opacity:0.12"
     d="m 45.939128,70.055344 c -0.590319,0 -1.068335,-0.489699 -1.068335,-1.090106 l 0,-2.114813 c -1.055992,-0.281141 -2.064842,-0.706281 -2.987121,-1.242848 l -1.50436,1.50436 c -0.212279,0.212279 -0.466557,0.324709 -0.741269,0.327032 -0.274704,0.0023 -0.554362,-0.09652 -0.763083,-0.305226 l -2.943407,-2.942721 c -0.417408,-0.417417 -0.402742,-1.079821 0.02175,-1.50436 l 1.50436,-1.504361 c -0.536691,-0.922793 -0.961539,-1.931385 -1.242766,-2.986863 l -2.114813,0 c -0.600407,0 -1.090106,-0.477982 -1.090106,-1.068335 l 0,-4.142455 c 0,-0.590319 0.489691,-1.068335 1.090106,-1.068335 l 2.114813,0 c 0.281244,-1.055478 0.706015,-2.064156 1.242762,-2.986863 l -1.50436,-1.504361 c -0.424557,-0.424548 -0.439214,-1.086935 -0.02175,-1.50436 l 2.943321,-2.943235 c 0.417417,-0.417417 1.079821,-0.402743 1.504361,0.02181 l 1.50436,1.50436 c 0.922793,-0.536687 1.931386,-0.96145 2.986863,-1.242762 l 0,-2.114813 c 0,-0.600407 0.477983,-1.090106 1.068335,-1.090106 l 4.142455,0 c 0.59031,0 1.068335,0.489699 1.068335,1.090106 l 0,2.114813 c 1.055478,0.281235 2.064156,0.706015 2.986864,1.242762 l 1.50436,-1.50436 c 0.424548,-0.424548 1.086935,-0.439214 1.50436,-0.02181 l 2.943236,2.943235 c 0.417408,0.417417 0.402751,1.079821 -0.02175,1.50436 l -1.50436,1.504361 c 0.536696,0.922793 0.961535,1.931385 1.242762,2.986863 l 2.114813,0 c 0.600407,0 1.090106,0.477982 1.090106,1.068335 l 0,4.142455 c 0,0.59031 -0.489699,1.068335 -1.090106,1.068335 l -2.114813,0 c -0.281235,1.055478 -0.706015,2.064156 -1.242762,2.986863 l 1.50436,1.504361 c 0.424557,0.424548 0.439222,1.086934 0.02175,1.50436 l -2.943236,2.943235 c -0.417408,0.417417 -1.07982,0.402743 -1.50436,-0.02181 l -1.50436,-1.50436 c -0.923136,0.536584 -1.931557,0.961364 -2.987035,1.242248 l 0,2.114813 c 0,0.600406 -0.477982,1.090106 -1.068335,1.090106 l -4.142369,0 z m 2.071184,-10.464779 c 2.503182,0 4.534767,-2.031585 4.534767,-4.534767 0,-2.503181 -2.031585,-4.534766 -4.534767,-4.534766 -2.503181,0 -4.534766,2.031585 -4.534766,4.534766 0,2.503182 2.031585,4.534767 4.534766,4.534767 z"
     display="block"
     inkscape:connector-curvature="0" />
</svg>
