<?xml version="1.0" encoding="UTF-8" standalone="no"?>
<svg
   xmlns:dc="http://purl.org/dc/elements/1.1/"
   xmlns:cc="http://creativecommons.org/ns#"
   xmlns:rdf="http://www.w3.org/1999/02/22-rdf-syntax-ns#"
   xmlns:svg="http://www.w3.org/2000/svg"
   xmlns="http://www.w3.org/2000/svg"
   xmlns:xlink="http://www.w3.org/1999/xlink"
   xmlns:sodipodi="http://sodipodi.sourceforge.net/DTD/sodipodi-0.dtd"
   xmlns:inkscape="http://www.inkscape.org/namespaces/inkscape"
   id="svg2"
   height="96"
   width="96"
   version="1.1"
   inkscape:version="0.91 r13725"
   sodipodi:docname="folder-templates.svg">
  <sodipodi:namedview
     pagecolor="#ffffff"
     bordercolor="#666666"
     borderopacity="1"
     objecttolerance="10"
     gridtolerance="10"
     guidetolerance="10"
     inkscape:pageopacity="0"
     inkscape:pageshadow="2"
     inkscape:window-width="1366"
     inkscape:window-height="747"
     id="namedview41"
     showgrid="false"
     inkscape:zoom="2.4583333"
     inkscape:cx="-108.82871"
     inkscape:cy="47.999999"
     inkscape:window-x="0"
     inkscape:window-y="21"
     inkscape:window-maximized="1"
     inkscape:current-layer="svg2" />
  <metadata
     id="metadata91">
    <rdf:RDF>
      <cc:Work
         rdf:about="">
        <dc:format>image/svg+xml</dc:format>
        <dc:type
           rdf:resource="http://purl.org/dc/dcmitype/StillImage" />
      </cc:Work>
    </rdf:RDF>
  </metadata>
  <defs
     id="defs4">
    <linearGradient
       inkscape:collect="always"
       xlink:href="#linearGradient4152"
       id="linearGradient4158"
       x1="58.132698"
       y1="88.421516"
       x2="62.039108"
       y2="23.415632"
       gradientUnits="userSpaceOnUse" />
    <linearGradient
       inkscape:collect="always"
       id="linearGradient4152">
      <stop
         style="stop-color:#4aaee8;stop-opacity:1;"
         offset="0"
         id="stop4154" />
      <stop
         style="stop-color:#67e4ec;stop-opacity:1"
         offset="1"
         id="stop4156" />
    </linearGradient>
  </defs>
  <rect
     id="rect4302-8"
     style="color:#000000;fill:#ececec;stroke:#000000;stroke-opacity:0.12000002"
     height="21.006001"
     width="57.168716"
     y="14.873"
     x="27.038284" />
  <rect
     id="rect14348-4"
     style="color:#000000;fill:#ffffff;stroke:#000000;stroke-opacity:0.12000002"
     width="68.818001"
     y="20.675621"
     x="13.956626"
     height="21.006001" />
  <path
     style="fill:url(#linearGradient4158);fill-opacity:1"
     d="m 40.557691,24.394531 -8.765625,13.447266 -26.2968753,0 0,38.042969 c 1.0284432,5.608039 5.9089503,9.832031 11.8242193,9.832031 l 61.048828,0 c 6.6675,0 12.033203,-5.36315 12.033203,-12.03125 0.178066,-3.947447 0.09375,-38.160113 0.09375,-49.291016 z"
     id="path4304"
     inkscape:connector-curvature="0"
     sodipodi:nodetypes="ccccssccc" />
  <path
     id="path4323"
     d="m 40.5625,24.394531 -8.765625,13.447266 -26.296875,0 0,38.042969 c 1.0284432,5.608039 5.90895,9.832031 11.824219,9.832031 l 61.048828,0 c 6.6675,0 12.033203,-5.36315 12.033203,-12.03125 C 90.581554,58.281659 90.405725,34.242705 90.5,24.394531 Z"
     style="fill:none;fill-opacity:1;stroke:#000000;stroke-width:2;stroke-miterlimit:4;stroke-dasharray:none;stroke-opacity:0.12182743"
     inkscape:connector-curvature="0"
     sodipodi:nodetypes="ccccssccc" />
  <path
     id="path79"
     style="fill:#ffffff;stroke:#000000;stroke-opacity:0.12"
     d="m 47.41044,40.055664 c -0.332391,0 -0.599976,0.267593 -0.599976,0.599985 l 0,4.406201 c -1.398564,0.493787 -2.399938,1.825753 -2.399938,3.393512 0,0.769601 0.244854,1.477248 0.656263,2.06249 l -1.53776,5.137068 -2.71853,0 c -0.332392,0 -0.599985,0.267593 -0.599985,0.599985 0,0.332391 0.267593,0.599984 0.599985,0.599984 l 2.362482,0 -1.33128,4.462428 c -1.330252,4.460457 -1.367965,8.357785 -0.09428,8.738347 l 3.937442,-13.199661 4.668651,0 3.937442,13.199661 c 1.273681,-0.380562 1.236825,-4.27789 -0.09428,-8.73749 l -1.330766,-4.462685 2.34354,0 c 0.332391,0 0.599984,-0.267593 0.599984,-0.599984 0,-0.332392 -0.267602,-0.599985 -0.599984,-0.599985 l -2.699931,0 -1.537418,-5.156182 c 0.40199,-0.580785 0.637184,-1.283367 0.637184,-2.043547 0,-1.56776 -1.001374,-2.899726 -2.399938,-3.393513 l 0,-4.406287 c 0,-0.332391 -0.267602,-0.599984 -0.599985,-0.599984 l -1.199969,0 z m 0.599985,5.999846 c 1.325451,0 2.399938,1.074486 2.399938,2.399938 0,0.192989 -0.03196,0.382687 -0.075,0.562486 -0.02757,0.115342 -0.05018,0.229288 -0.09375,0.337491 -0.03966,0.09823 -0.09823,0.190392 -0.149996,0.281247 -0.0043,0.0073 -0.01454,0.01151 -0.01879,0.01875 -0.05118,0.08766 -0.107089,0.182704 -0.16875,0.262493 -0.06679,0.08644 -0.12826,0.167533 -0.206249,0.243748 -0.07798,0.07621 -0.17445,0.141305 -0.262493,0.206249 -0.176096,0.129871 -0.371588,0.2402 -0.58124,0.318746 -0.104397,0.039 -0.206986,0.069 -0.318591,0.0936 -0.169196,0.0378 -0.344991,0.075 -0.524987,0.075 -0.172195,0 -0.344391,-0.0216 -0.506387,-0.0564 -0.147596,-0.0312 -0.295192,-0.0744 -0.430789,-0.130796 -0.01317,-0.006 -0.02519,-0.0132 -0.03779,-0.0192 -0.109206,-0.0486 -0.218995,-0.104997 -0.318601,-0.168596 -0.03836,-0.024 -0.0762,-0.0486 -0.112797,-0.075 -0.02577,-0.0186 -0.04981,-0.0366 -0.075,-0.0564 -0.06723,-0.0522 -0.125997,-0.109197 -0.187195,-0.168596 -0.0792,-0.0774 -0.157796,-0.174595 -0.225003,-0.262193 -0.03059,-0.0402 -0.06601,-0.0714 -0.0936,-0.112797 -0.01562,-0.0228 -0.02339,-0.0516 -0.03779,-0.075 -0.01677,-0.0276 -0.04016,-0.0468 -0.05643,-0.075 -0.05758,-0.100798 -0.106797,-0.209395 -0.149996,-0.318592 -0.04139,-0.104998 -0.06658,-0.206995 -0.0936,-0.318592 -0.04319,-0.179995 -0.075,-0.369591 -0.075,-0.562786 0,-1.325451 1.074486,-2.399938 2.399938,-2.399938 z m -0.843698,5.887391 c 0.270593,0.0654 0.553185,0.112797 0.843578,0.112797 0.303352,0 0.599796,-0.04184 0.881291,-0.112497 l 1.105772,3.712705 -3.937099,0 1.106372,-3.712705 z"
     inkscape:connector-curvature="0" />
</svg>
