<?xml version="1.0" encoding="UTF-8" standalone="no"?>
<svg
   xmlns:dc="http://purl.org/dc/elements/1.1/"
   xmlns:cc="http://creativecommons.org/ns#"
   xmlns:rdf="http://www.w3.org/1999/02/22-rdf-syntax-ns#"
   xmlns:svg="http://www.w3.org/2000/svg"
   xmlns="http://www.w3.org/2000/svg"
   xmlns:xlink="http://www.w3.org/1999/xlink"
   xmlns:sodipodi="http://sodipodi.sourceforge.net/DTD/sodipodi-0.dtd"
   xmlns:inkscape="http://www.inkscape.org/namespaces/inkscape"
   id="svg2"
   height="96"
   width="96"
   version="1.1"
   inkscape:version="0.91 r13725"
   sodipodi:docname="folder-documents.svg">
  <sodipodi:namedview
     pagecolor="#ffffff"
     bordercolor="#666666"
     borderopacity="1"
     objecttolerance="10"
     gridtolerance="10"
     guidetolerance="10"
     inkscape:pageopacity="0"
     inkscape:pageshadow="2"
     inkscape:window-width="1366"
     inkscape:window-height="747"
     id="namedview39"
     showgrid="false"
     inkscape:snap-bbox="true"
     inkscape:zoom="2.4583333"
     inkscape:cx="-3.6610168"
     inkscape:cy="47.999997"
     inkscape:window-x="0"
     inkscape:window-y="21"
     inkscape:window-maximized="1"
     inkscape:current-layer="svg2" />
  <metadata
     id="metadata91">
    <rdf:RDF>
      <cc:Work
         rdf:about="">
        <dc:format>image/svg+xml</dc:format>
        <dc:type
           rdf:resource="http://purl.org/dc/dcmitype/StillImage" />
      </cc:Work>
    </rdf:RDF>
  </metadata>
  <defs
     id="defs4">
    <linearGradient
       inkscape:collect="always"
       xlink:href="#linearGradient4152"
       id="linearGradient4158"
       x1="58.132698"
       y1="88.421516"
       x2="62.039108"
       y2="23.415632"
       gradientUnits="userSpaceOnUse" />
    <linearGradient
       inkscape:collect="always"
       id="linearGradient4152">
      <stop
         style="stop-color:#4aaee8;stop-opacity:1;"
         offset="0"
         id="stop4154" />
      <stop
         style="stop-color:#67e4ec;stop-opacity:1"
         offset="1"
         id="stop4156" />
    </linearGradient>
  </defs>
  <rect
     id="rect4302-8"
     style="color:#000000;fill:#ececec;stroke:#000000;stroke-opacity:0.12000002"
     height="21.006001"
     width="57.168716"
     y="14.873"
     x="27.038284" />
  <rect
     id="rect14348-5"
     style="color:#000000;fill:#ffffff;stroke:#000000;stroke-opacity:0.12000002"
     width="68.818001"
     y="20.675621"
     x="13.956626"
     height="21.006001" />
  <path
     style="fill:url(#linearGradient4158);fill-opacity:1"
     d="m 40.557691,24.394531 -8.765625,13.447266 -26.2968753,0 0,38.042969 c 1.0284432,5.608039 5.9089503,9.832031 11.8242193,9.832031 l 61.048828,0 c 6.6675,0 12.033203,-5.36315 12.033203,-12.03125 0.178066,-3.947447 0.09375,-38.160113 0.09375,-49.291016 z"
     id="path4304"
     inkscape:connector-curvature="0"
     sodipodi:nodetypes="ccccssccc" />
  <path
     id="path4323"
     d="m 40.5625,24.394531 -8.765625,13.447266 -26.296875,0 0,38.042969 c 1.0284432,5.608039 5.90895,9.832031 11.824219,9.832031 l 61.048828,0 c 6.6675,0 12.033203,-5.36315 12.033203,-12.03125 C 90.581554,58.281659 90.405725,34.242705 90.5,24.394531 Z"
     style="fill:none;fill-opacity:1;stroke:#000000;stroke-width:2;stroke-miterlimit:4;stroke-dasharray:none;stroke-opacity:0.12182743"
     inkscape:connector-curvature="0"
     sodipodi:nodetypes="ccccssccc" />
  <g
     id="g4220"
     transform="matrix(0.20354412,0,0,0.20354412,-4.097322,2.9483703)"
     style="stroke:#000000;stroke-width:4.91293976;stroke-miterlimit:4;stroke-dasharray:none;stroke-opacity:0.12">
    <path
       sodipodi:nodetypes="ssssssccsccccccc"
       inkscape:connector-curvature="0"
       id="rect2991"
       d="m 211.90719,182.3059 c -12.21371,0 -22.0464,8.21689 -22.0464,18.42352 l 0,110.54115 c 0,10.20663 9.83269,18.42352 22.0464,18.42352 l 88.18563,0 c 12.2137,0 22.0464,-8.21689 22.0464,-18.42352 l 0,-82.90586 -55.11601,-46.05881 z m 0,18.42352 66.13922,0 11.0232,9.21177 11.02321,9.21176 0,92.11762 -88.18563,0 z"
       style="fill:#ffffff;fill-opacity:1;stroke:#000000;stroke-width:4.91293976;stroke-miterlimit:4;stroke-dasharray:none;stroke-opacity:0.12" />
    <path
       sodipodi:nodetypes="cccc"
       inkscape:connector-curvature="0"
       id="path2997"
       d="m 264.48237,182.3059 0,46.05881 55.11601,0 z"
       style="fill:#ffffff;fill-opacity:1;stroke:#000000;stroke-width:4.91293976;stroke-miterlimit:4;stroke-dasharray:none;stroke-opacity:0.12" />
    <rect
       ry="2.3029406"
       rx="2.7558007"
       y="246.78824"
       x="222.93039"
       height="9.2117624"
       width="44.092812"
       id="rect3767"
       style="fill:#ffffff;fill-opacity:1;stroke:#000000;stroke-width:4.91293976;stroke-miterlimit:4;stroke-dasharray:none;stroke-opacity:0.12" />
    <rect
       style="fill:#ffffff;fill-opacity:1;stroke:#000000;stroke-width:4.91293976;stroke-miterlimit:4;stroke-dasharray:none;stroke-opacity:0.12"
       id="rect3771"
       width="66.139221"
       height="9.2117624"
       x="222.93039"
       y="265.21176"
       rx="2.7558007"
       ry="2.3029406" />
    <rect
       ry="2.3029406"
       rx="2.7558007"
       y="283.63528"
       x="222.93039"
       height="9.2117624"
       width="66.139221"
       id="rect3775"
       style="fill:#ffffff;fill-opacity:1;stroke:#000000;stroke-width:4.91293976;stroke-miterlimit:4;stroke-dasharray:none;stroke-opacity:0.12" />
  </g>
</svg>
