<?xml version="1.0" encoding="UTF-8" standalone="no"?>
<svg
   xmlns:dc="http://purl.org/dc/elements/1.1/"
   xmlns:cc="http://creativecommons.org/ns#"
   xmlns:rdf="http://www.w3.org/1999/02/22-rdf-syntax-ns#"
   xmlns:svg="http://www.w3.org/2000/svg"
   xmlns="http://www.w3.org/2000/svg"
   xmlns:xlink="http://www.w3.org/1999/xlink"
   xmlns:sodipodi="http://sodipodi.sourceforge.net/DTD/sodipodi-0.dtd"
   xmlns:inkscape="http://www.inkscape.org/namespaces/inkscape"
   id="svg2"
   height="96"
   width="96"
   version="1.1"
   inkscape:version="0.91 r13725"
   sodipodi:docname="accessories-calculator.svg">
  <sodipodi:namedview
     pagecolor="#ffffff"
     bordercolor="#666666"
     borderopacity="1"
     objecttolerance="10"
     gridtolerance="10"
     guidetolerance="10"
     inkscape:pageopacity="0"
     inkscape:pageshadow="2"
     inkscape:window-width="1366"
     inkscape:window-height="747"
     id="namedview53"
     showgrid="false"
     inkscape:zoom="2.4583333"
     inkscape:cx="29.491525"
     inkscape:cy="48"
     inkscape:window-x="0"
     inkscape:window-y="21"
     inkscape:window-maximized="1"
     inkscape:current-layer="svg2" />
  <metadata
     id="metadata88">
    <rdf:RDF>
      <cc:Work
         rdf:about="">
        <dc:format>image/svg+xml</dc:format>
        <dc:type
           rdf:resource="http://purl.org/dc/dcmitype/StillImage" />
      </cc:Work>
    </rdf:RDF>
  </metadata>
  <defs
     id="defs4">
    <rect
       id="SVGCleanerId_0"
       rx="2.25"
       ry="1.932"
       height="20"
       width="4.5"
       y="971.86"
       x="25.625" />
    <rect
       id="SVGCleanerId_1"
       rx="2.25"
       ry="1.932"
       height="20"
       width="4.5"
       y="-37.875"
       x="979.61" />
    <rect
       id="SVGCleanerId_2"
       rx="2.085"
       ry="1.791"
       height="18.537"
       width="4.171"
       y="-77.16"
       x="994.67" />
    <rect
       id="SVGCleanerId_3"
       rx="2.085"
       ry="1.791"
       height="18.537"
       width="4.171"
       y="-77.16"
       x="1004.7" />
  </defs>
  <rect
     style="opacity:1;fill:#f9f9f9;fill-opacity:1;stroke:#000000;stroke-width:1.4435277;stroke-linecap:butt;stroke-linejoin:miter;stroke-miterlimit:4;stroke-dasharray:none;stroke-dashoffset:0;stroke-opacity:0.04705882"
     id="rect4181"
     width="84.556473"
     height="84.556473"
     x="5.7217636"
     y="5.7217636"
     rx="10"
     ry="10" />
  <g
     id="g4183"
     transform="translate(1.2203389,1.3303384)">
    <rect
       x="14.021336"
       y="12.150339"
       width="31.663"
       height="28.886999"
       ry="4.427"
       rx="4.4780002"
       style="fill:#93aca7"
       id="rect32" />
    <g
       transform="matrix(0.92683,0,0,0.92683,3.278338,-883.27966)"
       style="fill:#ffffff"
       id="g44">
      <use
         x="0"
         y="0"
         width="100%"
         height="100%"
         xlink:href="#SVGCleanerId_0"
         id="use46" />
      <use
         x="0"
         y="0"
         width="100%"
         height="100%"
         transform="matrix(0,1,-1,0,0,0)"
         xlink:href="#SVGCleanerId_1"
         id="use48" />
    </g>
  </g>
  <g
     id="g4189"
     transform="translate(0.40677948,-2.6776724)">
    <rect
       x="14.834895"
       y="53.321354"
       width="31.663"
       height="28.886999"
       ry="4.427"
       rx="4.4780002"
       style="fill:#93aca7"
       id="rect34" />
    <g
       transform="matrix(0.66761,0.64289,-0.64289,0.66761,642.7739,-605.61864)"
       style="fill:#ffffff"
       id="g68">
      <use
         x="0"
         y="0"
         width="100%"
         height="100%"
         xlink:href="#SVGCleanerId_0"
         id="use70" />
      <use
         x="0"
         y="0"
         width="100%"
         height="100%"
         transform="matrix(0,1,-1,0,0,0)"
         xlink:href="#SVGCleanerId_1"
         id="use72" />
    </g>
  </g>
  <g
     id="g4195"
     transform="translate(-4.0677966,2.0338983)">
    <rect
       x="56.553356"
       y="11.446779"
       width="31.663"
       height="66.050003"
       ry="4.6820002"
       rx="4.4780002"
       style="fill:#ff7f2a"
       id="rect36" />
    <g
       transform="translate(4.8813549,-957.45322)"
       style="fill:#ffffff"
       id="g80">
      <use
         x="0"
         y="0"
         width="100%"
         height="100%"
         transform="matrix(0,1,-1,0,0,0)"
         xlink:href="#SVGCleanerId_2"
         id="use82" />
      <use
         x="0"
         y="0"
         width="100%"
         height="100%"
         transform="matrix(0,1,-1,0,0,0)"
         xlink:href="#SVGCleanerId_3"
         id="use84" />
    </g>
  </g>
</svg>
