<?xml version="1.0" encoding="UTF-8" standalone="no"?>
<svg
   xmlns:dc="http://purl.org/dc/elements/1.1/"
   xmlns:cc="http://creativecommons.org/ns#"
   xmlns:rdf="http://www.w3.org/1999/02/22-rdf-syntax-ns#"
   xmlns:svg="http://www.w3.org/2000/svg"
   xmlns="http://www.w3.org/2000/svg"
   xmlns:xlink="http://www.w3.org/1999/xlink"
   xmlns:sodipodi="http://sodipodi.sourceforge.net/DTD/sodipodi-0.dtd"
   xmlns:inkscape="http://www.inkscape.org/namespaces/inkscape"
   id="svg346"
   height="96"
   width="96"
   version="1.1"
   inkscape:version="0.91 r13725"
   sodipodi:docname="amarok.svg">
  <sodipodi:namedview
     pagecolor="#ffffff"
     bordercolor="#666666"
     borderopacity="1"
     objecttolerance="10"
     gridtolerance="10"
     guidetolerance="10"
     inkscape:pageopacity="0"
     inkscape:pageshadow="2"
     inkscape:window-width="1366"
     inkscape:window-height="747"
     id="namedview81"
     showgrid="false"
     inkscape:zoom="4.9166667"
     inkscape:cx="43.627119"
     inkscape:cy="48"
     inkscape:window-x="0"
     inkscape:window-y="21"
     inkscape:window-maximized="1"
     inkscape:current-layer="svg346" />
  <metadata
     id="metadata474">
    <rdf:RDF>
      <cc:Work
         rdf:about="">
        <dc:format>image/svg+xml</dc:format>
        <dc:type
           rdf:resource="http://purl.org/dc/dcmitype/StillImage" />
        <dc:title />
      </cc:Work>
    </rdf:RDF>
  </metadata>
  <defs
     id="defs348">
    <linearGradient
       inkscape:collect="always"
       id="linearGradient4165">
      <stop
         style="stop-color:#cccccc;stop-opacity:1;"
         offset="0"
         id="stop4167" />
      <stop
         style="stop-color:#eeeeee;stop-opacity:1"
         offset="1"
         id="stop4169" />
    </linearGradient>
    <linearGradient
       inkscape:collect="always"
       id="linearGradient4157">
      <stop
         style="stop-color:#8231bd;stop-opacity:1"
         offset="0"
         id="stop4159" />
      <stop
         style="stop-color:#061673;stop-opacity:1"
         offset="1"
         id="stop4161" />
    </linearGradient>
    <linearGradient
       id="linearGradient5498">
      <stop
         id="stop361"
         stop-color="#eee"
         offset="0" />
      <stop
         id="stop363"
         stop-color="#eee"
         stop-opacity="0"
         offset="1" />
    </linearGradient>
    <linearGradient
       id="linearGradient17492"
       y2="458.38"
       xlink:href="#linearGradient5498"
       gradientUnits="userSpaceOnUse"
       y1="-309.6"
       gradientTransform="matrix(0.08543,0,0,0.08713,11.766,8.54)"
       x2="370.21"
       x1="370.62" />
    <linearGradient
       inkscape:collect="always"
       xlink:href="#linearGradient4157"
       id="linearGradient4163"
       x1="28.958588"
       y1="18.094843"
       x2="77.100739"
       y2="63.450775"
       gradientUnits="userSpaceOnUse" />
    <linearGradient
       inkscape:collect="always"
       xlink:href="#linearGradient4165"
       id="linearGradient4171"
       x1="56.695812"
       y1="75.841698"
       x2="51.604801"
       y2="26.011189"
       gradientUnits="userSpaceOnUse" />
  </defs>
  <g
     id="g4147"
     transform="matrix(1.1400756,0,0,1.1400756,-7.0086477,-4.1651387)">
    <path
       style="fill:url(#linearGradient4171);fill-opacity:1"
       d="m 83.537,45.74 c 0,19.867 -15.807,35.99 -35.285,35.99 -19.477,0 -35.285,-16.124 -35.285,-35.99 0,-19.867 15.807,-35.99 35.285,-35.99 19.477,0 35.285,16.124 35.285,35.99 z"
       id="path430"
       inkscape:connector-curvature="0" />
    <path
       id="path442"
       d="m 48.25,8.5390625 c -20.127,0 -36.486328,16.6867965 -36.486328,37.2167965 0,20.53 16.359328,37.216797 36.486328,37.216797 20.127,0 36.486328,-16.686797 36.486328,-37.216797 0,-20.53 -16.359328,-37.2167965 -36.486328,-37.2167965 z m 0,2.4550785 c 18.827,0 34.080078,15.558718 34.080078,34.761718 0,16.223159 -10.886505,29.846305 -25.617187,33.683594 -0.148992,-0.864677 -0.772705,-1.83971 -0.72461,-2.623047 0.08615,-1.4097 0.159233,-3.263909 0.332031,-4.849609 0.172891,-1.5858 0.777568,-14.890063 3.023438,-18.414063 2.2455,-3.5237 8.664156,-7.752959 10.910156,-8.193359 2.2458,-0.4405 1.8125,-1.322534 1.8125,-2.115234 0,-0.79277 -0.344489,-2.55406 -0.949218,-2.81836 -0.604541,-0.26422 -2.964788,1.321947 -3.742188,1.498047 -0.77733,0.17615 -4.491366,0.441507 -5.009766,-0.439453 -0.51819,-0.88114 4.190222,-9.867128 4.794922,-10.923828 0.60473,-1.0573 0.865108,-2.467344 -0.257812,-3.964844 -1.1224,-1.498 -1.900231,-2.996094 -2.332032,-2.996094 l -0.002,0 c -1.4244,0 -4.188109,3.348355 -5.224609,3.876953 -1.0365,0.52865 -9.242531,6.518772 -10.019531,7.576172 -0.77733,1.0571 -1.8148,1.498257 -2.9375,1.410157 -1.1227,-0.088 -4.67166,-0.124722 -5.88086,0.580078 -1.2094,0.7049 -6.729328,6.466975 -8.111328,7.171875 -1.3819,0.7046 -3.185028,1.066097 -4.048828,1.154297 -0.86359,0.088 -3.724653,3.340231 -4.501953,3.957031 -0.77733,0.6168 -6.919503,3.327169 -7.783203,3.855469 -0.86377,0.5287 6.30139,7.931322 7.337891,8.107421 1.0365,0.176401 -0.983655,3.1674 -2.708985,4.1875 -0.12799,0.07567 -0.22428,0.16608 -0.326172,0.253907 -3.898048,-5.652277 -6.193359,-12.536847 -6.193359,-19.97461 0,-19.203 15.254078,-34.761718 34.080078,-34.761718 z m -2.097656,29.152343 c 0.705607,-0.0118 1.1875,0.06445 1.1875,0.06445 0.3951,0.939599 -1.446903,3.892021 -3.158203,4.294921 -1.7109,0.4026 -5.659566,6.31135 -5.791016,4.96875 -0.1321,-1.3426 1.578234,-5.773209 3.552734,-7.787109 1.234,-1.258738 3.032973,-1.521353 4.208985,-1.541016 z"
       style="fill:url(#linearGradient4163);fill-opacity:1;stroke:#000000;stroke-opacity:0.12000002"
       inkscape:connector-curvature="0" />
    <path
       style="fill:url(#linearGradient17492)"
       d="m 31.639,48.44 c -0.02642,-0.096 -0.02112,-0.9441 0.0088,-1.3408 0.02112,-0.2838 0.0387,-0.3776 0.11293,-0.6006 0.22934,-0.6894 0.56465,-1.0731 1.0497,-1.2013 0.18092,-0.048 0.27909,-0.097 0.54071,-0.27 0.53739,-0.3556 1.2233,-0.9461 2.321,-1.998 0.29785,-0.28544 1.5062,-1.4977 2.6852,-2.6939 1.179,-1.1962 2.1967,-2.2141 2.2614,-2.2619 0.06479,-0.0478 0.16018,-0.0984 0.212,-0.11242 0.37856,-0.10218 1.2941,-0.15172 3.6156,-0.19563 2.1814,-0.0413 3.1103,-0.0841 3.3968,-0.15674 0.29673,-0.0752 0.9738,-0.48419 2.3387,-1.4127 0.98688,-0.67133 3.0872,-2.1526 4.3043,-3.0357 0.3266,-0.23697 0.45948,-0.32025 0.51092,-0.32025 0.03823,0 0.07608,-0.0108 0.08408,-0.024 0.008,-0.0132 0.03077,-0.024 0.0506,-0.024 0.02963,0 0.03378,0.0245 0.02335,0.13814 -0.02676,0.29148 -0.04364,0.35138 -0.13348,0.4736 -0.24477,0.33299 -0.8895,0.87044 -1.6495,1.3751 -0.19513,0.12955 -0.57408,0.40892 -0.84212,0.62082 -2.7032,2.137 -4.5396,3.4019 -5.3336,3.6738 -0.15743,0.0539 -0.21835,0.0614 -0.50177,0.0614 -0.54664,0 -1.1745,0.12085 -2.2459,0.43229 -1.579,0.45903 -3.0316,1.0611 -3.7947,1.5728 -0.66272,0.4444 -1.1952,1.2974 -1.7302,2.7716 -0.21049,0.58 -0.45872,1.4373 -0.75776,2.6171 -0.07452,0.294 -0.14265,0.5463 -0.15144,0.5608 -0.0088,0.014 -1.4245,0.3338 -3.146,0.7096 -1.7215,0.3758 -3.1482,0.6889 -3.1704,0.6959 -0.0293,0.01 -0.04555,-0.01 -0.05893,-0.055 z"
       id="path460"
       inkscape:connector-curvature="0" />
  </g>
</svg>
