<?xml version="1.0" encoding="UTF-8" standalone="no"?>
<svg
   xmlns:dc="http://purl.org/dc/elements/1.1/"
   xmlns:cc="http://creativecommons.org/ns#"
   xmlns:rdf="http://www.w3.org/1999/02/22-rdf-syntax-ns#"
   xmlns:svg="http://www.w3.org/2000/svg"
   xmlns="http://www.w3.org/2000/svg"
   xmlns:xlink="http://www.w3.org/1999/xlink"
   xmlns:sodipodi="http://sodipodi.sourceforge.net/DTD/sodipodi-0.dtd"
   xmlns:inkscape="http://www.inkscape.org/namespaces/inkscape"
   id="svg346"
   height="96"
   width="96"
   version="1.1"
   inkscape:version="0.91 r13725"
   sodipodi:docname="atom.svg">
  <sodipodi:namedview
     pagecolor="#ffffff"
     bordercolor="#666666"
     borderopacity="1"
     objecttolerance="10"
     gridtolerance="10"
     guidetolerance="10"
     inkscape:pageopacity="0"
     inkscape:pageshadow="2"
     inkscape:window-width="1366"
     inkscape:window-height="716"
     id="namedview81"
     showgrid="false"
     inkscape:zoom="4.9166667"
     inkscape:cx="39.050848"
     inkscape:cy="46.576271"
     inkscape:window-x="0"
     inkscape:window-y="24"
     inkscape:window-maximized="1"
     inkscape:current-layer="svg346" />
  <metadata
     id="metadata474">
    <rdf:RDF>
      <cc:Work
         rdf:about="">
        <dc:format>image/svg+xml</dc:format>
        <dc:type
           rdf:resource="http://purl.org/dc/dcmitype/StillImage" />
        <dc:title />
      </cc:Work>
    </rdf:RDF>
  </metadata>
  <defs
     id="defs348">
    <linearGradient
       inkscape:collect="always"
       id="linearGradient4220">
      <stop
         style="stop-color:#68c37d;stop-opacity:1"
         offset="0"
         id="stop4222" />
      <stop
         style="stop-color:#7dfff8;stop-opacity:1"
         offset="1"
         id="stop4224" />
    </linearGradient>
    <linearGradient
       inkscape:collect="always"
       xlink:href="#linearGradient4220"
       id="linearGradient4151"
       x1="48.322033"
       y1="92.94915"
       x2="71.271187"
       y2="3.0508478"
       gradientUnits="userSpaceOnUse" />
  </defs>
  <rect
     rx="11"
     y="5.5"
     x="5.5"
     height="85"
     width="85"
     id="rect4244"
     style="opacity:1;fill:url(#linearGradient4151);fill-opacity:1;stroke:#000000;stroke-width:1;stroke-linecap:butt;stroke-linejoin:miter;stroke-miterlimit:4;stroke-dasharray:none;stroke-dashoffset:0;stroke-opacity:0.12000002" />
  <path
     inkscape:connector-curvature="0"
     style="color:#000000;font-style:normal;font-variant:normal;font-weight:normal;font-stretch:normal;font-size:medium;line-height:normal;font-family:Sans;-inkscape-font-specification:Sans;text-indent:0;text-align:start;text-decoration:none;text-decoration-line:none;letter-spacing:normal;word-spacing:normal;text-transform:none;direction:ltr;block-progression:tb;writing-mode:lr-tb;baseline-shift:baseline;text-anchor:start;display:inline;overflow:visible;visibility:visible;fill:#ffffff;fill-opacity:1;stroke:#000000;stroke-width:1;stroke-miterlimit:4;stroke-dasharray:none;stroke-opacity:0.04705882;marker:none;enable-background:accumulate"
     d="m 37.621125,22.520766 0,0.0094 c -0.607069,0.02548 -1.233221,0.09199 -1.878762,0.255065 -1.739536,0.428407 -2.944572,1.807388 -3.533564,3.505569 -0.58899,1.698022 -0.710457,3.739287 -0.522569,6.096641 0.121929,1.530004 0.421267,3.215563 0.793185,4.951967 -5.133833,0.934851 -9.465526,2.674115 -11.851124,5.819804 -1.056549,1.392561 -1.440512,2.933215 -1.244212,4.267648 0.196314,1.334752 0.896654,2.441873 1.713903,3.353154 1.634475,1.822244 3.689126,2.880152 4.721787,3.253614 1.514923,0.558206 2.38978,-1.648963 0.8865,-2.23647 -0.441946,-0.16133 -2.517362,-1.2322 -3.738858,-2.594185 -0.610766,-0.681311 -1.035809,-1.411976 -1.141566,-2.130713 -0.1057,-0.718896 0.0295,-1.501973 0.777633,-2.488425 1.788662,-2.358629 5.580715,-4.043448 10.41406,-4.936414 0.584749,2.230584 1.354288,4.548494 2.252024,6.89916 -1.563151,2.66568 -2.919121,5.368358 -3.944153,7.994065 -2.112218,5.409717 -2.946708,10.523844 -1.141565,14.479524 0.739418,1.620463 2.032986,2.667775 3.424695,3.05143 1.391724,0.383815 2.792109,0.211089 4.10279,-0.155532 2.621352,-0.71587 4.77498,-2.10359 5.608289,-2.796367 1.379543,-1.003174 -0.301105,-2.978929 -1.558377,-1.832104 -0.364601,0.30307 -2.582813,1.768335 -4.672017,2.33912 -1.044592,0.285711 -2.095671,0.36542 -2.858578,0.149305 -0.762909,-0.208152 -1.318096,-0.647213 -1.81344,-1.732565 -1.346523,-2.950915 -0.807406,-7.528512 1.191333,-12.647422 0.752346,-1.927355 1.749651,-3.921032 2.836805,-5.916229 2.423664,5.646057 5.565966,11.247586 9.110746,15.617977 3.679447,4.53618 7.801518,7.839017 12.199504,8.336224 1.761164,0.198915 3.225291,-0.237097 4.308086,-1.070023 1.082796,-0.833244 1.729699,-1.949988 2.127605,-3.098088 0.761243,-2.196344 0.687776,-4.323351 0.519459,-5.43721 l 0.05599,0 c 0.0013,-0.05415 -0.05684,-0.15472 -0.05599,-0.202184 0.0608,-4.836384 -2.323119,-13.588394 -5.813584,-19.459485 -0.757302,-1.615048 -3.178004,-0.194256 -2.077836,1.219328 3.214684,5.40701 5.599574,14.531652 5.505642,18.392573 -0.0094,0.08441 -0.0094,0.170178 0,0.255063 0.07942,0.454366 0.177938,2.753338 -0.416812,4.469834 -0.297354,0.858248 -0.763517,1.585336 -1.34686,2.034288 -0.583349,0.449111 -1.297262,0.69757 -2.544416,0.556785 -3.280615,-0.370915 -7.059792,-3.228433 -10.54159,-7.521265 -3.481798,-4.291876 -6.651711,-9.957394 -9.036093,-15.645974 -0.164006,-0.390981 -0.291644,-0.778737 -0.447917,-1.169559 1.449252,-2.386022 3.048417,-4.746796 4.759113,-6.964481 0.249654,-0.323455 0.512036,-0.615118 0.765191,-0.933158 3.096486,0.03981 6.275846,0.275975 9.359589,0.684316 6.226532,0.822892 12.100634,2.346979 16.097,4.214771 1.998184,0.934692 3.500854,1.986136 4.360965,2.945673 0.860113,0.959536 1.073526,1.651518 0.830511,2.488425 -0.993303,3.420569 -5.661166,4.830655 -5.661166,4.830655 -1.723535,0.347026 -0.971257,2.891182 0.674985,2.283131 0,0 5.866545,-1.438877 7.322191,-6.451242 0.490333,-1.688785 -0.141502,-3.377246 -1.349971,-4.724898 -1.208513,-1.348447 -2.958303,-2.486469 -5.138598,-3.505569 -4.360583,-2.038677 -10.40769,-3.574643 -16.824865,-4.423176 -2.5793,-0.340974 -5.194472,-0.532931 -7.801212,-0.628327 3.038201,-3.529025 6.191826,-6.537038 8.992546,-8.463756 1.811602,-1.246203 3.50462,-2.025777 4.780886,-2.289351 1.276269,-0.263255 2.020783,-0.109236 2.647064,0.510126 2.55976,2.52394 1.505496,7.163554 1.505496,7.163554 -0.421092,1.563448 1.97936,2.175183 2.391999,0.609665 0,0 1.567614,-5.751159 -2.183592,-9.449794 -1.263572,-1.245885 -3.087192,-1.539679 -4.880424,-1.16956 -1.793227,0.369322 -3.684451,1.331491 -5.661168,2.690609 -3.46449,2.383633 -7.17465,6.07246 -10.669123,10.342518 -2.548339,0 -5.044532,0.146295 -7.396844,0.454137 -0.371828,-1.688944 -0.669371,-3.31095 -0.783854,-4.746671 -0.172223,-2.160829 -0.05515,-3.976797 0.363933,-5.185256 0.419194,-1.208459 0.957453,-1.769435 1.81966,-1.981409 3.52402,-0.868281 7.110676,2.388888 7.110676,2.388888 1.176552,1.118956 2.893373,-0.60723 1.717013,-1.726344 0,0 -2.401666,-2.391621 -5.766926,-3.051432 -0.560874,-0.109889 -1.144169,-0.162524 -1.751228,-0.149305 z m 2.774593,16.414275 c -1.224754,1.617436 -2.386081,3.296481 -3.490016,5.011065 -0.560005,-1.585744 -1.040539,-3.140617 -1.446397,-4.644024 1.580087,-0.194455 3.233075,-0.310345 4.936413,-0.367041 z m 7.60525,5.878904 a 3.1851842,3.1844922 0 0 0 -3.185184,3.185184 3.1851842,3.1844922 0 0 0 3.185184,3.185184 3.1851842,3.1844922 0 0 0 3.185184,-3.185184 3.1851842,3.1844922 0 0 0 -3.185184,-3.185184 z"
     id="path3070-3-6" />
</svg>
