<?xml version="1.0" encoding="UTF-8" standalone="no"?>
<svg
   xmlns:dc="http://purl.org/dc/elements/1.1/"
   xmlns:cc="http://creativecommons.org/ns#"
   xmlns:rdf="http://www.w3.org/1999/02/22-rdf-syntax-ns#"
   xmlns:svg="http://www.w3.org/2000/svg"
   xmlns="http://www.w3.org/2000/svg"
   xmlns:xlink="http://www.w3.org/1999/xlink"
   xmlns:sodipodi="http://sodipodi.sourceforge.net/DTD/sodipodi-0.dtd"
   xmlns:inkscape="http://www.inkscape.org/namespaces/inkscape"
   id="svg118"
   height="96"
   width="96"
   version="1.1"
   inkscape:version="0.91 r13725"
   sodipodi:docname="evolution-calendar.svg">
  <sodipodi:namedview
     pagecolor="#ffffff"
     bordercolor="#666666"
     borderopacity="1"
     objecttolerance="10"
     gridtolerance="10"
     guidetolerance="10"
     inkscape:pageopacity="0"
     inkscape:pageshadow="2"
     inkscape:window-width="1366"
     inkscape:window-height="716"
     id="namedview55"
     showgrid="false"
     inkscape:zoom="4.9166667"
     inkscape:cx="9.5313372"
     inkscape:cy="47.949145"
     inkscape:window-x="0"
     inkscape:window-y="24"
     inkscape:window-maximized="1"
     inkscape:current-layer="svg118" />
  <metadata
     id="metadata206">
    <rdf:RDF>
      <cc:Work
         rdf:about="">
        <dc:format>image/svg+xml</dc:format>
        <dc:type
           rdf:resource="http://purl.org/dc/dcmitype/StillImage" />
      </cc:Work>
    </rdf:RDF>
  </metadata>
  <defs
     id="defs120">
    <linearGradient
       inkscape:collect="always"
       id="linearGradient4221">
      <stop
         style="stop-color:#d40025;stop-opacity:1"
         offset="0"
         id="stop4223" />
      <stop
         style="stop-color:#d4004e;stop-opacity:1"
         offset="1"
         id="stop4225" />
    </linearGradient>
    <linearGradient
       id="linearGradient4169">
      <stop
         id="stop4171"
         style="stop-color:#f5f5f5;stop-opacity:1"
         offset="0" />
      <stop
         id="stop4173"
         style="stop-color:#cbcbcb"
         offset="1" />
    </linearGradient>
    <linearGradient
       gradientUnits="userSpaceOnUse"
       y2="95.593246"
       x2="78.18644"
       y1="4.0678196"
       x1="43.847458"
       id="linearGradient4167"
       xlink:href="#linearGradient4169"
       inkscape:collect="always"
       gradientTransform="translate(0,-2.2888184e-5)" />
    <linearGradient
       inkscape:collect="always"
       xlink:href="#linearGradient4221"
       id="linearGradient4227"
       x1="53.81356"
       y1="35.49543"
       x2="53.169491"
       y2="6.2072959"
       gradientUnits="userSpaceOnUse" />
  </defs>
  <rect
     rx="11"
     y="5.5"
     x="5.5"
     height="85"
     width="85"
     id="rect4244"
     style="opacity:1;fill:url(#linearGradient4167);fill-opacity:1;stroke:#000000;stroke-width:1;stroke-linecap:butt;stroke-linejoin:miter;stroke-miterlimit:4;stroke-dasharray:none;stroke-dashoffset:0;stroke-opacity:0.12000002" />
  <path
     style="opacity:1;fill:url(#linearGradient4227);fill-opacity:1;stroke:#000000;stroke-width:1;stroke-miterlimit:4;stroke-dasharray:none;stroke-dashoffset:0;stroke-opacity:0.04705882"
     d="M 16.5 5.5 C 10.406 5.5 5.5 10.406 5.5 16.5 L 5.5 29.947266 C 6.5896997 30.306814 7.7535914 30.507812 8.9667969 30.507812 L 90.5 30.507812 L 90.5 16.5 C 90.5 10.406 85.594 5.5 79.5 5.5 L 16.5 5.5 z M 16.779297 14.648438 A 3.3559322 3.3559322 0 0 1 17.996094 14.847656 A 3.3559322 3.3559322 0 0 1 20.011719 19.142578 L 20.007812 19.152344 A 3.3559322 3.3559322 0 0 1 15.708984 21.158203 A 3.3559322 3.3559322 0 0 1 13.701172 16.859375 A 3.3559322 3.3559322 0 0 1 16.779297 14.648438 z M 79.066406 14.648438 A 3.3559322 3.3559322 0 0 1 80.285156 14.847656 A 3.3559322 3.3559322 0 0 1 82.300781 19.142578 L 82.296875 19.152344 A 3.3559322 3.3559322 0 0 1 77.998047 21.158203 A 3.3559322 3.3559322 0 0 1 75.990234 16.859375 A 3.3559322 3.3559322 0 0 1 79.066406 14.648438 z "
     id="rect4214" />
  <g
     style="font-style:normal;font-weight:normal;font-size:40px;line-height:125%;font-family:sans-serif;letter-spacing:0px;word-spacing:0px;fill:#ffffff;fill-opacity:1;stroke:none;stroke-width:1px;stroke-linecap:butt;stroke-linejoin:miter;stroke-opacity:1"
     id="text4229">
    <path
       d="m 40.075781,20.591407 q 0,0.0225 -0.0225,0.45 -0.0225,0.4275 -0.1575,1.08 -0.135,0.63 -0.405,1.3725 -0.2475,0.7425 -0.72,1.3725 -0.45,0.63 -1.17,1.0575 -0.6975,0.4275 -1.71,0.4275 -1.0125,0 -1.71,-0.4275 -0.6975,-0.4275 -1.17,-1.0575 -0.4725,-0.63 -0.72,-1.3725 -0.2475,-0.7425 -0.3825,-1.3725 -0.135,-0.6525 -0.1575,-1.08 -0.0225,-0.4275 -0.0225,-0.45 l 0.6075,0 q 0,0.0225 0.0225,0.405 0.0225,0.3825 0.135,0.9675 0.1125,0.5625 0.315,1.2375 0.225,0.6525 0.63,1.2375 0.405,0.5625 0.99,0.945 0.6075,0.3825 1.4625,0.3825 0.855,0 1.4625,-0.3825 0.6075,-0.3825 0.99,-0.945 0.405,-0.585 0.63,-1.2375 0.225,-0.675 0.3375,-1.2375 0.1125,-0.585 0.135,-0.9675 0.0225,-0.405 0.0225,-0.405 l 0,-10.9350004 0.6075,0 0,10.9350004 z"
       style="font-style:normal;font-variant:normal;font-weight:normal;font-stretch:normal;font-size:22.5px;font-family:'Skinny Jeans';-inkscape-font-specification:'Skinny Jeans';fill:#ffffff"
       id="path4158" />
    <path
       d="m 50.040469,20.456407 -3.06,-8.4375 -3.06,8.4375 6.12,0 z m -6.345,0.6075 -1.8,4.995 -0.675,0 1.98,-5.6475 3.78,-10.7550004 3.78,10.7550004 1.98,5.6475 -0.675,0 -1.8,-4.995 -6.57,0 z"
       style="font-style:normal;font-variant:normal;font-weight:normal;font-stretch:normal;font-size:22.5px;font-family:'Skinny Jeans';-inkscape-font-specification:'Skinny Jeans';fill:#ffffff"
       id="path4160" />
    <path
       d="m 53.719219,9.6564066 9.945,14.4450004 0,-14.4450004 0.6075,0 0,16.4025004 -9.945,-14.445 0,14.445 -0.6075,0 0,-16.4025004 z"
       style="font-style:normal;font-variant:normal;font-weight:normal;font-stretch:normal;font-size:22.5px;font-family:'Skinny Jeans';-inkscape-font-specification:'Skinny Jeans';fill:#ffffff"
       id="path4162" />
  </g>
  <g
     id="g4153">
    <path
       d="m 50.720391,63.978907 q 0,4.545 -3.06,7.605 -3.015,3.06 -7.56,3.06 -4.635,0 -7.74,-2.97 -3.06,-3.015 -3.06,-7.695 l 0,-13.05 q 0,-4.815 2.925,-7.965 2.925,-3.15 7.65,-3.15 4.635,0 7.74,3.06 3.105,3.06 3.105,7.65 l 0,13.455 z m -1.35,0 0,-13.455 q 0,-4.14 -2.655,-6.795 -2.655,-2.655 -6.84,-2.655 -4.14,0 -6.705,2.745 -2.52,2.745 -2.52,6.975 l 0,13.185 q 0,4.05 2.655,6.75 2.655,2.7 6.705,2.7 4.095,0 6.705,-2.655 2.655,-2.7 2.655,-6.795 z"
       style="font-style:normal;font-variant:normal;font-weight:normal;font-stretch:normal;font-size:45px;line-height:125%;font-family:TrendexLightSSi;-inkscape-font-specification:TrendexLightSSi;letter-spacing:0px;word-spacing:0px;fill:#000000;fill-opacity:1;stroke:none;stroke-width:1px;stroke-linecap:butt;stroke-linejoin:miter;stroke-opacity:1"
       id="path4147"
       inkscape:connector-curvature="0" />
    <path
       d="m 66.69961,74.058907 -1.35,0 0,-32.4 -7.38,0 0,-1.215 8.73,0 0,33.615 z"
       style="font-style:normal;font-variant:normal;font-weight:normal;font-stretch:normal;font-size:45px;line-height:125%;font-family:TrendexLightSSi;-inkscape-font-specification:TrendexLightSSi;letter-spacing:0px;word-spacing:0px;fill:#000000;fill-opacity:1;stroke:none;stroke-width:1px;stroke-linecap:butt;stroke-linejoin:miter;stroke-opacity:1"
       id="path4149"
       inkscape:connector-curvature="0" />
  </g>
</svg>
