<?xml version="1.0" encoding="UTF-8" standalone="no"?>
<svg
   xmlns:dc="http://purl.org/dc/elements/1.1/"
   xmlns:cc="http://creativecommons.org/ns#"
   xmlns:rdf="http://www.w3.org/1999/02/22-rdf-syntax-ns#"
   xmlns:svg="http://www.w3.org/2000/svg"
   xmlns="http://www.w3.org/2000/svg"
   xmlns:xlink="http://www.w3.org/1999/xlink"
   xmlns:sodipodi="http://sodipodi.sourceforge.net/DTD/sodipodi-0.dtd"
   xmlns:inkscape="http://www.inkscape.org/namespaces/inkscape"
   id="svg2"
   height="96"
   width="96"
   version="1.1"
   inkscape:version="0.91 r13725"
   sodipodi:docname="firefox.svg">
  <sodipodi:namedview
     pagecolor="#ffffff"
     bordercolor="#666666"
     borderopacity="1"
     objecttolerance="10"
     gridtolerance="10"
     guidetolerance="10"
     inkscape:pageopacity="0"
     inkscape:pageshadow="2"
     inkscape:window-width="1366"
     inkscape:window-height="716"
     id="namedview250"
     showgrid="false"
     inkscape:zoom="2.4583334"
     inkscape:cx="104.19359"
     inkscape:cy="32.496777"
     inkscape:window-x="0"
     inkscape:window-y="24"
     inkscape:window-maximized="1"
     inkscape:current-layer="svg2" />
  <metadata
     id="metadata430">
    <rdf:RDF>
      <cc:Work
         rdf:about="">
        <dc:format>image/svg+xml</dc:format>
        <dc:type
           rdf:resource="http://purl.org/dc/dcmitype/StillImage" />
      </cc:Work>
    </rdf:RDF>
  </metadata>
  <defs
     id="defs4">
    <linearGradient
       inkscape:collect="always"
       id="linearGradient4337">
      <stop
         style="stop-color:#4184d3;stop-opacity:1"
         offset="0"
         id="stop4339" />
      <stop
         style="stop-color:#47cbe7;stop-opacity:1"
         offset="1"
         id="stop4341" />
    </linearGradient>
    <linearGradient
       inkscape:collect="always"
       id="linearGradient4329">
      <stop
         style="stop-color:#f9bf33;stop-opacity:1"
         offset="0"
         id="stop4331" />
      <stop
         style="stop-color:#f96d7e;stop-opacity:1"
         offset="1"
         id="stop4333" />
    </linearGradient>
    <linearGradient
       inkscape:collect="always"
       xlink:href="#linearGradient4329"
       id="linearGradient4335"
       x1="68.11869"
       y1="18.30508"
       x2="39.474621"
       y2="84.813553"
       gradientUnits="userSpaceOnUse"
       gradientTransform="matrix(0.99999084,0,0,0.99999084,3.9217821e-4,4.4378006e-4)" />
    <linearGradient
       inkscape:collect="always"
       xlink:href="#linearGradient4337"
       id="linearGradient4343"
       x1="69.197868"
       y1="76.678101"
       x2="53.649559"
       y2="22.576408"
       gradientUnits="userSpaceOnUse"
       gradientTransform="matrix(0.99999084,0,0,0.99999084,3.9217821e-4,4.4378006e-4)" />
    <linearGradient
       gradientTransform="translate(-136.27119,-5.6949153)"
       x1="45.865"
       y1="4.4433"
       x2="47.6"
       gradientUnits="userSpaceOnUse"
       y2="89.46"
       id="linearGradient4276">
      <stop
         offset="0"
         style="stop-color:#e8e8e8;stop-opacity:1"
         id="stop9344" />
      <stop
         offset="1"
         style="stop-color:#efefef;stop-opacity:1"
         id="stop9346" />
    </linearGradient>
    <linearGradient
       gradientUnits="userSpaceOnUse"
       y2="83.389832"
       x2="63.864407"
       y1="-3.4576252"
       x1="32.949154"
       id="linearGradient4161"
       xlink:href="#linearGradient4276"
       inkscape:collect="always"
       gradientTransform="translate(-2.4291992e-6,-3.5012207e-7)" />
    <clipPath
       clipPathUnits="userSpaceOnUse"
       id="clipPath4367">
      <rect
         ry="7.6701431"
         rx="7.6701431"
         y="10.28156"
         x="17.656187"
         height="59.269287"
         width="59.269287"
         id="rect4369"
         style="opacity:0.5;fill:url(#linearGradient4371);fill-opacity:1;stroke:#000000;stroke-width:0.69728571;stroke-linecap:butt;stroke-linejoin:miter;stroke-miterlimit:4;stroke-dasharray:none;stroke-dashoffset:0;stroke-opacity:0.12000002" />
    </clipPath>
    <linearGradient
       inkscape:collect="always"
       xlink:href="#linearGradient4276"
       id="linearGradient4371"
       gradientUnits="userSpaceOnUse"
       gradientTransform="matrix(0.69728574,0,0,0.69728574,13.821113,6.4464879)"
       x1="32.949154"
       y1="-3.4576252"
       x2="63.864407"
       y2="83.389832" />
  </defs>
  <rect
     style="opacity:1;fill:url(#linearGradient4161);fill-opacity:1;stroke:#000000;stroke-width:1;stroke-linecap:butt;stroke-linejoin:miter;stroke-miterlimit:4;stroke-dasharray:none;stroke-dashoffset:0;stroke-opacity:0.12000002"
     id="rect4155"
     width="85"
     height="85"
     x="5.5"
     y="5.5"
     rx="11"
     ry="11" />
  <g
     id="g4352"
     transform="matrix(1.4341323,0,0,1.4341323,-19.821307,-9.2451168)"
     clip-path="url(#clipPath4367)">
    <circle
       r="33.354336"
       style="display:inline;opacity:1;fill:url(#linearGradient4343);fill-opacity:1;fill-rule:evenodd;stroke:#000000;stroke-width:1;stroke-linecap:round;stroke-linejoin:round;stroke-miterlimit:4;stroke-dasharray:none;stroke-opacity:0.12000002"
       id="path4141"
       cx="47.999935"
       cy="48.000141" />
    <path
       id="path34"
       d="m 42.655521,15.091732 a 33.354335,33.354335 0 0 0 -5.32687,1.350509 c -0.101461,0.30785 -0.448328,0.483885 -0.739147,0.631407 -0.30396,0.152789 -0.693946,0.540056 -1.022279,0.343265 -0.0977,-0.254613 0.16614,-0.31771 0.245547,-0.458522 A 33.354335,33.354335 0 0 0 22.352774,26.69008 c 2.15134,2.561056 6.165109,1.143378 10.53097,-0.744159 -0.058,0.01375 -0.118318,0.03199 -0.170379,0.02755 -0.231159,-0.02181 -0.495327,-0.338471 -0.496105,-0.553733 -7.98e-4,-0.265682 0.384958,-0.415835 0.155345,-0.719103 0.03291,-0.205771 0.489897,-0.320664 0.433466,-0.648948 -0.05799,-0.341239 -0.535869,-0.167123 -0.962144,-0.220491 -0.31029,-0.03849 -0.719695,-0.21643 -0.994716,-0.36832 -0.3635,-0.201281 -0.673545,-0.595075 -1.147559,-0.653958 -0.269557,-0.03336 -0.521953,0.09387 -0.648945,-0.06264 -0.13933,-0.166387 0.05725,-0.414375 0.06515,-0.528678 -0.0092,-0.188579 -0.360032,-0.248733 -0.375837,-0.433466 -0.01257,-0.131878 0.333593,-0.539531 0.466038,-0.653956 0.24519,-0.213471 0.692542,-0.437473 1.087425,-0.651453 0.386313,-0.209491 0.833164,-0.430777 1.207691,-0.55624 0.159922,-0.05516 0.342514,-0.03492 0.496106,-0.09521 0.3925,-0.144431 0.65088,-0.422516 1.022279,-0.531174 0.193553,-0.06029 0.407642,-0.04134 0.62389,-0.09521 0.514762,-0.112892 0.895014,-0.484084 1.332971,-0.558745 -0.09713,0.357276 -0.495546,0.414322 -0.588812,0.77673 0.375298,0.682995 1.017955,-0.160674 1.45825,-0.157852 0.399671,0 0.800028,0.567013 1.052344,0.03257 -0.09161,-0.289155 -0.36111,-0.452877 -0.618878,-0.618878 -0.238171,-0.152918 -0.613849,-0.291759 -0.588813,-0.623891 0.286041,-0.129184 0.395125,0.218951 0.651451,0.220491 0.139447,7.98e-4 0.321913,-0.172127 0.46604,-0.220491 0.322874,-0.109044 0.862731,-0.142281 1.117491,-0.368321 0.153486,-0.135727 0.126439,-0.353825 0.245547,-0.528678 0.101911,-0.147657 0.355352,-0.190281 0.463533,-0.34076 0.131697,-0.183321 0.02197,-0.336866 0.190424,-0.433465 0.362048,-0.161641 0.81159,0.0372 1.212703,0 0.189656,-0.01796 0.31496,-0.170297 0.493601,-0.157853 0.347132,0.02951 0.531267,0.585597 0.774225,0.744159 0.177861,0.112891 0.498075,0.10875 0.528677,0.338253 0.06027,0.452722 -0.593488,0.490242 -0.994716,0.719104 -0.199777,0.111608 -0.279146,0.370396 -0.523667,0.463532 -0.65655,0.250799 -1.656646,-0.279743 -1.86666,0.430961 0.30328,0.446563 0.85957,-0.02879 1.24277,-0.03007 0.273458,0 0.606611,0.253352 0.774224,0.433466 0.144995,0.155867 0.197032,0.459392 0.373333,0.561251 0.117522,0.06799 0.323474,0.04518 0.466039,0.09521 0.455209,0.138549 0.837197,0.383827 1.335476,0.278119 0.170851,-0.300189 -0.351038,-0.385851 -0.152841,-0.621385 0.333886,0.0295 0.547299,0.178835 0.804293,0.283132 0.358934,-0.262602 0.601391,-0.29505 0.588812,-0.716598 -0.0099,-0.352658 -0.469774,-0.369167 -0.463533,-0.776731 0.0038,-0.229376 0.164399,-0.331198 0.338253,-0.338254 0.399554,-0.01924 0.516146,0.578409 0.809305,0.621384 0.176972,0.02822 0.70094,-0.231302 0.806798,-0.28313 0.149514,-0.07184 0.60408,-0.339786 0.618879,-0.493599 0.02284,-0.228863 -0.479023,-0.527549 -0.714093,-0.623892 -0.334554,-0.137265 -0.667897,-0.112318 -0.801786,-0.403398 -0.07129,-0.158434 0.0387,-0.317872 -0.09522,-0.428455 -0.01578,-0.167799 0.20469,-0.278574 0.155345,-0.440983 -0.05019,-0.165104 -0.230975,-0.136436 -0.466039,-0.243042 -0.165289,-0.07441 -0.319505,-0.246117 -0.463531,-0.280625 -0.19442,-0.04362 -0.38555,2.19e-4 -0.533687,-0.06264 -0.229823,-0.08515 -0.335992,-0.217448 -0.418435,-0.355792 z m -1.994443,1.959366 c -0.300459,-0.03848 -0.706457,0.217237 -0.656464,0.430961 0.08377,0.356762 0.967005,1.92e-4 0.90201,-0.280626 -0.05624,-0.09365 -0.145366,-0.137438 -0.245546,-0.147829 l 0,-0.0025 z m 1.686257,0.769215 c 0.03637,-6.42e-4 0.07822,0.01975 0.112751,0.03257 0.02194,0.155868 -0.06785,0.201637 -0.220492,0.182907 -0.09169,-0.112891 -0.0018,-0.213298 0.107735,-0.215479 z m -7.025656,1.939322 c -0.06036,0.0058 -0.114008,0.02189 -0.155347,0.05011 -0.121372,0.07184 -0.136235,0.187434 -0.125284,0.245548 0.06649,0.329951 0.687741,0.04284 0.681519,-0.127786 -0.0037,-0.07954 -0.09728,-0.139387 -0.215481,-0.162862 l 0,0.005 c -0.0591,-0.01283 -0.125066,-0.01579 -0.185412,-0.01002 z m 2.385315,0.195435 c -0.419157,0.0975 -0.399161,0.744872 -0.804293,0.869438 0.05491,0.303267 -0.357997,0.501886 -0.403399,0.741652 -0.03056,0.161769 0.05075,0.354358 0.06013,0.501118 0.09326,1.483882 -1.127593,2.179665 -2.573234,2.139768 -0.283586,0.271197 -0.216458,0.775785 -0.370828,1.147557 -0.07003,0.168509 -0.236743,0.337775 -0.423443,0.458522 0.692094,-0.301286 1.374947,-0.585415 2.07713,-0.891986 2.077142,-0.871931 4.249894,-1.840697 6.577158,-2.357756 -0.48709,0.327481 -0.934273,0.650269 -1.340488,0.967155 -1.217823,0.950276 -2.076014,1.853178 -2.593279,2.70603 l -0.155346,0.155347 c -0.164192,0.275206 -0.316861,0.56265 -0.461027,0.85691 -0.126002,0.260338 -0.244239,0.52934 -0.353288,0.806798 -0.003,0.0074 -0.0046,0.01509 -0.0076,0.02256 -0.234331,0.599788 -0.429732,1.240074 -0.581296,1.929299 0.09891,-0.03093 0.214721,-0.07025 0.30067,-0.102731 0.437178,-0.16626 0.887691,-0.46409 1.368049,-0.370827 -0.09401,0.333031 -0.544446,0.214523 -0.468543,0.61888 0.105873,0.560994 0.854122,-0.165951 1.052345,-0.248053 0.378525,-0.16023 1.026671,-0.255862 1.523394,-0.435971 0.43562,-0.158308 1.217379,-0.398737 0.806799,-0.897 -0.342461,-0.02309 -0.508301,0.398528 -0.806799,0.526173 -0.206123,0.03207 -0.165354,-0.17137 -0.340759,-0.187919 -0.166172,-0.02181 -0.261842,0.155364 -0.433466,0.127786 -0.170731,-0.03079 -0.40926,-0.293988 -0.435971,-0.493601 -0.06808,-0.51789 0.436873,-0.731092 0.651452,-1.117489 -0.141788,-0.4685 -0.788363,-0.100192 -1.180129,-0.283131 0.0376,-0.278769 0.327967,-0.472807 0.653956,-0.526174 0.267115,-0.04105 0.86574,-0.01711 1.024783,0.125284 0.09327,0.07569 0.01116,0.273189 0.155347,0.403399 0.158308,0.142783 0.351006,0.13069 0.55624,0.09772 0.07457,-0.353553 -0.461384,-0.264359 -0.403399,-0.498609 0.419145,-0.274404 1.097898,-0.04067 1.61109,-0.12277 0.295386,-0.04105 0.607663,-0.255743 0.869439,-0.4034 0.24908,-0.140088 0.575256,-0.391401 0.839369,-0.160358 0.07216,0.25298 -0.232316,0.340063 -0.373332,0.46604 -0.474793,0.422189 -0.966416,0.908191 -1.335476,1.398115 0.226495,0.221037 0.641698,0.105438 1.024783,0.150336 0.14968,0.02309 0.340232,0.06693 0.498612,0.09772 0.184862,0.03336 0.378763,0.02672 0.523667,0.06264 0.260992,0.06543 0.335952,0.34577 0.593823,0.34577 0.424606,-8.71e-4 0.425929,-0.462322 0.185414,-0.749169 0.07607,-0.293133 0.193632,-0.443305 0.0902,-0.648947 -0.191214,-0.381907 -0.893499,0.0014 -0.929573,-0.496105 -0.02276,-0.309297 0.25876,-0.296738 0.370827,-0.528679 -0.05106,-0.597812 0.496353,-0.641774 0.438478,-1.177623 -0.02426,-0.224375 -0.215848,-0.223976 -0.373334,-0.433467 -0.08151,-0.106477 -0.122654,-0.320397 -0.220491,-0.403398 -0.324434,-0.273892 -0.982323,-0.221009 -1.022277,-0.74416 -0.0146,-0.30904 0.07319,-0.569175 0.03007,-0.904515 -0.03987,-0.312379 -0.252714,-1.178234 -0.526172,-1.237759 -0.346361,-0.07312 -0.702233,0.517428 -1.11749,0.714092 -0.225712,0.106477 -0.547736,0.22826 -0.774225,0.185414 -0.147268,-0.02951 -0.440829,-0.246904 -0.463533,-0.531185 -0.02513,-0.32636 0.215287,-0.330846 0.275613,-0.679014 -0.05181,-0.205 -0.262193,-0.160409 -0.463533,-0.313197 -0.228043,-0.173187 -0.410805,-0.54346 -0.714091,-0.586308 -0.151127,-0.02438 -0.345637,0.111109 -0.496105,0.127786 -0.461548,0.03207 -0.861673,-0.297138 -1.212704,-0.217986 z m 25.792482,2.397843 c -0.15158,0.128967 -0.285072,0.265611 -0.315704,0.338255 -0.08806,0.208818 0.0054,0.447602 -0.0025,0.759192 0.381687,0.03132 0.770496,0.07872 1.172615,0.152841 -0.111185,-0.244838 -0.268617,-0.477175 -0.425949,-0.709081 -0.132153,-0.183417 -0.272745,-0.364934 -0.428455,-0.541207 z m -2.33771,2.204915 c -0.0083,0.01935 -0.02057,0.03037 -0.02506,0.05762 -0.03062,0.191147 0.160815,0.284191 0.155347,0.463533 -0.09166,0.228095 -0.360495,0.286078 -0.405905,0.561251 0.314195,0.51289 1.070544,0.04903 1.460756,-0.06515 0.175523,-0.05516 0.431346,-0.03974 0.526172,-0.182909 0.01065,-0.01633 0.003,-0.04414 0.01,-0.06264 -0.553054,-0.25959 -1.127098,-0.518128 -1.721334,-0.77172 z m -36.731863,0.150334 c 0.580538,-0.135853 0.346259,0.891816 0,0.904516 -0.482689,0.01796 -0.388757,-0.813689 0,-0.904516 z m 39.132212,0.949617 c -0.01027,0.0182 -0.02982,0.02683 -0.03759,0.04761 0.05416,0.151377 0.283936,0.128329 0.308188,0.308185 -0.0345,0.197562 -0.384987,0.229757 -0.308188,0.438478 0.33223,0.259395 0.678011,-0.05673 0.992212,-0.09521 0.135913,-0.01733 0.26344,-0.0092 0.398389,-0.01257 -0.43364,-0.231732 -0.888404,-0.459275 -1.353017,-0.68653 z m 2.407866,1.272837 c -0.187102,0.08926 -0.376477,0.168841 -0.458521,0.17038 -0.176295,0 -0.339163,-0.161064 -0.466039,-0.120268 -0.186428,0.06158 -0.163283,0.422084 -0.373331,0.496105 -0.411361,0.144707 -1.096918,-0.365027 -1.240265,0.248052 0.176293,0.354583 0.624225,0.267257 0.932077,0.463535 0.193555,0.120588 0.600475,0.661743 0.651453,0.869437 0.04308,0.175495 -0.02316,0.870829 -0.09521,1.057357 -0.191988,0.494927 -0.638074,0.321784 -1.207691,0.308186 -0.155917,0 -0.319402,0.04027 -0.463533,0.03257 -0.960614,-0.06671 -1.926198,-0.401019 -2.360262,0.28313 0.03503,0.526613 0.146004,0.875374 0.03007,1.33297 -0.08538,0.335981 -0.385631,0.640869 -0.370825,0.932078 0.0069,0.147785 0.179313,0.290395 0.21548,0.4936 0.01891,0.106477 -0.05021,0.338218 0,0.435972 0.157517,0.305961 0.588854,0.0439 0.869437,0.09521 0.274236,0.04234 0.591947,0.437042 0.588813,0.744158 -0.003,0.21411 -0.207704,0.570577 -0.343267,0.776731 -0.27101,0.411413 -0.634399,0.432083 -1.022278,0.651452 -0.323539,0.183321 -0.461799,0.488009 -0.651451,0.8068 -0.205347,0.344832 -0.330133,0.55344 -0.245547,1.052344 -0.277357,0.550089 -0.698427,0.888359 -1.272837,1.150064 -0.169951,0.07441 -0.402816,0.105348 -0.558746,0.217985 -0.123719,0.09365 -0.197033,0.330349 -0.373331,0.528679 -0.217028,0.242845 -0.444336,0.341312 -0.558745,0.526172 -0.08847,0.143039 -0.118267,0.426835 -0.215481,0.618879 -0.132457,0.260292 -0.419868,0.389946 -0.593824,0.653956 -0.07993,0.127004 -0.126925,0.366074 -0.215479,0.526174 -0.196669,0.35702 -0.529671,0.615399 -0.4936,0.929572 0.03592,0.304037 0.374893,0.35898 0.398388,0.62389 0.01373,0.147657 -0.09643,0.237842 -0.0902,0.400894 0.01052,0.238098 0.166607,0.40562 0.185414,0.588812 0.04702,0.460804 -0.161112,0.64733 -0.248054,0.962144 -0.04155,0.149197 -0.02097,0.318204 -0.06013,0.435971 -0.07607,0.230145 -0.397116,0.438851 -0.403398,0.711587 -0.0038,0.194353 0.201515,0.352181 0.217986,0.62389 0.01257,0.187169 -0.09804,0.381319 -0.06515,0.553735 0.06581,0.337776 0.669641,0.732242 0.932076,0.994716 0.351033,0.35099 0.808385,0.622363 0.959639,0.992212 0.127683,0.314044 0.131452,0.727962 0.375838,0.96465 0.180973,0.173827 0.47964,0.281622 0.711585,0.463532 0.216141,0.167926 0.452967,0.31837 0.684024,0.498612 0.377745,0.295442 0.946661,0.879771 1.548452,0.834358 0.314192,-0.02566 0.635731,-0.277259 0.992212,-0.340758 0.366727,-0.06543 0.842862,-0.09985 1.212703,-0.06264 0.283696,0.03079 0.572323,0.199654 0.866931,0.185415 0.310967,-0.01411 0.67142,-0.249073 1.024785,-0.4034 0.611919,-0.266321 1.526457,-0.62458 2.420393,-0.4936 0.680929,0.100063 0.645804,0.878719 1.117491,1.177625 0.305771,0.02363 0.578674,-0.03812 0.836864,-0.08268 0.04843,-0.794553 0.06009,-1.622834 0.05011,-2.470508 -0.0052,-0.298416 -0.0022,-0.589037 -0.01503,-0.894491 -0.01129,-0.308539 -0.03319,-0.626152 -0.05263,-0.942101 -0.05226,-0.790433 -0.113764,-1.589887 -0.21548,-2.425405 0.353765,0.275815 0.73418,0.797898 1.132523,1.578517 0.398345,0.78062 0.816996,1.821797 1.247782,3.131981 0.157308,-0.491384 0.290627,-1.000352 0.403398,-1.523395 0.111724,-0.51818 0.202424,-1.05148 0.270603,-1.601068 6.07e-4,-0.0049 0.002,-0.01013 0.0025,-0.01503 0.0278,-0.225566 0.03463,-0.465661 0.05513,-0.696552 0.02994,-0.337257 0.0683,-0.668587 0.08268,-1.017267 0.02382,-0.57764 0.02621,-1.172225 0.0076,-1.78147 0,0 0,-0.0025 0,-0.0025 -0.01913,-0.616351 -0.06031,-1.247736 -0.122769,-1.896728 -0.04438,-0.460954 -0.114252,-0.940608 -0.180402,-1.41816 -0.02706,-0.195452 -0.04196,-0.383045 -0.07266,-0.581295 -10e-4,-0.0064 -0.0015,-0.01356 -0.0025,-0.02005 -0.06333,-0.407356 -0.149353,-0.831097 -0.228009,-1.250286 -0.05189,-0.276615 -0.09178,-0.545039 -0.150335,-0.826844 -0.0015,-0.0073 -0.0035,-0.01523 -0.005,-0.02255 -0.147622,-0.708455 -0.316598,-1.4335 -0.506127,-2.174847 0,0 0,-0.0025 0,-0.0025 -0.07972,-0.05597 -0.163744,-0.113418 -0.180402,-0.17038 -0.06581,-0.228862 0.4195,-0.487038 0.435972,-0.681519 0.01257,-0.14445 -0.181908,-0.240511 -0.217986,-0.466038 -0.02117,-0.137138 0.05846,-0.280124 0.03257,-0.370827 -0.04543,-0.160101 -0.311397,-0.336911 -0.561251,-0.340758 -0.221048,0 -0.430017,0.178998 -0.618879,0.185412 -0.272686,0.01796 -0.714663,-0.150749 -1.052346,-0.127785 -0.2069,0.01924 -0.401062,0.140978 -0.593823,0.155347 -0.54069,0.04105 -0.974741,-0.02694 -1.393105,0 -0.304732,0.02181 -0.8339,0.112519 -1.117491,0.245547 -0.144122,0.06671 -0.250331,0.214923 -0.435971,0.308187 -0.08377,0.03977 -0.202019,0.04256 -0.313198,0.09772 -0.176303,0.07697 -0.356049,0.268614 -0.523667,0.310693 -0.242959,0.06414 -0.618618,-0.0429 -1.057357,-0.03007 -0.314975,0.02052 -0.82964,0.02044 -0.834359,-0.375837 -0.0076,-0.574464 0.973641,-0.362187 1.515878,-0.463533 0.204461,-0.0372 0.316838,-0.228626 0.561251,-0.373333 0.116868,-0.06927 0.263587,-0.07927 0.373333,-0.155346 0.187977,-0.131878 0.468613,-0.438974 0.496105,-0.588812 0.02427,-0.138549 -0.07897,-0.330838 -0.06264,-0.433466 0.02135,-0.133161 0.172367,-0.269712 0.340761,-0.435971 0.261659,-0.258625 0.548232,-0.604888 0.869437,-0.774226 0.219477,-0.112892 0.520324,-0.102886 0.621385,-0.278119 0.02276,-0.198716 -0.0373,-0.312588 -0.03257,-0.493602 0.134829,-0.12572 0.230413,-0.228689 0.343264,-0.253063 0.334555,-0.07184 0.662922,0.234278 1.052347,0.217987 0.168394,0 0.315128,-0.131895 0.496106,-0.25056 0.152008,-0.101346 0.317118,-0.169859 0.466039,-0.245547 0.163735,-0.0821 0.332179,-0.265676 0.531182,-0.27812 0.02037,-0.0014 0.03383,0.01077 0.05262,0.01257 -0.0036,-0.0032 -0.0065,-0.0068 -0.01,-0.01 -0.262521,-0.236568 -0.540302,-0.471203 -0.829347,-0.704069 -0.04893,-0.03933 -0.09813,-0.07855 -0.14783,-0.117766 -0.265722,-0.210215 -0.54414,-0.41929 -0.831854,-0.626396 -0.09671,-0.0694 -0.196461,-0.138919 -0.295657,-0.207963 -0.26055,-0.181902 -0.5264,-0.361788 -0.804295,-0.541206 -0.141429,-0.0911 -0.290092,-0.182649 -0.43597,-0.273109 -0.276139,-0.171533 -0.551959,-0.341968 -0.844382,-0.511139 -0.0067,-0.0038 -0.01337,-0.0087 -0.02005,-0.01257 z m 4.246965,3.971351 c -0.201198,0.06671 -0.296948,0.489575 0.01,0.543711 0.142534,-0.08082 0.253274,-0.200931 0.217987,-0.463533 -0.07873,-0.0821 -0.158424,-0.103334 -0.225504,-0.07768 l -0.0025,0 0,-0.0025 z m -0.07768,0.864426 c -0.09949,0.02951 -0.209133,0.09918 -0.315703,0.207963 0.0076,0.346372 0.03809,0.568352 -0.03007,0.869439 0.19989,0.382163 0.639715,0.03558 0.741653,-0.220492 0.11987,-0.64592 -0.09776,-0.938243 -0.395883,-0.85691 z m 2.645896,1.708808 c -0.27618,-0.01796 -0.534731,0.02185 -0.696551,0.142818 0.22727,0.372285 0.704177,0.497088 1.212702,0.588813 0.02408,-0.01803 0.03901,-0.04423 0.05763,-0.06765 -0.09135,-0.216267 -0.200334,-0.43028 -0.310692,-0.643935 -0.09226,-0.0063 -0.171298,-0.01244 -0.263088,-0.01503 l 0,-0.005 z m -0.233018,2.994174 c -0.107901,-0.01418 -0.214363,0.0062 -0.320715,0.02005 0.273862,0.165837 0.531633,0.35731 0.771718,0.573777 0.07955,0.06996 0.159596,0.139994 0.235526,0.21548 0.08219,0.08381 0.1627,0.170038 0.240536,0.260582 0.176564,0.200947 0.345717,0.413328 0.498612,0.651452 0.0258,-0.256942 0.02765,-0.510397 0.03007,-0.764204 -0.334313,-0.11411 -0.296028,-0.441833 -0.586307,-0.64644 -0.169277,-0.11674 -0.602211,-0.281694 -0.869437,-0.310692 z M 35.116213,49.205258 c -0.09985,-0.0068 -0.216364,0.0025 -0.353286,0.02756 -0.249972,0.04361 -0.39176,0.368138 -0.684025,0.375836 -0.239741,0 -0.427629,-0.265407 -0.744159,-0.310692 -0.06055,-0.0085 -0.122758,0.0032 -0.185413,0.0076 l 0,0.01 0.518656,0.77673 c 0.344813,0.426551 0.69319,0.831468 1.044828,1.215209 0.703442,0.767955 1.417856,1.449415 2.147286,2.044556 0,0 0.0025,0 0.0025,0 0.363978,0.296899 0.732227,0.573271 1.102456,0.826843 0.347301,0.222731 0.69725,0.40256 1.047336,0.558745 0.07834,0.0352 0.157036,0.0633 0.235524,0.09521 0.302057,0.121717 0.605138,0.223036 0.909528,0.29566 0.05007,0.01219 0.100203,0.02675 0.150334,0.03759 0.753271,0.159516 1.512736,0.175765 2.282587,0.03759 -0.0466,-0.04181 -0.10191,-0.07564 -0.130289,-0.135302 0.203675,-0.668369 -0.363998,-0.854123 -0.501117,-1.240263 -0.06421,-0.180884 -0.0363,-0.399868 -0.09271,-0.561251 -0.08071,-0.231299 -0.307993,-0.360793 -0.558746,-0.553735 -0.448977,-0.345602 -0.846569,-0.670016 -1.488317,-0.749169 -0.282024,-0.03464 -0.55871,0.08824 -0.899504,0.06515 -0.361163,-0.02566 -0.81469,-0.342795 -1.084917,-0.651452 -0.262554,-0.301599 -0.39256,-0.567392 -0.621386,-0.711585 -0.217033,-0.138549 -0.505926,-0.139639 -0.653958,-0.280626 -0.06571,-0.06415 -0.05477,-0.168106 -0.125284,-0.313198 -0.108876,-0.225399 -0.288483,-0.348708 -0.152841,-0.618879 -0.247638,-0.129181 -0.255719,0.234744 -0.526172,0.187919 C 35.574156,49.384698 35.415728,49.2259 35.116201,49.20533 Z m 15.454442,9.150393 -3.395065,2.18988 c -0.488086,0.246946 -0.993272,0.461018 -1.503351,0.658969 -0.229625,0.08907 -0.45754,0.181574 -0.691542,0.260581 -0.378308,0.127825 -0.760511,0.242017 -1.150062,0.343265 -1.942494,0.50487 -4.023673,0.67779 -6.228882,0.496106 0.84838,0.855346 1.735259,1.622627 2.660929,2.295115 0.925672,0.672486 1.889483,1.251029 2.891445,1.733864 0.667974,0.321888 1.353068,0.601781 2.054579,0.836864 0.470299,0.152859 0.949778,0.283873 1.435699,0.395883 0.485921,0.112006 0.978281,0.20502 1.478294,0.280625 0.08114,-0.193084 0.156103,-0.390727 0.260582,-0.583801 0.136351,-0.250671 0.314045,-0.505322 0.340759,-0.684024 0.02426,-0.161769 -0.05994,-0.303865 -0.03257,-0.493601 0.02736,-0.186528 0.202098,-0.355223 0.253065,-0.56125 0.06732,-0.268888 0.0902,-0.662853 0.0902,-0.962145 0,-0.245795 -0.114264,-0.45984 -0.125284,-0.681518 -0.03988,-0.804866 0.291098,-0.897251 0.588814,-1.335476 0.148097,-0.217829 0.204018,-0.463141 0.308186,-0.618879 0.499952,-0.745983 1.37068,-1.107477 1.307915,-2.234982 -0.02031,-0.373056 -0.253656,-1.213921 -0.528678,-1.33297 -0.0035,-0.0015 -0.01142,-10e-4 -0.01503,-0.0025 z"
       style="fill:#2c7abe;fill-opacity:1;fill-rule:nonzero;stroke:#000000;stroke-width:1;stroke-miterlimit:4;stroke-dasharray:none;stroke-opacity:0.12000002"
       inkscape:connector-curvature="0" />
    <path
       sodipodi:nodetypes="cccsccccccccccccccccccccccccccccccccccccccccccccccccccccsccccccccccccccccccccccc"
       inkscape:connector-curvature="0"
       id="path4217"
       d="m 47.999296,13.387381 c -0.423768,0 -0.845228,0.05901 -1.268437,0.07312 6.46398,1.65771 8.408394,3.745306 9.55628,7.184395 1.221939,2.314534 3.835176,3.130304 8.584147,3.233703 1.928774,0.03977 3.432799,2.191893 4.535952,4.089114 -3.138006,-3.253332 -10.003449,-1.006917 -14.098333,-2.597662 17.44009,5.567095 15.534328,21.243761 10.083285,30.576688 -0.342127,-1.695683 -1.806266,-0.997679 -1.559338,-4.85716 -1.978775,9.054804 -17.564158,12.518394 -22.449751,5.07345 0.178258,-0.05004 0.355323,-0.106477 0.531054,-0.166258 l 0.02368,-0.02181 c 0.04517,-0.02052 0.09024,-0.03079 0.135238,-0.04105 0.09746,-0.03592 0.194417,-0.07184 0.290898,-0.109043 0.217989,-0.09108 0.433429,-0.178702 0.646065,-0.277225 0.06562,-0.03079 0.131101,-0.06158 0.196184,-0.09237 0.08162,-0.03977 0.162796,-0.07954 0.243534,-0.128286 0.199073,-0.101345 0.395348,-0.206668 0.588568,-0.318021 0.09317,-0.05773 0.185619,-0.106477 0.277355,-0.163308 0.06581,-0.04105 0.131275,-0.08595 0.196182,-0.13316 0.189519,-0.11674 0.375639,-0.247592 0.558122,-0.379085 0.07395,-0.05645 0.147209,-0.105195 0.219858,-0.159844 0.07294,-0.06029 0.144936,-0.112892 0.216482,-0.176009 0.152908,-0.121871 0.303006,-0.248746 0.449882,-0.378571 0.09491,-0.07825 0.188441,-0.163437 0.280749,-0.246822 0.07186,-0.07056 0.142865,-0.1415 0.213087,-0.21334 0.111532,-0.109043 0.220951,-0.223346 0.328118,-0.338033 0.108261,-0.110326 0.214159,-0.225912 0.31795,-0.341754 l 0.01039,-0.01411 c 0.05022,-0.06415 0.09989,-0.129312 0.148774,-0.18935 l 0.02026,-0.02437 c 0.09456,-0.111609 0.187055,-0.23053 0.27737,-0.348297 0.09941,-0.128285 0.196462,-0.252979 0.290901,-0.382419 l 0.01039,-0.02181 c 0.01545,-0.02822 0.03172,-0.04875 0.04732,-0.07569 0.04689,-0.06927 0.09318,-0.138549 0.138708,-0.209748 0.06803,-0.101346 0.134544,-0.20205 0.19956,-0.304551 0.101962,-0.161512 0.200065,-0.324948 0.294278,-0.490308 l 0.0035,0 c 0.183731,-0.330465 0.351906,-0.668883 0.503999,-1.014614 l 0.0035,0 0.01039,-0.0295 c 0.399176,-0.91763 0.683216,-1.881314 0.845628,-2.868858 0.0047,-0.03079 0.01167,-0.06158 0.01732,-0.08467 0.09525,-0.578185 0.148413,-1.162784 0.158983,-1.748665 -1.000398,0.144577 -1.97879,0.413978 -2.912344,0.801529 -0.457364,0.530847 -0.959857,1.020644 -1.501842,1.464641 -0.195802,0.16164 -0.396592,0.315198 -0.602094,0.463369 -0.126772,0.09622 -0.25529,0.185117 -0.385594,0.27389 -0.199212,0.133289 -0.402254,0.256316 -0.608864,0.375494 -0.149287,0.08467 -0.30034,0.174724 -0.453241,0.257212 -0.251466,0.134443 -0.507555,0.259266 -0.767837,0.375494 -0.05611,0.02822 -0.11257,0.04747 -0.1692,0.07569 -1.493423,0.636683 -3.09708,0.966121 -4.719059,0.970482 -0.696531,0 -1.3914,-0.06927 -2.076867,-0.192172 -1.73398,-5.003149 -0.0035,-8.46751 3.311483,-10.570245 3.612999,-1.360857 8.805373,-4.82432 8.814845,-13.901702 -4.807695,3.782254 -10.352589,3.869616 -11.66292,1.454378 -0.520524,-0.95945 -0.400837,-2.085801 0.106464,-3.879623 0.686092,-1.587795 2.749793,-3.104903 3.725932,-4.545683 -4.356792,0.644893 -8.185908,1.295175 -11.216415,3.9539 l -1.386827,1.28876 -0.524285,0 c -1.319062,-1.27e-4 -2.547582,0.142911 -3.274284,0.334827 -2.346358,-1.988817 -4.366556,-4.333113 -5.987049,-6.947451 -1.763834,3.835747 -2.682093,8.005681 -2.692485,12.227186 0.0035,2.019989 0.216048,4.034078 0.632522,6.010707 -1.590425,4.024073 -2.360404,8.396441 -2.36437,13.038723 0,19.128967 15.507484,34.635787 34.636953,34.635787 0.911246,0 1.819878,-0.06159 2.726312,-0.135725 0.128303,-0.02053 0.257403,0 0.385612,-0.02438 0.178692,-0.02053 0.349814,-0.05905 0.527657,-0.07313 0.603188,-0.06798 1.204035,-0.15125 1.802892,-0.250158 C 70.128113,79.50696 82.629299,65.123285 82.636954,47.998784 82.636228,34.781231 77.38102,21.641676 65.993168,16.844553 c -3.373897,-0.867341 -4.720997,-1.384974 -6.593661,-3.463848 0.717747,2.538265 0.837346,2.606513 3.187689,3.962752 4.330003,0.111609 4.849798,1.37779 5.142222,3.988023 0.38317,0.608461 0.206436,0.361254 0.551348,0.994344 C 62.139981,17.40721 55.867954,13.366076 47.999912,13.362869 Z"
       style="fill:url(#linearGradient4335);fill-opacity:1;stroke:#000000;stroke-width:1;stroke-miterlimit:4;stroke-dasharray:none;stroke-opacity:0.12000002" />
    <path
       id="path4668"
       d="m 48.007449,25.066461 c -0.0215,0.01692 -0.04362,0.03084 -0.06515,0.04761 -0.809359,1.396789 -2.01772,3.152748 -3.79095,4.925977 -3.555879,3.555879 -4.932558,2.847722 -7.14342,10.796562 0.606643,-0.712423 1.343126,-1.335232 2.184869,-1.869167 3.613,-1.360857 8.805172,-4.823597 8.814644,-13.90098 z"
       style="fill:#ffffff;fill-opacity:1;stroke:#000000;stroke-width:1;stroke-miterlimit:4;stroke-dasharray:none;stroke-opacity:0.12000002"
       inkscape:connector-curvature="0" />
    <path
       id="path4679"
       d="m 48.007449,25.066461 c -0.971972,0.76466 -1.975457,1.369135 -2.966611,1.841605 0.775683,0.633719 1.697099,1.28432 2.618336,1.88921 0.215128,-1.128159 0.346844,-2.357997 0.348275,-3.730815 z"
       style="fill:#000000;fill-opacity:1;stroke:#000000;stroke-width:1;stroke-miterlimit:4;stroke-dasharray:none;stroke-opacity:0.12000002"
       inkscape:connector-curvature="0" />
  </g>
</svg>
