<?xml version="1.0" encoding="UTF-8" standalone="no"?>
<svg
   xmlns:dc="http://purl.org/dc/elements/1.1/"
   xmlns:cc="http://creativecommons.org/ns#"
   xmlns:rdf="http://www.w3.org/1999/02/22-rdf-syntax-ns#"
   xmlns:svg="http://www.w3.org/2000/svg"
   xmlns="http://www.w3.org/2000/svg"
   xmlns:xlink="http://www.w3.org/1999/xlink"
   xmlns:sodipodi="http://sodipodi.sourceforge.net/DTD/sodipodi-0.dtd"
   xmlns:inkscape="http://www.inkscape.org/namespaces/inkscape"
   height="96"
   width="96"
   id="svg2"
   version="1.1"
   inkscape:version="0.91 r13725"
   sodipodi:docname="gimp.svg">
  <metadata
     id="metadata123">
    <rdf:RDF>
      <cc:Work
         rdf:about="">
        <dc:format>image/svg+xml</dc:format>
        <dc:type
           rdf:resource="http://purl.org/dc/dcmitype/StillImage" />
      </cc:Work>
    </rdf:RDF>
  </metadata>
  <sodipodi:namedview
     pagecolor="#ffffff"
     bordercolor="#666666"
     borderopacity="1"
     objecttolerance="10"
     gridtolerance="10"
     guidetolerance="10"
     inkscape:pageopacity="0"
     inkscape:pageshadow="2"
     inkscape:window-width="1366"
     inkscape:window-height="716"
     id="namedview121"
     showgrid="false"
     inkscape:zoom="4"
     inkscape:cx="42.233362"
     inkscape:cy="47.506884"
     inkscape:window-x="0"
     inkscape:window-y="24"
     inkscape:window-maximized="1"
     inkscape:current-layer="svg2" />
  <defs
     id="defs4">
    <linearGradient
       inkscape:collect="always"
       id="linearGradient4260">
      <stop
         style="stop-color:#c2925a;stop-opacity:1;"
         offset="0"
         id="stop4262" />
      <stop
         style="stop-color:#c6a279;stop-opacity:1"
         offset="1"
         id="stop4264" />
    </linearGradient>
    <linearGradient
       inkscape:collect="always"
       id="linearGradient4252">
      <stop
         style="stop-color:#88275e;stop-opacity:1;"
         offset="0"
         id="stop4254" />
      <stop
         style="stop-color:#573b8d;stop-opacity:1"
         offset="1"
         id="stop4256" />
    </linearGradient>
    <linearGradient
       inkscape:collect="always"
       id="linearGradient4244">
      <stop
         style="stop-color:#381c0c;stop-opacity:1;"
         offset="0"
         id="stop4246" />
      <stop
         style="stop-color:#4e2711;stop-opacity:1"
         offset="1"
         id="stop4248" />
    </linearGradient>
    <filter
       x="-0.11224329"
       y="-0.079873785"
       width="1.2244866"
       height="1.1597476"
       color-interpolation-filters="sRGB"
       id="filter4009-8">
      <feGaussianBlur
         stdDeviation="6.7803529"
         id="feGaussianBlur4011-6" />
    </filter>
    <filter
       x="-0.12232576"
       y="-0.076450996"
       width="1.2446516"
       height="1.152902"
       color-interpolation-filters="sRGB"
       id="filter4005-7">
      <feGaussianBlur
         stdDeviation="6.7803529"
         id="feGaussianBlur4007-7" />
    </filter>
    <filter
       x="-0.07492853"
       y="-0.12866202"
       width="1.149857"
       height="1.257324"
       color-interpolation-filters="sRGB"
       id="filter4001-9">
      <feGaussianBlur
         stdDeviation="6.7803529"
         id="feGaussianBlur4003-7" />
    </filter>
    <filter
       x="-0.081570871"
       y="-0.11038305"
       width="1.1631417"
       height="1.2207661"
       color-interpolation-filters="sRGB"
       id="filter3997-0">
      <feGaussianBlur
         stdDeviation="6.7803529"
         id="feGaussianBlur3999-7" />
    </filter>
    <filter
       x="-0.1490933"
       y="-0.072374105"
       width="1.2981865"
       height="1.1447482"
       color-interpolation-filters="sRGB"
       id="filter3993-8">
      <feGaussianBlur
         stdDeviation="6.7803529"
         id="feGaussianBlur3995-4" />
    </filter>
    <filter
       color-interpolation-filters="sRGB"
       id="filter3989-9">
      <feGaussianBlur
         stdDeviation="6.7803529"
         id="feGaussianBlur3991-1" />
    </filter>
    <filter
       x="-0.071800567"
       y="-0.15538733"
       width="1.1436011"
       height="1.3107746"
       color-interpolation-filters="sRGB"
       id="filter3985-9">
      <feGaussianBlur
         stdDeviation="6.7803529"
         id="feGaussianBlur3987-0" />
    </filter>
    <filter
       x="-0.11224329"
       y="-0.079873785"
       width="1.2244866"
       height="1.1597476"
       color-interpolation-filters="sRGB"
       id="filter4009">
      <feGaussianBlur
         stdDeviation="6.7803529"
         id="feGaussianBlur4011" />
    </filter>
    <filter
       x="-0.12232576"
       y="-0.076450996"
       width="1.2446516"
       height="1.152902"
       color-interpolation-filters="sRGB"
       id="filter4005">
      <feGaussianBlur
         stdDeviation="6.7803529"
         id="feGaussianBlur4007" />
    </filter>
    <filter
       x="-0.07492853"
       y="-0.12866202"
       width="1.149857"
       height="1.257324"
       color-interpolation-filters="sRGB"
       id="filter4001">
      <feGaussianBlur
         stdDeviation="6.7803529"
         id="feGaussianBlur4003" />
    </filter>
    <filter
       x="-0.081570871"
       y="-0.11038305"
       width="1.1631417"
       height="1.2207661"
       color-interpolation-filters="sRGB"
       id="filter3997">
      <feGaussianBlur
         stdDeviation="6.7803529"
         id="feGaussianBlur3999" />
    </filter>
    <filter
       x="-0.1490933"
       y="-0.072374105"
       width="1.2981865"
       height="1.1447482"
       color-interpolation-filters="sRGB"
       id="filter3993">
      <feGaussianBlur
         stdDeviation="6.7803529"
         id="feGaussianBlur3995" />
    </filter>
    <filter
       color-interpolation-filters="sRGB"
       id="filter3989">
      <feGaussianBlur
         stdDeviation="6.7803529"
         id="feGaussianBlur3991" />
    </filter>
    <filter
       x="-0.071800567"
       y="-0.15538733"
       width="1.1436011"
       height="1.3107746"
       color-interpolation-filters="sRGB"
       id="filter3985">
      <feGaussianBlur
         stdDeviation="6.7803529"
         id="feGaussianBlur3987" />
    </filter>
    <linearGradient
       inkscape:collect="always"
       xlink:href="#linearGradient4244"
       id="linearGradient4250"
       x1="50.25"
       y1="92.75"
       x2="50.25"
       y2="4.25"
       gradientUnits="userSpaceOnUse" />
    <linearGradient
       inkscape:collect="always"
       xlink:href="#linearGradient4252"
       id="linearGradient4258"
       x1="64.477234"
       y1="53.89922"
       x2="77.488159"
       y2="43.076351"
       gradientUnits="userSpaceOnUse" />
    <linearGradient
       inkscape:collect="always"
       xlink:href="#linearGradient4260"
       id="linearGradient4266"
       x1="31.806255"
       y1="66.955437"
       x2="55.452271"
       y2="30.451187"
       gradientUnits="userSpaceOnUse" />
  </defs>
  <rect
     rx="11"
     y="5.5"
     x="5.5"
     height="85"
     width="85"
     id="rect4244"
     style="opacity:1;fill:url(#linearGradient4250);fill-opacity:1;stroke:#000000;stroke-width:1;stroke-linecap:butt;stroke-linejoin:miter;stroke-miterlimit:4;stroke-dasharray:none;stroke-dashoffset:0;stroke-opacity:0.12000002" />
  <path
     style="display:none;fill:#dbdbdb;fill-opacity:1;fill-rule:nonzero;stroke:none;stroke-width:25;marker-mid:none;filter:url(#filter3985);enable-background:new"
     id="path3095"
     transform="matrix(0.16100935,0,0,0.16107424,-549.00195,9.5123337)"
     inkscape:connector-curvature="0"
     d="m 324.38759,135.62452 c -45.38059,3.2742 -125.14974,80.45343 -113.93317,80.06244 92.77726,-3.23392 150.72813,2.10512 223.11793,24.5811 10.71863,3.32799 -11.56647,-97.10992 -109.18476,-104.64354 z" />
  <path
     style="display:none;fill:#dbdbdb;fill-opacity:1;fill-rule:nonzero;stroke:#000000;stroke-width:0;stroke-linecap:butt;stroke-linejoin:round;stroke-miterlimit:4;stroke-dasharray:none;stroke-dashoffset:1;stroke-opacity:1;marker-mid:none;filter:url(#filter3989);enable-background:new"
     id="path3097"
     transform="matrix(0.16100935,0,0,0.16107424,-549.00195,9.5123337)"
     inkscape:connector-curvature="0"
     d="M 186.37822,72.150309 C 160.57833,109.62675 157.33905,256.29261 163.99898,247.2588 218.88951,172.80293 350.45207,80.852043 428.9148,43.825512 525.90264,-1.943011 243.81268,3.6410539 186.37822,72.150309 Z" />
  <path
     style="display:none;fill:#dbdbdb;fill-opacity:1;fill-rule:nonzero;stroke:none;stroke-width:25;marker-mid:none;filter:url(#filter3993);enable-background:new"
     id="path3099"
     transform="matrix(0.16100935,0,0,0.16107424,-549.00195,9.5123337)"
     inkscape:connector-curvature="0"
     d="M 69.5521,231.67976 C 84.41923,274.68075 179.56014,331.84683 176.28962,321.11052 149.23774,232.30583 139.45061,174.93843 142.49683,99.2009 142.94789,87.986573 51.65499,135.42084 69.5521,231.67976 Z" />
  <path
     style="display:none;fill:#dbdbdb;fill-opacity:1;fill-rule:nonzero;stroke:none;stroke-width:25;marker-mid:none;filter:url(#filter3997);enable-background:new"
     id="path3101"
     transform="matrix(0.16100935,0,0,0.16107424,-549.00195,9.5123337)"
     inkscape:connector-curvature="0"
     d="m 81.97729,372.8505 c 42.13653,17.1648 147.83895,-16.69886 137.60948,-21.31646 -84.61255,-38.1942 -134.204,-68.649 -189.1504,-120.86343 -8.1358,-7.73129 -32.64264,92.18775 51.54092,142.17989 z" />
  <path
     style="display:none;fill:#dbdbdb;fill-opacity:1;fill-rule:nonzero;stroke:none;stroke-width:25;marker-mid:none;filter:url(#filter4001);enable-background:new"
     id="path3103"
     transform="matrix(0.16100935,0,0,0.16107424,-549.00195,9.5123337)"
     inkscape:connector-curvature="0"
     d="m 203.88504,453.62703 c 40.28664,-21.14484 82.54559,-123.77977 72.42084,-118.93689 -83.74641,40.05772 -138.99861,58.33341 -214.33707,66.67436 -11.15521,1.23503 49.42757,84.38627 141.91623,52.26253 z" />
  <path
     style="display:none;fill:#dbdbdb;fill-opacity:1;fill-rule:nonzero;stroke:none;stroke-width:25;marker-mid:none;filter:url(#filter4005);enable-background:new"
     id="path3105"
     transform="matrix(0.16100935,0,0,0.16107424,-549.00195,9.5123337)"
     inkscape:connector-curvature="0"
     d="m 345.96158,410.03296 c 9.84126,-44.42146 -41.30053,-142.93171 -44.13379,-132.07183 -23.43513,89.82691 -45.12493,143.83025 -87.36533,206.76832 -6.25446,9.31914 96.3617,16.68976 131.49912,-74.69649 z" />
  <path
     style="display:none;fill:#dbdbdb;fill-opacity:1;fill-rule:nonzero;stroke:none;stroke-width:25;marker-mid:none;filter:url(#filter4009);enable-background:new"
     id="path3107"
     transform="matrix(0.16100935,0,0,0.16107424,-549.00195,9.5123337)"
     inkscape:connector-curvature="0"
     d="M 401.89383,270.24178 C 374.5208,233.89852 266.4087,208.76833 272.82303,217.97814 c 53.05584,76.17847 80.01415,127.7542 100.41172,200.75689 3.02024,10.80938 75.29683,-62.40604 28.65908,-148.49325 z" />
  <path
     style="display:none;fill:#dbdbdb;fill-opacity:1;fill-rule:nonzero;stroke:none;stroke-width:25;marker-mid:none;filter:url(#filter3985-9);enable-background:new"
     id="path3095-7"
     transform="matrix(0.16100935,0,0,0.16107424,-982.66932,-31.746159)"
     inkscape:connector-curvature="0"
     d="m 324.38759,135.62452 c -45.38059,3.2742 -125.14974,80.45343 -113.93317,80.06244 92.77726,-3.23392 150.72813,2.10512 223.11793,24.5811 10.71863,3.32799 -11.56647,-97.10992 -109.18476,-104.64354 z" />
  <path
     style="display:none;fill:#dbdbdb;fill-opacity:1;fill-rule:nonzero;stroke:#000000;stroke-width:0;stroke-linecap:butt;stroke-linejoin:round;stroke-miterlimit:4;stroke-dasharray:none;stroke-dashoffset:1;stroke-opacity:1;marker-mid:none;filter:url(#filter3989-9);enable-background:new"
     id="path3097-4"
     transform="matrix(0.16100935,0,0,0.16107424,-982.66932,-31.746159)"
     inkscape:connector-curvature="0"
     d="M 186.37822,72.150309 C 160.57833,109.62675 157.33905,256.29261 163.99898,247.2588 218.88951,172.80293 350.45207,80.852043 428.9148,43.825512 525.90264,-1.943011 243.81268,3.6410539 186.37822,72.150309 Z" />
  <path
     style="display:none;fill:#dbdbdb;fill-opacity:1;fill-rule:nonzero;stroke:none;stroke-width:25;marker-mid:none;filter:url(#filter3993-8);enable-background:new"
     id="path3099-9"
     transform="matrix(0.16100935,0,0,0.16107424,-982.66932,-31.746159)"
     inkscape:connector-curvature="0"
     d="M 69.5521,231.67976 C 84.41923,274.68075 179.56014,331.84683 176.28962,321.11052 149.23774,232.30583 139.45061,174.93843 142.49683,99.2009 142.94789,87.986573 51.65499,135.42084 69.5521,231.67976 Z" />
  <path
     style="display:none;fill:#dbdbdb;fill-opacity:1;fill-rule:nonzero;stroke:none;stroke-width:25;marker-mid:none;filter:url(#filter3997-0);enable-background:new"
     id="path3101-4"
     transform="matrix(0.16100935,0,0,0.16107424,-982.66932,-31.746159)"
     inkscape:connector-curvature="0"
     d="m 81.97729,372.8505 c 42.13653,17.1648 147.83895,-16.69886 137.60948,-21.31646 -84.61255,-38.1942 -134.204,-68.649 -189.1504,-120.86343 -8.1358,-7.73129 -32.64264,92.18775 51.54092,142.17989 z" />
  <path
     style="display:none;fill:#dbdbdb;fill-opacity:1;fill-rule:nonzero;stroke:none;stroke-width:25;marker-mid:none;filter:url(#filter4001-9);enable-background:new"
     id="path3103-3"
     transform="matrix(0.16100935,0,0,0.16107424,-982.66932,-31.746159)"
     inkscape:connector-curvature="0"
     d="m 203.88504,453.62703 c 40.28664,-21.14484 82.54559,-123.77977 72.42084,-118.93689 -83.74641,40.05772 -138.99861,58.33341 -214.33707,66.67436 -11.15521,1.23503 49.42757,84.38627 141.91623,52.26253 z" />
  <path
     style="display:none;fill:#dbdbdb;fill-opacity:1;fill-rule:nonzero;stroke:none;stroke-width:25;marker-mid:none;filter:url(#filter4005-7);enable-background:new"
     id="path3105-1"
     transform="matrix(0.16100935,0,0,0.16107424,-982.66932,-31.746159)"
     inkscape:connector-curvature="0"
     d="m 345.96158,410.03296 c 9.84126,-44.42146 -41.30053,-142.93171 -44.13379,-132.07183 -23.43513,89.82691 -45.12493,143.83025 -87.36533,206.76832 -6.25446,9.31914 96.3617,16.68976 131.49912,-74.69649 z" />
  <path
     style="display:none;fill:#dbdbdb;fill-opacity:1;fill-rule:nonzero;stroke:none;stroke-width:25;marker-mid:none;filter:url(#filter4009-8);enable-background:new"
     id="path3107-0"
     transform="matrix(0.16100935,0,0,0.16107424,-982.66932,-31.746159)"
     inkscape:connector-curvature="0"
     d="M 401.89383,270.24178 C 374.5208,233.89852 266.4087,208.76833 272.82303,217.97814 c 53.05584,76.17847 80.01415,127.7542 100.41172,200.75689 3.02024,10.80938 75.29683,-62.40604 28.65908,-148.49325 z" />
  <rect
     style="opacity:1;fill:#ffffff;fill-opacity:1;stroke:#000000;stroke-width:1;stroke-miterlimit:4;stroke-dasharray:none;stroke-dashoffset:0;stroke-opacity:0.04705882"
     id="rect4230"
     width="14.75"
     height="18"
     x="26"
     y="46"
     rx="11" />
  <g
     id="g4224"
     transform="matrix(1.362855,0,0,1.362855,-15.605126,-14.250553)">
    <path
       sodipodi:nodetypes="cacccc"
       inkscape:connector-curvature="0"
       id="path3342-7"
       d="m 50.018362,22.26665 c -1.487388,2.511912 -2.468757,5.285362 -4.234692,7.626549 -1.382075,1.832297 -2.918525,3.589157 -4.902477,4.924509 3.851852,-1.411891 8.484334,-2.028551 11.401068,-3.360079 0.100086,-0.04763 0.207573,-0.09931 0.309973,-0.148158 -0.457735,-3.074667 -1.275294,-6.144896 -2.573872,-9.042821 z"
       style="fill:#241704;fill-opacity:1;stroke:#000000;stroke-width:1;stroke-miterlimit:4;stroke-dasharray:none;stroke-opacity:0.12000002" />
    <path
       sodipodi:nodetypes="cccsccccssssscccccccscccccscccccccccccccccccccccccscsscssccccccscccccsccscccscsssscccccsccccccccssccccccscccccccccccsccsccccssscsccccccscccsscccccccccsccccccccccccccc"
       inkscape:connector-curvature="0"
       id="path3344"
       d="m 73.734161,28.452191 c -3.12492,0.544264 0.461694,3.813133 -0.286218,5.597371 2.712362,-0.755157 3.251625,-4.84521 0.286218,-5.597371 z m 1.296609,6.912473 c -0.150824,0.0019 -0.316796,0.05722 -0.420043,0.132294 -1.950195,1.417956 -0.607106,4.431239 -1.909116,6.197807 0.920248,0.0526 1.844638,-0.251976 2.656818,-0.57631 2.641373,-0.86794 1.671865,-4.451438 -0.08935,-5.69275 -0.0628,-0.04426 -0.147823,-0.06224 -0.238311,-0.06104 z m -4.033007,0.137231 c -0.939448,-0.0069 -0.6196,2.463216 0.412606,2.504418 0.873203,0.03485 0.96807,-1.433874 0.601361,-2.080712 -0.159316,-0.281021 -0.774502,-0.421957 -1.013967,-0.423706 z m 1.073162,6.880045 c -3.064191,0.909574 -6.289265,1.926432 -9.580838,2.233314 5.27e-4,-3e-5 0.0014,-5.5e-5 0.0019,-1.14e-4 0.03454,-0.0016 0.06706,-0.0023 0.09968,-0.003 0.01469,-1.75e-4 0.03007,-8.77e-4 0.04433,-0.0011 0.03058,-1.76e-4 0.05906,1.75e-4 0.08756,8.77e-4 0.01388,1.75e-4 0.02835,1.75e-4 0.04171,8.77e-4 0.02433,8.78e-4 0.04678,0.0027 0.06925,0.0044 0.01646,0.0014 0.03319,0.0024 0.0486,0.0042 0.03001,0.0034 0.05867,0.0073 0.08439,0.01256 1.76e-4,5.2e-5 5.26e-4,5.6e-5 8.77e-4,1.17e-4 0.0011,1.76e-4 0.0019,3.51e-4 0.003,5.26e-4 0.01305,0.0028 0.02561,0.0058 0.03745,0.0091 0.0019,3.51e-4 0.0037,0.0011 0.0056,0.0018 0.01146,0.0034 0.02252,0.0069 0.03276,0.01079 1.76e-4,5.4e-5 1.76e-4,1.76e-4 5.27e-4,1.76e-4 5.26e-4,1.75e-4 0.0014,3.5e-4 0.0018,8.77e-4 0.01093,0.0043 0.02125,0.0089 0.0307,0.01379 0.04804,0.02518 0.07609,0.0596 0.08081,0.105139 1.75e-4,0.0022 8.77e-4,0.0039 8.77e-4,0.0061 1.76e-4,0.007 -1.75e-4,0.01449 -8.77e-4,0.02199 -1.76e-4,0.0031 -1.76e-4,0.0061 -8.77e-4,0.0093 -0.0014,0.0077 -0.0032,0.01591 -0.0055,0.02412 -8.77e-4,0.0034 -0.0018,0.0067 -0.0029,0.01019 -0.0026,0.0081 -0.0062,0.01672 -0.0099,0.02536 -0.0019,0.0044 -0.0035,0.0086 -0.0056,0.01312 -0.0038,0.008 -0.0084,0.01628 -0.01307,0.02468 -0.0032,0.0057 -0.0064,0.01144 -0.01005,0.01737 -0.0051,0.0084 -0.01083,0.01704 -0.01681,0.02581 -0.0044,0.0065 -0.009,0.01309 -0.0139,0.01986 -0.0063,0.0087 -0.01318,0.01755 -0.02025,0.02659 -0.0059,0.0075 -0.01188,0.01512 -0.0183,0.02289 -0.0073,0.0088 -0.01498,0.01778 -0.02299,0.02693 -0.0074,0.0084 -0.015,0.01698 -0.02299,0.02569 -0.0097,0.01063 -0.01992,0.02147 -0.03056,0.03254 -0.0045,0.0047 -0.0093,0.0096 -0.01405,0.01435 -0.03237,0.03302 -0.06918,0.06829 -0.109861,0.105366 -0.02684,0.02446 -0.05862,0.05135 -0.08922,0.07765 -0.02358,0.02026 -0.04489,0.03942 -0.07076,0.06082 -0.03616,0.0299 -0.07806,0.06265 -0.118813,0.09482 -0.02734,0.02158 -0.05177,0.04167 -0.08122,0.0643 -0.07213,0.0554 -0.150287,0.113825 -0.235561,0.175722 -0.09626,0.104297 -0.182347,0.207898 -0.258551,0.31071 -0.228692,0.308531 -0.368968,0.609952 -0.432983,0.901718 -0.01067,0.04862 -0.01926,0.0969 -0.02575,0.144977 -5e-6,3.5e-5 5e-6,5.2e-5 0,1.16e-4 -0.02509,0.186087 -0.01855,0.367857 0.015,0.544891 0.0011,0.0059 0.0016,0.01186 0.0028,0.01774 9e-6,3.8e-5 -7e-6,5.6e-5 0,1.19e-4 0.0091,0.04562 0.02013,0.09093 0.03291,0.135885 0.03833,0.135004 0.09273,0.266936 0.161764,0.395541 0.023,0.04286 0.0476,0.08526 0.07379,0.127357 2.8e-5,4.6e-5 1.17e-4,5.5e-5 1.17e-4,1.18e-4 0.02617,0.04205 0.05392,0.08373 0.08316,0.124999 1.9e-5,3.2e-5 -2.1e-5,5.8e-5 0,1.2e-4 0.02925,0.04129 0.06003,0.08216 0.09224,0.122644 0.03225,0.04054 0.06595,0.08069 0.101055,0.120399 0.03508,0.03969 0.07149,0.07888 0.109312,0.11771 3.9e-5,4.2e-5 6e-5,5.8e-5 1.18e-4,1.17e-4 0.07565,0.07767 0.156622,0.153543 0.242579,0.227674 0.343836,0.296523 0.766539,0.563989 1.239752,0.796356 -0.02355,0.0487 -0.05106,0.09783 -0.08219,0.147442 -0.01556,0.02481 -0.03211,0.04971 -0.04942,0.07473 -0.01734,0.02505 -0.0354,0.05015 -0.05438,0.0754 -0.03792,0.05045 -0.07903,0.101279 -0.122941,0.152493 -0.04393,0.05124 -0.09061,0.102811 -0.139738,0.154737 -0.09821,0.103792 -0.20604,0.208902 -0.320232,0.314974 -0.114184,0.106069 -0.234709,0.213078 -0.3585,0.320805 -0.309455,0.269303 -0.639088,0.542844 -0.938795,0.815768 -0.449618,0.409441 -0.832066,0.817554 -0.97941,1.208054 -0.0098,0.02603 -0.01861,0.05189 -0.02629,0.07776 -0.0077,0.02591 -0.01425,0.05169 -0.01969,0.07743 -0.01088,0.05136 -0.01727,0.10243 -0.01859,0.153051 -1e-6,3.8e-5 2e-6,5.6e-5 0,1.17e-4 -0.0014,0.05066 0.0024,0.100857 0.01142,0.150699 0.0045,0.02492 0.01035,0.04969 0.01762,0.07439 0.0073,0.02474 0.0159,0.04933 0.02602,0.07383 0.02018,0.0489 0.0461,0.09738 0.0782,0.145313 3e-5,4.6e-5 1.19e-4,5.3e-5 1.19e-4,1.16e-4 0.01606,0.02394 0.03356,0.04779 0.05273,0.07148 0.01924,0.02377 0.04002,0.0473 0.06251,0.07081 0.04489,0.04692 0.09645,0.09334 0.154881,0.139137 0.0292,0.02288 0.06007,0.04564 0.09279,0.06823 0.06553,0.04522 0.138206,0.08977 0.218486,0.133755 0.08025,0.04396 0.168133,0.0873 0.263921,0.129938 0.08043,0.03581 0.167751,0.07099 0.259653,0.105816 0.01755,0.0066 0.03392,0.01348 0.0519,0.02009 0.112158,0.04126 0.232639,0.08174 0.361944,0.121523 0.06257,0.0045 0.120794,0.01258 0.175945,0.02334 0.0052,0.0011 0.01082,0.0018 0.01597,0.0028 4.1e-5,9e-6 5.6e-5,-1.2e-5 1.16e-4,0 0.0069,0.0014 0.01316,0.0034 0.01997,0.0049 0.0518,0.0117 0.100941,0.02573 0.146347,0.04275 0.02569,0.0096 0.05032,0.02007 0.07407,0.03131 0.02375,0.01125 0.04654,0.02325 0.06842,0.03602 5.1e-5,3.2e-5 6.1e-5,5.5e-5 1.19e-4,1.16e-4 0.04374,0.02554 0.08385,0.05407 0.120599,0.08528 0.01838,0.01558 0.036,0.0318 0.05273,0.0487 2.3e-5,2.1e-5 -2.1e-5,1.16e-4 0,1.16e-4 0.01674,0.0169 0.03273,0.03438 0.04791,0.05251 2.1e-5,2.4e-5 -2.3e-5,1.17e-4 0,1.17e-4 0.01516,0.01814 0.02966,0.03682 0.04336,0.0561 0.01374,0.01934 0.02662,0.03927 0.03896,0.0597 0.03697,0.0612 0.06784,0.127066 0.09362,0.196704 0.02208,0.05966 0.0395,0.122792 0.05479,0.187279 0.0025,0.01076 0.006,0.02089 0.0084,0.03175 0.01112,0.05075 0.02037,0.102648 0.02822,0.155523 0.0078,0.05284 0.01421,0.106547 0.0194,0.160908 7e-6,3.9e-5 -4e-6,5.5e-5 0,1.18e-4 0.0052,0.05432 0.0092,0.109244 0.01239,0.164498 1.18e-4,0.0019 1.18e-4,0.0038 1.75e-4,0.0057 0.0061,0.108763 0.009,0.218654 0.01088,0.327542 0.0019,0.110754 0.0029,0.220357 0.0054,0.326532 0.0037,0.159299 0.0109,0.310733 0.02987,0.44637 0.0063,0.0452 0.01402,0.08855 0.02327,0.12994 0.0046,0.02074 0.0097,0.04093 0.01514,0.06059 0.0055,0.01962 0.01135,0.03863 0.01776,0.05712 0.0064,0.01853 0.01337,0.03644 0.02078,0.05375 0.0074,0.01728 0.01532,0.03383 0.02382,0.04982 0.0028,0.0052 0.0059,0.0099 0.0088,0.01504 0.01484,0.02605 0.0309,0.05062 0.04915,0.07271 0.01088,0.01321 0.02249,0.02557 0.03469,0.03725 0.03664,0.03507 0.07925,0.06314 0.129139,0.08326 0.04985,0.02011 0.10691,0.03227 0.17209,0.03546 0.04346,0.0022 0.09049,1.75e-4 0.141529,-0.0058 0.02552,-0.0031 0.05204,-0.0072 0.07958,-0.01246 0.05507,-0.01051 0.114288,-0.02545 0.177873,-0.04511 0.03179,-0.0098 0.06467,-0.02087 0.09871,-0.0331 0.136159,-0.04891 0.290558,-0.117306 0.465751,-0.207587 0.0438,-0.02257 0.0889,-0.04648 0.135334,-0.07181 0.09055,-0.07439 0.172804,-0.140347 0.249876,-0.201082 0.02986,-0.02353 0.05607,-0.04331 0.08398,-0.06486 0.04598,-0.03552 0.09079,-0.06989 0.131613,-0.100203 0.02503,-0.01859 0.04831,-0.03539 0.07145,-0.05207 0.0376,-0.0271 0.07296,-0.05205 0.105733,-0.07428 0.02802,-0.019 0.05649,-0.03852 0.08109,-0.05409 0.0049,-0.0031 0.01019,-0.0064 0.015,-0.0094 0.03483,-0.02168 0.06611,-0.03978 0.09403,-0.05454 0.01134,-0.006 0.0224,-0.0116 0.03263,-0.01651 0.0045,-0.0022 0.0091,-0.0046 0.01337,-0.0065 0.01374,-0.0062 0.02649,-0.01126 0.03813,-0.01535 0.0016,-3.51e-4 0.0031,-0.0014 0.0045,-0.0018 0.01323,-0.0045 0.02491,-0.0075 0.03539,-0.0093 0.0016,-1.75e-4 0.0027,-1.17e-4 0.0042,-1.75e-4 0.0083,-0.0011 0.01577,-0.0014 0.0223,-8.77e-4 0.0022,1.75e-4 0.0039,8.77e-4 0.0058,0.0011 0.0054,0.0011 0.01018,0.0028 0.0142,0.0053 0.0014,8.77e-4 0.0025,0.0018 0.0036,0.0026 0.0039,0.0032 0.0071,0.0073 0.0094,0.01212 5.27e-4,8.77e-4 8.77e-4,0.0018 0.0014,0.0026 0.0024,0.0062 0.0039,0.0133 0.004,0.02177 0,0.0088 -8.77e-4,0.01878 -0.0031,0.02996 2.828145,-4.533537 5.97056,-9.172817 6.164054,-14.366692 z"
       style="fill:url(#linearGradient4258);fill-opacity:1;stroke:#000000;stroke-width:1;stroke-miterlimit:4;stroke-dasharray:none;stroke-opacity:0.12000002" />
    <path
       sodipodi:nodetypes="ccccsc"
       inkscape:connector-curvature="0"
       id="path3340"
       d="m 20.81089,59.08701 c -1.863111,1.392162 -5.668418,1.392768 -4.082986,4.335795 0.851856,1.316052 1.507,2.381291 2.554946,3.401991 0.07606,-0.0515 0.13962,-0.101475 0.18118,-0.140386 0.81714,-0.765047 1.851409,-3.490065 1.850056,-5.962274 -3.51e-4,-0.961328 -0.245205,-1.487261 -0.503196,-1.635126 z"
       style="fill:#241704;fill-opacity:1;stroke:#000000;stroke-width:1;stroke-miterlimit:4;stroke-dasharray:none;stroke-opacity:0.12000002" />
    <path
       sodipodi:nodetypes="ccccccscccccccscccccccccssccsscccccccccccccccccscccccscccccccc"
       id="path3342-8"
       d="m 65.322156,20.636772 c -1.275278,4.900896 -8.178042,8.3558 -12.810242,10.565768 -0.03007,0.01435 -0.06114,0.02926 -0.09102,0.0435 -0.07368,0.03526 -0.148254,0.07101 -0.218957,0.104657 -0.08373,0.03822 -0.169355,0.07576 -0.255859,0.112846 -0.01328,0.0057 -0.02653,0.01137 -0.03987,0.01702 -0.04485,0.01904 -0.09092,0.03761 -0.136471,0.05637 -0.07323,0.03016 -0.147128,0.0601 -0.22214,0.08955 -0.03855,0.01512 -0.07731,0.03015 -0.116309,0.0451 -0.08176,0.03135 -0.164642,0.06225 -0.248348,0.09285 -0.03467,0.01267 -0.06901,0.02552 -0.104008,0.03808 -0.11089,0.03978 -0.223074,0.079 -0.337085,0.117632 -0.0058,0.0019 -0.01123,0.004 -0.01698,0.0059 -8.77e-4,1.76e-4 -0.0016,3.51e-4 -0.0023,8.77e-4 -0.124655,0.04211 -0.251565,0.08345 -0.379686,0.124333 -0.02444,0.0078 -0.04927,0.01555 -0.07383,0.02329 -0.103487,0.03269 -0.207951,0.06499 -0.313503,0.097 -0.03356,0.01016 -0.06728,0.02031 -0.101045,0.03042 -0.105711,0.03167 -0.212406,0.06304 -0.319995,0.09413 -0.02385,0.0069 -0.04749,0.01388 -0.07143,0.02074 -0.175666,0.05038 -0.354504,0.09994 -0.534617,0.149114 -0.159015,0.0434 -0.319687,0.08643 -0.481763,0.129119 -0.07861,0.02072 -0.157347,0.04142 -0.236605,0.06201 -0.04406,0.01142 -0.08893,0.02284 -0.133174,0.03425 -0.273099,0.07044 -0.549466,0.14056 -0.828871,0.210378 -0.877186,0.219194 -1.779597,0.437939 -2.683573,0.672398 -1.27994,0.33197 -2.559862,0.695462 -3.763524,1.136654 -4.8e-5,3e-5 -5.7e-5,5.5e-5 0,1.18e-4 -0.944056,0.346039 -1.841928,0.739092 -2.655324,1.20302 -3.681404,2.099724 -6.358933,4.960528 -8.443708,8.287146 -2.804653,4.475303 -0.862044,10.23029 -8.535149,14.511239 -0.127117,0.150912 -0.283896,0.289955 -0.461711,0.420329 0.0086,-0.0063 0.01733,-0.01248 0.02586,-0.01881 0.257989,0.147864 0.50268,0.673828 0.503177,1.635157 0.0012,2.47221 -1.032896,5.197198 -1.850036,5.962249 -0.04142,0.03877 -0.10485,0.08844 -0.180559,0.139751 2.738049,2.666883 6.700822,4.484201 10.989139,4.852616 2.123379,0.22902 5.116897,0.121691 6.378179,0.119334 10.716417,-0.02669 20.928544,-5.001547 27.063367,-12.057981 0.639727,-0.776185 3.916721,-4.609785 1.26381,-2.430401 -2.97168,1.621832 -0.47005,-2.507502 -2.661249,-2.665772 -4.136317,-1.272733 0.704214,-3.319585 1.457929,-4.877921 -1.892856,-0.929463 -2.977923,-2.419979 -1.437313,-4.089169 2.829342,-2.053686 -1.74629,-0.43768 -2.425547,-1.155693 3.614605,-4.039298 7.044233,-8.446928 7.807169,-13.51764 0.479024,-3.520933 -0.124743,-7.325338 -2.31676,-10.391378 z M 35.914003,45.148276 c 2.186371,-0.0026 2.350151,3.395718 2.590965,4.920786 0.363878,2.281662 0.785237,4.845555 -2.585836,5.699862 -0.229048,0.0977 -1.114073,0.663629 -0.854277,-0.03616 0.958325,-1.666213 -0.702301,-5.872332 -3.26547,-3.780837 -0.255375,-2.374507 0.594059,-5.089705 3.047658,-6.578915 0.401015,-0.154574 0.754624,-0.224356 1.06696,-0.224735 z M 20.648706,59.173143 c -0.01484,0.01049 -0.03009,0.0208 -0.04523,0.03116 0.01514,-0.01035 0.03031,-0.02063 0.04523,-0.03116 z m -1.510556,7.613788 0,0.0014 c 0.01023,0.01009 0.02096,0.01992 0.03122,0.02999 -0.01053,-0.01033 -0.02078,-0.02082 -0.03122,-0.03117 z"
       style="fill:url(#linearGradient4266);fill-opacity:1;stroke:#000000;stroke-width:1;stroke-miterlimit:4;stroke-dasharray:none;stroke-opacity:0.12000002"
       inkscape:connector-curvature="0" />
    <path
       sodipodi:nodetypes="ccccccc"
       inkscape:connector-curvature="0"
       id="path4154"
       d="m 32.266616,69.187291 c 1.233446,-0.125387 1.780831,-0.168886 3.245169,-1.37289 1.607505,-1.478822 3.01415,-3.208828 4.51687,-4.818687 0.08454,-0.29754 -0.366197,-1.026205 -0.506656,-0.542728 -0.03647,0.304171 -0.175213,0.388888 -0.508732,0.822502 -1.542142,1.608562 -3.107454,3.591033 -4.626425,4.825682 -0.199052,0.218636 -1.508947,0.914263 -2.120226,1.086121 z"
       style="fill:#241704;fill-opacity:1;fill-rule:evenodd;stroke:none;stroke-width:0.16759591;stroke-linecap:butt;stroke-linejoin:round;stroke-miterlimit:4;stroke-dasharray:none;stroke-opacity:1" />
    <path
       transform="matrix(0.88433837,0.46684649,-0.30888312,0.9511,0,0)"
       d="m 48.958546,32.167336 a 0.73656142,0.92307544 0 0 1 -0.943655,0.551499 0.73656142,0.92307544 0 0 1 -0.440851,-1.182149 0.73656142,0.92307544 0 0 1 0.94292,-0.55347 0.73656142,0.92307544 0 0 1 0.442422,1.181227"
       sodipodi:open="true"
       sodipodi:end="0.34612148"
       sodipodi:start="0.34945506"
       sodipodi:ry="0.92307544"
       sodipodi:rx="0.73656142"
       sodipodi:cy="31.851288"
       sodipodi:cx="48.266502"
       sodipodi:type="arc"
       id="path4237"
       style="opacity:1;fill:#ffffff;fill-opacity:1;fill-rule:evenodd;stroke:none;stroke-width:2.3958447;stroke-linecap:butt;stroke-linejoin:round;stroke-miterlimit:4;stroke-dasharray:none;stroke-dashoffset:0;stroke-opacity:1" />
  </g>
</svg>
