<?xml version="1.0" encoding="UTF-8" standalone="no"?>
<svg
   xmlns:dc="http://purl.org/dc/elements/1.1/"
   xmlns:cc="http://creativecommons.org/ns#"
   xmlns:rdf="http://www.w3.org/1999/02/22-rdf-syntax-ns#"
   xmlns:svg="http://www.w3.org/2000/svg"
   xmlns="http://www.w3.org/2000/svg"
   xmlns:sodipodi="http://sodipodi.sourceforge.net/DTD/sodipodi-0.dtd"
   xmlns:inkscape="http://www.inkscape.org/namespaces/inkscape"
   id="svg2"
   height="96"
   width="96"
   version="1.1"
   inkscape:version="0.91 r13725"
   sodipodi:docname="gnome-shutdown.svg">
  <sodipodi:namedview
     pagecolor="#ffffff"
     bordercolor="#666666"
     borderopacity="1"
     objecttolerance="10"
     gridtolerance="10"
     guidetolerance="10"
     inkscape:pageopacity="0"
     inkscape:pageshadow="2"
     inkscape:window-width="1366"
     inkscape:window-height="747"
     id="namedview14"
     showgrid="false"
     inkscape:zoom="9.8333333"
     inkscape:cx="33.559322"
     inkscape:cy="48"
     inkscape:window-x="0"
     inkscape:window-y="21"
     inkscape:window-maximized="1"
     inkscape:current-layer="svg2" />
  <metadata
     id="metadata57">
    <rdf:RDF>
      <cc:Work
         rdf:about="">
        <dc:format>image/svg+xml</dc:format>
        <dc:type
           rdf:resource="http://purl.org/dc/dcmitype/StillImage" />
        <dc:title />
      </cc:Work>
    </rdf:RDF>
  </metadata>
  <defs
     id="defs4" />
  <path
     inkscape:connector-curvature="0"
     style="color:#000000;fill:#4d4d4d;stroke:#000000;stroke-opacity:0.04705882"
     d="m 47.504,16.01 c -2.216,0 -4,1.784 -4,4 l 0,24 c 0,2.216 1.784,4 4,4 2.216,0 4,-1.784 4,-4 l 0,-24 c 0,-2.216 -1.784,-4 -4,-4 z m 11.688,7.1875 a 4.0004,4.0004 0 0 0 -1.688,7.5 c 9.607,5.546 12.859,17.705 7.312,27.312 -5.546,9.607 -17.705,12.859 -27.312,7.312 -9.607,-5.546 -12.859,-17.705 -7.312,-27.312 1.755,-3.041 4.271,-5.557 7.312,-7.312 a 4.0042429,4.0042429 0 0 0 -4,-6.938 c -4.256,2.457 -7.793,5.994 -10.25,10.25 -7.708,13.351 -3.101,30.542 10.25,38.25 13.351,7.708 30.542,3.101 38.25,-10.25 7.708,-13.351 3.101,-30.542 -10.25,-38.25 a 4.0004,4.0004 0 0 0 -2.312,-0.563 z"
     id="path45" />
</svg>
