<?xml version="1.0" encoding="UTF-8" standalone="no"?>
<svg
   xmlns:dc="http://purl.org/dc/elements/1.1/"
   xmlns:cc="http://creativecommons.org/ns#"
   xmlns:rdf="http://www.w3.org/1999/02/22-rdf-syntax-ns#"
   xmlns:svg="http://www.w3.org/2000/svg"
   xmlns="http://www.w3.org/2000/svg"
   xmlns:sodipodi="http://sodipodi.sourceforge.net/DTD/sodipodi-0.dtd"
   xmlns:inkscape="http://www.inkscape.org/namespaces/inkscape"
   id="svg2"
   height="96"
   width="96"
   version="1.1"
   inkscape:version="0.91 r13725"
   sodipodi:docname="gnome-session-suspend.svg">
  <sodipodi:namedview
     pagecolor="#ffffff"
     bordercolor="#666666"
     borderopacity="1"
     objecttolerance="10"
     gridtolerance="10"
     guidetolerance="10"
     inkscape:pageopacity="0"
     inkscape:pageshadow="2"
     inkscape:window-width="1366"
     inkscape:window-height="747"
     id="namedview14"
     showgrid="false"
     inkscape:zoom="9.8333333"
     inkscape:cx="41.694915"
     inkscape:cy="48"
     inkscape:window-x="0"
     inkscape:window-y="21"
     inkscape:window-maximized="1"
     inkscape:current-layer="svg2" />
  <metadata
     id="metadata57">
    <rdf:RDF>
      <cc:Work
         rdf:about="">
        <dc:format>image/svg+xml</dc:format>
        <dc:type
           rdf:resource="http://purl.org/dc/dcmitype/StillImage" />
      </cc:Work>
    </rdf:RDF>
  </metadata>
  <defs
     id="defs4" />
  <path
     inkscape:connector-curvature="0"
     style="color:#000000;fill:#4d4d4d;stroke:#000000;stroke-opacity:0.04705882"
     d="m 46.982,18.371 c -10.417,0.14876 -20.356,6.6902 -24.625,16.188 -4.8322,10.092 -2.75,22.958 5.0312,31 7.2288,7.8604 19.112,10.786 29.188,7.3438 10.341,-3.2883 18.114,-13.13 19,-23.938 1.174,-10.968 -4.849,-22.253 -14.656,-27.313 -4.245,-2.299 -9.12,-3.394 -13.938,-3.281 z m 0.75,7.969 c 8.7374,-0.1349 17.006,6.1581 19.25,14.594 0.13923,0.46558 0.24331,0.9335 0.34375,1.4062 l -39.188,0 c 0.47915,-2.4374 1.4048,-4.788 2.8125,-6.875 3.609,-5.6 10.1,-9.199 16.782,-9.125 z m -19.562,24 39.125,0 C 66.143,55.8 62.778,60.802 57.857,63.559 50.178,68.323 39.406,66.772 33.263,60.184 30.602,57.493 28.903,54.008 28.17,50.34 Z"
     id="path45" />
</svg>
