<?xml version="1.0" encoding="UTF-8" standalone="no"?>
<svg
   xmlns:dc="http://purl.org/dc/elements/1.1/"
   xmlns:cc="http://creativecommons.org/ns#"
   xmlns:rdf="http://www.w3.org/1999/02/22-rdf-syntax-ns#"
   xmlns:svg="http://www.w3.org/2000/svg"
   xmlns="http://www.w3.org/2000/svg"
   xmlns:sodipodi="http://sodipodi.sourceforge.net/DTD/sodipodi-0.dtd"
   xmlns:inkscape="http://www.inkscape.org/namespaces/inkscape"
   id="svg2"
   height="96"
   width="96"
   version="1.1"
   inkscape:version="0.91 r13725"
   sodipodi:docname="gnome-session-hibernate.svg">
  <sodipodi:namedview
     pagecolor="#ffffff"
     bordercolor="#666666"
     borderopacity="1"
     objecttolerance="10"
     gridtolerance="10"
     guidetolerance="10"
     inkscape:pageopacity="0"
     inkscape:pageshadow="2"
     inkscape:window-width="1366"
     inkscape:window-height="747"
     id="namedview14"
     showgrid="false"
     inkscape:zoom="6.9532167"
     inkscape:cx="19.456721"
     inkscape:cy="48"
     inkscape:window-x="0"
     inkscape:window-y="21"
     inkscape:window-maximized="1"
     inkscape:current-layer="svg2" />
  <metadata
     id="metadata57">
    <rdf:RDF>
      <cc:Work
         rdf:about="">
        <dc:format>image/svg+xml</dc:format>
        <dc:type
           rdf:resource="http://purl.org/dc/dcmitype/StillImage" />
      </cc:Work>
    </rdf:RDF>
  </metadata>
  <defs
     id="defs4" />
  <path
     inkscape:connector-curvature="0"
     style="color:#000000;fill:#4d4d4d;stroke:#000000;stroke-opacity:0.12"
     d="m 48.5,14 c -2.216,0 -4,1.784 -4,4 l 0,21.062 -18.25,-10.531 c -1.919,-1.108 -4.361,-0.45 -5.469,1.469 -1.108,1.9191 -0.45036,4.3607 1.4688,5.4688 l 18.25,10.531 -18.25,10.531 c -1.9191,1.108 -2.5768,3.5496 -1.4688,5.4688 1.108,1.9191 3.5496,2.5768 5.4688,1.4688 l 18.25,-10.531 0,21.062 c 0,2.216 1.784,4 4,4 2.216,0 4,-1.784 4,-4 l 0,-21.062 18.25,10.531 c 1.9191,1.108 4.3608,0.45036 5.4688,-1.4688 1.108,-1.9191 0.45036,-4.3607 -1.4688,-5.4688 l -18.25,-10.531 18.25,-10.531 c 1.919,-1.108 2.577,-3.55 1.469,-5.469 -1.108,-1.919 -3.55,-2.577 -5.469,-1.469 l -18.25,10.531 0,-21.062 c 0,-2.216 -1.784,-4 -4,-4 z"
     id="path45" />
</svg>
