<?xml version="1.0" encoding="UTF-8" standalone="no"?>
<svg
   xmlns:dc="http://purl.org/dc/elements/1.1/"
   xmlns:cc="http://creativecommons.org/ns#"
   xmlns:rdf="http://www.w3.org/1999/02/22-rdf-syntax-ns#"
   xmlns:svg="http://www.w3.org/2000/svg"
   xmlns="http://www.w3.org/2000/svg"
   xmlns:xlink="http://www.w3.org/1999/xlink"
   xmlns:sodipodi="http://sodipodi.sourceforge.net/DTD/sodipodi-0.dtd"
   xmlns:inkscape="http://www.inkscape.org/namespaces/inkscape"
   id="svg2243"
   height="96"
   width="96"
   version="1.1"
   inkscape:version="0.91 r13725"
   sodipodi:docname="gparted.svg">
  <sodipodi:namedview
     pagecolor="#ffffff"
     bordercolor="#666666"
     borderopacity="1"
     objecttolerance="10"
     gridtolerance="10"
     guidetolerance="10"
     inkscape:pageopacity="0"
     inkscape:pageshadow="2"
     inkscape:window-width="1366"
     inkscape:window-height="716"
     id="namedview80"
     showgrid="false"
     inkscape:zoom="4"
     inkscape:cx="81.196366"
     inkscape:cy="52.147068"
     inkscape:window-x="0"
     inkscape:window-y="24"
     inkscape:window-maximized="1"
     inkscape:current-layer="svg2243" />
  <metadata
     id="metadata2370">
    <rdf:RDF>
      <cc:Work
         rdf:about="">
        <dc:format>image/svg+xml</dc:format>
        <dc:type
           rdf:resource="http://purl.org/dc/dcmitype/StillImage" />
      </cc:Work>
    </rdf:RDF>
  </metadata>
  <defs
     id="defs2245">
    <linearGradient
       id="linearGradient4169">
      <stop
         id="stop4171"
         style="stop-color:#f5f5f5;stop-opacity:1"
         offset="0" />
      <stop
         id="stop4173"
         style="stop-color:#cbcbcb"
         offset="1" />
    </linearGradient>
    <linearGradient
       gradientUnits="userSpaceOnUse"
       y2="95.593246"
       x2="78.18644"
       y1="4.0678196"
       x1="43.847458"
       id="linearGradient4167"
       xlink:href="#linearGradient4169"
       inkscape:collect="always"
       gradientTransform="translate(0,-2.2888184e-5)" />
    <linearGradient
       id="linearGradient6699">
      <stop
         offset="0"
         style="stop-color:#f31b79;stop-opacity:1"
         id="stop6701" />
      <stop
         offset="1"
         style="stop-color:#5326c6;stop-opacity:1"
         id="stop6295" />
    </linearGradient>
    <linearGradient
       id="linearGradient3865">
      <stop
         offset="0"
         style="stop-color:#ec9013;stop-opacity:1"
         id="stop3867" />
      <stop
         offset="1"
         style="stop-color:#fff100;stop-opacity:1"
         id="stop3869-4" />
    </linearGradient>
    <linearGradient
       id="linearGradient6711-3">
      <stop
         offset="0"
         style="stop-color:#00dcf6;stop-opacity:1"
         id="stop6713-9" />
      <stop
         offset="1"
         style="stop-color:#0020ce;stop-opacity:1"
         id="stop6715-2" />
    </linearGradient>
    <linearGradient
       id="linearGradient6719-4">
      <stop
         offset="0"
         style="stop-color:#4aab2a;stop-opacity:1"
         id="stop6721-4" />
      <stop
         offset="1"
         style="stop-color:#66e88c;stop-opacity:1"
         id="stop6723-4" />
    </linearGradient>
    <clipPath
       id="clipPath3274"
       clipPathUnits="userSpaceOnUse">
      <path
         id="path3276"
         d="m 32.336274,1.7343405 c -14.941149,0 -27.0533128,12.1121735 -27.0533128,27.0533125 0,14.941139 12.1121638,27.053313 27.0533128,27.053313 14.941129,0 27.053312,-12.112174 27.053312,-27.053313 0,-14.941139 -12.112183,-27.0533125 -27.053312,-27.0533125 z m 0,18.0355425 c 4.980389,0 9.017767,4.037391 9.017767,9.01777 0,4.98038 -4.037378,9.017773 -9.017767,9.017773 -4.980389,0 -9.017768,-4.037393 -9.017768,-9.017773 0,-4.980379 4.037379,-9.01777 9.017768,-9.01777 z m 0,2.254442 c -3.73528,0 -6.763328,3.02805 -6.763328,6.763328 0,3.735278 3.028048,6.763328 6.763328,6.763328 3.73528,0 6.763328,-3.02805 6.763328,-6.763328 0,-3.735278 -3.028048,-6.763328 -6.763328,-6.763328 z m 0,2.254444 c 2.49019,0 4.508888,2.018699 4.508888,4.508884 0,2.490187 -2.018698,4.508886 -4.508888,4.508886 -2.49019,0 -4.508889,-2.018699 -4.508889,-4.508886 0,-2.490185 2.018699,-4.508884 4.508889,-4.508884 z"
         style="color:#bebebe;display:inline;overflow:visible;visibility:visible;fill:url(#linearGradient3278);fill-opacity:1;fill-rule:nonzero;stroke:none;stroke-width:1;marker:none;enable-background:accumulate"
         inkscape:connector-curvature="0"
         sodipodi:nodetypes="ssssssssssssssssssss" />
    </clipPath>
    <linearGradient
       y2="89.378464"
       x2="97.735603"
       y1="-9.6641779"
       x1="97.735603"
       gradientTransform="matrix(0.93650793,0,0,0.93650793,-12.816788,-8.538877)"
       gradientUnits="userSpaceOnUse"
       id="linearGradient3248"
       xlink:href="#linearGradient6699"
       inkscape:collect="always" />
    <linearGradient
       y2="7.2212009"
       x2="13.686911"
       y1="8.5708399"
       x1="21.088884"
       gradientTransform="matrix(-2.3313891,2.3313891,-3.7722666,-3.7722667,84.387417,29.54824)"
       gradientUnits="userSpaceOnUse"
       id="linearGradient3250"
       xlink:href="#linearGradient3865"
       inkscape:collect="always" />
    <linearGradient
       y2="12.349553"
       x2="17.568382"
       y1="6.7038565"
       x1="11.612062"
       gradientTransform="matrix(3.1847368,0.85334764,-1.3807453,5.153012,6.9693836,-16.670255)"
       gradientUnits="userSpaceOnUse"
       id="linearGradient3252"
       xlink:href="#linearGradient6711-3"
       inkscape:collect="always" />
    <linearGradient
       y2="7.12921"
       x2="12.544154"
       y1="9.4141846"
       x1="20.033852"
       gradientTransform="matrix(2.6115693e-8,3.2970821,-5.3347905,0,69.679805,-7.4802497)"
       gradientUnits="userSpaceOnUse"
       id="linearGradient3254"
       xlink:href="#linearGradient6719-4"
       inkscape:collect="always" />
  </defs>
  <rect
     rx="11"
     y="5.5"
     x="5.5"
     height="85"
     width="85"
     id="rect4244"
     style="opacity:1;fill:url(#linearGradient4167);fill-opacity:1;stroke:#000000;stroke-width:1;stroke-linecap:butt;stroke-linejoin:miter;stroke-miterlimit:4;stroke-dasharray:none;stroke-dashoffset:0;stroke-opacity:0.12000002" />
  <g
     id="g4223"
     transform="translate(115.5944,19.723307)" />
  <circle
     style="opacity:1;fill:#000000;fill-opacity:0.07843138;fill-rule:nonzero;stroke:none;stroke-width:2.07094407;stroke-linecap:butt;stroke-miterlimit:4;stroke-dasharray:none;stroke-opacity:0.04705882"
     id="path4433"
     cx="48"
     cy="48"
     r="33.5" />
  <g
     style="display:inline;enable-background:new"
     clip-path="url(#clipPath3274)"
     transform="matrix(1.2013316,0,0,1.2013316,9.1534127,13.416482)"
     id="g3234">
    <path
       style="display:inline;fill:url(#linearGradient3248);fill-opacity:1;fill-rule:nonzero;stroke:#000000;stroke-width:0.83240964;stroke-miterlimit:4;stroke-dasharray:none;stroke-opacity:0.04705882"
       id="path3236"
       inkscape:connector-curvature="0"
       d="m 1.3478944,-6.9333766 c -2.13294921,0 -3.8630952,1.7425603 -3.8630952,3.921627 l 0,59.8528326 c 0,2.179067 1.73014599,3.921627 3.8630952,3.921627 l 61.5753966,0 c 2.132953,0 3.863095,-1.74256 3.863095,-3.921627 l 0,-59.8528326 c 0,-2.1790667 -1.730142,-3.921627 -3.863095,-3.921627 z"
       sodipodi:nodetypes="sssssssss" />
    <path
       sodipodi:nodetypes="cccc"
       d="M -1.6141284,62.738052 C -7.539591,56.812589 -11.871967,49.308693 -14.040837,41.214361 L 32.336271,28.787653 C 23.821779,43.040204 10.134855,51.874016 -1.6141284,62.738052 Z"
       id="path3238"
       style="fill:url(#linearGradient3250);fill-opacity:1;stroke:#000000;stroke-width:0.83240964;stroke-miterlimit:4;stroke-dasharray:none;stroke-opacity:0.04705882"
       inkscape:connector-curvature="0" />
    <path
       sodipodi:nodetypes="csccc"
       d="M 78.71338,41.214362 C 76.002293,51.332276 69.875052,60.50234 61.564806,66.879016 53.254561,73.255692 42.811113,76.800766 32.336277,76.800767 32.09668,60.80527 28.487745,44.934562 32.336271,28.787653 Z"
       id="path3240"
       style="fill:url(#linearGradient3252);fill-opacity:1;stroke:#000000;stroke-width:0.83240964;stroke-miterlimit:4;stroke-dasharray:none;stroke-opacity:0.04705882"
       inkscape:connector-curvature="0" />
    <path
       d="M 32.336272,76.800769 A 48.013115,48.013114 0 0 1 -1.6141266,62.738054 L 32.336272,28.787653 Z"
       id="path3242"
       style="fill:url(#linearGradient3254);fill-opacity:1;stroke:#000000;stroke-opacity:0.04705882;stroke-width:0.83240964;stroke-miterlimit:4;stroke-dasharray:none"
       inkscape:connector-curvature="0" />
  </g>
</svg>
