<?xml version="1.0" encoding="UTF-8" standalone="no"?>
<svg
   xmlns:dc="http://purl.org/dc/elements/1.1/"
   xmlns:cc="http://creativecommons.org/ns#"
   xmlns:rdf="http://www.w3.org/1999/02/22-rdf-syntax-ns#"
   xmlns:svg="http://www.w3.org/2000/svg"
   xmlns="http://www.w3.org/2000/svg"
   xmlns:sodipodi="http://sodipodi.sourceforge.net/DTD/sodipodi-0.dtd"
   xmlns:inkscape="http://www.inkscape.org/namespaces/inkscape"
   id="svg346"
   height="96"
   width="96"
   version="1.1"
   inkscape:version="0.92.0 r15299"
   sodipodi:docname="haroopad.svg">
  <sodipodi:namedview
     pagecolor="#ffffff"
     bordercolor="#666666"
     borderopacity="1"
     objecttolerance="10"
     gridtolerance="10"
     guidetolerance="10"
     inkscape:pageopacity="0"
     inkscape:pageshadow="2"
     inkscape:window-width="1366"
     inkscape:window-height="716"
     id="namedview81"
     showgrid="false"
     inkscape:zoom="5.1951496"
     inkscape:cx="55.912423"
     inkscape:cy="49.264588"
     inkscape:window-x="0"
     inkscape:window-y="24"
     inkscape:window-maximized="1"
     inkscape:current-layer="svg346" />
  <metadata
     id="metadata474">
    <rdf:RDF>
      <cc:Work
         rdf:about="">
        <dc:format>image/svg+xml</dc:format>
        <dc:type
           rdf:resource="http://purl.org/dc/dcmitype/StillImage" />
        <dc:title />
      </cc:Work>
    </rdf:RDF>
  </metadata>
  <defs
     id="defs348" />
  <rect
     rx="11"
     y="5.5"
     x="5.5"
     height="85"
     width="85"
     id="rect4244"
     style="opacity:1;fill:#141313;fill-opacity:1;stroke:#cccccc;stroke-width:1;stroke-linecap:butt;stroke-linejoin:miter;stroke-miterlimit:4;stroke-dasharray:none;stroke-dashoffset:0;stroke-opacity:0.12000002" />
  <path
     style="opacity:0.449;fill:#282727;fill-opacity:1;stroke:none;stroke-width:1.44400001;stroke-linecap:butt;stroke-linejoin:miter;stroke-miterlimit:4;stroke-dasharray:none;stroke-opacity:1"
     d="M 21.943359 20.701172 A 71.714584 61.652565 15 0 0 5.5 22.03125 L 5.5 79.5 C 5.5 85.594 10.406 90.5 16.5 90.5 L 79.5 90.5 C 85.594 90.5 90.5 85.594 90.5 79.5 L 90.5 63.216797 A 71.714584 61.652565 15 0 0 41.054688 23.496094 A 71.714584 61.652565 15 0 0 21.943359 20.701172 z "
     id="path7040" />
  <g
     id="g986"
     transform="matrix(0.94159832,0,0,0.94159832,-128.91425,-120.03294)"
     clip-path="none">
    <g
       transform="translate(-25.041327,-10.876536)"
       style="fill:#026ce6;fill-opacity:1;stroke:none"
       id="g31">
      <path
         id="rect25"
         d="m 656.04102,553.6543 c -35.24402,-6.5e-4 -63.8151,28.57043 -63.81446,63.81445 0.002,0.0794 0.004,0.15891 0.008,0.23828 h -0.2461 c 0,0 0.1889,0.58613 0.27734,0.85742 0.20637,10.90209 3.20252,21.56946 8.70313,30.98438 2.65973,11.15497 4.88281,23.03565 4.88281,31.70312 0,21.67937 -32.02734,63.54297 -32.02734,63.54297 h 0.002 l -20.19922,22.67188 38.81836,10.38086 0.30274,32.8457 39.00195,-9.92188 24.29297,26.43164 24.28906,-26.43164 39.00391,9.91797 0.30078,-32.8457 38.8164,-10.38086 -20.19726,-22.66797 c 0,0 -32.02539,-41.8636 -32.02539,-63.54297 0,-8.6558 2.21613,-20.51623 4.87109,-31.6582 5.49525,-9.41238 8.48813,-20.07545 8.69336,-30.97266 0.10016,-0.30765 0.29688,-0.91406 0.29688,-0.91406 h -0.25 l 0.0117,-0.23828 c 6.4e-4,-35.24326 -28.56924,-63.81404 -63.8125,-63.81445 z"
         style="opacity:1;fill:#026ce6;fill-opacity:1;stroke:none;stroke-width:60.3932724;stroke-opacity:1;paint-order:normal"
         inkscape:connector-curvature="0"
         transform="matrix(0.26458333,0,0,0.26458333,25.041327,10.876536)" />
      <path
         id="path955"
         d="m 656.04297,553.6543 v 273.54882 l 24.28906,-26.43164 39.00391,9.91797 0.30078,-32.8457 38.8164,-10.38086 -20.19726,-22.66797 c 0,0 -32.02539,-41.8636 -32.02539,-63.54297 0,-8.6558 2.21613,-20.51623 4.87109,-31.6582 5.49525,-9.41238 8.48813,-20.07545 8.69336,-30.97266 0.10016,-0.30765 0.29688,-0.91406 0.29688,-0.91406 h -0.25 l 0.0117,-0.23828 c 6.4e-4,-35.2426 -28.56819,-63.81298 -63.81055,-63.81445 z"
         style="fill:#1983fd;fill-opacity:1;fill-rule:evenodd;stroke:none;stroke-width:0.99999994px;stroke-linecap:butt;stroke-linejoin:miter;stroke-opacity:1"
         inkscape:connector-curvature="0"
         transform="matrix(0.26458333,0,0,0.26458333,25.041327,10.876536)" />
      <path
         inkscape:transform-center-x="-5.8733207"
         inkscape:transform-center-y="-5.8740301"
         style="opacity:1;fill:#e2ad00;fill-opacity:1;stroke:none;stroke-width:5.02501869;stroke-opacity:1;paint-order:normal"
         d="m 210.75869,152.62432 c -2.28126,-0.34951 -4.95343,0.68482 -6.97006,2.69789 -2.01249,2.01283 -5.15234,6.78398 -4.80872,9.06506 2.28136,0.34953 7.05638,-2.78752 9.07308,-4.80068 2.01241,-2.01285 3.04941,-4.68124 2.70567,-6.96228 z"
         id="path114"
         inkscape:connector-curvature="0"
         sodipodi:nodetypes="ccccc" />
      <path
         sodipodi:nodetypes="ccccc"
         inkscape:connector-curvature="0"
         id="path118"
         d="m 187.28003,152.61651 c -0.34951,2.28126 0.68482,4.95343 2.69789,6.97006 2.01283,2.01249 6.78398,5.15234 9.06506,4.80872 0.34953,-2.28136 -2.78752,-7.05638 -4.80068,-9.07308 -2.01285,-2.01241 -4.68124,-3.04941 -6.96228,-2.70567 z"
         style="opacity:1;fill:#d29d00;fill-opacity:0.99607843;stroke:none;stroke-width:5.02501869;stroke-opacity:1;paint-order:normal"
         inkscape:transform-center-y="-5.8733243"
         inkscape:transform-center-x="5.8740265" />
      <path
         id="path130"
         transform="matrix(0.26458333,0,0,0.26458333,25.041327,10.876536)"
         d="m 674.90234,546.64258 c -6.59999,6.89949 -15.85216,20.76211 -17.375,29.78906 -1.52123,-9.03054 -10.75315,-22.88204 -17.34765,-29.78711 1.45966,11.1561 8.26577,29.31768 17.29492,33.60156 0.053,-0.007 0.10979,-0.01 0.16211,-0.0176 0.002,-10e-4 0.005,-8.4e-4 0.008,-0.002 -6e-5,-10e-4 -1.9e-4,-0.003 0,-0.004 10e-4,1.5e-4 0.003,-1.6e-4 0.004,0 9.00803,-4.32191 15.79718,-22.44215 17.2539,-33.58008 z"
         style="opacity:1;fill:#000000;fill-opacity:1;stroke:none;stroke-width:22.02017212;stroke-opacity:1;paint-order:normal"
         inkscape:connector-curvature="0" />
      <path
         sodipodi:nodetypes="ccccc"
         inkscape:connector-curvature="0"
         id="path109"
         d="m 199.02289,147.75781 c -2.50068,1.36599 -4.05755,3.98686 -4.06094,6.8363 3.2e-4,2.84632 1.55096,8.44024 4.04588,9.81023 2.50081,-1.36598 4.05776,-6.96068 4.06113,-9.81023 -4.2e-4,-2.84629 -1.55113,-5.46639 -4.04607,-6.8363 z"
         style="opacity:1;fill:#e2a300;fill-opacity:1;stroke:none;stroke-width:5.82617044;stroke-opacity:1;paint-order:normal" />
      <path
         id="path120"
         transform="matrix(0.26458333,0,0,0.26458333,25.041327,10.876536)"
         d="m 657.56836,517.3457 -0.0566,62.91602 c 9.45188,-5.16276 15.33492,-26.30817 15.34766,-37.07813 -0.002,-10.75763 -5.86133,-20.66027 -15.29102,-25.83789 z"
         style="fill:#f1b800;fill-opacity:1;fill-rule:evenodd;stroke:none;stroke-width:0.99999994px;stroke-linecap:butt;stroke-linejoin:miter;stroke-opacity:1"
         inkscape:connector-curvature="0" />
    </g>
    <g
       transform="matrix(0.93819995,0,0,0.93819995,10.708503,9.9325444)"
       id="g88">
      <g
         id="g60">
        <circle
           r="6.7992172"
           cy="167.51988"
           cx="159.05298"
           id="path51"
           style="opacity:1;fill:#f2ea00;fill-opacity:0.99607843;stroke:none;stroke-width:13.08033371;stroke-opacity:1;paint-order:normal" />
        <circle
           style="opacity:1;fill:#020200;fill-opacity:1;stroke:none;stroke-width:8.21422195;stroke-opacity:1;paint-order:normal"
           id="circle53"
           cx="159.05298"
           cy="167.51988"
           r="4.2697902" />
        <circle
           r="1.7403632"
           cy="167.51988"
           cx="159.05298"
           id="circle55"
           style="opacity:1;fill:#d6d6d6;fill-opacity:1;stroke:none;stroke-width:3.34811068;stroke-opacity:1;paint-order:normal" />
      </g>
      <g
         id="g68"
         transform="translate(29.08841)">
        <circle
           style="opacity:1;fill:#f2ea00;fill-opacity:0.99607843;stroke:none;stroke-width:13.08033371;stroke-opacity:1;paint-order:normal"
           id="circle62"
           cx="159.05298"
           cy="167.51988"
           r="6.7992172" />
        <circle
           r="4.2697902"
           cy="167.51988"
           cx="159.05298"
           id="circle64"
           style="opacity:1;fill:#020200;fill-opacity:1;stroke:none;stroke-width:8.21422195;stroke-opacity:1;paint-order:normal" />
        <circle
           style="opacity:1;fill:#d6d6d6;fill-opacity:1;stroke:none;stroke-width:3.34811068;stroke-opacity:1;paint-order:normal"
           id="circle66"
           cx="159.05298"
           cy="167.51988"
           r="1.7403632" />
      </g>
    </g>
    <path
       inkscape:connector-curvature="0"
       id="path90"
       d="m 173.57751,168.21539 c -3.53014,0 -11.33286,3.40544 -11.33286,3.40544 0,0 1.22159,1.34575 1.73035,2.45614 -0.17836,-0.8048 -0.27635,-1.36479 -0.27635,-1.36479 0,0 6.56892,-3.32204 9.87886,-3.32204 3.30993,0 9.87837,3.32204 9.87837,3.32204 0,0 -0.0975,0.55999 -0.27586,1.36479 0.50875,-1.11037 1.73035,-2.45614 1.73035,-2.45614 0,0 -7.80274,-3.40543 -11.33286,-3.40544 z"
       style="opacity:1;fill:#f1e901;fill-opacity:1;stroke:none;stroke-width:14.39756393;stroke-opacity:1;paint-order:normal" />
    <path
       sodipodi:nodetypes="cscscsc"
       inkscape:connector-curvature="0"
       id="path48"
       d="m 173.57738,189.123 c 0,0 -4.78048,-5.35844 -6.95025,-8.2053 -2.01092,-2.63844 -2.9283,-8.20529 -2.9283,-8.20529 0,0 6.56861,-3.32235 9.87855,-3.32235 3.30993,0 9.87854,3.32235 9.87854,3.32235 0,0 -0.91738,5.56685 -2.9283,8.20529 -2.16976,2.84686 -6.95024,8.2053 -6.95024,8.2053 z"
       inkscape:transform-center-y="3.526129"
       inkscape:transform-center-x="1.4882783e-06"
       style="opacity:1;fill:#141313;fill-opacity:1;stroke:none;stroke-width:13.49948692;stroke-opacity:1;paint-order:normal" />
    <path
       id="path962"
       transform="scale(0.26458333)"
       d="m 656.04102,640.21484 v 74.58008 c 0,0 18.06691,-20.25193 26.26757,-31.01172 7.60033,-9.97205 11.06836,-31.01172 11.06836,-31.01172 0,0 -24.82596,-12.55664 -37.33593,-12.55664 z"
       style="opacity:1;fill:#282727;fill-opacity:1;stroke:none;stroke-width:51.02168274;stroke-opacity:1;paint-order:normal"
       inkscape:connector-curvature="0" />
  </g>
  <text
     xml:space="preserve"
     style="font-style:normal;font-variant:normal;font-weight:normal;font-stretch:normal;font-size:54.12957764px;line-height:167.61273193px;font-family:'Helvetica 65 Medium';-inkscape-font-specification:'Helvetica 65 Medium, ';text-align:start;writing-mode:lr-tb;text-anchor:start;opacity:1;fill:#f1f8e9;fill-opacity:1;stroke:none;stroke-width:187.04844666;stroke-opacity:1;paint-order:normal"
     x="54.954285"
     y="57.284542"
     id="text875"><tspan
       sodipodi:role="line"
       id="tspan873"
       x="54.954285"
       y="57.284542"
       style="stroke-width:187.04844666">#</tspan></text>
</svg>
