<?xml version="1.0" encoding="UTF-8" standalone="no"?>
<!-- Created with Inkscape (http://www.inkscape.org/) -->

<svg
   xmlns:osb="http://www.openswatchbook.org/uri/2009/osb"
   xmlns:dc="http://purl.org/dc/elements/1.1/"
   xmlns:cc="http://creativecommons.org/ns#"
   xmlns:rdf="http://www.w3.org/1999/02/22-rdf-syntax-ns#"
   xmlns:svg="http://www.w3.org/2000/svg"
   xmlns="http://www.w3.org/2000/svg"
   xmlns:xlink="http://www.w3.org/1999/xlink"
   xmlns:sodipodi="http://sodipodi.sourceforge.net/DTD/sodipodi-0.dtd"
   xmlns:inkscape="http://www.inkscape.org/namespaces/inkscape"
   width="96"
   height="96"
   id="svg2"
   version="1.1"
   inkscape:version="0.91 r13725"
   sodipodi:docname="key-mon.svg"
   inkscape:export-filename="/usr/share/icons/Tebu/apps/96/key-mon.png"
   inkscape:export-xdpi="90"
   inkscape:export-ydpi="90">
  <defs
     id="defs4">
    <linearGradient
       id="linearGradient4289"
       inkscape:collect="always">
      <stop
         id="stop4291"
         offset="0"
         style="stop-color:#3e3e3e;stop-opacity:1" />
      <stop
         id="stop4293"
         offset="1"
         style="stop-color:#5e5e5e;stop-opacity:1" />
    </linearGradient>
    <linearGradient
       gradientUnits="userSpaceOnUse"
       y2="-25.581064"
       x2="61.488026"
       y1="34.191715"
       x1="61.65517"
       id="linearGradient4295"
       xlink:href="#linearGradient4289"
       inkscape:collect="always"
       gradientTransform="matrix(0.52941175,0,0,0.52941175,-0.4397151,995.89163)" />
    <linearGradient
       id="linearGradient4435"
       inkscape:collect="always">
      <stop
         id="stop4437"
         offset="0"
         style="stop-color:#fbfbfb;stop-opacity:1" />
      <stop
         id="stop4439"
         offset="1"
         style="stop-color:#e7e7e7;stop-opacity:1" />
    </linearGradient>
    <linearGradient
       id="linearGradient5606"
       osb:paint="solid">
      <stop
         id="stop5608"
         offset="0"
         style="stop-color:#000000;stop-opacity:1;" />
    </linearGradient>
    <linearGradient
       gradientUnits="userSpaceOnUse"
       y2="89.132042"
       x2="50.155594"
       y1="-0.12820397"
       x1="50.006145"
       id="linearGradient4441"
       xlink:href="#linearGradient4435"
       inkscape:collect="always"
       gradientTransform="translate(-4.8339842e-7,956.36219)" />
  </defs>
  <sodipodi:namedview
     id="base"
     pagecolor="#ffffff"
     bordercolor="#666666"
     borderopacity="1.0"
     inkscape:pageopacity="0.0"
     inkscape:pageshadow="2"
     inkscape:zoom="5.6568542"
     inkscape:cx="31.055426"
     inkscape:cy="39.559698"
     inkscape:document-units="px"
     inkscape:current-layer="layer1"
     showgrid="false"
     inkscape:window-width="1366"
     inkscape:window-height="716"
     inkscape:window-x="0"
     inkscape:window-y="24"
     inkscape:window-maximized="1"
     showguides="true"
     inkscape:guide-bbox="true" />
  <metadata
     id="metadata7">
    <rdf:RDF>
      <cc:Work
         rdf:about="">
        <dc:format>image/svg+xml</dc:format>
        <dc:type
           rdf:resource="http://purl.org/dc/dcmitype/StillImage" />
        <dc:title />
      </cc:Work>
    </rdf:RDF>
  </metadata>
  <g
     inkscape:label="Capa 1"
     inkscape:groupmode="layer"
     id="layer1"
     transform="translate(0,-956.3622)">
    <rect
       rx="11"
       y="961.86218"
       x="5.5"
       height="85"
       width="85"
       id="rect4244"
       style="opacity:1;fill:url(#linearGradient4441);fill-opacity:1;stroke:#000000;stroke-width:1;stroke-linecap:butt;stroke-linejoin:miter;stroke-miterlimit:4;stroke-dasharray:none;stroke-dashoffset:0;stroke-opacity:0.04705882" />
    <text
       id="text4756"
       word-spacing="0"
       line-height="125%"
       y="1095.6722"
       letter-spacing="0"
       x="-56.278999"
       font-size="17.745"
       sodipodi:linespacing="125%"
       style="font-size:17.74500084px;line-height:125%;font-family:Sans;letter-spacing:0;word-spacing:0;fill:#333;stroke:#000000;stroke-width:1;stroke-miterlimit:4;stroke-dasharray:none;stroke-opacity:0.04705882;">
      <tspan
         id="tspan4758"
         y="1095.6722"
         x="-56.278999"
         style="stroke:#000000;stroke-width:1;stroke-miterlimit:4;stroke-dasharray:none;stroke-opacity:0.04705882;" />
    </text>
    <rect
       style="opacity:1;fill:url(#linearGradient4295);fill-opacity:1;stroke:#000000;stroke-width:1;stroke-linecap:round;stroke-linejoin:miter;stroke-miterlimit:4;stroke-dasharray:none;stroke-opacity:0.04705882"
       id="rect4170"
       width="25.628773"
       height="44.423355"
       x="12.157662"
       y="982.15051"
       ry="12.387239" />
    <rect
       style="opacity:1;fill:#1d1d1d;fill-opacity:1;stroke:#000000;stroke-width:1;stroke-linecap:round;stroke-linejoin:miter;stroke-miterlimit:4;stroke-dasharray:none;stroke-opacity:0.04705882"
       id="rect4172"
       width="1.7085848"
       height="8.5429697"
       x="24.117758"
       y="983.85913"
       ry="0.85429239" />
    <path
       d="m 42.543927,1006.1342 39.489469,0 c 0.793596,0 1.432277,0.6387 1.432277,1.4334 l 0,17.1973 c 0,0.7936 -0.638668,1.4323 -1.433394,1.4323 l -39.488352,0 c -0.794717,0 -1.433391,-0.6387 -1.433391,-1.4334 l 0,-17.1962 c 0,-0.7947 0.638674,-1.4334 1.433391,-1.4334 z"
       style="fill:#1a1a1a;stroke:#000000;stroke-width:1;stroke-opacity:0.04705882;stroke-miterlimit:4;stroke-dasharray:none"
       id="path226"
       inkscape:connector-curvature="0" />
    <path
       style="fill:#ffffff;stroke:#000000;stroke-width:1;stroke-miterlimit:4;stroke-dasharray:none;stroke-opacity:0.04705882"
       inkscape:connector-curvature="0"
       id="path248"
       d="m 51.328156,1013.2165 c -0.435401,0 -0.821813,0.072 -1.159194,0.2177 -0.333803,0.1451 -0.614997,0.3519 -0.843581,0.6204 -0.224949,0.2685 -0.395485,0.5914 -0.511583,0.9687 -0.116107,0.3774 -0.174157,0.7965 -0.174157,1.2572 -2e-6,0.4608 0.06168,0.8835 0.185047,1.2681 0.126986,0.381 0.306585,0.7093 0.538802,0.9851 0.235841,0.2757 0.522473,0.4898 0.859898,0.6422 0.34106,0.1524 0.723839,0.2286 1.148382,0.2286 0.297511,0 0.567826,-0.038 0.810923,-0.1143 0.246718,-0.08 0.468046,-0.1905 0.663973,-0.332 0.199548,-0.1415 0.377339,-0.3084 0.533362,-0.5007 0.156012,-0.1959 0.293889,-0.4118 0.41362,-0.6477 l 0.84902,0.4245 c -0.137877,0.2867 -0.308412,0.5534 -0.511583,0.8001 -0.203193,0.2467 -0.442657,0.4608 -0.718399,0.6422 -0.272132,0.1814 -0.58235,0.3247 -0.930654,0.4299 -0.344692,0.1016 -0.731105,0.1524 -1.159193,0.1524 -0.620436,0 -1.164655,-0.098 -1.632679,-0.2939 -0.464425,-0.1995 -0.85446,-0.4753 -1.170116,-0.8272 -0.312035,-0.3556 -0.546059,-0.7765 -0.70207,-1.2626 -0.156013,-0.4862 -0.234024,-1.0178 -0.234024,-1.5947 0,-0.5987 0.08163,-1.1393 0.244914,-1.6219 0.166901,-0.4825 0.40818,-0.8925 0.723838,-1.23 0.319291,-0.341 0.711143,-0.6022 1.175578,-0.7837 0.464412,-0.185 0.994142,-0.2775 1.589208,-0.2775 0.816363,0 1.498481,0.1596 2.046311,0.4789 0.547864,0.3193 0.950606,0.7928 1.208235,1.4205 l -0.985079,0.3265 c -0.07258,-0.1814 -0.170535,-0.3537 -0.293888,-0.517 -0.123369,-0.1669 -0.277572,-0.3139 -0.462608,-0.4408 -0.185048,-0.127 -0.402742,-0.2286 -0.653094,-0.3048 -0.24673,-0.076 -0.529729,-0.1143 -0.84902,-0.1143" />
    <path
       style="fill:#ffffff;stroke:#000000;stroke-width:1;stroke-miterlimit:4;stroke-dasharray:none;stroke-opacity:0.04705882"
       inkscape:connector-curvature="0"
       id="path250"
       d="m 58.087144,1020.1059 c -0.148767,0.04 -0.301145,0.071 -0.457168,0.092 -0.15239,0.025 -0.330181,0.038 -0.533363,0.038 -0.783716,0 -1.175578,-0.4445 -1.175578,-1.3334 l 0,-3.9295 -0.680301,0 0,-0.7129 0.718398,0 0.28845,-1.3171 0.653094,0 0,1.3171 1.088482,0 0,0.7129 -1.088482,0 0,3.7172 c -10e-7,0.2831 0.04535,0.4826 0.13606,0.5987 0.09434,0.1125 0.255792,0.1687 0.484376,0.1687 0.09432,0 0.185035,-0.01 0.272121,-0.022 0.0907,-0.014 0.188669,-0.033 0.293888,-0.055 l 0,0.7239" />
    <path
       style="fill:#ffffff;stroke:#000000;stroke-width:1;stroke-miterlimit:4;stroke-dasharray:none;stroke-opacity:0.04705882"
       inkscape:connector-curvature="0"
       id="path252"
       d="m 58.936475,1020.1493 0,-4.5171 c -1e-6,-0.1234 -0.0017,-0.2486 -0.0055,-0.3756 0,-0.1306 -0.0017,-0.2558 -0.0055,-0.3755 -0.0037,-0.1197 -0.0072,-0.2322 -0.01091,-0.3374 -0.0037,-0.1052 -0.0072,-0.1996 -0.01091,-0.283 l 0.925215,0 c 0.0037,0.083 0.0072,0.1796 0.01091,0.2884 0.0072,0.1053 0.01264,0.2141 0.01633,0.3266 0.0072,0.1125 0.01091,0.2213 0.01091,0.3265 0.0037,0.1016 0.0055,0.1887 0.0055,0.2613 l 0.02177,0 c 0.06893,-0.225 0.141499,-0.4191 0.217694,-0.5824 0.07981,-0.1669 0.172341,-0.3029 0.277559,-0.4082 0.105215,-0.1088 0.230391,-0.1886 0.375523,-0.2394 0.145133,-0.054 0.321097,-0.082 0.527912,-0.082 0.07981,0 0.156013,0.01 0.228584,0.022 0.07256,0.011 0.128808,0.022 0.16872,0.033 l 0,0.898 c -0.06532,-0.018 -0.141512,-0.031 -0.228585,-0.038 -0.08709,-0.011 -0.185047,-0.016 -0.29389,-0.016 -0.224949,0 -0.417253,0.051 -0.576899,0.1524 -0.156022,0.1016 -0.284826,0.2431 -0.386412,0.4245 -0.09797,0.1778 -0.170535,0.3919 -0.217694,0.6422 -0.04718,0.2468 -0.07076,0.5171 -0.07076,0.811 l 0,3.0695 -0.979641,0" />
    <path
       style="fill:#ffffff;stroke:#000000;stroke-width:1;stroke-miterlimit:4;stroke-dasharray:none;stroke-opacity:0.04705882"
       inkscape:connector-curvature="0"
       id="path254"
       d="m 62.636977,1020.1493 0,-8.0765 0.979641,0 0,8.0765 -0.979641,0" />
    <rect
       ry="1.3299751"
       rx="1.3299751"
       y="982.93646"
       x="63.602863"
       height="19.775993"
       width="19.775993"
       id="rect4936"
       style="opacity:1;fill:#1a1a1a;fill-opacity:1;stroke:#000000;stroke-width:1;stroke-linecap:butt;stroke-linejoin:miter;stroke-miterlimit:4;stroke-dasharray:none;stroke-dashoffset:0;stroke-opacity:0.04705882" />
    <path
       d="m 76.544051,996.65861 -6.106381,0 0,-0.77826 4.66965,-6.04107 -4.272291,0 0,-0.84902 5.453336,0 0,0.7565 -4.669663,6.06291 4.925349,0 0,0.84902"
       style="fill:#ffffff;stroke:#000000;stroke-width:1;stroke-miterlimit:4;stroke-dasharray:none;stroke-opacity:0.04705882"
       id="path256"
       inkscape:connector-curvature="0" />
    <rect
       style="opacity:1;fill:#1a1a1a;fill-opacity:1;stroke:#000000;stroke-width:1;stroke-linecap:butt;stroke-linejoin:miter;stroke-miterlimit:4;stroke-dasharray:none;stroke-dashoffset:0;stroke-opacity:0.04705882"
       id="rect4918"
       width="19.775993"
       height="19.775993"
       x="41.19735"
       y="982.61395"
       rx="1.3299751"
       ry="1.3299751" />
    <path
       d="m 51.171487,986.98561 -4.458435,4.45844 2.229224,0 0,4.45843 0,1.11461 4.458436,0 0,-1.11461 0,-4.45843 2.229211,0 -4.458436,-4.45844 z m 0,1.11461 2.229225,2.22921 -1.114612,0 0,1.11462 0,4.45843 -2.229225,0 0,-4.45843 0,-1.11462 -1.114599,0 2.229211,-2.22921 z"
       style="color:#000000;fill:#ffffff;stroke:#000000;stroke-width:1;stroke-miterlimit:4;stroke-dasharray:none;stroke-opacity:0.04705882"
       id="path266"
       inkscape:connector-curvature="0" />
  </g>
</svg>
