<?xml version="1.0" encoding="UTF-8" standalone="no"?>
<svg
   xmlns:dc="http://purl.org/dc/elements/1.1/"
   xmlns:cc="http://creativecommons.org/ns#"
   xmlns:rdf="http://www.w3.org/1999/02/22-rdf-syntax-ns#"
   xmlns:svg="http://www.w3.org/2000/svg"
   xmlns="http://www.w3.org/2000/svg"
   xmlns:xlink="http://www.w3.org/1999/xlink"
   xmlns:sodipodi="http://sodipodi.sourceforge.net/DTD/sodipodi-0.dtd"
   xmlns:inkscape="http://www.inkscape.org/namespaces/inkscape"
   id="svg1495"
   height="96"
   width="96"
   version="1.1"
   inkscape:version="0.91 r13725"
   sodipodi:docname="multisystem-liveusb.svg">
  <sodipodi:namedview
     pagecolor="#ffffff"
     bordercolor="#666666"
     borderopacity="1"
     objecttolerance="10"
     gridtolerance="10"
     guidetolerance="10"
     inkscape:pageopacity="0"
     inkscape:pageshadow="2"
     inkscape:window-width="1366"
     inkscape:window-height="716"
     id="namedview49"
     showgrid="false"
     inkscape:zoom="3.4766083"
     inkscape:cx="59.842665"
     inkscape:cy="18.069631"
     inkscape:window-x="0"
     inkscape:window-y="24"
     inkscape:window-maximized="1"
     inkscape:current-layer="svg1495" />
  <metadata
     id="metadata1568">
    <rdf:RDF>
      <cc:Work
         rdf:about="">
        <dc:format>image/svg+xml</dc:format>
        <dc:type
           rdf:resource="http://purl.org/dc/dcmitype/StillImage" />
      </cc:Work>
    </rdf:RDF>
  </metadata>
  <defs
     id="defs1497">
    <linearGradient
       inkscape:collect="always"
       id="linearGradient4175">
      <stop
         style="stop-color:#e3e300;stop-opacity:1;"
         offset="0"
         id="stop4177" />
      <stop
         style="stop-color:#e3a400;stop-opacity:1"
         offset="1"
         id="stop4179" />
    </linearGradient>
    <linearGradient
       id="linearGradient30961"
       gradientUnits="userSpaceOnUse"
       y1="12"
       gradientTransform="matrix(1.3453,0,0,1.4972,133.12825,-15.377)"
       x2="0"
       y2="72.11">
      <stop
         id="stop1506"
         stop-color="#f0f0f0"
         offset="0" />
      <stop
         id="stop1508"
         stop-color="#b4b4b4"
         offset="1" />
    </linearGradient>
    <path
       id="SVGCleanerId_0"
       d="m20.179 85.062a2.0893 2.0982 0 1 1 -4.1786 0 2.0893 2.0982 0 1 1 4.1786 0z" />
    <linearGradient
       x1="67.070999"
       y1="80"
       gradientTransform="matrix(0.39583,0,0,0.39583,17.89267,32.009928)"
       x2="67.070999"
       gradientUnits="userSpaceOnUse"
       y2="88.011002"
       id="linear8">
      <stop
         offset="0"
         id="stop66" />
      <stop
         offset="1"
         style="stop-color:#474747"
         id="stop68" />
    </linearGradient>
    <linearGradient
       inkscape:collect="always"
       xlink:href="#linearGradient4175"
       id="linearGradient4181"
       x1="49.871319"
       y1="7.4432311"
       x2="49.871319"
       y2="84.529854"
       gradientUnits="userSpaceOnUse" />
  </defs>
  <rect
     style="opacity:1;fill:url(#linearGradient4181);fill-opacity:1;stroke:#000000;stroke-width:1;stroke-linecap:butt;stroke-linejoin:miter;stroke-miterlimit:3.79999995;stroke-dasharray:none;stroke-dashoffset:0;stroke-opacity:0.04705882"
     id="rect4155"
     width="85"
     height="85"
     x="5.5"
     y="5.5"
     rx="11"
     ry="11" />
  <path
     inkscape:connector-curvature="0"
     d="m 63.832268,45.953976 c 0,-1.611375 -1.201175,-2.998 -2.90525,-3.618125 l 0,-4.03325 c 0,-1.44525 -0.903325,-2.80275 -1.98725,-3.77925 -0.0098,-0.0098 -0.01465,-0.0293 -0.02441,-0.03906 l 0,-0.01954 c 0,0 -0.04883,-0.05859 -0.04883,-0.05859 0,0 -0.03906,-0.05371 -0.04883,-0.05859 -0.0049,-0.0098 -0.01954,0 -0.02441,0 -0.0049,-0.0049 0.0049,-0.01954 0,-0.02441 -0.01465,-0.0098 -0.04883,-0.01954 -0.07324,-0.03906 -0.0049,-0.0049 -0.01465,-0.0098 -0.02441,-0.01954 -0.02442,-0.01465 -8.042,-6.084 -8.139625,-6.15725 -0.385738,-0.395513 -0.664062,-0.942388 -0.678713,-1.4355 l 0,-3.525375 c 2.431626,-0.6543 4.194376,-2.504875 4.194376,-4.663125 0,-2.71 -2.75875,-4.8975 -6.15725,-4.8975 -3.3985,0 -6.152376,2.1875 -6.152376,4.8975 0,2.15825 1.76275,4.00875 4.1895,4.663125 l 0,3.486375 0,0.03906 0,0.03906 0,6.079125 c -0.01465,0.493162 -0.288087,1.000975 -0.678712,1.3965 -0.04883,0.03906 -2.0215,1.543 -4.043,3.07125 -1.025387,0.776362 -2.065375,1.543 -2.836875,2.124 -0.385738,0.292975 -0.693363,0.541987 -0.917975,0.712887 -0.117188,0.08301 -0.205075,0.146488 -0.26855,0.195313 -0.0293,0.02441 -0.05859,0.02441 -0.07324,0.03906 -0.0049,0.0049 -0.01465,0.0293 -0.02441,0.03906 -0.01954,0.01465 -0.05859,0.02441 -0.07324,0.03906 -0.0049,0.0049 0.0049,0.01465 0,0.01954 -0.0049,0.0049 -0.01465,-0.0049 -0.02441,0 -0.0049,0.0049 -0.04882,0.07813 -0.04882,0.07813 l -0.04883,0.03906 0,0.01954 -0.01954,0.01954 c -0.0049,0.0049 0,0.01954 0,0.01954 -0.0097,0.01954 -0.02441,0.03906 -0.02441,0.03906 -1.069338,0.976563 -1.962875,2.3145 -1.962875,3.74025 l 0,3.701125 -2.73925,0 0,7.8515 9.419,0 0,-7.8515 -2.75875,0 0,-3.75975 c 0.01465,-0.493162 0.288087,-0.9961 0.678712,-1.3965 l 6.445251,-4.88275 0,21.7475 -4.248001,0 6.298875,9.209 6.298875,-9.209 -4.423875,0 0,-27.8275 6.44525,4.858375 c 0.385738,0.400388 0.664063,0.947263 0.678713,1.440375 l 0,4.05275 c -1.743125,0.61035 -2.9785,2.002 -2.9785,3.642625 0,2.192375 2.211875,3.994125 4.917,3.994125 2.705126,0 4.892626,-1.80175 4.892626,-3.994125 z"
     style="fill:#000000;stroke:#000000;stroke-width:1.25;stroke-opacity:0.04705882"
     id="path116" />
  <g
     id="g4236">
    <path
       d="m 24.739502,72.168831 1.58081,0 0,10.742187 -1.123046,0 0,-4.309082 0.103759,-4.016113 -1.45874,8.306885 -1.141357,0 -1.519776,-8.306885 0.10376,4.016113 0,4.309082 -1.116943,0 0,-10.742187 1.574707,0 1.538086,8.831787 1.45874,-8.831787 z"
       style="font-style:normal;font-variant:normal;font-weight:normal;font-stretch:ultra-condensed;font-size:12.5px;line-height:125%;font-family:Antonio;-inkscape-font-specification:'Antonio Ultra-Condensed';letter-spacing:0px;word-spacing:0px;fill:#000000;fill-opacity:1;stroke:none;stroke-width:1px;stroke-linecap:butt;stroke-linejoin:miter;stroke-opacity:1"
       id="path4203"
       inkscape:connector-curvature="0" />
    <path
       d="m 31.001709,72.168831 1.257324,0 0,7.983398 q 0,1.507569 -0.476074,2.197266 -0.469971,0.689697 -1.635742,0.689697 -1.165772,0 -1.647949,-0.689697 -0.482178,-0.689697 -0.482178,-2.197266 l 0,-7.983398 1.263428,0 0,7.952881 q 0,1.074218 0.08545,1.287842 0.09155,0.207519 0.189209,0.329589 0.170898,0.231934 0.592041,0.231934 0.421142,0 0.622558,-0.256348 0.201416,-0.256347 0.213623,-0.762939 0.01831,-0.506592 0.01831,-0.823975 l 0,-7.958984 z"
       style="font-style:normal;font-variant:normal;font-weight:normal;font-stretch:ultra-condensed;font-size:12.5px;line-height:125%;font-family:Antonio;-inkscape-font-specification:'Antonio Ultra-Condensed';letter-spacing:0px;word-spacing:0px;fill:#000000;fill-opacity:1;stroke:none;stroke-width:1px;stroke-linecap:butt;stroke-linejoin:miter;stroke-opacity:1"
       id="path4205"
       inkscape:connector-curvature="0" />
    <path
       d="m 33.961914,72.168831 1.263428,0 0,9.698486 1.983642,0 0,1.043701 -3.24707,0 0,-10.742187 z"
       style="font-style:normal;font-variant:normal;font-weight:normal;font-stretch:ultra-condensed;font-size:12.5px;line-height:125%;font-family:Antonio;-inkscape-font-specification:'Antonio Ultra-Condensed';letter-spacing:0px;word-spacing:0px;fill:#000000;fill-opacity:1;stroke:none;stroke-width:1px;stroke-linecap:butt;stroke-linejoin:miter;stroke-opacity:1"
       id="path4207"
       inkscape:connector-curvature="0" />
    <path
       d="m 37.526367,72.168831 3.546143,0 0,1.049805 -1.104737,0 0,9.692382 -1.257324,0 0,-9.692382 -1.184082,0 0,-1.049805 z"
       style="font-style:normal;font-variant:normal;font-weight:normal;font-stretch:ultra-condensed;font-size:12.5px;line-height:125%;font-family:Antonio;-inkscape-font-specification:'Antonio Ultra-Condensed';letter-spacing:0px;word-spacing:0px;fill:#000000;fill-opacity:1;stroke:none;stroke-width:1px;stroke-linecap:butt;stroke-linejoin:miter;stroke-opacity:1"
       id="path4209"
       inkscape:connector-curvature="0" />
    <path
       d="m 42.213867,72.168831 1.263428,0 0,10.742187 -1.263428,0 0,-10.742187 z"
       style="font-style:normal;font-variant:normal;font-weight:normal;font-stretch:ultra-condensed;font-size:12.5px;line-height:125%;font-family:Antonio;-inkscape-font-specification:'Antonio Ultra-Condensed';letter-spacing:0px;word-spacing:0px;fill:#000000;fill-opacity:1;stroke:none;stroke-width:1px;stroke-linecap:butt;stroke-linejoin:miter;stroke-opacity:1"
       id="path4211"
       inkscape:connector-curvature="0" />
    <path
       d="m 45.216797,75.495247 q -0.109863,-0.384522 -0.109863,-0.921631 0,-1.165771 0.427246,-1.849365 0.433349,-0.689697 1.647949,-0.689697 1.5625,0 1.843262,1.501464 0.12207,0.646973 0.12207,1.629639 l 0,0.634766 -1.208496,0 0,-0.720215 q 0,-1.025391 -0.10376,-1.379395 -0.10376,-0.354004 -0.256348,-0.46997 -0.152587,-0.115967 -0.396728,-0.115967 -0.457764,0 -0.65918,0.335693 -0.201416,0.335694 -0.201416,0.994873 0,0.65918 0.183106,0.964356 0.183105,0.305175 0.45166,0.585937 0.268555,0.274658 0.299072,0.311279 l 0.732422,0.775147 q 1.318359,1.379394 1.318359,3.088379 0,1.391601 -0.433349,2.130127 -0.427246,0.732422 -1.635742,0.732422 -1.458741,0 -1.849366,-1.281739 -0.22583,-0.720214 -0.22583,-1.885986 0,-0.03052 0,-0.06104 l 0,-1.043701 1.226807,0 0,1.092529 q 0,1.177979 0.170898,1.641846 0.170899,0.457763 0.634766,0.457763 0.463867,0 0.640869,-0.213623 0.177002,-0.219726 0.201416,-0.665283 0.03052,-0.445556 0.03052,-1.000976 0,-1.116944 -0.982666,-2.09961 L 46.382568,77.27137 q -0.939941,-0.964356 -1.165771,-1.776123 z"
       style="font-style:normal;font-variant:normal;font-weight:normal;font-stretch:ultra-condensed;font-size:12.5px;line-height:125%;font-family:Antonio;-inkscape-font-specification:'Antonio Ultra-Condensed';letter-spacing:0px;word-spacing:0px;fill:#000000;fill-opacity:1;stroke:none;stroke-width:1px;stroke-linecap:butt;stroke-linejoin:miter;stroke-opacity:1"
       id="path4213"
       inkscape:connector-curvature="0" />
    <path
       d="m 53.529785,72.168831 1.239014,0 -1.733399,6.231689 0,4.510498 -1.263427,0 0,-4.510498 -1.867676,-6.231689 1.226807,0 1.269531,4.394531 0.02441,0 1.104736,-4.394531 z"
       style="font-style:normal;font-variant:normal;font-weight:normal;font-stretch:ultra-condensed;font-size:12.5px;line-height:125%;font-family:Antonio;-inkscape-font-specification:'Antonio Ultra-Condensed';letter-spacing:0px;word-spacing:0px;fill:#000000;fill-opacity:1;stroke:none;stroke-width:1px;stroke-linecap:butt;stroke-linejoin:miter;stroke-opacity:1"
       id="path4215"
       inkscape:connector-curvature="0" />
    <path
       d="m 55.641602,75.495247 q -0.109864,-0.384522 -0.109864,-0.921631 0,-1.165771 0.427246,-1.849365 0.43335,-0.689697 1.64795,-0.689697 1.5625,0 1.843261,1.501464 0.122071,0.646973 0.122071,1.629639 l 0,0.634766 -1.208496,0 0,-0.720215 q 0,-1.025391 -0.10376,-1.379395 -0.10376,-0.354004 -0.256348,-0.46997 -0.152588,-0.115967 -0.396728,-0.115967 -0.457764,0 -0.65918,0.335693 -0.201416,0.335694 -0.201416,0.994873 0,0.65918 0.183105,0.964356 0.183106,0.305175 0.451661,0.585937 0.268554,0.274658 0.299072,0.311279 l 0.732422,0.775147 q 1.318359,1.379394 1.318359,3.088379 0,1.391601 -0.43335,2.130127 -0.427246,0.732422 -1.635742,0.732422 -1.45874,0 -1.849365,-1.281739 -0.22583,-0.720214 -0.22583,-1.885986 0,-0.03052 0,-0.06104 l 0,-1.043701 1.226807,0 0,1.092529 q 0,1.177979 0.170898,1.641846 0.170898,0.457763 0.634766,0.457763 0.463867,0 0.640869,-0.213623 0.177002,-0.219726 0.201416,-0.665283 0.03052,-0.445556 0.03052,-1.000976 0,-1.116944 -0.982666,-2.09961 L 56.807373,77.27137 q -0.939941,-0.964356 -1.165771,-1.776123 z"
       style="font-style:normal;font-variant:normal;font-weight:normal;font-stretch:ultra-condensed;font-size:12.5px;line-height:125%;font-family:Antonio;-inkscape-font-specification:'Antonio Ultra-Condensed';letter-spacing:0px;word-spacing:0px;fill:#000000;fill-opacity:1;stroke:none;stroke-width:1px;stroke-linecap:butt;stroke-linejoin:miter;stroke-opacity:1"
       id="path4217"
       inkscape:connector-curvature="0" />
    <path
       d="m 60.37793,72.168831 3.546142,0 0,1.049805 -1.104736,0 0,9.692382 -1.257324,0 0,-9.692382 -1.184082,0 0,-1.049805 z"
       style="font-style:normal;font-variant:normal;font-weight:normal;font-stretch:ultra-condensed;font-size:12.5px;line-height:125%;font-family:Antonio;-inkscape-font-specification:'Antonio Ultra-Condensed';letter-spacing:0px;word-spacing:0px;fill:#000000;fill-opacity:1;stroke:none;stroke-width:1px;stroke-linecap:butt;stroke-linejoin:miter;stroke-opacity:1"
       id="path4219"
       inkscape:connector-curvature="0" />
    <path
       d="m 64.967773,72.168831 3.21045,0 0,1.049805 -1.947022,0 0,3.674316 1.843262,0 0,1.049805 -1.843262,0 0,3.918457 1.971436,0 0,1.049804 -3.234864,0 0,-10.742187 z"
       style="font-style:normal;font-variant:normal;font-weight:normal;font-stretch:ultra-condensed;font-size:12.5px;line-height:125%;font-family:Antonio;-inkscape-font-specification:'Antonio Ultra-Condensed';letter-spacing:0px;word-spacing:0px;fill:#000000;fill-opacity:1;stroke:none;stroke-width:1px;stroke-linecap:butt;stroke-linejoin:miter;stroke-opacity:1"
       id="path4221"
       inkscape:connector-curvature="0" />
    <path
       d="m 74.251221,72.168831 1.58081,0 0,10.742187 -1.123047,0 0,-4.309082 0.10376,-4.016113 -1.45874,8.306885 -1.141358,0 -1.519775,-8.306885 0.10376,4.016113 0,4.309082 -1.116944,0 0,-10.742187 1.574708,0 1.538085,8.831787 1.458741,-8.831787 z"
       style="font-style:normal;font-variant:normal;font-weight:normal;font-stretch:ultra-condensed;font-size:12.5px;line-height:125%;font-family:Antonio;-inkscape-font-specification:'Antonio Ultra-Condensed';letter-spacing:0px;word-spacing:0px;fill:#000000;fill-opacity:1;stroke:none;stroke-width:1px;stroke-linecap:butt;stroke-linejoin:miter;stroke-opacity:1"
       id="path4223"
       inkscape:connector-curvature="0" />
  </g>
</svg>
