<?xml version="1.0" encoding="UTF-8" standalone="no"?>
<svg
   xmlns:dc="http://purl.org/dc/elements/1.1/"
   xmlns:cc="http://creativecommons.org/ns#"
   xmlns:rdf="http://www.w3.org/1999/02/22-rdf-syntax-ns#"
   xmlns:svg="http://www.w3.org/2000/svg"
   xmlns="http://www.w3.org/2000/svg"
   xmlns:xlink="http://www.w3.org/1999/xlink"
   xmlns:sodipodi="http://sodipodi.sourceforge.net/DTD/sodipodi-0.dtd"
   xmlns:inkscape="http://www.inkscape.org/namespaces/inkscape"
   id="svg2"
   height="96"
   width="96"
   version="1.1"
   inkscape:version="0.91 r13725"
   sodipodi:docname="notifications.svg">
  <sodipodi:namedview
     pagecolor="#ffffff"
     bordercolor="#666666"
     borderopacity="1"
     objecttolerance="10"
     gridtolerance="10"
     guidetolerance="10"
     inkscape:pageopacity="0"
     inkscape:pageshadow="2"
     inkscape:window-width="1366"
     inkscape:window-height="716"
     id="namedview31"
     showgrid="false"
     inkscape:zoom="3.4766083"
     inkscape:cx="83.334067"
     inkscape:cy="62.563504"
     inkscape:window-x="0"
     inkscape:window-y="24"
     inkscape:window-maximized="1"
     inkscape:current-layer="svg2" />
  <metadata
     id="metadata51">
    <rdf:RDF>
      <cc:Work
         rdf:about="">
        <dc:format>image/svg+xml</dc:format>
        <dc:type
           rdf:resource="http://purl.org/dc/dcmitype/StillImage" />
      </cc:Work>
    </rdf:RDF>
  </metadata>
  <defs
     id="defs4">
    <linearGradient
       inkscape:collect="always"
       id="linearGradient4188">
      <stop
         style="stop-color:#ff5555;stop-opacity:1;"
         offset="0"
         id="stop4190" />
      <stop
         style="stop-color:#ff55ca;stop-opacity:1"
         offset="1"
         id="stop4192" />
    </linearGradient>
    <linearGradient
       id="linearGradient4251"
       y2="29.297"
       gradientUnits="userSpaceOnUse"
       x2="59.515"
       y1="65.251"
       x1="59.515"
       gradientTransform="translate(5.0847459e-7,2.8474576)">
      <stop
         id="stop4247"
         style="stop-color:#5db0ff;stop-opacity:1"
         offset="0" />
      <stop
         id="stop4249"
         style="stop-color:#d3fffd;stop-opacity:1"
         offset="1" />
    </linearGradient>
    <linearGradient
       inkscape:collect="always"
       xlink:href="#linearGradient4251"
       id="linearGradient4186"
       x1="60.291248"
       y1="83.062935"
       x2="72.392349"
       y2="15.468317"
       gradientUnits="userSpaceOnUse" />
    <linearGradient
       inkscape:collect="always"
       xlink:href="#linearGradient4188"
       id="linearGradient4194"
       x1="29.360386"
       y1="54.646988"
       x2="42.38039"
       y2="5.4611182"
       gradientUnits="userSpaceOnUse" />
  </defs>
  <path
     style="fill:url(#linearGradient4194);fill-opacity:1;stroke:#000000;stroke-opacity:0.04705882"
     d="M 26.666016 10.667969 C 16.357218 10.667969 8 19.023228 8 29.332031 C 8 39.640831 16.357218 48.001953 26.666016 48.001953 C 36.974816 48.001953 45.332031 39.640831 45.332031 29.332031 C 45.332031 19.023228 36.974816 10.667969 26.666016 10.667969 z M 24 16.001953 L 29.332031 16.001953 L 29.332031 32.001953 L 24 32.001953 L 24 16.001953 z M 24 37.332031 L 29.332031 37.332031 L 29.332031 42.667969 L 24 42.667969 L 24 37.332031 z "
     id="path4176" />
  <path
     style="fill:url(#linearGradient4186);fill-opacity:1;stroke:#000000;stroke-opacity:0.04705882"
     d="m 49.164799,21.3328 c 0.904,2.516799 1.5008,5.184 1.5008,8.000001 0,13.191999 -10.808,23.999999 -24,23.999999 -4.9472,0 -9.502398,-1.5696 -13.334398,-4.164799 l 0,20.164799 c 0,2.955201 2.379199,5.3344 5.3344,5.3344 l 37.334398,0 L 66.6656,85.332801 77.3312,74.6672 l 5.334399,0 C 85.6208,74.6672 88,72.288001 88,69.3328 l 0,-42.6656 c 0,-2.9552 -2.3792,-5.3344 -5.334401,-5.3344 l -33.5008,0 z"
     id="path4172" />
</svg>
