<?xml version="1.0" encoding="UTF-8" standalone="no"?>
<svg
   xmlns:dc="http://purl.org/dc/elements/1.1/"
   xmlns:cc="http://creativecommons.org/ns#"
   xmlns:rdf="http://www.w3.org/1999/02/22-rdf-syntax-ns#"
   xmlns:svg="http://www.w3.org/2000/svg"
   xmlns="http://www.w3.org/2000/svg"
   xmlns:xlink="http://www.w3.org/1999/xlink"
   xmlns:sodipodi="http://sodipodi.sourceforge.net/DTD/sodipodi-0.dtd"
   xmlns:inkscape="http://www.inkscape.org/namespaces/inkscape"
   width="96"
   height="96"
   id="svg2"
   version="1.1"
   inkscape:version="0.91 r13725"
   sodipodi:docname="opera-widget-manager.svg">
  <metadata
     id="metadata63">
    <rdf:RDF>
      <cc:Work
         rdf:about="">
        <dc:format>image/svg+xml</dc:format>
        <dc:type
           rdf:resource="http://purl.org/dc/dcmitype/StillImage" />
      </cc:Work>
    </rdf:RDF>
  </metadata>
  <sodipodi:namedview
     pagecolor="#ffffff"
     bordercolor="#666666"
     borderopacity="1"
     objecttolerance="10"
     gridtolerance="10"
     guidetolerance="10"
     inkscape:pageopacity="0"
     inkscape:pageshadow="2"
     inkscape:window-width="1366"
     inkscape:window-height="716"
     id="namedview61"
     showgrid="false"
     inkscape:zoom="4.9166667"
     inkscape:cx="0.38564972"
     inkscape:cy="41.235828"
     inkscape:window-x="0"
     inkscape:window-y="24"
     inkscape:window-maximized="1"
     inkscape:current-layer="svg2" />
  <defs
     id="defs4">
    <linearGradient
       id="linearGradient4226"
       inkscape:collect="always">
      <stop
         id="stop4228"
         offset="0"
         style="stop-color:#d62323;stop-opacity:1;" />
      <stop
         id="stop4230"
         offset="1"
         style="stop-color:#d65723;stop-opacity:1" />
    </linearGradient>
    <linearGradient
       gradientUnits="userSpaceOnUse"
       y2="-4.4745765"
       x2="70.661018"
       y1="92.745766"
       x1="49.745762"
       id="linearGradient4234"
       xlink:href="#linearGradient4226"
       inkscape:collect="always" />
    <clipPath
       clipPathUnits="userSpaceOnUse"
       id="clipPath4230">
      <rect
         style="opacity:1;fill:url(#linearGradient4235);fill-opacity:1;stroke:#000000;stroke-width:1;stroke-linecap:butt;stroke-linejoin:miter;stroke-miterlimit:4;stroke-dasharray:none;stroke-dashoffset:0;stroke-opacity:0.04705882"
         id="rect4232"
         width="85"
         height="85"
         x="5.5"
         y="5.5"
         rx="11" />
    </clipPath>
    <linearGradient
       inkscape:collect="always"
       xlink:href="#linearGradient4226"
       id="linearGradient4235"
       gradientUnits="userSpaceOnUse"
       x1="49.745762"
       y1="92.745766"
       x2="70.661018"
       y2="-4.4745765" />
  </defs>
  <rect
     rx="11"
     y="5.5"
     x="5.5"
     height="85"
     width="85"
     id="rect4244"
     style="opacity:1;fill:url(#linearGradient4234);fill-opacity:1;stroke:#000000;stroke-width:1;stroke-linecap:butt;stroke-linejoin:miter;stroke-miterlimit:4;stroke-dasharray:none;stroke-dashoffset:0;stroke-opacity:0.04705882" />
  <path
     inkscape:connector-curvature="0"
     style="opacity:0.5;fill:#6f1713;fill-opacity:1;stroke:#000000;stroke-opacity:0.04705882"
     id="path41"
     d="m 59.347061,-4.6106381 c -3.097107,-0.00615 -6.246924,0.027046 -9.316371,0.528248 L 47.341428,12.100819 c -3.222811,0.938783 -6.318997,2.18199 -9.220326,3.889748 L 24.818937,6.4821059 c -4.106119,3.283358 -8.04243,6.8668381 -11.141228,11.1412271 l 9.508462,13.254219 c -1.606488,2.94528 -3.045781,6.007965 -3.889748,9.268272 L 3.1132127,42.835086 c -0.587765,5.218013 -0.86041,10.495114 0,15.703676 L 19.296423,61.22787 c 0.940411,3.223119 2.18368,6.367096 3.889748,9.268426 l -9.508462,13.302318 c 3.283359,4.107808 6.868529,8.040898 11.141228,11.141228 L 38.121102,85.43138 c 2.943743,1.608182 5.961556,3.045782 9.220326,3.889902 l 2.689262,16.135568 c 2.280801,0.27584 4.614773,0.55184 6.915245,0.57627 2.950197,0 5.9153,-0.12294 8.836146,-0.57627 l 2.689262,-16.135568 c 3.224501,-0.94201 6.318997,-2.18368 9.220327,-3.889902 l 13.30216,9.508462 c 4.10459,-3.2832 8.04243,-6.86515 11.14123,-11.141228 L 92.6266,70.496296 c 1.60818,-2.943743 3.04409,-6.007811 3.88975,-9.268426 l 16.18321,-2.689108 c 0.58612,-5.219627 0.86041,-10.49519 0,-15.703676 L 96.51635,40.145824 C 95.57594,36.921323 94.33267,33.780419 92.6266,30.877552 l 9.50846,-13.254219 C 98.8517,13.518751 95.26653,9.5809039 90.99383,6.4821059 L 77.69167,15.990567 C 74.747926,14.380698 71.736721,12.944786 68.471343,12.100819 L 65.782081,-4.0823901 c -2.137118,-0.2645006 -4.276695,-0.5086548 -6.43502,-0.528248 z M 57.906385,38.417551 c 6.789695,0 12.293769,5.504074 12.293769,12.293769 0,6.789694 -5.504074,12.293768 -12.293769,12.293768 -6.789694,0 -12.293768,-5.504074 -12.293768,-12.293768 0,-6.789541 5.504074,-12.293769 12.293768,-12.293769 z"
     clip-path="url(#clipPath4230)" />
  <path
     style="fill:#ececec;stroke:#000000;stroke-opacity:0.04705882"
     inkscape:connector-curvature="0"
     id="path35-7"
     d="m 57.355932,14.635704 c -16.609864,0 -30.101695,16.441797 -30.101695,36.715288 0,20.273492 13.491831,36.774237 30.101695,36.774237 16.609864,0 30.101695,-16.500745 30.101695,-36.774237 0,-20.273491 -13.491831,-36.715288 -30.101695,-36.715288 z m 0,4.70339 c 13.760237,0 15.079695,14.328407 15.079695,32.011898 0,17.684746 -1.82918,32.042 -15.079695,32.042 -13.484305,0 -15.079695,-14.357254 -15.079695,-32.042 0,-17.683491 1.552871,-32.011898 15.079695,-32.011898 z" />
</svg>
