<?xml version="1.0" encoding="UTF-8" standalone="no"?>
<svg
   xmlns:dc="http://purl.org/dc/elements/1.1/"
   xmlns:cc="http://creativecommons.org/ns#"
   xmlns:rdf="http://www.w3.org/1999/02/22-rdf-syntax-ns#"
   xmlns:svg="http://www.w3.org/2000/svg"
   xmlns="http://www.w3.org/2000/svg"
   xmlns:sodipodi="http://sodipodi.sourceforge.net/DTD/sodipodi-0.dtd"
   xmlns:inkscape="http://www.inkscape.org/namespaces/inkscape"
   id="svg2"
   height="96"
   width="96"
   version="1.1"
   inkscape:version="0.91 r13725"
   sodipodi:docname="pidgin.svg">
  <sodipodi:namedview
     pagecolor="#ffffff"
     bordercolor="#666666"
     borderopacity="1"
     objecttolerance="10"
     gridtolerance="10"
     guidetolerance="10"
     inkscape:pageopacity="0"
     inkscape:pageshadow="2"
     inkscape:window-width="1366"
     inkscape:window-height="716"
     id="namedview18"
     showgrid="false"
     inkscape:zoom="2.4583333"
     inkscape:cx="48"
     inkscape:cy="48.20339"
     inkscape:window-x="0"
     inkscape:window-y="24"
     inkscape:window-maximized="1"
     inkscape:current-layer="g4197" />
  <metadata
     id="metadata41">
    <rdf:RDF>
      <cc:Work
         rdf:about="">
        <dc:format>image/svg+xml</dc:format>
        <dc:type
           rdf:resource="http://purl.org/dc/dcmitype/StillImage" />
      </cc:Work>
    </rdf:RDF>
  </metadata>
  <defs
     id="defs4">
    <linearGradient
       id="linearGradient4193"
       y2="-168"
       gradientUnits="userSpaceOnUse"
       x2="74.983"
       gradientTransform="translate(-69.964672,0.00828537)"
       y1="-168"
       x1="-5.0169">
      <stop
         id="stop4189"
         style="stop-color:#8719d8;stop-opacity:1"
         offset="0" />
      <stop
         id="stop4191"
         style="stop-color:#d63fe9"
         offset="1" />
    </linearGradient>
  </defs>
  <g
     id="g4197"
     transform="matrix(1.0641 0 0 1.0641 -130.76 10.776)">
    <rect
       id="rect4171"
       style="fill:url(#linearGradient4193);stroke:#000000;stroke-width:0.9397613;stroke-miterlimit:4;stroke-dasharray:none;stroke-opacity:0.04705882"
       rx="10.769"
       transform="matrix(0,-1,-1,0,0,0)"
       height="80"
       width="80"
       y="-207.99173"
       x="-74.981674" />
    <path
       inkscape:connector-curvature="0"
       style="fill:#ffffff;fill-opacity:1;stroke:#000000;stroke-width:0.9397613;stroke-miterlimit:4;stroke-dasharray:none;stroke-opacity:0.04705882"
       d="m 161.04866,11.549454 c -11.74505,0 -21.24977,6.973292 -21.24977,15.563099 0,5.289382 3.62207,9.937658 9.12439,12.754149 l -5.27404,10.027369 11.43944,-7.909716 c 1.90186,0.408911 3.88148,0.699335 5.95998,0.699335 11.73537,0 21.23458,-6.971653 21.23458,-15.571137 0,-8.589807 -9.50163,-15.563099 -21.23458,-15.563099 z m -11.15988,12.763974 4.48628,0 0,4.488067 -4.48628,0 0,-4.488067 z m 9.05026,0 4.4836,0 0,4.488067 -4.4836,0 0,-4.488067 z m 9.04937,0 4.48628,0 0,4.488067 -4.48628,0 0,-4.488067 z"
       id="path3013" />
    <path
       inkscape:connector-curvature="0"
       d="m 196.18457,36.905344 c 0,-5.645078 -4.34813,-10.542474 -10.72395,-13.005694 0.31455,1.159019 0.48393,2.361591 0.48393,3.600458 0,10.181946 -11.25144,18.442668 -25.15483,18.442668 -0.17179,0 -0.33149,-0.03613 -0.50087,-0.03613 3.66579,3.462521 9.3883,5.698311 15.83186,5.698311 1.96477,0 3.83033,-0.27346 5.62572,-0.655756 l 10.81106,7.464691 -4.98692,-9.46333 c 5.19743,-2.664044 8.614,-7.053312 8.614,-12.045085 z"
       id="path3015"
       style="fill:#441650;stroke:#000000;stroke-width:0.9397613;stroke-miterlimit:4;stroke-dasharray:none;stroke-opacity:0.04705882" />
  </g>
</svg>
