<?xml version="1.0" encoding="UTF-8" standalone="no"?>
<svg
   xmlns:osb="http://www.openswatchbook.org/uri/2009/osb"
   xmlns:dc="http://purl.org/dc/elements/1.1/"
   xmlns:cc="http://creativecommons.org/ns#"
   xmlns:rdf="http://www.w3.org/1999/02/22-rdf-syntax-ns#"
   xmlns:svg="http://www.w3.org/2000/svg"
   xmlns="http://www.w3.org/2000/svg"
   xmlns:xlink="http://www.w3.org/1999/xlink"
   xmlns:sodipodi="http://sodipodi.sourceforge.net/DTD/sodipodi-0.dtd"
   xmlns:inkscape="http://www.inkscape.org/namespaces/inkscape"
   width="96"
   height="96"
   id="svg2"
   version="1.1"
   inkscape:version="0.91 r13725"
   sodipodi:docname="preferences-system-sharing.svg">
  <metadata
     id="metadata46">
    <rdf:RDF>
      <cc:Work
         rdf:about="">
        <dc:format>image/svg+xml</dc:format>
        <dc:type
           rdf:resource="http://purl.org/dc/dcmitype/StillImage" />
      </cc:Work>
    </rdf:RDF>
  </metadata>
  <sodipodi:namedview
     pagecolor="#ffffff"
     bordercolor="#666666"
     borderopacity="1"
     objecttolerance="10"
     gridtolerance="10"
     guidetolerance="10"
     inkscape:pageopacity="0"
     inkscape:pageshadow="2"
     inkscape:window-width="1366"
     inkscape:window-height="716"
     id="namedview44"
     showgrid="false"
     inkscape:zoom="2.4583333"
     inkscape:cx="82.576271"
     inkscape:cy="47.999999"
     inkscape:window-x="0"
     inkscape:window-y="24"
     inkscape:window-maximized="1"
     inkscape:current-layer="svg2" />
  <defs
     id="defs4">
    <linearGradient
       id="linearGradient4526"
       osb:paint="solid">
      <stop
         style="stop-color:#ffffff;stop-opacity:1;"
         offset="0"
         id="stop4528" />
    </linearGradient>
    <linearGradient
       inkscape:collect="always"
       xlink:href="#linearGradient3874"
       id="linearGradient4162"
       x1="4.179934"
       y1="48"
       x2="91.820068"
       y2="48"
       gradientUnits="userSpaceOnUse" />
    <linearGradient
       id="linearGradient3874"
       y2="24"
       gradientUnits="userSpaceOnUse"
       y1="24"
       gradientTransform="matrix(0,-1,-1,0,48,48)"
       x2="43.5"
       x1="4.5">
      <stop
         id="stop3415"
         style="stop-color:#ddd"
         offset="0" />
      <stop
         id="stop3417"
         style="stop-color:#f2f2f2"
         offset="1" />
    </linearGradient>
  </defs>
  <circle
     style="opacity:1;fill:url(#linearGradient4162);fill-opacity:1;stroke:#000000;stroke-width:1;stroke-miterlimit:4;stroke-dasharray:none;stroke-dashoffset:0;stroke-opacity:0.12000002"
     id="path4151"
     cx="48"
     cy="48"
     r="42.5" />
  <path
     inkscape:connector-curvature="0"
     id="path8343"
     d="m 61.216605,23.218877 a 8.2603743,8.2603743 0 0 0 -8.26038,8.260374 8.2603743,8.2603743 0 0 0 0.2904,2.161896 l -13.02945,8.144214 A 8.2603743,8.2603743 0 0 0 34.783405,39.739626 8.2603743,8.2603743 0 0 0 26.523025,48 a 8.2603743,8.2603743 0 0 0 8.26038,8.260374 8.2603743,8.2603743 0 0 0 5.2918,-1.923117 l 13.13271,8.208747 a 8.2603743,8.2603743 0 0 0 -0.25169,1.974745 8.2603743,8.2603743 0 0 0 8.26038,8.260374 8.2603743,8.2603743 0 0 0 8.26037,-8.260374 8.2603743,8.2603743 0 0 0 -8.26037,-8.260375 8.2603743,8.2603743 0 0 0 -5.43378,2.052188 L 42.746915,50.161896 A 8.2603743,8.2603743 0 0 0 43.043775,48 8.2603743,8.2603743 0 0 0 42.792095,46.018803 l 13.12625,-8.202294 a 8.2603743,8.2603743 0 0 0 5.29826,1.923117 8.2603743,8.2603743 0 0 0 8.26037,-8.260375 8.2603743,8.2603743 0 0 0 -8.26037,-8.260374 z"
     style="color:#000000;clip-rule:nonzero;display:inline;overflow:visible;visibility:visible;opacity:1;isolation:auto;mix-blend-mode:normal;color-interpolation:sRGB;color-interpolation-filters:linearRGB;solid-color:#000000;solid-opacity:1;fill:#818181;fill-opacity:1;fill-rule:evenodd;stroke:#000000;stroke-width:2;stroke-linecap:butt;stroke-linejoin:round;stroke-miterlimit:4;stroke-dasharray:none;stroke-dashoffset:0;stroke-opacity:0.04705882;color-rendering:auto;image-rendering:auto;shape-rendering:auto;text-rendering:auto;enable-background:accumulate" />
</svg>
