<?xml version="1.0" encoding="UTF-8" standalone="no"?>
<svg
   xmlns:osb="http://www.openswatchbook.org/uri/2009/osb"
   xmlns:dc="http://purl.org/dc/elements/1.1/"
   xmlns:cc="http://creativecommons.org/ns#"
   xmlns:rdf="http://www.w3.org/1999/02/22-rdf-syntax-ns#"
   xmlns:svg="http://www.w3.org/2000/svg"
   xmlns="http://www.w3.org/2000/svg"
   xmlns:xlink="http://www.w3.org/1999/xlink"
   xmlns:sodipodi="http://sodipodi.sourceforge.net/DTD/sodipodi-0.dtd"
   xmlns:inkscape="http://www.inkscape.org/namespaces/inkscape"
   id="svg2"
   height="96"
   width="96"
   version="1.1"
   inkscape:version="0.91 r13725"
   sodipodi:docname="scim-setup.svg">
  <sodipodi:namedview
     pagecolor="#ffffff"
     bordercolor="#666666"
     borderopacity="1"
     objecttolerance="10"
     gridtolerance="10"
     guidetolerance="10"
     inkscape:pageopacity="0"
     inkscape:pageshadow="2"
     inkscape:window-width="1366"
     inkscape:window-height="716"
     id="namedview54"
     showgrid="false"
     inkscape:zoom="3.4766083"
     inkscape:cx="34.401365"
     inkscape:cy="39.183418"
     inkscape:window-x="0"
     inkscape:window-y="24"
     inkscape:window-maximized="1"
     inkscape:current-layer="svg2" />
  <metadata
     id="metadata56">
    <rdf:RDF>
      <cc:Work
         rdf:about="">
        <dc:format>image/svg+xml</dc:format>
        <dc:type
           rdf:resource="http://purl.org/dc/dcmitype/StillImage" />
        <dc:title />
      </cc:Work>
    </rdf:RDF>
  </metadata>
  <defs
     id="defs4">
    <linearGradient
       inkscape:collect="always"
       id="linearGradient4362">
      <stop
         style="stop-color:#c39766;stop-opacity:1;"
         offset="0"
         id="stop4364" />
      <stop
         style="stop-color:#d0ae88;stop-opacity:1"
         offset="1"
         id="stop4366" />
    </linearGradient>
    <linearGradient
       id="linearGradient5606"
       osb:paint="solid">
      <stop
         id="stop5608"
         offset="0"
         style="stop-color:#000000;stop-opacity:1;" />
    </linearGradient>
    <linearGradient
       inkscape:collect="always"
       xlink:href="#linearGradient4362"
       id="linearGradient4368"
       x1="47.282589"
       y1="92.296043"
       x2="77.193443"
       y2="2.8410449"
       gradientUnits="userSpaceOnUse" />
  </defs>
  <flowRoot
     id="flowRoot4184"
     xml:space="preserve"
     style="letter-spacing:0px;fill:black;font-size:12.5px;text-anchor:end;word-spacing:0px;font-family:Comic Sans MS;line-height:125%;text-align:end"><flowRegion
       id="flowRegion4186"><rect
         id="rect4188"
         y="43.119"
         width="34.576"
         x="112.27"
         height="35.39" /></flowRegion><flowPara
       id="flowPara4190" /></flowRoot>  <text
     id="text4192"
     style="font-size:12.5px;letter-spacing:0px;text-anchor:end;line-height:125%;word-spacing:0px;text-align:end;font-family:'Comic Sans MS';fill:black"
     xml:space="preserve"
     y="48.81356"
     x="117.15254"><tspan
       id="tspan4194"
       x="117.15254"
       y="48.81356" /></text>
  <text
     id="text4217"
     style="font-size:12.5px;letter-spacing:0px;text-anchor:end;line-height:125%;word-spacing:0px;text-align:end;font-family:'Comic Sans MS';fill:black"
     xml:space="preserve"
     y="64.271187"
     x="122.44068"><tspan
       id="tspan4219"
       x="122.44068"
       y="64.271187" /></text>
  <rect
     rx="11"
     y="5.5"
     x="5.5"
     height="85"
     width="85"
     id="rect4244"
     style="opacity:1;fill:url(#linearGradient4368);fill-opacity:1;stroke:#000000;stroke-width:1;stroke-linecap:butt;stroke-linejoin:miter;stroke-miterlimit:4;stroke-dasharray:none;stroke-dashoffset:0;stroke-opacity:0.04705882" />
  <g
     id="g4265"
     transform="matrix(0.93083401,0,0,0.929577,3.3215622,11.606465)"
     style="fill:#a97b50;fill-opacity:1">
    <path
       id="path4203"
       d="m 29.063765,23.217936 -3.344547,0 q -1.142732,0 -0.864011,-1.347298 0.278708,-1.423605 1.421426,-1.423605 l 3.818355,0 2.285521,-6.228044 q 0.390202,-0.991398 -1.031238,-0.991398 l -4.821748,0 q -1.616498,-0.05085 -1.170591,-1.626958 0.167227,-1.6269586 1.728049,-1.6269586 l 8.472919,0 q 1.728049,0.076268 1.728049,1.0168196 0,0.152522 -0.05575,0.305044 l -3.344548,9.151301 2.814964,0 q 1.142732,0 0.86401,1.372734 -0.278708,1.39817 -1.477201,1.39817 l -3.233138,0 -3.316659,9.049689 q -0.306581,1.042242 -1.895234,1.01682 -0.86401,0.02542 -1.477201,-0.254198 -0.585303,-0.305044 -0.334455,-0.991398 l 3.233138,-8.8209 z m -13.740588,0 -3.344547,0 q -1.142732,0 -0.836137,-1.347298 0.250849,-1.423605 1.393566,-1.423605 l 3.818356,0 2.285521,-6.228044 q 0.390202,-0.991398 -1.031238,-0.991398 l -4.821748,0 q -1.616498,-0.05085 -1.226339,-1.626958 0.222975,-1.6269586 1.783825,-1.6269586 l 8.472919,0 q 1.728049,0.076268 1.728049,1.0168196 0,0.152522 -0.05575,0.305044 l -3.344548,9.151301 2.257633,0 q 1.142732,0 0.752531,1.372734 -0.167228,1.39817 -1.365693,1.39817 l -2.675666,0 -3.316659,9.049689 q -0.30719,1.043237 -1.895517,1.017414 -0.863529,0.02582 -1.477909,-0.254354 -0.584652,-0.304707 -0.334087,-0.991591 l 3.233138,-8.8209 z"
       inkscape:connector-curvature="0"
       style="fill:#a97b50;fill-opacity:1;stroke:#000000;stroke-width:1.3519448;stroke-miterlimit:4;stroke-dasharray:none;stroke-opacity:0.04705882" />
    <path
       id="path4205"
       d="m 39.450179,23.091405 6.103876,0 q 0.585303,0 0.836137,0.559255 0.250848,0.584664 -0.195101,0.864298 l -2.898626,1.728571 q -0.334455,0.228789 0.139354,0.305043 1.086985,0.305044 2.173969,1.118497 0.780404,0.660932 1.003365,1.550652 0.362328,0.889721 -0.306582,2.79621 -0.64105,1.296428 -3.037923,2.643726 -1.644386,0.838876 -1.644386,1.39817 0,0.355888 0.75253,0.355888 1.449313,0.152522 3.233138,-0.482988 0.501682,-0.406733 0.919758,-0.02542 l 0.334454,0.533832 q 0.418076,0.50841 -0.139354,0.991398 -3.177362,1.067665 -5.407107,0.91513 -2.39693,-0.305043 -2.39693,-2.084536 0,-1.118497 2.731441,-2.847081 2.75933,-1.72857 2.75933,-3.660494 0,-0.457565 -0.390202,-0.788031 -1.477201,-1.296428 -3.929907,-1.093075 -0.891884,0.101677 -0.891884,-1.016819 0,-0.381311 0.334455,-0.533833 L 41.819505,25.0742 q 0.362328,-0.203366 0,-0.381311 l -2.369043,0 q -0.529555,0 -0.529555,-0.737186 0.08362,-0.864298 0.529555,-0.864298 z"
       inkscape:connector-curvature="0"
       style="fill:#a97b50;fill-opacity:1;stroke:#000000;stroke-width:1.3519448;stroke-miterlimit:4;stroke-dasharray:none;stroke-opacity:0.04705882" />
    <path
       id="path4207"
       d="m 78.047097,10.990895 -6.048101,17.972589 q -1.086985,3.152175 -4.069204,3.96559 -2.954402,0.788031 -6.271061,-0.152522 -0.55743,-0.152522 -3.149475,-1.474346 -0.05575,0.101677 -0.139354,0.203366 -0.05575,0.101677 -0.08361,0.1271 -0.167227,0.152521 -0.334455,0.355888 -1.421425,1.296428 -3.42821,1.296428 -2.006785,0 -3.372435,-1.245596 -1.365692,-1.245596 -1.365692,-3.075869 0,-1.754006 1.365692,-2.999563 1.365692,-1.271019 3.372435,-1.271019 1.086985,-0.05085 2.898626,0.889721 l 4.180755,-11.337451 q 0.390202,-1.042242 -0.473809,-1.042242 l -6.298949,0 q -1.170591,0 -0.724656,-1.754006 0.418075,-1.4743461 1.755937,-1.4743461 l 9.615608,0 q 1.282086,0 0.86401,0.9913971 l -6.15951,16.624646 q 3.42821,2.186148 4.905411,2.135278 2.675666,-0.02542 3.511732,-2.338632 l 5.798386,-16.421937 q 0.390201,-0.9913977 1.978897,-0.9913977 1.951009,0 1.672273,1.0168197 z M 54.495403,27.514831 q -0.724656,0 -1.254212,0.457565 -0.501682,0.457565 -0.501682,1.093075 0,0.610086 0.501682,1.067664 0.529556,0.457566 1.254212,0.457566 0.752531,0 1.254213,-0.457566 0.529555,-0.457565 0.529555,-1.067664 0,-0.63551 -0.529555,-1.093075 -0.501682,-0.457565 -1.254213,-0.457565 z"
       inkscape:connector-curvature="0"
       style="fill:#a97b50;fill-opacity:1;stroke:#000000;stroke-width:1.3519448;stroke-miterlimit:4;stroke-dasharray:none;stroke-opacity:0.04705882" />
    <path
       id="path4209"
       d="m 77.330792,23.091405 6.103876,0 q 0.585303,0 0.836137,0.559255 0.250848,0.584664 -0.195101,0.864298 l -2.898626,1.728571 q -0.334455,0.228789 0.139354,0.305043 1.086985,0.305044 2.173969,1.118497 0.780404,0.660932 1.003365,1.550652 0.362328,0.889721 -0.306581,2.79621 -0.641036,1.296428 -3.037924,2.643726 -1.644386,0.838876 -1.644386,1.39817 0,0.355888 0.75253,0.355888 1.449314,0.152522 3.233138,-0.482988 0.501682,-0.406733 0.919758,-0.02542 l 0.334454,0.533832 q 0.418076,0.50841 -0.139353,0.991398 -3.177363,1.067665 -5.407108,0.91513 -2.39693,-0.305043 -2.39693,-2.084536 0,-1.118497 2.731441,-2.847081 2.75933,-1.72857 2.75933,-3.660494 0,-0.457565 -0.390202,-0.788031 -1.477201,-1.296428 -3.929907,-1.093075 -0.891884,0.101677 -0.891884,-1.016819 0,-0.381311 0.334455,-0.533833 L 79.700118,25.0742 q 0.362328,-0.203366 0,-0.381311 l -2.369043,0 q -0.529555,0 -0.529555,-0.737186 0.08361,-0.864298 0.529555,-0.864298 z"
       inkscape:connector-curvature="0"
       style="fill:#a97b50;fill-opacity:1;stroke:#000000;stroke-width:1.3519448;stroke-miterlimit:4;stroke-dasharray:none;stroke-opacity:0.04705882" />
    <path
       id="path4211"
       d="m 35.823357,43.141395 -1.895234,0 q -0.891884,0.07627 -1.226339,0.940552 l -5.379219,14.616932 q -0.306581,0.940552 0.780403,0.940552 l 6.856421,0 q 0.75253,0 0.864011,-0.432142 l 0.808263,-2.033666 q 0.222974,-0.610087 2.090306,-0.610087 2.146082,0.07627 1.839459,0.889721 l -1.588611,4.982358 q -0.334454,0.864298 -2.452705,0.813453 l -12.960156,0 q -1.700161,0.05085 -1.700161,-0.991397 0,-0.305043 0.167227,-0.813453 l 7.525302,-20.438656 q 0.418076,-1.042243 1.95101,-1.042243 l 4.933299,0 q 1.337818,0.02542 0.86401,1.754006 -0.195101,1.423605 -1.477201,1.423605 z"
       inkscape:connector-curvature="0"
       style="fill:#a97b50;fill-opacity:1;stroke:#000000;stroke-width:1.3519448;stroke-miterlimit:4;stroke-dasharray:none;stroke-opacity:0.04705882" />
    <path
       id="path4213"
       d="m 45.005077,49.826888 6.298949,0 q 1.170592,0 0.836137,0.889721 l -2.647778,8.159969 q -0.278708,0.838875 0.86401,0.838875 l 5.072596,0 q 0.975505,0 1.30996,-0.88972 l 5.685135,-14.947462 q 0.278878,-0.711415 -0.696485,-0.711415 l -16.221606,0 q -1.254212,-0.05085 -0.975505,-1.626958 0.306582,-1.601523 1.505089,-1.601523 l 19.593616,0 q 1.644386,0 1.226339,1.296428 l -7.525302,21.073894 q -0.334455,0.88972 -1.783825,0.940552 l -11.929017,0 q -1.365692,0 -1.365692,-0.660931 0,-0.330466 0.167227,-0.838876 l 3.233138,-8.77003 q 0.08361,-0.279621 -0.306581,-0.279621 l -2.954402,0 q -0.975505,0 -0.668909,-1.474346 0.250848,-1.39817 1.282085,-1.39817 z"
       inkscape:connector-curvature="0"
       style="fill:#a97b50;fill-opacity:1;stroke:#000000;stroke-width:1.3519448;stroke-miterlimit:4;stroke-dasharray:none;stroke-opacity:0.04705882" />
    <path
       id="path4215"
       d="m 66.307348,53.056015 6.103877,0 q 0.585302,0 0.836136,0.559255 0.250849,0.584664 -0.195101,0.864298 l -2.898626,1.728571 q -0.334455,0.228789 0.139354,0.305043 1.086985,0.305043 2.17397,1.118497 0.780403,0.660931 1.003364,1.550652 0.362328,0.889721 -0.306581,2.79621 -0.641036,1.296428 -3.037924,2.643726 -1.644386,0.838876 -1.644386,1.39817 0,0.355888 0.75253,0.355888 1.449314,0.152522 3.233138,-0.482988 0.501682,-0.406733 0.919758,-0.02542 l 0.334454,0.533832 q 0.418076,0.50841 -0.139353,0.991398 -3.177363,1.067652 -5.407108,0.91513 -2.39693,-0.305044 -2.39693,-2.084536 0,-1.118497 2.731442,-2.847081 2.759329,-1.72857 2.759329,-3.660495 0,-0.457565 -0.390202,-0.78803 -1.477201,-1.296428 -3.929907,-1.093075 -0.891884,0.101677 -0.891884,-1.01682 0,-0.38131 0.334455,-0.533832 l 2.285521,-1.245596 q 0.362328,-0.203367 0,-0.381311 l -2.369043,0 q -0.529555,0 -0.529555,-0.737186 0.08362,-0.864298 0.529555,-0.864298 z"
       inkscape:connector-curvature="0"
       style="fill:#a97b50;fill-opacity:1;stroke:#000000;stroke-width:1.3519448;stroke-miterlimit:4;stroke-dasharray:none;stroke-opacity:0.04705882" />
  </g>
</svg>
