<?xml version="1.0" encoding="UTF-8" standalone="no"?>
<svg
   xmlns:dc="http://purl.org/dc/elements/1.1/"
   xmlns:cc="http://creativecommons.org/ns#"
   xmlns:rdf="http://www.w3.org/1999/02/22-rdf-syntax-ns#"
   xmlns:svg="http://www.w3.org/2000/svg"
   xmlns="http://www.w3.org/2000/svg"
   xmlns:xlink="http://www.w3.org/1999/xlink"
   xmlns:sodipodi="http://sodipodi.sourceforge.net/DTD/sodipodi-0.dtd"
   xmlns:inkscape="http://www.inkscape.org/namespaces/inkscape"
   height="96"
   width="96"
   id="svg193"
   version="1.1"
   inkscape:version="0.91 r13725"
   sodipodi:docname="gnome-app-install.svg">
  <metadata
     id="metadata506">
    <rdf:RDF>
      <cc:Work
         rdf:about="">
        <dc:format>image/svg+xml</dc:format>
        <dc:type
           rdf:resource="http://purl.org/dc/dcmitype/StillImage" />
      </cc:Work>
    </rdf:RDF>
  </metadata>
  <sodipodi:namedview
     pagecolor="#ffffff"
     bordercolor="#666666"
     borderopacity="1"
     objecttolerance="10"
     gridtolerance="10"
     guidetolerance="10"
     inkscape:pageopacity="0"
     inkscape:pageshadow="2"
     inkscape:window-width="1366"
     inkscape:window-height="716"
     id="namedview504"
     showgrid="false"
     inkscape:zoom="2.4583334"
     inkscape:cx="50.490703"
     inkscape:cy="51.267583"
     inkscape:current-layer="svg193"
     inkscape:window-x="0"
     inkscape:window-y="24"
     inkscape:window-maximized="1" />
  <defs
     id="defs195">
    <linearGradient
       id="linearGradient3454"
       inkscape:collect="always">
      <stop
         id="stop3456"
         offset="0"
         style="stop-color:#dededf;stop-opacity:1" />
      <stop
         id="stop3458"
         offset="1"
         style="stop-color:#fbfbfb;stop-opacity:1" />
    </linearGradient>
    <linearGradient
       inkscape:collect="always"
       id="linearGradient3932">
      <stop
         style="stop-color:#5923a3;stop-opacity:1"
         offset="0"
         id="stop3934" />
      <stop
         id="stop3936"
         offset="0.50365889"
         style="stop-color:#453eac;stop-opacity:1" />
      <stop
         style="stop-color:#0d8cc8;stop-opacity:1"
         offset="1"
         id="stop3938" />
    </linearGradient>
    <linearGradient
       gradientUnits="userSpaceOnUse"
       y2="975.86218"
       x2="50"
       y1="1006.6757"
       x1="47.35593"
       id="linearGradient3460"
       xlink:href="#linearGradient3454"
       inkscape:collect="always"
       gradientTransform="translate(-1.9999999e-7,-955.08484)" />
    <linearGradient
       gradientUnits="userSpaceOnUse"
       y2="95.593246"
       x2="78.18644"
       y1="4.0678196"
       x1="43.847458"
       id="linearGradient4167"
       xlink:href="#linearGradient3932"
       inkscape:collect="always"
       gradientTransform="translate(0,-2.2888184e-5)" />
  </defs>
  <rect
     rx="11"
     y="5.5"
     x="5.5"
     height="85"
     width="85"
     id="rect4244"
     style="opacity:1;fill:url(#linearGradient4167);fill-opacity:1;stroke:#000000;stroke-width:1;stroke-linecap:butt;stroke-linejoin:miter;stroke-miterlimit:4;stroke-dasharray:none;stroke-dashoffset:0;stroke-opacity:0.12" />
  <path
     style="fill:url(#linearGradient3460);fill-opacity:1;fill-rule:evenodd;stroke:#000000;stroke-width:1px;stroke-linecap:butt;stroke-linejoin:miter;stroke-opacity:0.12"
     d="m 47.99902,19.281245 -11.82617,11.46093 c -0.85848,0.86142 -0.60602,1.41231 0.41797,1.37696 l 6.125,0 1.65234,21.88082 c -2.27924,-6.3346 -6.30263,-10.10768 -10.43359,-13.72262 l 3.21875,-4.34375 c 0.30968,-0.40683 0.0263,-0.8295 -0.66406,-0.70508 l -12.64063,2.5625 1.94532,12.81645 c 0.0889,0.6049 0.53844,0.7996 1.01562,0.2656 l 3.11523,-4.3086 c 3.95082,2.3841 7.31286,5.3212 10.32227,8.5879 l 7.55469,2.6933 7.95117,-2.6933 c 3.00941,-3.2667 6.36949,-6.2038 10.32031,-8.5879 l 3.11719,4.3086 c 0.47718,0.534 0.92673,0.3393 1.01562,-0.2656 l 1.94532,-12.81645 -12.64063,-2.5625 c -0.69032,-0.12442 -0.97374,0.29825 -0.66406,0.70508 l 3.21875,4.34375 c -4.13258,3.61636 -8.15678,7.39132 -10.43555,13.73042 l 1.6543,-21.88862 6.18164,0 c 0.91377,0 1.21971,-0.52053 0.39258,-1.34766 L 47.99902,19.281245 Z"
     id="path4525" />
  <path
     style="fill:#e6e6e6;fill-opacity:1;fill-rule:evenodd;stroke:#000000;stroke-width:1px;stroke-linecap:butt;stroke-linejoin:miter;stroke-opacity:0.12"
     d="m 32.46777,54.275355 -3.31445,4.5528 c -0.31875,0.5107 -0.0289,0.8505 0.30859,1.0175 l 11.53516,4.2422 c 0.81759,0.2946 1.71276,0.2898 2.38672,-0.3105 l 4.24219,-4.375 -15.15821,-5.127 z"
     id="path4523" />
  <path
     style="fill:#e6e6e6;fill-opacity:1;fill-rule:evenodd;stroke:#000000;stroke-width:1px;stroke-linecap:butt;stroke-linejoin:miter;stroke-opacity:0.12"
     d="m 63.29785,54.275355 -15.1582,5.127 4.24219,4.375 c 0.67396,0.6003 1.56912,0.6051 2.38671,0.3105 l 11.53516,-4.2422 c 0.33746,-0.167 0.62734,-0.5068 0.30859,-1.0175 l -3.31445,-4.5528 z"
     id="path4521" />
  <path
     style="fill:#b3b3b3;fill-opacity:1;fill-rule:evenodd;stroke:#000000;stroke-width:1px;stroke-linecap:butt;stroke-linejoin:miter;stroke-opacity:0.12"
     d="m 47.05176,62.410155 -2.76172,2.7617 c -0.72417,0.8334 -1.64038,1.12 -2.78711,0.7461 l -8.48828,-2.9648 0.54297,7.6074 c 0.0588,0.5412 0.39444,1.0813 0.90625,1.3574 l 11.54687,4.5742 c 0.40329,0.1718 0.72158,0.2261 1.04102,0.2266 l 0,-14.3086 z"
     id="path4519" />
  <path
     style="fill:#b3b3b3;fill-opacity:1;fill-rule:evenodd;stroke:#000000;stroke-width:1px;stroke-linecap:butt;stroke-linejoin:miter;stroke-opacity:0.12"
     d="m 48.74707,62.410155 0,14.3086 c 0.31944,-5e-4 0.63773,-0.055 1.04102,-0.2266 l 11.54687,-4.5742 c 0.51181,-0.2761 0.84745,-0.8162 0.90625,-1.3574 l 0.54297,-7.6074 -8.48828,2.9648 c -1.14673,0.3739 -2.06294,0.087 -2.78711,-0.7461 l -2.76172,-2.7617 z"
     id="path3432" />
  <path
     style="opacity:1;fill:#ffffff;fill-opacity:1;stroke:#000000;stroke-width:1;stroke-linecap:butt;stroke-linejoin:miter;stroke-miterlimit:4;stroke-dasharray:none;stroke-dashoffset:0;stroke-opacity:0.04705882"
     d="m 18.697674,8.4651161 c -5.668837,0 -10.232558,4.5637209 -10.232558,10.2325579 l 0,58.604652 c 0,5.668837 4.563721,10.232558 10.232558,10.232558 l 58.604652,0 c 5.668837,0 10.232558,-4.563721 10.232558,-10.232558 l 0,-58.604652 c 0,-5.668837 -4.563721,-10.2325579 -10.232558,-10.2325579 l -58.604652,0 z m 2.043969,2.7579949 54.516714,0 c 5.273338,0 9.518532,4.245194 9.518532,9.518532 l 0,54.516714 c 0,5.273338 -4.245194,9.518532 -9.518532,9.518532 l -54.516714,0 c -5.273338,0 -9.518533,-4.245194 -9.518533,-9.518532 l 0,-54.516714 c 0,-5.273338 4.245195,-9.518532 9.518533,-9.518532 z"
     id="rect4449"
     inkscape:connector-curvature="0" />
</svg>
