<?xml version="1.0" encoding="UTF-8" standalone="no"?>
<svg
   xmlns:dc="http://purl.org/dc/elements/1.1/"
   xmlns:cc="http://creativecommons.org/ns#"
   xmlns:rdf="http://www.w3.org/1999/02/22-rdf-syntax-ns#"
   xmlns:svg="http://www.w3.org/2000/svg"
   xmlns="http://www.w3.org/2000/svg"
   xmlns:xlink="http://www.w3.org/1999/xlink"
   xmlns:sodipodi="http://sodipodi.sourceforge.net/DTD/sodipodi-0.dtd"
   xmlns:inkscape="http://www.inkscape.org/namespaces/inkscape"
   width="96"
   height="96"
   id="svg2"
   version="1.1"
   inkscape:version="0.91 r13725"
   sodipodi:docname="synapse.svg"
   inkscape:export-filename="/home/ars/git/tebu-flat/Tebu-Flat/apps/128/synapse.png"
   inkscape:export-xdpi="120"
   inkscape:export-ydpi="120">
  <metadata
     id="metadata44">
    <rdf:RDF>
      <cc:Work
         rdf:about="">
        <dc:format>image/svg+xml</dc:format>
        <dc:type
           rdf:resource="http://purl.org/dc/dcmitype/StillImage" />
      </cc:Work>
    </rdf:RDF>
  </metadata>
  <sodipodi:namedview
     pagecolor="#ffffff"
     bordercolor="#666666"
     borderopacity="1"
     objecttolerance="10"
     gridtolerance="10"
     guidetolerance="10"
     inkscape:pageopacity="0"
     inkscape:pageshadow="2"
     inkscape:window-width="1366"
     inkscape:window-height="716"
     id="namedview42"
     showgrid="false"
     inkscape:zoom="2.4583333"
     inkscape:cx="48"
     inkscape:cy="11.883083"
     inkscape:window-x="0"
     inkscape:window-y="24"
     inkscape:window-maximized="1"
     inkscape:current-layer="svg2" />
  <defs
     id="defs4">
    <linearGradient
       id="linearGradient8306"
       gradientUnits="userSpaceOnUse"
       y1="70.04"
       gradientTransform="matrix(0.21063436,0,0,0.21340562,-5.967008,-7.475805)"
       x2="0"
       y2="443.59">
      <stop
         stop-color="#0b9879"
         offset="0"
         id="stop7" />
      <stop
         stop-color="#60e7dc"
         offset="1"
         id="stop9" />
    </linearGradient>
    <linearGradient
       id="linearGradient8309"
       gradientUnits="userSpaceOnUse"
       y1="8"
       gradientTransform="matrix(1.0744,0,0,1.0837,-3.134,-5.955)"
       x2="0"
       y2="88">
      <stop
         stop-color="#e9e6e8"
         offset="0"
         id="stop12" />
      <stop
         stop-color="#92838d"
         offset="1"
         id="stop14" />
    </linearGradient>
    <linearGradient
       gradientTransform="translate(-136.27119,-5.6949153)"
       x1="45.865"
       y1="4.4433"
       x2="47.6"
       gradientUnits="userSpaceOnUse"
       y2="89.46"
       id="linearGradient4276">
      <stop
         offset="0"
         style="stop-color:#fcfcfc;stop-opacity:1"
         id="stop9344" />
      <stop
         offset="1"
         style="stop-color:#e7e7e7;stop-opacity:1"
         id="stop9346" />
    </linearGradient>
    <linearGradient
       gradientUnits="userSpaceOnUse"
       y2="93.169479"
       x2="49.194939"
       y1="6.8972945"
       x1="50.782627"
       id="linearGradient4161"
       xlink:href="#linearGradient4276"
       inkscape:collect="always" />
  </defs>
  <rect
     style="opacity:1;fill:url(#linearGradient4161);fill-opacity:1;stroke:#000000;stroke-width:1;stroke-linecap:butt;stroke-linejoin:miter;stroke-miterlimit:4;stroke-dasharray:none;stroke-dashoffset:0;stroke-opacity:0.12000002"
     id="rect4155"
     width="85"
     height="85"
     x="5.5"
     y="5.5"
     rx="11"
     ry="11" />
  <path
     inkscape:connector-curvature="0"
     style="fill:url(#linearGradient8306)"
     id="path28"
     d="m 47.956844,30.080822 c -9.306579,0 -16.850562,7.60594 -16.850562,17.072636 0,0 -0.1117,1.603691 0.372365,3.414434 l 25.878149,0 c -0.698628,1.977204 -1.951732,3.75109 -3.65321,4.935174 -3.91466,3.131243 -9.843102,1.9926 -13.177944,-1.520647 l -8.010805,0 c 2.601438,6.027069 8.534359,10.243395 15.442538,10.243395 9.306579,0 16.850563,-7.64373 16.850563,-17.072636 0,0 0,-1.754664 -0.335127,-3.414527 l -25.889346,0 c 1.456824,-3.73075 4.935548,-6.754035 8.978414,-6.789119 0.202311,-0.0098 0.403857,-0.01082 0.60558,-0.0065 2.710142,0.0557 5.339853,1.357823 7.168231,3.381216 l 8.063431,0 C 60.797683,34.297241 54.864762,30.080822 47.956582,30.080822 Z m -3.831803,-22.6319503 0,8.9351183 C 31.580661,17.967993 21.395118,27.240421 18.305677,39.401303 l 7.936345,0 C 29.496805,30.623877 38.114581,23.77868 47.53313,23.842129 c 0.228363,-0.0056 0.459563,-0.0094 0.687515,-0.0075 3.419379,0.02062 6.780441,0.880784 9.82724,2.422845 5.487559,2.502718 9.562243,7.448809 11.553444,13.14342 l 7.996156,0 C 74.508231,27.240981 64.322501,17.967993 51.778121,16.383617 l 0,-8.9351186 z M 18.305677,54.906452 c 3.089254,12.159949 13.274984,21.432937 25.819364,23.017313 l 0,8.935118 7.652408,0 0,-8.935118 c 12.54438,-1.58391 22.729924,-10.856431 25.819364,-23.017313 l -7.884092,0 C 66.619175,64.15238 57.057304,70.801536 47.390555,70.458161 37.978538,70.506681 29.439887,63.694143 26.257138,54.906452 Z" />
</svg>
