<?xml version="1.0" encoding="UTF-8" standalone="no"?>
<svg
   xmlns:dc="http://purl.org/dc/elements/1.1/"
   xmlns:cc="http://creativecommons.org/ns#"
   xmlns:rdf="http://www.w3.org/1999/02/22-rdf-syntax-ns#"
   xmlns:svg="http://www.w3.org/2000/svg"
   xmlns="http://www.w3.org/2000/svg"
   xmlns:xlink="http://www.w3.org/1999/xlink"
   xmlns:sodipodi="http://sodipodi.sourceforge.net/DTD/sodipodi-0.dtd"
   xmlns:inkscape="http://www.inkscape.org/namespaces/inkscape"
   id="svg2"
   height="96"
   width="96"
   version="1.1"
   inkscape:version="0.91 r13725"
   sodipodi:docname="virtualbox.svg">
  <sodipodi:namedview
     pagecolor="#ffffff"
     bordercolor="#666666"
     borderopacity="1"
     objecttolerance="10"
     gridtolerance="10"
     guidetolerance="10"
     inkscape:pageopacity="0"
     inkscape:pageshadow="2"
     inkscape:window-width="1366"
     inkscape:window-height="716"
     id="namedview34"
     showgrid="false"
     inkscape:zoom="2.4583333"
     inkscape:cx="48"
     inkscape:cy="48"
     inkscape:window-x="0"
     inkscape:window-y="24"
     inkscape:window-maximized="1"
     inkscape:current-layer="svg2" />
  <metadata
     id="metadata47">
    <rdf:RDF>
      <cc:Work
         rdf:about="">
        <dc:format>image/svg+xml</dc:format>
        <dc:type
           rdf:resource="http://purl.org/dc/dcmitype/StillImage" />
      </cc:Work>
    </rdf:RDF>
  </metadata>
  <defs
     id="defs4">
    <linearGradient
       id="linearGradient4152"
       inkscape:collect="always">
      <stop
         id="stop4154"
         offset="0"
         style="stop-color:#67ffd6;stop-opacity:1" />
      <stop
         id="stop4156"
         offset="1"
         style="stop-color:#0057c9;stop-opacity:1" />
    </linearGradient>
    <linearGradient
       gradientUnits="userSpaceOnUse"
       y2="95.593246"
       x2="78.18644"
       y1="4.0678196"
       x1="43.847458"
       id="linearGradient4167"
       xlink:href="#linearGradient4152"
       inkscape:collect="always"
       gradientTransform="translate(0,-2.2888184e-5)" />
  </defs>
  <rect
     rx="11"
     y="5.5"
     x="5.5"
     height="85"
     width="85"
     id="rect4244"
     style="opacity:1;fill:url(#linearGradient4167);fill-opacity:1.0;stroke:#000000;stroke-width:1;stroke-linecap:butt;stroke-linejoin:miter;stroke-miterlimit:4;stroke-dasharray:none;stroke-dashoffset:0;stroke-opacity:0.12000002" />
  <path
     id="path41"
     d="m 14.4655,14.4655 0,67.069 67.069,0 0,-67.069 -67.069,0 z m 5.5891,5.5891 55.891,0 0,33.069 -7.627,0 -7.423,-22.589 -2.154,-6.521 -2.271,6.492 -4.686,13.39 -4.309,-12.866 -2.474,-7.452 -1.979,7.598 -6.521,24.946 -4.89,-16.243 -0.523,-1.659 -11.033,0 0,-18.165 z m 38.57,18.455 5.7931,17.67 0.52444,1.6013 11.003,0 0,18.165 -55.89,0 0,-33.069 7.5686,0 6.8117,22.531 2.387,7.9179 2.0959,-8.0053 6.637,-25.355 3.9589,11.906 2.1541,6.4624 2.2706,-6.4332 4.6866,-13.391 z"
     inkscape:connector-curvature="0"
     style="fill:#ffffff" />
</svg>
