<?xml version="1.0" encoding="UTF-8" standalone="no"?>
<svg
   xmlns:dc="http://purl.org/dc/elements/1.1/"
   xmlns:cc="http://creativecommons.org/ns#"
   xmlns:rdf="http://www.w3.org/1999/02/22-rdf-syntax-ns#"
   xmlns:svg="http://www.w3.org/2000/svg"
   xmlns="http://www.w3.org/2000/svg"
   xmlns:xlink="http://www.w3.org/1999/xlink"
   xmlns:sodipodi="http://sodipodi.sourceforge.net/DTD/sodipodi-0.dtd"
   xmlns:inkscape="http://www.inkscape.org/namespaces/inkscape"
   height="96"
   width="96"
   id="svg2"
   version="1.1"
   inkscape:version="0.91 r13725"
   sodipodi:docname="applications-accessories.svg">
  <metadata
     id="metadata343">
    <rdf:RDF>
      <cc:Work
         rdf:about="">
        <dc:format>image/svg+xml</dc:format>
        <dc:type
           rdf:resource="http://purl.org/dc/dcmitype/StillImage" />
      </cc:Work>
    </rdf:RDF>
  </metadata>
  <sodipodi:namedview
     pagecolor="#ffffff"
     bordercolor="#666666"
     borderopacity="1"
     objecttolerance="10"
     gridtolerance="10"
     guidetolerance="10"
     inkscape:pageopacity="0"
     inkscape:pageshadow="2"
     inkscape:window-width="1366"
     inkscape:window-height="716"
     id="namedview341"
     showgrid="false"
     inkscape:zoom="3.4766083"
     inkscape:cx="115.23102"
     inkscape:cy="40.255705"
     inkscape:window-x="0"
     inkscape:window-y="24"
     inkscape:window-maximized="1"
     inkscape:current-layer="svg2" />
  <defs
     id="defs4">
    <linearGradient
       gradientUnits="userSpaceOnUse"
       y2="95.593246"
       x2="78.18644"
       y1="4.0678196"
       x1="43.847458"
       id="linearGradient4167"
       xlink:href="#linearGradient2867-449-88-871-390-598-476-591-434-148-57-177-7-4-9-9-2-2-0-8-0"
       inkscape:collect="always"
       gradientTransform="translate(0,-2.2888184e-5)" />
    <linearGradient
       id="linearGradient2867-449-88-871-390-598-476-591-434-148-57-177-7-4-9-9-2-2-0-8-0">
      <stop
         offset="0"
         style="stop-color:#54bfec;stop-opacity:1"
         id="stop3750-6-3-7-0-5-3-5-7" />
      <stop
         offset="0.26238"
         style="stop-color:#55c1ec;stop-opacity:1"
         id="stop3752-3-7-7-6-4-4-3-4" />
      <stop
         offset="0.704952"
         style="stop-color:#3689e6;stop-opacity:1"
         id="stop3754-1-7-4-6-36-7-7-2-4" />
      <stop
         offset="1"
         style="stop-color:#2b63a0;stop-opacity:1"
         id="stop3756-7-5-7-1-4-3-1-7" />
    </linearGradient>
  </defs>
  <rect
     rx="11"
     y="5.5"
     x="5.5"
     height="85"
     width="85"
     id="rect4244"
     style="opacity:1;fill:url(#linearGradient4167);fill-opacity:1;stroke:#000000;stroke-width:1;stroke-linecap:butt;stroke-linejoin:miter;stroke-miterlimit:4;stroke-dasharray:none;stroke-dashoffset:0;stroke-opacity:0.04705882" />
  <path
     style="color:#000000;display:inline;overflow:visible;visibility:visible;opacity:0.1;fill:#ffffff;fill-opacity:1;fill-rule:nonzero;stroke:#000000;stroke-width:1;marker:none;enable-background:accumulate;stroke-opacity:0.04705882;stroke-miterlimit:4;stroke-dasharray:none"
     d="M 21.441406 5.5 L 21.441406 10.058594 L 11.324219 10.058594 L 11.324219 6.7871094 C 10.391724 7.2831546 9.542033 7.9099584 8.7949219 8.6425781 L 8.7949219 10.058594 L 7.5839844 10.058594 C 7.0254358 10.831785 6.5686144 11.68046 6.2246094 12.587891 L 8.7949219 12.587891 L 8.7949219 22.705078 L 5.5 22.705078 L 5.5 25.234375 L 8.7949219 25.234375 L 8.7949219 35.353516 L 5.5 35.353516 L 5.5 37.882812 L 8.7949219 37.882812 L 8.7949219 48 L 5.5 48 L 5.5 50.529297 L 8.7949219 50.529297 L 8.7949219 60.646484 L 5.5 60.646484 L 5.5 63.175781 L 8.7949219 63.175781 L 8.7949219 73.294922 L 5.5 73.294922 L 5.5 75.824219 L 8.7949219 75.824219 L 8.7949219 85.941406 L 7.5839844 85.941406 C 8.5631684 87.296877 9.8379651 88.42227 11.324219 89.212891 L 11.324219 88.470703 L 21.441406 88.470703 L 21.441406 90.5 L 23.970703 90.5 L 23.970703 88.470703 L 34.087891 88.470703 L 34.087891 90.5 L 36.617188 90.5 L 36.617188 88.470703 L 46.734375 88.470703 L 46.734375 90.5 L 49.265625 90.5 L 49.265625 88.470703 L 59.382812 88.470703 L 59.382812 90.5 L 61.912109 90.5 L 61.912109 88.470703 L 72.029297 88.470703 L 72.029297 90.5 L 74.558594 90.5 L 74.558594 88.470703 L 84.675781 88.470703 L 84.675781 89.212891 C 86.162035 88.42227 87.436832 87.296877 88.416016 85.941406 L 87.205078 85.941406 L 87.205078 75.824219 L 90.5 75.824219 L 90.5 73.294922 L 87.205078 73.294922 L 87.205078 63.175781 L 90.5 63.175781 L 90.5 60.646484 L 87.205078 60.646484 L 87.205078 50.529297 L 90.5 50.529297 L 90.5 48 L 87.205078 48 L 87.205078 37.882812 L 90.5 37.882812 L 90.5 35.353516 L 87.205078 35.353516 L 87.205078 25.234375 L 90.5 25.234375 L 90.5 22.705078 L 87.205078 22.705078 L 87.205078 12.587891 L 89.775391 12.587891 C 89.431386 11.68046 88.974564 10.831785 88.416016 10.058594 L 87.205078 10.058594 L 87.205078 8.6425781 C 86.457967 7.9099584 85.608276 7.2831546 84.675781 6.7871094 L 84.675781 10.058594 L 74.558594 10.058594 L 74.558594 5.5 L 72.029297 5.5 L 72.029297 10.058594 L 61.912109 10.058594 L 61.912109 5.5 L 59.382812 5.5 L 59.382812 10.058594 L 49.265625 10.058594 L 49.265625 5.5 L 46.734375 5.5 L 46.734375 10.058594 L 36.617188 10.058594 L 36.617188 5.5 L 34.087891 5.5 L 34.087891 10.058594 L 23.970703 10.058594 L 23.970703 5.5 L 21.441406 5.5 z M 11.324219 12.587891 L 21.441406 12.587891 L 21.441406 22.705078 L 11.324219 22.705078 L 11.324219 12.587891 z M 23.970703 12.587891 L 34.087891 12.587891 L 34.087891 22.705078 L 23.970703 22.705078 L 23.970703 12.587891 z M 36.617188 12.587891 L 46.734375 12.587891 L 46.734375 22.705078 L 36.617188 22.705078 L 36.617188 12.587891 z M 49.265625 12.587891 L 59.382812 12.587891 L 59.382812 22.705078 L 49.265625 22.705078 L 49.265625 12.587891 z M 61.912109 12.587891 L 72.029297 12.587891 L 72.029297 22.705078 L 61.912109 22.705078 L 61.912109 12.587891 z M 74.558594 12.587891 L 84.675781 12.587891 L 84.675781 22.705078 L 74.558594 22.705078 L 74.558594 12.587891 z M 11.324219 25.234375 L 21.441406 25.234375 L 21.441406 35.353516 L 11.324219 35.353516 L 11.324219 25.234375 z M 23.970703 25.234375 L 34.087891 25.234375 L 34.087891 35.353516 L 23.970703 35.353516 L 23.970703 25.234375 z M 36.617188 25.234375 L 46.734375 25.234375 L 46.734375 35.353516 L 36.617188 35.353516 L 36.617188 25.234375 z M 49.265625 25.234375 L 59.382812 25.234375 L 59.382812 35.353516 L 49.265625 35.353516 L 49.265625 25.234375 z M 61.912109 25.234375 L 72.029297 25.234375 L 72.029297 35.353516 L 61.912109 35.353516 L 61.912109 25.234375 z M 74.558594 25.234375 L 84.675781 25.234375 L 84.675781 35.353516 L 74.558594 35.353516 L 74.558594 25.234375 z M 11.324219 37.882812 L 21.441406 37.882812 L 21.441406 48 L 11.324219 48 L 11.324219 37.882812 z M 23.970703 37.882812 L 34.087891 37.882812 L 34.087891 48 L 23.970703 48 L 23.970703 37.882812 z M 36.617188 37.882812 L 46.734375 37.882812 L 46.734375 48 L 36.617188 48 L 36.617188 37.882812 z M 49.265625 37.882812 L 59.382812 37.882812 L 59.382812 48 L 49.265625 48 L 49.265625 37.882812 z M 61.912109 37.882812 L 72.029297 37.882812 L 72.029297 48 L 61.912109 48 L 61.912109 37.882812 z M 74.558594 37.882812 L 84.675781 37.882812 L 84.675781 48 L 74.558594 48 L 74.558594 37.882812 z M 11.324219 50.529297 L 21.441406 50.529297 L 21.441406 60.646484 L 11.324219 60.646484 L 11.324219 50.529297 z M 23.970703 50.529297 L 34.087891 50.529297 L 34.087891 60.646484 L 23.970703 60.646484 L 23.970703 50.529297 z M 36.617188 50.529297 L 46.734375 50.529297 L 46.734375 60.646484 L 36.617188 60.646484 L 36.617188 50.529297 z M 49.265625 50.529297 L 59.382812 50.529297 L 59.382812 60.646484 L 49.265625 60.646484 L 49.265625 50.529297 z M 61.912109 50.529297 L 72.029297 50.529297 L 72.029297 60.646484 L 61.912109 60.646484 L 61.912109 50.529297 z M 74.558594 50.529297 L 84.675781 50.529297 L 84.675781 60.646484 L 74.558594 60.646484 L 74.558594 50.529297 z M 11.324219 63.175781 L 21.441406 63.175781 L 21.441406 73.294922 L 11.324219 73.294922 L 11.324219 63.175781 z M 23.970703 63.175781 L 34.087891 63.175781 L 34.087891 73.294922 L 23.970703 73.294922 L 23.970703 63.175781 z M 36.617188 63.175781 L 46.734375 63.175781 L 46.734375 73.294922 L 36.617188 73.294922 L 36.617188 63.175781 z M 49.265625 63.175781 L 59.382812 63.175781 L 59.382812 73.294922 L 49.265625 73.294922 L 49.265625 63.175781 z M 61.912109 63.175781 L 72.029297 63.175781 L 72.029297 73.294922 L 61.912109 73.294922 L 61.912109 63.175781 z M 74.558594 63.175781 L 84.675781 63.175781 L 84.675781 73.294922 L 74.558594 73.294922 L 74.558594 63.175781 z M 11.324219 75.824219 L 21.441406 75.824219 L 21.441406 85.941406 L 11.324219 85.941406 L 11.324219 75.824219 z M 23.970703 75.824219 L 34.087891 75.824219 L 34.087891 85.941406 L 23.970703 85.941406 L 23.970703 75.824219 z M 36.617188 75.824219 L 46.734375 75.824219 L 46.734375 85.941406 L 36.617188 85.941406 L 36.617188 75.824219 z M 49.265625 75.824219 L 59.382812 75.824219 L 59.382812 85.941406 L 49.265625 85.941406 L 49.265625 75.824219 z M 61.912109 75.824219 L 72.029297 75.824219 L 72.029297 85.941406 L 61.912109 85.941406 L 61.912109 75.824219 z M 74.558594 75.824219 L 84.675781 75.824219 L 84.675781 85.941406 L 74.558594 85.941406 L 74.558594 75.824219 z "
     id="rect3132" />
  <path
     inkscape:connector-curvature="0"
     d="m 60.502116,17.598824 c -4.18777,-2.157034 -10.78177,-2.752062 -20.87594,1.823478 0,0 19.90689,-1.518419 12.04092,12.105846 l -6.65236,11.522213 -2.37877,-1.37339 -15.83689,27.430292 9.51511,5.493559 15.83689,-27.430296 -2.37878,-1.373388 6.65235,-11.522211 0.42918,-0.743368 c 0.93176,-1.535072 3.78865,-5.444543 7.76493,-3.148833 l 1.23374,5.073391 4.31154,2.489267 6.39484,-11.076186 -4.31154,-2.489267 -4.92472,1.319573 c 0,0 -1.43623,-5.327355 -6.8205,-8.10068 z"
     id="rect4740"
     style="color:#000000;display:inline;overflow:visible;visibility:visible;fill:#ffffff;fill-opacity:1;fill-rule:nonzero;stroke:#000000;stroke-width:1;marker:none;enable-background:accumulate;stroke-opacity:0.04705882;stroke-miterlimit:4;stroke-dasharray:none" />
  <path
     style="opacity:1;fill:#ffffff;fill-opacity:1;stroke:#000000;stroke-width:1;stroke-linecap:butt;stroke-linejoin:miter;stroke-miterlimit:4;stroke-dasharray:none;stroke-dashoffset:0;stroke-opacity:0.04705882"
     d="m 18.697674,8.465116 c -5.668837,0 -10.2325578,4.563721 -10.2325578,10.232558 l 0,58.604652 c 0,5.668837 4.5637208,10.232558 10.2325578,10.232558 l 58.604652,0 c 5.668837,0 10.232558,-4.563721 10.232558,-10.232558 l 0,-58.604652 c 0,-5.668837 -4.563721,-10.232558 -10.232558,-10.232558 l -58.604652,0 z m 2.043969,2.757995 54.516714,0 c 5.273338,0 9.518532,4.245194 9.518532,9.518532 l 0,54.516714 c 0,5.273338 -4.245194,9.518532 -9.518532,9.518532 l -54.516714,0 c -5.273338,0 -9.518533,-4.245194 -9.518533,-9.518532 l 0,-54.516714 c 0,-5.273338 4.245195,-9.518532 9.518533,-9.518532 z"
     id="rect4449"
     inkscape:connector-curvature="0" />
</svg>
