<?xml version="1.0" encoding="UTF-8" standalone="no"?>
<svg
   xmlns:dc="http://purl.org/dc/elements/1.1/"
   xmlns:cc="http://creativecommons.org/ns#"
   xmlns:rdf="http://www.w3.org/1999/02/22-rdf-syntax-ns#"
   xmlns:svg="http://www.w3.org/2000/svg"
   xmlns="http://www.w3.org/2000/svg"
   xmlns:xlink="http://www.w3.org/1999/xlink"
   xmlns:sodipodi="http://sodipodi.sourceforge.net/DTD/sodipodi-0.dtd"
   xmlns:inkscape="http://www.inkscape.org/namespaces/inkscape"
   height="96"
   width="96"
   id="svg2"
   version="1.1"
   inkscape:version="0.91 r13725"
   sodipodi:docname="applications-other.svg">
  <metadata
     id="metadata363">
    <rdf:RDF>
      <cc:Work
         rdf:about="">
        <dc:format>image/svg+xml</dc:format>
        <dc:type
           rdf:resource="http://purl.org/dc/dcmitype/StillImage" />
      </cc:Work>
    </rdf:RDF>
  </metadata>
  <sodipodi:namedview
     pagecolor="#ffffff"
     bordercolor="#666666"
     borderopacity="1"
     objecttolerance="10"
     gridtolerance="10"
     guidetolerance="10"
     inkscape:pageopacity="0"
     inkscape:pageshadow="2"
     inkscape:window-width="1366"
     inkscape:window-height="716"
     id="namedview361"
     showgrid="false"
     inkscape:zoom="3.4766083"
     inkscape:cx="74.89484"
     inkscape:cy="33.128551"
     inkscape:window-x="0"
     inkscape:window-y="24"
     inkscape:window-maximized="1"
     inkscape:current-layer="svg2" />
  <defs
     id="defs4">
    <linearGradient
       id="linearGradient4295-1">
      <stop
         stop-color="#b88f56"
         id="stop15" />
      <stop
         stop-color="#d9bd98"
         offset="1"
         id="stop17" />
    </linearGradient>
    <linearGradient
       gradientUnits="userSpaceOnUse"
       y2="-2.0338721"
       x2="56.220337"
       y1="101.28816"
       x1="47.508476"
       id="linearGradient4167"
       xlink:href="#linearGradient4295-1"
       inkscape:collect="always"
       gradientTransform="translate(0,-2.29e-5)" />
  </defs>
  <rect
     rx="11"
     y="5.5"
     x="5.5"
     height="85"
     width="85"
     id="rect4244"
     style="opacity:1;fill:url(#linearGradient4167);fill-opacity:1;stroke:#000000;stroke-width:1;stroke-linecap:butt;stroke-linejoin:miter;stroke-miterlimit:4;stroke-dasharray:none;stroke-dashoffset:0;stroke-opacity:0.04705882" />
  <g
     transform="matrix(1.0287,0,0,1.0485,2.4406734,-2.1600409)"
     id="g169"
     style="stroke:#000000;stroke-width:0.96287833;stroke-miterlimit:4;stroke-dasharray:none;stroke-opacity:0.04705882">
    <rect
       x="15.5"
       rx="1.867"
       y="49.5"
       ry="2"
       height="19"
       width="14"
       id="rect171"
       style="fill:none;stroke:#000000;stroke-width:0.96287833;stroke-miterlimit:4;stroke-dasharray:none;stroke-opacity:0.04705882" />
    <path
       d="m 18.25,66 0,-9.25 -1.25,0 2.5,-4.75 2.5,4.75 -1.25,0 0,9.25 -2.5,0 z"
       inkscape:connector-curvature="0"
       id="path173"
       style="fill:#825023;stroke:#000000;stroke-width:0.96287833;stroke-miterlimit:4;stroke-dasharray:none;stroke-opacity:0.04705882" />
    <path
       d="m 24.25,66 0,-9.25 -1.25,0 2.5,-4.75 2.5,4.75 -1.25,0 0,9.25 -2.5,0 z"
       inkscape:connector-curvature="0"
       id="path175"
       style="fill:#825023;stroke:#000000;stroke-width:0.96287833;stroke-miterlimit:4;stroke-dasharray:none;stroke-opacity:0.04705882" />
  </g>
  <path
     style="opacity:1;fill:#825023;fill-opacity:1;stroke:#000000;stroke-width:1;stroke-linecap:butt;stroke-linejoin:miter;stroke-miterlimit:4;stroke-dasharray:none;stroke-dashoffset:0;stroke-opacity:0.04705882"
     d="m 18.697674,8.465116 c -5.668837,0 -10.2325578,4.563721 -10.2325578,10.232558 l 0,58.604652 c 0,5.668837 4.5637208,10.232558 10.2325578,10.232558 l 58.604652,0 c 5.668837,0 10.232558,-4.563721 10.232558,-10.232558 l 0,-58.604652 c 0,-5.668837 -4.563721,-10.232558 -10.232558,-10.232558 l -58.604652,0 z m 2.043969,2.757995 54.516714,0 c 5.273338,0 9.518532,4.245194 9.518532,9.518532 l 0,54.516714 c 0,5.273338 -4.245194,9.518532 -9.518532,9.518532 l -54.516714,0 c -5.273338,0 -9.518533,-4.245194 -9.518533,-9.518532 l 0,-54.516714 c 0,-5.273338 4.245195,-9.518532 9.518533,-9.518532 z"
     id="rect4449"
     inkscape:connector-curvature="0" />
  <path
     style="opacity:1;fill:#ffffff;fill-opacity:0.70945949;fill-rule:nonzero;stroke:#000000;stroke-width:1;stroke-linecap:butt;stroke-miterlimit:4;stroke-dasharray:none;stroke-opacity:0.04705882"
     d="m 42.13633,8.2963629 11.727337,0 0,30.2453061 -1.454202,-1.641796 -2.21675,2.362827 -3.415172,-1.583941 -4.641213,0.86291 z"
     id="rect4389"
     inkscape:connector-curvature="0"
     sodipodi:nodetypes="cccccccc" />
  <rect
     y="46.139183"
     x="9.5201225"
     height="1.9958125"
     width="76.959755"
     id="rect4635"
     style="opacity:1;fill:#825023;fill-opacity:1;fill-rule:nonzero;stroke:#000000;stroke-width:1;stroke-linecap:butt;stroke-miterlimit:4;stroke-dasharray:none;stroke-opacity:0.04705882" />
  <path
     style="display:block;visibility:visible;fill:#825023;fill-opacity:1;fill-rule:nonzero;stroke:#000000;stroke-width:1;stroke-miterlimit:4;stroke-dasharray:none;stroke-opacity:0.04705882"
     id="path305"
     inkscape:connector-curvature="0"
     visibility="visible"
     display="block"
     d="m 64.76129,54.868173 c -0.515002,0 -0.921986,0.427917 -0.921986,0.951725 l 0,1.843967 c -0.920862,0.245353 -1.797301,0.617342 -2.602366,1.085561 l -1.323501,-1.308622 c -0.185185,-0.185194 -0.399775,-0.295383 -0.639432,-0.297414 -0.239658,-0.0021 -0.48711,0.08559 -0.669185,0.267673 l -2.57263,2.572631 c -0.364159,0.364164 -0.34061,0.938234 0.02975,1.308622 l 1.308617,1.323493 c -0.468213,0.805066 -0.840206,1.681507 -1.085561,2.602373 l -1.843971,0 c -0.523802,0 -0.951723,0.406979 -0.951723,0.921984 l 0,3.628452 c 0,0.515004 0.427921,0.921983 0.951723,0.921983 l 1.843971,0 c 0.245355,0.920866 0.617348,1.797307 1.085561,2.602373 l -1.308614,1.323493 c -0.370394,0.370387 -0.393943,0.944457 -0.02975,1.308622 l 2.57263,2.572631 c 0.364159,0.364163 0.938239,0.340646 1.308617,-0.02975 l 1.323501,-1.308622 c 0.805065,0.468221 1.681504,0.840209 2.602366,1.085562 l 0,1.843967 c 0,0.523808 0.406984,0.951725 0.921986,0.951725 l 3.628454,0 c 0.514994,0 0.921978,-0.427917 0.921978,-0.951725 l 0,-1.843967 c 0.92087,-0.245353 1.797309,-0.617341 2.602374,-1.085562 l 1.323493,1.308622 c 0.370394,0.370388 0.944458,0.393906 1.308625,0.02975 l 2.57263,-2.572631 c 0.364159,-0.364164 0.34061,-0.938235 -0.02975,-1.308622 L 75.78048,73.292974 c 0.468213,-0.805066 0.840206,-1.681507 1.085561,-2.602373 l 1.843971,0 c 0.523794,0 0.951723,-0.406978 0.951723,-0.921983 l 0,-3.628452 c 0,-0.515004 -0.427929,-0.921984 -0.951723,-0.921984 l -1.843971,0 C 76.620686,64.297316 76.248693,63.420875 75.78048,62.615809 l 1.308617,-1.323493 c 0.370394,-0.370388 0.393951,-0.944458 0.02975,-1.308622 l -2.57263,-2.572631 c -0.36417,-0.364163 -0.938234,-0.340646 -1.308628,0.02974 l -1.323493,1.308622 C 71.109031,58.28121 70.232592,57.909221 69.311722,57.663867 l 0,-1.843966 c 0,-0.523808 -0.406984,-0.951725 -0.921978,-0.951725 l -3.628454,0 z m 1.814227,9.279319 c 2.102493,0 3.806897,1.704406 3.806897,3.8069 0,2.102493 -1.704404,3.8069 -3.806897,3.8069 -2.102493,0 -3.806905,-1.704407 -3.806905,-3.8069 0,-2.102494 1.704412,-3.8069 3.806905,-3.8069 z" />
</svg>
