<?xml version="1.0" encoding="UTF-8" standalone="no"?>
<svg
   xmlns:dc="http://purl.org/dc/elements/1.1/"
   xmlns:cc="http://creativecommons.org/ns#"
   xmlns:rdf="http://www.w3.org/1999/02/22-rdf-syntax-ns#"
   xmlns:svg="http://www.w3.org/2000/svg"
   xmlns="http://www.w3.org/2000/svg"
   xmlns:xlink="http://www.w3.org/1999/xlink"
   xmlns:sodipodi="http://sodipodi.sourceforge.net/DTD/sodipodi-0.dtd"
   xmlns:inkscape="http://www.inkscape.org/namespaces/inkscape"
   height="96"
   width="96"
   id="svg2"
   version="1.1"
   inkscape:version="0.91 r13725"
   sodipodi:docname="applications-astronomy.svg">
  <metadata
     id="metadata222">
    <rdf:RDF>
      <cc:Work
         rdf:about="">
        <dc:format>image/svg+xml</dc:format>
        <dc:type
           rdf:resource="http://purl.org/dc/dcmitype/StillImage" />
      </cc:Work>
    </rdf:RDF>
  </metadata>
  <sodipodi:namedview
     pagecolor="#ffffff"
     bordercolor="#666666"
     borderopacity="1"
     objecttolerance="10"
     gridtolerance="10"
     guidetolerance="10"
     inkscape:pageopacity="0"
     inkscape:pageshadow="2"
     inkscape:window-width="1366"
     inkscape:window-height="716"
     id="namedview220"
     showgrid="false"
     inkscape:zoom="4.9166667"
     inkscape:cx="9.3983415"
     inkscape:cy="59.226722"
     inkscape:window-x="0"
     inkscape:window-y="24"
     inkscape:window-maximized="1"
     inkscape:current-layer="svg2" />
  <defs
     id="defs4">
    <linearGradient
       id="linearGradient4437">
      <stop
         id="stop4439"
         style="stop-color:#33617b;stop-opacity:1"
         offset="0" />
      <stop
         id="stop4445"
         style="stop-color:#153451;stop-opacity:1"
         offset="1" />
    </linearGradient>
    <linearGradient
       id="linearGradient3737">
      <stop
         stop-color="#fff"
         offset="0"
         id="stop7" />
      <stop
         stop-color="#fff"
         stop-opacity="0"
         offset="1"
         id="stop9" />
    </linearGradient>
    <radialGradient
       id="radialGradient4163"
       cx="32"
       xlink:href="#linearGradient3737"
       gradientUnits="userSpaceOnUse"
       cy="32"
       r="8" />
    <radialGradient
       id="radialGradient4165"
       gradientUnits="userSpaceOnUse"
       cy="31.602"
       r="7.245"
       cx="29.09">
      <stop
         stop-color="#fff"
         offset="0"
         id="stop27" />
      <stop
         stop-color="#fff"
         stop-opacity=".155"
         offset="1"
         id="stop29" />
    </radialGradient>
    <path
       id="SVGCleanerId_3"
       opacity=".3"
       d="m40 32a8 8 0 1 1 -16 0 8 8 0 1 1 16 0z"
       color="#000000"
       fill="url(#radialGradient4163)" />
    <path
       id="SVGCleanerId_4"
       opacity=".1"
       d="m15.541 11.572-0.9811 3.9875-3.9955 0.98071 3.9955 0.93935 0.98571 4.0448 0.93435-4.0448 4.0498-0.93647-4.0498-0.9836-0.93896-3.9875z"
       color="#000000"
       fill="#fff" />
    <path
       id="SVGCleanerId_5"
       opacity=".2"
       d="m15.546 21.041-0.72044-3.7605-3.7752-0.73522 3.7613-0.68312 0.7344-3.8126 0.69087 3.7605 3.8048 0.73522-3.79 0.77957-0.70565 3.7161z"
       color="#000000"
       fill="#fff" />
    <path
       id="SVGCleanerId_6"
       d="m33.278 38.847-4.5293-5.952-6.8985 2.8899 5.952-4.5293-2.8899-6.8985 4.5293 5.952 6.8985-2.8899-5.952 4.5293z"
       color="#000000"
       fill="url(#radialGradient4165)" />
    <linearGradient
       gradientUnits="userSpaceOnUse"
       y2="95.593246"
       x2="78.18644"
       y1="4.0678196"
       x1="43.847458"
       id="linearGradient4167"
       xlink:href="#linearGradient4437"
       inkscape:collect="always"
       gradientTransform="translate(0,-2.29e-5)" />
  </defs>
  <g
     transform="translate(-97 1)"
     id="g104"
     style="stroke:#000000;stroke-width:1;stroke-miterlimit:4;stroke-dasharray:none;stroke-opacity:0.04705882">
    <use
       xlink:href="#SVGCleanerId_3"
       transform="matrix(.48002 0 0 .48002 .159 1.159)"
       id="use106"
       style="stroke:#000000;stroke-width:2.08324653;stroke-miterlimit:4;stroke-dasharray:none;stroke-opacity:0.04705882" />
    <use
       xlink:href="#SVGCleanerId_4"
       id="use108"
       style="stroke:#000000;stroke-width:1;stroke-miterlimit:4;stroke-dasharray:none;stroke-opacity:0.04705882" />
    <use
       xlink:href="#SVGCleanerId_5"
       id="use110"
       style="stroke:#000000;stroke-width:1;stroke-miterlimit:4;stroke-dasharray:none;stroke-opacity:0.04705882" />
    <use
       xlink:href="#SVGCleanerId_6"
       transform="matrix(.41571 .24001 -.24001 .41571 11.04 -3.574)"
       id="use112"
       style="stroke:#000000;stroke-width:2.08324471;stroke-miterlimit:4;stroke-dasharray:none;stroke-opacity:0.04705882" />
  </g>
  <g
     transform="matrix(.78795 0 0 .78795 -88.81 62.76)"
     id="g134"
     style="stroke:#000000;stroke-width:1.26911606;stroke-miterlimit:4;stroke-dasharray:none;stroke-opacity:0.04705882">
    <use
       xlink:href="#SVGCleanerId_3"
       transform="matrix(.48002 0 0 .48002 .159 1.159)"
       id="use136"
       style="stroke:#000000;stroke-width:2.64388163;stroke-miterlimit:4;stroke-dasharray:none;stroke-opacity:0.04705882" />
    <use
       xlink:href="#SVGCleanerId_4"
       id="use138"
       style="stroke:#000000;stroke-width:1.26911606;stroke-miterlimit:4;stroke-dasharray:none;stroke-opacity:0.04705882" />
    <use
       xlink:href="#SVGCleanerId_5"
       id="use140"
       style="stroke:#000000;stroke-width:1.26911606;stroke-miterlimit:4;stroke-dasharray:none;stroke-opacity:0.04705882" />
    <use
       xlink:href="#SVGCleanerId_6"
       transform="matrix(.41571 .24001 -.24001 .41571 11.04 -3.574)"
       id="use142"
       style="stroke:#000000;stroke-width:2.64387931;stroke-miterlimit:4;stroke-dasharray:none;stroke-opacity:0.04705882" />
  </g>
  <g
     transform="matrix(1.5542 0 0 1.5542 -108.26 38.05)"
     id="g154"
     style="stroke:#000000;stroke-width:0.64341784;stroke-miterlimit:4;stroke-dasharray:none;stroke-opacity:0.04705882">
    <use
       xlink:href="#SVGCleanerId_3"
       transform="matrix(.48002 0 0 .48002 .159 1.159)"
       id="use156"
       style="stroke:#000000;stroke-width:1.34039797;stroke-miterlimit:4;stroke-dasharray:none;stroke-opacity:0.04705882" />
    <use
       xlink:href="#SVGCleanerId_4"
       id="use158"
       style="stroke:#000000;stroke-width:0.64341784;stroke-miterlimit:4;stroke-dasharray:none;stroke-opacity:0.04705882" />
    <use
       xlink:href="#SVGCleanerId_5"
       id="use160"
       style="stroke:#000000;stroke-width:0.64341784;stroke-miterlimit:4;stroke-dasharray:none;stroke-opacity:0.04705882" />
    <use
       xlink:href="#SVGCleanerId_6"
       transform="matrix(.41571 .24001 -.24001 .41571 11.04 -3.574)"
       id="use162"
       style="stroke:#000000;stroke-width:1.3403968;stroke-miterlimit:4;stroke-dasharray:none;stroke-opacity:0.04705882" />
  </g>
  <g
     transform="translate(-99.92 63.988)"
     id="g164"
     style="stroke:#000000;stroke-width:1;stroke-miterlimit:4;stroke-dasharray:none;stroke-opacity:0.04705882">
    <use
       xlink:href="#SVGCleanerId_3"
       transform="matrix(.48002 0 0 .48002 .159 1.159)"
       id="use166"
       style="stroke:#000000;stroke-width:2.08324653;stroke-miterlimit:4;stroke-dasharray:none;stroke-opacity:0.04705882" />
    <use
       xlink:href="#SVGCleanerId_4"
       id="use168"
       style="stroke:#000000;stroke-width:1;stroke-miterlimit:4;stroke-dasharray:none;stroke-opacity:0.04705882" />
    <use
       xlink:href="#SVGCleanerId_5"
       id="use170"
       style="stroke:#000000;stroke-width:1;stroke-miterlimit:4;stroke-dasharray:none;stroke-opacity:0.04705882" />
    <use
       xlink:href="#SVGCleanerId_6"
       transform="matrix(.41571 .24001 -.24001 .41571 11.04 -3.574)"
       id="use172"
       style="stroke:#000000;stroke-width:2.08324471;stroke-miterlimit:4;stroke-dasharray:none;stroke-opacity:0.04705882" />
  </g>
  <rect
     rx="11"
     y="5.5"
     x="5.5"
     height="85"
     width="85"
     id="rect4244"
     style="opacity:1;fill:url(#linearGradient4167);fill-opacity:1;stroke:#000000;stroke-width:1;stroke-linecap:butt;stroke-linejoin:miter;stroke-miterlimit:4;stroke-dasharray:none;stroke-dashoffset:0;stroke-opacity:0.04705882" />
  <path
     inkscape:connector-curvature="0"
     d="m 44.443663,26.958361 -1.293211,7.672253 -7.672252,1.08355 7.672252,1.473866 1.406241,7.672255 1.151188,-7.672255 7.672251,-1.19131 -7.672251,-1.366106 -1.264218,-7.672253 z"
     id="path18004"
     style="fill:#e9eb68;fill-opacity:1;fill-rule:evenodd;stroke:#000000;stroke-width:1;stroke-miterlimit:4;stroke-dasharray:none;stroke-opacity:0.04705882" />
  <path
     inkscape:connector-curvature="0"
     d="m 26.541732,37.18803 -1.293212,7.672255 -7.672251,1.083552 7.672251,1.473865 1.406241,7.672256 1.151188,-7.672256 7.672251,-1.191307 -7.672251,-1.36611 -1.264217,-7.672255 z"
     id="path18914"
     style="fill:#e9eb68;fill-opacity:1;fill-rule:evenodd;stroke:#000000;stroke-width:1;stroke-miterlimit:4;stroke-dasharray:none;stroke-opacity:0.04705882" />
  <path
     inkscape:connector-curvature="0"
     d="m 65.674817,34.48367 c 0.995806,2.353078 1.518459,4.957727 1.518459,7.672253 0,10.858099 -8.802051,19.66015 -19.660143,19.66015 -3.17114,0 -6.13754,-0.743172 -8.791127,-2.0779 2.987452,7.059239 9.998115,11.987895 18.141684,11.987895 10.858109,0 19.66016,-8.802054 19.66016,-19.660151 0,-7.686971 -4.436593,-14.346797 -10.869033,-17.582247 l 0,0 z"
     id="path23408"
     style="opacity:0.9;fill:#e9eb68;fill-opacity:1;fill-rule:nonzero;stroke:#000000;stroke-width:1;stroke-linecap:butt;stroke-linejoin:round;stroke-miterlimit:4;stroke-dasharray:none;stroke-dashoffset:0;stroke-opacity:0.04705882" />
  <path
     style="opacity:1;fill:#d5db67;fill-opacity:1;stroke:#000000;stroke-width:1;stroke-linecap:butt;stroke-linejoin:miter;stroke-miterlimit:4;stroke-dasharray:none;stroke-dashoffset:0;stroke-opacity:0.04705882"
     d="m 18.697674,8.465116 c -5.668837,0 -10.2325578,4.563721 -10.2325578,10.232558 l 0,58.604652 c 0,5.668837 4.5637208,10.232558 10.2325578,10.232558 l 58.604652,0 c 5.668837,0 10.232558,-4.563721 10.232558,-10.232558 l 0,-58.604652 c 0,-5.668837 -4.563721,-10.232558 -10.232558,-10.232558 l -58.604652,0 z m 2.043969,2.757995 54.516714,0 c 5.273338,0 9.518532,4.245194 9.518532,9.518532 l 0,54.516714 c 0,5.273338 -4.245194,9.518532 -9.518532,9.518532 l -54.516714,0 c -5.273338,0 -9.518533,-4.245194 -9.518533,-9.518532 l 0,-54.516714 c 0,-5.273338 4.245195,-9.518532 9.518533,-9.518532 z"
     id="rect4449"
     inkscape:connector-curvature="0" />
</svg>
