<?xml version="1.0" encoding="UTF-8" standalone="no"?>
<svg
   xmlns:dc="http://purl.org/dc/elements/1.1/"
   xmlns:cc="http://creativecommons.org/ns#"
   xmlns:rdf="http://www.w3.org/1999/02/22-rdf-syntax-ns#"
   xmlns:svg="http://www.w3.org/2000/svg"
   xmlns="http://www.w3.org/2000/svg"
   xmlns:xlink="http://www.w3.org/1999/xlink"
   xmlns:sodipodi="http://sodipodi.sourceforge.net/DTD/sodipodi-0.dtd"
   xmlns:inkscape="http://www.inkscape.org/namespaces/inkscape"
   height="96"
   width="96"
   id="svg2"
   version="1.1"
   inkscape:version="0.91 r13725"
   sodipodi:docname="applications-science.svg">
  <metadata
     id="metadata65">
    <rdf:RDF>
      <cc:Work
         rdf:about="">
        <dc:format>image/svg+xml</dc:format>
        <dc:type
           rdf:resource="http://purl.org/dc/dcmitype/StillImage" />
      </cc:Work>
    </rdf:RDF>
  </metadata>
  <sodipodi:namedview
     pagecolor="#ffffff"
     bordercolor="#666666"
     borderopacity="1"
     objecttolerance="10"
     gridtolerance="10"
     guidetolerance="10"
     inkscape:pageopacity="0"
     inkscape:pageshadow="2"
     inkscape:window-width="1366"
     inkscape:window-height="716"
     id="namedview63"
     showgrid="false"
     inkscape:zoom="2.4583333"
     inkscape:cx="48"
     inkscape:cy="48"
     inkscape:window-x="0"
     inkscape:window-y="24"
     inkscape:window-maximized="1"
     inkscape:current-layer="svg2" />
  <defs
     id="defs4">
    <linearGradient
       id="linearGradient3950"
       xlink:href="#linearGradient5149-7"
       gradientUnits="userSpaceOnUse"
       gradientTransform="translate(-1.75,-32.75)"
       x2="99.47"
       x1="27.5" />
    <linearGradient
       id="linearGradient5149-7">
      <stop
         stop-color="#d8e8c2"
         offset="0"
         id="stop8" />
      <stop
         stop-color="#d8e8c2"
         stop-opacity="0"
         offset="1"
         id="stop10" />
    </linearGradient>
    <filter
       id="filter4005"
       color-interpolation-filters="sRGB">
      <feGaussianBlur
         stdDeviation="1.25312"
         id="feGaussianBlur13" />
    </filter>
    <linearGradient
       id="linearGradient5169-4"
       y2="45.617"
       xlink:href="#linearGradient5149-7"
       gradientUnits="userSpaceOnUse"
       y1="92.87"
       gradientTransform="translate(-5.25,-43.25)"
       x2="81.5"
       x1="77" />
    <linearGradient
       id="linearGradient3795"
       x2="18"
       gradientUnits="userSpaceOnUse"
       x1="4.177"
       gradientTransform="matrix(4.5939,0,0,4.7846,-103.93559,104.60495)">
      <stop
         stop-color="#275a39"
         offset="0"
         id="stop17" />
      <stop
         stop-color="#448459"
         offset="1"
         id="stop19" />
    </linearGradient>
    <linearGradient
       inkscape:collect="always"
       xlink:href="#linearGradient3795"
       id="linearGradient4190"
       x1="48.932205"
       y1="87.86441"
       x2="64.559319"
       y2="0"
       gradientUnits="userSpaceOnUse" />
  </defs>
  <rect
     rx="11"
     y="5.5"
     x="5.5"
     height="85"
     width="85"
     id="rect4244"
     style="opacity:1;fill:url(#linearGradient4190);fill-opacity:1;stroke:#000000;stroke-width:1;stroke-linecap:butt;stroke-linejoin:miter;stroke-miterlimit:4;stroke-dasharray:none;stroke-dashoffset:0;stroke-opacity:0.04705882" />
  <path
     style="opacity:1;fill:#c2dca8;fill-opacity:1;stroke:#000000;stroke-width:1;stroke-linecap:butt;stroke-linejoin:miter;stroke-miterlimit:4;stroke-dasharray:none;stroke-dashoffset:0;stroke-opacity:0.04705882"
     d="m 18.697674,8.465116 c -5.668837,0 -10.2325578,4.563721 -10.2325578,10.232558 l 0,58.604652 c 0,5.668837 4.5637208,10.232558 10.2325578,10.232558 l 58.604652,0 c 5.668837,0 10.232558,-4.563721 10.232558,-10.232558 l 0,-58.604652 c 0,-5.668837 -4.563721,-10.232558 -10.232558,-10.232558 l -58.604652,0 z m 2.043969,2.757995 54.516714,0 c 5.273338,0 9.518532,4.245194 9.518532,9.518532 l 0,54.516714 c 0,5.273338 -4.245194,9.518532 -9.518532,9.518532 l -54.516714,0 c -5.273338,0 -9.518533,-4.245194 -9.518533,-9.518532 l 0,-54.516714 c 0,-5.273338 4.245195,-9.518532 9.518533,-9.518532 z"
     id="rect4449"
     inkscape:connector-curvature="0" />
  <g
     transform="matrix(1.1164,0,0,1.0719,-4.9622195,-2.1122034)"
     id="g55">
    <path
       d="m 33.872,41.136 -0.19231,3.077 c -0.45586,9e-6 -1.2251,0.007 -2.3078,0.02136 -1.0114,0.0285 -1.7807,0.04275 -2.3078,0.04274 -0.85473,9e-6 -1.624,-0.02849 -2.3078,-0.08548 l -0.0641,1.4958 c 1.7949,-0.08547 3.0984,-0.32051 3.9104,-0.70514 l 0.36326,2.9274 c -0.95445,0.47011 -2.493,0.75502 -4.6155,0.85473 l -0.25642,1.1325 0.81199,0 c 2.1226,3e-6 4.3163,0.05698 6.5814,0.17094 l -0.256,3.076 c -2.151,-0.114 -4.779,-0.171 -7.885,-0.171 -0.897,0 -1.346,-0.555 -1.346,-1.666 0,-0.28491 0.1567,-1.2322 0.4701,-2.842 0.14245,-0.64104 0.23505,-1.4744 0.27778,-2.5001 0.05698,-1.51 0.0926,-2.3434 0.10684,-2.5001 0.07122,-0.7265 0.1567,-1.2251 0.25642,-1.4958 0.19943,-0.54131 0.56269,-0.81197 1.0898,-0.81199 0.24217,1.2e-5 0.61255,0.03562 1.1111,0.10684 0.49858,0.07123 0.86896,0.10685 1.1111,0.10684 0.61255,1e-5 1.5243,-0.03561 2.7351,-0.10684 1.2251,-0.08546 2.1297,-0.1282 2.7137,-0.12821 m 7.4341,2.4573 -0.36326,3.077 C 39.7607,46.55584 38.0442,46.39914 35.7934,46.1997 l 0.29915,-3.077 c 1.1824,0.08548 2.9203,0.24218 5.2138,0.4701 m 0.17094,3.889 -0.27779,3.077 c -1.4815,-0.11396 -2.4787,-0.17094 -2.9915,-0.17094 -1.0827,2e-6 -2.0371,0.11396 -2.8633,0.34189 l -0.12821,-3.0343 c 0.9117,-0.25641 1.9659,-0.38462 3.1625,-0.38463 0.61255,6e-6 1.6453,0.05698 3.0984,0.17094 m 11.328,1.3462 c -1.2e-5,0.59831 -0.04275,1.3604 -0.12821,2.2864 -0.11397,1.2678 -0.17808,2.0228 -0.19231,2.265 l -1.8804,0 c 0.01423,-0.1567 0.09259,-0.80486 0.23505,-1.9445 0.09971,-0.79774 0.14957,-1.453 0.14958,-1.9659 -9e-6,-1.567 -0.42737,-2.3505 -1.2821,-2.3505 -0.39888,7e-6 -0.89034,0.16383 -1.4744,0.49147 0.11396,0.72652 0.17094,1.5314 0.17094,2.4146 -7e-6,0.56982 -0.05698,1.7736 -0.17094,3.6112 l -1.8804,0 c 0.11396,-1.7664 0.17094,-2.9061 0.17094,-3.4189 -4e-6,-1.1396 -0.10684,-1.9374 -0.32052,-2.3932 -0.14246,-0.05697 -0.28491,-0.08547 -0.42736,-0.08548 -0.54132,6e-6 -0.99006,0.27779 -1.3462,0.83336 -0.05698,1.7094 -0.29916,3.5186 -0.72651,5.4275 l -1.7308,-0.76925 c 0.24217,-1.1539 0.42024,-2.5286 0.5342,-4.124 0.07122,-1.3818 0.14958,-2.7636 0.23505,-4.1454 l 1.8804,0 -0.02136,0.12821 c 0.51283,-0.25641 1.0043,-0.38462 1.4744,-0.38463 0.4701,9e-6 0.85472,0.13534 1.1539,0.40599 0.79774,-0.68377 1.7308,-1.0257 2.7992,-1.0257 1.8519,9e-6 2.7778,1.5812 2.7778,4.7437 m 12.241,-3.9745 -0.44873,3.0343 c -1.6667,-0.39886 -4.0243,-0.5983 -7.0728,-0.59831 -1.0257,6e-6 -1.51,0.61256 -1.453,1.8377 l 0.04274,0.68378 c 1.3676,0.44161 2.6781,0.66241 3.9317,0.66241 0.52707,3e-6 1.7878,-0.09259 3.7821,-0.27778 l -0.12821,3.077 c -2.6781,0.1567 -4.3733,0.23505 -5.0856,0.23505 -1.4103,0 -2.4645,-0.23505 -3.1625,-0.70515 -0.84048,-0.58406 -1.2607,-1.5456 -1.2607,-2.8847 0,-1.51 0.2208,-2.7494 0.66241,-3.718 0.5983,-1.3248 1.5527,-1.9872 2.8633,-1.9872 3.0912,9e-6 5.5343,0.21369 7.3292,0.64104 m 6.9536,-1.9399 c -6e-6,1.3004 -0.38005,2.1063 -1.1401,2.4176 -0.11906,0.04579 -0.88373,0.11906 -2.294,0.21979 -0.91578,0.0641 -1.4881,0.44415 -1.7171,1.1401 0.32968,-0.0092 0.87456,-0.04579 1.6347,-0.10989 0.69599,-0.0641 1.2409,-0.09616 1.6347,-0.09616 0.63188,2e-6 1.1951,0.06868 1.6896,0.20605 l -0.28847,1.9643 c -0.41211,-0.09158 -0.91578,-0.13737 -1.511,-0.13737 -0.39379,0 -0.97988,0.02748 -1.7583,0.08243 -0.76925,0.05495 -1.3508,0.08242 -1.7446,0.08242 -0.35715,0 -0.61815,-0.2381 -0.78299,-0.7143 -0.11905,-0.33884 -0.17857,-0.7372 -0.17858,-1.1951 10e-7,-1.218 0.3251,-2.0468 0.9753,-2.4863 0.4121,-0.27473 1.1218,-0.43957 2.1292,-0.49452 1.0531,-0.05494 1.7583,-0.18315 2.1154,-0.38463 0.04578,-0.49451 -0.42126,-0.74177 -1.4011,-0.74178 -0.46705,6e-6 -1.0531,0.06411 -1.7583,0.19231 -0.76009,0.13737 -1.3279,0.29763 -1.7033,0.48078 l -0.234,-1.894 c 1.0715,-0.52198 2.2299,-0.78298 3.4754,-0.78299 0.83335,7e-6 1.4973,0.16027 1.9918,0.48078 0.57693,0.38463 0.8654,0.97531 0.86541,1.772"
       id="path57"
       inkscape:connector-curvature="0"
       style="fill:#c2dca8" />
    <path
       d="m 30.75,40.762 c 3.5655,-4.6349 7.2759,-9.1691 11.032,-13.637 1.4523,-2.114 3.2524,-7.7616 5.3496,-6.723 -0.30667,3.9345 -2.2219,7.5344 -2.567,11.478 -0.78049,4.2207 -1.4708,8.4667 -1.7736,12.752 1.6566,4.2423 5.7142,-0.80578 6.5531,-3.1802 4.2349,-7.1338 5.1719,-15.981 10.799,-22.326 3.8254,-5.7756 6.7818,-12.114 11.072,-17.582 2.6489,3.8253 -1.2624,7.941 -0.79292,11.979 -2.1394,13.456 -3.8054,27.038 -7.4613,40.193 -0.77378,4.3024 4.9334,4.5126 5.8106,0.78048 9.8435,-11.151 14.794,-25.452 19.638,-39.246 1.2771,-2.8564 0.71591,-6.6945 3.4738,-8.7559 1.5193,4.5401 0.50056,9.4008 0.49291,14.073 -0.72953,6.871 -2.9793,13.459 -4.112,20.261 -0.1552,0.64871 -0.32439,1.2942 -0.51365,1.9338"
       transform="matrix(0.67476,0,0,0.67476,5,25.724)"
       id="path59"
       style="fill:none;stroke:url(#linearGradient3950);stroke-width:11.85599995;stroke-linecap:round;stroke-linejoin:round;stroke-opacity:0.29100001;filter:url(#filter4005)"
       inkscape:connector-curvature="0" />
    <path
       d="m 43.75,46.75 0,0 c 0,12.264 1.3737,-7.7396 2,-12.75 1.4665,-11.732 4.5675,-30.567 12.75,-38.75 1.6274,-1.6274 0.5108,7.946 -1,15.5 -0.15104,0.75521 -10.947,53.376 -2,32.5 5.8045,-13.544 14.533,-25.066 21,-38 0.48448,-0.96896 0,2.1667 0,3.25 0,12.619 -0.64114,27.665 0.25,39.25 0.24277,3.156 1.1487,-5.7974 3.5,-10.5 C 80.55551,36.63898 94,5.056 94,19.25 l 0,27"
       transform="matrix(0.67476,0,0,0.67476,5,25.724)"
       id="path61"
       style="opacity:0.2;fill:none;stroke:url(#linearGradient5169-4);stroke-width:11.85599995;stroke-linecap:round;stroke-linejoin:round;filter:url(#filter4005)"
       inkscape:connector-curvature="0" />
  </g>
</svg>
