<?xml version="1.0" encoding="UTF-8" standalone="no"?>
<svg
   xmlns:dc="http://purl.org/dc/elements/1.1/"
   xmlns:cc="http://creativecommons.org/ns#"
   xmlns:rdf="http://www.w3.org/1999/02/22-rdf-syntax-ns#"
   xmlns:svg="http://www.w3.org/2000/svg"
   xmlns="http://www.w3.org/2000/svg"
   xmlns:xlink="http://www.w3.org/1999/xlink"
   xmlns:sodipodi="http://sodipodi.sourceforge.net/DTD/sodipodi-0.dtd"
   xmlns:inkscape="http://www.inkscape.org/namespaces/inkscape"
   width="96"
   height="96"
   id="svg2"
   version="1.1"
   inkscape:version="0.91 r13725"
   sodipodi:docname="applications-development.svg">
  <metadata
     id="metadata56">
    <rdf:RDF>
      <cc:Work
         rdf:about="">
        <dc:format>image/svg+xml</dc:format>
        <dc:type
           rdf:resource="http://purl.org/dc/dcmitype/StillImage" />
      </cc:Work>
    </rdf:RDF>
  </metadata>
  <sodipodi:namedview
     pagecolor="#ffffff"
     bordercolor="#666666"
     borderopacity="1"
     objecttolerance="10"
     gridtolerance="10"
     guidetolerance="10"
     inkscape:pageopacity="0"
     inkscape:pageshadow="2"
     inkscape:window-width="1366"
     inkscape:window-height="716"
     id="namedview54"
     showgrid="false"
     inkscape:zoom="2.4583333"
     inkscape:cx="-78.101695"
     inkscape:cy="47.999998"
     inkscape:window-x="0"
     inkscape:window-y="24"
     inkscape:window-maximized="1"
     inkscape:current-layer="svg2" />
  <defs
     id="defs4">
    <linearGradient
       id="linearGradient4706"
       gradientUnits="userSpaceOnUse"
       y1="90"
       gradientTransform="matrix(1.092 0 0 1.063 -2.993 -3.225)"
       x2="0"
       y2="5.988">
      <stop
         stop-color="#d18c1d"
         offset="0"
         id="stop24" />
      <stop
         stop-color="#ffcf0f"
         offset="1"
         id="stop26" />
    </linearGradient>
    <linearGradient
       gradientUnits="userSpaceOnUse"
       y2="8.9491787"
       x2="61.101692"
       y1="84.610191"
       x1="54.423729"
       id="linearGradient4167"
       xlink:href="#linearGradient4706"
       inkscape:collect="always"
       gradientTransform="translate(0,-2.29e-5)" />
  </defs>
  <rect
     rx="11"
     y="5.5"
     x="5.5"
     height="85"
     width="85"
     id="rect4244"
     style="opacity:1;fill:url(#linearGradient4167);fill-opacity:1;stroke:#000000;stroke-width:1;stroke-linecap:butt;stroke-linejoin:miter;stroke-miterlimit:4;stroke-dasharray:none;stroke-dashoffset:0;stroke-opacity:0.04705882" />
  <path
     d="m 18.563563,10.762132 c -1.065,0 -2.091,0.151601 -3.072,0.412201 l -5.4671,11.438 11.473,0 5.662,-11.850001 -8.596,2e-4 z m 15.766,0 -5.662,11.850001 11.47,0 5.664,-11.850001 -11.472,2e-4 z m 20.076,0 -5.664,11.850001 11.472,0 5.662,-11.850001 -11.47,2e-4 z m 20.076,0 -5.664,11.850001 11.471,0 4.931,-10.318 c -1.726,-0.9726 -3.715,-1.531801 -5.844,-1.531801 l -4.894,0 z"
     id="path52"
     style="opacity:1;fill:#1a1a1a;fill-rule:evenodd;stroke:#000000;stroke-opacity:0.04705882"
     inkscape:connector-curvature="0" />
  <path
     style="fill:#1a1a1a;stroke:#000000;stroke-opacity:0.04705882"
     inkscape:connector-curvature="0"
     id="path48"
     d="m 35.074122,86.152355 c -0.79265,-0.07539 -1.8141,-0.39406 -2.0982,-0.67554 l 0.009,-11.63 -0.93814,-3.6951 -0.93814,-3.6951 -5.1797,9.0229 c -2.8489,4.9626 -5.4581,9.3129 -5.7984,9.6674 -0.86375,0.89982 -1.3658,0.85948 -2.855,-0.22936 -1.2752,-0.93239 -1.5612,-1.3962 -1.3949,-2.2626 0.14983,-0.78064 0.0198,-0.54339 6.0968,-11.122 3.0117,-5.2429 5.5079,-9.6986 5.5471,-9.9017 0.061,-0.31595 -0.19657,-0.5109 -1.7845,-1.3507 -1.8336,-0.96981 -1.8587,-0.97725 -2.1078,-0.62502 -0.44244,0.62563 -1.0767,0.44356 -2.3147,-0.66443 -1.6988,-1.5204 -1.7577,-1.2758 1.9874,-8.2598 1.698,-3.1666 3.2747,-5.9508 3.5037,-6.1871 l 0.41632,-0.42966 7.4387,-0.04987 7.4387,-0.04987 -0.25392,-0.80946 c -0.5915,-1.8856 0.01,-4.1966 1.4484,-5.5693 2.4415,-2.3292 6.364,-1.5557 7.9025,1.5585 0.57991,1.1738 0.63589,3.0555 0.13056,4.3884 -0.76105,2.0074 -2.5339,3.2258 -4.6934,3.2258 -1.1372,0 -1.1938,0.01883 -1.1165,0.37153 0.0448,0.20434 0.32776,4.6639 0.6289,9.91 0.41215,7.18 0.50256,9.7074 0.36566,10.221 -0.10003,0.37562 -0.15608,0.72364 -0.12456,0.77339 1.574,0.88863 3.1906,1.8015 4.9048,2.3148 1.3362,-1.8775 3.7973,-4.7292 4.2752,-4.9538 3.318,-0.46209 6.8529,-0.48897 10.16,0.0229 5.6574,6.5601 11.184,13.765 16.197,20.845 l -41.234,0.08249 8.7135,-13.735 c -0.0357,-0.02979 -2.8298,-1.4995 -6.2091,-3.266 -5.4967,-2.8734 -6.6195,-3.3664 -6.6059,-2.9006 0.002,0.07386 0.42578,1.8724 0.9414,3.9968 l 1.19,3.8625 0.0191,5.6271 c 0.0184,5.4432 0.007,5.6385 -0.33406,5.9768 -0.37544,0.37185 -1.1343,0.40383 -3.3339,0.19464 z m 6.7209,-24.808 c -0.126,-2.387 -0.27701,-4.518 -0.33557,-4.7357 -0.0826,-0.30718 -0.47145,0.42387 -1.7367,3.2654 -0.89663,2.0137 -1.656,3.711 -1.6874,3.7719 -0.0608,0.11785 3.795,2.1741 3.9168,2.0888 0.0396,-0.02773 -0.0311,-2.0034 -0.15715,-4.3904 z m -11.16,-6.8789 c 1.0685,-2.3846 1.9954,-4.4737 2.0598,-4.6425 0.10863,-0.28444 -0.0188,-0.30322 -1.7489,-0.2578 l -1.866,0.04899 -1.971,3.6822 c -1.084,2.0252 -1.9355,3.7173 -1.8922,3.7602 0.11052,0.10946 3.2829,1.7412 3.3888,1.743 0.0477,8.18e-4 0.96095,-1.9495 2.0294,-4.3342 z" />
  <path
     style="opacity:1;fill:#1a1a1a;fill-opacity:1;stroke:#000000;stroke-width:1;stroke-linecap:butt;stroke-linejoin:miter;stroke-miterlimit:4;stroke-dasharray:none;stroke-dashoffset:0;stroke-opacity:0.04705882"
     d="m 18.697674,8.465116 c -5.668837,0 -10.2325578,4.563721 -10.2325578,10.232558 l 0,58.604652 c 0,5.668837 4.5637208,10.232558 10.2325578,10.232558 l 58.604652,0 c 5.668837,0 10.232558,-4.563721 10.232558,-10.232558 l 0,-58.604652 c 0,-5.668837 -4.563721,-10.232558 -10.232558,-10.232558 l -58.604652,0 z m 2.043969,2.757995 54.516714,0 c 5.273338,0 9.518532,4.245194 9.518532,9.518532 l 0,54.516714 c 0,5.273338 -4.245194,9.518532 -9.518532,9.518532 l -54.516714,0 c -5.273338,0 -9.518533,-4.245194 -9.518533,-9.518532 l 0,-54.516714 c 0,-5.273338 4.245195,-9.518532 9.518533,-9.518532 z"
     id="rect4449"
     inkscape:connector-curvature="0" />
</svg>
