<?xml version="1.0" encoding="UTF-8" standalone="no"?>
<svg
   xmlns:dc="http://purl.org/dc/elements/1.1/"
   xmlns:cc="http://creativecommons.org/ns#"
   xmlns:rdf="http://www.w3.org/1999/02/22-rdf-syntax-ns#"
   xmlns:svg="http://www.w3.org/2000/svg"
   xmlns="http://www.w3.org/2000/svg"
   xmlns:xlink="http://www.w3.org/1999/xlink"
   xmlns:sodipodi="http://sodipodi.sourceforge.net/DTD/sodipodi-0.dtd"
   xmlns:inkscape="http://www.inkscape.org/namespaces/inkscape"
   id="svg2"
   height="96"
   width="96"
   version="1.1"
   inkscape:version="0.91 r13725"
   sodipodi:docname="folder-ubuntu.svg">
  <sodipodi:namedview
     pagecolor="#ffffff"
     bordercolor="#666666"
     borderopacity="1"
     objecttolerance="10"
     gridtolerance="10"
     guidetolerance="10"
     inkscape:pageopacity="0"
     inkscape:pageshadow="2"
     inkscape:window-width="1366"
     inkscape:window-height="747"
     id="namedview41"
     showgrid="false"
     inkscape:zoom="2.4583333"
     inkscape:cx="-55.112067"
     inkscape:cy="47.999999"
     inkscape:window-x="0"
     inkscape:window-y="21"
     inkscape:window-maximized="1"
     inkscape:current-layer="svg2" />
  <metadata
     id="metadata91">
    <rdf:RDF>
      <cc:Work
         rdf:about="">
        <dc:format>image/svg+xml</dc:format>
        <dc:type
           rdf:resource="http://purl.org/dc/dcmitype/StillImage" />
      </cc:Work>
    </rdf:RDF>
  </metadata>
  <defs
     id="defs4">
    <linearGradient
       inkscape:collect="always"
       xlink:href="#linearGradient4152"
       id="linearGradient4158"
       x1="58.132698"
       y1="88.421516"
       x2="62.039108"
       y2="23.415632"
       gradientUnits="userSpaceOnUse" />
    <linearGradient
       inkscape:collect="always"
       id="linearGradient4152">
      <stop
         style="stop-color:#4aaee8;stop-opacity:1;"
         offset="0"
         id="stop4154" />
      <stop
         style="stop-color:#67e4ec;stop-opacity:1"
         offset="1"
         id="stop4156" />
    </linearGradient>
  </defs>
  <rect
     id="rect4302-5"
     style="color:#000000;fill:#ececec;stroke:#000000;stroke-opacity:0.12000002"
     height="21.006001"
     width="57.168716"
     y="14.873"
     x="27.038284" />
  <rect
     id="rect14348-1"
     style="color:#000000;fill:#ffffff;stroke:#000000;stroke-opacity:0.12000002"
     width="68.818001"
     y="20.675621"
     x="13.956626"
     height="21.006001" />
  <path
     style="fill:url(#linearGradient4158);fill-opacity:1"
     d="m 40.557691,24.394531 -8.765625,13.447266 -26.2968753,0 0,38.042969 c 1.0284432,5.608039 5.9089503,9.832031 11.8242193,9.832031 l 61.048828,0 c 6.6675,0 12.033203,-5.36315 12.033203,-12.03125 0.178066,-3.947447 0.09375,-38.160113 0.09375,-49.291016 z"
     id="path4304"
     inkscape:connector-curvature="0"
     sodipodi:nodetypes="ccccssccc" />
  <path
     id="path4323"
     d="m 40.5625,24.394531 -8.765625,13.447266 -26.296875,0 0,38.042969 c 1.0284432,5.608039 5.90895,9.832031 11.824219,9.832031 l 61.048828,0 c 6.6675,0 12.033203,-5.36315 12.033203,-12.03125 C 90.581554,58.281659 90.405725,34.242705 90.5,24.394531 Z"
     style="fill:none;fill-opacity:1;stroke:#000000;stroke-width:2;stroke-miterlimit:4;stroke-dasharray:none;stroke-opacity:0.12182743"
     inkscape:connector-curvature="0"
     sodipodi:nodetypes="ccccssccc" />
  <path
     id="path79"
     style="fill:#ffffff;stroke:#000000;stroke-opacity:0.12"
     d="m 56.998626,40.055664 c -1.678286,0 -3.0372,1.360286 -3.0372,3.037114 0,1.676915 1.358914,3.037115 3.0372,3.037115 1.678285,0 3.0372,-1.360286 3.0372,-3.037115 0,-1.676914 -1.358915,-3.037114 -3.0372,-3.037114 z m -6.414172,2.378743 c -1.873114,2.42e-4 -3.772028,0.472963 -5.479714,1.316828 -0.06073,0.03012 -0.0986,0.08357 -0.116812,0.148672 -0.01846,0.0651 -0.01471,0.133826 0.02124,0.191151 l 2.463772,3.897343 c 0.06243,0.0991 0.189257,0.141 0.297351,0.09557 0.911915,-0.385483 1.858115,-0.573446 2.814257,-0.573446 3.516858,0 6.584915,2.605971 7.136486,6.063686 0.01845,0.116108 0.116306,0.201771 0.233632,0.201771 l 4.6302,0 c 0.06752,0 0.135111,-0.0243 0.180531,-0.07433 0.04542,-0.05003 0.07003,-0.113006 0.06372,-0.180532 -0.249711,-2.565514 -1.346571,-5.049514 -3.079714,-6.977143 -0.07822,-0.08745 -0.209109,-0.09574 -0.307972,-0.03187 -0.698863,0.451311 -1.491771,0.690291 -2.293885,0.690291 -2.339915,0 -4.237029,-1.900971 -4.2372,-4.226571 2.42e-4,-0.0012 0,-0.08107 0,-0.08495 0,-0.115868 -0.08688,-0.224331 -0.201772,-0.244243 -0.731614,-0.126788 -1.4418,-0.212382 -2.123914,-0.212382 z m -7.433571,2.548628 c -0.03207,0.0079 -0.06922,0.02196 -0.09557,0.04248 -2.008371,1.5468 -3.514457,3.722143 -4.247914,6.127458 -0.02866,0.09401 -0.0031,0.193654 0.07434,0.254862 1.009286,0.799406 1.614171,2.029886 1.614171,3.292029 0,1.262143 -0.604654,2.492571 -1.614171,3.292029 -0.07701,0.06097 -0.103003,0.16062 -0.07434,0.254862 0.727491,2.385086 2.2218,4.552115 4.205314,6.095572 0.0532,0.04154 0.113975,0.06476 0.180532,0.0531 0.06632,-0.01143 0.123103,-0.06022 0.1593,-0.116812 l 2.484943,-3.886714 c 0.0634,-0.09934 0.04618,-0.229988 -0.04248,-0.307963 -1.556829,-1.369714 -2.453143,-3.333685 -2.453143,-5.384057 0,-2.065628 0.901285,-4.035 2.4744,-5.405314 0.08866,-0.07749 0.116014,-0.208132 0.05311,-0.307963 L 43.4056,45.089261 c -0.03595,-0.05685 -0.09298,-0.09453 -0.1593,-0.106191 -0.03316,-0.0058 -0.06351,-0.0079 -0.09557,0 z m -6.849598,6.669343 c -1.717543,0 -3.111514,1.395172 -3.111514,3.111515 0,1.716342 1.393971,3.100885 3.111514,3.100885 1.717543,0 3.111512,-1.384543 3.111512,-3.100885 0,-1.716343 -1.393969,-3.111515 -3.111512,-3.111515 z m 26.283426,4.014172 -4.6302,0.01062 c -0.116837,2.42e-4 -0.225548,0.08663 -0.244251,0.201771 -0.558926,3.432 -3.618686,6.021257 -7.125686,6.021257 -0.9672,0 -1.924028,-0.199731 -2.846057,-0.594685 -0.107846,-0.04591 -0.233949,-0.01342 -0.297351,0.08495 l -2.484943,3.897343 c -0.0362,0.05709 -0.03921,0.125811 -0.02124,0.191151 0.01797,0.0651 0.05634,0.118552 0.11682,0.148672 1.720971,0.861514 3.638143,1.316828 5.532771,1.316828 0.702729,0 1.4364,-0.07035 2.176972,-0.201771 0.103962,-0.01821 0.178765,-0.09708 0.191151,-0.201772 0.246789,-2.131457 2.049429,-3.738 4.194771,-3.738 0.665092,0 1.349572,0.167863 1.964658,0.488486 0.09351,0.04882 0.20202,0.03307 0.276111,-0.04248 1.939629,-1.977943 3.165857,-4.585714 3.440829,-7.327543 0.0068,-0.06729 -0.01804,-0.130251 -0.06372,-0.180531 -0.04568,-0.05029 -0.113006,-0.07458 -0.180532,-0.07433 z m -5.4696,8.2086 c -1.717543,0 -3.111514,1.382743 -3.111514,3.090257 0,1.707514 1.393971,3.090257 3.111514,3.090257 1.717543,0 3.111515,-1.382743 3.111515,-3.090257 0,-1.707514 -1.393972,-3.090257 -3.111515,-3.090257 z"
     inkscape:connector-curvature="0" />
</svg>
