<?xml version="1.0" encoding="UTF-8" standalone="no"?>
<svg
   xmlns:dc="http://purl.org/dc/elements/1.1/"
   xmlns:cc="http://creativecommons.org/ns#"
   xmlns:rdf="http://www.w3.org/1999/02/22-rdf-syntax-ns#"
   xmlns:svg="http://www.w3.org/2000/svg"
   xmlns="http://www.w3.org/2000/svg"
   xmlns:xlink="http://www.w3.org/1999/xlink"
   xmlns:sodipodi="http://sodipodi.sourceforge.net/DTD/sodipodi-0.dtd"
   xmlns:inkscape="http://www.inkscape.org/namespaces/inkscape"
   id="svg2"
   height="96"
   width="96"
   version="1.1"
   inkscape:version="0.91 r13725"
   sodipodi:docname="folder-wine.svg">
  <sodipodi:namedview
     pagecolor="#ffffff"
     bordercolor="#666666"
     borderopacity="1"
     objecttolerance="10"
     gridtolerance="10"
     guidetolerance="10"
     inkscape:pageopacity="0"
     inkscape:pageshadow="2"
     inkscape:window-width="1366"
     inkscape:window-height="747"
     id="namedview42"
     showgrid="false"
     inkscape:zoom="2.4583333"
     inkscape:cx="-18.508475"
     inkscape:cy="45.412585"
     inkscape:window-x="0"
     inkscape:window-y="21"
     inkscape:window-maximized="1"
     inkscape:current-layer="svg2" />
  <metadata
     id="metadata91">
    <rdf:RDF>
      <cc:Work
         rdf:about="">
        <dc:format>image/svg+xml</dc:format>
        <dc:type
           rdf:resource="http://purl.org/dc/dcmitype/StillImage" />
      </cc:Work>
    </rdf:RDF>
  </metadata>
  <defs
     id="defs4">
    <linearGradient
       inkscape:collect="always"
       xlink:href="#linearGradient4152"
       id="linearGradient4158"
       x1="58.132698"
       y1="88.421516"
       x2="62.039108"
       y2="23.415632"
       gradientUnits="userSpaceOnUse" />
    <linearGradient
       inkscape:collect="always"
       id="linearGradient4152">
      <stop
         style="stop-color:#4aaee8;stop-opacity:1;"
         offset="0"
         id="stop4154" />
      <stop
         style="stop-color:#67e4ec;stop-opacity:1"
         offset="1"
         id="stop4156" />
    </linearGradient>
  </defs>
  <rect
     id="rect4302-5"
     style="color:#000000;fill:#ececec;stroke:#000000;stroke-opacity:0.12000002"
     height="21.006001"
     width="57.168716"
     y="14.873"
     x="27.038284" />
  <rect
     id="rect14348-2"
     style="color:#000000;fill:#ffffff;stroke:#000000;stroke-opacity:0.12000002"
     width="68.818001"
     y="20.675621"
     x="13.956626"
     height="21.006001" />
  <path
     style="fill:url(#linearGradient4158);fill-opacity:1"
     d="m 40.557691,24.394531 -8.765625,13.447266 -26.2968753,0 0,38.042969 c 1.0284432,5.608039 5.9089503,9.832031 11.8242193,9.832031 l 61.048828,0 c 6.6675,0 12.033203,-5.36315 12.033203,-12.03125 0.178066,-3.947447 0.09375,-38.160113 0.09375,-49.291016 z"
     id="path4304"
     inkscape:connector-curvature="0"
     sodipodi:nodetypes="ccccssccc" />
  <path
     id="path4323"
     d="m 40.5625,24.394531 -8.765625,13.447266 -26.296875,0 0,38.042969 c 1.0284432,5.608039 5.90895,9.832031 11.824219,9.832031 l 61.048828,0 c 6.6675,0 12.033203,-5.36315 12.033203,-12.03125 C 90.581554,58.281659 90.405725,34.242705 90.5,24.394531 Z"
     style="fill:none;fill-opacity:1;stroke:#000000;stroke-width:2;stroke-miterlimit:4;stroke-dasharray:none;stroke-opacity:0.12182743"
     inkscape:connector-curvature="0"
     sodipodi:nodetypes="ccccssccc" />
  <path
     inkscape:connector-curvature="0"
     style="fill:#ffffff;stroke:#000000;stroke-opacity:0.12"
     d="m 44.651006,41.901349 c -1.477793,0.02267 -3.226527,0.394104 -5.410002,1.292137 l -2.890529,9.886237 c 2.314874,-0.950481 4.152494,-1.382393 5.683515,-1.370479 2.321389,0.01703 3.95021,0.959996 5.468631,1.977334 l 2.870557,-9.84681 c -1.576192,-1.060623 -3.25927,-1.975962 -5.722343,-1.938333 z m 7.226108,2.975814 -2.871072,9.905952 c 2.515359,1.696106 5.557687,3.087328 11.132517,0.606906 l 2.871415,-9.847667 c -5.814829,2.389703 -8.615101,1.020852 -11.132517,-0.665997 z m -10.585663,8.711101 c -1.476507,0.03572 -3.233899,0.420246 -5.410002,1.311765 l -0.03906,0 -2.832415,9.827952 c 5.826315,-2.395617 8.568558,-1.003109 11.093089,0.685248 l 2.910072,-9.94538 C 45.441056,54.406368 43.751379,53.52883 41.290619,53.588401 Z m 7.246079,2.858386 -2.851529,9.808238 c 2.519988,1.699363 5.293174,3.059471 11.112803,0.665645 l 2.773015,-9.572525 c -5.929599,2.016162 -8.51233,0.787248 -11.034803,-0.900595 z"
     id="path79" />
</svg>
