<?xml version="1.0" encoding="UTF-8" standalone="no"?>
<svg
   xmlns:dc="http://purl.org/dc/elements/1.1/"
   xmlns:cc="http://creativecommons.org/ns#"
   xmlns:rdf="http://www.w3.org/1999/02/22-rdf-syntax-ns#"
   xmlns:svg="http://www.w3.org/2000/svg"
   xmlns="http://www.w3.org/2000/svg"
   xmlns:xlink="http://www.w3.org/1999/xlink"
   xmlns:sodipodi="http://sodipodi.sourceforge.net/DTD/sodipodi-0.dtd"
   xmlns:inkscape="http://www.inkscape.org/namespaces/inkscape"
   id="svg2"
   height="96"
   width="96"
   version="1.1"
   inkscape:version="0.91 r13725"
   sodipodi:docname="user-trash.svg">
  <sodipodi:namedview
     pagecolor="#ffffff"
     bordercolor="#666666"
     borderopacity="1"
     objecttolerance="10"
     gridtolerance="10"
     guidetolerance="10"
     inkscape:pageopacity="0"
     inkscape:pageshadow="2"
     inkscape:window-width="1366"
     inkscape:window-height="747"
     id="namedview70"
     showgrid="false"
     inkscape:zoom="4.9166666"
     inkscape:cx="38.933233"
     inkscape:cy="45.255198"
     inkscape:window-x="0"
     inkscape:window-y="21"
     inkscape:window-maximized="1"
     inkscape:current-layer="svg2" />
  <metadata
     id="metadata82">
    <rdf:RDF>
      <cc:Work
         rdf:about="">
        <dc:format>image/svg+xml</dc:format>
        <dc:type
           rdf:resource="http://purl.org/dc/dcmitype/StillImage" />
      </cc:Work>
    </rdf:RDF>
  </metadata>
  <defs
     id="defs4">
    <linearGradient
       inkscape:collect="always"
       id="linearGradient4298">
      <stop
         style="stop-color:#00e57b;stop-opacity:1"
         offset="0"
         id="stop4300" />
      <stop
         style="stop-color:#00b22d;stop-opacity:1"
         offset="1"
         id="stop4302" />
    </linearGradient>
    <linearGradient
       inkscape:collect="always"
       id="linearGradient4270">
      <stop
         style="stop-color:#6c6c6c;stop-opacity:1"
         offset="0"
         id="stop4272" />
      <stop
         style="stop-color:#222222;stop-opacity:1"
         offset="1"
         id="stop4274" />
    </linearGradient>
    <linearGradient
       inkscape:collect="always"
       id="linearGradient4252">
      <stop
         style="stop-color:#b7b7b7;stop-opacity:1"
         offset="0"
         id="stop4254" />
      <stop
         style="stop-color:#eaeaea;stop-opacity:0.63137257"
         offset="1"
         id="stop4256" />
    </linearGradient>
    <linearGradient
       inkscape:collect="always"
       xlink:href="#linearGradient4252"
       id="linearGradient4258"
       x1="58.823376"
       y1="108.49582"
       x2="56.702049"
       y2="27.277178"
       gradientUnits="userSpaceOnUse"
       gradientTransform="matrix(0.93023256,0,0,0.93023256,3.3488369,3.3488374)" />
    <linearGradient
       inkscape:collect="always"
       xlink:href="#linearGradient4270"
       id="linearGradient4276"
       x1="37.481895"
       y1="7.6224279"
       x2="51.602859"
       y2="36.097004"
       gradientUnits="userSpaceOnUse" />
    <linearGradient
       inkscape:collect="always"
       xlink:href="#linearGradient4298"
       id="linearGradient4304"
       x1="47.870743"
       y1="43.345726"
       x2="53.05978"
       y2="69.583015"
       gradientUnits="userSpaceOnUse" />
  </defs>
  <path
     style="opacity:1;fill:url(#linearGradient4258);fill-opacity:1;stroke:#000000;stroke-width:0.93023258;stroke-linecap:square;stroke-linejoin:miter;stroke-miterlimit:4;stroke-dasharray:none;stroke-dashoffset:0;stroke-opacity:0.04705882"
     d="M 11.50654,17.58939 22.14971,81.452035 A 25.849672,6.0822753 0 0 0 48,87.534884 25.849672,6.0822753 0 0 0 73.85029,81.452035 l 10.64317,-63.862645 -36.49346,0 -36.49346,0 z"
     id="path4155"
     inkscape:connector-curvature="0" />
  <ellipse
     ry="9.123414"
     rx="36.493671"
     cy="17.58853"
     cx="48.000004"
     id="ellipse4157"
     style="opacity:1;fill:url(#linearGradient4276);fill-opacity:1;stroke:#000000;stroke-width:0.93023258;stroke-linecap:square;stroke-linejoin:miter;stroke-miterlimit:4;stroke-dasharray:none;stroke-dashoffset:0;stroke-opacity:0.04705882" />
  <path
     inkscape:connector-curvature="0"
     style="opacity:1;fill:#4d4d4d;fill-opacity:1;stroke:#000000;stroke-width:0.93023258;stroke-linecap:square;stroke-linejoin:miter;stroke-miterlimit:4;stroke-dasharray:none;stroke-dashoffset:0;stroke-opacity:0.04705882"
     d="M 73.739768,81.978129 A 27.370241,6.0822754 0 0 1 47.999981,86.014171 27.370241,6.0822754 0 0 1 22.272074,81.99001 25.849672,6.0822754 0 0 0 47.999981,87.53474 25.849672,6.0822754 0 0 0 73.739768,81.978129 Z"
     id="ellipse4163" />
  <path
     style="fill:url(#linearGradient4304);fill-opacity:1;stroke:#000000;stroke-width:0.93023258;stroke-miterlimit:4;stroke-dasharray:none;stroke-opacity:0.04705882"
     d="m 42.861598,40.397103 -3.485828,6.393536 5.577341,3.276066 3.04687,-5.389991 1.058666,1.875866 -0.981208,1.717467 5.680618,0 3.098524,-5.469168 -1.368528,0.793038 -1.781635,-3.196814 -9.708696,0 -0.929554,0 -0.20657,0 z m 15.15691,9.880475 -5.577325,3.302478 3.04687,5.416358 -2.117316,0 -0.981193,-1.743607 -2.840301,5.019597 3.09851,5.49494 0,-1.585345 3.614939,0 4.854341,-8.585726 0.464776,-0.819069 0.103399,-0.211664 -3.666578,-6.287962 z m -23.264704,1.955208 1.368511,0.792916 -1.807454,3.196647 4.854355,8.585892 0.438943,0.819343 0.129096,0.211146 7.152406,-0.105831 0,-6.604332 -6.119574,0 1.058666,-1.875745 1.9624,0 -2.840317,-5.020036 -6.197032,0 z"
     id="path3802"
     inkscape:connector-curvature="0" />
</svg>
