<?xml version="1.0" encoding="UTF-8" standalone="no"?>
<svg
   xmlns:dc="http://purl.org/dc/elements/1.1/"
   xmlns:cc="http://creativecommons.org/ns#"
   xmlns:rdf="http://www.w3.org/1999/02/22-rdf-syntax-ns#"
   xmlns:svg="http://www.w3.org/2000/svg"
   xmlns="http://www.w3.org/2000/svg"
   xmlns:xlink="http://www.w3.org/1999/xlink"
   xmlns:sodipodi="http://sodipodi.sourceforge.net/DTD/sodipodi-0.dtd"
   xmlns:inkscape="http://www.inkscape.org/namespaces/inkscape"
   id="svg2"
   height="96"
   width="96"
   version="1.1"
   inkscape:version="0.91 r13725"
   sodipodi:docname="user-home.svg">
  <sodipodi:namedview
     pagecolor="#ffffff"
     bordercolor="#666666"
     borderopacity="1"
     objecttolerance="10"
     gridtolerance="10"
     guidetolerance="10"
     inkscape:pageopacity="0"
     inkscape:pageshadow="2"
     inkscape:window-width="1366"
     inkscape:window-height="747"
     id="namedview42"
     showgrid="false"
     inkscape:zoom="2.4583333"
     inkscape:cx="-18.508475"
     inkscape:cy="47.999999"
     inkscape:window-x="0"
     inkscape:window-y="21"
     inkscape:window-maximized="1"
     inkscape:current-layer="svg2" />
  <metadata
     id="metadata93">
    <rdf:RDF>
      <cc:Work
         rdf:about="">
        <dc:format>image/svg+xml</dc:format>
        <dc:type
           rdf:resource="http://purl.org/dc/dcmitype/StillImage" />
      </cc:Work>
    </rdf:RDF>
  </metadata>
  <defs
     id="defs4">
    <linearGradient
       inkscape:collect="always"
       xlink:href="#linearGradient4152"
       id="linearGradient4158"
       x1="58.132698"
       y1="88.421516"
       x2="62.039108"
       y2="23.415632"
       gradientUnits="userSpaceOnUse" />
    <linearGradient
       inkscape:collect="always"
       id="linearGradient4152">
      <stop
         style="stop-color:#4aaee8;stop-opacity:1;"
         offset="0"
         id="stop4154" />
      <stop
         style="stop-color:#67e4ec;stop-opacity:1"
         offset="1"
         id="stop4156" />
    </linearGradient>
  </defs>
  <rect
     id="rect4302-2"
     style="color:#000000;fill:#ececec;stroke:#000000;stroke-opacity:0.12000002"
     height="21.006001"
     width="57.168716"
     y="14.873"
     x="27.038284" />
  <rect
     id="rect14348-4"
     style="color:#000000;fill:#ffffff;stroke:#000000;stroke-opacity:0.12000002"
     width="68.818001"
     y="20.675621"
     x="13.956626"
     height="21.006001" />
  <path
     style="fill:url(#linearGradient4158);fill-opacity:1"
     d="m 40.557691,24.394531 -8.765625,13.447266 -26.2968753,0 0,38.042969 c 1.0284432,5.608039 5.9089503,9.832031 11.8242193,9.832031 l 61.048828,0 c 6.6675,0 12.033203,-5.36315 12.033203,-12.03125 0.178066,-3.947447 0.09375,-38.160113 0.09375,-49.291016 z"
     id="path4304"
     inkscape:connector-curvature="0"
     sodipodi:nodetypes="ccccssccc" />
  <path
     id="path4323"
     d="m 40.5625,24.394531 -8.765625,13.447266 -26.296875,0 0,38.042969 c 1.0284432,5.608039 5.90895,9.832031 11.824219,9.832031 l 61.048828,0 c 6.6675,0 12.033203,-5.36315 12.033203,-12.03125 C 90.581554,58.281659 90.405725,34.242705 90.5,24.394531 Z"
     style="fill:none;fill-opacity:1;stroke:#000000;stroke-width:2;stroke-miterlimit:4;stroke-dasharray:none;stroke-opacity:0.12182743"
     inkscape:connector-curvature="0"
     sodipodi:nodetypes="ccccssccc" />
  <path
     inkscape:connector-curvature="0"
     d="m 48.009888,41.507527 -14.999914,14.999915 2.903212,2.903212 2.419358,-2.419358 0,11.612505 7.741927,0 0,-5.806424 c 0,-1.07228 0.863223,-1.935503 1.935503,-1.935503 1.07228,0 1.935503,0.863223 1.935503,1.935503 l 0,5.806424 7.741927,0 0,-11.612505 2.419358,2.419358 2.903212,-2.903212 L 48.01006,41.507527 Z m 5.806424,1.935503 0,1.451564 3.870921,3.87092 0,-5.322569 -3.870921,0 z"
     style="fill:#ffffff;stroke:#000000;stroke-opacity:0.12"
     id="path2998" />
</svg>
