<?xml version="1.0" encoding="UTF-8" standalone="no"?>
<svg
   xmlns:dc="http://purl.org/dc/elements/1.1/"
   xmlns:cc="http://creativecommons.org/ns#"
   xmlns:rdf="http://www.w3.org/1999/02/22-rdf-syntax-ns#"
   xmlns:svg="http://www.w3.org/2000/svg"
   xmlns="http://www.w3.org/2000/svg"
   xmlns:sodipodi="http://sodipodi.sourceforge.net/DTD/sodipodi-0.dtd"
   xmlns:inkscape="http://www.inkscape.org/namespaces/inkscape"
   height="24"
   width="24"
   version="1.1"
   viewBox="0 0 24 24"
   id="svg2"
   inkscape:version="0.91 r13725"
   sodipodi:docname="caps-lock-on.svg">
  <metadata
     id="metadata14">
    <rdf:RDF>
      <cc:Work
         rdf:about="">
        <dc:format>image/svg+xml</dc:format>
        <dc:type
           rdf:resource="http://purl.org/dc/dcmitype/StillImage" />
        <dc:title></dc:title>
      </cc:Work>
    </rdf:RDF>
  </metadata>
  <defs
     id="defs12" />
  <sodipodi:namedview
     pagecolor="#ffffff"
     bordercolor="#666666"
     borderopacity="1"
     objecttolerance="10"
     gridtolerance="10"
     guidetolerance="10"
     inkscape:pageopacity="0"
     inkscape:pageshadow="2"
     inkscape:window-width="1366"
     inkscape:window-height="716"
     id="namedview10"
     showgrid="false"
     inkscape:zoom="14.75"
     inkscape:cx="8"
     inkscape:cy="8"
     inkscape:window-x="0"
     inkscape:window-y="24"
     inkscape:window-maximized="1"
     inkscape:current-layer="svg2" />
  <g
     transform="matrix(0.8749463,0,0,0.8749463,4.8813571,-901.94649)"
     id="g4"
     style="fill:#bebebe">
    <path
       style="color:#000000;text-indent:0;text-decoration:none;text-decoration-line:none;text-decoration-style:solid;text-decoration-color:#000000;text-transform:none;block-progression:tb;white-space:normal;isolation:auto;mix-blend-mode:normal;solid-color:#000000;fill-rule:evenodd;color-rendering:auto;image-rendering:auto;shape-rendering:auto"
       d="m 3.0005,1036.4 a 2.0002,2.0002 0 0 0 -1.9883,1.7793 l -1,9 a 2.0002,2.0002 0 0 0 1.9883,2.2207 l 12,0 a 2.0002,2.0002 0 0 0 1.9883,-2.2207 l -1,-9 A 2.0002,2.0002 0 0 0 13.0005,1036.4 l -10,0 z m 3.8984,2.0391 2.3145,0 2.9102,8.9609 -1.9102,0 -0.60938,-2.125 -3.0762,0 -0.61719,2.125 -1.9102,0 2.8984,-8.9609 z m 1.166,1.2578 c -0.01628,0.089 -0.03792,0.1963 -0.06641,0.3183 -0.02441,0.1221 -0.05518,0.2523 -0.0918,0.3907 -0.03255,0.1342 -0.0669,0.2698 -0.10352,0.4082 -0.03662,0.1383 -0.07096,0.2685 -0.10352,0.3906 -0.03255,0.1221 -0.06331,0.2306 -0.0918,0.3242 -0.02441,0.094 -0.04248,0.1623 -0.05469,0.207 l -0.56836,1.9532 2.1797,0 -0.57422,-1.9532 c -0.024402,-0.073 -0.060535,-0.1925 -0.10936,-0.3593 -0.048828,-0.1669 -0.10319,-0.3514 -0.16016,-0.5508 -0.052897,-0.2035 -0.10352,-0.4059 -0.15234,-0.6094 -0.048828,-0.2034 -0.083171,-0.3771 -0.10352,-0.5195 z"
       id="path6"
       inkscape:connector-curvature="0" />
    <path
       style="color:#000000;text-indent:0;text-decoration:none;text-decoration-line:none;text-decoration-style:solid;text-decoration-color:#000000;text-transform:none;block-progression:tb;white-space:normal;isolation:auto;mix-blend-mode:normal;solid-color:#000000;color-rendering:auto;image-rendering:auto;shape-rendering:auto"
       d="m 4.7253e-4,1049.6 0,0.5469 c 0,1.2119 1.03809997,2.25 2.24999997,2.25 l 11.5000005,0 c 1.2119,0 2.25,-1.0381 2.25,-2.25 l 0,-0.5469 c -0.53161,0.4851 -1.2252,0.797 -2,0.7969 l -12.0000005,0 c -0.77456,10e-5 -1.46839997,-0.3119 -1.99999997,-0.7969 z"
       id="path8"
       inkscape:connector-curvature="0" />
  </g>
</svg>
