<?xml version="1.0" encoding="UTF-8" standalone="no"?>
<svg
   xmlns:dc="http://purl.org/dc/elements/1.1/"
   xmlns:cc="http://creativecommons.org/ns#"
   xmlns:rdf="http://www.w3.org/1999/02/22-rdf-syntax-ns#"
   xmlns:svg="http://www.w3.org/2000/svg"
   xmlns="http://www.w3.org/2000/svg"
   xmlns:sodipodi="http://sodipodi.sourceforge.net/DTD/sodipodi-0.dtd"
   xmlns:inkscape="http://www.inkscape.org/namespaces/inkscape"
   height="24"
   id="svg7384"
   version="1.1"
   width="24"
   inkscape:version="0.91 r13725"
   sodipodi:docname="changes-allow.svg">
  <sodipodi:namedview
     pagecolor="#ffffff"
     bordercolor="#666666"
     borderopacity="1"
     objecttolerance="10"
     gridtolerance="10"
     guidetolerance="10"
     inkscape:pageopacity="0"
     inkscape:pageshadow="2"
     inkscape:window-width="1366"
     inkscape:window-height="716"
     id="namedview17"
     showgrid="false"
     inkscape:snap-object-midpoints="true"
     inkscape:snap-center="true"
     inkscape:snap-bbox="true"
     inkscape:snap-bbox-midpoints="true"
     inkscape:snap-page="true"
     inkscape:zoom="14.75"
     inkscape:cx="8"
     inkscape:cy="8"
     inkscape:window-x="0"
     inkscape:window-y="24"
     inkscape:window-maximized="1"
     inkscape:current-layer="svg7384" />
  <metadata
     id="metadata90">
    <rdf:RDF>
      <cc:Work
         rdf:about="">
        <dc:format>image/svg+xml</dc:format>
        <dc:type
           rdf:resource="http://purl.org/dc/dcmitype/StillImage" />
        <dc:title>elementary Symbolic Icon Theme</dc:title>
      </cc:Work>
    </rdf:RDF>
  </metadata>
  <title
     id="title9167">elementary Symbolic Icon Theme</title>
  <defs
     id="defs7386" />
  <g
     id="layer9"
     style="display:inline"
     transform="matrix(0.875,0,0,0.875,-373.87959,478.1483)">
    <path
       d="m 446.0004,-536 0,-2 c 0,-1.99486 -1.96353,-4 -4,-4 l -2,0 c -2.01566,0 -4,2.02594 -4,4 l 2,0 c 0,-0.66713 0.80108,-2 2,-2 l 2,0 c 1.15731,0 2,1.17009 2,2 l 0,2 z"
       id="path14466"
       style="color:#bebebe;display:inline;overflow:visible;visibility:visible;fill:#bebebe;fill-opacity:1;fill-rule:nonzero;stroke:none;stroke-width:1;marker:none;enable-background:accumulate"
       inkscape:connector-curvature="0" />
    <path
       d="m 435.0004,-535 0,2.25 2.25,0 0,0.5 -2.25,0 0,1.25 0,0.25 2.25,0 0,0.5 -2.25,0 0,1.5 2.25,0 0,0.5 -2.25,0 0,0.25 0,0.5 c 0,0.831 0.669,1.5 1.5,1.5 l 9,0 c 0.831,0 1.5,-0.669 1.5,-1.5 l 0,-0.5 0,-0.25 -2.25,0 0,-0.5 2.25,0 0,-1.5 -2.25,0 0,-0.5 2.25,0 0,-0.25 0,-1.25 -2.25,0 0,-0.5 2.25,0 0,-2.25 z"
       id="path14468"
       style="color:#bebebe;display:inline;overflow:visible;visibility:visible;fill:#bebebe;fill-opacity:1;fill-rule:nonzero;stroke:none;stroke-width:1;marker:none;enable-background:accumulate"
       inkscape:connector-curvature="0" />
  </g>
  <g
     id="layer10"
     style="display:inline"
     transform="matrix(0.875,0,0,0.875,-373.87959,478.1483)" />
  <g
     id="layer11"
     transform="matrix(0.875,0,0,0.875,-373.87959,478.1483)" />
  <g
     id="layer13"
     style="display:inline"
     transform="matrix(0.875,0,0,0.875,-373.87959,478.1483)" />
  <g
     id="layer14"
     transform="matrix(0.875,0,0,0.875,-373.87959,478.1483)" />
  <g
     id="layer15"
     style="display:inline"
     transform="matrix(0.875,0,0,0.875,-373.87959,478.1483)" />
  <g
     id="g71291"
     style="display:inline"
     transform="matrix(0.875,0,0,0.875,-373.87959,478.1483)" />
  <g
     id="g4953"
     style="display:inline"
     transform="matrix(0.875,0,0,0.875,-373.87959,478.1483)" />
  <g
     id="layer12"
     style="display:inline"
     transform="matrix(0.875,0,0,0.875,-373.87959,478.1483)" />
</svg>
