<?xml version="1.0" encoding="UTF-8" standalone="no"?>
<svg
   xmlns:dc="http://purl.org/dc/elements/1.1/"
   xmlns:cc="http://creativecommons.org/ns#"
   xmlns:rdf="http://www.w3.org/1999/02/22-rdf-syntax-ns#"
   xmlns:svg="http://www.w3.org/2000/svg"
   xmlns="http://www.w3.org/2000/svg"
   xmlns:sodipodi="http://sodipodi.sourceforge.net/DTD/sodipodi-0.dtd"
   xmlns:inkscape="http://www.inkscape.org/namespaces/inkscape"
   height="24"
   id="svg7384"
   version="1.1"
   width="24"
   inkscape:version="0.91 r13725"
   sodipodi:docname="checkbox.svg">
  <sodipodi:namedview
     pagecolor="#ffffff"
     bordercolor="#666666"
     borderopacity="1"
     objecttolerance="10"
     gridtolerance="10"
     guidetolerance="10"
     inkscape:pageopacity="0"
     inkscape:pageshadow="2"
     inkscape:window-width="1366"
     inkscape:window-height="716"
     id="namedview16"
     showgrid="false"
     inkscape:zoom="14.75"
     inkscape:cx="8"
     inkscape:cy="8"
     inkscape:window-x="0"
     inkscape:window-y="24"
     inkscape:window-maximized="1"
     inkscape:current-layer="svg7384" />
  <metadata
     id="metadata90">
    <rdf:RDF>
      <cc:Work
         rdf:about="">
        <dc:format>image/svg+xml</dc:format>
        <dc:type
           rdf:resource="http://purl.org/dc/dcmitype/StillImage" />
        <dc:title>elementary Symbolic Icon Theme</dc:title>
      </cc:Work>
    </rdf:RDF>
  </metadata>
  <title
     id="title9167">elementary Symbolic Icon Theme</title>
  <defs
     id="defs7386" />
  <g
     id="layer9"
     style="display:inline"
     transform="matrix(0.99115044,0,0,0.99115044,-623.45808,461.56967)">
    <path
       d="m 636.4375,-461 c -1.37299,0 -2.5,1.1012 -2.5,2.46875 l 0,9.0625 c 0,1.36755 1.12701,2.46875 2.5,2.46875 l 9.125,0 c 1.37299,0 2.5,-1.1012 2.5,-2.46875 l 0,-9.0625 c 0,-1.36755 -1.12701,-2.46875 -2.5,-2.46875 l -9.125,0 z m 0,1 9.125,0 c 0.84376,0 1.5,0.64066 1.5,1.46875 l 0,9.0625 c 0,0.82809 -0.65624,1.46875 -1.5,1.46875 l -9.125,0 c -0.84376,0 -1.5,-0.64066 -1.5,-1.46875 l 0,-9.0625 c 0,-0.82809 0.65624,-1.46875 1.5,-1.46875 z"
       id="rect9618"
       style="color:#000000;font-style:normal;font-variant:normal;font-weight:normal;font-stretch:normal;font-size:medium;line-height:normal;font-family:Sans;-inkscape-font-specification:Sans;text-indent:0;text-align:start;text-decoration:none;text-decoration-line:none;letter-spacing:normal;word-spacing:normal;text-transform:none;direction:ltr;block-progression:tb;writing-mode:lr-tb;baseline-shift:baseline;text-anchor:start;display:inline;overflow:visible;visibility:visible;fill:#bebebe;fill-opacity:1;stroke:none;stroke-width:0.99556434;marker:none;enable-background:accumulate"
       inkscape:connector-curvature="0" />
  </g>
  <g
     id="layer10"
     style="display:inline"
     transform="matrix(0.99115044,0,0,0.99115044,-623.45808,461.56967)" />
  <g
     id="layer11"
     transform="matrix(0.99115044,0,0,0.99115044,-623.45808,461.56967)" />
  <g
     id="layer13"
     style="display:inline"
     transform="matrix(0.99115044,0,0,0.99115044,-623.45808,461.56967)" />
  <g
     id="layer14"
     transform="matrix(0.99115044,0,0,0.99115044,-623.45808,461.56967)" />
  <g
     id="layer15"
     style="display:inline"
     transform="matrix(0.99115044,0,0,0.99115044,-623.45808,461.56967)" />
  <g
     id="g71291"
     style="display:inline"
     transform="matrix(0.99115044,0,0,0.99115044,-623.45808,461.56967)" />
  <g
     id="g4953"
     style="display:inline"
     transform="matrix(0.99115044,0,0,0.99115044,-623.45808,461.56967)" />
  <g
     id="layer12"
     style="display:inline"
     transform="matrix(0.99115044,0,0,0.99115044,-623.45808,461.56967)" />
</svg>
