<?xml version="1.0" encoding="UTF-8" standalone="no"?>
<svg
   xmlns:dc="http://purl.org/dc/elements/1.1/"
   xmlns:cc="http://creativecommons.org/ns#"
   xmlns:rdf="http://www.w3.org/1999/02/22-rdf-syntax-ns#"
   xmlns:svg="http://www.w3.org/2000/svg"
   xmlns="http://www.w3.org/2000/svg"
   xmlns:sodipodi="http://sodipodi.sourceforge.net/DTD/sodipodi-0.dtd"
   xmlns:inkscape="http://www.inkscape.org/namespaces/inkscape"
   height="24"
   id="svg7384"
   version="1.1"
   width="24"
   inkscape:version="0.91 r13725"
   sodipodi:docname="checkbox-checked.svg">
  <sodipodi:namedview
     pagecolor="#ffffff"
     bordercolor="#666666"
     borderopacity="1"
     objecttolerance="10"
     gridtolerance="10"
     guidetolerance="10"
     inkscape:pageopacity="0"
     inkscape:pageshadow="2"
     inkscape:window-width="1366"
     inkscape:window-height="716"
     id="namedview18"
     showgrid="false"
     inkscape:zoom="14.75"
     inkscape:cx="8"
     inkscape:cy="8"
     inkscape:window-x="0"
     inkscape:window-y="24"
     inkscape:window-maximized="1"
     inkscape:current-layer="svg7384" />
  <metadata
     id="metadata90">
    <rdf:RDF>
      <cc:Work
         rdf:about="">
        <dc:format>image/svg+xml</dc:format>
        <dc:type
           rdf:resource="http://purl.org/dc/dcmitype/StillImage" />
        <dc:title>elementary Symbolic Icon Theme</dc:title>
      </cc:Work>
    </rdf:RDF>
  </metadata>
  <title
     id="title9167">elementary Symbolic Icon Theme</title>
  <defs
     id="defs7386" />
  <g
     id="layer9"
     label="status"
     style="display:inline"
     transform="translate(-629.27156,425.86441)">
    <path
       d="m 636.5004,-420.99998 c -1.37635,0 -2.5,1.12365 -2.5,2.5 l 0,9 c 0,1.37635 1.12365,2.5 2.5,2.5 l 9,0 c 1.37635,0 2.5,-1.12365 2.5,-2.5 l 0,-9 c 0,-1.37635 -1.12365,-2.5 -2.5,-2.5 l -9,0 z m 0,1 9,0 c 0.83965,0 1.5,0.66035 1.5,1.5 l 0,0.9375 0,8.0625 c 0,0.83965 -0.66035,1.5 -1.5,1.5 l -9,0 c -0.83965,0 -1.5,-0.66035 -1.5,-1.5 l 0,-3.625 0,-5.375 c 0,-0.83965 0.66035,-1.5 1.5,-1.5 z m -1.5,6.875 5.25,4.5 6.75,-8.9375 -2,-1.8125 -5.21875,6.59375 -3.0625,-2.65625 -1.71875,2.3125 z"
       id="rect6132-8-2-8-0-0-0-10-0-6-0-6-2-0-5-7-3-3-7-8-4-0-2-5-3-6-7-8-6"
       style="color:#000000;font-style:normal;font-variant:normal;font-weight:normal;font-stretch:normal;font-size:medium;line-height:normal;font-family:Sans;-inkscape-font-specification:Sans;text-indent:0;text-align:start;text-decoration:none;text-decoration-line:none;letter-spacing:normal;word-spacing:normal;text-transform:none;direction:ltr;block-progression:tb;writing-mode:lr-tb;baseline-shift:baseline;text-anchor:start;display:inline;overflow:visible;visibility:visible;fill:#bebebe;fill-opacity:1;stroke:none;stroke-width:0.99999988;marker:none;enable-background:accumulate"
       inkscape:connector-curvature="0" />
  </g>
  <g
     id="layer10"
     style="display:inline"
     transform="translate(-633.00037,430)" />
  <g
     id="layer13"
     style="display:inline"
     transform="translate(-633.00037,430)" />
  <g
     id="layer14"
     transform="translate(-633.00037,430)" />
  <g
     id="layer15"
     style="display:inline"
     transform="translate(-633.00037,430)" />
  <g
     id="g71291"
     style="display:inline"
     transform="translate(-633.00037,430)" />
  <g
     id="layer12"
     style="display:inline"
     transform="translate(-633.00037,430)" />
</svg>
