<?xml version="1.0" encoding="UTF-8" standalone="no"?>
<svg
   xmlns:dc="http://purl.org/dc/elements/1.1/"
   xmlns:cc="http://creativecommons.org/ns#"
   xmlns:rdf="http://www.w3.org/1999/02/22-rdf-syntax-ns#"
   xmlns:svg="http://www.w3.org/2000/svg"
   xmlns="http://www.w3.org/2000/svg"
   xmlns:sodipodi="http://sodipodi.sourceforge.net/DTD/sodipodi-0.dtd"
   xmlns:inkscape="http://www.inkscape.org/namespaces/inkscape"
   height="24"
   id="svg7384"
   version="1.1"
   width="24"
   inkscape:version="0.91 r13725"
   sodipodi:docname="content-loading.svg">
  <sodipodi:namedview
     pagecolor="#ffffff"
     bordercolor="#666666"
     borderopacity="1"
     objecttolerance="10"
     gridtolerance="10"
     guidetolerance="10"
     inkscape:pageopacity="0"
     inkscape:pageshadow="2"
     inkscape:window-width="1366"
     inkscape:window-height="716"
     id="namedview18"
     showgrid="false"
     inkscape:zoom="14.75"
     inkscape:cx="-3.0847458"
     inkscape:cy="8"
     inkscape:window-x="0"
     inkscape:window-y="24"
     inkscape:window-maximized="1"
     inkscape:current-layer="svg7384" />
  <metadata
     id="metadata90">
    <rdf:RDF>
      <cc:Work
         rdf:about="">
        <dc:format>image/svg+xml</dc:format>
        <dc:type
           rdf:resource="http://purl.org/dc/dcmitype/StillImage" />
        <dc:title>elementary Symbolic Icon Theme</dc:title>
      </cc:Work>
    </rdf:RDF>
  </metadata>
  <title
     id="title9167">elementary Symbolic Icon Theme</title>
  <defs
     id="defs7386" />
  <g
     id="layer9"
     style="display:inline"
     transform="translate(-409.0004,465.99998)">
    <path
       d="m 29,209 a 1,1 0 1 1 -2,0 1,1 0 1 1 2,0 z"
       id="path4955-1-2"
       style="display:inline;fill:#bebebe;fill-opacity:1;stroke:none"
       transform="matrix(2.000025,0,0,2.000025,359.99972,-872.0052)"
       inkscape:connector-curvature="0" />
    <path
       d="m 29,209 a 1,1 0 1 1 -2,0 1,1 0 1 1 2,0 z"
       id="path4957-2-4"
       style="display:inline;fill:#bebebe;fill-opacity:1;stroke:none"
       transform="matrix(2,0,0,2,365.00045,-872)"
       inkscape:connector-curvature="0" />
    <path
       d="m 29,209 a 1,1 0 1 1 -2,0 1,1 0 1 1 2,0 z"
       id="path4959-4-6"
       style="display:inline;fill:#bebebe;fill-opacity:1;stroke:none"
       transform="matrix(2,0,0,2,370.0004,-872)"
       inkscape:connector-curvature="0" />
  </g>
  <g
     id="layer10"
     style="display:inline"
     transform="translate(-409.20399,465.59323)" />
  <g
     id="layer11"
     transform="translate(-409.20399,465.59323)" />
  <g
     id="layer13"
     style="display:inline"
     transform="translate(-409.20399,465.59323)" />
  <g
     id="layer14"
     transform="translate(-409.20399,465.59323)" />
  <g
     id="layer15"
     style="display:inline"
     transform="translate(-409.20399,465.59323)" />
  <g
     id="g71291"
     style="display:inline"
     transform="translate(-409.20399,465.59323)" />
  <g
     id="g4953"
     style="display:inline"
     transform="translate(-409.20399,465.59323)" />
  <g
     id="layer12"
     style="display:inline"
     transform="translate(-409.20399,465.59323)" />
</svg>
