<?xml version="1.0" encoding="UTF-8" standalone="no"?>
<svg
   xmlns:dc="http://purl.org/dc/elements/1.1/"
   xmlns:cc="http://creativecommons.org/ns#"
   xmlns:rdf="http://www.w3.org/1999/02/22-rdf-syntax-ns#"
   xmlns:svg="http://www.w3.org/2000/svg"
   xmlns="http://www.w3.org/2000/svg"
   xmlns:sodipodi="http://sodipodi.sourceforge.net/DTD/sodipodi-0.dtd"
   xmlns:inkscape="http://www.inkscape.org/namespaces/inkscape"
   width="24"
   version="1.1"
   id="svg7384"
   height="24"
   inkscape:version="0.91 r13725"
   sodipodi:docname="mail-attachment.svg">
  <sodipodi:namedview
     pagecolor="#ffffff"
     bordercolor="#666666"
     borderopacity="1"
     objecttolerance="10"
     gridtolerance="10"
     guidetolerance="10"
     inkscape:pageopacity="0"
     inkscape:pageshadow="2"
     inkscape:window-width="1366"
     inkscape:window-height="716"
     id="namedview14"
     showgrid="false"
     inkscape:zoom="14.75"
     inkscape:cx="8"
     inkscape:cy="8"
     inkscape:window-x="0"
     inkscape:window-y="24"
     inkscape:window-maximized="1"
     inkscape:current-layer="svg7384" />
  <metadata
     id="metadata90">
    <rdf:RDF>
      <cc:Work
         rdf:about="">
        <dc:format>image/svg+xml</dc:format>
        <dc:type
           rdf:resource="http://purl.org/dc/dcmitype/StillImage" />
        <dc:title>elementary Symbolic Icon Theme</dc:title>
      </cc:Work>
    </rdf:RDF>
  </metadata>
  <title
     id="title9167">elementary Symbolic Icon Theme</title>
  <defs
     id="defs7386" />
  <g
     transform="matrix(0.99449928,0,0,0.99449928,-410.72307,427.76142)"
     style="display:inline"
     id="layer10" />
  <g
     transform="matrix(0.99449928,0,0,0.99449928,-410.72307,427.76142)"
     style="display:inline"
     id="layer13" />
  <g
     transform="matrix(0.99449928,0,0,0.99449928,-410.72307,427.76142)"
     id="layer14" />
  <g
     transform="matrix(0.99449928,0,0,0.99449928,-410.72307,427.76142)"
     style="display:inline"
     id="layer15" />
  <g
     transform="matrix(0.99449928,0,0,0.99449928,-410.72307,427.76142)"
     style="display:inline"
     id="g71291" />
  <g
     transform="matrix(0.99449928,0,0,0.99449928,-410.72307,427.76142)"
     style="display:inline"
     id="g4953" />
  <g
     transform="matrix(0.99449928,0,0,0.99449928,-410.72307,427.76142)"
     style="display:inline"
     id="layer12" />
  <path
     id="rect4246"
     d="m 6.0226536,13.054826 c -1.3635383,1.363538 -1.3635383,3.558982 0,4.92252 1.363538,1.363539 3.5589821,1.363539 4.9225204,0 l 0.351608,-0.351609 -0.703217,-0.703216 -0.351608,0.351608 c -0.9739561,0.973956 -2.5421305,0.973956 -3.5160863,0 -0.9739558,-0.973956 -0.9739558,-2.54213 0,-3.516086 L 13.758043,6.7258708 c 0.973956,-0.973956 2.54213,-0.973956 3.516086,0 0.973956,0.973956 0.973956,2.54213 0,3.5160862 l -0.708711,0.708711 -2.455767,2.455766 -0.206021,0.206021 -0.848805,0.848805 c -0.584373,0.584374 -1.525278,0.584374 -2.109651,0 -0.584374,-0.584373 -0.584374,-1.525278 0,-2.109652 L 12,11.296783 12.703217,10.593565 12,9.8903488 10.241957,11.648391 c -0.9739561,0.973956 -0.9739561,2.542131 0,3.516087 0.973955,0.973955 2.54213,0.973955 3.516086,0 l 0.848805,-0.848805 1.260846,-1.260847 2.109652,-2.109652 c 1.363539,-1.3635382 1.363539,-3.5589822 0,-4.9225202 -1.363538,-1.3635385 -3.558982,-1.3635385 -4.922521,0 L 6.0226536,13.054826 Z"
     style="color:#000000;clip-rule:nonzero;display:inline;overflow:visible;visibility:visible;opacity:1;isolation:auto;mix-blend-mode:normal;color-interpolation:sRGB;color-interpolation-filters:linearRGB;solid-color:#000000;solid-opacity:1;fill:#bebebe;fill-opacity:1;fill-rule:nonzero;stroke:none;stroke-width:1;stroke-linecap:butt;stroke-linejoin:miter;stroke-miterlimit:4;stroke-dasharray:none;stroke-dashoffset:0;stroke-opacity:1;marker:none;color-rendering:auto;image-rendering:auto;shape-rendering:auto;text-rendering:auto;enable-background:accumulate"
     inkscape:connector-curvature="0" />
</svg>
