<?xml version="1.0" encoding="UTF-8" standalone="no"?>
<svg
   xmlns:dc="http://purl.org/dc/elements/1.1/"
   xmlns:cc="http://creativecommons.org/ns#"
   xmlns:rdf="http://www.w3.org/1999/02/22-rdf-syntax-ns#"
   xmlns:svg="http://www.w3.org/2000/svg"
   xmlns="http://www.w3.org/2000/svg"
   xmlns:sodipodi="http://sodipodi.sourceforge.net/DTD/sodipodi-0.dtd"
   xmlns:inkscape="http://www.inkscape.org/namespaces/inkscape"
   width="24"
   version="1.1"
   id="svg7384"
   height="24"
   inkscape:version="0.91 r13725"
   sodipodi:docname="media-playlist-no-repeat-rtl.svg">
  <sodipodi:namedview
     pagecolor="#ffffff"
     bordercolor="#666666"
     borderopacity="1"
     objecttolerance="10"
     gridtolerance="10"
     guidetolerance="10"
     inkscape:pageopacity="0"
     inkscape:pageshadow="2"
     inkscape:window-width="1366"
     inkscape:window-height="716"
     id="namedview19"
     showgrid="false"
     inkscape:zoom="14.75"
     inkscape:cx="8.0000238"
     inkscape:cy="8"
     inkscape:window-x="0"
     inkscape:window-y="24"
     inkscape:window-maximized="1"
     inkscape:current-layer="svg7384" />
  <metadata
     id="metadata90">
    <rdf:RDF>
      <cc:Work
         rdf:about="">
        <dc:format>image/svg+xml</dc:format>
        <dc:type
           rdf:resource="http://purl.org/dc/dcmitype/StillImage" />
        <dc:title>elementary Symbolic Icon Theme</dc:title>
      </cc:Work>
    </rdf:RDF>
  </metadata>
  <title
     id="title9167">elementary Symbolic Icon Theme</title>
  <defs
     id="defs7386" />
  <g
     transform="matrix(0.875,0,0,0.875,-303.87518,426.75)"
     style="display:inline"
     label="status"
     id="layer9">
    <path
       style="color:#bebebe;display:inline;overflow:visible;visibility:visible;opacity:0.35;fill:#bebebe;fill-opacity:1;fill-rule:nonzero;stroke:none;stroke-width:1;marker:none;enable-background:accumulate"
       id="path7389"
       d="m 363.0002,-481 0,2 1,0 c 2.77,0 5,2.23 5,5 0,2.77 -2.23,5 -5,5 l 0,-2 c 1.662,0 3,-1.338 3,-3 0,-1.662 -1.338,-3 -3,-3 l -1,0 0,2 -4,-3 4,-3 z m -5,2 0,2 c -1.662,0 -3,1.338 -3,3 0,1.662 1.338,3 3,3 l 1,0 0,-2 4,3 -4,3 0,-2 -1,0 c -2.77,0 -5,-2.23 -5,-5 0,-2.77 2.23,-5 5,-5 z"
       inkscape:connector-curvature="0" />
  </g>
  <g
     transform="matrix(0.875,0,0,0.875,-308.87513,431.625)"
     style="display:inline"
     id="layer10" />
  <g
     transform="matrix(0.875,0,0,0.875,-308.87513,431.625)"
     style="display:inline"
     id="layer13" />
  <g
     transform="matrix(0.875,0,0,0.875,-308.87513,431.625)"
     id="layer14" />
  <g
     transform="matrix(0.875,0,0,0.875,-308.87513,431.625)"
     style="display:inline"
     id="layer15" />
  <g
     transform="matrix(0.875,0,0,0.875,-308.87513,431.625)"
     style="display:inline"
     id="g71291" />
  <g
     transform="matrix(0.875,0,0,0.875,-308.87513,431.625)"
     style="display:inline"
     id="g4953" />
  <g
     transform="matrix(0.875,0,0,0.875,-308.87513,431.625)"
     style="display:inline"
     id="layer12" />
</svg>
