<?xml version="1.0" encoding="UTF-8" standalone="no"?>
<!-- Created with Inkscape (http://www.inkscape.org/) -->

<svg
   xmlns:dc="http://purl.org/dc/elements/1.1/"
   xmlns:cc="http://creativecommons.org/ns#"
   xmlns:rdf="http://www.w3.org/1999/02/22-rdf-syntax-ns#"
   xmlns:svg="http://www.w3.org/2000/svg"
   xmlns="http://www.w3.org/2000/svg"
   xmlns:sodipodi="http://sodipodi.sourceforge.net/DTD/sodipodi-0.dtd"
   xmlns:inkscape="http://www.inkscape.org/namespaces/inkscape"
   id="svg7384"
   height="24"
   width="24"
   version="1.1"
   inkscape:version="0.91 r13725"
   sodipodi:docname="media-playlist-shuffle-rtl.svg">
  <defs
     id="defs16" />
  <sodipodi:namedview
     pagecolor="#ffffff"
     bordercolor="#666666"
     borderopacity="1"
     objecttolerance="10"
     gridtolerance="10"
     guidetolerance="10"
     inkscape:pageopacity="0"
     inkscape:pageshadow="2"
     inkscape:window-width="1366"
     inkscape:window-height="716"
     id="namedview14"
     showgrid="false"
     inkscape:zoom="14.75"
     inkscape:cx="8"
     inkscape:cy="8"
     inkscape:window-x="0"
     inkscape:window-y="24"
     inkscape:window-maximized="1"
     inkscape:current-layer="svg7384" />
  <metadata
     id="metadata90">
    <rdf:RDF>
      <cc:Work
         rdf:about="">
        <dc:format>image/svg+xml</dc:format>
        <dc:type
           rdf:resource="http://purl.org/dc/dcmitype/StillImage" />
        <dc:title>Gnome Symbolic Icon Theme</dc:title>
      </cc:Work>
    </rdf:RDF>
  </metadata>
  <title
     id="title9167">Gnome Symbolic Icon Theme</title>
  <g
     id="layer9"
     transform="matrix(0.97213784,0,0,0.97213784,-152.09626,-265.06398)">
    <path
       id="path5375"
       style="color:#bebebe;text-indent:0;text-transform:none;block-progression:tb;fill:#bebebe"
       d="m 173,280 c -1.6447,0 -3,1.3553 -3,3 l 0,4 c 0,0.5713 -0.4287,1 -1,1 l -6,0 0,2 6,0 c 1.6447,0 3,-1.3553 3,-3 l 0,-4 c 0,-0.5713 0.4287,-1 1,-1 l 3,0 0,-2 -3,0 z"
       inkscape:connector-curvature="0" />
    <path
       id="path5377"
       style="color:#bebebe;text-indent:0;text-transform:none;block-progression:tb;fill:#bebebe"
       d="m 164.88,286 a 1.0001,1.0001 0 0 0 -0.59375,0.28125 l -2,2 -0.6875,0.71875 0.6875,0.71875 2,2 a 1.0165,1.0165 0 1 0 1.4375,-1.4375 l -1.29,-1.28 1.2812,-1.2812 a 1.0001,1.0001 0 0 0 -0.84,-1.72 z"
       inkscape:connector-curvature="0" />
    <path
       id="path5379"
       style="color:#bebebe;text-indent:0;text-transform:none;block-progression:tb;fill:#bebebe"
       d="m 164.88,278 a 1.0001,1.0001 0 0 0 -0.59375,0.28125 l -2,2 -0.6875,0.71875 0.6875,0.71875 2,2 a 1.0165,1.0165 0 1 0 1.4375,-1.4375 l -1.29,-1.28 1.2812,-1.2812 a 1.0001,1.0001 0 0 0 -0.84,-1.72 z"
       inkscape:connector-curvature="0" />
    <path
       id="path5381"
       style="color:#bebebe;text-indent:0pt;text-transform:none;fill:#bebebe"
       d="m 169,280 c 0.22957,0 0.44085,0.0438 0.65625,0.0937 -0.4813,0.5511 -0.86125,1.1776 -1.0312,1.9062 l -5.625,0 0,-2 6,0 z m 7,8 0,2 -3,0 c -0.22957,0 -0.44085,-0.0438 -0.65625,-0.0937 0.4813,-0.55115 0.86125,-1.1777 1.0312,-1.9063 l 2.625,0 z"
       inkscape:connector-curvature="0" />
    <rect
       id="rect5383"
       style="color:#000000;fill:#bebebe"
       transform="scale(-1,1)"
       height="1"
       width="1"
       y="286"
       x="-166" />
    <rect
       id="rect5385"
       style="color:#000000;fill:#bebebe"
       transform="scale(-1,1)"
       height="1"
       width="1"
       y="291"
       x="-166" />
    <rect
       id="rect5387"
       style="color:#000000;fill:#bebebe"
       transform="scale(-1,1)"
       height="1"
       width="1"
       y="278"
       x="-166" />
    <rect
       id="rect5389"
       style="color:#000000;fill:#bebebe"
       transform="scale(-1,1)"
       height="1"
       width="1"
       y="283"
       x="-166" />
  </g>
</svg>
