<?xml version="1.0" encoding="UTF-8" standalone="no"?>
<!-- Created with Inkscape (http://www.inkscape.org/) -->

<svg
   xmlns:dc="http://purl.org/dc/elements/1.1/"
   xmlns:cc="http://creativecommons.org/ns#"
   xmlns:rdf="http://www.w3.org/1999/02/22-rdf-syntax-ns#"
   xmlns:svg="http://www.w3.org/2000/svg"
   xmlns="http://www.w3.org/2000/svg"
   xmlns:sodipodi="http://sodipodi.sourceforge.net/DTD/sodipodi-0.dtd"
   xmlns:inkscape="http://www.inkscape.org/namespaces/inkscape"
   id="svg7384"
   height="24"
   width="24"
   version="1.1"
   inkscape:version="0.91 r13725"
   sodipodi:docname="network-cellular-umts.svg">
  <defs
     id="defs9" />
  <sodipodi:namedview
     pagecolor="#ffffff"
     bordercolor="#666666"
     borderopacity="1"
     objecttolerance="10"
     gridtolerance="10"
     guidetolerance="10"
     inkscape:pageopacity="0"
     inkscape:pageshadow="2"
     inkscape:window-width="1366"
     inkscape:window-height="716"
     id="namedview7"
     showgrid="false"
     inkscape:zoom="14.75"
     inkscape:cx="8"
     inkscape:cy="8"
     inkscape:window-x="0"
     inkscape:window-y="24"
     inkscape:window-maximized="1"
     inkscape:current-layer="svg7384" />
  <title
     id="title9167">Gnome Symbolic Icon Theme</title>
  <metadata
     id="metadata90">
    <rdf:RDF>
      <cc:Work
         rdf:about="">
        <dc:format>image/svg+xml</dc:format>
        <dc:type
           rdf:resource="http://purl.org/dc/dcmitype/StillImage" />
        <dc:title>Gnome Symbolic Icon Theme</dc:title>
      </cc:Work>
    </rdf:RDF>
  </metadata>
  <g
     id="layer9"
     transform="matrix(0.875,0,0,0.875,-65.875,-202.37281)">
    <path
       id="rect7039"
       style="color:#bebebe;fill:#bebebe"
       d="M 83.062,237 C 81.912,237 81,237.91 81,239.06 l 0,11.875 c 0,1.15 0.912,2.06 2.062,2.06 l 11.875,0 c 1.151,0 2.063,-0.91 2.063,-2.06 L 97,239.06 C 97,237.91 96.088,237 94.938,237 l -11.875,0 z m 1.9375,3 2,0 0,8 c -3.6e-4,-4.5e-4 0.0315,1e-4 0.03125,0 l 3.9375,0 c 0.0068,-0.0193 0.02945,-0.016 0.03125,0 8.77e-4,0.008 0,-0.0554 0,-0.0312 l 0.001,-7.97 2,0 0,7.9688 c 0,0.56264 -0.22708,0.99957 -0.5625,1.375 -0.31592,0.35364 -0.85192,0.632 -1.4688,0.625 l 0,0.0312 -0.09375,0 -3.875,0 c -0.6248,0 -0.99413,-0.24118 -1.3438,-0.5625 -0.33108,-0.30424 -0.64399,-0.78976 -0.625,-1.4375 l -0.031,0 0,-0.09 0,-7.91 z"
       inkscape:connector-curvature="0" />
  </g>
</svg>
