<?xml version="1.0" encoding="UTF-8" standalone="no"?>
<!-- Created with Inkscape (http://www.inkscape.org/) -->

<svg
   xmlns:dc="http://purl.org/dc/elements/1.1/"
   xmlns:cc="http://creativecommons.org/ns#"
   xmlns:rdf="http://www.w3.org/1999/02/22-rdf-syntax-ns#"
   xmlns:svg="http://www.w3.org/2000/svg"
   xmlns="http://www.w3.org/2000/svg"
   xmlns:sodipodi="http://sodipodi.sourceforge.net/DTD/sodipodi-0.dtd"
   xmlns:inkscape="http://www.inkscape.org/namespaces/inkscape"
   id="svg7384"
   height="16"
   width="16"
   version="1.1"
   inkscape:version="0.91 r13725"
   sodipodi:docname="network-vpn-acquiring-symbolic.svg">
  <defs
     id="defs16" />
  <sodipodi:namedview
     pagecolor="#ffffff"
     bordercolor="#666666"
     borderopacity="1"
     objecttolerance="10"
     gridtolerance="10"
     guidetolerance="10"
     inkscape:pageopacity="0"
     inkscape:pageshadow="2"
     inkscape:window-width="640"
     inkscape:window-height="480"
     id="namedview14" />
  <metadata
     id="metadata90">
    <rdf:RDF>
      <cc:Work
         rdf:about="">
        <dc:format>image/svg+xml</dc:format>
        <dc:type
           rdf:resource="http://purl.org/dc/dcmitype/StillImage" />
        <dc:title>Gnome Symbolic Icon Theme</dc:title>
      </cc:Work>
    </rdf:RDF>
  </metadata>
  <title
     id="title9167">Gnome Symbolic Icon Theme</title>
  <g
     id="layer9"
     transform="translate(-241 -237)">
    <path
       id="path4998"
       style="opacity:.5;block-progression:tb;text-indent:0;color:#bebebe;text-transform:none;fill:#bebebe"
       d="m248 248.69v1.3125h2v-1.3125h-2z" />
    <path
       id="path5000"
       style="opacity:.5;block-progression:tb;text-indent:0;color:#bebebe;text-transform:none;fill:#bebebe"
       d="m243 250v2h12v-2h-12z" />
    <rect
       id="rect5002"
       style="opacity:.5;color:#bebebe;fill:#bebebe"
       ry="0"
       height="1.0094"
       width="8"
       y="242"
       x="245" />
    <path
       id="path5004"
       style="opacity:.5;block-progression:tb;text-indent:0;color:#bebebe;text-transform:none;fill:#bebebe"
       d="m249 238c-1.645 0-3 1.355-3 3v2h6v-2c0-1.645-1.355-3-3-3zm0 2c0.56413 0 1 0.43588 1 1v1h-2v-1c0-0.56412 0.43587-1 1-1z" />
    <rect
       id="rect10502"
       style="opacity:.5;color:#bebebe;fill:#bebebe"
       ry="0"
       height="1.0094"
       width="8"
       y="248"
       x="245" />
    <path
       id="path4955-1-1"
       style="fill:#bebebe"
       d="m29 209a1 1 0 1 1 -2 0 1 1 0 1 1 2 0z"
       transform="matrix(1.5 0 0 1.5 202.51 -68.004)" />
    <path
       id="path4957-2-6"
       style="fill:#bebebe"
       d="m29 209a1 1 0 1 1 -2 0 1 1 0 1 1 2 0z"
       transform="matrix(1.5 0 0 1.5 206.51 -68.004)" />
    <path
       id="path4959-4-4"
       style="fill:#bebebe"
       d="m29 209a1 1 0 1 1 -2 0 1 1 0 1 1 2 0z"
       transform="matrix(1.5 0 0 1.5 210.51 -68.004)" />
  </g>
</svg>
