<?xml version="1.0" encoding="UTF-8" standalone="no"?>
<!-- Created with Inkscape (http://www.inkscape.org/) -->

<svg
   xmlns:dc="http://purl.org/dc/elements/1.1/"
   xmlns:cc="http://creativecommons.org/ns#"
   xmlns:rdf="http://www.w3.org/1999/02/22-rdf-syntax-ns#"
   xmlns:svg="http://www.w3.org/2000/svg"
   xmlns="http://www.w3.org/2000/svg"
   xmlns:sodipodi="http://sodipodi.sourceforge.net/DTD/sodipodi-0.dtd"
   xmlns:inkscape="http://www.inkscape.org/namespaces/inkscape"
   id="svg7384"
   height="24"
   width="24"
   version="1.1"
   inkscape:version="0.91 r13725"
   sodipodi:docname="network-no-route.svg">
  <defs
     id="defs11" />
  <sodipodi:namedview
     pagecolor="#ffffff"
     bordercolor="#666666"
     borderopacity="1"
     objecttolerance="10"
     gridtolerance="10"
     guidetolerance="10"
     inkscape:pageopacity="0"
     inkscape:pageshadow="2"
     inkscape:window-width="1366"
     inkscape:window-height="716"
     id="namedview9"
     showgrid="false"
     inkscape:zoom="14.75"
     inkscape:cx="8"
     inkscape:cy="8"
     inkscape:window-x="0"
     inkscape:window-y="24"
     inkscape:window-maximized="1"
     inkscape:current-layer="svg7384" />
  <metadata
     id="metadata90">
    <rdf:RDF>
      <cc:Work
         rdf:about="">
        <dc:format>image/svg+xml</dc:format>
        <dc:type
           rdf:resource="http://purl.org/dc/dcmitype/StillImage" />
        <dc:title>Gnome Symbolic Icon Theme</dc:title>
      </cc:Work>
    </rdf:RDF>
  </metadata>
  <title
     id="title9167">Gnome Symbolic Icon Theme</title>
  <g
     id="layer9"
     transform="matrix(0.93340801,0,0,0.93340801,-108.81977,-216.68496)">
    <path
       id="path2063"
       style="color:#bebebe;text-indent:0;text-transform:none;block-progression:tb;fill:#bebebe"
       d="m 125.91,242 0,1 0,4 0,1 2,0 0,-1 0,-4 0,-1 -2,0 z"
       inkscape:connector-curvature="0" />
    <path
       id="path2065"
       style="color:#bebebe;text-indent:0;text-transform:none;block-progression:tb;fill:#bebebe"
       d="m 121.94,244 0,2 4.9688,0 0,-2 -4.9688,0 z"
       inkscape:connector-curvature="0" />
    <path
       id="path2069"
       style="color:#bebebe;text-indent:0;text-transform:none;block-progression:tb;opacity:0.5;fill:#bebebe"
       d="m 129.97,242 0,1 0,1 0,2 0,1 0,1 2,0 0,-1 0,-1 3.9688,0 1,0 0,-2 -1,0 -3.9688,0 0,-1 0,-1 -2,0 z"
       inkscape:connector-curvature="0" />
  </g>
</svg>
