<?xml version="1.0" encoding="UTF-8" standalone="no"?>
<svg
   xmlns:dc="http://purl.org/dc/elements/1.1/"
   xmlns:cc="http://creativecommons.org/ns#"
   xmlns:rdf="http://www.w3.org/1999/02/22-rdf-syntax-ns#"
   xmlns:svg="http://www.w3.org/2000/svg"
   xmlns="http://www.w3.org/2000/svg"
   xmlns:sodipodi="http://sodipodi.sourceforge.net/DTD/sodipodi-0.dtd"
   xmlns:inkscape="http://www.inkscape.org/namespaces/inkscape"
   id="svg3778"
   height="24"
   width="24"
   version="1.1"
   inkscape:version="0.91 r13725"
   sodipodi:docname="network-cellular-signal-weak.svg">
  <sodipodi:namedview
     pagecolor="#ffffff"
     bordercolor="#666666"
     borderopacity="1"
     objecttolerance="10"
     gridtolerance="10"
     guidetolerance="10"
     inkscape:pageopacity="0"
     inkscape:pageshadow="2"
     inkscape:window-width="1366"
     inkscape:window-height="716"
     id="namedview7"
     showgrid="false"
     inkscape:zoom="9.8333333"
     inkscape:cx="12"
     inkscape:cy="12"
     inkscape:window-x="0"
     inkscape:window-y="24"
     inkscape:window-maximized="1"
     inkscape:current-layer="svg3778" />
  <defs
     id="defs3780" />
  <metadata
     id="metadata3783">
    <rdf:RDF>
      <cc:Work
         rdf:about="">
        <dc:format>image/svg+xml</dc:format>
        <dc:type
           rdf:resource="http://purl.org/dc/dcmitype/StillImage" />
        <dc:title></dc:title>
      </cc:Work>
    </rdf:RDF>
  </metadata>
  <g
     id="g7424"
     transform="translate(4,-4)">
    <path
       inkscape:connector-curvature="0"
       style="color:#000000;clip-rule:nonzero;display:inline;overflow:visible;visibility:visible;isolation:auto;mix-blend-mode:normal;color-interpolation:sRGB;color-interpolation-filters:linearRGB;solid-color:#000000;solid-opacity:1;fill:#bebebe;fill-opacity:1;fill-rule:nonzero;stroke:none;stroke-width:1;stroke-linecap:butt;stroke-linejoin:miter;stroke-miterlimit:4;stroke-dasharray:none;stroke-dashoffset:0;stroke-opacity:1;marker:none;color-rendering:auto;image-rendering:auto;shape-rendering:auto;text-rendering:auto;enable-background:accumulate"
       d="M 1.3125,14.666667 1,15.333333 l 2,2 L 3,20 l 0.6666667,0 0,-2.666667 2,-2 -0.25,-0.666666 z m 0.6041667,0.666666 1.0833333,0 0,1.083334 z m 1.75,0 1.0833333,0 -1.0833333,1.083334 z M 6,18 c -0.1846667,0 -0.3333333,0.148667 -0.3333333,0.333333 l 0,1.333334 C 5.6666667,19.851333 5.8153333,20 6,20 l 0.6666667,0 C 6.8513333,20 7,19.851333 7,19.666667 L 7,18.333333 C 7,18.148667 6.8513333,18 6.6666667,18 Z"
       id="path3883" />
    <path
       inkscape:connector-curvature="0"
       style="color:#000000;clip-rule:nonzero;display:inline;overflow:visible;visibility:visible;opacity:0.4;isolation:auto;mix-blend-mode:normal;color-interpolation:sRGB;color-interpolation-filters:linearRGB;solid-color:#000000;solid-opacity:1;fill:#bebebe;fill-opacity:1;fill-rule:nonzero;stroke:none;stroke-width:1;stroke-linecap:butt;stroke-linejoin:miter;stroke-miterlimit:4;stroke-dasharray:none;stroke-dashoffset:0;stroke-opacity:1;marker:none;color-rendering:auto;image-rendering:auto;shape-rendering:auto;text-rendering:auto;enable-background:accumulate"
       d="m 14,12 c -0.184667,0 -0.333333,0.148667 -0.333333,0.333333 l 0,7.333334 C 13.666667,19.851333 13.815333,20 14,20 l 0.666667,0 C 14.851333,20 15,19.851333 15,19.666667 l 0,-7.333334 C 15,12.148667 14.851333,12 14.666667,12 L 14,12 Z m -2.666667,2 C 11.148667,14 11,14.148667 11,14.333333 l 0,5.333334 C 11,19.851333 11.148667,20 11.333333,20 L 12,20 c 0.184667,0 0.333333,-0.148667 0.333333,-0.333333 l 0,-5.333334 C 12.333333,14.148667 12.184667,14 12,14 l -0.666667,0 z M 8.6666667,16 C 8.482,16 8.3333333,16.148667 8.3333333,16.333333 l 0,3.333334 C 8.3333333,19.851333 8.482,20 8.6666667,20 l 0.6666666,0 C 9.518,20 9.6666667,19.851333 9.6666667,19.666667 l 0,-3.333334 C 9.6666667,16.148667 9.518,16 9.3333333,16 l -0.6666666,0 z"
       id="path3883-1" />
  </g>
</svg>
