<?xml version="1.0" encoding="UTF-8" standalone="no"?>
<!-- Created with Inkscape (http://www.inkscape.org/) -->

<svg
   xmlns:dc="http://purl.org/dc/elements/1.1/"
   xmlns:cc="http://creativecommons.org/ns#"
   xmlns:rdf="http://www.w3.org/1999/02/22-rdf-syntax-ns#"
   xmlns:svg="http://www.w3.org/2000/svg"
   xmlns="http://www.w3.org/2000/svg"
   xmlns:sodipodi="http://sodipodi.sourceforge.net/DTD/sodipodi-0.dtd"
   xmlns:inkscape="http://www.inkscape.org/namespaces/inkscape"
   version="1.1"
   width="24"
   height="24"
   id="svg3778"
   inkscape:version="0.91 r13725"
   sodipodi:docname="network-cellular-signal-excellent.svg">
  <sodipodi:namedview
     pagecolor="#ffffff"
     bordercolor="#666666"
     borderopacity="1"
     objecttolerance="10"
     gridtolerance="10"
     guidetolerance="10"
     inkscape:pageopacity="0"
     inkscape:pageshadow="2"
     inkscape:window-width="1093"
     inkscape:window-height="645"
     id="namedview7"
     showgrid="false"
     inkscape:zoom="9.8333333"
     inkscape:cx="12"
     inkscape:cy="12"
     inkscape:window-x="0"
     inkscape:window-y="30"
     inkscape:window-maximized="0"
     inkscape:current-layer="svg3778" />
  <defs
     id="defs3780" />
  <metadata
     id="metadata3783">
    <rdf:RDF>
      <cc:Work
         rdf:about="">
        <dc:format>image/svg+xml</dc:format>
        <dc:type
           rdf:resource="http://purl.org/dc/dcmitype/StillImage" />
        <dc:title />
      </cc:Work>
    </rdf:RDF>
  </metadata>
  <path
     style="color:#000000;clip-rule:nonzero;display:inline;overflow:visible;visibility:visible;isolation:auto;mix-blend-mode:normal;color-interpolation:sRGB;color-interpolation-filters:linearRGB;solid-color:#000000;solid-opacity:1;fill:#bebebe;fill-opacity:1;fill-rule:nonzero;stroke:none;stroke-width:1;stroke-linecap:butt;stroke-linejoin:miter;stroke-miterlimit:4;stroke-dasharray:none;stroke-dashoffset:0;stroke-opacity:1;marker:none;color-rendering:auto;image-rendering:auto;shape-rendering:auto;text-rendering:auto;enable-background:accumulate"
     d="m 17.661017,8.440678 c -0.184667,0 -0.333333,0.148667 -0.333333,0.333333 l 0,7.333334 c 0,0.184666 0.148666,0.333333 0.333333,0.333333 l 0.666667,0 c 0.184666,0 0.333333,-0.148667 0.333333,-0.333333 l 0,-7.333334 c 0,-0.184666 -0.148667,-0.333333 -0.333333,-0.333333 l -0.666667,0 z m -2.666667,2 c -0.184666,0 -0.333333,0.148667 -0.333333,0.333333 l 0,5.333334 c 0,0.184666 0.148667,0.333333 0.333333,0.333333 l 0.666667,0 c 0.184667,0 0.333333,-0.148667 0.333333,-0.333333 l 0,-5.333334 c 0,-0.184666 -0.148666,-0.333333 -0.333333,-0.333333 l -0.666667,0 z m -10.0208331,0.666667 -0.3125,0.666666 2,2 0,2.666667 0.6666667,0 0,-2.666667 2,-2 -0.25,-0.666666 -4.1041667,0 z m 0.6041667,0.666666 1.0833333,0 0,1.083334 -1.0833333,-1.083334 z m 1.75,0 1.0833333,0 -1.0833333,1.083334 0,-1.083334 z m 5.0000004,0.666667 c -0.184667,0 -0.333334,0.148667 -0.333334,0.333333 l 0,3.333334 c 0,0.184666 0.148667,0.333333 0.333334,0.333333 l 0.666666,0 c 0.184667,0 0.333334,-0.148667 0.333334,-0.333333 l 0,-3.333334 c 0,-0.184666 -0.148667,-0.333333 -0.333334,-0.333333 l -0.666666,0 z m -2.6666671,2 c -0.1846667,0 -0.3333333,0.148667 -0.3333333,0.333333 l 0,1.333334 c 0,0.184666 0.1486666,0.333333 0.3333333,0.333333 l 0.6666671,0 c 0.184666,0 0.333333,-0.148667 0.333333,-0.333333 l 0,-1.333334 c 0,-0.184666 -0.148667,-0.333333 -0.333333,-0.333333 l -0.6666671,0 z"
     id="path3883"
     inkscape:connector-curvature="0" />
</svg>
