<?xml version="1.0" encoding="UTF-8" standalone="no"?>
<!-- Created with Inkscape (http://www.inkscape.org/) -->

<svg
   xmlns:dc="http://purl.org/dc/elements/1.1/"
   xmlns:cc="http://creativecommons.org/ns#"
   xmlns:rdf="http://www.w3.org/1999/02/22-rdf-syntax-ns#"
   xmlns:svg="http://www.w3.org/2000/svg"
   xmlns="http://www.w3.org/2000/svg"
   xmlns:sodipodi="http://sodipodi.sourceforge.net/DTD/sodipodi-0.dtd"
   xmlns:inkscape="http://www.inkscape.org/namespaces/inkscape"
   id="svg7384"
   height="24"
   width="24"
   version="1.1"
   inkscape:version="0.91 r13725"
   sodipodi:docname="network-vpn-acquiring.svg">
  <defs
     id="defs16" />
  <sodipodi:namedview
     pagecolor="#ffffff"
     bordercolor="#666666"
     borderopacity="1"
     objecttolerance="10"
     gridtolerance="10"
     guidetolerance="10"
     inkscape:pageopacity="0"
     inkscape:pageshadow="2"
     inkscape:window-width="1366"
     inkscape:window-height="716"
     id="namedview14"
     showgrid="false"
     inkscape:zoom="14.75"
     inkscape:cx="8"
     inkscape:cy="8"
     inkscape:window-x="0"
     inkscape:window-y="24"
     inkscape:window-maximized="1"
     inkscape:current-layer="svg7384" />
  <metadata
     id="metadata90">
    <rdf:RDF>
      <cc:Work
         rdf:about="">
        <dc:format>image/svg+xml</dc:format>
        <dc:type
           rdf:resource="http://purl.org/dc/dcmitype/StillImage" />
        <dc:title>Gnome Symbolic Icon Theme</dc:title>
      </cc:Work>
    </rdf:RDF>
  </metadata>
  <title
     id="title9167">Gnome Symbolic Icon Theme</title>
  <g
     id="layer9"
     transform="translate(-237,-233)">
    <path
       id="path4998"
       style="color:#bebebe;text-indent:0;text-transform:none;block-progression:tb;opacity:0.5;fill:#bebebe"
       d="m 248,248.69 0,1.3125 2,0 0,-1.3125 -2,0 z"
       inkscape:connector-curvature="0" />
    <path
       id="path5000"
       style="color:#bebebe;text-indent:0;text-transform:none;block-progression:tb;opacity:0.5;fill:#bebebe"
       d="m 243,250 0,2 12,0 0,-2 -12,0 z"
       inkscape:connector-curvature="0" />
    <rect
       id="rect5002"
       style="color:#bebebe;opacity:0.5;fill:#bebebe"
       ry="0"
       height="1.0094"
       width="8"
       y="242"
       x="245" />
    <path
       id="path5004"
       style="color:#bebebe;text-indent:0;text-transform:none;block-progression:tb;opacity:0.5;fill:#bebebe"
       d="m 249,238 c -1.645,0 -3,1.355 -3,3 l 0,2 6,0 0,-2 c 0,-1.645 -1.355,-3 -3,-3 z m 0,2 c 0.56413,0 1,0.43588 1,1 l 0,1 -2,0 0,-1 c 0,-0.56412 0.43587,-1 1,-1 z"
       inkscape:connector-curvature="0" />
    <rect
       id="rect10502"
       style="color:#bebebe;opacity:0.5;fill:#bebebe"
       ry="0"
       height="1.0094"
       width="8"
       y="248"
       x="245" />
    <path
       id="path4955-1-1"
       style="fill:#bebebe"
       d="m 29,209 a 1,1 0 1 1 -2,0 1,1 0 1 1 2,0 z"
       transform="matrix(1.5,0,0,1.5,202.51,-68.004)"
       inkscape:connector-curvature="0" />
    <path
       id="path4957-2-6"
       style="fill:#bebebe"
       d="m 29,209 a 1,1 0 1 1 -2,0 1,1 0 1 1 2,0 z"
       transform="matrix(1.5,0,0,1.5,206.51,-68.004)"
       inkscape:connector-curvature="0" />
    <path
       id="path4959-4-4"
       style="fill:#bebebe"
       d="m 29,209 a 1,1 0 1 1 -2,0 1,1 0 1 1 2,0 z"
       transform="matrix(1.5,0,0,1.5,210.51,-68.004)"
       inkscape:connector-curvature="0" />
  </g>
</svg>
