<?xml version="1.0" encoding="UTF-8" standalone="no"?>
<!-- Created with Inkscape (http://www.inkscape.org/) -->

<svg
   xmlns:dc="http://purl.org/dc/elements/1.1/"
   xmlns:cc="http://creativecommons.org/ns#"
   xmlns:rdf="http://www.w3.org/1999/02/22-rdf-syntax-ns#"
   xmlns:svg="http://www.w3.org/2000/svg"
   xmlns="http://www.w3.org/2000/svg"
   xmlns:sodipodi="http://sodipodi.sourceforge.net/DTD/sodipodi-0.dtd"
   xmlns:inkscape="http://www.inkscape.org/namespaces/inkscape"
   id="svg7384"
   height="24"
   width="24"
   version="1.1"
   inkscape:version="0.91 r13725"
   sodipodi:docname="network-error.svg">
  <defs
     id="defs11" />
  <sodipodi:namedview
     pagecolor="#ffffff"
     bordercolor="#666666"
     borderopacity="1"
     objecttolerance="10"
     gridtolerance="10"
     guidetolerance="10"
     inkscape:pageopacity="0"
     inkscape:pageshadow="2"
     inkscape:window-width="1366"
     inkscape:window-height="716"
     id="namedview9"
     showgrid="false"
     inkscape:zoom="14.75"
     inkscape:cx="8"
     inkscape:cy="8"
     inkscape:window-x="0"
     inkscape:window-y="24"
     inkscape:window-maximized="1"
     inkscape:current-layer="svg7384" />
  <metadata
     id="metadata90">
    <rdf:RDF>
      <cc:Work
         rdf:about="">
        <dc:format>image/svg+xml</dc:format>
        <dc:type
           rdf:resource="http://purl.org/dc/dcmitype/StillImage" />
        <dc:title>Gnome Symbolic Icon Theme</dc:title>
      </cc:Work>
    </rdf:RDF>
  </metadata>
  <title
     id="title9167">Gnome Symbolic Icon Theme</title>
  <g
     id="layer9"
     transform="matrix(0.8748633,0,0,0.8748633,-275.83112,-150.28714)">
    <path
       id="rect12675-3-8-70-9-8"
       style="color:#bebebe;text-indent:0;text-transform:none;block-progression:tb;opacity:0.5;fill:#bebebe"
       d="m 322.75,181 c -0.9522,0 -1.75,0.7978 -1.75,1.75 l 0,4.5 c 0,0.9522 0.7978,1.75 1.75,1.75 l 0.125,0 -1.5,3 8.375,0 c -0.47028,-0.71122 -0.75,-1.5799 -0.75,-2.5 0,-1.5729 0.78412,-2.946 2,-3.75 l 0,-3 c 0,-0.9522 -0.7978,-1.75 -1.75,-1.75 l -6.5,0 z m 0.25,2 6,0 0,4 -6,0 0,-4 z"
       inkscape:connector-curvature="0" />
    <path
       id="rect12675-3-8-5-2-9-9"
       style="color:#bebebe;text-indent:0pt;text-transform:none;opacity:0.5;fill:#bebebe"
       d="m 328.75,178 c -0.9522,0 -1.75,0.7978 -1.75,1.75 l 0,0.25 2,0 0.25,0 5.75,0 0,4 -3,0 0,1.2812 c 0.47,-0.17 0.97,-0.28 1.5,-0.28 0.9511,0 1.8373,0.31273 2.5625,0.8125 0.56,-0.29 0.94,-0.89 0.94,-1.56 l 0,-4.5 c 0,-0.9522 -0.7978,-1.75 -1.75,-1.75 l -6.5,0 z"
       inkscape:connector-curvature="0" />
    <path
       id="path3482"
       d="m 333.5,186 c -1.933,0 -3.5,1.567 -3.5,3.5 0,1.933 1.567,3.5 3.5,3.5 1.933,0 3.5,-1.567 3.5,-3.5 0,-1.933 -1.567,-3.5 -3.5,-3.5 z m -2.5,2.9688 5,0 0,1.0312 -5,0 0,-1.0312 z"
       style="color:#bebebe;fill:#ef2929"
       class="error"
       inkscape:connector-curvature="0" />
  </g>
</svg>
