<?xml version="1.0" encoding="UTF-8" standalone="no"?>
<!-- Created with Inkscape (http://www.inkscape.org/) -->

<svg
   xmlns:dc="http://purl.org/dc/elements/1.1/"
   xmlns:cc="http://creativecommons.org/ns#"
   xmlns:rdf="http://www.w3.org/1999/02/22-rdf-syntax-ns#"
   xmlns:svg="http://www.w3.org/2000/svg"
   xmlns="http://www.w3.org/2000/svg"
   xmlns:sodipodi="http://sodipodi.sourceforge.net/DTD/sodipodi-0.dtd"
   xmlns:inkscape="http://www.inkscape.org/namespaces/inkscape"
   id="svg7384"
   height="24"
   width="24"
   version="1.1"
   inkscape:version="0.91 r13725"
   sodipodi:docname="network-wired-acquiring.svg">
  <defs
     id="defs12" />
  <sodipodi:namedview
     pagecolor="#ffffff"
     bordercolor="#666666"
     borderopacity="1"
     objecttolerance="10"
     gridtolerance="10"
     guidetolerance="10"
     inkscape:pageopacity="0"
     inkscape:pageshadow="2"
     inkscape:window-width="1366"
     inkscape:window-height="716"
     id="namedview10"
     showgrid="false"
     inkscape:zoom="14.75"
     inkscape:cx="8"
     inkscape:cy="8"
     inkscape:window-x="0"
     inkscape:window-y="24"
     inkscape:window-maximized="1"
     inkscape:current-layer="svg7384" />
  <metadata
     id="metadata90">
    <rdf:RDF>
      <cc:Work
         rdf:about="">
        <dc:format>image/svg+xml</dc:format>
        <dc:type
           rdf:resource="http://purl.org/dc/dcmitype/StillImage" />
        <dc:title>Gnome Symbolic Icon Theme</dc:title>
      </cc:Work>
    </rdf:RDF>
  </metadata>
  <title
     id="title9167">Gnome Symbolic Icon Theme</title>
  <g
     id="layer9"
     transform="matrix(0.93333333,0,0,0.93333333,-202.2,-160.2)">
    <path
       id="rect12689-2"
       style="color:#bebebe;text-indent:0pt;text-transform:none;opacity:0.5;fill:#bebebe"
       d="m 225.75,177 c -0.9522,0 -1.75,0.7978 -1.75,1.75 l 0,4.5 c 0,0.26247 0.0485,0.52447 0.15625,0.75 l 10.688,0 c 0.10776,-0.22553 0.15625,-0.48753 0.15625,-0.75 l 0,-4.5 c 0,-0.9522 -0.7978,-1.75 -1.75,-1.75 l -7.5,0 z m 0.25,2 7,0 0,4 -7,0 0,-4 z m 2,9.9375 0,1.0625 -5,0 0,2 13,0 0,-2 -5,0 0,-1.0625 -3,0 z"
       inkscape:connector-curvature="0" />
    <path
       id="path4955-1"
       style="fill:#bebebe"
       d="m 29,209 a 1,1 0 1 1 -2,0 1,1 0 1 1 2,0 z"
       transform="matrix(1.5,0,0,1.5,183.5,-127)"
       inkscape:connector-curvature="0" />
    <path
       id="path4957-2"
       style="fill:#bebebe"
       d="m 29,209 a 1,1 0 1 1 -2,0 1,1 0 1 1 2,0 z"
       transform="matrix(1.5,0,0,1.5,187.5,-127)"
       inkscape:connector-curvature="0" />
    <path
       id="path4959-4"
       style="fill:#bebebe"
       d="m 29,209 a 1,1 0 1 1 -2,0 1,1 0 1 1 2,0 z"
       transform="matrix(1.5,0,0,1.5,191.5,-127)"
       inkscape:connector-curvature="0" />
  </g>
</svg>
