<?xml version="1.0" encoding="UTF-8" standalone="no"?>
<svg
   xmlns:dc="http://purl.org/dc/elements/1.1/"
   xmlns:cc="http://creativecommons.org/ns#"
   xmlns:rdf="http://www.w3.org/1999/02/22-rdf-syntax-ns#"
   xmlns:svg="http://www.w3.org/2000/svg"
   xmlns="http://www.w3.org/2000/svg"
   xmlns:sodipodi="http://sodipodi.sourceforge.net/DTD/sodipodi-0.dtd"
   xmlns:inkscape="http://www.inkscape.org/namespaces/inkscape"
   id="svg61"
   height="24"
   width="24"
   version="1.1"
   viewBox="0 0 19.2 19.2"
   inkscape:version="0.91 r13725"
   sodipodi:docname="network-wired.svg">
  <defs
     id="defs7" />
  <sodipodi:namedview
     pagecolor="#ffffff"
     bordercolor="#666666"
     borderopacity="1"
     objecttolerance="10"
     gridtolerance="10"
     guidetolerance="10"
     inkscape:pageopacity="0"
     inkscape:pageshadow="2"
     inkscape:window-width="1366"
     inkscape:window-height="716"
     id="namedview5"
     showgrid="false"
     units="px"
     inkscape:zoom="9.9368421"
     inkscape:cx="11.875"
     inkscape:cy="11.875"
     inkscape:window-x="0"
     inkscape:window-y="24"
     inkscape:window-maximized="1"
     inkscape:current-layer="svg61" />
  <metadata
     id="metadata70">
    <rdf:RDF>
      <cc:Work
         rdf:about="">
        <dc:format>image/svg+xml</dc:format>
        <dc:type
           rdf:resource="http://purl.org/dc/dcmitype/StillImage" />
        <dc:title></dc:title>
      </cc:Work>
    </rdf:RDF>
  </metadata>
  <path
     id="rect6619"
     style="fill:#cccccc"
     d="M 5.1360645,4 C 4.5065217,4 4,4.5065217 4,5.1360645 L 4,14.063411 C 4,14.693391 4.5065217,15.2 5.1360645,15.2 l 8.9273465,0 C 14.693391,15.2 15.2,14.693391 15.2,14.064285 l 0,-8.9273455 C 15.2,4.5068717 14.693391,4.00035 14.064285,4.00035 l -8.9282205,0 z m 3.5012906,4.40085 0.9624699,0 0.96247,0 0.01777,0.045114 c 0.0092,0.024457 0.01641,0.1564713 0.01641,0.2939383 0,0.2294178 0.0023,0.2514759 0.03281,0.2679604 0.01827,0.0099 0.136224,0.017772 0.262492,0.017772 0.155649,0 0.236207,0.00623 0.250189,0.020509 0.01475,0.014896 0.02051,0.1280353 0.02051,0.3964763 0,0.268442 0.0058,0.380264 0.02051,0.395103 0.01517,0.01539 0.166472,0.02051 0.574201,0.02051 0.31891,0 0.573387,0.0079 0.598814,0.01777 l 0.04375,0.01777 -0.0041,1.688434 -0.0041,1.688435 -2.7916881,0 -2.7916878,0 -0.00274,-1.688435 -0.00547,-1.688434 0.043749,-0.01777 c 0.025426,-0.0099 0.2799037,-0.01777 0.5988138,-0.01777 0.4077285,0 0.5590288,-0.0051 0.5742008,-0.02051 0.014791,-0.0149 0.020508,-0.126661 0.020508,-0.395103 0,-0.268441 0.00576,-0.3816281 0.020508,-0.3964763 0.013974,-0.014287 0.094532,-0.020509 0.2501897,-0.020509 0.1262673,0 0.2442223,-0.00788 0.2624918,-0.017772 0.030463,-0.016491 0.032808,-0.038597 0.032808,-0.2679604 0,-0.137467 0.00856,-0.2697541 0.017772,-0.2939383 l 0.016537,-0.045236 z"
     inkscape:connector-curvature="0" />
</svg>
