<?xml version="1.0" encoding="UTF-8" standalone="no"?>
<!-- Created with Inkscape (http://www.inkscape.org/) -->

<svg
   xmlns:dc="http://purl.org/dc/elements/1.1/"
   xmlns:cc="http://creativecommons.org/ns#"
   xmlns:rdf="http://www.w3.org/1999/02/22-rdf-syntax-ns#"
   xmlns:svg="http://www.w3.org/2000/svg"
   xmlns="http://www.w3.org/2000/svg"
   xmlns:sodipodi="http://sodipodi.sourceforge.net/DTD/sodipodi-0.dtd"
   xmlns:inkscape="http://www.inkscape.org/namespaces/inkscape"
   id="svg7384"
   height="24"
   width="24"
   version="1.1"
   inkscape:version="0.91 r13725"
   sodipodi:docname="network-vpn.svg">
  <defs
     id="defs12" />
  <sodipodi:namedview
     pagecolor="#ffffff"
     bordercolor="#666666"
     borderopacity="1"
     objecttolerance="10"
     gridtolerance="10"
     guidetolerance="10"
     inkscape:pageopacity="0"
     inkscape:pageshadow="2"
     inkscape:window-width="1366"
     inkscape:window-height="716"
     id="namedview10"
     showgrid="false"
     inkscape:zoom="14.75"
     inkscape:cx="8"
     inkscape:cy="8"
     inkscape:window-x="0"
     inkscape:window-y="24"
     inkscape:window-maximized="1"
     inkscape:current-layer="svg7384" />
  <metadata
     id="metadata90">
    <rdf:RDF>
      <cc:Work
         rdf:about="">
        <dc:format>image/svg+xml</dc:format>
        <dc:type
           rdf:resource="http://purl.org/dc/dcmitype/StillImage" />
        <dc:title>Gnome Symbolic Icon Theme</dc:title>
      </cc:Work>
    </rdf:RDF>
  </metadata>
  <title
     id="title9167">Gnome Symbolic Icon Theme</title>
  <g
     id="layer9"
     transform="translate(-217,-233)">
    <path
       id="path12679-6"
       style="color:#bebebe;text-indent:0;text-transform:none;block-progression:tb;fill:#bebebe"
       d="m 228,247 0,3 2,0 0,-3 -2,0 z"
       inkscape:connector-curvature="0" />
    <path
       id="path12681-3"
       style="color:#bebebe;text-indent:0;text-transform:none;block-progression:tb;fill:#bebebe"
       d="m 223,250 0,2 12,0 0,-2 -12,0 z"
       inkscape:connector-curvature="0" />
    <rect
       id="rect13312"
       style="color:#bebebe;fill:#bebebe"
       ry="0"
       height="6"
       width="8"
       y="242"
       x="225" />
    <path
       id="path13314"
       style="color:#bebebe;text-indent:0;text-transform:none;block-progression:tb;fill:#bebebe"
       d="m 229,238 c -1.645,0 -3,1.355 -3,3 l 0,2 0,1 1,0 4,0 1,0 0,-1 0,-2 c 0,-1.645 -1.355,-3 -3,-3 z m 0,2 c 0.56413,0 1,0.43588 1,1 l 0,1 -2,0 0,-1 c 0,-0.56412 0.43587,-1 1,-1 z"
       inkscape:connector-curvature="0" />
  </g>
</svg>
