<?xml version="1.0" encoding="UTF-8" standalone="no"?>
<svg
   xmlns:dc="http://purl.org/dc/elements/1.1/"
   xmlns:cc="http://creativecommons.org/ns#"
   xmlns:rdf="http://www.w3.org/1999/02/22-rdf-syntax-ns#"
   xmlns:svg="http://www.w3.org/2000/svg"
   xmlns="http://www.w3.org/2000/svg"
   xmlns:sodipodi="http://sodipodi.sourceforge.net/DTD/sodipodi-0.dtd"
   xmlns:inkscape="http://www.inkscape.org/namespaces/inkscape"
   id="svg32"
   height="24"
   width="24"
   version="1.1"
   viewBox="0 0 19.2 19.2"
   inkscape:version="0.91 r13725"
   sodipodi:docname="network-wired-acquiring.svg">
  <defs
     id="defs11" />
  <sodipodi:namedview
     pagecolor="#ffffff"
     bordercolor="#666666"
     borderopacity="1"
     objecttolerance="10"
     gridtolerance="10"
     guidetolerance="10"
     inkscape:pageopacity="0"
     inkscape:pageshadow="2"
     inkscape:window-width="1366"
     inkscape:window-height="716"
     id="namedview9"
     showgrid="false"
     units="px"
     inkscape:zoom="9.9368421"
     inkscape:cx="11.875"
     inkscape:cy="11.875"
     inkscape:window-x="0"
     inkscape:window-y="24"
     inkscape:window-maximized="1"
     inkscape:current-layer="svg32" />
  <metadata
     id="metadata49">
    <rdf:RDF>
      <cc:Work
         rdf:about="">
        <dc:format>image/svg+xml</dc:format>
        <dc:type
           rdf:resource="http://purl.org/dc/dcmitype/StillImage" />
        <dc:title></dc:title>
      </cc:Work>
    </rdf:RDF>
  </metadata>
  <path
     id="rect6619"
     style="fill:#cccccc"
     d="M 5.1361,4 C 4.50652,4 4,4.50652 4,5.1361 l 0,8.9278 C 4,14.6932 4.50652,15.2 5.1361,15.2 l 8.9278,0 c 0.6293,0 1.1361,-0.5068 1.1361,-1.1361 l 0,-8.9278 C 15.2,4.50652 14.6932,4 14.0639,4 L 5.1361,4 Z m 3.5014,4.4009 0.9625,0 0.9625,0 0.0175,0.0455 c 0.0098,0.0245 0.0168,0.1561 0.0168,0.2933 0,0.2296 0.0021,0.252 0.0329,0.2681 0.0182,0.0098 0.1358,0.0182 0.2625,0.0182 0.1554,0 0.2359,0.0063 0.2499,0.0203 0.0147,0.0147 0.0203,0.1281 0.0203,0.3962 0,0.2688 0.0063,0.3808 0.021,0.3955 0.0147,0.0154 0.1666,0.0203 0.574,0.0203 0.3192,0 0.5733,0.0077 0.5985,0.0182 L 12.4,9.894 l -0.0042,1.6884 -0.0042,1.6884 -2.7916,0 -2.79181,0 L 6.80546,11.5824 6.8,9.894 6.84375,9.8765 C 6.86916,9.866 7.12368,9.8583 7.4426,9.8583 7.85035,9.8583 8.00162,9.8534 8.01681,9.838 8.03158,9.8233 8.03732,9.7113 8.03732,9.4425 8.03732,9.1744 8.04306,9.061 8.05783,9.0463 8.07176,9.0323 8.15233,9.026 8.3078,9.026 8.4345,9.026 8.5521,9.0176 8.5703,9.0078 8.6011,8.9917 8.6032,8.9693 8.6032,8.7397 8.6032,8.6025 8.6116,8.4702 8.6214,8.4464 L 8.6375,8.4009 Z M 8.025,13.6635 c 0.2898,0 0.525,0.2345 0.525,0.525 0,0.2898 -0.2352,0.525 -0.525,0.525 -0.29015,0 -0.525,-0.2352 -0.525,-0.525 0,-0.2905 0.23485,-0.525 0.525,-0.525 z m 1.575,0 c 0.2898,0 0.525,0.2345 0.525,0.525 0,0.2898 -0.2352,0.525 -0.525,0.525 -0.2898,0 -0.525,-0.2352 -0.525,-0.525 0,-0.2905 0.2352,-0.525 0.525,-0.525 z m 1.575,0 c 0.2898,0 0.525,0.2345 0.525,0.525 0,0.2898 -0.2352,0.525 -0.525,0.525 -0.2898,0 -0.525,-0.2352 -0.525,-0.525 0,-0.2905 0.2352,-0.525 0.525,-0.525 z"
     inkscape:connector-curvature="0" />
</svg>
