<?xml version="1.0" encoding="UTF-8" standalone="no"?>
<svg
   xmlns:dc="http://purl.org/dc/elements/1.1/"
   xmlns:cc="http://creativecommons.org/ns#"
   xmlns:rdf="http://www.w3.org/1999/02/22-rdf-syntax-ns#"
   xmlns:svg="http://www.w3.org/2000/svg"
   xmlns="http://www.w3.org/2000/svg"
   xmlns:sodipodi="http://sodipodi.sourceforge.net/DTD/sodipodi-0.dtd"
   xmlns:inkscape="http://www.inkscape.org/namespaces/inkscape"
   id="svg100"
   height="24"
   width="24"
   version="1.1"
   viewBox="0 0 19.2 19.2"
   inkscape:version="0.91 r13725"
   sodipodi:docname="nm-device-wired-secure.svg">
  <sodipodi:namedview
     pagecolor="#ffffff"
     bordercolor="#666666"
     borderopacity="1"
     objecttolerance="10"
     gridtolerance="10"
     guidetolerance="10"
     inkscape:pageopacity="0"
     inkscape:pageshadow="2"
     inkscape:window-width="1366"
     inkscape:window-height="716"
     id="namedview39"
     showgrid="false"
     units="px"
     inkscape:zoom="9.9368421"
     inkscape:cx="11.875"
     inkscape:cy="11.875"
     inkscape:window-x="0"
     inkscape:window-y="24"
     inkscape:window-maximized="1"
     inkscape:current-layer="svg100" />
  <metadata
     id="metadata111">
    <rdf:RDF>
      <cc:Work
         rdf:about="">
        <dc:format>image/svg+xml</dc:format>
        <dc:type
           rdf:resource="http://purl.org/dc/dcmitype/StillImage" />
        <dc:title></dc:title>
      </cc:Work>
    </rdf:RDF>
  </metadata>
  <defs
     id="defs109">
    <filter
       id="filter3174-3"
       style="color-interpolation-filters:sRGB">
      <feGaussianBlur
         id="feGaussianBlur3176-6"
         stdDeviation="1.71" />
    </filter>
    <filter
       id="filter3794-6"
       height="1.3839999"
       width="1.3839999"
       y="-0.192"
       x="-0.192"
       style="color-interpolation-filters:sRGB">
      <feGaussianBlur
         id="feGaussianBlur3796-9"
         stdDeviation="5.28" />
    </filter>
    <clipPath
       id="clipPath4355-3">
      <rect
         id="rect4357-1"
         style="fill:#4d4d4d"
         rx="6"
         ry="6"
         height="80"
         width="84"
         y="6"
         x="6" />
    </clipPath>
    <filter
       id="filter3174-7"
       style="color-interpolation-filters:sRGB">
      <feGaussianBlur
         id="feGaussianBlur3176-63"
         stdDeviation="1.71" />
    </filter>
    <filter
       id="filter3794-69"
       height="1.3839999"
       width="1.3839999"
       y="-0.192"
       x="-0.192"
       style="color-interpolation-filters:sRGB">
      <feGaussianBlur
         id="feGaussianBlur3796-0"
         stdDeviation="5.28" />
    </filter>
    <clipPath
       id="clipPath4355-6">
      <rect
         id="rect4357-2"
         style="fill:#4d4d4d"
         rx="6"
         ry="6"
         height="80"
         width="84"
         y="6"
         x="6" />
    </clipPath>
    <clipPath
       id="clipPath4355-6-2">
      <rect
         id="rect4357-2-6"
         style="fill:#4d4d4d"
         rx="6"
         ry="6"
         height="80"
         width="84"
         y="6"
         x="6" />
    </clipPath>
    <filter
       id="filter3794-69-0"
       height="1.3839999"
       width="1.3839999"
       y="-0.192"
       x="-0.192"
       style="color-interpolation-filters:sRGB">
      <feGaussianBlur
         id="feGaussianBlur3796-0-2"
         stdDeviation="5.28" />
    </filter>
    <filter
       id="filter3174-7-4"
       style="color-interpolation-filters:sRGB">
      <feGaussianBlur
         id="feGaussianBlur3176-63-0"
         stdDeviation="1.71" />
    </filter>
    <clipPath
       id="clipPath4355-3-0">
      <rect
         id="rect4357-1-3"
         style="fill:#4d4d4d"
         rx="6"
         ry="6"
         height="80"
         width="84"
         y="6"
         x="6" />
    </clipPath>
    <filter
       id="filter3794-6-2"
       height="1.3839999"
       width="1.3839999"
       y="-0.192"
       x="-0.192"
       style="color-interpolation-filters:sRGB">
      <feGaussianBlur
         id="feGaussianBlur3796-9-7"
         stdDeviation="5.28" />
    </filter>
    <filter
       id="filter3174-3-7"
       style="color-interpolation-filters:sRGB">
      <feGaussianBlur
         id="feGaussianBlur3176-6-7"
         stdDeviation="1.71" />
    </filter>
  </defs>
  <rect
     id="rect3745"
     style="display:none;opacity:0.9;filter:url(#filter3174-7)"
     transform="matrix(0.4617,0,0,0.4617,-49.818,-15.278)"
     rx="6"
     ry="6"
     height="85"
     width="86"
     y="7"
     x="5" />
  <rect
     id="rect3171"
     style="display:none;opacity:0.1;stroke:#4d4d4d;stroke-width:0.5;stroke-linecap:round;filter:url(#filter3794-69)"
     transform="matrix(0.4617,0,0,0.4617,-49.818,-15.278)"
     clip-path="url(#clipPath4355-6)"
     rx="12"
     ry="12"
     height="62"
     width="66"
     y="15"
     x="15" />
  <rect
     id="rect3745-7"
     style="display:none;opacity:0.9;filter:url(#filter3174-3)"
     transform="matrix(0.4617,0,0,0.4617,-49.862,-11.428)"
     rx="6"
     ry="6"
     height="85"
     width="86"
     y="7"
     x="5" />
  <rect
     id="rect3171-6"
     style="display:none;opacity:0.1;stroke:#4d4d4d;stroke-width:0.5;stroke-linecap:round;filter:url(#filter3794-6)"
     transform="matrix(0.4617,0,0,0.4617,-49.862,-11.428)"
     clip-path="url(#clipPath4355-3)"
     rx="12"
     ry="12"
     height="62"
     width="66"
     y="15"
     x="15" />
  <rect
     id="rect3745-5"
     style="display:none;opacity:0.9;filter:url(#filter3174-7-4)"
     transform="matrix(0.4617,0,0,0.4617,-100.24,-75.85)"
     rx="6"
     ry="6"
     height="85"
     width="86"
     y="7"
     x="5" />
  <rect
     id="rect3171-2"
     style="display:none;opacity:0.1;stroke:#4d4d4d;stroke-width:0.5;stroke-linecap:round;filter:url(#filter3794-69-0)"
     transform="matrix(0.4617,0,0,0.4617,-100.24,-75.85)"
     clip-path="url(#clipPath4355-6-2)"
     rx="12"
     ry="12"
     height="62"
     width="66"
     y="15"
     x="15" />
  <rect
     id="rect3745-7-5"
     style="display:none;opacity:0.9;filter:url(#filter3174-3-7)"
     transform="matrix(0.4617,0,0,0.4617,-100.28,-71.999)"
     rx="6"
     ry="6"
     height="85"
     width="86"
     y="7"
     x="5" />
  <rect
     id="rect3171-6-7"
     style="display:none;opacity:0.1;stroke:#4d4d4d;stroke-width:0.5;stroke-linecap:round;filter:url(#filter3794-6-2)"
     transform="matrix(0.4617,0,0,0.4617,-100.28,-71.999)"
     clip-path="url(#clipPath4355-3-0)"
     rx="12"
     ry="12"
     height="62"
     width="66"
     y="15"
     x="15" />
  <g
     id="g4167"
     transform="matrix(0.87091012,0,0,0.87091012,1.3001787,1.3003572)">
    <path
       transform="scale(0.8,0.8)"
       d="m 5.498,3.875 c -0.8994,0 -1.623,0.7236 -1.623,1.623 l 0,12.754 c 0,0.899 0.7236,1.623 1.623,1.623 l 12.754,0 c 0.899,0 1.623,-0.724 1.623,-1.623 l 0,-12.754 c 0,-0.8994 -0.724,-1.623 -1.623,-1.623 l -12.754,0 z m 5.002,6.287 1.375,0 1.375,0 0.025,0.065 c 0.014,0.035 0.024,0.223 0.024,0.419 0,0.328 0.003,0.36 0.047,0.383 0.026,0.014 0.194,0.026 0.375,0.026 0.222,0 0.337,0.009 0.357,0.029 0.021,0.021 0.029,0.183 0.029,0.566 0,0.384 0.009,0.544 0.03,0.565 0.021,0.022 0.238,0.029 0.82,0.029 0.456,0 0.819,0.011 0.855,0.026 l 0.063,0.025 -0.006,2.412 -0.006,2.412 -3.988,0 -3.9883,0 L 7.8828,14.707 7.875,12.295 7.9375,12.27 c 0.0363,-0.015 0.3999,-0.026 0.8555,-0.026 0.5825,0 0.7986,-0.007 0.8203,-0.029 0.0211,-0.021 0.0293,-0.181 0.0293,-0.565 0,-0.383 0.0082,-0.545 0.0293,-0.566 0.0199,-0.02 0.135,-0.029 0.3571,-0.029 0.181,0 0.349,-0.012 0.375,-0.026 0.044,-0.023 0.047,-0.055 0.047,-0.383 0,-0.196 0.012,-0.385 0.026,-0.419 L 10.5,10.162 Z"
       style="fill:#cccccc"
       id="rect6619"
       inkscape:connector-curvature="0" />
    <path
       style="fill:#f8822b"
       d="m 14.065,11.535 c -0.70029,0 -1.2634,0.56595 -1.2634,1.2662 l 0,1.2634 -0.63169,0 0,1.8951 3.7902,0 0,-1.8951 -0.63169,0 0,-1.2634 c 0,-0.70029 -0.56309,-1.2662 -1.2634,-1.2662 z m 0,0.63455 c 0.34872,0 0.63169,0.28012 0.63169,0.63169 l 0,1.2634 -1.2634,0 0,-1.2634 c 0,-0.35158 0.28298,-0.63169 0.63169,-0.63169 z m -1.2634,2.5268 2.5268,0 0,0.63169 -2.5268,0 z"
       id="path105"
       inkscape:connector-curvature="0" />
  </g>
</svg>
