<?xml version="1.0" encoding="UTF-8" standalone="no"?>
<svg
   xmlns:dc="http://purl.org/dc/elements/1.1/"
   xmlns:cc="http://creativecommons.org/ns#"
   xmlns:rdf="http://www.w3.org/1999/02/22-rdf-syntax-ns#"
   xmlns:svg="http://www.w3.org/2000/svg"
   xmlns="http://www.w3.org/2000/svg"
   xmlns:xlink="http://www.w3.org/1999/xlink"
   xmlns:sodipodi="http://sodipodi.sourceforge.net/DTD/sodipodi-0.dtd"
   xmlns:inkscape="http://www.inkscape.org/namespaces/inkscape"
   height="96"
   width="96"
   id="svg2"
   version="1.1"
   inkscape:version="0.91 r13725"
   sodipodi:docname="applications-graphics.svg">
  <metadata
     id="metadata75">
    <rdf:RDF>
      <cc:Work
         rdf:about="">
        <dc:format>image/svg+xml</dc:format>
        <dc:type
           rdf:resource="http://purl.org/dc/dcmitype/StillImage" />
      </cc:Work>
    </rdf:RDF>
  </metadata>
  <sodipodi:namedview
     pagecolor="#ffffff"
     bordercolor="#666666"
     borderopacity="1"
     objecttolerance="10"
     gridtolerance="10"
     guidetolerance="10"
     inkscape:pageopacity="0"
     inkscape:pageshadow="2"
     inkscape:window-width="1366"
     inkscape:window-height="716"
     id="namedview73"
     showgrid="false"
     inkscape:zoom="4.9166668"
     inkscape:cx="32.43752"
     inkscape:cy="47.782924"
     inkscape:window-x="0"
     inkscape:window-y="24"
     inkscape:window-maximized="1"
     inkscape:current-layer="svg2" />
  <defs
     id="defs4">
    <linearGradient
       gradientUnits="userSpaceOnUse"
       y2="95.593246"
       x2="78.18644"
       y1="4.0678196"
       x1="43.847458"
       id="linearGradient4167"
       xlink:href="#linearGradient2867-449-88-871-390-598-476-591-434-148-57-177-7-4-9-9-2-2-0-8-0"
       inkscape:collect="always"
       gradientTransform="translate(0,-2.29e-5)" />
    <linearGradient
       id="linearGradient2867-449-88-871-390-598-476-591-434-148-57-177-7-4-9-9-2-2-0-8-0">
      <stop
         offset="0"
         style="stop-color:#54bfec;stop-opacity:1"
         id="stop3750-6-3-7-0-5-3-5-7" />
      <stop
         offset="0.26238"
         style="stop-color:#55c1ec;stop-opacity:1"
         id="stop3752-3-7-7-6-4-4-3-4" />
      <stop
         offset="0.704952"
         style="stop-color:#3689e6;stop-opacity:1"
         id="stop3754-1-7-4-6-36-7-7-2-4" />
      <stop
         offset="1"
         style="stop-color:#2b63a0;stop-opacity:1"
         id="stop3756-7-5-7-1-4-3-1-7" />
    </linearGradient>
    <clipPath
       clipPathUnits="userSpaceOnUse"
       id="clipPath4236">
      <rect
         style="opacity:1;fill:url(#linearGradient4240);fill-opacity:1;stroke:#000000;stroke-width:1;stroke-linecap:butt;stroke-linejoin:miter;stroke-miterlimit:4;stroke-dasharray:none;stroke-dashoffset:0;stroke-opacity:0.04705882"
         id="rect4238"
         width="85"
         height="85"
         x="5.8106871"
         y="5.0645099"
         rx="11" />
    </clipPath>
    <linearGradient
       inkscape:collect="always"
       xlink:href="#linearGradient2867-449-88-871-390-598-476-591-434-148-57-177-7-4-9-9-2-2-0-8-0"
       id="linearGradient4240"
       gradientUnits="userSpaceOnUse"
       gradientTransform="translate(0.31069042,-0.43551318)"
       x1="43.847458"
       y1="4.0678196"
       x2="78.18644"
       y2="95.593246" />
  </defs>
  <rect
     rx="11"
     y="5.5"
     x="5.5"
     height="85"
     width="85"
     id="rect4244-5"
     style="opacity:1;fill:#1a1a1a;fill-opacity:1;stroke:#000000;stroke-width:1;stroke-linecap:butt;stroke-linejoin:miter;stroke-miterlimit:4;stroke-dasharray:none;stroke-dashoffset:0;stroke-opacity:0.04705882" />
  <g
     id="g4221"
     transform="matrix(0.89411765,0,0,0.89411765,4.804562,5.4717322)"
     clip-path="url(#clipPath4236)">
    <rect
       style="opacity:1;fill:url(#linearGradient4167);fill-opacity:1;stroke:#000000;stroke-width:1;stroke-linecap:butt;stroke-linejoin:miter;stroke-miterlimit:4;stroke-dasharray:none;stroke-dashoffset:0;stroke-opacity:0.04705882"
       id="rect4244"
       width="85"
       height="85"
       x="5.5"
       y="5.5"
       rx="11" />
    <path
       d="m 48.472569,47.564825 c -7.92201,13.902663 -10.002391,29.576934 -7.069332,44.1588 l 24.872632,0 C 55.267947,80.340118 48.473088,64.766781 48.473088,47.564825 Z"
       id="path41"
       inkscape:connector-curvature="0"
       style="fill:#00df16" />
    <path
       d="M 48.472569,47.663657 C 31.762486,57.438523 21.203888,73.854031 18.184181,91.723625 l 23.153162,0 C 38.422029,77.168044 40.562462,61.543188 48.471531,47.663657 Z"
       id="path43"
       inkscape:connector-curvature="0"
       style="fill:#04abcf" />
    <path
       d="m 48.408231,47.728844 c -17.011016,0 -32.434351,6.87952 -43.6809435,18.071463 l 0,19.614918 c 0,3.494854 2.7768852,6.3084 6.2261995,6.3084 l 7.199044,0 C 21.183134,73.879265 31.718383,57.492144 48.407712,47.728844 Z"
       id="path45"
       inkscape:connector-curvature="0"
       style="fill:#1a36d8" />
    <path
       d="m 16.628669,39.28505 c -4.013616,0.03719 -7.9911204,0.474024 -11.9013815,1.281447 l 0,25.201006 C 15.962465,54.614252 31.332878,47.729685 48.310687,47.729685 38.317221,41.883796 27.38858,39.185903 16.628669,39.285681 Z"
       id="path47"
       inkscape:connector-curvature="0"
       style="fill:#370099" />
    <path
       d="m 4.7272875,17.041632 0,23.458837 C 19.093206,37.546666 34.514466,39.715336 48.213144,47.728844 38.565647,30.79815 22.364037,20.100155 4.7272875,17.040581 Z"
       id="path49"
       inkscape:connector-curvature="0"
       style="fill:#650199" />
    <path
       d="m 10.953487,3.4059204 c -3.4493143,0 -6.2261995,2.8135464 -6.2261995,6.3084 l 0,7.2940876 C 22.339132,20.079022 38.512724,30.75336 48.148806,47.663026 c 0,-17.2356 -6.789878,-32.862558 -17.835987,-44.2576313 l -19.359331,0 z"
       id="path51"
       inkscape:connector-curvature="0"
       style="fill:#9c009b" />
    <path
       d="M 30.344987,3.4059204 C 41.352909,14.789428 48.147769,30.362765 48.147769,47.56472 56.069778,33.662058 58.150159,17.987787 55.2171,3.4059204 l -24.872631,0 z"
       id="path53"
       inkscape:connector-curvature="0"
       style="fill:#d10737" />
    <path
       d="M 55.282994,3.4059204 C 58.198308,17.961502 56.057886,33.586357 48.148806,47.465889 64.858889,37.691023 75.417487,21.275515 78.437194,3.4059204 l -23.153163,0 z"
       id="path55"
       inkscape:connector-curvature="0"
       style="fill:#fd0005" />
    <path
       d="M 78.468325,3.4059204 C 75.437722,21.250281 64.902473,37.637402 48.213144,47.400702 c 17.011016,-7e-6 32.434351,-6.879521 43.680943,-18.071463 l 0,-19.6149186 c 0,-3.4948536 -2.776885,-6.3084 -6.226199,-6.3084 l -7.199044,0 z"
       id="path57"
       inkscape:connector-curvature="0"
       style="fill:#ff6500" />
    <path
       d="m 91.894087,29.361937 c -11.235177,11.153251 -26.60559,18.037819 -43.5834,18.037819 13.721508,8.026598 29.191539,10.134444 43.5834,7.162662 l 0,-25.201006 z"
       id="path59"
       inkscape:connector-curvature="0"
       style="fill:#fdad00" />
    <path
       d="m 48.408231,47.400807 c 9.647497,16.930694 25.849107,27.628689 43.485856,30.688263 l 0,-23.458837 C 77.528169,57.584037 62.106909,55.415366 48.408231,47.401858 Z"
       id="path61"
       inkscape:connector-curvature="0"
       style="fill:#fffd01" />
    <path
       d="m 48.472569,47.465994 c 0,17.2356 6.789878,32.862558 17.835987,44.257631 l 19.359331,0 c 3.449315,0 6.2262,-2.813546 6.2262,-6.3084 l 0,-7.294087 C 74.282243,75.050524 58.108651,64.376186 48.472569,47.46652 Z"
       id="path63"
       inkscape:connector-curvature="0"
       style="fill:#b6fd00" />
  </g>
  <path
     style="opacity:1;fill:#ffffff;fill-opacity:1;stroke:#000000;stroke-width:1;stroke-linecap:butt;stroke-linejoin:miter;stroke-miterlimit:4;stroke-dasharray:none;stroke-dashoffset:0;stroke-opacity:0.04705882"
     d="m 18.697674,8.465116 c -5.668837,0 -10.2325578,4.563721 -10.2325578,10.232558 l 0,58.604652 c 0,5.668837 4.5637208,10.232558 10.2325578,10.232558 l 58.604652,0 c 5.668837,0 10.232558,-4.563721 10.232558,-10.232558 l 0,-58.604652 c 0,-5.668837 -4.563721,-10.232558 -10.232558,-10.232558 l -58.604652,0 z m 2.043969,2.757995 54.516714,0 c 5.273338,0 9.518532,4.245194 9.518532,9.518532 l 0,54.516714 c 0,5.273338 -4.245194,9.518532 -9.518532,9.518532 l -54.516714,0 c -5.273338,0 -9.518533,-4.245194 -9.518533,-9.518532 l 0,-54.516714 c 0,-5.273338 4.245195,-9.518532 9.518533,-9.518532 z"
     id="rect4449"
     inkscape:connector-curvature="0" />
</svg>
