<?xml version="1.0" encoding="UTF-8" standalone="no"?>
<svg
   xmlns:dc="http://purl.org/dc/elements/1.1/"
   xmlns:cc="http://creativecommons.org/ns#"
   xmlns:rdf="http://www.w3.org/1999/02/22-rdf-syntax-ns#"
   xmlns:svg="http://www.w3.org/2000/svg"
   xmlns="http://www.w3.org/2000/svg"
   xmlns:xlink="http://www.w3.org/1999/xlink"
   xmlns:sodipodi="http://sodipodi.sourceforge.net/DTD/sodipodi-0.dtd"
   xmlns:inkscape="http://www.inkscape.org/namespaces/inkscape"
   height="96"
   width="96"
   id="svg2"
   version="1.1"
   inkscape:version="0.91 r13725"
   sodipodi:docname="applications-office.svg">
  <metadata
     id="metadata110">
    <rdf:RDF>
      <cc:Work
         rdf:about="">
        <dc:format>image/svg+xml</dc:format>
        <dc:type
           rdf:resource="http://purl.org/dc/dcmitype/StillImage" />
      </cc:Work>
    </rdf:RDF>
  </metadata>
  <sodipodi:namedview
     pagecolor="#ffffff"
     bordercolor="#666666"
     borderopacity="1"
     objecttolerance="10"
     gridtolerance="10"
     guidetolerance="10"
     inkscape:pageopacity="0"
     inkscape:pageshadow="2"
     inkscape:window-width="1366"
     inkscape:window-height="716"
     id="namedview108"
     showgrid="false"
     inkscape:zoom="3.4766083"
     inkscape:cx="28.082324"
     inkscape:cy="34.464921"
     inkscape:window-x="0"
     inkscape:window-y="24"
     inkscape:window-maximized="1"
     inkscape:current-layer="svg2" />
  <defs
     id="defs4">
    <linearGradient
       id="linearGradient3737">
      <stop
         stop-color="#fff"
         offset="0"
         id="stop10" />
      <stop
         stop-color="#fff"
         stop-opacity="0"
         offset="1"
         id="stop12" />
    </linearGradient>
    <linearGradient
       id="linearGradient3813"
       xlink:href="#linearGradient3737"
       gradientUnits="userSpaceOnUse"
       y1="79.39"
       x2="0"
       y2="18.316"
       gradientTransform="translate(1.02838,-2.0217275)" />
    <linearGradient
       id="linearGradient3617"
       gradientUnits="userSpaceOnUse"
       y1="90"
       gradientTransform="matrix(1.0484,0,0,1.0581,120.34634,6.6214915)"
       x2="0"
       y2="5.988">
      <stop
         stop-color="#243c53"
         offset="0"
         id="stop42"
         style="stop-color:#2c2453;stop-opacity:1" />
      <stop
         stop-color="#4975a7"
         offset="1"
         id="stop44" />
    </linearGradient>
    <path
       id="SVGCleanerId_0"
       d="m16.289 15.186 1.5865 2.748 1.5866 2.748-3.1731-0.000001h-3.1731l1.5866-2.748z"
       fill="#fff" />
    <linearGradient
       inkscape:collect="always"
       xlink:href="#linearGradient3737"
       id="linearGradient4190"
       gradientUnits="userSpaceOnUse"
       y1="79.39"
       x2="0"
       y2="18.316"
       gradientTransform="translate(1.02838,-2.0217275)" />
    <linearGradient
       inkscape:collect="always"
       xlink:href="#linearGradient3737"
       id="linearGradient4192"
       gradientUnits="userSpaceOnUse"
       y1="79.39"
       x2="0"
       y2="18.316"
       gradientTransform="translate(1.02838,-2.0217275)" />
    <linearGradient
       inkscape:collect="always"
       xlink:href="#linearGradient3737"
       id="linearGradient4194"
       gradientUnits="userSpaceOnUse"
       y1="79.39"
       x2="0"
       y2="18.316"
       gradientTransform="translate(1.02838,-2.0217275)" />
    <linearGradient
       inkscape:collect="always"
       xlink:href="#linearGradient3617"
       id="linearGradient4222"
       x1="55.440678"
       y1="98.440681"
       x2="65.779663"
       y2="8.1355934"
       gradientUnits="userSpaceOnUse" />
  </defs>
  <rect
     rx="11"
     y="5.5"
     x="5.5"
     height="85"
     width="85"
     id="rect4244"
     style="opacity:1;fill:url(#linearGradient4222);fill-opacity:1;stroke:#000000;stroke-width:1;stroke-linecap:butt;stroke-linejoin:miter;stroke-miterlimit:4;stroke-dasharray:none;stroke-dashoffset:0;stroke-opacity:0.04705882" />
  <path
     style="opacity:1;fill:#ffffff;fill-opacity:1;stroke:#000000;stroke-width:1;stroke-linecap:butt;stroke-linejoin:miter;stroke-miterlimit:4;stroke-dasharray:none;stroke-dashoffset:0;stroke-opacity:0.04705882"
     d="m 18.697674,8.465116 c -5.668837,0 -10.2325578,4.563721 -10.2325578,10.232558 l 0,58.604652 c 0,5.668837 4.5637208,10.232558 10.2325578,10.232558 l 58.604652,0 c 5.668837,0 10.232558,-4.563721 10.232558,-10.232558 l 0,-58.604652 c 0,-5.668837 -4.563721,-10.232558 -10.232558,-10.232558 l -58.604652,0 z m 2.043969,2.757995 54.516714,0 c 5.273338,0 9.518532,4.245194 9.518532,9.518532 l 0,54.516714 c 0,5.273338 -4.245194,9.518532 -9.518532,9.518532 l -54.516714,0 c -5.273338,0 -9.518533,-4.245194 -9.518533,-9.518532 l 0,-54.516714 c 0,-5.273338 4.245195,-9.518532 9.518533,-9.518532 z"
     id="rect4449"
     inkscape:connector-curvature="0" />
  <rect
     style="fill:#ffffff"
     id="rect74"
     x="17.028379"
     y="17.978273"
     width="1"
     height="63" />
  <rect
     style="fill:#ffffff"
     id="rect76"
     x="76.978271"
     y="-77.028381"
     width="1"
     height="63"
     transform="matrix(0,1,-1,0,0,0)" />
  <use
     height="100%"
     width="100%"
     y="0"
     x="0"
     id="use78"
     transform="matrix(0.78787,0,0,0.90976,4.69538,-0.8367275)"
     xlink:href="#SVGCleanerId_0" />
  <use
     height="100%"
     width="100%"
     y="0"
     x="0"
     id="use80"
     transform="matrix(0,0.78787,-0.90976,0,95.84838,64.648273)"
     xlink:href="#SVGCleanerId_0" />
  <rect
     style="fill:#ffffff"
     id="rect82"
     x="15.02838"
     y="64.978271"
     width="2"
     height="1" />
  <rect
     style="fill:#ffffff"
     id="rect84"
     x="15.02838"
     y="52.978271"
     width="2"
     height="1" />
  <rect
     style="fill:#ffffff"
     id="rect86"
     x="15.02838"
     y="40.978271"
     width="2"
     height="1" />
  <rect
     style="fill:#ffffff"
     id="rect88"
     x="15.02838"
     y="28.978273"
     width="2"
     height="1" />
  <rect
     style="opacity:0.4;fill:url(#linearGradient4190)"
     id="rect90"
     x="29.028379"
     y="14.978272"
     width="1"
     height="63" />
  <rect
     style="opacity:0.4;fill:url(#linearGradient4192)"
     id="rect92"
     x="41.028381"
     y="14.978272"
     width="1"
     height="63" />
  <rect
     style="opacity:0.4;fill:url(#linearGradient4194)"
     id="rect94"
     x="53.028381"
     y="14.978272"
     width="1"
     height="63" />
  <rect
     style="opacity:0.4;fill:url(#linearGradient3813)"
     id="rect96"
     x="65.028381"
     y="14.978272"
     width="1"
     height="63" />
  <path
     style="fill:none;stroke:#cbf44b;stroke-width:2.01999998;stroke-linecap:round"
     inkscape:connector-curvature="0"
     id="path104"
     d="m 77.02038,24.493272 -7.888,-8.091 -13.234,14.785001 -4.35,-5.676 -9.053,15.104999 -9.377,1.226 -10.082,6.128" />
  <path
     style="fill:none;stroke:#ffb100;stroke-width:2.01999998;stroke-linecap:round"
     inkscape:connector-curvature="0"
     id="path106"
     d="m 77.02038,63.626273 -5.9362,1.565699 -6.4692,-5.6525 -10.888,7.4309 -8.7119,-17.245 -6.5376,10.433 -7.5348,-4.315 -7.9055,5.7408" />
</svg>
