<?xml version="1.0" encoding="UTF-8" standalone="no"?>
<svg
   xmlns:dc="http://purl.org/dc/elements/1.1/"
   xmlns:cc="http://creativecommons.org/ns#"
   xmlns:rdf="http://www.w3.org/1999/02/22-rdf-syntax-ns#"
   xmlns:svg="http://www.w3.org/2000/svg"
   xmlns="http://www.w3.org/2000/svg"
   xmlns:xlink="http://www.w3.org/1999/xlink"
   xmlns:sodipodi="http://sodipodi.sourceforge.net/DTD/sodipodi-0.dtd"
   xmlns:inkscape="http://www.inkscape.org/namespaces/inkscape"
   height="96"
   width="96"
   id="svg2"
   version="1.1"
   inkscape:version="0.91 r13725"
   sodipodi:docname="applications-internet.svg">
  <metadata
     id="metadata77">
    <rdf:RDF>
      <cc:Work
         rdf:about="">
        <dc:format>image/svg+xml</dc:format>
        <dc:type
           rdf:resource="http://purl.org/dc/dcmitype/StillImage" />
      </cc:Work>
    </rdf:RDF>
  </metadata>
  <sodipodi:namedview
     pagecolor="#ffffff"
     bordercolor="#666666"
     borderopacity="1"
     objecttolerance="10"
     gridtolerance="10"
     guidetolerance="10"
     inkscape:pageopacity="0"
     inkscape:pageshadow="2"
     inkscape:window-width="1366"
     inkscape:window-height="716"
     id="namedview75"
     showgrid="false"
     inkscape:zoom="2.4583333"
     inkscape:cx="74.877828"
     inkscape:cy="48"
     inkscape:window-x="0"
     inkscape:window-y="24"
     inkscape:window-maximized="1"
     inkscape:current-layer="svg2" />
  <defs
     id="defs4">
    <linearGradient
       id="linearGradient3737">
      <stop
         stop-color="#fff"
         offset="0"
         id="stop7" />
      <stop
         stop-color="#fff"
         stop-opacity="0"
         offset="1"
         id="stop9" />
    </linearGradient>
    <radialGradient
       id="radialGradient3169"
       cx="63.98"
       gradientUnits="userSpaceOnUse"
       cy="61.949"
       r="58.02"
       gradientTransform="matrix(1.09,0,0,0.81096,-21.45722,-3.4431017)">
      <stop
         stop-color="#7bb8f0"
         offset="0"
         id="stop12" />
      <stop
         stop-color="#b5d5f2"
         stop-opacity=".122"
         offset="1"
         id="stop14" />
    </radialGradient>
    <radialGradient
       id="radialGradient4103"
       gradientUnits="userSpaceOnUse"
       cy="67.13"
       r="3.125"
       cx="74.38">
      <stop
         stop-color="#fff"
         offset="0"
         id="stop22" />
      <stop
         stop-color="#fff"
         offset=".306"
         id="stop24" />
      <stop
         stop-color="#fff"
         stop-opacity=".641"
         offset=".519"
         id="stop26" />
      <stop
         stop-color="#fff"
         stop-opacity="0"
         offset="1"
         id="stop28" />
    </radialGradient>
    <radialGradient
       id="radialGradient3471"
       cx="63.875"
       xlink:href="#linearGradient3737"
       gradientUnits="userSpaceOnUse"
       cy="2.217"
       r="58.38"
       gradientTransform="matrix(0.84391,0,0,0.33117,-5.816,32.793)" />
    <radialGradient
       id="radialGradient3468"
       cx="64.23"
       xlink:href="#linearGradient3737"
       gradientUnits="userSpaceOnUse"
       cy="68.45"
       r="43.77"
       gradientTransform="matrix(0.97474,0,0,0.92611,-14.268,-12.601)" />
    <radialGradient
       id="radialGradient3465"
       cx="49.23"
       xlink:href="#linearGradient3737"
       gradientUnits="userSpaceOnUse"
       cy="70.61"
       r="25.484"
       gradientTransform="matrix(0.51922,-0.47906,1.2027,1.3,-72.74,-19.888)" />
    <radialGradient
       id="radialGradient3462"
       cx="69.75"
       xlink:href="#linearGradient3737"
       gradientUnits="userSpaceOnUse"
       cy="75.974"
       r="58.5"
       gradientTransform="matrix(0.7069,0,0,0.26398,2.935,34.09)" />
    <path
       id="SVGCleanerId_0"
       d="m77.5 67.125a3.125 3.125 0 1 1 -6.25 0 3.125 3.125 0 1 1 6.25 0z"
       fill-rule="evenodd"
       fill="url(#radialGradient4103)" />
    <linearGradient
       gradientUnits="userSpaceOnUse"
       y2="95.593246"
       x2="78.18644"
       y1="4.0678196"
       x1="43.847458"
       id="linearGradient4167"
       xlink:href="#linearGradient2867-449-88-871-390-598-476-591-434-148-57-177-7-4-9-9-2-2-0-8-0"
       inkscape:collect="always"
       gradientTransform="translate(0,-2.29e-5)" />
    <linearGradient
       id="linearGradient2867-449-88-871-390-598-476-591-434-148-57-177-7-4-9-9-2-2-0-8-0">
      <stop
         offset="0"
         style="stop-color:#54bfec;stop-opacity:1"
         id="stop3750-6-3-7-0-5-3-5-7" />
      <stop
         offset="0.26238"
         style="stop-color:#55c1ec;stop-opacity:1"
         id="stop3752-3-7-7-6-4-4-3-4" />
      <stop
         offset="0.704952"
         style="stop-color:#3689e6;stop-opacity:1"
         id="stop3754-1-7-4-6-36-7-7-2-4" />
      <stop
         offset="1"
         style="stop-color:#2b63a0;stop-opacity:1"
         id="stop3756-7-5-7-1-4-3-1-7" />
    </linearGradient>
  </defs>
  <rect
     rx="11"
     y="5.5"
     x="5.5"
     height="85"
     width="85"
     id="rect4244"
     style="opacity:1;fill:url(#linearGradient4167);fill-opacity:1;stroke:#000000;stroke-width:1;stroke-linecap:butt;stroke-linejoin:miter;stroke-miterlimit:4;stroke-dasharray:none;stroke-dashoffset:0;stroke-opacity:0.04705882" />
  <g
     id="g4191"
     transform="translate(-1.15876,-0.03259203)">
    <path
       inkscape:connector-curvature="0"
       style="opacity:0.8;fill:url(#radialGradient3169)"
       id="path51"
       d="m 36.555781,7.7341983 c 1.6501,2.1379 0.11259,5.7077997 2.6015,5.6723997 1.2119,1.6531 -2.4154,0.49311 0.2036,1.7671 1.5061,1.1444 -1.5934,1.7982 0.27178,2.8252 -2.1497,1.0702 0.34844,5.5976 1.9451,6.7307 2.628,2.1345 1.1622,-4.5191 4.0945,-4.8652 1.5934,-1.755 4.3918,-2.8815 6.3793,-4.647 -1.9423,-0.15213 -3.0765,-1.3186 -1.237,-2.0411 3.3854,3.347 0.8489,-1.5851 -1.0251,-2.366 1.8134,-0.55652 3.577,-0.14898 3.3254,-1.5925997 1.9163,-1.3526 -1.8423,-1.7893 -3.1839,-1.4836 l -13.375,0 z m -27.8020003,1.3962 c -2.4497,0.6734 -2.6206,6.3214997 -0.1583,3.1854997 0.6043,-1.2881 3.3973003,-2.8401997 0.1583,-3.1854997 z m 11.4470003,0.1964 c -1.4123,2.1364997 0.20491,3.8494997 1.3799,1.2435997 0.83171,-1.0881997 -0.61793,-1.2036997 -1.3799,-1.2435997 z m 3.529,0.47998 c -2.7288,1.2201997 -0.6726,4.0656997 -0.60506,4.6984997 2.8746,0.95944 4.4732,-0.6273 5.5607,2.0846 2.7352,1.5209 -0.0538,4.1635 -1.0805,4.8518 1.8493,-1.5539 5.4042,4.2247 4.4723,1.1717 -1.1118,-0.78319 2.9852,1.2582 0.85962,-1.2872 -1.9561,-3.0405 0.15527,-1.3612 0.97995,-0.65158 2.8049,-2.4266 -3.1736,-2.7199 -1.6812,-5.2172 -1.309,-1.0218 -3.024,-4.1173 -5.34,-3.5123 -1.55,1.9347 -0.214,-4.2143997 -2.488,-1.1374 -0.11789,1.72 -0.0429,3.9025 -0.70571,0.92279 -0.44407,-0.52164 0.764,-1.7342997 0.0273,-1.9232997 z m -5.5649,0.021807 c -1.832,0.5891797 -1.734,2.9768997 0.519,3.2325997 0.771,-0.84816 0.306,-3.0717997 -0.519,-3.2324997 z m -7.149,0.7636297 c -2.3790003,0.5438 -1.4079003,2.3947 -0.6795,2.9157 -2.9449003,0.71168 4.4957,0.90958 0.79268,1.3603 -3.0808003,1.187 2.9667,2.5856 3.9588,1.1782 3.8044,0.89763 0.13691,-2.9382 -0.19704,-5.0175 -1.6128,-1.6698997 -0.0636,3.8496 -1.5219,0.17785 -0.50879,1.0904 -2.1265,0.16068 -2.353,-0.61459 z m 75.601,0.23997 c -3.1924,1.2054 1.9842,5.7543 0.69765,1.6159 -0.12817,-0.4997 0.28819,-1.82 -0.69765,-1.6159 z m -66.665,1.8324 c -2.2941,2.08 2.916,3.8 -0.65889,5.3497 -0.53602,-1.9317 -1.4583,0.96646 -3.5035,-0.59353 -3.5159,1.4123 -5.3139,-0.7357 -8.2575003,-2.2081 -1.768,-0.21234 -1.1038,1.6208 -1.2209,3.3372 l 0,14.231 c 1.7335,1.7596 0.67633,0.77635 0,0.29102 0.95147,3.1263 -0.41957,7.6964 3.3309,9.5149 0.6375603,1.1409 3.3129003,6.0018 3.4362003,4.5473 -1.3412,-1.3551 -2.7174,-5.4176 -0.4479,-1.7968 2.0328,3.4418 4.7748,5.6743 8.7805,6.4933 2.1901,0.71872 3.9912,3.1893 5.9171,2.6458 1.089,2.7698 -3.2274,5.4297 0.14491,8.0131 1.7605,2.6153 4.7162,4.3307 3.116,8.0024 -1.1191,3.586 -0.63993,7.4934 -1.6078,10.835 -0.30039,2.0337 2.938,7.1956 2.6575,3.0622 0.94557,-2.8724 0.92064,-6.0331 3.1476,-8.0673 3.0471,0.02325 0.58237,-3.1612 3.607,-2.7452 1.8456,-2.334 2.3802,-5.1184 5.4949,-6.0452 0.37205,-2.8331 5.1788,-7.1721 0.21314,-8.2752 -1.3496,-0.64178 -4.8245,-0.87255 -4.5589,-1.1893 0.53803,-2.8112 -4.4935,-3.6115 -6.6342,-4.7617 -2.8108,-1.9249 -7.0342,3.1976 -8.0245,-1.2162 -0.59088,-1.3887 -2.7513,-1.4113 -1.7584,-3.5542 -1.7894,1.717 -5.2893,1.1951 -4.373,-2.1207 1.3916,-2.7927 6.7356,-2.9247 7.6463,0.43427 -1.2644,-3.7046 2.4439,-6.5884 4.5025,-9.2241 0.41916,-1.2598 2.9097,-2.342 2.0527,-0.6678 1.4602,-0.05081 3.6733,-2.593 1.0794,-1.4197 -0.0367,-2.3184 -2.273,-1.6591 -2.998,-1.3298 1.3438,-2.0577 8.245,-0.93273 5.3551,-4.2962 -2.2393,-0.8754 -2.053,-5.9838 -4.318,-3.1379 0.1906,-1.7534 -4.61,-5.1859 -4.5052,-2.2455 0.58599,2.6311 0.10714,5.6621 -1.1399,7.3867 -0.26025,-3.8554 -7.0757,-3.0033 -6.1994,-7.1117 1.2695,-1.9581 2.7529,-4.6658 2.8942,-4.4223 2.275,-0.83804 4.1046,-3.2757 1.4678,-4.8782 -0.14092,1.3967 -1.983,4.2783 -1.7237,0.79308 -1.7058,1.9512 -1.3162,-3.1049 -2.9138,-3.6293 z m 54.45,1.3526 c -3.9959,0.94306 -5.5801,4.6253 -7.5568,7.6751 -2.9139,1.2675 -2.8029,6.7109 0.45241,4.9723 0.87128,1.4681 -0.60951,3.7822 1.9283,1.8626 2.047,-2.6136 0.35794,-6.8405 3.8414,-8.4884 0.25374,1.2814 -3.2133,6.0661 0.83699,5.2797 3.6616,0.13329 -2.6618,0.35199 -0.88099,2.6085 -1.8503,-1.0592 -0.88884,2.8926 -3.304,1.9731 -2.0923,1.0981 -3.4643,-0.50983 -2.985,-2.2712 -1.646,0.92641 0.5177,3.5399 -2.3396,3.697 -0.64005,2.1928 -5.9034,1.8623 -2.9102,4.0951 1.3289,3.3228 -4.9515,0.2083 -3.1685,4.1958 1.5254,3.943 4.7224,-1.3065 6.0194,-2.3208 2.5025,-1.8728 6.2107,3.1933 3.9588,3.3816 2.5251,-0.32686 2.0062,-2.6438 -0.0169,-3.5407 -1.0927,-2.7341 3.459,1.3408 3.2066,2.7117 1.606,2.9014 0.94462,-2.9706 2.5788,-0.37088 -0.1908,2.7423 6.5742,0.64478 3.3444,4.1398 -2.7769,0.53962 -5.5101,-0.69068 -7.9008,0.09734 -2.2251,-0.019 -2.1135,-2.3127 -2.9236,-2.8871 -2.8304,0.22186 -6.3279,0.19678 -8.2228,2.4028 -2.049,2.7123 -5.0038,6.5039 -2.7705,9.9676 2.2349,5.1322 7.7772,0.26621 10.963,3.2972 0.94693,1.2637 -0.8206,2.766 1.2967,4.1349 0.79672,2.916 -0.90448,5.6847 1.0523,8.4722 1.0118,2.6215 1.6398,6.5453 5.4058,4.1498 3.9858,-2.3142 2.9242,-6.58 6.2129,-8.9428 -2.6023,-4.8589 3.1836,-6.9893 4.6272,-10.933 -3.154,0.44548 -5.9638,-2.5883 -6.7258,-5.6418 -1.3249,-1.4832 -0.98368,-3.6701 0.49633,-0.88387 2.0343,1.9017 2.0782,7.5449 5.8413,4.6418 1.7204,-0.69424 6.4186,-3.3425 2.6751,-4.5476 -2.413,1.6862 -5.0752,-5.0385 -1.5318,-1.138 2.576,1.0545 4.38,1.6826 4.38,-1.8133 l 0,-28.448 c -0.8024,0.7911 -2.8638,2.2522 -3.9043,1.2813 -1.7904,0.24053 -4.1539,3.6014 -3.5912,0.35254 -1.5562,-0.09943 -0.27858,2.9131 -2.4166,2.9973 -0.21529,1.5488 -2.1599,0.2868 -1.4294,1.7576 -1.5006,-1.027 -2.7707,-4.2695 0.18614,-2.2344 4.391,-1.271 -2.8956,-4.1378 -3.458,-4.8307 0.94545,-0.21855 -1.0286,-1.1691 -1.2668,-0.85086 z m -36.24,0.85086 c -1.4615,1.1749 2.7785,1.3961 0,0 z m -19.522,0.63269 c -1.6346,1.6497 2.6033,1.5166 0,0 z m 9.4784,1.6363 c -1.2379,1.9565 1.829,0.7223 0,0 z m 27.101,2.3126 c -1.4492,1.6097 -3.362,-0.42364 -3.3932,0.95994 0.26265,0.41806 1.3147,3.4018 3.6194,1.2 1.237,-0.50315 0.74995,-1.7716 -0.22622,-2.1599 z m -30.856,0.95994 c -2.7488,2.3161 4.6683,2.5294 0.58232,0.26563 l -0.58232,-0.26563 z m 36.262,6.4142 c -1.9791,1.2451 0.94943,3.8894 -0.0431,5.1315 -1.2401,2.0846 4.6083,-0.14684 1.4846,-1.81 -0.22257,-1.4289 -1.83,-3.1723 -1.4415,-3.3215 z m -1.3347,2.509 c -2.7574,0.75212 -0.62595,4.6352 0.35067,0.97794 0.0549,-0.21204 0.12936,-0.98498 -0.35067,-0.97794 z m -22.079,2.8144 c -2.5652,1.6876 -0.39843,3.3721 1.4816,2.6128 -0.38596,-1.0182 -1.4642,-1.6597 -1.4816,-2.6128 z m 48.455,2.8362 c 1.28,0.62322 -2.3455,1.6878 -0.0498,2.7846 1.336,1.5158 0.83231,4.7696 -1.3392,2.4667 0.40344,-2.5712 -2.9436,-4.4914 1.389,-5.2513 z m -6.5829,0.02181 c -0.17366,1.6518 3.694,4.2196 -0.47504,3.3816 -2.2048,0.24953 -5.507,-0.065 -2.7294,-2.7156 0.87765,-0.50834 3.1821,1.7538 1.9829,-0.36065 0.42513,-0.02617 0.82107,-0.181 1.2216,-0.30543 z m -12.735,3.5769 c -1.6081,0.99955 1.112,1.766 0,0 z m -40.379,9.3159 c -0.27111,0.87262 5.086,1.7569 1.3893,0.35891 l -0.55107,-0.18714 -0.83822,-0.17176 z m 4.1624,1.2436 c -1.6249,1.5915 3.3478,0.47548 0,0 z m 54.337,14.595 c -3.5307,0.0879 -3.0613,8.8743 -0.60013,3.6753 0.2334,-1.1282 1.1689,-2.6172 0.60013,-3.6753 z" />
    <g
       id="g53"
       transform="translate(2.2367807,-0.93710169)">
      <use
         height="100%"
         width="100%"
         y="0"
         x="0"
         id="use55"
         transform="matrix(1.3572,0,0,1.3554,-73.27,-53.872)"
         xlink:href="#SVGCleanerId_0" />
      <use
         height="100%"
         width="100%"
         y="0"
         x="0"
         id="use57"
         transform="matrix(1.0745,0,0,1.073,-39.514,-14.09)"
         xlink:href="#SVGCleanerId_0" />
      <use
         height="100%"
         width="100%"
         y="0"
         x="0"
         id="use59"
         transform="matrix(1.5834,0,0,1.5813,-53.33,-72.39)"
         xlink:href="#SVGCleanerId_0" />
      <use
         height="100%"
         width="100%"
         y="0"
         x="0"
         style="opacity:0.6"
         id="use61"
         transform="matrix(1.0219,0,0,1.0206,-15.636,-16.922)"
         xlink:href="#SVGCleanerId_0" />
      <use
         height="100%"
         width="100%"
         y="0"
         x="0"
         style="opacity:0.6"
         id="use63"
         transform="matrix(0.79409,0,0,0.79303,-44.28,-21.768)"
         xlink:href="#SVGCleanerId_0" />
      <use
         height="100%"
         width="100%"
         y="0"
         x="0"
         style="opacity:0.6"
         id="use65"
         transform="matrix(0.56552,0,0,0.56477,38.457,3.262)"
         xlink:href="#SVGCleanerId_0" />
      <path
         inkscape:connector-curvature="0"
         style="fill:none;stroke:url(#radialGradient3471);stroke-width:2"
         id="path67"
         d="m 7.1767,47.702 c 28.099,-19.414 65.211,-20.473 81.823,1.588" />
      <path
         inkscape:connector-curvature="0"
         style="fill:none;stroke:url(#radialGradient3468);stroke-width:2"
         id="path69"
         d="M 27.677,88.824 C 26.616,73.292 56.129,28.641 88.823,20.875" />
      <path
         inkscape:connector-curvature="0"
         style="fill:none;stroke:url(#radialGradient3465);stroke-width:2"
         id="path71"
         d="M 7,29.523 C 58.25,38.348 38.634,89 38.634,89" />
      <path
         inkscape:connector-curvature="0"
         style="opacity:0.6;fill:none;stroke:url(#radialGradient3462);stroke-width:1.5"
         id="path73"
         d="m 7.1767,67.821 c 51.25,-11.472 82,-30.179 82,-30.179" />
    </g>
  </g>
  <path
     style="opacity:1;fill:#ffffff;fill-opacity:1;stroke:#000000;stroke-width:1;stroke-linecap:butt;stroke-linejoin:miter;stroke-miterlimit:4;stroke-dasharray:none;stroke-dashoffset:0;stroke-opacity:0.04705882"
     d="m 18.697674,8.465116 c -5.668837,0 -10.2325578,4.563721 -10.2325578,10.232558 l 0,58.604652 c 0,5.668837 4.5637208,10.232558 10.2325578,10.232558 l 58.604652,0 c 5.668837,0 10.232558,-4.563721 10.232558,-10.232558 l 0,-58.604652 c 0,-5.668837 -4.563721,-10.232558 -10.232558,-10.232558 l -58.604652,0 z m 2.043969,2.757995 54.516714,0 c 5.273338,0 9.518532,4.245194 9.518532,9.518532 l 0,54.516714 c 0,5.273338 -4.245194,9.518532 -9.518532,9.518532 l -54.516714,0 c -5.273338,0 -9.518533,-4.245194 -9.518533,-9.518532 l 0,-54.516714 c 0,-5.273338 4.245195,-9.518532 9.518533,-9.518532 z"
     id="rect4449"
     inkscape:connector-curvature="0" />
</svg>
