<?xml version="1.0" encoding="UTF-8" standalone="no"?>
<svg
   xmlns:dc="http://purl.org/dc/elements/1.1/"
   xmlns:cc="http://creativecommons.org/ns#"
   xmlns:rdf="http://www.w3.org/1999/02/22-rdf-syntax-ns#"
   xmlns:svg="http://www.w3.org/2000/svg"
   xmlns="http://www.w3.org/2000/svg"
   xmlns:xlink="http://www.w3.org/1999/xlink"
   xmlns:sodipodi="http://sodipodi.sourceforge.net/DTD/sodipodi-0.dtd"
   xmlns:inkscape="http://www.inkscape.org/namespaces/inkscape"
   height="96"
   width="96"
   id="svg2"
   version="1.1"
   inkscape:version="0.91 r13725"
   sodipodi:docname="applications-system.svg">
  <metadata
     id="metadata108">
    <rdf:RDF>
      <cc:Work
         rdf:about="">
        <dc:format>image/svg+xml</dc:format>
        <dc:type
           rdf:resource="http://purl.org/dc/dcmitype/StillImage" />
      </cc:Work>
    </rdf:RDF>
  </metadata>
  <sodipodi:namedview
     pagecolor="#ffffff"
     bordercolor="#666666"
     borderopacity="1"
     objecttolerance="10"
     gridtolerance="10"
     guidetolerance="10"
     inkscape:pageopacity="0"
     inkscape:pageshadow="2"
     inkscape:window-width="1366"
     inkscape:window-height="716"
     id="namedview106"
     showgrid="false"
     inkscape:zoom="5.6568542"
     inkscape:cx="51.632477"
     inkscape:cy="49.786117"
     inkscape:window-x="0"
     inkscape:window-y="24"
     inkscape:window-maximized="1"
     inkscape:current-layer="svg2" />
  <defs
     id="defs4">
    <linearGradient
       id="linearGradient4158"
       inkscape:collect="always">
      <stop
         id="stop4160"
         offset="0"
         style="stop-color:#647987;stop-opacity:1" />
      <stop
         id="stop4162"
         offset="1"
         style="stop-color:#323c43;stop-opacity:1" />
    </linearGradient>
    <linearGradient
       gradientUnits="userSpaceOnUse"
       y2="95.593246"
       x2="78.18644"
       y1="7.5194592"
       x1="53.05183"
       id="linearGradient4167"
       xlink:href="#linearGradient4158"
       inkscape:collect="always"
       gradientTransform="translate(0,-2.29e-5)" />
  </defs>
  <rect
     rx="11"
     y="5.5"
     x="5.5"
     height="85"
     width="85"
     id="rect4244"
     style="opacity:1;fill:url(#linearGradient4167);fill-opacity:1;stroke:#000000;stroke-width:1;stroke-linecap:butt;stroke-linejoin:miter;stroke-miterlimit:4;stroke-dasharray:none;stroke-dashoffset:0;stroke-opacity:0.04705882" />
  <path
     style="display:inline;fill:#ffffff;fill-opacity:1;stroke:#000000;stroke-width:0.93104577;stroke-opacity:0.04705882"
     d="m 18.672026,8.4305521 c -5.673793,0 -10.2415032,4.5677109 -10.2415032,10.2415039 l 0,12.214521 c 2.8714752,6.115048 9.0678822,10.359703 16.2696622,10.359703 9.930879,0 17.982647,-8.053591 17.982647,-17.984459 0,-6.158158 -3.106575,-11.589072 -7.828429,-14.8312689 l -16.182377,0 z m 22.637877,0 c 3.436164,3.9214389 5.518988,9.0588309 5.518988,14.6803379 0,12.30222 -9.979238,22.281454 -22.281453,22.281454 -6.333401,10e-7 -12.057062,-2.65305 -16.1169152,-6.899195 l 0,5.791759 0.9983319,0.771023 -0.3964199,0.549171 -0.601912,1.687521 0,2.880423 1.15108,0.643731 2.1021242,-1.614783 1.158361,-1.402024 0.305495,-0.609181 2.46945,1.034699 -0.243664,0.640093 -0.152757,1.798445 0.36551,2.653118 1.676609,0.456432 1.645698,-2.133042 0.73102,-1.645696 0.121836,-0.671008 2.682213,0.36551 -0.06005,0.640093 0.274585,1.798446 1.036523,2.469453 1.736615,0 1.036514,-2.469453 0.305505,-1.798446 -0.06182,-0.640093 2.651303,-0.36551 0.121836,0.671008 0.761931,1.645696 1.616593,2.133042 1.676609,-0.456432 0.365509,-2.653118 -0.183658,-1.798445 -0.212761,-0.640093 2.469458,-1.034699 0.30368,0.609181 1.127431,1.402024 2.13486,1.614783 1.492951,-0.852853 -0.334599,-2.651298 -0.640095,-1.707524 -0.367325,-0.549171 2.13486,-1.645698 0.425516,0.518259 1.463856,1.036516 2.50037,1.036516 1.218357,-1.249274 -1.036515,-2.469454 -1.036514,-1.463852 -0.518257,-0.425516 1.645688,-2.13486 0.549177,0.365509 1.707519,0.640095 2.651302,0.336412 0.852848,-1.492946 -1.614779,-2.134859 -1.402024,-1.158352 -0.609183,-0.243673 1.036515,-2.498549 0.640094,0.212759 1.798445,0.183663 2.651302,-0.367327 0.427341,-1.674791 -2.10395,-1.647514 -1.645698,-0.731017 -0.671004,-0.121836 0.36551,-2.682212 0.671004,0.06183 1.767535,-0.3055 2.46945,-1.005601 0,-1.738438 -2.46945,-1.036516 -1.767535,-0.303681 -0.671004,0.06001 -0.36551,-2.682211 0.671004,-0.121837 1.645698,-0.731017 2.10395,-1.645695 -0.427341,-1.67661 -2.651302,-0.334594 -1.798445,0.15093 -0.640094,0.243673 -1.036515,-2.498549 0.609183,-0.274585 1.402024,-1.158353 1.394782,-1.8166309 -10.723394,0 z M 24.700185,9.9725969 c 7.346128,0 13.289226,5.9430991 13.289226,13.2892241 0,7.346123 -5.943098,13.320137 -13.289226,13.320137 -7.346101,0 -13.320138,-5.974013 -13.320138,-13.320137 0,-7.346124 5.974037,-13.2892241 13.320138,-13.2892241 z m 42.520797,27.5240411 -1.158351,2.74404 -0.336415,1.951196 0.06182,0.76193 -2.956798,0.365508 -0.121836,-0.701921 -0.823752,-1.827542 -1.827541,-2.347617 -1.829365,0.487344 -0.396421,2.925885 0.183667,2.013023 0.243674,0.669188 -2.744043,1.158353 -0.30368,-0.671007 -1.280188,-1.552956 -2.378533,-1.798446 -1.645698,0.974689 0.396421,2.956797 0.671013,1.82936 0.425516,0.640093 -2.345798,1.798447 -0.489162,-0.549172 -1.614787,-1.189266 -2.744034,-1.096524 -1.371114,1.340197 1.127441,2.744039 1.158351,1.614783 0.580079,0.487344 -1.829356,2.378532 -0.609183,-0.427337 -1.860267,-0.700102 -2.925886,-0.396422 -0.974693,1.67661 1.798445,2.345798 1.554782,1.280189 0.640093,0.305499 -1.129256,2.74404 -0.700109,-0.245492 -1.982104,-0.181844 -2.925885,0.396422 -0.518258,1.858455 2.347614,1.798446 1.829365,0.823757 0.731011,0.15275 -0.396421,2.954979 -0.73102,-0.06001 -1.982103,0.305499 -2.742219,1.156534 0,1.920282 2.742219,1.129257 1.982103,0.334594 0.73102,-0.06001 0.396421,2.95498 -0.731011,0.152749 -1.829365,0.792844 -2.347614,1.829359 0.518258,1.858455 2.925885,0.396422 1.982104,-0.212758 0.700109,-0.243673 1.129256,2.742221 -0.640093,0.336414 -1.554782,1.249273 -0.75465,0.998329 10.063293,0 c -0.655924,-0.841357 -1.266244,-1.721167 -1.811175,-2.644021 l 10.637925,-4.87708 c 2.259359,3.138269 5.866482,5.249446 9.96692,5.486261 l 0.276399,2.034844 5.089841,0 -0.367326,-2.705852 c 3.694763,-1.253068 6.663383,-4.092738 8.077547,-7.710223 l 7.026492,1.292918 c 0.03969,-0.367774 0.0637,-0.739692 0.0637,-1.118347 l 0,-4.018772 -6.17546,-1.12562 C 81.344904,68.054203 79.37549,64.394879 76.364196,62.003881 l 5.364428,-10.394255 c 2.22421,1.457374 4.192483,3.27036 5.840853,5.344423 l 0,-7.41018 -0.292777,0.329139 -2.347608,-1.798446 0.396422,-0.640094 0.731008,-1.829359 0.36734,-2.956799 -1.676618,-0.974688 -2.347618,1.798446 -1.249281,1.552956 -0.336403,0.671007 -2.742223,-1.158352 0.243673,-0.669189 0.212756,-2.013022 -0.425512,-2.925885 -1.829365,-0.487345 -1.829356,2.347617 -0.821936,1.827542 -0.121838,0.701921 -2.956795,-0.365508 0.05996,-0.761929 -0.3346,-1.951197 -1.127431,-2.744039 -1.920282,0 z m 0.943773,10.05966 c 3.203831,0 6.271729,0.629274 9.083155,1.736619 l -5.364427,10.363339 c -1.179682,-0.345566 -2.427787,-0.518257 -3.718728,-0.518257 -2.559725,0 -4.954216,0.720763 -6.979213,1.982109 L 53.22983,52.555213 c 4.155677,-3.137947 9.330606,-4.998915 14.934925,-4.998915 z m -47.548798,6.157268 -0.945598,2.042118 -0.06182,0.700102 0.183667,1.22018 -2.194866,0.578267 -0.425516,-1.158353 -0.42734,-0.578265 -1.798446,-1.311102 -1.067425,0.60918 0.21458,2.225781 0.303678,0.640095 0.761931,0.974687 -1.583868,1.585687 -0.976508,-0.76193 -0.640094,-0.305499 -2.2239711,-0.212759 -0.6109985,1.036518 1.3111086,1.798445 0.580078,0.425517 1.127441,0.458249 -0.580079,2.163956 -1.218366,-0.183664 -0.7310115,0.06183 -1.1819997,0.536443 0,1.974836 1.1819997,0.536442 0.7310115,0.06183 1.218366,-0.15275 0.580079,2.163954 -1.158351,0.456431 -0.580088,0.396422 -1.3092837,1.82936 0.578272,1.036516 2.2257777,-0.214578 0.671014,-0.303681 0.974684,-0.761931 1.585692,1.58387 -0.792851,0.976507 -0.305495,0.671008 -0.212762,2.193049 1.036524,0.610999 1.82754,-1.280188 0.396421,-0.580085 0.487337,-1.158353 2.16578,0.580086 -0.183667,1.218361 0.06182,0.731016 0.912862,2.042119 1.189262,0 0.945589,-2.042119 0.06005,-0.700103 -0.181842,-1.249274 2.163945,-0.549172 0.456437,1.127438 0.427331,0.609181 1.798445,1.280188 1.036515,-0.578266 -0.214568,-2.225782 -0.272769,-0.640094 -0.761931,-0.974688 1.583868,-1.585688 0.976508,0.76193 0.640094,0.305499 2.223961,0.212759 0.609184,-1.036516 -1.309283,-1.798446 -0.580089,-0.425516 -1.158351,-0.458251 0.609183,-2.163954 1.220173,0.183663 0.70011,-0.06183 2.042118,-0.914679 0,-1.21836 -2.011208,-0.91468 -0.73102,-0.09092 -1.220173,0.181846 -0.578272,-2.163954 1.158351,-0.456431 0.578273,-0.427336 1.311099,-1.798446 -0.609184,-1.036516 -2.194866,0.214578 -0.671005,0.30368 -0.974693,0.76193 -1.585683,-1.614782 0.792841,-0.945594 0.274583,-0.669189 0.243674,-2.194867 -1.036513,-0.610998 -1.829357,1.280188 -0.425526,0.580084 -0.458241,1.158352 -2.163955,-0.580085 0.183657,-1.249275 -0.06182,-0.700102 -0.914678,-2.042118 -1.187447,0 z m 28.895146,2.28579 7.955712,8.564894 c -1.595375,2.184153 -2.529455,4.862119 -2.529455,7.772051 0,1.074258 0.152384,2.140316 0.394595,3.140461 l -10.636099,4.846167 c -0.856068,-2.510182 -1.342019,-5.18856 -1.342019,-7.986628 0,-6.262706 2.321517,-11.972267 6.157267,-16.336945 z m -28.376889,8.168472 c 1.768522,0 3.20047,1.431959 3.20047,3.200469 0,1.768511 -1.431948,3.200471 -3.20047,3.200471 -1.768503,0 -3.200469,-1.43196 -3.200469,-3.200471 0,-1.76851 1.431966,-3.200469 3.200469,-3.200469 z m 47.030542,3.200469 c 2.720795,0 4.938908,2.187211 4.938908,4.907995 0,2.720789 -2.218114,4.937088 -4.938908,4.937088 -2.720776,0 -4.906174,-2.216299 -4.906174,-4.937088 0,-2.720784 2.185397,-4.907995 4.906174,-4.907995 z"
     id="path6159"
     inkscape:connector-curvature="0" />
  <path
     style="opacity:1;fill:#ffffff;fill-opacity:1;stroke:#000000;stroke-width:1;stroke-linecap:butt;stroke-linejoin:miter;stroke-miterlimit:4;stroke-dasharray:none;stroke-dashoffset:0;stroke-opacity:0.04705882"
     d="m 18.697674,8.465116 c -5.668837,0 -10.2325578,4.563721 -10.2325578,10.232558 l 0,58.604652 c 0,5.668837 4.5637208,10.232558 10.2325578,10.232558 l 58.604652,0 c 5.668837,0 10.232558,-4.563721 10.232558,-10.232558 l 0,-58.604652 c 0,-5.668837 -4.563721,-10.232558 -10.232558,-10.232558 l -58.604652,0 z m 2.043969,2.757995 54.516714,0 c 5.273338,0 9.518532,4.245194 9.518532,9.518532 l 0,54.516714 c 0,5.273338 -4.245194,9.518532 -9.518532,9.518532 l -54.516714,0 c -5.273338,0 -9.518533,-4.245194 -9.518533,-9.518532 l 0,-54.516714 c 0,-5.273338 4.245195,-9.518532 9.518533,-9.518532 z"
     id="rect4449"
     inkscape:connector-curvature="0" />
</svg>
