<?xml version="1.0" encoding="UTF-8" standalone="no"?>
<!-- Created with Inkscape (http://www.inkscape.org/) -->

<svg
   xmlns:dc="http://purl.org/dc/elements/1.1/"
   xmlns:cc="http://creativecommons.org/ns#"
   xmlns:rdf="http://www.w3.org/1999/02/22-rdf-syntax-ns#"
   xmlns:svg="http://www.w3.org/2000/svg"
   xmlns="http://www.w3.org/2000/svg"
   xmlns:sodipodi="http://sodipodi.sourceforge.net/DTD/sodipodi-0.dtd"
   xmlns:inkscape="http://www.inkscape.org/namespaces/inkscape"
   sodipodi:docname="accessories-text-editor-symbolic.svg"
   inkscape:version="0.91 r13725"
   version="1.1"
   id="svg7384"
   width="24"
   height="24">
  <metadata
     id="metadata90">
    <rdf:RDF>
      <cc:Work
         rdf:about="">
        <dc:format>image/svg+xml</dc:format>
        <dc:type
           rdf:resource="http://purl.org/dc/dcmitype/StillImage" />
        <dc:title>Gnome Symbolic Icon Theme</dc:title>
      </cc:Work>
    </rdf:RDF>
  </metadata>
  <sodipodi:namedview
     inkscape:window-maximized="1"
     inkscape:snap-nodes="true"
     inkscape:snap-others="false"
     inkscape:object-paths="false"
     inkscape:zoom="11.660796"
     showborder="true"
     showgrid="false"
     inkscape:snap-global="true"
     inkscape:current-layer="layer11"
     inkscape:pageopacity="0"
     inkscape:pageshadow="2"
     inkscape:object-nodes="false"
     bordercolor="#666666"
     gridtolerance="10"
     inkscape:snap-bbox-midpoints="false"
     inkscape:window-height="716"
     pagecolor="#ffffff"
     id="namedview88"
     showguides="true"
     inkscape:window-x="0"
     inkscape:window-y="24"
     inkscape:snap-bbox="true"
     borderopacity="1"
     inkscape:window-width="1366"
     inkscape:cx="24.996106"
     inkscape:cy="7.6481056"
     inkscape:bbox-paths="false"
     objecttolerance="10"
     inkscape:guide-bbox="true"
     inkscape:snap-to-guides="true"
     guidetolerance="10"
     inkscape:snap-grids="true">
    <inkscape:grid
       visible="true"
       spacingx="1px"
       spacingy="1px"
       enabled="true"
       empspacing="2"
       snapvisiblegridlinesonly="true"
       id="grid4866"
       type="xygrid" />
  </sodipodi:namedview>
  <title
     id="title9167">Gnome Symbolic Icon Theme</title>
  <defs
     id="defs7386" />
  <g
     inkscape:groupmode="layer"
     inkscape:label="status"
     transform="translate(-163.0002,-501)"
     id="layer9"
     style="display:inline" />
  <g
     inkscape:groupmode="layer"
     inkscape:label="devices"
     transform="translate(-163.0002,-501)"
     id="layer10" />
  <g
     inkscape:groupmode="layer"
     inkscape:label="apps"
     transform="translate(-163.0002,-501)"
     id="layer11">
    <g
       id="g4152"
       transform="matrix(0.87451508,0,0,0.87451508,25.020689,60.879583)">
      <path
         inkscape:connector-curvature="0"
         style="color:#000000;font-style:normal;font-variant:normal;font-weight:normal;font-stretch:normal;font-size:medium;line-height:normal;font-family:Sans;-inkscape-font-specification:Sans;text-indent:0;text-align:start;text-decoration:none;text-decoration-line:none;letter-spacing:normal;word-spacing:normal;text-transform:none;direction:ltr;block-progression:tb;writing-mode:lr-tb;baseline-shift:baseline;text-anchor:start;display:inline;overflow:visible;visibility:visible;fill:#eeeeee;fill-opacity:1;stroke:none;stroke-width:1;marker:none;enable-background:accumulate"
         id="path3601-2"
         d="m 168.40625,515 a 0.50219246,0.50219246 0 1 0 0.0937,1 l 6,0 a 0.50005,0.50005 0 1 0 0,-1 l -6,0 a 0.50005,0.50005 0 0 0 -0.0937,0 z" />
      <path
         inkscape:connector-curvature="0"
         style="color:#000000;font-style:normal;font-variant:normal;font-weight:normal;font-stretch:normal;font-size:medium;line-height:normal;font-family:Sans;-inkscape-font-specification:Sans;text-indent:0;text-align:start;text-decoration:none;text-decoration-line:none;letter-spacing:normal;word-spacing:normal;text-transform:none;direction:ltr;block-progression:tb;writing-mode:lr-tb;baseline-shift:baseline;text-anchor:start;display:inline;overflow:visible;visibility:visible;fill:#eeeeee;fill-opacity:1;stroke:none;stroke-width:1;marker:none;enable-background:accumulate"
         id="path3601-2-3"
         d="m 168.40625,517 a 0.50219246,0.50219246 0 1 0 0.0937,1 l 5,0 a 0.50005,0.50005 0 1 0 0,-1 l -5,0 a 0.50005,0.50005 0 0 0 -0.0937,0 z" />
      <path
         inkscape:connector-curvature="0"
         style="color:#000000;font-style:normal;font-variant:normal;font-weight:normal;font-stretch:normal;font-size:medium;line-height:normal;font-family:Sans;-inkscape-font-specification:Sans;text-indent:0;text-align:start;text-decoration:none;text-decoration-line:none;letter-spacing:normal;word-spacing:normal;text-transform:none;direction:ltr;block-progression:tb;writing-mode:lr-tb;baseline-shift:baseline;text-anchor:start;display:inline;overflow:visible;visibility:visible;fill:#eeeeee;fill-opacity:1;stroke:none;stroke-width:1;marker:none;enable-background:accumulate"
         id="path3601-2-3-2"
         d="m 168.40625,519 a 0.50219246,0.50219246 0 1 0 0.0937,1 l 6,0 a 0.50005,0.50005 0 1 0 0,-1 l -6,0 a 0.50005,0.50005 0 0 0 -0.0937,0 z" />
      <path
         inkscape:connector-curvature="0"
         style="color:#000000;font-style:normal;font-variant:normal;font-weight:normal;font-stretch:normal;font-size:medium;line-height:normal;font-family:Sans;-inkscape-font-specification:Sans;text-indent:0;text-align:start;text-decoration:none;text-decoration-line:none;letter-spacing:normal;word-spacing:normal;text-transform:none;direction:ltr;block-progression:tb;writing-mode:lr-tb;baseline-shift:baseline;text-anchor:start;display:inline;overflow:visible;visibility:visible;fill:#eeeeee;fill-opacity:1;stroke:none;stroke-width:1;marker:none;enable-background:accumulate"
         id="path3601-2-3-3"
         d="m 168.40625,521 a 0.50219246,0.50219246 0 1 0 0.0937,1 l 3,0 a 0.50005,0.50005 0 1 0 0,-1 l -3,0 a 0.50005,0.50005 0 0 0 -0.0937,0 z" />
      <path
         style="color:#000000;font-style:normal;font-variant:normal;font-weight:normal;font-stretch:normal;font-size:medium;line-height:normal;font-family:Sans;-inkscape-font-specification:Sans;text-indent:0;text-align:start;text-decoration:none;text-decoration-line:none;letter-spacing:normal;word-spacing:normal;text-transform:none;direction:ltr;block-progression:tb;writing-mode:lr-tb;text-anchor:start;display:inline;overflow:visible;visibility:visible;fill:#eeeeee;fill-opacity:1;stroke:none;stroke-width:2;marker:none;enable-background:new"
         inkscape:connector-curvature="0"
         id="rect10788"
         sodipodi:nodetypes="csssssscccc"
         d="m 167.0002,510 c -1.0907,0 -2,0.9093 -2,2 l 0,11 c 0,1.0907 0.9093,2 2,2 l 9,0 c 1.0907,0 2,-0.9093 2,-2 l 0,-11 c 0,-1.0907 -0.9093,-2 -2,-2 0,4.33333 0,8.66667 0,13 l -9,0 c 0,-4.33333 0,-8.66667 0,-13 z" />
      <path
         inkscape:connector-curvature="0"
         style="color:#000000;font-style:normal;font-variant:normal;font-weight:normal;font-stretch:normal;font-size:medium;line-height:normal;font-family:Sans;-inkscape-font-specification:Sans;text-indent:0;text-align:start;text-decoration:none;text-decoration-line:none;letter-spacing:normal;word-spacing:normal;text-transform:none;direction:ltr;block-progression:tb;writing-mode:lr-tb;baseline-shift:baseline;text-anchor:start;display:inline;overflow:visible;visibility:visible;fill:#eeeeee;fill-opacity:1;stroke:none;stroke-width:1;marker:none;enable-background:accumulate"
         id="path3601-2-3-3-9"
         d="M 168.40625,509 A 0.50005,0.50005 0 0 0 168,509.5 l 0,3 a 0.50005,0.50005 0 1 0 1,0 l 0,-3 a 0.50005,0.50005 0 0 0 -0.59375,-0.5 z" />
      <path
         inkscape:connector-curvature="0"
         style="color:#000000;font-style:normal;font-variant:normal;font-weight:normal;font-stretch:normal;font-size:medium;line-height:normal;font-family:Sans;-inkscape-font-specification:Sans;text-indent:0;text-align:start;text-decoration:none;text-decoration-line:none;letter-spacing:normal;word-spacing:normal;text-transform:none;direction:ltr;block-progression:tb;writing-mode:lr-tb;baseline-shift:baseline;text-anchor:start;display:inline;overflow:visible;visibility:visible;fill:#eeeeee;fill-opacity:1;stroke:none;stroke-width:1;marker:none;enable-background:accumulate"
         id="path3601-2-3-3-9-3"
         d="M 170.40625,509 A 0.50005,0.50005 0 0 0 170,509.5 l 0,3 a 0.50005,0.50005 0 1 0 1,0 l 0,-3 a 0.50005,0.50005 0 0 0 -0.59375,-0.5 z" />
      <path
         inkscape:connector-curvature="0"
         style="color:#000000;font-style:normal;font-variant:normal;font-weight:normal;font-stretch:normal;font-size:medium;line-height:normal;font-family:Sans;-inkscape-font-specification:Sans;text-indent:0;text-align:start;text-decoration:none;text-decoration-line:none;letter-spacing:normal;word-spacing:normal;text-transform:none;direction:ltr;block-progression:tb;writing-mode:lr-tb;baseline-shift:baseline;text-anchor:start;display:inline;overflow:visible;visibility:visible;fill:#eeeeee;fill-opacity:1;stroke:none;stroke-width:1;marker:none;enable-background:accumulate"
         id="path3601-2-3-3-9-3-3"
         d="M 172.40625,509 A 0.50005,0.50005 0 0 0 172,509.5 l 0,3 a 0.50005,0.50005 0 1 0 1,0 l 0,-3 a 0.50005,0.50005 0 0 0 -0.59375,-0.5 z" />
      <path
         inkscape:connector-curvature="0"
         style="color:#000000;font-style:normal;font-variant:normal;font-weight:normal;font-stretch:normal;font-size:medium;line-height:normal;font-family:Sans;-inkscape-font-specification:Sans;text-indent:0;text-align:start;text-decoration:none;text-decoration-line:none;letter-spacing:normal;word-spacing:normal;text-transform:none;direction:ltr;block-progression:tb;writing-mode:lr-tb;baseline-shift:baseline;text-anchor:start;display:inline;overflow:visible;visibility:visible;fill:#eeeeee;fill-opacity:1;stroke:none;stroke-width:1;marker:none;enable-background:accumulate"
         id="path3601-2-3-3-9-3-3-7"
         d="M 174.40625,509 A 0.50005,0.50005 0 0 0 174,509.5 l 0,3 a 0.50005,0.50005 0 1 0 1,0 l 0,-3 a 0.50005,0.50005 0 0 0 -0.59375,-0.5 z" />
    </g>
  </g>
  <g
     inkscape:groupmode="layer"
     inkscape:label="places"
     transform="translate(-163.0002,-501)"
     id="layer13" />
  <g
     inkscape:groupmode="layer"
     inkscape:label="mimetypes"
     transform="translate(-163.0002,-501)"
     id="layer14" />
  <g
     inkscape:groupmode="layer"
     inkscape:label="emblems"
     transform="translate(-163.0002,-501)"
     id="layer15"
     style="display:inline" />
  <g
     inkscape:groupmode="layer"
     inkscape:label="emotes"
     transform="translate(-163.0002,-501)"
     id="g71291"
     style="display:inline" />
  <g
     inkscape:groupmode="layer"
     inkscape:label="categories"
     transform="translate(-163.0002,-501)"
     id="g4953"
     style="display:inline" />
  <g
     inkscape:groupmode="layer"
     inkscape:label="actions"
     transform="translate(-163.0002,-501)"
     id="layer12"
     style="display:inline" />
</svg>
