<?xml version="1.0" encoding="UTF-8" standalone="no"?>
<!-- Created with Inkscape (http://www.inkscape.org/) -->

<svg
   xmlns:dc="http://purl.org/dc/elements/1.1/"
   xmlns:cc="http://creativecommons.org/ns#"
   xmlns:rdf="http://www.w3.org/1999/02/22-rdf-syntax-ns#"
   xmlns:svg="http://www.w3.org/2000/svg"
   xmlns="http://www.w3.org/2000/svg"
   xmlns:sodipodi="http://sodipodi.sourceforge.net/DTD/sodipodi-0.dtd"
   xmlns:inkscape="http://www.inkscape.org/namespaces/inkscape"
   sodipodi:docname="accessories-dictionary-symbolic.svg"
   height="24"
   id="svg7384"
   inkscape:version="0.91 r13725"
   version="1.1"
   width="24">
  <metadata
     id="metadata90">
    <rdf:RDF>
      <cc:Work
         rdf:about="">
        <dc:format>image/svg+xml</dc:format>
        <dc:type
           rdf:resource="http://purl.org/dc/dcmitype/StillImage" />
        <dc:title>Gnome Symbolic Icon Theme</dc:title>
      </cc:Work>
    </rdf:RDF>
  </metadata>
  <sodipodi:namedview
     inkscape:bbox-nodes="true"
     inkscape:bbox-paths="true"
     bordercolor="#666666"
     borderopacity="1"
     inkscape:current-layer="layer11"
     inkscape:cx="-152.86253"
     inkscape:cy="-4.86751"
     gridtolerance="10"
     inkscape:guide-bbox="true"
     guidetolerance="10"
     id="namedview88"
     inkscape:object-nodes="false"
     inkscape:object-paths="false"
     objecttolerance="10"
     pagecolor="#ffffff"
     inkscape:pageopacity="0"
     inkscape:pageshadow="2"
     showborder="true"
     showgrid="false"
     showguides="true"
     inkscape:snap-bbox="true"
     inkscape:snap-bbox-midpoints="false"
     inkscape:snap-global="true"
     inkscape:snap-grids="true"
     inkscape:snap-nodes="false"
     inkscape:snap-others="false"
     inkscape:snap-to-guides="true"
     inkscape:window-height="716"
     inkscape:window-maximized="1"
     inkscape:window-width="1366"
     inkscape:window-x="0"
     inkscape:window-y="24"
     inkscape:zoom="1">
    <inkscape:grid
       empspacing="2"
       enabled="true"
       id="grid4866"
       originx="-82.02888px"
       originy="412.02581px"
       snapvisiblegridlinesonly="true"
       spacingx="1px"
       spacingy="1px"
       type="xygrid"
       visible="true" />
  </sodipodi:namedview>
  <title
     id="title9167">Gnome Symbolic Icon Theme</title>
  <defs
     id="defs7386" />
  <g
     inkscape:groupmode="layer"
     id="layer9"
     inkscape:label="status"
     style="display:inline"
     transform="translate(-323.02908,-621.02581)" />
  <g
     inkscape:groupmode="layer"
     id="layer10"
     inkscape:label="devices"
     transform="translate(-323.02908,-621.02581)" />
  <g
     inkscape:groupmode="layer"
     id="layer11"
     inkscape:label="apps"
     transform="translate(-323.02908,-621.02581)">
    <path
       inkscape:connector-curvature="0"
       d="m 336.95312,627.51222 c -0.53017,0.0833 -1.16566,0.35584 -1.87998,0.73436 -1.45078,-0.79779 -2.5806,-0.83054 -3.52496,-0.58749 -1.00063,0.25754 -1.81222,0.65465 -3.08434,0.61687 l -0.46999,0 0,0.46999 0,9.22364 0,0.46999 0.46999,0 c 1.24244,0 2.31863,-0.57351 3.31934,-0.82249 1.00072,-0.24897 1.86357,-0.26982 2.96684,0.70499 l 0.29374,0.26438 0.32313,-0.26438 c 1.09688,-0.99953 1.92505,-0.9866 2.90809,-0.73436 0.98303,0.25223 2.04064,0.8435 3.28996,0.85186 l 0.49937,0 0,-0.46999 0,-9.22364 0,-0.46999 -0.46999,0 c -1.41691,0 -2.15826,-0.4214 -3.08434,-0.67562 -0.46304,-0.12711 -0.96077,-0.18172 -1.55685,-0.0881 z m 0.11749,0.91061 c 0.453,-0.0749 0.81922,-0.0176 1.20436,0.0881 0.67843,0.18623 1.56863,0.55113 2.84934,0.64624 l 0,8.2249 c -0.81379,-0.12176 -1.65175,-0.458 -2.61434,-0.70499 -1.04074,-0.26705 -2.26601,-0.15657 -3.46621,0.76374 -1.20987,-0.8977 -2.44399,-0.996 -3.49558,-0.73437 -0.97269,0.242 -1.80094,0.56017 -2.61434,0.67562 l 0,-8.2249 c 1.18802,-0.0712 2.09794,-0.3941 2.84934,-0.58749 0.86436,-0.22247 1.63096,-0.26768 3.05496,0.58749 l 0.235,0.1175 0.235,-0.1175 c 0.77064,-0.43928 1.30947,-0.65944 1.76247,-0.73437 z"
       id="rect2996"
       style="color:#000000;font-style:normal;font-variant:normal;font-weight:normal;font-stretch:normal;font-size:medium;line-height:normal;font-family:Sans;-inkscape-font-specification:Sans;text-indent:0;text-align:start;text-decoration:none;text-decoration-line:none;letter-spacing:normal;word-spacing:normal;text-transform:none;direction:ltr;block-progression:tb;writing-mode:lr-tb;baseline-shift:baseline;text-anchor:start;display:inline;overflow:visible;visibility:visible;fill:#c3c3c3;fill-opacity:1;stroke:none;stroke-width:0.99999988;marker:none;enable-background:accumulate" />
    <rect
       height="9.0269737"
       id="rect3002"
       style="fill:#c3c3c3;fill-opacity:1;stroke:none"
       width="0.93998849"
       x="334.55908"
       y="628.51233" />
    <path
       inkscape:connector-curvature="0"
       d="m 340.18433,626.68086 0,10.72174 -10.3105,0.0588 0,-10.75112 -1.87998,0 0,11.69111 0,0.96936 0.94,-0.0293 12.19047,-0.0588 0.93999,0 0,-0.93999 0,-11.66173 -1.87997,0 z"
       id="path12413"
       style="color:#000000;font-style:normal;font-variant:normal;font-weight:normal;font-stretch:normal;font-size:medium;line-height:normal;font-family:Sans;-inkscape-font-specification:Sans;text-indent:0;text-align:start;text-decoration:none;text-decoration-line:none;letter-spacing:normal;word-spacing:normal;text-transform:none;direction:ltr;block-progression:tb;writing-mode:lr-tb;baseline-shift:baseline;text-anchor:start;display:inline;overflow:visible;visibility:visible;fill:#c3c3c3;fill-opacity:1;stroke:none;stroke-width:2;marker:none;enable-background:accumulate" />
    <path
       inkscape:connector-curvature="0"
       d="m 329.06421,634.59068 0,-2.05622 3.96627,-1.06276 2.09343,0.56094 2.35288,-0.63046 3.51717,0.94242 0,2.30483 z"
       id="path13183"
       style="color:#000000;display:inline;overflow:visible;visibility:visible;opacity:0.3;fill:#c3c3c3;fill-opacity:1;stroke:none;stroke-width:2;marker:none;enable-background:accumulate" />
  </g>
  <g
     inkscape:groupmode="layer"
     id="layer13"
     inkscape:label="places"
     transform="translate(-323.02908,-621.02581)" />
  <g
     inkscape:groupmode="layer"
     id="layer14"
     inkscape:label="mimetypes"
     transform="translate(-323.02908,-621.02581)" />
  <g
     inkscape:groupmode="layer"
     id="layer15"
     inkscape:label="emblems"
     style="display:inline"
     transform="translate(-323.02908,-621.02581)" />
  <g
     inkscape:groupmode="layer"
     id="g71291"
     inkscape:label="emotes"
     style="display:inline"
     transform="translate(-323.02908,-621.02581)" />
  <g
     inkscape:groupmode="layer"
     id="g4953"
     inkscape:label="categories"
     style="display:inline"
     transform="translate(-323.02908,-621.02581)" />
  <g
     inkscape:groupmode="layer"
     id="layer12"
     inkscape:label="actions"
     style="display:inline"
     transform="translate(-323.02908,-621.02581)" />
</svg>
