<?xml version="1.0" encoding="UTF-8" standalone="no"?>
<!-- Created with Inkscape (http://www.inkscape.org/) -->

<svg
   xmlns:dc="http://purl.org/dc/elements/1.1/"
   xmlns:cc="http://creativecommons.org/ns#"
   xmlns:rdf="http://www.w3.org/1999/02/22-rdf-syntax-ns#"
   xmlns:svg="http://www.w3.org/2000/svg"
   xmlns="http://www.w3.org/2000/svg"
   xmlns:sodipodi="http://sodipodi.sourceforge.net/DTD/sodipodi-0.dtd"
   xmlns:inkscape="http://www.inkscape.org/namespaces/inkscape"
   id="svg7384"
   height="24"
   width="24"
   version="1.1"
   inkscape:version="0.91 r13725"
   sodipodi:docname="gnome-power-manager-symbolic.svg">
  <defs
     id="defs10" />
  <sodipodi:namedview
     pagecolor="#ffffff"
     bordercolor="#666666"
     borderopacity="1"
     objecttolerance="10"
     gridtolerance="10"
     guidetolerance="10"
     inkscape:pageopacity="0"
     inkscape:pageshadow="2"
     inkscape:window-width="1366"
     inkscape:window-height="716"
     id="namedview8"
     showgrid="false"
     inkscape:zoom="14.75"
     inkscape:cx="8"
     inkscape:cy="8"
     inkscape:window-x="0"
     inkscape:window-y="24"
     inkscape:window-maximized="1"
     inkscape:current-layer="svg7384" />
  <metadata
     id="metadata90">
    <rdf:RDF>
      <cc:Work
         rdf:about="">
        <dc:format>image/svg+xml</dc:format>
        <dc:type
           rdf:resource="http://purl.org/dc/dcmitype/StillImage" />
        <dc:title>Gnome Symbolic Icon Theme</dc:title>
      </cc:Work>
    </rdf:RDF>
  </metadata>
  <title
     id="title9167">Gnome Symbolic Icon Theme</title>
  <g
     id="layer11"
     transform="matrix(0.87496664,0,0,0.87496664,-119.16036,-459.01992)">
    <path
       id="path11308-6"
       style="color:#eeeeee;text-indent:0;text-transform:none;block-progression:tb;fill:#eeeeee"
       d="m 145.47,530 c -0.49032,0 -0.79606,0.2289 -1.0312,0.46967 -0.23518,0.24077 -0.4375,0.5596 -0.4375,1.0333 l 4e-5,0.49706 -2,0 0,14 7.0001,0 0,-2 -4.9507,0.0494 -0.05,-10.05 1.9999,0 c 0,-0.66536 7e-5,-2 7e-5,-2 l 3,0 -1.3e-4,2 2,0 1.6e-4,1 2,0 -2e-4,-3 -2,0 0,-0.37182 0,-0.0313 c -0.0239,-0.43144 -0.17024,-0.75376 -0.40625,-1.0333 -0.22372,-0.26496 -0.62668,-0.53034 -1.1562,-0.53229 l 0,-0.0313 -0.0625,0 -3.9062,0 z"
       inkscape:connector-curvature="0" />
    <path
       id="path2182"
       style="fill:#eeeeee;fill-rule:evenodd"
       d="m 148,540 2,0 c 0.27642,-1.1035 1.0651,-3.7242 3,-4 l 3,0 0,2 2,0 0,2 -2,0 0,2 2,0 0,2 -2,0 0,2 -3,0 c -1.9349,-0.27585 -2.7236,-2.8966 -3,-4 l -2,0 z"
       inkscape:connector-curvature="0" />
  </g>
</svg>
