<?xml version="1.0" encoding="UTF-8" standalone="no"?>
<!-- Created with Inkscape (http://www.inkscape.org/) -->

<svg
   xmlns:dc="http://purl.org/dc/elements/1.1/"
   xmlns:cc="http://creativecommons.org/ns#"
   xmlns:rdf="http://www.w3.org/1999/02/22-rdf-syntax-ns#"
   xmlns:svg="http://www.w3.org/2000/svg"
   xmlns="http://www.w3.org/2000/svg"
   xmlns:sodipodi="http://sodipodi.sourceforge.net/DTD/sodipodi-0.dtd"
   xmlns:inkscape="http://www.inkscape.org/namespaces/inkscape"
   id="svg7384"
   version="1.1"
   inkscape:version="0.91 r13725"
   height="24"
   sodipodi:docname="help-browser-symbolic.svg"
   width="24">
  <metadata
     id="metadata90">
    <rdf:RDF>
      <cc:Work
         rdf:about="">
        <dc:format>image/svg+xml</dc:format>
        <dc:type
           rdf:resource="http://purl.org/dc/dcmitype/StillImage" />
        <dc:title>Gnome Symbolic Icon Theme</dc:title>
      </cc:Work>
    </rdf:RDF>
  </metadata>
  <sodipodi:namedview
     inkscape:object-paths="true"
     inkscape:cy="-218.16054"
     inkscape:current-layer="layer11"
     inkscape:window-width="1366"
     pagecolor="#ffffff"
     showborder="true"
     showguides="true"
     inkscape:snap-nodes="false"
     objecttolerance="10"
     showgrid="true"
     inkscape:object-nodes="true"
     inkscape:pageshadow="2"
     inkscape:guide-bbox="true"
     inkscape:window-x="0"
     inkscape:snap-bbox="true"
     bordercolor="#666666"
     id="namedview88"
     inkscape:window-maximized="1"
     inkscape:snap-global="true"
     inkscape:window-y="24"
     gridtolerance="10"
     inkscape:zoom="1"
     inkscape:window-height="716"
     borderopacity="1"
     guidetolerance="10"
     inkscape:snap-bbox-midpoints="false"
     inkscape:cx="-289.06688"
     inkscape:bbox-paths="false"
     inkscape:snap-grids="true"
     inkscape:pageopacity="0"
     inkscape:snap-to-guides="true">
    <inkscape:grid
       visible="true"
       spacingx="1px"
       type="xygrid"
       spacingy="1px"
       id="grid4866"
       empspacing="2"
       enabled="true"
       snapvisiblegridlinesonly="true" />
  </sodipodi:namedview>
  <title
     id="title9167">Gnome Symbolic Icon Theme</title>
  <defs
     id="defs7386" />
  <g
     transform="translate(-182,-482)"
     inkscape:groupmode="layer"
     id="layer9"
     inkscape:label="status"
     style="display:inline" />
  <g
     transform="translate(-182,-482)"
     inkscape:groupmode="layer"
     id="layer10"
     inkscape:label="devices" />
  <g
     transform="translate(-182,-482)"
     inkscape:groupmode="layer"
     id="layer11"
     inkscape:label="apps">
    <g
       id="g4145"
       transform="matrix(0.875,0,0,0.875,27.75,58.25)">
      <path
         inkscape:connector-curvature="0"
         style="color:#eeeeee;font-style:normal;font-variant:normal;font-weight:normal;font-stretch:normal;font-size:medium;line-height:normal;font-family:'Bitstream Vera Sans';-inkscape-font-specification:'Bitstream Vera Sans';text-indent:0;text-align:start;text-decoration:none;text-decoration-line:none;letter-spacing:normal;word-spacing:normal;text-transform:none;direction:ltr;block-progression:tb;writing-mode:lr-tb;text-anchor:start;display:inline;overflow:visible;visibility:visible;fill:#eeeeee;fill-opacity:1;stroke:none;stroke-width:2;marker:none;enable-background:accumulate"
         id="rect11749-5-0-3"
         d="m 190,490 c -4.4147,0 -8,3.5853 -8,8 0,4.4147 3.5853,8 8,8 4.4147,0 8,-3.5853 8,-8 0,-4.4147 -3.5853,-8 -8,-8 z m 0,2 c 3.3413,0 6,2.6587 6,6 0,3.3413 -2.6587,6 -6,6 -3.3413,0 -6,-2.6587 -6,-6 0,-3.3413 2.6587,-6 6,-6 z" />
      <path
         inkscape:connector-curvature="0"
         style="color:#eeeeee;font-style:normal;font-variant:normal;font-weight:normal;font-stretch:normal;font-size:medium;line-height:normal;font-family:'Bitstream Vera Sans';-inkscape-font-specification:'Bitstream Vera Sans';text-indent:0;text-align:start;text-decoration:none;text-decoration-line:none;letter-spacing:normal;word-spacing:normal;text-transform:none;direction:ltr;block-progression:tb;writing-mode:lr-tb;text-anchor:start;display:inline;overflow:visible;visibility:visible;fill:#eeeeee;fill-opacity:1;stroke:none;stroke-width:0.99999994;marker:none;enable-background:accumulate"
         id="rect11749-5-0-3-3"
         d="M 189.34375,495 C 188.05763,495 187,496.05763 187,497.34375 l 0,1.3125 c 0,1.28612 1.05763,2.34375 2.34375,2.34375 l 1.3125,0 C 191.94237,501 193,499.94237 193,498.65625 l 0,-1.3125 C 193,496.05763 191.94237,495 190.65625,495 l -1.3125,0 z m 0,1 1.3125,0 c 0.74942,0 1.34375,0.59433 1.34375,1.34375 l 0,1.3125 C 192,499.40567 191.40567,500 190.65625,500 l -1.3125,0 C 188.59433,500 188,499.40567 188,498.65625 l 0,-1.3125 C 188,496.59433 188.59433,496 189.34375,496 Z" />
      <path
         style="fill:#eeeeee;fill-opacity:1;stroke:none"
         id="path4624"
         d="m 186.71875,491.4375 c -1.51031,0.6073 -2.6811,1.7985 -3.28125,3.3125 l 3.75,1.875 c 0.25196,-0.64029 0.74249,-1.17056 1.375,-1.4375 l -1.84375,-3.75 z m 6.5625,0 -1.84375,3.75 c 0.63251,0.26694 1.12304,0.79721 1.375,1.4375 l 3.75,-1.875 c -0.60015,-1.514 -1.77094,-2.7052 -3.28125,-3.3125 z m -6.09375,8 -3.75,1.875 c 0.60709,1.48862 1.78896,2.64995 3.28125,3.25 l 1.875,-3.75 c -0.62682,-0.25556 -1.14334,-0.75203 -1.40625,-1.375 z m 5.625,0 c -0.26291,0.62297 -0.77943,1.11944 -1.40625,1.375 l 1.875,3.75 c 1.49229,-0.60005 2.67416,-1.76138 3.28125,-3.25 l -3.75,-1.875 z"
         inkscape:connector-curvature="0" />
    </g>
  </g>
  <g
     transform="translate(-182,-482)"
     inkscape:groupmode="layer"
     id="layer12"
     inkscape:label="actions" />
  <g
     transform="translate(-182,-482)"
     inkscape:groupmode="layer"
     id="layer13"
     inkscape:label="places" />
  <g
     transform="translate(-182,-482)"
     inkscape:groupmode="layer"
     id="layer14"
     inkscape:label="mimetypes" />
  <g
     transform="translate(-182,-482)"
     inkscape:groupmode="layer"
     id="layer15"
     inkscape:label="emblems"
     style="display:inline" />
  <g
     transform="translate(-182,-482)"
     inkscape:groupmode="layer"
     id="g4953"
     inkscape:label="categories"
     style="display:inline" />
</svg>
