<?xml version="1.0" encoding="UTF-8" standalone="no"?>
<svg id="svg2" xmlns:rdf="http://www.w3.org/1999/02/22-rdf-syntax-ns#" xmlns="http://www.w3.org/2000/svg" height="24" width="24" version="1.1" xmlns:cc="http://creativecommons.org/ns#" xmlns:xlink="http://www.w3.org/1999/xlink" xmlns:dc="http://purl.org/dc/elements/1.1/">
 <metadata id="metadata70">
  <rdf:RDF>
   <cc:Work rdf:about="">
    <dc:format>image/svg+xml</dc:format>
    <dc:type rdf:resource="http://purl.org/dc/dcmitype/StillImage"/>
    <dc:title/>
   </cc:Work>
  </rdf:RDF>
 </metadata>
 <path id="path446" d="m19.317 14.555-3.1299-1.2638 0.36164 1.0059c-0.01805 1.0678-2.0883 1.9137-4.548 1.9137-2.4618 0-4.53-0.84588-4.548-1.9137l0.35957-1.0059-3.1299 1.2638c-0.87648 0.35-0.91311 1.0059-0.081514 1.4498l5.8862 3.157c0.8316 0.44997 2.1935 0.44997 3.0267 0l5.8847-3.157c0.83366-0.44495 0.79651-1.0988-0.08151-1.4498zm-7.317-6.4125c0.93478 0 1.8051-0.28994 2.0599-0.74239-0.35182-0.98537-0.65207-1.8262-0.84346-2.3631-0.12639-0.35496-0.70005-0.53644-1.2164-0.53644-0.51846 0-1.0916 0.17999-1.2185 0.53644-0.18984 0.5369-0.49164 1.3778-0.84295 2.3631 0.25484 0.45493 1.1246 0.74239 2.0615 0.74239zm0 5.5873c1.9913 0 3.6581-0.67593 3.7597-1.5578-0.29664-0.8359-0.62009-1.7388-0.93684-2.6311-0.21978 0.6344-1.4362 1.0833-2.8229 1.0833s-2.6031-0.44997-2.8234-1.0833c-0.3183 0.89232-0.6402 1.7952-0.93684 2.6311 0.1006 0.88188 1.7684 1.5578 3.7603 1.5578" style="fill:#ccc"/>
</svg>
